G04 EAGLE Gerber X2 export*
%TF.Part,Single*%
%TF.FileFunction,Profile,NP*%
%TF.FilePolarity,Positive*%
%TF.GenerationSoftware,Autodesk,EAGLE,9.0.0*%
%TF.CreationDate,2018-04-30T04:21:51Z*%
G75*
%MOMM*%
%FSLAX34Y34*%
%LPD*%
%AMOC8*
5,1,8,0,0,1.08239X$1,22.5*%
G01*
%ADD10C,0.254000*%


D10*
X-180000Y-120000D02*
X-179772Y-125229D01*
X-179088Y-130419D01*
X-177956Y-135529D01*
X-176382Y-140521D01*
X-174378Y-145357D01*
X-171962Y-150000D01*
X-169149Y-154415D01*
X-165963Y-158567D01*
X-162426Y-162426D01*
X-158567Y-165963D01*
X-154415Y-169149D01*
X-150000Y-171962D01*
X-145357Y-174378D01*
X-140521Y-176382D01*
X-135529Y-177956D01*
X-130419Y-179088D01*
X-125229Y-179772D01*
X-120000Y-180000D01*
X120000Y-180000D01*
X125229Y-179772D01*
X130419Y-179088D01*
X135529Y-177956D01*
X140521Y-176382D01*
X145357Y-174378D01*
X150000Y-171962D01*
X154415Y-169149D01*
X158567Y-165963D01*
X162426Y-162426D01*
X165963Y-158567D01*
X169149Y-154415D01*
X171962Y-150000D01*
X174378Y-145357D01*
X176382Y-140521D01*
X177956Y-135529D01*
X179088Y-130419D01*
X179772Y-125229D01*
X180000Y-120000D01*
X180000Y155000D01*
X179563Y160002D01*
X178692Y164947D01*
X177394Y169797D01*
X175677Y174515D01*
X173556Y179066D01*
X171046Y183415D01*
X168167Y187529D01*
X164941Y191375D01*
X161391Y194926D01*
X157545Y198155D01*
X153433Y201035D01*
X149085Y203546D01*
X144535Y205669D01*
X139817Y207387D01*
X134967Y208688D01*
X130023Y209561D01*
X125021Y209999D01*
X120000Y210000D01*
X-120000Y210000D01*
X-125229Y209772D01*
X-130419Y209088D01*
X-135529Y207956D01*
X-140521Y206382D01*
X-145357Y204378D01*
X-150000Y201962D01*
X-154415Y199149D01*
X-158567Y195963D01*
X-162426Y192426D01*
X-165963Y188567D01*
X-169149Y184415D01*
X-171962Y180000D01*
X-174378Y175357D01*
X-176382Y170521D01*
X-177956Y165529D01*
X-179088Y160419D01*
X-179772Y155229D01*
X-180000Y150000D01*
X-180000Y-120000D01*
X-40500Y181780D02*
X-40441Y181433D01*
X-40352Y181093D01*
X-40234Y180762D01*
X-40088Y180442D01*
X-39914Y180136D01*
X-39714Y179847D01*
X-39490Y179576D01*
X-39243Y179326D01*
X-38975Y179098D01*
X-38688Y178894D01*
X-38385Y178717D01*
X-38067Y178566D01*
X-37737Y178443D01*
X-37398Y178350D01*
X-37052Y178287D01*
X-36702Y178254D01*
X-36351Y178252D01*
X-36000Y178280D01*
X-35649Y178252D01*
X-35298Y178254D01*
X-34948Y178287D01*
X-34602Y178350D01*
X-34263Y178443D01*
X-33933Y178566D01*
X-33615Y178717D01*
X-33312Y178894D01*
X-33025Y179098D01*
X-32757Y179326D01*
X-32510Y179576D01*
X-32286Y179847D01*
X-32086Y180136D01*
X-31912Y180442D01*
X-31766Y180762D01*
X-31648Y181093D01*
X-31559Y181433D01*
X-31500Y181780D01*
X-31500Y187780D01*
X-31559Y188127D01*
X-31648Y188467D01*
X-31766Y188798D01*
X-31912Y189118D01*
X-32086Y189424D01*
X-32286Y189713D01*
X-32510Y189984D01*
X-32757Y190234D01*
X-33025Y190462D01*
X-33312Y190666D01*
X-33615Y190843D01*
X-33933Y190994D01*
X-34263Y191117D01*
X-34602Y191210D01*
X-34948Y191273D01*
X-35298Y191306D01*
X-35649Y191308D01*
X-36000Y191280D01*
X-36351Y191308D01*
X-36702Y191306D01*
X-37052Y191273D01*
X-37398Y191210D01*
X-37737Y191117D01*
X-38067Y190994D01*
X-38385Y190843D01*
X-38688Y190666D01*
X-38975Y190462D01*
X-39243Y190234D01*
X-39490Y189984D01*
X-39714Y189713D01*
X-39914Y189424D01*
X-40088Y189118D01*
X-40234Y188798D01*
X-40352Y188467D01*
X-40441Y188127D01*
X-40500Y187780D01*
X-40500Y181780D01*
X31500Y181780D02*
X31513Y181475D01*
X31553Y181172D01*
X31619Y180874D01*
X31711Y180583D01*
X31828Y180301D01*
X31969Y180030D01*
X32133Y179772D01*
X32319Y179530D01*
X32525Y179305D01*
X32750Y179099D01*
X32992Y178913D01*
X33250Y178749D01*
X33521Y178608D01*
X33803Y178491D01*
X34094Y178399D01*
X34392Y178333D01*
X34695Y178293D01*
X35000Y178280D01*
X37000Y178280D01*
X37305Y178293D01*
X37608Y178333D01*
X37906Y178399D01*
X38197Y178491D01*
X38479Y178608D01*
X38750Y178749D01*
X39008Y178913D01*
X39250Y179099D01*
X39475Y179305D01*
X39681Y179530D01*
X39867Y179772D01*
X40031Y180030D01*
X40172Y180301D01*
X40289Y180583D01*
X40381Y180874D01*
X40447Y181172D01*
X40487Y181475D01*
X40500Y181780D01*
X40500Y187280D01*
X40508Y187608D01*
X40486Y187935D01*
X40437Y188259D01*
X40359Y188578D01*
X40254Y188888D01*
X40123Y189189D01*
X39965Y189476D01*
X39783Y189749D01*
X39578Y190005D01*
X39352Y190242D01*
X39106Y190458D01*
X38842Y190653D01*
X38561Y190823D01*
X38268Y190968D01*
X37962Y191088D01*
X37647Y191180D01*
X37326Y191244D01*
X37000Y191280D01*
X35000Y191280D01*
X34674Y191244D01*
X34353Y191180D01*
X34038Y191088D01*
X33733Y190968D01*
X33439Y190823D01*
X33159Y190653D01*
X32894Y190458D01*
X32648Y190242D01*
X32422Y190005D01*
X32217Y189749D01*
X32035Y189476D01*
X31877Y189189D01*
X31746Y188888D01*
X31641Y188578D01*
X31563Y188259D01*
X31514Y187935D01*
X31492Y187608D01*
X31500Y187280D01*
X31500Y181780D01*
X16000Y166009D02*
X16060Y166464D01*
X16179Y166907D01*
X16354Y167331D01*
X16584Y167729D01*
X16863Y168093D01*
X17187Y168417D01*
X17551Y168696D01*
X17949Y168926D01*
X18373Y169101D01*
X18816Y169220D01*
X19271Y169280D01*
X19729Y169280D01*
X20184Y169220D01*
X20627Y169101D01*
X21051Y168926D01*
X21449Y168696D01*
X21813Y168417D01*
X22137Y168093D01*
X22416Y167729D01*
X22646Y167331D01*
X22821Y166907D01*
X22940Y166464D01*
X23000Y166009D01*
X23000Y165551D01*
X22940Y165096D01*
X22821Y164653D01*
X22646Y164229D01*
X22416Y163831D01*
X22137Y163467D01*
X21813Y163143D01*
X21449Y162864D01*
X21051Y162634D01*
X20627Y162459D01*
X20184Y162340D01*
X19729Y162280D01*
X19271Y162280D01*
X18816Y162340D01*
X18373Y162459D01*
X17949Y162634D01*
X17551Y162864D01*
X17187Y163143D01*
X16863Y163467D01*
X16584Y163831D01*
X16354Y164229D01*
X16179Y164653D01*
X16060Y165096D01*
X16000Y165551D01*
X16000Y166009D01*
X-23000Y166009D02*
X-22940Y166464D01*
X-22821Y166907D01*
X-22646Y167331D01*
X-22416Y167729D01*
X-22137Y168093D01*
X-21813Y168417D01*
X-21449Y168696D01*
X-21051Y168926D01*
X-20627Y169101D01*
X-20184Y169220D01*
X-19729Y169280D01*
X-19271Y169280D01*
X-18816Y169220D01*
X-18373Y169101D01*
X-17949Y168926D01*
X-17551Y168696D01*
X-17187Y168417D01*
X-16863Y168093D01*
X-16584Y167729D01*
X-16354Y167331D01*
X-16179Y166907D01*
X-16060Y166464D01*
X-16000Y166009D01*
X-16000Y165551D01*
X-16060Y165096D01*
X-16179Y164653D01*
X-16354Y164229D01*
X-16584Y163831D01*
X-16863Y163467D01*
X-17187Y163143D01*
X-17551Y162864D01*
X-17949Y162634D01*
X-18373Y162459D01*
X-18816Y162340D01*
X-19271Y162280D01*
X-19729Y162280D01*
X-20184Y162340D01*
X-20627Y162459D01*
X-21051Y162634D01*
X-21449Y162864D01*
X-21813Y163143D01*
X-22137Y163467D01*
X-22416Y163831D01*
X-22646Y164229D01*
X-22821Y164653D01*
X-22940Y165096D01*
X-23000Y165551D01*
X-23000Y166009D01*
X-76055Y18015D02*
X-76132Y17430D01*
X-76285Y16860D01*
X-76510Y16315D01*
X-76805Y15805D01*
X-77164Y15337D01*
X-77582Y14919D01*
X-78050Y14560D01*
X-78560Y14265D01*
X-79105Y14040D01*
X-79675Y13887D01*
X-80260Y13810D01*
X-80850Y13810D01*
X-81435Y13887D01*
X-82005Y14040D01*
X-82550Y14265D01*
X-83060Y14560D01*
X-83528Y14919D01*
X-83946Y15337D01*
X-84305Y15805D01*
X-84600Y16315D01*
X-84825Y16860D01*
X-84978Y17430D01*
X-85055Y18015D01*
X-85055Y18605D01*
X-84978Y19190D01*
X-84825Y19760D01*
X-84600Y20305D01*
X-84305Y20815D01*
X-83946Y21283D01*
X-83528Y21701D01*
X-83060Y22060D01*
X-82550Y22355D01*
X-82005Y22580D01*
X-81435Y22733D01*
X-80850Y22810D01*
X-80260Y22810D01*
X-79675Y22733D01*
X-79105Y22580D01*
X-78560Y22355D01*
X-78050Y22060D01*
X-77582Y21701D01*
X-77164Y21283D01*
X-76805Y20815D01*
X-76510Y20305D01*
X-76285Y19760D01*
X-76132Y19190D01*
X-76055Y18605D01*
X-76055Y18015D01*
M02*
