%
M48
M72
T01C0.0315
T02C0.0354
T03C0.0394
T04C0.0400
T05C0.0433
T06C0.0591
T07C0.1000
%
T01
X14504Y21984
X14504Y22771
X14504Y23559
T02
X10012Y21590
X13012Y21590
T03
X6394Y9523
X6394Y10523
X6394Y11523
X6394Y12523
X6394Y13523
X6394Y14523
X6394Y15523
X6394Y16523
X6394Y17523
X6394Y18523
X6394Y19523
X6394Y20523
X6394Y21523
X6394Y22523
X6394Y23523
X6394Y24523
X8650Y24523
X8650Y23523
X8650Y22523
X8650Y21523
X8650Y20523
X8650Y19523
X8650Y18523
X8650Y17523
X8650Y16523
X8650Y15523
X8650Y14523
X8650Y13523
X8650Y12523
X8650Y11523
X8650Y10523
X8650Y9523
X2457Y13523
X2457Y14523
X2457Y15523
X2457Y16523
X2457Y17523
X2457Y18523
X2457Y19523
X2457Y20523
X2457Y21523
X2457Y22523
X2457Y23523
X2457Y24523
X650Y24523
X650Y23523
X650Y22523
X650Y21523
X650Y20523
X650Y19523
X650Y18523
X650Y17523
X650Y16523
X650Y15523
X650Y14523
X650Y13523
T04
X11080Y13441
X11080Y14441
X11080Y15441
X11080Y16441
X11080Y17441
X11080Y18441
X11087Y19622
X12087Y19622
X12080Y18441
X12080Y17441
X12080Y16441
X12080Y15441
X12080Y14441
X12080Y13441
X13080Y13441
X13080Y14441
X13080Y15441
X13080Y16441
X13080Y17441
X13080Y18441
X13087Y19622
X12496Y22929
X11496Y22929
X10496Y22929
T05
X10528Y24149
X11512Y24149
X12496Y24149
T06
X10603Y9252
X10603Y11252
X13603Y11252
X13603Y9252
X14504Y21157
X14504Y24385
T07
X1150Y8023
X1150Y26023
X14536Y8023
X14536Y26023
M30
