G75*
%MOIN*%
%OFA0B0*%
%FSLAX25Y25*%
%IPPOS*%
%LPD*%
%AMOC8*
5,1,8,0,0,1.08239X$1,22.5*
%
%ADD10C,0.00000*%
%ADD11C,0.06600*%
%ADD12C,0.07400*%
%ADD13C,0.08858*%
%ADD14C,0.06496*%
%ADD15C,0.05150*%
%ADD16C,0.01000*%
%ADD17C,0.02400*%
%ADD18C,0.05000*%
D10*
X0011500Y0070232D02*
X0036000Y0070232D01*
X0038000Y0072232D01*
X0054500Y0072232D01*
X0056500Y0070232D01*
X0144492Y0070232D01*
X0144734Y0070235D01*
X0144975Y0070244D01*
X0145216Y0070258D01*
X0145457Y0070279D01*
X0145697Y0070305D01*
X0145937Y0070337D01*
X0146176Y0070375D01*
X0146413Y0070418D01*
X0146650Y0070468D01*
X0146885Y0070523D01*
X0147119Y0070583D01*
X0147351Y0070650D01*
X0147582Y0070721D01*
X0147811Y0070799D01*
X0148038Y0070882D01*
X0148263Y0070970D01*
X0148486Y0071064D01*
X0148706Y0071163D01*
X0148924Y0071268D01*
X0149139Y0071377D01*
X0149352Y0071492D01*
X0149562Y0071612D01*
X0149768Y0071737D01*
X0149972Y0071867D01*
X0150173Y0072002D01*
X0150370Y0072142D01*
X0150564Y0072286D01*
X0150754Y0072435D01*
X0150940Y0072589D01*
X0151123Y0072747D01*
X0151302Y0072909D01*
X0151477Y0073076D01*
X0151648Y0073247D01*
X0151815Y0073422D01*
X0151977Y0073601D01*
X0152135Y0073784D01*
X0152289Y0073970D01*
X0152438Y0074160D01*
X0152582Y0074354D01*
X0152722Y0074551D01*
X0152857Y0074752D01*
X0152987Y0074956D01*
X0153112Y0075162D01*
X0153232Y0075372D01*
X0153347Y0075585D01*
X0153456Y0075800D01*
X0153561Y0076018D01*
X0153660Y0076238D01*
X0153754Y0076461D01*
X0153842Y0076686D01*
X0153925Y0076913D01*
X0154003Y0077142D01*
X0154074Y0077373D01*
X0154141Y0077605D01*
X0154201Y0077839D01*
X0154256Y0078074D01*
X0154306Y0078311D01*
X0154349Y0078548D01*
X0154387Y0078787D01*
X0154419Y0079027D01*
X0154445Y0079267D01*
X0154466Y0079508D01*
X0154480Y0079749D01*
X0154489Y0079990D01*
X0154492Y0080232D01*
X0154492Y0260232D01*
X0140358Y0260232D02*
X0140360Y0260373D01*
X0140366Y0260514D01*
X0140376Y0260654D01*
X0140390Y0260794D01*
X0140408Y0260934D01*
X0140429Y0261073D01*
X0140455Y0261212D01*
X0140484Y0261350D01*
X0140518Y0261486D01*
X0140555Y0261622D01*
X0140596Y0261757D01*
X0140641Y0261891D01*
X0140690Y0262023D01*
X0140742Y0262154D01*
X0140798Y0262283D01*
X0140858Y0262410D01*
X0140921Y0262536D01*
X0140987Y0262660D01*
X0141058Y0262783D01*
X0141131Y0262903D01*
X0141208Y0263021D01*
X0141288Y0263137D01*
X0141372Y0263250D01*
X0141458Y0263361D01*
X0141548Y0263470D01*
X0141641Y0263576D01*
X0141736Y0263679D01*
X0141835Y0263780D01*
X0141936Y0263878D01*
X0142040Y0263973D01*
X0142147Y0264065D01*
X0142256Y0264154D01*
X0142368Y0264239D01*
X0142482Y0264322D01*
X0142598Y0264402D01*
X0142717Y0264478D01*
X0142838Y0264550D01*
X0142960Y0264620D01*
X0143085Y0264685D01*
X0143211Y0264748D01*
X0143339Y0264806D01*
X0143469Y0264861D01*
X0143600Y0264913D01*
X0143733Y0264960D01*
X0143867Y0265004D01*
X0144002Y0265045D01*
X0144138Y0265081D01*
X0144275Y0265113D01*
X0144413Y0265142D01*
X0144551Y0265167D01*
X0144691Y0265187D01*
X0144831Y0265204D01*
X0144971Y0265217D01*
X0145112Y0265226D01*
X0145252Y0265231D01*
X0145393Y0265232D01*
X0145534Y0265229D01*
X0145675Y0265222D01*
X0145815Y0265211D01*
X0145955Y0265196D01*
X0146095Y0265177D01*
X0146234Y0265155D01*
X0146372Y0265128D01*
X0146510Y0265098D01*
X0146646Y0265063D01*
X0146782Y0265025D01*
X0146916Y0264983D01*
X0147050Y0264937D01*
X0147182Y0264888D01*
X0147312Y0264834D01*
X0147441Y0264777D01*
X0147568Y0264717D01*
X0147694Y0264653D01*
X0147817Y0264585D01*
X0147939Y0264514D01*
X0148059Y0264440D01*
X0148176Y0264362D01*
X0148291Y0264281D01*
X0148404Y0264197D01*
X0148515Y0264110D01*
X0148623Y0264019D01*
X0148728Y0263926D01*
X0148831Y0263829D01*
X0148931Y0263730D01*
X0149028Y0263628D01*
X0149122Y0263523D01*
X0149213Y0263416D01*
X0149301Y0263306D01*
X0149386Y0263194D01*
X0149468Y0263079D01*
X0149547Y0262962D01*
X0149622Y0262843D01*
X0149694Y0262722D01*
X0149762Y0262599D01*
X0149827Y0262474D01*
X0149889Y0262347D01*
X0149946Y0262218D01*
X0150001Y0262088D01*
X0150051Y0261957D01*
X0150098Y0261824D01*
X0150141Y0261690D01*
X0150180Y0261554D01*
X0150215Y0261418D01*
X0150247Y0261281D01*
X0150274Y0261143D01*
X0150298Y0261004D01*
X0150318Y0260864D01*
X0150334Y0260724D01*
X0150346Y0260584D01*
X0150354Y0260443D01*
X0150358Y0260302D01*
X0150358Y0260162D01*
X0150354Y0260021D01*
X0150346Y0259880D01*
X0150334Y0259740D01*
X0150318Y0259600D01*
X0150298Y0259460D01*
X0150274Y0259321D01*
X0150247Y0259183D01*
X0150215Y0259046D01*
X0150180Y0258910D01*
X0150141Y0258774D01*
X0150098Y0258640D01*
X0150051Y0258507D01*
X0150001Y0258376D01*
X0149946Y0258246D01*
X0149889Y0258117D01*
X0149827Y0257990D01*
X0149762Y0257865D01*
X0149694Y0257742D01*
X0149622Y0257621D01*
X0149547Y0257502D01*
X0149468Y0257385D01*
X0149386Y0257270D01*
X0149301Y0257158D01*
X0149213Y0257048D01*
X0149122Y0256941D01*
X0149028Y0256836D01*
X0148931Y0256734D01*
X0148831Y0256635D01*
X0148728Y0256538D01*
X0148623Y0256445D01*
X0148515Y0256354D01*
X0148404Y0256267D01*
X0148291Y0256183D01*
X0148176Y0256102D01*
X0148059Y0256024D01*
X0147939Y0255950D01*
X0147817Y0255879D01*
X0147694Y0255811D01*
X0147568Y0255747D01*
X0147441Y0255687D01*
X0147312Y0255630D01*
X0147182Y0255576D01*
X0147050Y0255527D01*
X0146916Y0255481D01*
X0146782Y0255439D01*
X0146646Y0255401D01*
X0146510Y0255366D01*
X0146372Y0255336D01*
X0146234Y0255309D01*
X0146095Y0255287D01*
X0145955Y0255268D01*
X0145815Y0255253D01*
X0145675Y0255242D01*
X0145534Y0255235D01*
X0145393Y0255232D01*
X0145252Y0255233D01*
X0145112Y0255238D01*
X0144971Y0255247D01*
X0144831Y0255260D01*
X0144691Y0255277D01*
X0144551Y0255297D01*
X0144413Y0255322D01*
X0144275Y0255351D01*
X0144138Y0255383D01*
X0144002Y0255419D01*
X0143867Y0255460D01*
X0143733Y0255504D01*
X0143600Y0255551D01*
X0143469Y0255603D01*
X0143339Y0255658D01*
X0143211Y0255716D01*
X0143085Y0255779D01*
X0142960Y0255844D01*
X0142838Y0255914D01*
X0142717Y0255986D01*
X0142598Y0256062D01*
X0142482Y0256142D01*
X0142368Y0256225D01*
X0142256Y0256310D01*
X0142147Y0256399D01*
X0142040Y0256491D01*
X0141936Y0256586D01*
X0141835Y0256684D01*
X0141736Y0256785D01*
X0141641Y0256888D01*
X0141548Y0256994D01*
X0141458Y0257103D01*
X0141372Y0257214D01*
X0141288Y0257327D01*
X0141208Y0257443D01*
X0141131Y0257561D01*
X0141058Y0257681D01*
X0140987Y0257804D01*
X0140921Y0257928D01*
X0140858Y0258054D01*
X0140798Y0258181D01*
X0140742Y0258310D01*
X0140690Y0258441D01*
X0140641Y0258573D01*
X0140596Y0258707D01*
X0140555Y0258842D01*
X0140518Y0258978D01*
X0140484Y0259114D01*
X0140455Y0259252D01*
X0140429Y0259391D01*
X0140408Y0259530D01*
X0140390Y0259670D01*
X0140376Y0259810D01*
X0140366Y0259950D01*
X0140360Y0260091D01*
X0140358Y0260232D01*
X0144492Y0270232D02*
X0144734Y0270229D01*
X0144975Y0270220D01*
X0145216Y0270206D01*
X0145457Y0270185D01*
X0145697Y0270159D01*
X0145937Y0270127D01*
X0146176Y0270089D01*
X0146413Y0270046D01*
X0146650Y0269996D01*
X0146885Y0269941D01*
X0147119Y0269881D01*
X0147351Y0269814D01*
X0147582Y0269743D01*
X0147811Y0269665D01*
X0148038Y0269582D01*
X0148263Y0269494D01*
X0148486Y0269400D01*
X0148706Y0269301D01*
X0148924Y0269196D01*
X0149139Y0269087D01*
X0149352Y0268972D01*
X0149562Y0268852D01*
X0149768Y0268727D01*
X0149972Y0268597D01*
X0150173Y0268462D01*
X0150370Y0268322D01*
X0150564Y0268178D01*
X0150754Y0268029D01*
X0150940Y0267875D01*
X0151123Y0267717D01*
X0151302Y0267555D01*
X0151477Y0267388D01*
X0151648Y0267217D01*
X0151815Y0267042D01*
X0151977Y0266863D01*
X0152135Y0266680D01*
X0152289Y0266494D01*
X0152438Y0266304D01*
X0152582Y0266110D01*
X0152722Y0265913D01*
X0152857Y0265712D01*
X0152987Y0265508D01*
X0153112Y0265302D01*
X0153232Y0265092D01*
X0153347Y0264879D01*
X0153456Y0264664D01*
X0153561Y0264446D01*
X0153660Y0264226D01*
X0153754Y0264003D01*
X0153842Y0263778D01*
X0153925Y0263551D01*
X0154003Y0263322D01*
X0154074Y0263091D01*
X0154141Y0262859D01*
X0154201Y0262625D01*
X0154256Y0262390D01*
X0154306Y0262153D01*
X0154349Y0261916D01*
X0154387Y0261677D01*
X0154419Y0261437D01*
X0154445Y0261197D01*
X0154466Y0260956D01*
X0154480Y0260715D01*
X0154489Y0260474D01*
X0154492Y0260232D01*
X0144492Y0270232D02*
X0011500Y0270232D01*
X0006500Y0260232D02*
X0006502Y0260373D01*
X0006508Y0260514D01*
X0006518Y0260654D01*
X0006532Y0260794D01*
X0006550Y0260934D01*
X0006571Y0261073D01*
X0006597Y0261212D01*
X0006626Y0261350D01*
X0006660Y0261486D01*
X0006697Y0261622D01*
X0006738Y0261757D01*
X0006783Y0261891D01*
X0006832Y0262023D01*
X0006884Y0262154D01*
X0006940Y0262283D01*
X0007000Y0262410D01*
X0007063Y0262536D01*
X0007129Y0262660D01*
X0007200Y0262783D01*
X0007273Y0262903D01*
X0007350Y0263021D01*
X0007430Y0263137D01*
X0007514Y0263250D01*
X0007600Y0263361D01*
X0007690Y0263470D01*
X0007783Y0263576D01*
X0007878Y0263679D01*
X0007977Y0263780D01*
X0008078Y0263878D01*
X0008182Y0263973D01*
X0008289Y0264065D01*
X0008398Y0264154D01*
X0008510Y0264239D01*
X0008624Y0264322D01*
X0008740Y0264402D01*
X0008859Y0264478D01*
X0008980Y0264550D01*
X0009102Y0264620D01*
X0009227Y0264685D01*
X0009353Y0264748D01*
X0009481Y0264806D01*
X0009611Y0264861D01*
X0009742Y0264913D01*
X0009875Y0264960D01*
X0010009Y0265004D01*
X0010144Y0265045D01*
X0010280Y0265081D01*
X0010417Y0265113D01*
X0010555Y0265142D01*
X0010693Y0265167D01*
X0010833Y0265187D01*
X0010973Y0265204D01*
X0011113Y0265217D01*
X0011254Y0265226D01*
X0011394Y0265231D01*
X0011535Y0265232D01*
X0011676Y0265229D01*
X0011817Y0265222D01*
X0011957Y0265211D01*
X0012097Y0265196D01*
X0012237Y0265177D01*
X0012376Y0265155D01*
X0012514Y0265128D01*
X0012652Y0265098D01*
X0012788Y0265063D01*
X0012924Y0265025D01*
X0013058Y0264983D01*
X0013192Y0264937D01*
X0013324Y0264888D01*
X0013454Y0264834D01*
X0013583Y0264777D01*
X0013710Y0264717D01*
X0013836Y0264653D01*
X0013959Y0264585D01*
X0014081Y0264514D01*
X0014201Y0264440D01*
X0014318Y0264362D01*
X0014433Y0264281D01*
X0014546Y0264197D01*
X0014657Y0264110D01*
X0014765Y0264019D01*
X0014870Y0263926D01*
X0014973Y0263829D01*
X0015073Y0263730D01*
X0015170Y0263628D01*
X0015264Y0263523D01*
X0015355Y0263416D01*
X0015443Y0263306D01*
X0015528Y0263194D01*
X0015610Y0263079D01*
X0015689Y0262962D01*
X0015764Y0262843D01*
X0015836Y0262722D01*
X0015904Y0262599D01*
X0015969Y0262474D01*
X0016031Y0262347D01*
X0016088Y0262218D01*
X0016143Y0262088D01*
X0016193Y0261957D01*
X0016240Y0261824D01*
X0016283Y0261690D01*
X0016322Y0261554D01*
X0016357Y0261418D01*
X0016389Y0261281D01*
X0016416Y0261143D01*
X0016440Y0261004D01*
X0016460Y0260864D01*
X0016476Y0260724D01*
X0016488Y0260584D01*
X0016496Y0260443D01*
X0016500Y0260302D01*
X0016500Y0260162D01*
X0016496Y0260021D01*
X0016488Y0259880D01*
X0016476Y0259740D01*
X0016460Y0259600D01*
X0016440Y0259460D01*
X0016416Y0259321D01*
X0016389Y0259183D01*
X0016357Y0259046D01*
X0016322Y0258910D01*
X0016283Y0258774D01*
X0016240Y0258640D01*
X0016193Y0258507D01*
X0016143Y0258376D01*
X0016088Y0258246D01*
X0016031Y0258117D01*
X0015969Y0257990D01*
X0015904Y0257865D01*
X0015836Y0257742D01*
X0015764Y0257621D01*
X0015689Y0257502D01*
X0015610Y0257385D01*
X0015528Y0257270D01*
X0015443Y0257158D01*
X0015355Y0257048D01*
X0015264Y0256941D01*
X0015170Y0256836D01*
X0015073Y0256734D01*
X0014973Y0256635D01*
X0014870Y0256538D01*
X0014765Y0256445D01*
X0014657Y0256354D01*
X0014546Y0256267D01*
X0014433Y0256183D01*
X0014318Y0256102D01*
X0014201Y0256024D01*
X0014081Y0255950D01*
X0013959Y0255879D01*
X0013836Y0255811D01*
X0013710Y0255747D01*
X0013583Y0255687D01*
X0013454Y0255630D01*
X0013324Y0255576D01*
X0013192Y0255527D01*
X0013058Y0255481D01*
X0012924Y0255439D01*
X0012788Y0255401D01*
X0012652Y0255366D01*
X0012514Y0255336D01*
X0012376Y0255309D01*
X0012237Y0255287D01*
X0012097Y0255268D01*
X0011957Y0255253D01*
X0011817Y0255242D01*
X0011676Y0255235D01*
X0011535Y0255232D01*
X0011394Y0255233D01*
X0011254Y0255238D01*
X0011113Y0255247D01*
X0010973Y0255260D01*
X0010833Y0255277D01*
X0010693Y0255297D01*
X0010555Y0255322D01*
X0010417Y0255351D01*
X0010280Y0255383D01*
X0010144Y0255419D01*
X0010009Y0255460D01*
X0009875Y0255504D01*
X0009742Y0255551D01*
X0009611Y0255603D01*
X0009481Y0255658D01*
X0009353Y0255716D01*
X0009227Y0255779D01*
X0009102Y0255844D01*
X0008980Y0255914D01*
X0008859Y0255986D01*
X0008740Y0256062D01*
X0008624Y0256142D01*
X0008510Y0256225D01*
X0008398Y0256310D01*
X0008289Y0256399D01*
X0008182Y0256491D01*
X0008078Y0256586D01*
X0007977Y0256684D01*
X0007878Y0256785D01*
X0007783Y0256888D01*
X0007690Y0256994D01*
X0007600Y0257103D01*
X0007514Y0257214D01*
X0007430Y0257327D01*
X0007350Y0257443D01*
X0007273Y0257561D01*
X0007200Y0257681D01*
X0007129Y0257804D01*
X0007063Y0257928D01*
X0007000Y0258054D01*
X0006940Y0258181D01*
X0006884Y0258310D01*
X0006832Y0258441D01*
X0006783Y0258573D01*
X0006738Y0258707D01*
X0006697Y0258842D01*
X0006660Y0258978D01*
X0006626Y0259114D01*
X0006597Y0259252D01*
X0006571Y0259391D01*
X0006550Y0259530D01*
X0006532Y0259670D01*
X0006518Y0259810D01*
X0006508Y0259950D01*
X0006502Y0260091D01*
X0006500Y0260232D01*
X0001500Y0260232D02*
X0001503Y0260474D01*
X0001512Y0260715D01*
X0001526Y0260956D01*
X0001547Y0261197D01*
X0001573Y0261437D01*
X0001605Y0261677D01*
X0001643Y0261916D01*
X0001686Y0262153D01*
X0001736Y0262390D01*
X0001791Y0262625D01*
X0001851Y0262859D01*
X0001918Y0263091D01*
X0001989Y0263322D01*
X0002067Y0263551D01*
X0002150Y0263778D01*
X0002238Y0264003D01*
X0002332Y0264226D01*
X0002431Y0264446D01*
X0002536Y0264664D01*
X0002645Y0264879D01*
X0002760Y0265092D01*
X0002880Y0265302D01*
X0003005Y0265508D01*
X0003135Y0265712D01*
X0003270Y0265913D01*
X0003410Y0266110D01*
X0003554Y0266304D01*
X0003703Y0266494D01*
X0003857Y0266680D01*
X0004015Y0266863D01*
X0004177Y0267042D01*
X0004344Y0267217D01*
X0004515Y0267388D01*
X0004690Y0267555D01*
X0004869Y0267717D01*
X0005052Y0267875D01*
X0005238Y0268029D01*
X0005428Y0268178D01*
X0005622Y0268322D01*
X0005819Y0268462D01*
X0006020Y0268597D01*
X0006224Y0268727D01*
X0006430Y0268852D01*
X0006640Y0268972D01*
X0006853Y0269087D01*
X0007068Y0269196D01*
X0007286Y0269301D01*
X0007506Y0269400D01*
X0007729Y0269494D01*
X0007954Y0269582D01*
X0008181Y0269665D01*
X0008410Y0269743D01*
X0008641Y0269814D01*
X0008873Y0269881D01*
X0009107Y0269941D01*
X0009342Y0269996D01*
X0009579Y0270046D01*
X0009816Y0270089D01*
X0010055Y0270127D01*
X0010295Y0270159D01*
X0010535Y0270185D01*
X0010776Y0270206D01*
X0011017Y0270220D01*
X0011258Y0270229D01*
X0011500Y0270232D01*
X0001500Y0260232D02*
X0001500Y0080232D01*
X0006500Y0080232D02*
X0006502Y0080373D01*
X0006508Y0080514D01*
X0006518Y0080654D01*
X0006532Y0080794D01*
X0006550Y0080934D01*
X0006571Y0081073D01*
X0006597Y0081212D01*
X0006626Y0081350D01*
X0006660Y0081486D01*
X0006697Y0081622D01*
X0006738Y0081757D01*
X0006783Y0081891D01*
X0006832Y0082023D01*
X0006884Y0082154D01*
X0006940Y0082283D01*
X0007000Y0082410D01*
X0007063Y0082536D01*
X0007129Y0082660D01*
X0007200Y0082783D01*
X0007273Y0082903D01*
X0007350Y0083021D01*
X0007430Y0083137D01*
X0007514Y0083250D01*
X0007600Y0083361D01*
X0007690Y0083470D01*
X0007783Y0083576D01*
X0007878Y0083679D01*
X0007977Y0083780D01*
X0008078Y0083878D01*
X0008182Y0083973D01*
X0008289Y0084065D01*
X0008398Y0084154D01*
X0008510Y0084239D01*
X0008624Y0084322D01*
X0008740Y0084402D01*
X0008859Y0084478D01*
X0008980Y0084550D01*
X0009102Y0084620D01*
X0009227Y0084685D01*
X0009353Y0084748D01*
X0009481Y0084806D01*
X0009611Y0084861D01*
X0009742Y0084913D01*
X0009875Y0084960D01*
X0010009Y0085004D01*
X0010144Y0085045D01*
X0010280Y0085081D01*
X0010417Y0085113D01*
X0010555Y0085142D01*
X0010693Y0085167D01*
X0010833Y0085187D01*
X0010973Y0085204D01*
X0011113Y0085217D01*
X0011254Y0085226D01*
X0011394Y0085231D01*
X0011535Y0085232D01*
X0011676Y0085229D01*
X0011817Y0085222D01*
X0011957Y0085211D01*
X0012097Y0085196D01*
X0012237Y0085177D01*
X0012376Y0085155D01*
X0012514Y0085128D01*
X0012652Y0085098D01*
X0012788Y0085063D01*
X0012924Y0085025D01*
X0013058Y0084983D01*
X0013192Y0084937D01*
X0013324Y0084888D01*
X0013454Y0084834D01*
X0013583Y0084777D01*
X0013710Y0084717D01*
X0013836Y0084653D01*
X0013959Y0084585D01*
X0014081Y0084514D01*
X0014201Y0084440D01*
X0014318Y0084362D01*
X0014433Y0084281D01*
X0014546Y0084197D01*
X0014657Y0084110D01*
X0014765Y0084019D01*
X0014870Y0083926D01*
X0014973Y0083829D01*
X0015073Y0083730D01*
X0015170Y0083628D01*
X0015264Y0083523D01*
X0015355Y0083416D01*
X0015443Y0083306D01*
X0015528Y0083194D01*
X0015610Y0083079D01*
X0015689Y0082962D01*
X0015764Y0082843D01*
X0015836Y0082722D01*
X0015904Y0082599D01*
X0015969Y0082474D01*
X0016031Y0082347D01*
X0016088Y0082218D01*
X0016143Y0082088D01*
X0016193Y0081957D01*
X0016240Y0081824D01*
X0016283Y0081690D01*
X0016322Y0081554D01*
X0016357Y0081418D01*
X0016389Y0081281D01*
X0016416Y0081143D01*
X0016440Y0081004D01*
X0016460Y0080864D01*
X0016476Y0080724D01*
X0016488Y0080584D01*
X0016496Y0080443D01*
X0016500Y0080302D01*
X0016500Y0080162D01*
X0016496Y0080021D01*
X0016488Y0079880D01*
X0016476Y0079740D01*
X0016460Y0079600D01*
X0016440Y0079460D01*
X0016416Y0079321D01*
X0016389Y0079183D01*
X0016357Y0079046D01*
X0016322Y0078910D01*
X0016283Y0078774D01*
X0016240Y0078640D01*
X0016193Y0078507D01*
X0016143Y0078376D01*
X0016088Y0078246D01*
X0016031Y0078117D01*
X0015969Y0077990D01*
X0015904Y0077865D01*
X0015836Y0077742D01*
X0015764Y0077621D01*
X0015689Y0077502D01*
X0015610Y0077385D01*
X0015528Y0077270D01*
X0015443Y0077158D01*
X0015355Y0077048D01*
X0015264Y0076941D01*
X0015170Y0076836D01*
X0015073Y0076734D01*
X0014973Y0076635D01*
X0014870Y0076538D01*
X0014765Y0076445D01*
X0014657Y0076354D01*
X0014546Y0076267D01*
X0014433Y0076183D01*
X0014318Y0076102D01*
X0014201Y0076024D01*
X0014081Y0075950D01*
X0013959Y0075879D01*
X0013836Y0075811D01*
X0013710Y0075747D01*
X0013583Y0075687D01*
X0013454Y0075630D01*
X0013324Y0075576D01*
X0013192Y0075527D01*
X0013058Y0075481D01*
X0012924Y0075439D01*
X0012788Y0075401D01*
X0012652Y0075366D01*
X0012514Y0075336D01*
X0012376Y0075309D01*
X0012237Y0075287D01*
X0012097Y0075268D01*
X0011957Y0075253D01*
X0011817Y0075242D01*
X0011676Y0075235D01*
X0011535Y0075232D01*
X0011394Y0075233D01*
X0011254Y0075238D01*
X0011113Y0075247D01*
X0010973Y0075260D01*
X0010833Y0075277D01*
X0010693Y0075297D01*
X0010555Y0075322D01*
X0010417Y0075351D01*
X0010280Y0075383D01*
X0010144Y0075419D01*
X0010009Y0075460D01*
X0009875Y0075504D01*
X0009742Y0075551D01*
X0009611Y0075603D01*
X0009481Y0075658D01*
X0009353Y0075716D01*
X0009227Y0075779D01*
X0009102Y0075844D01*
X0008980Y0075914D01*
X0008859Y0075986D01*
X0008740Y0076062D01*
X0008624Y0076142D01*
X0008510Y0076225D01*
X0008398Y0076310D01*
X0008289Y0076399D01*
X0008182Y0076491D01*
X0008078Y0076586D01*
X0007977Y0076684D01*
X0007878Y0076785D01*
X0007783Y0076888D01*
X0007690Y0076994D01*
X0007600Y0077103D01*
X0007514Y0077214D01*
X0007430Y0077327D01*
X0007350Y0077443D01*
X0007273Y0077561D01*
X0007200Y0077681D01*
X0007129Y0077804D01*
X0007063Y0077928D01*
X0007000Y0078054D01*
X0006940Y0078181D01*
X0006884Y0078310D01*
X0006832Y0078441D01*
X0006783Y0078573D01*
X0006738Y0078707D01*
X0006697Y0078842D01*
X0006660Y0078978D01*
X0006626Y0079114D01*
X0006597Y0079252D01*
X0006571Y0079391D01*
X0006550Y0079530D01*
X0006532Y0079670D01*
X0006518Y0079810D01*
X0006508Y0079950D01*
X0006502Y0080091D01*
X0006500Y0080232D01*
X0001500Y0080232D02*
X0001503Y0079990D01*
X0001512Y0079749D01*
X0001526Y0079508D01*
X0001547Y0079267D01*
X0001573Y0079027D01*
X0001605Y0078787D01*
X0001643Y0078548D01*
X0001686Y0078311D01*
X0001736Y0078074D01*
X0001791Y0077839D01*
X0001851Y0077605D01*
X0001918Y0077373D01*
X0001989Y0077142D01*
X0002067Y0076913D01*
X0002150Y0076686D01*
X0002238Y0076461D01*
X0002332Y0076238D01*
X0002431Y0076018D01*
X0002536Y0075800D01*
X0002645Y0075585D01*
X0002760Y0075372D01*
X0002880Y0075162D01*
X0003005Y0074956D01*
X0003135Y0074752D01*
X0003270Y0074551D01*
X0003410Y0074354D01*
X0003554Y0074160D01*
X0003703Y0073970D01*
X0003857Y0073784D01*
X0004015Y0073601D01*
X0004177Y0073422D01*
X0004344Y0073247D01*
X0004515Y0073076D01*
X0004690Y0072909D01*
X0004869Y0072747D01*
X0005052Y0072589D01*
X0005238Y0072435D01*
X0005428Y0072286D01*
X0005622Y0072142D01*
X0005819Y0072002D01*
X0006020Y0071867D01*
X0006224Y0071737D01*
X0006430Y0071612D01*
X0006640Y0071492D01*
X0006853Y0071377D01*
X0007068Y0071268D01*
X0007286Y0071163D01*
X0007506Y0071064D01*
X0007729Y0070970D01*
X0007954Y0070882D01*
X0008181Y0070799D01*
X0008410Y0070721D01*
X0008641Y0070650D01*
X0008873Y0070583D01*
X0009107Y0070523D01*
X0009342Y0070468D01*
X0009579Y0070418D01*
X0009816Y0070375D01*
X0010055Y0070337D01*
X0010295Y0070305D01*
X0010535Y0070279D01*
X0010776Y0070258D01*
X0011017Y0070244D01*
X0011258Y0070235D01*
X0011500Y0070232D01*
X0140358Y0080232D02*
X0140360Y0080373D01*
X0140366Y0080514D01*
X0140376Y0080654D01*
X0140390Y0080794D01*
X0140408Y0080934D01*
X0140429Y0081073D01*
X0140455Y0081212D01*
X0140484Y0081350D01*
X0140518Y0081486D01*
X0140555Y0081622D01*
X0140596Y0081757D01*
X0140641Y0081891D01*
X0140690Y0082023D01*
X0140742Y0082154D01*
X0140798Y0082283D01*
X0140858Y0082410D01*
X0140921Y0082536D01*
X0140987Y0082660D01*
X0141058Y0082783D01*
X0141131Y0082903D01*
X0141208Y0083021D01*
X0141288Y0083137D01*
X0141372Y0083250D01*
X0141458Y0083361D01*
X0141548Y0083470D01*
X0141641Y0083576D01*
X0141736Y0083679D01*
X0141835Y0083780D01*
X0141936Y0083878D01*
X0142040Y0083973D01*
X0142147Y0084065D01*
X0142256Y0084154D01*
X0142368Y0084239D01*
X0142482Y0084322D01*
X0142598Y0084402D01*
X0142717Y0084478D01*
X0142838Y0084550D01*
X0142960Y0084620D01*
X0143085Y0084685D01*
X0143211Y0084748D01*
X0143339Y0084806D01*
X0143469Y0084861D01*
X0143600Y0084913D01*
X0143733Y0084960D01*
X0143867Y0085004D01*
X0144002Y0085045D01*
X0144138Y0085081D01*
X0144275Y0085113D01*
X0144413Y0085142D01*
X0144551Y0085167D01*
X0144691Y0085187D01*
X0144831Y0085204D01*
X0144971Y0085217D01*
X0145112Y0085226D01*
X0145252Y0085231D01*
X0145393Y0085232D01*
X0145534Y0085229D01*
X0145675Y0085222D01*
X0145815Y0085211D01*
X0145955Y0085196D01*
X0146095Y0085177D01*
X0146234Y0085155D01*
X0146372Y0085128D01*
X0146510Y0085098D01*
X0146646Y0085063D01*
X0146782Y0085025D01*
X0146916Y0084983D01*
X0147050Y0084937D01*
X0147182Y0084888D01*
X0147312Y0084834D01*
X0147441Y0084777D01*
X0147568Y0084717D01*
X0147694Y0084653D01*
X0147817Y0084585D01*
X0147939Y0084514D01*
X0148059Y0084440D01*
X0148176Y0084362D01*
X0148291Y0084281D01*
X0148404Y0084197D01*
X0148515Y0084110D01*
X0148623Y0084019D01*
X0148728Y0083926D01*
X0148831Y0083829D01*
X0148931Y0083730D01*
X0149028Y0083628D01*
X0149122Y0083523D01*
X0149213Y0083416D01*
X0149301Y0083306D01*
X0149386Y0083194D01*
X0149468Y0083079D01*
X0149547Y0082962D01*
X0149622Y0082843D01*
X0149694Y0082722D01*
X0149762Y0082599D01*
X0149827Y0082474D01*
X0149889Y0082347D01*
X0149946Y0082218D01*
X0150001Y0082088D01*
X0150051Y0081957D01*
X0150098Y0081824D01*
X0150141Y0081690D01*
X0150180Y0081554D01*
X0150215Y0081418D01*
X0150247Y0081281D01*
X0150274Y0081143D01*
X0150298Y0081004D01*
X0150318Y0080864D01*
X0150334Y0080724D01*
X0150346Y0080584D01*
X0150354Y0080443D01*
X0150358Y0080302D01*
X0150358Y0080162D01*
X0150354Y0080021D01*
X0150346Y0079880D01*
X0150334Y0079740D01*
X0150318Y0079600D01*
X0150298Y0079460D01*
X0150274Y0079321D01*
X0150247Y0079183D01*
X0150215Y0079046D01*
X0150180Y0078910D01*
X0150141Y0078774D01*
X0150098Y0078640D01*
X0150051Y0078507D01*
X0150001Y0078376D01*
X0149946Y0078246D01*
X0149889Y0078117D01*
X0149827Y0077990D01*
X0149762Y0077865D01*
X0149694Y0077742D01*
X0149622Y0077621D01*
X0149547Y0077502D01*
X0149468Y0077385D01*
X0149386Y0077270D01*
X0149301Y0077158D01*
X0149213Y0077048D01*
X0149122Y0076941D01*
X0149028Y0076836D01*
X0148931Y0076734D01*
X0148831Y0076635D01*
X0148728Y0076538D01*
X0148623Y0076445D01*
X0148515Y0076354D01*
X0148404Y0076267D01*
X0148291Y0076183D01*
X0148176Y0076102D01*
X0148059Y0076024D01*
X0147939Y0075950D01*
X0147817Y0075879D01*
X0147694Y0075811D01*
X0147568Y0075747D01*
X0147441Y0075687D01*
X0147312Y0075630D01*
X0147182Y0075576D01*
X0147050Y0075527D01*
X0146916Y0075481D01*
X0146782Y0075439D01*
X0146646Y0075401D01*
X0146510Y0075366D01*
X0146372Y0075336D01*
X0146234Y0075309D01*
X0146095Y0075287D01*
X0145955Y0075268D01*
X0145815Y0075253D01*
X0145675Y0075242D01*
X0145534Y0075235D01*
X0145393Y0075232D01*
X0145252Y0075233D01*
X0145112Y0075238D01*
X0144971Y0075247D01*
X0144831Y0075260D01*
X0144691Y0075277D01*
X0144551Y0075297D01*
X0144413Y0075322D01*
X0144275Y0075351D01*
X0144138Y0075383D01*
X0144002Y0075419D01*
X0143867Y0075460D01*
X0143733Y0075504D01*
X0143600Y0075551D01*
X0143469Y0075603D01*
X0143339Y0075658D01*
X0143211Y0075716D01*
X0143085Y0075779D01*
X0142960Y0075844D01*
X0142838Y0075914D01*
X0142717Y0075986D01*
X0142598Y0076062D01*
X0142482Y0076142D01*
X0142368Y0076225D01*
X0142256Y0076310D01*
X0142147Y0076399D01*
X0142040Y0076491D01*
X0141936Y0076586D01*
X0141835Y0076684D01*
X0141736Y0076785D01*
X0141641Y0076888D01*
X0141548Y0076994D01*
X0141458Y0077103D01*
X0141372Y0077214D01*
X0141288Y0077327D01*
X0141208Y0077443D01*
X0141131Y0077561D01*
X0141058Y0077681D01*
X0140987Y0077804D01*
X0140921Y0077928D01*
X0140858Y0078054D01*
X0140798Y0078181D01*
X0140742Y0078310D01*
X0140690Y0078441D01*
X0140641Y0078573D01*
X0140596Y0078707D01*
X0140555Y0078842D01*
X0140518Y0078978D01*
X0140484Y0079114D01*
X0140455Y0079252D01*
X0140429Y0079391D01*
X0140408Y0079530D01*
X0140390Y0079670D01*
X0140376Y0079810D01*
X0140366Y0079950D01*
X0140360Y0080091D01*
X0140358Y0080232D01*
D11*
X0086500Y0095232D03*
X0086500Y0105232D03*
X0086500Y0115232D03*
X0086500Y0125232D03*
X0086500Y0135232D03*
X0086500Y0145232D03*
X0086500Y0155232D03*
X0086500Y0165232D03*
X0086500Y0175232D03*
X0086500Y0185232D03*
X0086500Y0195232D03*
X0086500Y0205232D03*
X0086500Y0215232D03*
X0086500Y0225232D03*
X0086500Y0235232D03*
X0086500Y0245232D03*
X0063941Y0245232D03*
X0063941Y0235232D03*
X0063941Y0225232D03*
X0063941Y0215232D03*
X0063941Y0205232D03*
X0063941Y0195232D03*
X0063941Y0185232D03*
X0063941Y0175232D03*
X0063941Y0165232D03*
X0063941Y0155232D03*
X0063941Y0145232D03*
X0063941Y0135232D03*
X0063941Y0125232D03*
X0063941Y0115232D03*
X0063941Y0105232D03*
X0063941Y0095232D03*
X0024571Y0135232D03*
X0024571Y0145232D03*
X0024571Y0155232D03*
X0024571Y0165232D03*
X0024571Y0175232D03*
X0024571Y0185232D03*
X0024571Y0195232D03*
X0024571Y0205232D03*
X0024571Y0215232D03*
X0024571Y0225232D03*
X0024571Y0235232D03*
X0024571Y0245232D03*
X0006500Y0245232D03*
X0006500Y0235232D03*
X0006500Y0225232D03*
X0006500Y0215232D03*
X0006500Y0205232D03*
X0006500Y0195232D03*
X0006500Y0185232D03*
X0006500Y0175232D03*
X0006500Y0165232D03*
X0006500Y0155232D03*
X0006500Y0145232D03*
X0006500Y0135232D03*
D12*
X0100122Y0215902D03*
X0104965Y0229287D03*
X0114965Y0229287D03*
X0124965Y0229287D03*
X0130122Y0215902D03*
X0130870Y0196217D03*
X0130795Y0184406D03*
X0130795Y0174406D03*
X0130795Y0164406D03*
X0130795Y0154406D03*
X0130795Y0144406D03*
X0130795Y0134406D03*
X0120795Y0134406D03*
X0120795Y0144406D03*
X0120795Y0154406D03*
X0120795Y0164406D03*
X0120795Y0174406D03*
X0120795Y0184406D03*
X0120870Y0196217D03*
X0110870Y0196217D03*
X0110795Y0184406D03*
X0110795Y0174406D03*
X0110795Y0164406D03*
X0110795Y0154406D03*
X0110795Y0144406D03*
X0110795Y0134406D03*
D13*
X0106028Y0112516D03*
X0106028Y0092516D03*
X0136028Y0092516D03*
X0136028Y0112516D03*
X0145043Y0211571D03*
X0145043Y0243854D03*
D14*
X0124965Y0241492D03*
X0115122Y0241492D03*
X0105280Y0241492D03*
D15*
X0145043Y0235587D03*
X0145043Y0227713D03*
X0145043Y0219839D03*
D16*
X0143904Y0217300D02*
X0141798Y0216428D01*
X0140186Y0214816D01*
X0139314Y0212710D01*
X0139314Y0210431D01*
X0140186Y0208326D01*
X0141798Y0206714D01*
X0143904Y0205842D01*
X0146183Y0205842D01*
X0148289Y0206714D01*
X0149900Y0208326D01*
X0150772Y0210431D01*
X0150772Y0212710D01*
X0149900Y0214816D01*
X0148289Y0216428D01*
X0146183Y0217300D01*
X0143904Y0217300D01*
X0143212Y0217013D02*
X0135073Y0217013D01*
X0135122Y0216896D02*
X0134361Y0218734D01*
X0132954Y0220140D01*
X0131117Y0220902D01*
X0129127Y0220902D01*
X0127290Y0220140D01*
X0125883Y0218734D01*
X0125122Y0216896D01*
X0125122Y0214907D01*
X0125883Y0213069D01*
X0127290Y0211663D01*
X0129127Y0210902D01*
X0131117Y0210902D01*
X0132954Y0211663D01*
X0134361Y0213069D01*
X0135122Y0214907D01*
X0135122Y0216896D01*
X0135122Y0216015D02*
X0141385Y0216015D01*
X0140387Y0215016D02*
X0135122Y0215016D01*
X0134754Y0214018D02*
X0139856Y0214018D01*
X0139442Y0213019D02*
X0134311Y0213019D01*
X0133312Y0212021D02*
X0139314Y0212021D01*
X0139314Y0211022D02*
X0131408Y0211022D01*
X0128836Y0211022D02*
X0101408Y0211022D01*
X0101117Y0210902D02*
X0102954Y0211663D01*
X0104361Y0213069D01*
X0105122Y0214907D01*
X0105122Y0216896D01*
X0104361Y0218734D01*
X0102954Y0220140D01*
X0101117Y0220902D01*
X0099127Y0220902D01*
X0097290Y0220140D01*
X0095883Y0218734D01*
X0095122Y0216896D01*
X0095122Y0214907D01*
X0095883Y0213069D01*
X0097290Y0211663D01*
X0099127Y0210902D01*
X0101117Y0210902D01*
X0098836Y0211022D02*
X0088357Y0211022D01*
X0089106Y0211333D02*
X0090400Y0212627D01*
X0091100Y0214317D01*
X0091100Y0216147D01*
X0090400Y0217838D01*
X0089106Y0219132D01*
X0087415Y0219832D01*
X0085585Y0219832D01*
X0083894Y0219132D01*
X0082600Y0217838D01*
X0082557Y0217732D01*
X0067884Y0217732D01*
X0067841Y0217838D01*
X0066547Y0219132D01*
X0064856Y0219832D01*
X0063026Y0219832D01*
X0061335Y0219132D01*
X0061141Y0218938D01*
X0061141Y0221527D01*
X0061335Y0221333D01*
X0063026Y0220632D01*
X0064856Y0220632D01*
X0066547Y0221333D01*
X0067841Y0222627D01*
X0067884Y0222732D01*
X0082557Y0222732D01*
X0082600Y0222627D01*
X0083894Y0221333D01*
X0085585Y0220632D01*
X0087415Y0220632D01*
X0089106Y0221333D01*
X0090400Y0222627D01*
X0091100Y0224317D01*
X0091100Y0226147D01*
X0090400Y0227838D01*
X0089106Y0229132D01*
X0087415Y0229832D01*
X0085585Y0229832D01*
X0083894Y0229132D01*
X0082600Y0227838D01*
X0082557Y0227732D01*
X0067884Y0227732D01*
X0067841Y0227838D01*
X0066547Y0229132D01*
X0064856Y0229832D01*
X0063026Y0229832D01*
X0061335Y0229132D01*
X0061141Y0228938D01*
X0061141Y0231527D01*
X0061335Y0231333D01*
X0063026Y0230632D01*
X0064856Y0230632D01*
X0066547Y0231333D01*
X0067841Y0232627D01*
X0067884Y0232732D01*
X0082557Y0232732D01*
X0082600Y0232627D01*
X0083894Y0231333D01*
X0085585Y0230632D01*
X0087415Y0230632D01*
X0089106Y0231333D01*
X0090400Y0232627D01*
X0091100Y0234317D01*
X0091100Y0236147D01*
X0090400Y0237838D01*
X0089106Y0239132D01*
X0087415Y0239832D01*
X0085585Y0239832D01*
X0083894Y0239132D01*
X0082600Y0237838D01*
X0082557Y0237732D01*
X0067884Y0237732D01*
X0067841Y0237838D01*
X0066547Y0239132D01*
X0064856Y0239832D01*
X0063026Y0239832D01*
X0061335Y0239132D01*
X0061141Y0238938D01*
X0061141Y0241527D01*
X0061335Y0241333D01*
X0063026Y0240632D01*
X0064856Y0240632D01*
X0066547Y0241333D01*
X0067841Y0242627D01*
X0067884Y0242732D01*
X0082557Y0242732D01*
X0082600Y0242627D01*
X0083894Y0241333D01*
X0085585Y0240632D01*
X0087415Y0240632D01*
X0089106Y0241333D01*
X0090400Y0242627D01*
X0091100Y0244317D01*
X0091100Y0246147D01*
X0090400Y0247838D01*
X0090205Y0248032D01*
X0112468Y0248032D01*
X0114460Y0246040D01*
X0114217Y0246040D01*
X0112546Y0245348D01*
X0111266Y0244068D01*
X0110574Y0242397D01*
X0110574Y0240587D01*
X0111266Y0238916D01*
X0112546Y0237636D01*
X0114217Y0236944D01*
X0116027Y0236944D01*
X0117698Y0237636D01*
X0118978Y0238916D01*
X0119670Y0240587D01*
X0119670Y0240830D01*
X0120773Y0239728D01*
X0121109Y0238916D01*
X0121165Y0238860D01*
X0121165Y0232558D01*
X0120726Y0232120D01*
X0119965Y0230282D01*
X0119965Y0228293D01*
X0120726Y0226455D01*
X0122132Y0225049D01*
X0123970Y0224287D01*
X0125959Y0224287D01*
X0127797Y0225049D01*
X0129203Y0226455D01*
X0129965Y0228293D01*
X0129965Y0230282D01*
X0129203Y0232120D01*
X0128765Y0232558D01*
X0128765Y0238860D01*
X0128820Y0238916D01*
X0129513Y0240587D01*
X0129513Y0242397D01*
X0128820Y0244068D01*
X0127541Y0245348D01*
X0125869Y0246040D01*
X0125208Y0246040D01*
X0116195Y0255054D01*
X0114798Y0255632D01*
X0068000Y0255632D01*
X0068000Y0268732D01*
X0144492Y0268732D01*
X0145822Y0268628D01*
X0148351Y0267806D01*
X0150503Y0266243D01*
X0152066Y0264091D01*
X0152887Y0261562D01*
X0152992Y0260232D01*
X0152992Y0080232D01*
X0152887Y0078903D01*
X0152066Y0076373D01*
X0150503Y0074222D01*
X0148351Y0072659D01*
X0145822Y0071837D01*
X0144492Y0071732D01*
X0057121Y0071732D01*
X0055121Y0073732D01*
X0037379Y0073732D01*
X0036500Y0072854D01*
X0035379Y0071732D01*
X0011500Y0071732D01*
X0010170Y0071837D01*
X0007641Y0072659D01*
X0005490Y0074222D01*
X0003926Y0076373D01*
X0003105Y0078903D01*
X0003000Y0080232D01*
X0003000Y0132227D01*
X0003894Y0131333D01*
X0005585Y0130632D01*
X0007415Y0130632D01*
X0009106Y0131333D01*
X0009205Y0131432D01*
X0021865Y0131432D01*
X0021965Y0131333D01*
X0023656Y0130632D01*
X0025486Y0130632D01*
X0027177Y0131333D01*
X0028471Y0132627D01*
X0029171Y0134317D01*
X0029171Y0136147D01*
X0028471Y0137838D01*
X0027177Y0139132D01*
X0025486Y0139832D01*
X0023656Y0139832D01*
X0021965Y0139132D01*
X0021865Y0139032D01*
X0009205Y0139032D01*
X0009106Y0139132D01*
X0007415Y0139832D01*
X0005585Y0139832D01*
X0003894Y0139132D01*
X0003000Y0138238D01*
X0003000Y0142227D01*
X0003894Y0141333D01*
X0005585Y0140632D01*
X0007415Y0140632D01*
X0009106Y0141333D01*
X0010400Y0142627D01*
X0010443Y0142732D01*
X0020627Y0142732D01*
X0020671Y0142627D01*
X0021965Y0141333D01*
X0023656Y0140632D01*
X0025486Y0140632D01*
X0027177Y0141333D01*
X0028471Y0142627D01*
X0029171Y0144317D01*
X0029171Y0146147D01*
X0028471Y0147838D01*
X0027177Y0149132D01*
X0025486Y0149832D01*
X0023656Y0149832D01*
X0021965Y0149132D01*
X0020671Y0147838D01*
X0020627Y0147732D01*
X0010443Y0147732D01*
X0010400Y0147838D01*
X0009106Y0149132D01*
X0007415Y0149832D01*
X0005585Y0149832D01*
X0003894Y0149132D01*
X0003000Y0148238D01*
X0003000Y0152227D01*
X0003894Y0151333D01*
X0005585Y0150632D01*
X0007415Y0150632D01*
X0009106Y0151333D01*
X0009205Y0151432D01*
X0021865Y0151432D01*
X0021965Y0151333D01*
X0023656Y0150632D01*
X0025486Y0150632D01*
X0027177Y0151333D01*
X0028471Y0152627D01*
X0029171Y0154317D01*
X0029171Y0154458D01*
X0059341Y0184628D01*
X0059341Y0184317D01*
X0060041Y0182627D01*
X0061335Y0181333D01*
X0063026Y0180632D01*
X0064856Y0180632D01*
X0066547Y0181333D01*
X0067841Y0182627D01*
X0067884Y0182732D01*
X0082557Y0182732D01*
X0082600Y0182627D01*
X0083894Y0181333D01*
X0085585Y0180632D01*
X0087415Y0180632D01*
X0089106Y0181333D01*
X0090400Y0182627D01*
X0091100Y0184317D01*
X0091100Y0186147D01*
X0090400Y0187838D01*
X0089106Y0189132D01*
X0087415Y0189832D01*
X0085585Y0189832D01*
X0083894Y0189132D01*
X0082600Y0187838D01*
X0082557Y0187732D01*
X0067884Y0187732D01*
X0067841Y0187838D01*
X0066547Y0189132D01*
X0064856Y0189832D01*
X0063026Y0189832D01*
X0061335Y0189132D01*
X0061141Y0188938D01*
X0061141Y0191527D01*
X0061335Y0191333D01*
X0063026Y0190632D01*
X0064856Y0190632D01*
X0066547Y0191333D01*
X0067841Y0192627D01*
X0067884Y0192732D01*
X0082557Y0192732D01*
X0082600Y0192627D01*
X0083894Y0191333D01*
X0085585Y0190632D01*
X0087415Y0190632D01*
X0089106Y0191333D01*
X0090400Y0192627D01*
X0091100Y0194317D01*
X0091100Y0196147D01*
X0090400Y0197838D01*
X0089106Y0199132D01*
X0087415Y0199832D01*
X0085585Y0199832D01*
X0083894Y0199132D01*
X0082600Y0197838D01*
X0082557Y0197732D01*
X0067884Y0197732D01*
X0067841Y0197838D01*
X0066547Y0199132D01*
X0064856Y0199832D01*
X0063026Y0199832D01*
X0061335Y0199132D01*
X0061141Y0198938D01*
X0061141Y0201527D01*
X0061335Y0201333D01*
X0063026Y0200632D01*
X0064856Y0200632D01*
X0066547Y0201333D01*
X0067841Y0202627D01*
X0067884Y0202732D01*
X0082557Y0202732D01*
X0082600Y0202627D01*
X0083894Y0201333D01*
X0085585Y0200632D01*
X0087415Y0200632D01*
X0089106Y0201333D01*
X0090400Y0202627D01*
X0091100Y0204317D01*
X0091100Y0206147D01*
X0090400Y0207838D01*
X0089106Y0209132D01*
X0087415Y0209832D01*
X0085585Y0209832D01*
X0083894Y0209132D01*
X0082600Y0207838D01*
X0082557Y0207732D01*
X0067884Y0207732D01*
X0067841Y0207838D01*
X0066547Y0209132D01*
X0064856Y0209832D01*
X0063026Y0209832D01*
X0061335Y0209132D01*
X0061141Y0208938D01*
X0061141Y0211527D01*
X0061335Y0211333D01*
X0063026Y0210632D01*
X0064856Y0210632D01*
X0066547Y0211333D01*
X0067841Y0212627D01*
X0067884Y0212732D01*
X0082557Y0212732D01*
X0082600Y0212627D01*
X0083894Y0211333D01*
X0085585Y0210632D01*
X0087415Y0210632D01*
X0089106Y0211333D01*
X0089794Y0212021D02*
X0096932Y0212021D01*
X0095933Y0213019D02*
X0090562Y0213019D01*
X0090976Y0214018D02*
X0095490Y0214018D01*
X0095122Y0215016D02*
X0091100Y0215016D01*
X0091100Y0216015D02*
X0095122Y0216015D01*
X0095171Y0217013D02*
X0090741Y0217013D01*
X0090226Y0218012D02*
X0095584Y0218012D01*
X0096160Y0219010D02*
X0089227Y0219010D01*
X0088321Y0221007D02*
X0152992Y0221007D01*
X0152992Y0220009D02*
X0133086Y0220009D01*
X0134084Y0219010D02*
X0152992Y0219010D01*
X0152992Y0218012D02*
X0134660Y0218012D01*
X0139483Y0210024D02*
X0061141Y0210024D01*
X0061141Y0211022D02*
X0062084Y0211022D01*
X0061229Y0209025D02*
X0061141Y0209025D01*
X0065798Y0211022D02*
X0084643Y0211022D01*
X0083206Y0212021D02*
X0067235Y0212021D01*
X0066653Y0209025D02*
X0083788Y0209025D01*
X0082789Y0208027D02*
X0067652Y0208027D01*
X0067250Y0202036D02*
X0083191Y0202036D01*
X0084607Y0201037D02*
X0065834Y0201037D01*
X0066638Y0199040D02*
X0083803Y0199040D01*
X0082804Y0198042D02*
X0067637Y0198042D01*
X0067265Y0192051D02*
X0083176Y0192051D01*
X0084571Y0191052D02*
X0065870Y0191052D01*
X0066623Y0189055D02*
X0083817Y0189055D01*
X0082819Y0188057D02*
X0067622Y0188057D01*
X0067280Y0182066D02*
X0083161Y0182066D01*
X0084535Y0181067D02*
X0065906Y0181067D01*
X0064856Y0179832D02*
X0063026Y0179832D01*
X0061335Y0179132D01*
X0060041Y0177838D01*
X0059341Y0176147D01*
X0059341Y0174317D01*
X0060041Y0172627D01*
X0061335Y0171333D01*
X0063026Y0170632D01*
X0064856Y0170632D01*
X0066547Y0171333D01*
X0067841Y0172627D01*
X0067884Y0172732D01*
X0082557Y0172732D01*
X0082600Y0172627D01*
X0083894Y0171333D01*
X0085585Y0170632D01*
X0087415Y0170632D01*
X0089106Y0171333D01*
X0090400Y0172627D01*
X0091100Y0174317D01*
X0091100Y0176147D01*
X0090400Y0177838D01*
X0089106Y0179132D01*
X0087415Y0179832D01*
X0085585Y0179832D01*
X0083894Y0179132D01*
X0082600Y0177838D01*
X0082557Y0177732D01*
X0067884Y0177732D01*
X0067841Y0177838D01*
X0066547Y0179132D01*
X0064856Y0179832D01*
X0066609Y0179070D02*
X0083832Y0179070D01*
X0082834Y0178072D02*
X0067607Y0178072D01*
X0067294Y0172080D02*
X0083146Y0172080D01*
X0084499Y0171082D02*
X0065941Y0171082D01*
X0064856Y0169832D02*
X0063026Y0169832D01*
X0061335Y0169132D01*
X0060041Y0167838D01*
X0059341Y0166147D01*
X0059341Y0164317D01*
X0060041Y0162627D01*
X0061335Y0161333D01*
X0063026Y0160632D01*
X0064856Y0160632D01*
X0066547Y0161333D01*
X0067841Y0162627D01*
X0067884Y0162732D01*
X0082557Y0162732D01*
X0082600Y0162627D01*
X0083894Y0161333D01*
X0085585Y0160632D01*
X0087415Y0160632D01*
X0089106Y0161333D01*
X0090400Y0162627D01*
X0091100Y0164317D01*
X0091100Y0166147D01*
X0090400Y0167838D01*
X0089106Y0169132D01*
X0087415Y0169832D01*
X0085585Y0169832D01*
X0083894Y0169132D01*
X0082600Y0167838D01*
X0082557Y0167732D01*
X0067884Y0167732D01*
X0067841Y0167838D01*
X0066547Y0169132D01*
X0064856Y0169832D01*
X0066594Y0169085D02*
X0083847Y0169085D01*
X0082849Y0168086D02*
X0067592Y0168086D01*
X0067309Y0162095D02*
X0083132Y0162095D01*
X0084464Y0161097D02*
X0065977Y0161097D01*
X0064856Y0159832D02*
X0063026Y0159832D01*
X0061335Y0159132D01*
X0060041Y0157838D01*
X0059341Y0156147D01*
X0059341Y0154317D01*
X0060041Y0152627D01*
X0061335Y0151333D01*
X0063026Y0150632D01*
X0064856Y0150632D01*
X0066547Y0151333D01*
X0067841Y0152627D01*
X0067884Y0152732D01*
X0082557Y0152732D01*
X0082600Y0152627D01*
X0083894Y0151333D01*
X0085585Y0150632D01*
X0087415Y0150632D01*
X0089106Y0151333D01*
X0090400Y0152627D01*
X0091100Y0154317D01*
X0091100Y0156147D01*
X0090400Y0157838D01*
X0089106Y0159132D01*
X0087415Y0159832D01*
X0085585Y0159832D01*
X0083894Y0159132D01*
X0082600Y0157838D01*
X0082557Y0157732D01*
X0067884Y0157732D01*
X0067841Y0157838D01*
X0066547Y0159132D01*
X0064856Y0159832D01*
X0066579Y0159100D02*
X0083862Y0159100D01*
X0082864Y0158101D02*
X0067577Y0158101D01*
X0067324Y0152110D02*
X0083117Y0152110D01*
X0084428Y0151112D02*
X0066013Y0151112D01*
X0064856Y0149832D02*
X0063026Y0149832D01*
X0061335Y0149132D01*
X0060041Y0147838D01*
X0059341Y0146147D01*
X0059341Y0144317D01*
X0060041Y0142627D01*
X0061335Y0141333D01*
X0063026Y0140632D01*
X0064856Y0140632D01*
X0066547Y0141333D01*
X0067841Y0142627D01*
X0067884Y0142732D01*
X0082557Y0142732D01*
X0082600Y0142627D01*
X0083894Y0141333D01*
X0085585Y0140632D01*
X0087415Y0140632D01*
X0089106Y0141333D01*
X0090400Y0142627D01*
X0091100Y0144317D01*
X0091100Y0146147D01*
X0090400Y0147838D01*
X0089106Y0149132D01*
X0087415Y0149832D01*
X0085585Y0149832D01*
X0083894Y0149132D01*
X0082600Y0147838D01*
X0082557Y0147732D01*
X0067884Y0147732D01*
X0067841Y0147838D01*
X0066547Y0149132D01*
X0064856Y0149832D01*
X0066564Y0149115D02*
X0083877Y0149115D01*
X0082879Y0148116D02*
X0067562Y0148116D01*
X0067339Y0142125D02*
X0083102Y0142125D01*
X0084392Y0141127D02*
X0066049Y0141127D01*
X0064856Y0139832D02*
X0063026Y0139832D01*
X0061335Y0139132D01*
X0060041Y0137838D01*
X0059341Y0136147D01*
X0059341Y0134317D01*
X0060041Y0132627D01*
X0061335Y0131333D01*
X0063026Y0130632D01*
X0064856Y0130632D01*
X0066547Y0131333D01*
X0067841Y0132627D01*
X0068541Y0134317D01*
X0068541Y0136147D01*
X0067841Y0137838D01*
X0066547Y0139132D01*
X0064856Y0139832D01*
X0066549Y0139130D02*
X0083892Y0139130D01*
X0083894Y0139132D02*
X0082600Y0137838D01*
X0081900Y0136147D01*
X0081900Y0134317D01*
X0082600Y0132627D01*
X0083894Y0131333D01*
X0085585Y0130632D01*
X0087415Y0130632D01*
X0089106Y0131333D01*
X0090400Y0132627D01*
X0090521Y0132920D01*
X0090987Y0133113D01*
X0091690Y0133816D01*
X0097098Y0139224D01*
X0097098Y0114799D01*
X0090268Y0107969D01*
X0089106Y0109132D01*
X0087415Y0109832D01*
X0085585Y0109832D01*
X0083894Y0109132D01*
X0082600Y0107838D01*
X0082557Y0107732D01*
X0067884Y0107732D01*
X0067841Y0107838D01*
X0066547Y0109132D01*
X0066441Y0109176D01*
X0066441Y0111289D01*
X0066547Y0111333D01*
X0067841Y0112627D01*
X0068541Y0114317D01*
X0068541Y0116147D01*
X0067841Y0117838D01*
X0066547Y0119132D01*
X0064856Y0119832D01*
X0063026Y0119832D01*
X0061335Y0119132D01*
X0060041Y0117838D01*
X0059341Y0116147D01*
X0059341Y0114317D01*
X0060041Y0112627D01*
X0061335Y0111333D01*
X0061441Y0111289D01*
X0061441Y0109176D01*
X0061335Y0109132D01*
X0060041Y0107838D01*
X0059341Y0106147D01*
X0059341Y0104317D01*
X0060041Y0102627D01*
X0061335Y0101333D01*
X0063026Y0100632D01*
X0064856Y0100632D01*
X0066547Y0101333D01*
X0067841Y0102627D01*
X0067884Y0102732D01*
X0082557Y0102732D01*
X0082600Y0102627D01*
X0083894Y0101333D01*
X0085585Y0100632D01*
X0087415Y0100632D01*
X0089106Y0101333D01*
X0090400Y0102627D01*
X0090443Y0102732D01*
X0091564Y0102732D01*
X0092483Y0103113D01*
X0100430Y0111059D01*
X0101171Y0109270D01*
X0102782Y0107659D01*
X0104888Y0106787D01*
X0107167Y0106787D01*
X0109273Y0107659D01*
X0110884Y0109270D01*
X0111193Y0110016D01*
X0130862Y0110016D01*
X0131171Y0109270D01*
X0132782Y0107659D01*
X0134888Y0106787D01*
X0137167Y0106787D01*
X0139273Y0107659D01*
X0140884Y0109270D01*
X0141757Y0111376D01*
X0141757Y0113655D01*
X0140884Y0115761D01*
X0139273Y0117373D01*
X0137167Y0118245D01*
X0134888Y0118245D01*
X0132782Y0117373D01*
X0131171Y0115761D01*
X0130862Y0115016D01*
X0111193Y0115016D01*
X0110884Y0115761D01*
X0109273Y0117373D01*
X0107167Y0118245D01*
X0104888Y0118245D01*
X0102782Y0117373D01*
X0102098Y0116689D01*
X0102098Y0180234D01*
X0105795Y0183931D01*
X0105795Y0183411D01*
X0106556Y0181573D01*
X0107963Y0180167D01*
X0109801Y0179406D01*
X0111790Y0179406D01*
X0113628Y0180167D01*
X0115034Y0181573D01*
X0115795Y0183411D01*
X0115795Y0185400D01*
X0115034Y0187238D01*
X0113628Y0188644D01*
X0111790Y0189405D01*
X0111270Y0189405D01*
X0112989Y0191125D01*
X0113268Y0191798D01*
X0113702Y0191978D01*
X0115109Y0193384D01*
X0115870Y0195222D01*
X0115870Y0197211D01*
X0115109Y0199049D01*
X0114741Y0199417D01*
X0122196Y0199417D01*
X0125870Y0195742D01*
X0125870Y0195222D01*
X0126631Y0193384D01*
X0128038Y0191978D01*
X0129876Y0191217D01*
X0131865Y0191217D01*
X0133702Y0191978D01*
X0135109Y0193384D01*
X0135870Y0195222D01*
X0135870Y0197211D01*
X0135109Y0199049D01*
X0133702Y0200455D01*
X0131865Y0201217D01*
X0129876Y0201217D01*
X0128172Y0200511D01*
X0124647Y0204036D01*
X0123728Y0204417D01*
X0108012Y0204417D01*
X0107093Y0204036D01*
X0094021Y0190964D01*
X0093318Y0190261D01*
X0092937Y0189342D01*
X0092937Y0142134D01*
X0089520Y0138717D01*
X0089106Y0139132D01*
X0087415Y0139832D01*
X0085585Y0139832D01*
X0083894Y0139132D01*
X0082893Y0138131D02*
X0067548Y0138131D01*
X0068133Y0137133D02*
X0082308Y0137133D01*
X0081900Y0136134D02*
X0068541Y0136134D01*
X0068541Y0135136D02*
X0081900Y0135136D01*
X0081975Y0134137D02*
X0068466Y0134137D01*
X0068053Y0133138D02*
X0082388Y0133138D01*
X0083087Y0132140D02*
X0067354Y0132140D01*
X0066085Y0131141D02*
X0084356Y0131141D01*
X0088644Y0131141D02*
X0097098Y0131141D01*
X0097098Y0130143D02*
X0003000Y0130143D01*
X0003000Y0131141D02*
X0004356Y0131141D01*
X0003087Y0132140D02*
X0003000Y0132140D01*
X0003000Y0129144D02*
X0097098Y0129144D01*
X0097098Y0128146D02*
X0003000Y0128146D01*
X0003000Y0127147D02*
X0097098Y0127147D01*
X0097098Y0126149D02*
X0003000Y0126149D01*
X0003000Y0125150D02*
X0097098Y0125150D01*
X0097098Y0124152D02*
X0003000Y0124152D01*
X0003000Y0123153D02*
X0097098Y0123153D01*
X0097098Y0122155D02*
X0003000Y0122155D01*
X0003000Y0121156D02*
X0097098Y0121156D01*
X0097098Y0120158D02*
X0003000Y0120158D01*
X0003000Y0119159D02*
X0061401Y0119159D01*
X0060364Y0118161D02*
X0003000Y0118161D01*
X0003000Y0117162D02*
X0059761Y0117162D01*
X0059348Y0116164D02*
X0003000Y0116164D01*
X0003000Y0115165D02*
X0059341Y0115165D01*
X0059403Y0114167D02*
X0003000Y0114167D01*
X0003000Y0113168D02*
X0059817Y0113168D01*
X0060498Y0112170D02*
X0003000Y0112170D01*
X0003000Y0111171D02*
X0061441Y0111171D01*
X0061441Y0110173D02*
X0003000Y0110173D01*
X0003000Y0109174D02*
X0061437Y0109174D01*
X0060379Y0108176D02*
X0003000Y0108176D01*
X0003000Y0107177D02*
X0059768Y0107177D01*
X0059354Y0106179D02*
X0003000Y0106179D01*
X0003000Y0105180D02*
X0059341Y0105180D01*
X0059397Y0104182D02*
X0003000Y0104182D01*
X0003000Y0103183D02*
X0059811Y0103183D01*
X0060483Y0102185D02*
X0003000Y0102185D01*
X0003000Y0101186D02*
X0061689Y0101186D01*
X0063026Y0099832D02*
X0061335Y0099132D01*
X0060041Y0097838D01*
X0059341Y0096147D01*
X0059341Y0094317D01*
X0060041Y0092627D01*
X0061335Y0091333D01*
X0063026Y0090632D01*
X0064856Y0090632D01*
X0066547Y0091333D01*
X0067841Y0092627D01*
X0067884Y0092732D01*
X0082557Y0092732D01*
X0082600Y0092627D01*
X0083894Y0091333D01*
X0085585Y0090632D01*
X0087415Y0090632D01*
X0089106Y0091333D01*
X0090400Y0092627D01*
X0091100Y0094317D01*
X0091100Y0096147D01*
X0090400Y0097838D01*
X0089106Y0099132D01*
X0087415Y0099832D01*
X0085585Y0099832D01*
X0083894Y0099132D01*
X0082600Y0097838D01*
X0082557Y0097732D01*
X0067884Y0097732D01*
X0067841Y0097838D01*
X0066547Y0099132D01*
X0064856Y0099832D01*
X0063026Y0099832D01*
X0061473Y0099189D02*
X0003000Y0099189D01*
X0003000Y0098191D02*
X0060394Y0098191D01*
X0059774Y0097192D02*
X0003000Y0097192D01*
X0003000Y0096194D02*
X0059360Y0096194D01*
X0059341Y0095195D02*
X0003000Y0095195D01*
X0003000Y0094197D02*
X0059391Y0094197D01*
X0059805Y0093198D02*
X0003000Y0093198D01*
X0003000Y0092200D02*
X0060468Y0092200D01*
X0061653Y0091201D02*
X0003000Y0091201D01*
X0003000Y0090203D02*
X0152992Y0090203D01*
X0152992Y0091201D02*
X0088788Y0091201D01*
X0089973Y0092200D02*
X0152992Y0092200D01*
X0152992Y0093198D02*
X0090636Y0093198D01*
X0091050Y0094197D02*
X0152992Y0094197D01*
X0152992Y0095195D02*
X0091100Y0095195D01*
X0091081Y0096194D02*
X0152992Y0096194D01*
X0152992Y0097192D02*
X0090667Y0097192D01*
X0090047Y0098191D02*
X0152992Y0098191D01*
X0152992Y0099189D02*
X0088968Y0099189D01*
X0088752Y0101186D02*
X0152992Y0101186D01*
X0152992Y0100188D02*
X0003000Y0100188D01*
X0003000Y0089204D02*
X0152992Y0089204D01*
X0152992Y0088205D02*
X0003000Y0088205D01*
X0003000Y0087207D02*
X0152992Y0087207D01*
X0152992Y0086208D02*
X0147916Y0086208D01*
X0149040Y0085743D02*
X0146651Y0086732D01*
X0144065Y0086732D01*
X0141676Y0085743D01*
X0139848Y0083914D01*
X0138858Y0081525D01*
X0138858Y0078939D01*
X0139848Y0076550D01*
X0141676Y0074722D01*
X0144065Y0073732D01*
X0146651Y0073732D01*
X0149040Y0074722D01*
X0150869Y0076550D01*
X0151858Y0078939D01*
X0151858Y0081525D01*
X0150869Y0083914D01*
X0149040Y0085743D01*
X0149573Y0085210D02*
X0152992Y0085210D01*
X0152992Y0084211D02*
X0150571Y0084211D01*
X0151159Y0083213D02*
X0152992Y0083213D01*
X0152992Y0082214D02*
X0151573Y0082214D01*
X0151858Y0081216D02*
X0152992Y0081216D01*
X0152991Y0080217D02*
X0151858Y0080217D01*
X0151858Y0079219D02*
X0152912Y0079219D01*
X0152666Y0078220D02*
X0151560Y0078220D01*
X0151147Y0077222D02*
X0152341Y0077222D01*
X0152066Y0076373D02*
X0152066Y0076373D01*
X0151957Y0076223D02*
X0150542Y0076223D01*
X0151231Y0075225D02*
X0149543Y0075225D01*
X0150506Y0074226D02*
X0147844Y0074226D01*
X0149134Y0073228D02*
X0055626Y0073228D01*
X0056624Y0072229D02*
X0147029Y0072229D01*
X0142873Y0074226D02*
X0013986Y0074226D01*
X0012793Y0073732D02*
X0015182Y0074722D01*
X0017010Y0076550D01*
X0018000Y0078939D01*
X0018000Y0081525D01*
X0017010Y0083914D01*
X0015182Y0085743D01*
X0012793Y0086732D01*
X0010207Y0086732D01*
X0007818Y0085743D01*
X0005990Y0083914D01*
X0005000Y0081525D01*
X0005000Y0078939D01*
X0005990Y0076550D01*
X0007818Y0074722D01*
X0010207Y0073732D01*
X0012793Y0073732D01*
X0015685Y0075225D02*
X0141173Y0075225D01*
X0140175Y0076223D02*
X0016683Y0076223D01*
X0017289Y0077222D02*
X0139570Y0077222D01*
X0139156Y0078220D02*
X0017702Y0078220D01*
X0018000Y0079219D02*
X0138858Y0079219D01*
X0138858Y0080217D02*
X0018000Y0080217D01*
X0018000Y0081216D02*
X0138858Y0081216D01*
X0139144Y0082214D02*
X0017715Y0082214D01*
X0017301Y0083213D02*
X0139557Y0083213D01*
X0140145Y0084211D02*
X0016713Y0084211D01*
X0015715Y0085210D02*
X0141144Y0085210D01*
X0142801Y0086208D02*
X0014058Y0086208D01*
X0008942Y0086208D02*
X0003000Y0086208D01*
X0003000Y0085210D02*
X0007285Y0085210D01*
X0006287Y0084211D02*
X0003000Y0084211D01*
X0003000Y0083213D02*
X0005699Y0083213D01*
X0005285Y0082214D02*
X0003000Y0082214D01*
X0003000Y0081216D02*
X0005000Y0081216D01*
X0005000Y0080217D02*
X0003001Y0080217D01*
X0003080Y0079219D02*
X0005000Y0079219D01*
X0005298Y0078220D02*
X0003326Y0078220D01*
X0003651Y0077222D02*
X0005711Y0077222D01*
X0006317Y0076223D02*
X0004035Y0076223D01*
X0004761Y0075225D02*
X0007315Y0075225D01*
X0009014Y0074226D02*
X0005486Y0074226D01*
X0006858Y0073228D02*
X0036874Y0073228D01*
X0035876Y0072229D02*
X0008963Y0072229D01*
X0008644Y0131141D02*
X0022427Y0131141D01*
X0026715Y0131141D02*
X0061797Y0131141D01*
X0060528Y0132140D02*
X0027984Y0132140D01*
X0028683Y0133138D02*
X0059829Y0133138D01*
X0059416Y0134137D02*
X0029096Y0134137D01*
X0029171Y0135136D02*
X0059341Y0135136D01*
X0059341Y0136134D02*
X0029171Y0136134D01*
X0028763Y0137133D02*
X0059749Y0137133D01*
X0060334Y0138131D02*
X0028177Y0138131D01*
X0027179Y0139130D02*
X0061333Y0139130D01*
X0061833Y0141127D02*
X0026679Y0141127D01*
X0027969Y0142125D02*
X0060543Y0142125D01*
X0059835Y0143124D02*
X0028676Y0143124D01*
X0029090Y0144122D02*
X0059422Y0144122D01*
X0059341Y0145121D02*
X0029171Y0145121D01*
X0029171Y0146119D02*
X0059341Y0146119D01*
X0059743Y0147118D02*
X0028769Y0147118D01*
X0028192Y0148116D02*
X0060319Y0148116D01*
X0061318Y0149115D02*
X0027194Y0149115D01*
X0026643Y0151112D02*
X0061869Y0151112D01*
X0060558Y0152110D02*
X0027954Y0152110D01*
X0028670Y0153109D02*
X0059842Y0153109D01*
X0059428Y0154107D02*
X0029084Y0154107D01*
X0029818Y0155106D02*
X0059341Y0155106D01*
X0059341Y0156104D02*
X0030817Y0156104D01*
X0031815Y0157103D02*
X0059737Y0157103D01*
X0060305Y0158101D02*
X0032814Y0158101D01*
X0033812Y0159100D02*
X0061303Y0159100D01*
X0061904Y0161097D02*
X0035809Y0161097D01*
X0034811Y0160098D02*
X0092937Y0160098D01*
X0092937Y0159100D02*
X0089138Y0159100D01*
X0090136Y0158101D02*
X0092937Y0158101D01*
X0092937Y0157103D02*
X0090704Y0157103D01*
X0091100Y0156104D02*
X0092937Y0156104D01*
X0092937Y0155106D02*
X0091100Y0155106D01*
X0091013Y0154107D02*
X0092937Y0154107D01*
X0092937Y0153109D02*
X0090599Y0153109D01*
X0089883Y0152110D02*
X0092937Y0152110D01*
X0092937Y0151112D02*
X0088572Y0151112D01*
X0089123Y0149115D02*
X0092937Y0149115D01*
X0092937Y0150113D02*
X0003000Y0150113D01*
X0003000Y0149115D02*
X0003877Y0149115D01*
X0004428Y0151112D02*
X0003000Y0151112D01*
X0003000Y0152110D02*
X0003117Y0152110D01*
X0008572Y0151112D02*
X0022498Y0151112D01*
X0021948Y0149115D02*
X0009123Y0149115D01*
X0010121Y0148116D02*
X0020949Y0148116D01*
X0021173Y0142125D02*
X0009898Y0142125D01*
X0008608Y0141127D02*
X0022462Y0141127D01*
X0021963Y0139130D02*
X0009108Y0139130D01*
X0004392Y0141127D02*
X0003000Y0141127D01*
X0003000Y0142125D02*
X0003102Y0142125D01*
X0003000Y0140128D02*
X0090931Y0140128D01*
X0089933Y0139130D02*
X0089108Y0139130D01*
X0088608Y0141127D02*
X0091930Y0141127D01*
X0092928Y0142125D02*
X0089898Y0142125D01*
X0090606Y0143124D02*
X0092937Y0143124D01*
X0092937Y0144122D02*
X0091019Y0144122D01*
X0091100Y0145121D02*
X0092937Y0145121D01*
X0092937Y0146119D02*
X0091100Y0146119D01*
X0090698Y0147118D02*
X0092937Y0147118D01*
X0092937Y0148116D02*
X0090121Y0148116D01*
X0097004Y0139130D02*
X0097098Y0139130D01*
X0097098Y0138131D02*
X0096005Y0138131D01*
X0095007Y0137133D02*
X0097098Y0137133D01*
X0097098Y0136134D02*
X0094008Y0136134D01*
X0093010Y0135136D02*
X0097098Y0135136D01*
X0097098Y0134137D02*
X0092011Y0134137D01*
X0091013Y0133138D02*
X0097098Y0133138D01*
X0097098Y0132140D02*
X0089913Y0132140D01*
X0102098Y0132140D02*
X0106322Y0132140D01*
X0106556Y0131573D02*
X0107963Y0130167D01*
X0109801Y0129406D01*
X0111790Y0129406D01*
X0113628Y0130167D01*
X0115034Y0131573D01*
X0115795Y0133411D01*
X0115795Y0135400D01*
X0115034Y0137238D01*
X0113628Y0138644D01*
X0111790Y0139405D01*
X0109801Y0139405D01*
X0107963Y0138644D01*
X0106556Y0137238D01*
X0105795Y0135400D01*
X0105795Y0133411D01*
X0106556Y0131573D01*
X0106988Y0131141D02*
X0102098Y0131141D01*
X0102098Y0130143D02*
X0108020Y0130143D01*
X0105908Y0133138D02*
X0102098Y0133138D01*
X0102098Y0134137D02*
X0105795Y0134137D01*
X0105795Y0135136D02*
X0102098Y0135136D01*
X0102098Y0136134D02*
X0106099Y0136134D01*
X0106513Y0137133D02*
X0102098Y0137133D01*
X0102098Y0138131D02*
X0107450Y0138131D01*
X0109135Y0139130D02*
X0102098Y0139130D01*
X0102098Y0140128D02*
X0108056Y0140128D01*
X0107963Y0140167D02*
X0109801Y0139406D01*
X0111790Y0139406D01*
X0113628Y0140167D01*
X0115034Y0141573D01*
X0115795Y0143411D01*
X0115795Y0145400D01*
X0115034Y0147238D01*
X0113628Y0148644D01*
X0111790Y0149405D01*
X0109801Y0149405D01*
X0107963Y0148644D01*
X0106556Y0147238D01*
X0105795Y0145400D01*
X0105795Y0143411D01*
X0106556Y0141573D01*
X0107963Y0140167D01*
X0107003Y0141127D02*
X0102098Y0141127D01*
X0102098Y0142125D02*
X0106328Y0142125D01*
X0105914Y0143124D02*
X0102098Y0143124D01*
X0102098Y0144122D02*
X0105795Y0144122D01*
X0105795Y0145121D02*
X0102098Y0145121D01*
X0102098Y0146119D02*
X0106093Y0146119D01*
X0106507Y0147118D02*
X0102098Y0147118D01*
X0102098Y0148116D02*
X0107435Y0148116D01*
X0109099Y0149115D02*
X0102098Y0149115D01*
X0102098Y0150113D02*
X0108092Y0150113D01*
X0107963Y0150167D02*
X0109801Y0149406D01*
X0111790Y0149406D01*
X0113628Y0150167D01*
X0115034Y0151573D01*
X0115795Y0153411D01*
X0115795Y0155400D01*
X0115034Y0157238D01*
X0113628Y0158644D01*
X0111790Y0159405D01*
X0109801Y0159405D01*
X0107963Y0158644D01*
X0106556Y0157238D01*
X0105795Y0155400D01*
X0105795Y0153411D01*
X0106556Y0151573D01*
X0107963Y0150167D01*
X0107018Y0151112D02*
X0102098Y0151112D01*
X0102098Y0152110D02*
X0106334Y0152110D01*
X0105920Y0153109D02*
X0102098Y0153109D01*
X0102098Y0154107D02*
X0105795Y0154107D01*
X0105795Y0155106D02*
X0102098Y0155106D01*
X0102098Y0156104D02*
X0106087Y0156104D01*
X0106501Y0157103D02*
X0102098Y0157103D01*
X0102098Y0158101D02*
X0107420Y0158101D01*
X0109063Y0159100D02*
X0102098Y0159100D01*
X0102098Y0160098D02*
X0108128Y0160098D01*
X0107963Y0160167D02*
X0109801Y0159406D01*
X0111790Y0159406D01*
X0113628Y0160167D01*
X0115034Y0161573D01*
X0115795Y0163411D01*
X0115795Y0165400D01*
X0115034Y0167238D01*
X0113628Y0168644D01*
X0111790Y0169405D01*
X0109801Y0169405D01*
X0107963Y0168644D01*
X0106556Y0167238D01*
X0105795Y0165400D01*
X0105795Y0163411D01*
X0106556Y0161573D01*
X0107963Y0160167D01*
X0107033Y0161097D02*
X0102098Y0161097D01*
X0102098Y0162095D02*
X0106340Y0162095D01*
X0105927Y0163094D02*
X0102098Y0163094D01*
X0102098Y0164092D02*
X0105795Y0164092D01*
X0105795Y0165091D02*
X0102098Y0165091D01*
X0102098Y0166089D02*
X0106081Y0166089D01*
X0106494Y0167088D02*
X0102098Y0167088D01*
X0102098Y0168086D02*
X0107405Y0168086D01*
X0109027Y0169085D02*
X0102098Y0169085D01*
X0102098Y0170083D02*
X0108164Y0170083D01*
X0107963Y0170167D02*
X0109801Y0169406D01*
X0111790Y0169406D01*
X0113628Y0170167D01*
X0115034Y0171573D01*
X0115795Y0173411D01*
X0115795Y0175400D01*
X0115034Y0177238D01*
X0113628Y0178644D01*
X0111790Y0179405D01*
X0109801Y0179405D01*
X0107963Y0178644D01*
X0106556Y0177238D01*
X0105795Y0175400D01*
X0105795Y0173411D01*
X0106556Y0171573D01*
X0107963Y0170167D01*
X0107048Y0171082D02*
X0102098Y0171082D01*
X0102098Y0172080D02*
X0106346Y0172080D01*
X0105933Y0173079D02*
X0102098Y0173079D01*
X0102098Y0174077D02*
X0105795Y0174077D01*
X0105795Y0175076D02*
X0102098Y0175076D01*
X0102098Y0176074D02*
X0106075Y0176074D01*
X0106488Y0177073D02*
X0102098Y0177073D01*
X0102098Y0178072D02*
X0107390Y0178072D01*
X0108991Y0179070D02*
X0102098Y0179070D01*
X0102098Y0180069D02*
X0108200Y0180069D01*
X0107063Y0181067D02*
X0102931Y0181067D01*
X0103930Y0182066D02*
X0106353Y0182066D01*
X0105939Y0183064D02*
X0104928Y0183064D01*
X0112600Y0179070D02*
X0118991Y0179070D01*
X0119801Y0179405D02*
X0117963Y0178644D01*
X0116556Y0177238D01*
X0115795Y0175400D01*
X0115795Y0173411D01*
X0116556Y0171573D01*
X0117963Y0170167D01*
X0119801Y0169406D01*
X0121790Y0169406D01*
X0123628Y0170167D01*
X0125034Y0171573D01*
X0125795Y0173411D01*
X0125795Y0175400D01*
X0125034Y0177238D01*
X0123628Y0178644D01*
X0121790Y0179405D01*
X0119801Y0179405D01*
X0119801Y0179406D02*
X0121790Y0179406D01*
X0123628Y0180167D01*
X0125034Y0181573D01*
X0125795Y0183411D01*
X0125795Y0185400D01*
X0125034Y0187238D01*
X0123628Y0188644D01*
X0121790Y0189405D01*
X0119801Y0189405D01*
X0117963Y0188644D01*
X0116556Y0187238D01*
X0115795Y0185400D01*
X0115795Y0183411D01*
X0116556Y0181573D01*
X0117963Y0180167D01*
X0119801Y0179406D01*
X0118200Y0180069D02*
X0113390Y0180069D01*
X0114528Y0181067D02*
X0117063Y0181067D01*
X0116353Y0182066D02*
X0115238Y0182066D01*
X0115652Y0183064D02*
X0115939Y0183064D01*
X0115795Y0184063D02*
X0115795Y0184063D01*
X0115795Y0185061D02*
X0115795Y0185061D01*
X0115522Y0186060D02*
X0116068Y0186060D01*
X0116482Y0187058D02*
X0115108Y0187058D01*
X0114215Y0188057D02*
X0117375Y0188057D01*
X0118955Y0189055D02*
X0112636Y0189055D01*
X0111918Y0190054D02*
X0152992Y0190054D01*
X0152992Y0191052D02*
X0112916Y0191052D01*
X0113775Y0192051D02*
X0127965Y0192051D01*
X0126966Y0193049D02*
X0114774Y0193049D01*
X0115384Y0194048D02*
X0126356Y0194048D01*
X0125943Y0195046D02*
X0115797Y0195046D01*
X0115870Y0196045D02*
X0125567Y0196045D01*
X0124569Y0197043D02*
X0115870Y0197043D01*
X0115526Y0198042D02*
X0123570Y0198042D01*
X0122572Y0199040D02*
X0115112Y0199040D01*
X0107090Y0204033D02*
X0090982Y0204033D01*
X0091100Y0205031D02*
X0152992Y0205031D01*
X0152992Y0204033D02*
X0124650Y0204033D01*
X0125649Y0203034D02*
X0152992Y0203034D01*
X0152992Y0202036D02*
X0126647Y0202036D01*
X0127646Y0201037D02*
X0129443Y0201037D01*
X0132297Y0201037D02*
X0152992Y0201037D01*
X0152992Y0200039D02*
X0134119Y0200039D01*
X0135112Y0199040D02*
X0152992Y0199040D01*
X0152992Y0198042D02*
X0135526Y0198042D01*
X0135870Y0197043D02*
X0152992Y0197043D01*
X0152992Y0196045D02*
X0135870Y0196045D01*
X0135797Y0195046D02*
X0152992Y0195046D01*
X0152992Y0194048D02*
X0135384Y0194048D01*
X0134774Y0193049D02*
X0152992Y0193049D01*
X0152992Y0192051D02*
X0133775Y0192051D01*
X0132636Y0189055D02*
X0152992Y0189055D01*
X0152992Y0188057D02*
X0134215Y0188057D01*
X0133628Y0188644D02*
X0131790Y0189405D01*
X0129801Y0189405D01*
X0127963Y0188644D01*
X0126556Y0187238D01*
X0125795Y0185400D01*
X0125795Y0183411D01*
X0126556Y0181573D01*
X0127963Y0180167D01*
X0129801Y0179406D01*
X0131790Y0179406D01*
X0133628Y0180167D01*
X0135034Y0181573D01*
X0135795Y0183411D01*
X0135795Y0185400D01*
X0135034Y0187238D01*
X0133628Y0188644D01*
X0135108Y0187058D02*
X0152992Y0187058D01*
X0152992Y0186060D02*
X0135522Y0186060D01*
X0135795Y0185061D02*
X0152992Y0185061D01*
X0152992Y0184063D02*
X0135795Y0184063D01*
X0135652Y0183064D02*
X0152992Y0183064D01*
X0152992Y0182066D02*
X0135238Y0182066D01*
X0134528Y0181067D02*
X0152992Y0181067D01*
X0152992Y0180069D02*
X0133390Y0180069D01*
X0132600Y0179070D02*
X0152992Y0179070D01*
X0152992Y0178072D02*
X0134200Y0178072D01*
X0133628Y0178644D02*
X0131790Y0179405D01*
X0129801Y0179405D01*
X0127963Y0178644D01*
X0126556Y0177238D01*
X0125795Y0175400D01*
X0125795Y0173411D01*
X0126556Y0171573D01*
X0127963Y0170167D01*
X0129801Y0169406D01*
X0131790Y0169406D01*
X0133628Y0170167D01*
X0135034Y0171573D01*
X0135795Y0173411D01*
X0135795Y0175400D01*
X0135034Y0177238D01*
X0133628Y0178644D01*
X0135102Y0177073D02*
X0152992Y0177073D01*
X0152992Y0176074D02*
X0135516Y0176074D01*
X0135795Y0175076D02*
X0152992Y0175076D01*
X0152992Y0174077D02*
X0135795Y0174077D01*
X0135658Y0173079D02*
X0152992Y0173079D01*
X0152992Y0172080D02*
X0135244Y0172080D01*
X0134543Y0171082D02*
X0152992Y0171082D01*
X0152992Y0170083D02*
X0133426Y0170083D01*
X0132564Y0169085D02*
X0152992Y0169085D01*
X0152992Y0168086D02*
X0134185Y0168086D01*
X0133628Y0168644D02*
X0131790Y0169405D01*
X0129801Y0169405D01*
X0127963Y0168644D01*
X0126556Y0167238D01*
X0125795Y0165400D01*
X0125034Y0167238D01*
X0123628Y0168644D01*
X0121790Y0169405D01*
X0119801Y0169405D01*
X0117963Y0168644D01*
X0116556Y0167238D01*
X0115795Y0165400D01*
X0115795Y0163411D01*
X0116556Y0161573D01*
X0117963Y0160167D01*
X0119801Y0159406D01*
X0121790Y0159406D01*
X0123628Y0160167D01*
X0125034Y0161573D01*
X0125795Y0163411D01*
X0125795Y0165400D01*
X0125795Y0163411D01*
X0126556Y0161573D01*
X0127963Y0160167D01*
X0129801Y0159406D01*
X0131790Y0159406D01*
X0133628Y0160167D01*
X0135034Y0161573D01*
X0135795Y0163411D01*
X0135795Y0165400D01*
X0135034Y0167238D01*
X0133628Y0168644D01*
X0135096Y0167088D02*
X0152992Y0167088D01*
X0152992Y0166089D02*
X0135510Y0166089D01*
X0135795Y0165091D02*
X0152992Y0165091D01*
X0152992Y0164092D02*
X0135795Y0164092D01*
X0135664Y0163094D02*
X0152992Y0163094D01*
X0152992Y0162095D02*
X0135250Y0162095D01*
X0134558Y0161097D02*
X0152992Y0161097D01*
X0152992Y0160098D02*
X0133462Y0160098D01*
X0132528Y0159100D02*
X0152992Y0159100D01*
X0152992Y0158101D02*
X0134171Y0158101D01*
X0133628Y0158644D02*
X0131790Y0159405D01*
X0129801Y0159405D01*
X0127963Y0158644D01*
X0126556Y0157238D01*
X0125795Y0155400D01*
X0125034Y0157238D01*
X0123628Y0158644D01*
X0121790Y0159405D01*
X0119801Y0159405D01*
X0117963Y0158644D01*
X0116556Y0157238D01*
X0115795Y0155400D01*
X0115795Y0153411D01*
X0116556Y0151573D01*
X0117963Y0150167D01*
X0119801Y0149406D01*
X0121790Y0149406D01*
X0123628Y0150167D01*
X0125034Y0151573D01*
X0125795Y0153411D01*
X0125795Y0155400D01*
X0125795Y0153411D01*
X0126556Y0151573D01*
X0127963Y0150167D01*
X0129801Y0149406D01*
X0131790Y0149406D01*
X0133628Y0150167D01*
X0135034Y0151573D01*
X0135795Y0153411D01*
X0135795Y0155400D01*
X0135034Y0157238D01*
X0133628Y0158644D01*
X0135090Y0157103D02*
X0152992Y0157103D01*
X0152992Y0156104D02*
X0135504Y0156104D01*
X0135795Y0155106D02*
X0152992Y0155106D01*
X0152992Y0154107D02*
X0135795Y0154107D01*
X0135670Y0153109D02*
X0152992Y0153109D01*
X0152992Y0152110D02*
X0135256Y0152110D01*
X0134573Y0151112D02*
X0152992Y0151112D01*
X0152992Y0150113D02*
X0133498Y0150113D01*
X0132492Y0149115D02*
X0152992Y0149115D01*
X0152992Y0148116D02*
X0134156Y0148116D01*
X0133628Y0148644D02*
X0131790Y0149405D01*
X0129801Y0149405D01*
X0127963Y0148644D01*
X0126556Y0147238D01*
X0125795Y0145400D01*
X0125034Y0147238D01*
X0123628Y0148644D01*
X0121790Y0149405D01*
X0119801Y0149405D01*
X0117963Y0148644D01*
X0116556Y0147238D01*
X0115795Y0145400D01*
X0115795Y0143411D01*
X0116556Y0141573D01*
X0117963Y0140167D01*
X0119801Y0139406D01*
X0121790Y0139406D01*
X0123628Y0140167D01*
X0125034Y0141573D01*
X0125795Y0143411D01*
X0125795Y0145400D01*
X0125795Y0143411D01*
X0126556Y0141573D01*
X0127963Y0140167D01*
X0129801Y0139406D01*
X0131790Y0139406D01*
X0133628Y0140167D01*
X0135034Y0141573D01*
X0135795Y0143411D01*
X0135795Y0145400D01*
X0135034Y0147238D01*
X0133628Y0148644D01*
X0135084Y0147118D02*
X0152992Y0147118D01*
X0152992Y0146119D02*
X0135497Y0146119D01*
X0135795Y0145121D02*
X0152992Y0145121D01*
X0152992Y0144122D02*
X0135795Y0144122D01*
X0135676Y0143124D02*
X0152992Y0143124D01*
X0152992Y0142125D02*
X0135263Y0142125D01*
X0134587Y0141127D02*
X0152992Y0141127D01*
X0152992Y0140128D02*
X0133534Y0140128D01*
X0132456Y0139130D02*
X0152992Y0139130D01*
X0152992Y0138131D02*
X0134141Y0138131D01*
X0133628Y0138644D02*
X0131790Y0139405D01*
X0129801Y0139405D01*
X0127963Y0138644D01*
X0126556Y0137238D01*
X0125795Y0135400D01*
X0125034Y0137238D01*
X0123628Y0138644D01*
X0121790Y0139405D01*
X0119801Y0139405D01*
X0117963Y0138644D01*
X0116556Y0137238D01*
X0115795Y0135400D01*
X0115795Y0133411D01*
X0116556Y0131573D01*
X0117963Y0130167D01*
X0119801Y0129406D01*
X0121790Y0129406D01*
X0123628Y0130167D01*
X0125034Y0131573D01*
X0125795Y0133411D01*
X0125795Y0135400D01*
X0125795Y0133411D01*
X0126556Y0131573D01*
X0127963Y0130167D01*
X0129801Y0129406D01*
X0131790Y0129406D01*
X0133628Y0130167D01*
X0135034Y0131573D01*
X0135795Y0133411D01*
X0135795Y0135400D01*
X0135034Y0137238D01*
X0133628Y0138644D01*
X0135078Y0137133D02*
X0152992Y0137133D01*
X0152992Y0136134D02*
X0135491Y0136134D01*
X0135795Y0135136D02*
X0152992Y0135136D01*
X0152992Y0134137D02*
X0135795Y0134137D01*
X0135682Y0133138D02*
X0152992Y0133138D01*
X0152992Y0132140D02*
X0135269Y0132140D01*
X0134602Y0131141D02*
X0152992Y0131141D01*
X0152992Y0130143D02*
X0133570Y0130143D01*
X0128020Y0130143D02*
X0123570Y0130143D01*
X0124602Y0131141D02*
X0126988Y0131141D01*
X0126322Y0132140D02*
X0125269Y0132140D01*
X0125682Y0133138D02*
X0125908Y0133138D01*
X0125795Y0134137D02*
X0125795Y0134137D01*
X0125795Y0135136D02*
X0125795Y0135136D01*
X0125491Y0136134D02*
X0126099Y0136134D01*
X0126513Y0137133D02*
X0125078Y0137133D01*
X0124141Y0138131D02*
X0127450Y0138131D01*
X0129135Y0139130D02*
X0122456Y0139130D01*
X0123534Y0140128D02*
X0128056Y0140128D01*
X0127003Y0141127D02*
X0124587Y0141127D01*
X0125263Y0142125D02*
X0126328Y0142125D01*
X0125914Y0143124D02*
X0125676Y0143124D01*
X0125795Y0144122D02*
X0125795Y0144122D01*
X0125795Y0145121D02*
X0125795Y0145121D01*
X0125497Y0146119D02*
X0126093Y0146119D01*
X0126507Y0147118D02*
X0125084Y0147118D01*
X0124156Y0148116D02*
X0127435Y0148116D01*
X0129099Y0149115D02*
X0122492Y0149115D01*
X0123498Y0150113D02*
X0128092Y0150113D01*
X0127018Y0151112D02*
X0124573Y0151112D01*
X0125256Y0152110D02*
X0126334Y0152110D01*
X0125920Y0153109D02*
X0125670Y0153109D01*
X0125795Y0154107D02*
X0125795Y0154107D01*
X0125795Y0155106D02*
X0125795Y0155106D01*
X0125504Y0156104D02*
X0126087Y0156104D01*
X0126501Y0157103D02*
X0125090Y0157103D01*
X0124171Y0158101D02*
X0127420Y0158101D01*
X0129063Y0159100D02*
X0122528Y0159100D01*
X0123462Y0160098D02*
X0128128Y0160098D01*
X0127033Y0161097D02*
X0124558Y0161097D01*
X0125250Y0162095D02*
X0126340Y0162095D01*
X0125927Y0163094D02*
X0125664Y0163094D01*
X0125795Y0164092D02*
X0125795Y0164092D01*
X0125795Y0165091D02*
X0125795Y0165091D01*
X0125510Y0166089D02*
X0126081Y0166089D01*
X0126494Y0167088D02*
X0125096Y0167088D01*
X0124185Y0168086D02*
X0127405Y0168086D01*
X0129027Y0169085D02*
X0122564Y0169085D01*
X0123426Y0170083D02*
X0128164Y0170083D01*
X0127048Y0171082D02*
X0124543Y0171082D01*
X0125244Y0172080D02*
X0126346Y0172080D01*
X0125933Y0173079D02*
X0125658Y0173079D01*
X0125795Y0174077D02*
X0125795Y0174077D01*
X0125795Y0175076D02*
X0125795Y0175076D01*
X0125516Y0176074D02*
X0126075Y0176074D01*
X0126488Y0177073D02*
X0125102Y0177073D01*
X0124200Y0178072D02*
X0127390Y0178072D01*
X0128991Y0179070D02*
X0122600Y0179070D01*
X0123390Y0180069D02*
X0128200Y0180069D01*
X0127063Y0181067D02*
X0124528Y0181067D01*
X0125238Y0182066D02*
X0126353Y0182066D01*
X0125939Y0183064D02*
X0125652Y0183064D01*
X0125795Y0184063D02*
X0125795Y0184063D01*
X0125795Y0185061D02*
X0125795Y0185061D01*
X0125522Y0186060D02*
X0126068Y0186060D01*
X0126482Y0187058D02*
X0125108Y0187058D01*
X0124215Y0188057D02*
X0127375Y0188057D01*
X0128955Y0189055D02*
X0122636Y0189055D01*
X0117390Y0178072D02*
X0114200Y0178072D01*
X0115102Y0177073D02*
X0116488Y0177073D01*
X0116075Y0176074D02*
X0115516Y0176074D01*
X0115795Y0175076D02*
X0115795Y0175076D01*
X0115795Y0174077D02*
X0115795Y0174077D01*
X0115658Y0173079D02*
X0115933Y0173079D01*
X0116346Y0172080D02*
X0115244Y0172080D01*
X0114543Y0171082D02*
X0117048Y0171082D01*
X0118164Y0170083D02*
X0113426Y0170083D01*
X0112564Y0169085D02*
X0119027Y0169085D01*
X0117405Y0168086D02*
X0114185Y0168086D01*
X0115096Y0167088D02*
X0116494Y0167088D01*
X0116081Y0166089D02*
X0115510Y0166089D01*
X0115795Y0165091D02*
X0115795Y0165091D01*
X0115795Y0164092D02*
X0115795Y0164092D01*
X0115664Y0163094D02*
X0115927Y0163094D01*
X0116340Y0162095D02*
X0115250Y0162095D01*
X0114558Y0161097D02*
X0117033Y0161097D01*
X0118128Y0160098D02*
X0113462Y0160098D01*
X0112528Y0159100D02*
X0119063Y0159100D01*
X0117420Y0158101D02*
X0114171Y0158101D01*
X0115090Y0157103D02*
X0116501Y0157103D01*
X0116087Y0156104D02*
X0115504Y0156104D01*
X0115795Y0155106D02*
X0115795Y0155106D01*
X0115795Y0154107D02*
X0115795Y0154107D01*
X0115670Y0153109D02*
X0115920Y0153109D01*
X0116334Y0152110D02*
X0115256Y0152110D01*
X0114573Y0151112D02*
X0117018Y0151112D01*
X0118092Y0150113D02*
X0113498Y0150113D01*
X0112492Y0149115D02*
X0119099Y0149115D01*
X0117435Y0148116D02*
X0114156Y0148116D01*
X0115084Y0147118D02*
X0116507Y0147118D01*
X0116093Y0146119D02*
X0115497Y0146119D01*
X0115795Y0145121D02*
X0115795Y0145121D01*
X0115795Y0144122D02*
X0115795Y0144122D01*
X0115676Y0143124D02*
X0115914Y0143124D01*
X0116328Y0142125D02*
X0115263Y0142125D01*
X0114587Y0141127D02*
X0117003Y0141127D01*
X0118056Y0140128D02*
X0113534Y0140128D01*
X0112456Y0139130D02*
X0119135Y0139130D01*
X0117450Y0138131D02*
X0114141Y0138131D01*
X0115078Y0137133D02*
X0116513Y0137133D01*
X0116099Y0136134D02*
X0115491Y0136134D01*
X0115795Y0135136D02*
X0115795Y0135136D01*
X0115795Y0134137D02*
X0115795Y0134137D01*
X0115682Y0133138D02*
X0115908Y0133138D01*
X0116322Y0132140D02*
X0115269Y0132140D01*
X0114602Y0131141D02*
X0116988Y0131141D01*
X0118020Y0130143D02*
X0113570Y0130143D01*
X0107370Y0118161D02*
X0134685Y0118161D01*
X0132572Y0117162D02*
X0109483Y0117162D01*
X0110482Y0116164D02*
X0131573Y0116164D01*
X0130924Y0115165D02*
X0111131Y0115165D01*
X0110788Y0109174D02*
X0131267Y0109174D01*
X0132265Y0108176D02*
X0109790Y0108176D01*
X0108110Y0107177D02*
X0133945Y0107177D01*
X0138110Y0107177D02*
X0152992Y0107177D01*
X0152992Y0106179D02*
X0095549Y0106179D01*
X0096547Y0107177D02*
X0103945Y0107177D01*
X0102265Y0108176D02*
X0097546Y0108176D01*
X0098544Y0109174D02*
X0101267Y0109174D01*
X0100797Y0110173D02*
X0099543Y0110173D01*
X0096466Y0114167D02*
X0091038Y0114167D01*
X0091100Y0114317D02*
X0090400Y0112627D01*
X0089106Y0111333D01*
X0087415Y0110632D01*
X0085585Y0110632D01*
X0083894Y0111333D01*
X0082600Y0112627D01*
X0081900Y0114317D01*
X0081900Y0116147D01*
X0082600Y0117838D01*
X0083894Y0119132D01*
X0085585Y0119832D01*
X0087415Y0119832D01*
X0089106Y0119132D01*
X0090400Y0117838D01*
X0091100Y0116147D01*
X0091100Y0114317D01*
X0091100Y0115165D02*
X0097098Y0115165D01*
X0097098Y0116164D02*
X0091093Y0116164D01*
X0090680Y0117162D02*
X0097098Y0117162D01*
X0097098Y0118161D02*
X0090077Y0118161D01*
X0089040Y0119159D02*
X0097098Y0119159D01*
X0102098Y0119159D02*
X0152992Y0119159D01*
X0152992Y0118161D02*
X0137370Y0118161D01*
X0139483Y0117162D02*
X0152992Y0117162D01*
X0152992Y0116164D02*
X0140482Y0116164D01*
X0141131Y0115165D02*
X0152992Y0115165D01*
X0152992Y0114167D02*
X0141545Y0114167D01*
X0141757Y0113168D02*
X0152992Y0113168D01*
X0152992Y0112170D02*
X0141757Y0112170D01*
X0141672Y0111171D02*
X0152992Y0111171D01*
X0152992Y0110173D02*
X0141258Y0110173D01*
X0140788Y0109174D02*
X0152992Y0109174D01*
X0152992Y0108176D02*
X0139790Y0108176D01*
X0152992Y0105180D02*
X0094550Y0105180D01*
X0093552Y0104182D02*
X0152992Y0104182D01*
X0152992Y0103183D02*
X0092553Y0103183D01*
X0089958Y0102185D02*
X0152992Y0102185D01*
X0152992Y0120158D02*
X0102098Y0120158D01*
X0102098Y0121156D02*
X0152992Y0121156D01*
X0152992Y0122155D02*
X0102098Y0122155D01*
X0102098Y0123153D02*
X0152992Y0123153D01*
X0152992Y0124152D02*
X0102098Y0124152D01*
X0102098Y0125150D02*
X0152992Y0125150D01*
X0152992Y0126149D02*
X0102098Y0126149D01*
X0102098Y0127147D02*
X0152992Y0127147D01*
X0152992Y0128146D02*
X0102098Y0128146D01*
X0102098Y0129144D02*
X0152992Y0129144D01*
X0104685Y0118161D02*
X0102098Y0118161D01*
X0102098Y0117162D02*
X0102572Y0117162D01*
X0095467Y0113168D02*
X0090624Y0113168D01*
X0089943Y0112170D02*
X0094469Y0112170D01*
X0093470Y0111171D02*
X0088716Y0111171D01*
X0089004Y0109174D02*
X0091473Y0109174D01*
X0090475Y0108176D02*
X0090062Y0108176D01*
X0092472Y0110173D02*
X0066441Y0110173D01*
X0066441Y0111171D02*
X0084284Y0111171D01*
X0083057Y0112170D02*
X0067384Y0112170D01*
X0068065Y0113168D02*
X0082376Y0113168D01*
X0081962Y0114167D02*
X0068479Y0114167D01*
X0068541Y0115165D02*
X0081900Y0115165D01*
X0081907Y0116164D02*
X0068534Y0116164D01*
X0068120Y0117162D02*
X0082320Y0117162D01*
X0082923Y0118161D02*
X0067518Y0118161D01*
X0066481Y0119159D02*
X0083960Y0119159D01*
X0083996Y0109174D02*
X0066445Y0109174D01*
X0067503Y0108176D02*
X0082938Y0108176D01*
X0083042Y0102185D02*
X0067399Y0102185D01*
X0066193Y0101186D02*
X0084248Y0101186D01*
X0084032Y0099189D02*
X0066409Y0099189D01*
X0067488Y0098191D02*
X0082953Y0098191D01*
X0083027Y0092200D02*
X0067414Y0092200D01*
X0066229Y0091201D02*
X0084212Y0091201D01*
X0088536Y0161097D02*
X0092937Y0161097D01*
X0092937Y0162095D02*
X0089868Y0162095D01*
X0090593Y0163094D02*
X0092937Y0163094D01*
X0092937Y0164092D02*
X0091007Y0164092D01*
X0091100Y0165091D02*
X0092937Y0165091D01*
X0092937Y0166089D02*
X0091100Y0166089D01*
X0090710Y0167088D02*
X0092937Y0167088D01*
X0092937Y0168086D02*
X0090151Y0168086D01*
X0089153Y0169085D02*
X0092937Y0169085D01*
X0092937Y0170083D02*
X0044796Y0170083D01*
X0043797Y0169085D02*
X0061288Y0169085D01*
X0060290Y0168086D02*
X0042799Y0168086D01*
X0041800Y0167088D02*
X0059731Y0167088D01*
X0059341Y0166089D02*
X0040802Y0166089D01*
X0039803Y0165091D02*
X0059341Y0165091D01*
X0059434Y0164092D02*
X0038805Y0164092D01*
X0037806Y0163094D02*
X0059848Y0163094D01*
X0060573Y0162095D02*
X0036808Y0162095D01*
X0045795Y0171082D02*
X0061940Y0171082D01*
X0060587Y0172080D02*
X0046793Y0172080D01*
X0047792Y0173079D02*
X0059854Y0173079D01*
X0059440Y0174077D02*
X0048790Y0174077D01*
X0049789Y0175076D02*
X0059341Y0175076D01*
X0059341Y0176074D02*
X0050787Y0176074D01*
X0051786Y0177073D02*
X0059724Y0177073D01*
X0060275Y0178072D02*
X0052784Y0178072D01*
X0053783Y0179070D02*
X0061273Y0179070D01*
X0061976Y0181067D02*
X0055780Y0181067D01*
X0056778Y0182066D02*
X0060602Y0182066D01*
X0059860Y0183064D02*
X0057777Y0183064D01*
X0058775Y0184063D02*
X0059446Y0184063D01*
X0061141Y0189055D02*
X0061258Y0189055D01*
X0061141Y0190054D02*
X0093232Y0190054D01*
X0092937Y0189055D02*
X0089183Y0189055D01*
X0090181Y0188057D02*
X0092937Y0188057D01*
X0092937Y0187058D02*
X0090723Y0187058D01*
X0091100Y0186060D02*
X0092937Y0186060D01*
X0092937Y0185061D02*
X0091100Y0185061D01*
X0090994Y0184063D02*
X0092937Y0184063D01*
X0092937Y0183064D02*
X0090581Y0183064D01*
X0089839Y0182066D02*
X0092937Y0182066D01*
X0092937Y0181067D02*
X0088465Y0181067D01*
X0089168Y0179070D02*
X0092937Y0179070D01*
X0092937Y0178072D02*
X0090166Y0178072D01*
X0090717Y0177073D02*
X0092937Y0177073D01*
X0092937Y0176074D02*
X0091100Y0176074D01*
X0091100Y0175076D02*
X0092937Y0175076D01*
X0092937Y0174077D02*
X0091001Y0174077D01*
X0090587Y0173079D02*
X0092937Y0173079D01*
X0092937Y0172080D02*
X0089854Y0172080D01*
X0088501Y0171082D02*
X0092937Y0171082D01*
X0092937Y0180069D02*
X0054781Y0180069D01*
X0061141Y0191052D02*
X0062012Y0191052D01*
X0061244Y0199040D02*
X0061141Y0199040D01*
X0061141Y0200039D02*
X0103096Y0200039D01*
X0104094Y0201037D02*
X0088393Y0201037D01*
X0089809Y0202036D02*
X0105093Y0202036D01*
X0106091Y0203034D02*
X0090569Y0203034D01*
X0091100Y0206030D02*
X0143450Y0206030D01*
X0141484Y0207028D02*
X0090735Y0207028D01*
X0090211Y0208027D02*
X0140485Y0208027D01*
X0139897Y0209025D02*
X0089212Y0209025D01*
X0082774Y0218012D02*
X0067667Y0218012D01*
X0066668Y0219010D02*
X0083773Y0219010D01*
X0084679Y0221007D02*
X0065762Y0221007D01*
X0067220Y0222006D02*
X0083221Y0222006D01*
X0082759Y0227997D02*
X0067682Y0227997D01*
X0066683Y0228996D02*
X0083758Y0228996D01*
X0084715Y0230993D02*
X0065726Y0230993D01*
X0067205Y0231991D02*
X0083236Y0231991D01*
X0088285Y0230993D02*
X0110259Y0230993D01*
X0109965Y0230282D02*
X0109965Y0228293D01*
X0110726Y0226455D01*
X0112132Y0225049D01*
X0113970Y0224287D01*
X0115959Y0224287D01*
X0117797Y0225049D01*
X0119203Y0226455D01*
X0119965Y0228293D01*
X0119965Y0230282D01*
X0119203Y0232120D01*
X0117797Y0233526D01*
X0115959Y0234287D01*
X0113970Y0234287D01*
X0112132Y0233526D01*
X0110726Y0232120D01*
X0109965Y0230282D01*
X0109965Y0229994D02*
X0061141Y0229994D01*
X0061141Y0228996D02*
X0061199Y0228996D01*
X0061141Y0230993D02*
X0062156Y0230993D01*
X0061184Y0238981D02*
X0061141Y0238981D01*
X0061141Y0239979D02*
X0110826Y0239979D01*
X0110574Y0240978D02*
X0088249Y0240978D01*
X0089749Y0241976D02*
X0110574Y0241976D01*
X0110813Y0242975D02*
X0090544Y0242975D01*
X0090957Y0243973D02*
X0111227Y0243973D01*
X0112170Y0244972D02*
X0091100Y0244972D01*
X0091100Y0245970D02*
X0114049Y0245970D01*
X0113532Y0246969D02*
X0090760Y0246969D01*
X0090270Y0247967D02*
X0112533Y0247967D01*
X0118289Y0252960D02*
X0152992Y0252960D01*
X0152992Y0253958D02*
X0147197Y0253958D01*
X0146651Y0253732D02*
X0149040Y0254722D01*
X0150869Y0256550D01*
X0151858Y0258939D01*
X0151858Y0261525D01*
X0150869Y0263914D01*
X0149040Y0265743D01*
X0146651Y0266732D01*
X0144065Y0266732D01*
X0141676Y0265743D01*
X0139848Y0263914D01*
X0138858Y0261525D01*
X0138858Y0258939D01*
X0139848Y0256550D01*
X0141676Y0254722D01*
X0144065Y0253732D01*
X0146651Y0253732D01*
X0143520Y0253958D02*
X0117290Y0253958D01*
X0116292Y0254957D02*
X0141441Y0254957D01*
X0140443Y0255955D02*
X0068000Y0255955D01*
X0068000Y0256954D02*
X0139681Y0256954D01*
X0139267Y0257952D02*
X0068000Y0257952D01*
X0068000Y0258951D02*
X0138858Y0258951D01*
X0138858Y0259949D02*
X0068000Y0259949D01*
X0068000Y0260948D02*
X0138858Y0260948D01*
X0139033Y0261946D02*
X0068000Y0261946D01*
X0068000Y0262945D02*
X0139446Y0262945D01*
X0139877Y0263943D02*
X0068000Y0263943D01*
X0068000Y0264942D02*
X0140876Y0264942D01*
X0142154Y0265941D02*
X0068000Y0265941D01*
X0068000Y0266939D02*
X0149544Y0266939D01*
X0148563Y0265941D02*
X0150722Y0265941D01*
X0151448Y0264942D02*
X0149841Y0264942D01*
X0150839Y0263943D02*
X0152114Y0263943D01*
X0152438Y0262945D02*
X0151270Y0262945D01*
X0151684Y0261946D02*
X0152763Y0261946D01*
X0152936Y0260948D02*
X0151858Y0260948D01*
X0151858Y0259949D02*
X0152992Y0259949D01*
X0152992Y0258951D02*
X0151858Y0258951D01*
X0151449Y0257952D02*
X0152992Y0257952D01*
X0152992Y0256954D02*
X0151036Y0256954D01*
X0150274Y0255955D02*
X0152992Y0255955D01*
X0152992Y0254957D02*
X0149275Y0254957D01*
X0152992Y0251961D02*
X0119287Y0251961D01*
X0120286Y0250963D02*
X0152992Y0250963D01*
X0152992Y0249964D02*
X0121284Y0249964D01*
X0122283Y0248966D02*
X0142413Y0248966D01*
X0141798Y0248711D02*
X0140186Y0247100D01*
X0139314Y0244994D01*
X0139314Y0242715D01*
X0140186Y0240609D01*
X0141798Y0238997D01*
X0142630Y0238653D01*
X0141758Y0237782D01*
X0141169Y0236357D01*
X0141169Y0234816D01*
X0141758Y0233392D01*
X0142848Y0232302D01*
X0144273Y0231712D01*
X0145814Y0231712D01*
X0147238Y0232302D01*
X0148328Y0233392D01*
X0148918Y0234816D01*
X0148918Y0236357D01*
X0148328Y0237782D01*
X0147457Y0238653D01*
X0148289Y0238997D01*
X0149900Y0240609D01*
X0150772Y0242715D01*
X0150772Y0244994D01*
X0149900Y0247100D01*
X0148289Y0248711D01*
X0146183Y0249583D01*
X0143904Y0249583D01*
X0141798Y0248711D01*
X0141054Y0247967D02*
X0123281Y0247967D01*
X0124280Y0246969D02*
X0140132Y0246969D01*
X0139719Y0245970D02*
X0126038Y0245970D01*
X0127917Y0244972D02*
X0139314Y0244972D01*
X0139314Y0243973D02*
X0128860Y0243973D01*
X0129273Y0242975D02*
X0139314Y0242975D01*
X0139620Y0241976D02*
X0129513Y0241976D01*
X0129513Y0240978D02*
X0140034Y0240978D01*
X0140816Y0239979D02*
X0129261Y0239979D01*
X0128847Y0238981D02*
X0141838Y0238981D01*
X0141959Y0237982D02*
X0128765Y0237982D01*
X0128765Y0236984D02*
X0141428Y0236984D01*
X0141169Y0235985D02*
X0128765Y0235985D01*
X0128765Y0234987D02*
X0141169Y0234987D01*
X0141511Y0233988D02*
X0128765Y0233988D01*
X0128765Y0232990D02*
X0142160Y0232990D01*
X0143598Y0231991D02*
X0129257Y0231991D01*
X0129670Y0230993D02*
X0142844Y0230993D01*
X0142848Y0230997D02*
X0141758Y0229907D01*
X0141169Y0228483D01*
X0141169Y0226942D01*
X0141758Y0225518D01*
X0142848Y0224428D01*
X0144273Y0223838D01*
X0145814Y0223838D01*
X0147238Y0224428D01*
X0148328Y0225518D01*
X0148918Y0226942D01*
X0148918Y0228483D01*
X0148328Y0229907D01*
X0147238Y0230997D01*
X0145814Y0231587D01*
X0144273Y0231587D01*
X0142848Y0230997D01*
X0141845Y0229994D02*
X0129965Y0229994D01*
X0129965Y0228996D02*
X0141381Y0228996D01*
X0141169Y0227997D02*
X0129842Y0227997D01*
X0129428Y0226999D02*
X0141169Y0226999D01*
X0141559Y0226000D02*
X0128748Y0226000D01*
X0127683Y0225002D02*
X0142275Y0225002D01*
X0143874Y0224003D02*
X0090970Y0224003D01*
X0091100Y0225002D02*
X0112246Y0225002D01*
X0111181Y0226000D02*
X0091100Y0226000D01*
X0090747Y0226999D02*
X0110501Y0226999D01*
X0110087Y0227997D02*
X0090241Y0227997D01*
X0089242Y0228996D02*
X0109965Y0228996D01*
X0110673Y0231991D02*
X0089764Y0231991D01*
X0090550Y0232990D02*
X0111596Y0232990D01*
X0113248Y0233988D02*
X0090964Y0233988D01*
X0091100Y0234987D02*
X0121165Y0234987D01*
X0121165Y0235985D02*
X0091100Y0235985D01*
X0090754Y0236984D02*
X0114122Y0236984D01*
X0116122Y0236984D02*
X0121165Y0236984D01*
X0121165Y0237982D02*
X0118044Y0237982D01*
X0119005Y0238981D02*
X0121082Y0238981D01*
X0120521Y0239979D02*
X0119418Y0239979D01*
X0121165Y0233988D02*
X0116682Y0233988D01*
X0118333Y0232990D02*
X0121165Y0232990D01*
X0120673Y0231991D02*
X0119257Y0231991D01*
X0119670Y0230993D02*
X0120259Y0230993D01*
X0119965Y0229994D02*
X0119965Y0229994D01*
X0119965Y0228996D02*
X0119965Y0228996D01*
X0119842Y0227997D02*
X0120087Y0227997D01*
X0120501Y0226999D02*
X0119428Y0226999D01*
X0118748Y0226000D02*
X0121181Y0226000D01*
X0122246Y0225002D02*
X0117683Y0225002D01*
X0125584Y0218012D02*
X0104660Y0218012D01*
X0105073Y0217013D02*
X0125171Y0217013D01*
X0125122Y0216015D02*
X0105122Y0216015D01*
X0105122Y0215016D02*
X0125122Y0215016D01*
X0125490Y0214018D02*
X0104754Y0214018D01*
X0104311Y0213019D02*
X0125933Y0213019D01*
X0126932Y0212021D02*
X0103312Y0212021D01*
X0104084Y0219010D02*
X0126160Y0219010D01*
X0127158Y0220009D02*
X0103086Y0220009D01*
X0097158Y0220009D02*
X0061141Y0220009D01*
X0061141Y0221007D02*
X0062120Y0221007D01*
X0061214Y0219010D02*
X0061141Y0219010D01*
X0061141Y0201037D02*
X0062048Y0201037D01*
X0089197Y0199040D02*
X0102097Y0199040D01*
X0101099Y0198042D02*
X0090196Y0198042D01*
X0090729Y0197043D02*
X0100100Y0197043D01*
X0099102Y0196045D02*
X0091100Y0196045D01*
X0091100Y0195046D02*
X0098103Y0195046D01*
X0097105Y0194048D02*
X0090988Y0194048D01*
X0090575Y0193049D02*
X0096106Y0193049D01*
X0095108Y0192051D02*
X0089824Y0192051D01*
X0088429Y0191052D02*
X0094109Y0191052D01*
X0089779Y0222006D02*
X0152992Y0222006D01*
X0152992Y0223005D02*
X0090556Y0223005D01*
X0090255Y0237982D02*
X0112200Y0237982D01*
X0111240Y0238981D02*
X0089257Y0238981D01*
X0084751Y0240978D02*
X0065690Y0240978D01*
X0067190Y0241976D02*
X0083251Y0241976D01*
X0083743Y0238981D02*
X0066698Y0238981D01*
X0067696Y0237982D02*
X0082745Y0237982D01*
X0062192Y0240978D02*
X0061141Y0240978D01*
X0068000Y0267938D02*
X0147946Y0267938D01*
X0147674Y0248966D02*
X0152992Y0248966D01*
X0152992Y0247967D02*
X0149033Y0247967D01*
X0149954Y0246969D02*
X0152992Y0246969D01*
X0152992Y0245970D02*
X0150368Y0245970D01*
X0150772Y0244972D02*
X0152992Y0244972D01*
X0152992Y0243973D02*
X0150772Y0243973D01*
X0150772Y0242975D02*
X0152992Y0242975D01*
X0152992Y0241976D02*
X0150467Y0241976D01*
X0150053Y0240978D02*
X0152992Y0240978D01*
X0152992Y0239979D02*
X0149270Y0239979D01*
X0148248Y0238981D02*
X0152992Y0238981D01*
X0152992Y0237982D02*
X0148128Y0237982D01*
X0148659Y0236984D02*
X0152992Y0236984D01*
X0152992Y0235985D02*
X0148918Y0235985D01*
X0148918Y0234987D02*
X0152992Y0234987D01*
X0152992Y0233988D02*
X0148575Y0233988D01*
X0147926Y0232990D02*
X0152992Y0232990D01*
X0152992Y0231991D02*
X0146488Y0231991D01*
X0147243Y0230993D02*
X0152992Y0230993D01*
X0152992Y0229994D02*
X0148242Y0229994D01*
X0148706Y0228996D02*
X0152992Y0228996D01*
X0152992Y0227997D02*
X0148918Y0227997D01*
X0148918Y0226999D02*
X0152992Y0226999D01*
X0152992Y0226000D02*
X0148528Y0226000D01*
X0147812Y0225002D02*
X0152992Y0225002D01*
X0152992Y0224003D02*
X0146213Y0224003D01*
X0146875Y0217013D02*
X0152992Y0217013D01*
X0152992Y0216015D02*
X0148701Y0216015D01*
X0149700Y0215016D02*
X0152992Y0215016D01*
X0152992Y0214018D02*
X0150231Y0214018D01*
X0150644Y0213019D02*
X0152992Y0213019D01*
X0152992Y0212021D02*
X0150772Y0212021D01*
X0150772Y0211022D02*
X0152992Y0211022D01*
X0152992Y0210024D02*
X0150604Y0210024D01*
X0150190Y0209025D02*
X0152992Y0209025D01*
X0152992Y0208027D02*
X0149602Y0208027D01*
X0148603Y0207028D02*
X0152992Y0207028D01*
X0152992Y0206030D02*
X0146637Y0206030D01*
X0003892Y0139130D02*
X0003000Y0139130D01*
D17*
X0006500Y0145232D02*
X0024571Y0145232D01*
X0024571Y0165232D02*
X0006500Y0165232D01*
X0006500Y0175232D02*
X0024571Y0175232D01*
X0024571Y0185232D02*
X0006500Y0185232D01*
X0006500Y0195232D02*
X0024571Y0195232D01*
X0024571Y0205232D02*
X0006500Y0205232D01*
X0006500Y0215232D02*
X0024571Y0215232D01*
X0024571Y0225232D02*
X0006500Y0225232D01*
X0006500Y0235232D02*
X0024571Y0235232D01*
X0024571Y0245232D02*
X0006500Y0245232D01*
X0063941Y0245232D02*
X0086500Y0245232D01*
X0086500Y0235232D02*
X0063941Y0235232D01*
X0063941Y0225232D02*
X0086500Y0225232D01*
X0086500Y0215232D02*
X0063941Y0215232D01*
X0063941Y0205232D02*
X0086500Y0205232D01*
X0086500Y0195232D02*
X0063941Y0195232D01*
X0063941Y0185232D02*
X0086500Y0185232D01*
X0086500Y0175232D02*
X0063941Y0175232D01*
X0063941Y0165232D02*
X0086500Y0165232D01*
X0086500Y0155232D02*
X0063941Y0155232D01*
X0063941Y0145232D02*
X0086500Y0145232D01*
X0095437Y0141098D02*
X0089571Y0135232D01*
X0086500Y0135232D01*
X0095437Y0141098D02*
X0095437Y0188844D01*
X0108509Y0201917D01*
X0123231Y0201917D01*
X0128931Y0196217D01*
X0130870Y0196217D01*
X0110870Y0196217D02*
X0110870Y0192541D01*
X0099598Y0181270D01*
X0099598Y0113764D01*
X0091067Y0105232D01*
X0083626Y0105232D01*
X0086500Y0105232D01*
X0083626Y0105232D02*
X0063941Y0105232D01*
X0063941Y0115232D01*
X0063941Y0095232D02*
X0086500Y0095232D01*
X0106028Y0112516D02*
X0136028Y0112516D01*
D18*
X0057341Y0188002D02*
X0057341Y0247966D01*
X0061207Y0251832D01*
X0114042Y0251832D01*
X0124382Y0241492D01*
X0124965Y0241492D01*
X0124965Y0229287D01*
X0057341Y0188002D02*
X0024571Y0155232D01*
X0006500Y0155232D01*
X0006500Y0135232D02*
X0024571Y0135232D01*
M02*
