G04 EAGLE Gerber X2 export*
%TF.Part,Single*%
%TF.FileFunction,Copper,L1,Top,Mixed*%
%TF.FilePolarity,Positive*%
%TF.GenerationSoftware,Autodesk,EAGLE,9.1.2*%
%TF.CreationDate,2018-08-18T03:54:16Z*%
G75*
%MOIN*%
%FSLAX36Y36*%
%LPD*%
%AMOC8*
5,1,8,0,0,1.08239X$1,22.5*%
G01*
%ADD10C,0.066000*%
%ADD11C,0.074000*%
%ADD12C,0.088583*%
%ADD13C,0.064961*%
%ADD14C,0.051496*%
%ADD15C,0.024000*%
%ADD16C,0.050000*%

G36*
X344684Y10049D02*
X344684Y10049D01*
X345073Y10061D01*
X345303Y10127D01*
X345541Y10157D01*
X345902Y10300D01*
X346276Y10408D01*
X346483Y10530D01*
X346705Y10618D01*
X347020Y10846D01*
X347355Y11044D01*
X347653Y11306D01*
X347719Y11354D01*
X347750Y11391D01*
X347834Y11465D01*
X366369Y30001D01*
X539654Y30001D01*
X558190Y11465D01*
X558497Y11226D01*
X558780Y10960D01*
X558990Y10844D01*
X559180Y10697D01*
X559536Y10543D01*
X559876Y10355D01*
X560109Y10295D01*
X560329Y10200D01*
X560712Y10139D01*
X561089Y10041D01*
X561486Y10016D01*
X561566Y10003D01*
X561614Y10008D01*
X561725Y10001D01*
X1435433Y10001D01*
X1435519Y10012D01*
X1435825Y10016D01*
X1449122Y11063D01*
X1449387Y11117D01*
X1449657Y11134D01*
X1450275Y11292D01*
X1475567Y19510D01*
X1475989Y19708D01*
X1476422Y19879D01*
X1476626Y20008D01*
X1476700Y20043D01*
X1476762Y20094D01*
X1476961Y20220D01*
X1498476Y35851D01*
X1498816Y36171D01*
X1499175Y36467D01*
X1499329Y36653D01*
X1499389Y36709D01*
X1499432Y36777D01*
X1499582Y36957D01*
X1515213Y58472D01*
X1515288Y58609D01*
X1515388Y58729D01*
X1515521Y59011D01*
X1515688Y59273D01*
X1515778Y59499D01*
X1515816Y59570D01*
X1515836Y59647D01*
X1515920Y59858D01*
X1515922Y59862D01*
X1515922Y59863D01*
X1515923Y59866D01*
X1517086Y63443D01*
X1517086Y63444D01*
X1517086Y63445D01*
X1521959Y78441D01*
X1521959Y78442D01*
X1523583Y83440D01*
X1523583Y83441D01*
X1523583Y83442D01*
X1524141Y85158D01*
X1524192Y85423D01*
X1524280Y85680D01*
X1524370Y86311D01*
X1525417Y99608D01*
X1525415Y99639D01*
X1525421Y99669D01*
X1525416Y99748D01*
X1525432Y100000D01*
X1525432Y1900000D01*
X1525421Y1900086D01*
X1525417Y1900392D01*
X1524370Y1913689D01*
X1524316Y1913954D01*
X1524299Y1914224D01*
X1524141Y1914842D01*
X1515923Y1940134D01*
X1515725Y1940556D01*
X1515554Y1940989D01*
X1515425Y1941193D01*
X1515390Y1941267D01*
X1515339Y1941329D01*
X1515213Y1941528D01*
X1499582Y1963043D01*
X1499262Y1963383D01*
X1498966Y1963742D01*
X1498780Y1963896D01*
X1498724Y1963956D01*
X1498656Y1963999D01*
X1498476Y1964149D01*
X1476961Y1979780D01*
X1476552Y1980005D01*
X1476160Y1980255D01*
X1475935Y1980344D01*
X1475863Y1980383D01*
X1475785Y1980403D01*
X1475567Y1980490D01*
X1450275Y1988708D01*
X1450009Y1988759D01*
X1449753Y1988847D01*
X1449122Y1988937D01*
X1435825Y1989984D01*
X1435738Y1989980D01*
X1435433Y1989999D01*
X670512Y1989999D01*
X670047Y1989941D01*
X669580Y1989912D01*
X669428Y1989862D01*
X669269Y1989842D01*
X668834Y1989670D01*
X668389Y1989526D01*
X668253Y1989440D01*
X668105Y1989382D01*
X667727Y1989107D01*
X667331Y1988857D01*
X667221Y1988740D01*
X667091Y1988646D01*
X666793Y1988286D01*
X666472Y1987945D01*
X666395Y1987805D01*
X666292Y1987681D01*
X666093Y1987258D01*
X665867Y1986849D01*
X665827Y1986694D01*
X665758Y1986549D01*
X665670Y1986090D01*
X665553Y1985636D01*
X665538Y1985398D01*
X665523Y1985319D01*
X665528Y1985238D01*
X665512Y1985000D01*
X665512Y1854000D01*
X665571Y1853536D01*
X665600Y1853069D01*
X665649Y1852916D01*
X665669Y1852757D01*
X665841Y1852323D01*
X665985Y1851877D01*
X666071Y1851742D01*
X666130Y1851593D01*
X666404Y1851215D01*
X666655Y1850819D01*
X666772Y1850709D01*
X666866Y1850579D01*
X667226Y1850281D01*
X667567Y1849960D01*
X667707Y1849883D01*
X667830Y1849781D01*
X668253Y1849581D01*
X668663Y1849355D01*
X668818Y1849315D01*
X668963Y1849247D01*
X669422Y1849159D01*
X669875Y1849041D01*
X670114Y1849026D01*
X670193Y1849011D01*
X670274Y1849016D01*
X670512Y1849001D01*
X1137498Y1849001D01*
X1149627Y1843977D01*
X1239060Y1754544D01*
X1239368Y1754305D01*
X1239650Y1754039D01*
X1239860Y1753923D01*
X1240050Y1753776D01*
X1240407Y1753621D01*
X1240747Y1753434D01*
X1240979Y1753374D01*
X1241199Y1753278D01*
X1241583Y1753217D01*
X1241959Y1753120D01*
X1242356Y1753095D01*
X1242436Y1753082D01*
X1242484Y1753086D01*
X1242595Y1753079D01*
X1248210Y1753079D01*
X1263088Y1746917D01*
X1274476Y1735529D01*
X1280638Y1720651D01*
X1280638Y1704546D01*
X1274438Y1689577D01*
X1274384Y1689508D01*
X1274118Y1689225D01*
X1274002Y1689015D01*
X1273855Y1688826D01*
X1273700Y1688468D01*
X1273512Y1688128D01*
X1273452Y1687896D01*
X1273357Y1687676D01*
X1273296Y1687292D01*
X1273199Y1686916D01*
X1273173Y1686520D01*
X1273161Y1686440D01*
X1273165Y1686391D01*
X1273158Y1686280D01*
X1273158Y1623262D01*
X1273207Y1622876D01*
X1273218Y1622488D01*
X1273285Y1622257D01*
X1273315Y1622019D01*
X1273458Y1621658D01*
X1273566Y1621285D01*
X1273688Y1621078D01*
X1273776Y1620855D01*
X1274004Y1620540D01*
X1274201Y1620205D01*
X1274464Y1619907D01*
X1274511Y1619841D01*
X1274549Y1619811D01*
X1274622Y1619727D01*
X1278307Y1616042D01*
X1285158Y1599502D01*
X1285158Y1581600D01*
X1278307Y1565060D01*
X1265648Y1552401D01*
X1249109Y1545550D01*
X1231206Y1545550D01*
X1214667Y1552401D01*
X1202008Y1565060D01*
X1195157Y1581600D01*
X1195157Y1599502D01*
X1202008Y1616042D01*
X1205693Y1619727D01*
X1205931Y1620034D01*
X1206197Y1620317D01*
X1206313Y1620527D01*
X1206460Y1620716D01*
X1206615Y1621073D01*
X1206802Y1621413D01*
X1206862Y1621645D01*
X1206958Y1621866D01*
X1207019Y1622249D01*
X1207116Y1622626D01*
X1207141Y1623022D01*
X1207154Y1623102D01*
X1207150Y1623150D01*
X1207157Y1623262D01*
X1207157Y1686280D01*
X1207108Y1686666D01*
X1207096Y1687054D01*
X1207030Y1687284D01*
X1207000Y1687522D01*
X1206857Y1687884D01*
X1206749Y1688258D01*
X1206627Y1688464D01*
X1206539Y1688687D01*
X1206311Y1689001D01*
X1206113Y1689336D01*
X1205855Y1689630D01*
X1202856Y1696870D01*
X1202839Y1696900D01*
X1202829Y1696934D01*
X1202530Y1697441D01*
X1202236Y1697957D01*
X1202211Y1697983D01*
X1202194Y1698013D01*
X1201773Y1698492D01*
X1190748Y1709517D01*
X1190314Y1709853D01*
X1189894Y1710201D01*
X1189821Y1710235D01*
X1189758Y1710284D01*
X1189256Y1710502D01*
X1188761Y1710735D01*
X1188682Y1710750D01*
X1188609Y1710782D01*
X1188068Y1710868D01*
X1187531Y1710971D01*
X1187451Y1710966D01*
X1187372Y1710978D01*
X1186828Y1710927D01*
X1186281Y1710893D01*
X1186205Y1710869D01*
X1186125Y1710861D01*
X1185611Y1710677D01*
X1185090Y1710508D01*
X1185022Y1710465D01*
X1184946Y1710438D01*
X1184495Y1710132D01*
X1184031Y1709838D01*
X1183976Y1709780D01*
X1183910Y1709735D01*
X1183548Y1709325D01*
X1183173Y1708927D01*
X1183134Y1708857D01*
X1183081Y1708796D01*
X1182831Y1708308D01*
X1182568Y1707830D01*
X1182547Y1707753D01*
X1182511Y1707681D01*
X1182391Y1707148D01*
X1182254Y1706618D01*
X1182247Y1706507D01*
X1182236Y1706459D01*
X1182239Y1706378D01*
X1182213Y1705982D01*
X1182213Y1704546D01*
X1176050Y1689668D01*
X1164663Y1678280D01*
X1149784Y1672117D01*
X1133680Y1672117D01*
X1118802Y1678280D01*
X1107414Y1689668D01*
X1101251Y1704546D01*
X1101251Y1720651D01*
X1107414Y1735529D01*
X1118802Y1746917D01*
X1133680Y1753079D01*
X1135115Y1753079D01*
X1135659Y1753148D01*
X1136203Y1753199D01*
X1136278Y1753226D01*
X1136358Y1753236D01*
X1136866Y1753437D01*
X1137381Y1753622D01*
X1137448Y1753667D01*
X1137522Y1753697D01*
X1137965Y1754018D01*
X1138418Y1754325D01*
X1138471Y1754385D01*
X1138536Y1754433D01*
X1138884Y1754853D01*
X1139247Y1755264D01*
X1139284Y1755336D01*
X1139335Y1755397D01*
X1139567Y1755891D01*
X1139817Y1756379D01*
X1139835Y1756457D01*
X1139869Y1756530D01*
X1139972Y1757066D01*
X1140092Y1757601D01*
X1140089Y1757681D01*
X1140104Y1757760D01*
X1140071Y1758305D01*
X1140054Y1758853D01*
X1140032Y1758930D01*
X1140027Y1759010D01*
X1139859Y1759530D01*
X1139707Y1760056D01*
X1139666Y1760125D01*
X1139642Y1760201D01*
X1139349Y1760664D01*
X1139071Y1761135D01*
X1138998Y1761218D01*
X1138972Y1761260D01*
X1138912Y1761316D01*
X1138650Y1761614D01*
X1118729Y1781535D01*
X1118422Y1781773D01*
X1118139Y1782040D01*
X1117929Y1782156D01*
X1117739Y1782303D01*
X1117383Y1782457D01*
X1117042Y1782645D01*
X1116810Y1782705D01*
X1116590Y1782800D01*
X1116207Y1782861D01*
X1115830Y1782959D01*
X1115433Y1782984D01*
X1115353Y1782997D01*
X1115305Y1782992D01*
X1115194Y1782999D01*
X892565Y1782999D01*
X892022Y1782931D01*
X891478Y1782880D01*
X891402Y1782852D01*
X891323Y1782842D01*
X890814Y1782641D01*
X890299Y1782456D01*
X890233Y1782411D01*
X890158Y1782382D01*
X889715Y1782060D01*
X889263Y1781753D01*
X889210Y1781693D01*
X889145Y1781646D01*
X888796Y1781224D01*
X888434Y1780815D01*
X888397Y1780743D01*
X888346Y1780681D01*
X888112Y1780186D01*
X887864Y1779699D01*
X887846Y1779621D01*
X887812Y1779549D01*
X887709Y1779011D01*
X887589Y1778478D01*
X887591Y1778397D01*
X887576Y1778319D01*
X887610Y1777773D01*
X887626Y1777226D01*
X887649Y1777149D01*
X887654Y1777069D01*
X887822Y1776548D01*
X887974Y1776023D01*
X888014Y1775953D01*
X888039Y1775877D01*
X888332Y1775415D01*
X888609Y1774943D01*
X888683Y1774860D01*
X888709Y1774819D01*
X888768Y1774763D01*
X889030Y1774465D01*
X890270Y1773225D01*
X896512Y1758156D01*
X896512Y1741844D01*
X890271Y1726775D01*
X878737Y1715241D01*
X863667Y1708999D01*
X847356Y1708999D01*
X832287Y1715241D01*
X820753Y1726775D01*
X820696Y1726913D01*
X820639Y1727013D01*
X820603Y1727123D01*
X820330Y1727555D01*
X820076Y1728001D01*
X819995Y1728084D01*
X819934Y1728181D01*
X819561Y1728532D01*
X819204Y1728900D01*
X819106Y1728961D01*
X819022Y1729040D01*
X818574Y1729287D01*
X818137Y1729555D01*
X818027Y1729589D01*
X817926Y1729645D01*
X817429Y1729773D01*
X816940Y1729924D01*
X816825Y1729930D01*
X816713Y1729959D01*
X816077Y1729999D01*
X669356Y1729999D01*
X669241Y1729985D01*
X669126Y1729994D01*
X668622Y1729907D01*
X668113Y1729842D01*
X668006Y1729800D01*
X667892Y1729780D01*
X667426Y1729570D01*
X666949Y1729382D01*
X666855Y1729314D01*
X666750Y1729267D01*
X666350Y1728947D01*
X665935Y1728646D01*
X665862Y1728557D01*
X665772Y1728485D01*
X665464Y1728076D01*
X665137Y1727681D01*
X665087Y1727577D01*
X665018Y1727485D01*
X664737Y1726913D01*
X664680Y1726775D01*
X653146Y1715241D01*
X638077Y1708999D01*
X621766Y1708999D01*
X606696Y1715241D01*
X605456Y1716481D01*
X605024Y1716816D01*
X604603Y1717166D01*
X604530Y1717200D01*
X604467Y1717249D01*
X603965Y1717466D01*
X603470Y1717700D01*
X603391Y1717715D01*
X603318Y1717747D01*
X602776Y1717833D01*
X602240Y1717935D01*
X602160Y1717930D01*
X602081Y1717943D01*
X601537Y1717892D01*
X600990Y1717858D01*
X600913Y1717833D01*
X600834Y1717826D01*
X600320Y1717641D01*
X599798Y1717473D01*
X599731Y1717430D01*
X599655Y1717403D01*
X599203Y1717096D01*
X598740Y1716803D01*
X598685Y1716744D01*
X598619Y1716700D01*
X598257Y1716290D01*
X597881Y1715891D01*
X597843Y1715821D01*
X597790Y1715761D01*
X597541Y1715274D01*
X597276Y1714795D01*
X597256Y1714717D01*
X597220Y1714646D01*
X597100Y1714114D01*
X596962Y1713583D01*
X596955Y1713471D01*
X596945Y1713424D01*
X596947Y1713343D01*
X596922Y1712946D01*
X596922Y1687054D01*
X596990Y1686510D01*
X597042Y1685966D01*
X597069Y1685890D01*
X597079Y1685811D01*
X597280Y1685302D01*
X597465Y1684787D01*
X597510Y1684721D01*
X597539Y1684647D01*
X597861Y1684203D01*
X598168Y1683751D01*
X598228Y1683698D01*
X598275Y1683633D01*
X598697Y1683284D01*
X599107Y1682922D01*
X599178Y1682885D01*
X599240Y1682834D01*
X599735Y1682601D01*
X600222Y1682352D01*
X600300Y1682335D01*
X600372Y1682300D01*
X600910Y1682197D01*
X601444Y1682077D01*
X601524Y1682079D01*
X601602Y1682064D01*
X602148Y1682098D01*
X602695Y1682115D01*
X602772Y1682137D01*
X602852Y1682142D01*
X603373Y1682310D01*
X603899Y1682462D01*
X603968Y1682503D01*
X604044Y1682527D01*
X604506Y1682820D01*
X604978Y1683097D01*
X605061Y1683171D01*
X605102Y1683197D01*
X605158Y1683256D01*
X605456Y1683519D01*
X606696Y1684759D01*
X621766Y1691001D01*
X638077Y1691001D01*
X653146Y1684759D01*
X664680Y1673225D01*
X664737Y1673087D01*
X664794Y1672987D01*
X664830Y1672877D01*
X665103Y1672444D01*
X665357Y1671999D01*
X665438Y1671916D01*
X665499Y1671819D01*
X665872Y1671468D01*
X666229Y1671099D01*
X666327Y1671039D01*
X666411Y1670960D01*
X666859Y1670713D01*
X667296Y1670445D01*
X667406Y1670411D01*
X667507Y1670355D01*
X668004Y1670227D01*
X668493Y1670076D01*
X668608Y1670070D01*
X668720Y1670041D01*
X669356Y1670001D01*
X816077Y1670001D01*
X816192Y1670015D01*
X816306Y1670006D01*
X816811Y1670093D01*
X817320Y1670157D01*
X817427Y1670200D01*
X817540Y1670220D01*
X818007Y1670430D01*
X818484Y1670618D01*
X818578Y1670686D01*
X818683Y1670733D01*
X819083Y1671053D01*
X819498Y1671354D01*
X819571Y1671443D01*
X819661Y1671515D01*
X819969Y1671923D01*
X820296Y1672318D01*
X820345Y1672423D01*
X820415Y1672515D01*
X820696Y1673087D01*
X820753Y1673225D01*
X832287Y1684759D01*
X847356Y1691001D01*
X863667Y1691001D01*
X878737Y1684759D01*
X890271Y1673225D01*
X896512Y1658156D01*
X896512Y1641844D01*
X890271Y1626775D01*
X878737Y1615241D01*
X863667Y1608999D01*
X847356Y1608999D01*
X832287Y1615241D01*
X820753Y1626775D01*
X820696Y1626913D01*
X820639Y1627013D01*
X820603Y1627123D01*
X820330Y1627555D01*
X820076Y1628001D01*
X819995Y1628084D01*
X819934Y1628181D01*
X819561Y1628532D01*
X819204Y1628900D01*
X819106Y1628961D01*
X819022Y1629040D01*
X818574Y1629287D01*
X818137Y1629555D01*
X818027Y1629589D01*
X817926Y1629645D01*
X817429Y1629773D01*
X816940Y1629924D01*
X816825Y1629930D01*
X816713Y1629959D01*
X816077Y1629999D01*
X669356Y1629999D01*
X669241Y1629985D01*
X669126Y1629994D01*
X668622Y1629907D01*
X668113Y1629842D01*
X668006Y1629800D01*
X667892Y1629780D01*
X667426Y1629570D01*
X666949Y1629382D01*
X666855Y1629314D01*
X666750Y1629267D01*
X666350Y1628947D01*
X665935Y1628646D01*
X665862Y1628557D01*
X665772Y1628485D01*
X665464Y1628076D01*
X665137Y1627681D01*
X665087Y1627577D01*
X665018Y1627485D01*
X664737Y1626913D01*
X664680Y1626775D01*
X653146Y1615241D01*
X638077Y1608999D01*
X621766Y1608999D01*
X606696Y1615241D01*
X605456Y1616481D01*
X605024Y1616816D01*
X604603Y1617166D01*
X604530Y1617200D01*
X604467Y1617249D01*
X603965Y1617466D01*
X603470Y1617700D01*
X603391Y1617715D01*
X603318Y1617747D01*
X602776Y1617833D01*
X602240Y1617935D01*
X602160Y1617930D01*
X602081Y1617943D01*
X601537Y1617892D01*
X600990Y1617858D01*
X600913Y1617833D01*
X600834Y1617826D01*
X600320Y1617641D01*
X599798Y1617473D01*
X599731Y1617430D01*
X599655Y1617403D01*
X599203Y1617096D01*
X598740Y1616803D01*
X598685Y1616744D01*
X598619Y1616700D01*
X598257Y1616290D01*
X597881Y1615891D01*
X597843Y1615821D01*
X597790Y1615761D01*
X597541Y1615274D01*
X597276Y1614795D01*
X597256Y1614717D01*
X597220Y1614646D01*
X597100Y1614114D01*
X596962Y1613583D01*
X596955Y1613471D01*
X596945Y1613424D01*
X596947Y1613343D01*
X596922Y1612946D01*
X596922Y1587054D01*
X596990Y1586510D01*
X597042Y1585966D01*
X597069Y1585890D01*
X597079Y1585811D01*
X597280Y1585302D01*
X597465Y1584787D01*
X597510Y1584721D01*
X597539Y1584647D01*
X597861Y1584203D01*
X598168Y1583751D01*
X598228Y1583698D01*
X598275Y1583633D01*
X598697Y1583284D01*
X599107Y1582922D01*
X599178Y1582885D01*
X599240Y1582834D01*
X599735Y1582601D01*
X600222Y1582352D01*
X600300Y1582335D01*
X600372Y1582300D01*
X600910Y1582197D01*
X601444Y1582077D01*
X601524Y1582079D01*
X601602Y1582064D01*
X602148Y1582098D01*
X602695Y1582115D01*
X602772Y1582137D01*
X602852Y1582142D01*
X603373Y1582310D01*
X603899Y1582462D01*
X603968Y1582503D01*
X604044Y1582527D01*
X604506Y1582820D01*
X604978Y1583097D01*
X605061Y1583171D01*
X605102Y1583197D01*
X605158Y1583256D01*
X605456Y1583519D01*
X606696Y1584759D01*
X621766Y1591001D01*
X638077Y1591001D01*
X653146Y1584759D01*
X664680Y1573225D01*
X664737Y1573087D01*
X664794Y1572987D01*
X664830Y1572877D01*
X665103Y1572444D01*
X665357Y1571999D01*
X665438Y1571916D01*
X665499Y1571819D01*
X665872Y1571468D01*
X666229Y1571099D01*
X666327Y1571039D01*
X666411Y1570960D01*
X666859Y1570713D01*
X667296Y1570445D01*
X667406Y1570411D01*
X667507Y1570355D01*
X668004Y1570227D01*
X668493Y1570076D01*
X668608Y1570070D01*
X668720Y1570041D01*
X669356Y1570001D01*
X816077Y1570001D01*
X816192Y1570015D01*
X816306Y1570006D01*
X816811Y1570093D01*
X817320Y1570157D01*
X817427Y1570200D01*
X817540Y1570220D01*
X818007Y1570430D01*
X818484Y1570618D01*
X818578Y1570686D01*
X818683Y1570733D01*
X819083Y1571053D01*
X819498Y1571354D01*
X819571Y1571443D01*
X819661Y1571515D01*
X819969Y1571923D01*
X820296Y1572318D01*
X820345Y1572423D01*
X820415Y1572515D01*
X820696Y1573087D01*
X820753Y1573225D01*
X832287Y1584759D01*
X847356Y1591001D01*
X863667Y1591001D01*
X878737Y1584759D01*
X890271Y1573225D01*
X896512Y1558156D01*
X896512Y1541844D01*
X890271Y1526775D01*
X878737Y1515241D01*
X863667Y1508999D01*
X847356Y1508999D01*
X832287Y1515241D01*
X820753Y1526775D01*
X820696Y1526913D01*
X820639Y1527013D01*
X820603Y1527123D01*
X820330Y1527555D01*
X820076Y1528001D01*
X819995Y1528084D01*
X819934Y1528181D01*
X819561Y1528532D01*
X819204Y1528900D01*
X819106Y1528961D01*
X819022Y1529040D01*
X818574Y1529287D01*
X818137Y1529555D01*
X818027Y1529589D01*
X817926Y1529645D01*
X817429Y1529773D01*
X816940Y1529924D01*
X816825Y1529930D01*
X816713Y1529959D01*
X816077Y1529999D01*
X669356Y1529999D01*
X669241Y1529985D01*
X669126Y1529994D01*
X668622Y1529907D01*
X668113Y1529842D01*
X668006Y1529800D01*
X667892Y1529780D01*
X667426Y1529570D01*
X666949Y1529382D01*
X666855Y1529314D01*
X666750Y1529267D01*
X666350Y1528947D01*
X665935Y1528646D01*
X665862Y1528557D01*
X665772Y1528485D01*
X665464Y1528076D01*
X665137Y1527681D01*
X665087Y1527577D01*
X665018Y1527485D01*
X664737Y1526913D01*
X664680Y1526775D01*
X653146Y1515241D01*
X638077Y1508999D01*
X621766Y1508999D01*
X606696Y1515241D01*
X605456Y1516481D01*
X605024Y1516816D01*
X604603Y1517166D01*
X604530Y1517200D01*
X604467Y1517249D01*
X603965Y1517466D01*
X603470Y1517700D01*
X603391Y1517715D01*
X603318Y1517747D01*
X602776Y1517833D01*
X602240Y1517935D01*
X602160Y1517930D01*
X602081Y1517943D01*
X601537Y1517892D01*
X600990Y1517858D01*
X600913Y1517833D01*
X600834Y1517826D01*
X600320Y1517641D01*
X599798Y1517473D01*
X599731Y1517430D01*
X599655Y1517403D01*
X599203Y1517096D01*
X598740Y1516803D01*
X598685Y1516744D01*
X598619Y1516700D01*
X598257Y1516290D01*
X597881Y1515891D01*
X597843Y1515821D01*
X597790Y1515761D01*
X597541Y1515274D01*
X597276Y1514795D01*
X597256Y1514717D01*
X597220Y1514646D01*
X597100Y1514114D01*
X596962Y1513583D01*
X596955Y1513471D01*
X596945Y1513424D01*
X596947Y1513343D01*
X596922Y1512946D01*
X596922Y1487054D01*
X596990Y1486510D01*
X597042Y1485966D01*
X597069Y1485890D01*
X597079Y1485811D01*
X597280Y1485302D01*
X597465Y1484787D01*
X597510Y1484721D01*
X597539Y1484647D01*
X597861Y1484203D01*
X598168Y1483751D01*
X598228Y1483698D01*
X598275Y1483633D01*
X598697Y1483284D01*
X599107Y1482922D01*
X599178Y1482885D01*
X599240Y1482834D01*
X599735Y1482601D01*
X600222Y1482352D01*
X600300Y1482335D01*
X600372Y1482300D01*
X600910Y1482197D01*
X601444Y1482077D01*
X601524Y1482079D01*
X601602Y1482064D01*
X602148Y1482098D01*
X602695Y1482115D01*
X602772Y1482137D01*
X602852Y1482142D01*
X603373Y1482310D01*
X603899Y1482462D01*
X603968Y1482503D01*
X604044Y1482527D01*
X604506Y1482820D01*
X604978Y1483097D01*
X605061Y1483171D01*
X605102Y1483197D01*
X605158Y1483256D01*
X605456Y1483519D01*
X606696Y1484759D01*
X621766Y1491001D01*
X638077Y1491001D01*
X653146Y1484759D01*
X664680Y1473225D01*
X664737Y1473087D01*
X664794Y1472987D01*
X664830Y1472877D01*
X665103Y1472444D01*
X665357Y1471999D01*
X665438Y1471916D01*
X665499Y1471819D01*
X665872Y1471468D01*
X666229Y1471099D01*
X666327Y1471039D01*
X666411Y1470960D01*
X666859Y1470713D01*
X667296Y1470445D01*
X667406Y1470411D01*
X667507Y1470355D01*
X668004Y1470227D01*
X668493Y1470076D01*
X668608Y1470070D01*
X668720Y1470041D01*
X669356Y1470001D01*
X816077Y1470001D01*
X816192Y1470015D01*
X816306Y1470006D01*
X816811Y1470093D01*
X817320Y1470157D01*
X817427Y1470200D01*
X817540Y1470220D01*
X818007Y1470430D01*
X818484Y1470618D01*
X818578Y1470686D01*
X818683Y1470733D01*
X819083Y1471053D01*
X819498Y1471354D01*
X819571Y1471443D01*
X819661Y1471515D01*
X819969Y1471923D01*
X820296Y1472318D01*
X820345Y1472423D01*
X820415Y1472515D01*
X820696Y1473087D01*
X820753Y1473225D01*
X832287Y1484759D01*
X847356Y1491001D01*
X863667Y1491001D01*
X878737Y1484759D01*
X890271Y1473225D01*
X896512Y1458156D01*
X896512Y1441844D01*
X890271Y1426775D01*
X878737Y1415241D01*
X863667Y1408999D01*
X847356Y1408999D01*
X832287Y1415241D01*
X820753Y1426775D01*
X820696Y1426913D01*
X820639Y1427013D01*
X820603Y1427123D01*
X820330Y1427555D01*
X820076Y1428001D01*
X819995Y1428084D01*
X819934Y1428181D01*
X819561Y1428532D01*
X819204Y1428900D01*
X819106Y1428961D01*
X819022Y1429040D01*
X818574Y1429287D01*
X818137Y1429555D01*
X818027Y1429589D01*
X817926Y1429645D01*
X817429Y1429773D01*
X816940Y1429924D01*
X816825Y1429930D01*
X816713Y1429959D01*
X816077Y1429999D01*
X669356Y1429999D01*
X669241Y1429985D01*
X669126Y1429994D01*
X668622Y1429907D01*
X668113Y1429842D01*
X668006Y1429800D01*
X667892Y1429780D01*
X667426Y1429570D01*
X666949Y1429382D01*
X666855Y1429314D01*
X666750Y1429267D01*
X666350Y1428947D01*
X665935Y1428646D01*
X665862Y1428557D01*
X665772Y1428485D01*
X665464Y1428076D01*
X665137Y1427681D01*
X665087Y1427577D01*
X665018Y1427485D01*
X664737Y1426913D01*
X664680Y1426775D01*
X653146Y1415241D01*
X638077Y1408999D01*
X621766Y1408999D01*
X606696Y1415241D01*
X605456Y1416481D01*
X605024Y1416816D01*
X604603Y1417166D01*
X604530Y1417200D01*
X604467Y1417249D01*
X603965Y1417466D01*
X603470Y1417700D01*
X603391Y1417715D01*
X603318Y1417747D01*
X602776Y1417833D01*
X602240Y1417935D01*
X602160Y1417930D01*
X602081Y1417943D01*
X601537Y1417892D01*
X600990Y1417858D01*
X600913Y1417833D01*
X600834Y1417826D01*
X600320Y1417641D01*
X599798Y1417473D01*
X599731Y1417430D01*
X599655Y1417403D01*
X599203Y1417096D01*
X598740Y1416803D01*
X598685Y1416744D01*
X598619Y1416700D01*
X598257Y1416290D01*
X597881Y1415891D01*
X597843Y1415821D01*
X597790Y1415761D01*
X597541Y1415274D01*
X597276Y1414795D01*
X597256Y1414717D01*
X597220Y1414646D01*
X597100Y1414114D01*
X596962Y1413583D01*
X596955Y1413471D01*
X596945Y1413424D01*
X596947Y1413343D01*
X596922Y1412946D01*
X596922Y1387054D01*
X596990Y1386510D01*
X597042Y1385966D01*
X597069Y1385890D01*
X597079Y1385811D01*
X597280Y1385302D01*
X597465Y1384787D01*
X597510Y1384721D01*
X597539Y1384647D01*
X597861Y1384203D01*
X598168Y1383751D01*
X598228Y1383698D01*
X598275Y1383633D01*
X598697Y1383284D01*
X599107Y1382922D01*
X599178Y1382885D01*
X599240Y1382834D01*
X599735Y1382601D01*
X600222Y1382352D01*
X600300Y1382335D01*
X600372Y1382300D01*
X600910Y1382197D01*
X601444Y1382077D01*
X601524Y1382079D01*
X601602Y1382064D01*
X602148Y1382098D01*
X602695Y1382115D01*
X602772Y1382137D01*
X602852Y1382142D01*
X603373Y1382310D01*
X603899Y1382462D01*
X603968Y1382503D01*
X604044Y1382527D01*
X604506Y1382820D01*
X604978Y1383097D01*
X605061Y1383171D01*
X605102Y1383197D01*
X605158Y1383256D01*
X605456Y1383519D01*
X606696Y1384759D01*
X621766Y1391001D01*
X638077Y1391001D01*
X653146Y1384759D01*
X664680Y1373225D01*
X664737Y1373087D01*
X664794Y1372987D01*
X664830Y1372877D01*
X665103Y1372444D01*
X665357Y1371999D01*
X665438Y1371916D01*
X665499Y1371819D01*
X665872Y1371468D01*
X666229Y1371099D01*
X666327Y1371039D01*
X666411Y1370960D01*
X666859Y1370713D01*
X667296Y1370445D01*
X667406Y1370411D01*
X667507Y1370355D01*
X668004Y1370227D01*
X668493Y1370076D01*
X668608Y1370070D01*
X668720Y1370041D01*
X669356Y1370001D01*
X816077Y1370001D01*
X816192Y1370015D01*
X816306Y1370006D01*
X816811Y1370093D01*
X817320Y1370157D01*
X817427Y1370200D01*
X817540Y1370220D01*
X818007Y1370430D01*
X818484Y1370618D01*
X818578Y1370686D01*
X818683Y1370733D01*
X819083Y1371053D01*
X819498Y1371354D01*
X819571Y1371443D01*
X819661Y1371515D01*
X819969Y1371923D01*
X820296Y1372318D01*
X820345Y1372423D01*
X820415Y1372515D01*
X820696Y1373087D01*
X820753Y1373225D01*
X832287Y1384759D01*
X847356Y1391001D01*
X863667Y1391001D01*
X878737Y1384759D01*
X890271Y1373225D01*
X896512Y1358156D01*
X896512Y1341844D01*
X890271Y1326775D01*
X878737Y1315241D01*
X863667Y1308999D01*
X847356Y1308999D01*
X832287Y1315241D01*
X820753Y1326775D01*
X820696Y1326913D01*
X820639Y1327013D01*
X820603Y1327123D01*
X820330Y1327555D01*
X820076Y1328001D01*
X819995Y1328084D01*
X819934Y1328181D01*
X819561Y1328532D01*
X819204Y1328900D01*
X819106Y1328961D01*
X819022Y1329040D01*
X818574Y1329287D01*
X818137Y1329555D01*
X818027Y1329589D01*
X817926Y1329645D01*
X817429Y1329773D01*
X816940Y1329924D01*
X816825Y1329930D01*
X816713Y1329959D01*
X816077Y1329999D01*
X669356Y1329999D01*
X669241Y1329985D01*
X669126Y1329994D01*
X668622Y1329907D01*
X668113Y1329842D01*
X668006Y1329800D01*
X667892Y1329780D01*
X667426Y1329570D01*
X666949Y1329382D01*
X666855Y1329314D01*
X666750Y1329267D01*
X666350Y1328947D01*
X665935Y1328646D01*
X665862Y1328557D01*
X665772Y1328485D01*
X665464Y1328076D01*
X665137Y1327681D01*
X665087Y1327577D01*
X665018Y1327485D01*
X664737Y1326913D01*
X664680Y1326775D01*
X653146Y1315241D01*
X638077Y1308999D01*
X621766Y1308999D01*
X606696Y1315241D01*
X605456Y1316481D01*
X605024Y1316816D01*
X604603Y1317166D01*
X604530Y1317200D01*
X604467Y1317249D01*
X603965Y1317466D01*
X603470Y1317700D01*
X603391Y1317715D01*
X603318Y1317747D01*
X602776Y1317833D01*
X602240Y1317935D01*
X602160Y1317930D01*
X602081Y1317943D01*
X601537Y1317892D01*
X600990Y1317858D01*
X600913Y1317833D01*
X600834Y1317826D01*
X600320Y1317641D01*
X599798Y1317473D01*
X599731Y1317430D01*
X599655Y1317403D01*
X599203Y1317096D01*
X598740Y1316803D01*
X598685Y1316744D01*
X598619Y1316700D01*
X598257Y1316290D01*
X597881Y1315891D01*
X597843Y1315821D01*
X597790Y1315761D01*
X597541Y1315274D01*
X597276Y1314795D01*
X597256Y1314717D01*
X597220Y1314646D01*
X597100Y1314114D01*
X596962Y1313583D01*
X596955Y1313471D01*
X596945Y1313424D01*
X596947Y1313343D01*
X596922Y1312946D01*
X596922Y1287054D01*
X596990Y1286510D01*
X597042Y1285966D01*
X597069Y1285890D01*
X597079Y1285811D01*
X597280Y1285302D01*
X597465Y1284787D01*
X597510Y1284721D01*
X597539Y1284647D01*
X597861Y1284203D01*
X598168Y1283751D01*
X598228Y1283698D01*
X598275Y1283633D01*
X598697Y1283284D01*
X599107Y1282922D01*
X599178Y1282885D01*
X599240Y1282834D01*
X599735Y1282601D01*
X600222Y1282352D01*
X600300Y1282335D01*
X600372Y1282300D01*
X600910Y1282197D01*
X601444Y1282077D01*
X601524Y1282079D01*
X601602Y1282064D01*
X602148Y1282098D01*
X602695Y1282115D01*
X602772Y1282137D01*
X602852Y1282142D01*
X603373Y1282310D01*
X603899Y1282462D01*
X603968Y1282503D01*
X604044Y1282527D01*
X604506Y1282820D01*
X604978Y1283097D01*
X605061Y1283171D01*
X605102Y1283197D01*
X605158Y1283256D01*
X605456Y1283519D01*
X606696Y1284759D01*
X621766Y1291001D01*
X638077Y1291001D01*
X653146Y1284759D01*
X664680Y1273225D01*
X664737Y1273087D01*
X664794Y1272987D01*
X664830Y1272877D01*
X665103Y1272444D01*
X665357Y1271999D01*
X665438Y1271916D01*
X665499Y1271819D01*
X665872Y1271468D01*
X666229Y1271099D01*
X666327Y1271039D01*
X666411Y1270960D01*
X666859Y1270713D01*
X667296Y1270445D01*
X667406Y1270411D01*
X667507Y1270355D01*
X668004Y1270227D01*
X668493Y1270076D01*
X668608Y1270070D01*
X668720Y1270041D01*
X669356Y1270001D01*
X816077Y1270001D01*
X816192Y1270015D01*
X816306Y1270006D01*
X816811Y1270093D01*
X817320Y1270157D01*
X817427Y1270200D01*
X817540Y1270220D01*
X818007Y1270430D01*
X818484Y1270618D01*
X818578Y1270686D01*
X818683Y1270733D01*
X819083Y1271053D01*
X819498Y1271354D01*
X819571Y1271443D01*
X819661Y1271515D01*
X819969Y1271923D01*
X820296Y1272318D01*
X820345Y1272423D01*
X820415Y1272515D01*
X820696Y1273087D01*
X820753Y1273225D01*
X832287Y1284759D01*
X847356Y1291001D01*
X863667Y1291001D01*
X878737Y1284759D01*
X890271Y1273225D01*
X896512Y1258156D01*
X896512Y1241844D01*
X890271Y1226775D01*
X878737Y1215241D01*
X863667Y1208999D01*
X847356Y1208999D01*
X832287Y1215241D01*
X820753Y1226775D01*
X820696Y1226913D01*
X820639Y1227013D01*
X820603Y1227123D01*
X820330Y1227555D01*
X820076Y1228001D01*
X819995Y1228084D01*
X819934Y1228181D01*
X819561Y1228532D01*
X819204Y1228900D01*
X819106Y1228961D01*
X819022Y1229040D01*
X818574Y1229287D01*
X818137Y1229555D01*
X818027Y1229589D01*
X817926Y1229645D01*
X817429Y1229773D01*
X816940Y1229924D01*
X816825Y1229930D01*
X816713Y1229959D01*
X816077Y1229999D01*
X669356Y1229999D01*
X669241Y1229985D01*
X669126Y1229994D01*
X668622Y1229907D01*
X668113Y1229842D01*
X668006Y1229800D01*
X667892Y1229780D01*
X667426Y1229570D01*
X666949Y1229382D01*
X666855Y1229314D01*
X666750Y1229267D01*
X666350Y1228947D01*
X665935Y1228646D01*
X665862Y1228557D01*
X665772Y1228485D01*
X665464Y1228076D01*
X665137Y1227681D01*
X665087Y1227577D01*
X665018Y1227485D01*
X664737Y1226913D01*
X664680Y1226775D01*
X653146Y1215241D01*
X638077Y1208999D01*
X621766Y1208999D01*
X606696Y1215241D01*
X605456Y1216481D01*
X605024Y1216816D01*
X604603Y1217166D01*
X604530Y1217200D01*
X604467Y1217249D01*
X603965Y1217466D01*
X603470Y1217700D01*
X603391Y1217715D01*
X603318Y1217747D01*
X602776Y1217833D01*
X602240Y1217935D01*
X602160Y1217930D01*
X602081Y1217943D01*
X601537Y1217892D01*
X600990Y1217858D01*
X600913Y1217833D01*
X600834Y1217826D01*
X600320Y1217641D01*
X599798Y1217473D01*
X599731Y1217430D01*
X599655Y1217403D01*
X599203Y1217096D01*
X598740Y1216803D01*
X598685Y1216744D01*
X598619Y1216700D01*
X598257Y1216290D01*
X597881Y1215891D01*
X597843Y1215821D01*
X597790Y1215761D01*
X597541Y1215274D01*
X597276Y1214795D01*
X597256Y1214717D01*
X597220Y1214646D01*
X597100Y1214114D01*
X596962Y1213583D01*
X596955Y1213471D01*
X596945Y1213424D01*
X596947Y1213343D01*
X596922Y1212946D01*
X596922Y1187054D01*
X596990Y1186510D01*
X597042Y1185966D01*
X597069Y1185890D01*
X597079Y1185811D01*
X597280Y1185302D01*
X597465Y1184787D01*
X597510Y1184721D01*
X597539Y1184647D01*
X597861Y1184203D01*
X598168Y1183751D01*
X598228Y1183698D01*
X598275Y1183633D01*
X598697Y1183284D01*
X599107Y1182922D01*
X599178Y1182885D01*
X599240Y1182834D01*
X599735Y1182601D01*
X600222Y1182352D01*
X600300Y1182335D01*
X600372Y1182300D01*
X600910Y1182197D01*
X601444Y1182077D01*
X601524Y1182079D01*
X601602Y1182064D01*
X602148Y1182098D01*
X602695Y1182115D01*
X602772Y1182137D01*
X602852Y1182142D01*
X603373Y1182310D01*
X603899Y1182462D01*
X603968Y1182503D01*
X604044Y1182527D01*
X604506Y1182820D01*
X604978Y1183097D01*
X605061Y1183171D01*
X605102Y1183197D01*
X605158Y1183256D01*
X605456Y1183519D01*
X606696Y1184759D01*
X621766Y1191001D01*
X638077Y1191001D01*
X653146Y1184759D01*
X664680Y1173225D01*
X664737Y1173087D01*
X664794Y1172987D01*
X664830Y1172877D01*
X665103Y1172444D01*
X665357Y1171999D01*
X665438Y1171916D01*
X665499Y1171819D01*
X665872Y1171468D01*
X666229Y1171099D01*
X666327Y1171039D01*
X666411Y1170960D01*
X666859Y1170713D01*
X667296Y1170445D01*
X667406Y1170411D01*
X667507Y1170355D01*
X668004Y1170227D01*
X668493Y1170076D01*
X668608Y1170070D01*
X668720Y1170041D01*
X669356Y1170001D01*
X816077Y1170001D01*
X816192Y1170015D01*
X816306Y1170006D01*
X816811Y1170093D01*
X817320Y1170157D01*
X817427Y1170200D01*
X817540Y1170220D01*
X818007Y1170430D01*
X818484Y1170618D01*
X818578Y1170686D01*
X818683Y1170733D01*
X819083Y1171053D01*
X819498Y1171354D01*
X819571Y1171443D01*
X819661Y1171515D01*
X819969Y1171923D01*
X820296Y1172318D01*
X820345Y1172423D01*
X820415Y1172515D01*
X820696Y1173087D01*
X820753Y1173225D01*
X832287Y1184759D01*
X847356Y1191001D01*
X863667Y1191001D01*
X878737Y1184759D01*
X890271Y1173225D01*
X896512Y1158156D01*
X896512Y1141844D01*
X890271Y1126775D01*
X878737Y1115241D01*
X863667Y1108999D01*
X847356Y1108999D01*
X832287Y1115241D01*
X820753Y1126775D01*
X820696Y1126913D01*
X820673Y1126953D01*
X820671Y1126959D01*
X820657Y1126982D01*
X820639Y1127013D01*
X820603Y1127123D01*
X820330Y1127555D01*
X820076Y1128001D01*
X819995Y1128084D01*
X819934Y1128181D01*
X819561Y1128532D01*
X819204Y1128900D01*
X819106Y1128961D01*
X819022Y1129040D01*
X818574Y1129287D01*
X818137Y1129555D01*
X818027Y1129589D01*
X817926Y1129645D01*
X817429Y1129773D01*
X816940Y1129924D01*
X816825Y1129930D01*
X816713Y1129959D01*
X816077Y1129999D01*
X669356Y1129999D01*
X669241Y1129985D01*
X669126Y1129994D01*
X668622Y1129907D01*
X668113Y1129842D01*
X668006Y1129800D01*
X667892Y1129780D01*
X667426Y1129570D01*
X666949Y1129382D01*
X666855Y1129314D01*
X666750Y1129267D01*
X666350Y1128947D01*
X665935Y1128646D01*
X665862Y1128557D01*
X665772Y1128485D01*
X665464Y1128076D01*
X665137Y1127681D01*
X665087Y1127577D01*
X665018Y1127485D01*
X664737Y1126913D01*
X664680Y1126775D01*
X653146Y1115241D01*
X638077Y1108999D01*
X621766Y1108999D01*
X606696Y1115241D01*
X595162Y1126775D01*
X588921Y1141844D01*
X588921Y1143961D01*
X588852Y1144504D01*
X588801Y1145048D01*
X588774Y1145124D01*
X588764Y1145203D01*
X588562Y1145712D01*
X588377Y1146227D01*
X588332Y1146293D01*
X588303Y1146368D01*
X587981Y1146811D01*
X587674Y1147263D01*
X587614Y1147316D01*
X587567Y1147381D01*
X587146Y1147730D01*
X586736Y1148093D01*
X586664Y1148129D01*
X586603Y1148180D01*
X586109Y1148413D01*
X585621Y1148662D01*
X585542Y1148680D01*
X585470Y1148714D01*
X584933Y1148817D01*
X584399Y1148937D01*
X584319Y1148935D01*
X584240Y1148950D01*
X583695Y1148916D01*
X583147Y1148900D01*
X583070Y1148878D01*
X582990Y1148873D01*
X582470Y1148704D01*
X581944Y1148553D01*
X581875Y1148512D01*
X581798Y1148487D01*
X581335Y1148194D01*
X580865Y1147917D01*
X580781Y1147844D01*
X580740Y1147818D01*
X580684Y1147758D01*
X580386Y1147496D01*
X278685Y845795D01*
X278447Y845488D01*
X278181Y845205D01*
X278065Y844995D01*
X277918Y844805D01*
X277763Y844449D01*
X277575Y844109D01*
X277515Y843876D01*
X277420Y843656D01*
X277359Y843273D01*
X277262Y842896D01*
X277236Y842499D01*
X277224Y842419D01*
X277228Y842371D01*
X277221Y842260D01*
X277221Y841844D01*
X270979Y826775D01*
X259445Y815241D01*
X244376Y808999D01*
X228065Y808999D01*
X212996Y815241D01*
X212702Y815535D01*
X212394Y815773D01*
X212112Y816040D01*
X211902Y816156D01*
X211712Y816303D01*
X211355Y816457D01*
X211015Y816645D01*
X210783Y816705D01*
X210563Y816800D01*
X210179Y816861D01*
X209803Y816959D01*
X209406Y816984D01*
X209326Y816997D01*
X209278Y816992D01*
X209167Y816999D01*
X82566Y816999D01*
X82180Y816951D01*
X81791Y816939D01*
X81561Y816872D01*
X81323Y816842D01*
X80962Y816700D01*
X80588Y816592D01*
X80382Y816470D01*
X80159Y816382D01*
X79844Y816153D01*
X79509Y815956D01*
X79211Y815694D01*
X79145Y815646D01*
X79114Y815609D01*
X79031Y815535D01*
X78737Y815241D01*
X63667Y808999D01*
X47356Y808999D01*
X32287Y815241D01*
X24047Y823481D01*
X23716Y823738D01*
X23522Y823921D01*
X23423Y823976D01*
X23193Y824166D01*
X23121Y824200D01*
X23057Y824249D01*
X22555Y824467D01*
X22060Y824700D01*
X21982Y824715D01*
X21908Y824747D01*
X21367Y824832D01*
X20830Y824935D01*
X20750Y824930D01*
X20671Y824943D01*
X20127Y824892D01*
X19580Y824858D01*
X19504Y824833D01*
X19424Y824826D01*
X18911Y824641D01*
X18389Y824473D01*
X18321Y824430D01*
X18246Y824403D01*
X17795Y824097D01*
X17331Y823803D01*
X17275Y823744D01*
X17209Y823700D01*
X16847Y823290D01*
X16472Y822891D01*
X16433Y822821D01*
X16380Y822761D01*
X16130Y822273D01*
X15867Y821795D01*
X15847Y821717D01*
X15810Y821646D01*
X15764Y821443D01*
X15758Y821430D01*
X15740Y821335D01*
X15690Y821113D01*
X15553Y820583D01*
X15546Y820471D01*
X15535Y820424D01*
X15538Y820343D01*
X15532Y820246D01*
X15523Y820200D01*
X15526Y820152D01*
X15512Y819946D01*
X15512Y780054D01*
X15581Y779510D01*
X15632Y778966D01*
X15659Y778891D01*
X15669Y778811D01*
X15870Y778303D01*
X16055Y777788D01*
X16101Y777721D01*
X16130Y777647D01*
X16452Y777204D01*
X16758Y776751D01*
X16819Y776698D01*
X16866Y776633D01*
X17288Y776284D01*
X17697Y775922D01*
X17768Y775885D01*
X17830Y775834D01*
X18325Y775601D01*
X18812Y775352D01*
X18890Y775334D01*
X18963Y775300D01*
X19500Y775197D01*
X20034Y775077D01*
X20114Y775080D01*
X20193Y775064D01*
X20738Y775098D01*
X21286Y775115D01*
X21363Y775137D01*
X21443Y775142D01*
X21963Y775310D01*
X22489Y775462D01*
X22558Y775503D01*
X22634Y775527D01*
X23097Y775820D01*
X23568Y776097D01*
X23651Y776171D01*
X23693Y776197D01*
X23749Y776257D01*
X24047Y776519D01*
X32287Y784759D01*
X47356Y791001D01*
X63667Y791001D01*
X78737Y784759D01*
X90270Y773225D01*
X90328Y773087D01*
X90385Y772987D01*
X90420Y772877D01*
X90694Y772444D01*
X90948Y771999D01*
X91028Y771916D01*
X91090Y771819D01*
X91462Y771468D01*
X91819Y771099D01*
X91918Y771039D01*
X92001Y770960D01*
X92450Y770713D01*
X92887Y770445D01*
X92997Y770411D01*
X93098Y770355D01*
X93594Y770227D01*
X94083Y770076D01*
X94198Y770070D01*
X94310Y770041D01*
X94946Y770001D01*
X196786Y770001D01*
X196900Y770015D01*
X197015Y770006D01*
X197519Y770093D01*
X198028Y770157D01*
X198136Y770200D01*
X198249Y770220D01*
X198716Y770430D01*
X199193Y770618D01*
X199286Y770686D01*
X199391Y770733D01*
X199791Y771053D01*
X200206Y771354D01*
X200280Y771443D01*
X200370Y771515D01*
X200678Y771923D01*
X201005Y772318D01*
X201054Y772423D01*
X201124Y772515D01*
X201405Y773087D01*
X201462Y773225D01*
X212996Y784759D01*
X228065Y791001D01*
X244376Y791001D01*
X259445Y784759D01*
X270979Y773225D01*
X277221Y758156D01*
X277221Y741844D01*
X270979Y726775D01*
X259445Y715241D01*
X244376Y708999D01*
X228065Y708999D01*
X212996Y715241D01*
X201462Y726775D01*
X201405Y726913D01*
X201369Y726975D01*
X201355Y727018D01*
X201336Y727048D01*
X201312Y727123D01*
X201038Y727555D01*
X200784Y728001D01*
X200704Y728084D01*
X200642Y728181D01*
X200270Y728532D01*
X199913Y728900D01*
X199815Y728961D01*
X199731Y729040D01*
X199283Y729287D01*
X198845Y729555D01*
X198735Y729589D01*
X198634Y729645D01*
X198138Y729773D01*
X197649Y729924D01*
X197534Y729930D01*
X197422Y729959D01*
X196786Y729999D01*
X94946Y729999D01*
X94832Y729985D01*
X94717Y729994D01*
X94213Y729907D01*
X93704Y729842D01*
X93596Y729800D01*
X93483Y729780D01*
X93016Y729570D01*
X92539Y729382D01*
X92446Y729314D01*
X92341Y729267D01*
X91941Y728947D01*
X91526Y728646D01*
X91452Y728557D01*
X91362Y728485D01*
X91054Y728076D01*
X90727Y727681D01*
X90678Y727577D01*
X90609Y727485D01*
X90328Y726913D01*
X90270Y726775D01*
X78737Y715241D01*
X63667Y708999D01*
X47356Y708999D01*
X32287Y715241D01*
X24047Y723481D01*
X23721Y723734D01*
X23507Y723936D01*
X23399Y723995D01*
X23193Y724166D01*
X23121Y724200D01*
X23057Y724249D01*
X22555Y724467D01*
X22488Y724498D01*
X22411Y724541D01*
X22382Y724548D01*
X22060Y724700D01*
X21982Y724715D01*
X21908Y724747D01*
X21367Y724832D01*
X20830Y724935D01*
X20750Y724930D01*
X20671Y724943D01*
X20127Y724892D01*
X19580Y724858D01*
X19504Y724833D01*
X19424Y724826D01*
X18911Y724641D01*
X18389Y724473D01*
X18321Y724430D01*
X18246Y724403D01*
X17795Y724097D01*
X17331Y723803D01*
X17275Y723744D01*
X17209Y723700D01*
X16847Y723290D01*
X16472Y722891D01*
X16433Y722821D01*
X16380Y722761D01*
X16130Y722273D01*
X15867Y721795D01*
X15847Y721717D01*
X15810Y721646D01*
X15771Y721471D01*
X15758Y721445D01*
X15721Y721249D01*
X15690Y721113D01*
X15553Y720583D01*
X15546Y720471D01*
X15535Y720424D01*
X15538Y720343D01*
X15533Y720269D01*
X15523Y720215D01*
X15526Y720160D01*
X15512Y719946D01*
X15512Y680054D01*
X15581Y679510D01*
X15632Y678966D01*
X15659Y678891D01*
X15669Y678811D01*
X15870Y678303D01*
X16055Y677788D01*
X16101Y677721D01*
X16130Y677647D01*
X16452Y677204D01*
X16758Y676751D01*
X16819Y676698D01*
X16866Y676633D01*
X17288Y676284D01*
X17697Y675922D01*
X17768Y675885D01*
X17830Y675834D01*
X18325Y675601D01*
X18812Y675352D01*
X18890Y675334D01*
X18963Y675300D01*
X19500Y675197D01*
X20034Y675077D01*
X20114Y675080D01*
X20193Y675064D01*
X20738Y675098D01*
X21286Y675115D01*
X21363Y675137D01*
X21443Y675142D01*
X21963Y675310D01*
X22489Y675462D01*
X22558Y675503D01*
X22634Y675527D01*
X23097Y675820D01*
X23568Y676097D01*
X23651Y676171D01*
X23693Y676197D01*
X23749Y676257D01*
X24047Y676519D01*
X32287Y684759D01*
X47356Y691001D01*
X63667Y691001D01*
X78737Y684759D01*
X79031Y684465D01*
X79338Y684226D01*
X79621Y683960D01*
X79830Y683844D01*
X80020Y683697D01*
X80377Y683543D01*
X80717Y683355D01*
X80949Y683295D01*
X81169Y683200D01*
X81553Y683139D01*
X81929Y683041D01*
X82326Y683016D01*
X82406Y683003D01*
X82454Y683008D01*
X82566Y683001D01*
X209167Y683001D01*
X209552Y683049D01*
X209941Y683061D01*
X210171Y683127D01*
X210409Y683157D01*
X210770Y683300D01*
X211144Y683408D01*
X211351Y683530D01*
X211574Y683618D01*
X211888Y683846D01*
X212223Y684044D01*
X212522Y684306D01*
X212587Y684354D01*
X212618Y684391D01*
X212702Y684465D01*
X212996Y684759D01*
X228065Y691001D01*
X244376Y691001D01*
X259445Y684759D01*
X270979Y673225D01*
X277221Y658156D01*
X277221Y641844D01*
X270979Y626775D01*
X259445Y615241D01*
X244376Y608999D01*
X228065Y608999D01*
X212996Y615241D01*
X212702Y615535D01*
X212394Y615773D01*
X212112Y616040D01*
X211902Y616156D01*
X211712Y616303D01*
X211355Y616457D01*
X211015Y616645D01*
X210783Y616705D01*
X210563Y616800D01*
X210179Y616861D01*
X209803Y616959D01*
X209406Y616984D01*
X209326Y616997D01*
X209278Y616992D01*
X209167Y616999D01*
X82566Y616999D01*
X82180Y616951D01*
X81791Y616939D01*
X81561Y616872D01*
X81323Y616842D01*
X80962Y616700D01*
X80588Y616592D01*
X80382Y616470D01*
X80159Y616382D01*
X79844Y616153D01*
X79509Y615956D01*
X79211Y615694D01*
X79145Y615646D01*
X79114Y615609D01*
X79031Y615535D01*
X78737Y615241D01*
X63667Y608999D01*
X47356Y608999D01*
X32287Y615241D01*
X24047Y623481D01*
X23727Y623730D01*
X23492Y623950D01*
X23375Y624015D01*
X23193Y624166D01*
X23121Y624200D01*
X23057Y624249D01*
X22565Y624462D01*
X22396Y624555D01*
X22330Y624572D01*
X22060Y624700D01*
X21982Y624715D01*
X21908Y624747D01*
X21367Y624832D01*
X21206Y624864D01*
X21184Y624869D01*
X21172Y624870D01*
X20830Y624935D01*
X20750Y624930D01*
X20671Y624943D01*
X20127Y624892D01*
X19580Y624858D01*
X19504Y624833D01*
X19424Y624826D01*
X18911Y624641D01*
X18389Y624473D01*
X18321Y624430D01*
X18246Y624403D01*
X17795Y624097D01*
X17331Y623803D01*
X17275Y623744D01*
X17209Y623700D01*
X16847Y623290D01*
X16472Y622891D01*
X16433Y622821D01*
X16380Y622761D01*
X16296Y622596D01*
X16292Y622592D01*
X16278Y622561D01*
X16130Y622273D01*
X15867Y621795D01*
X15847Y621717D01*
X15810Y621646D01*
X15777Y621499D01*
X15758Y621459D01*
X15702Y621165D01*
X15690Y621113D01*
X15553Y620583D01*
X15546Y620471D01*
X15535Y620424D01*
X15538Y620343D01*
X15534Y620291D01*
X15523Y620229D01*
X15526Y620167D01*
X15512Y619946D01*
X15512Y100000D01*
X15523Y99914D01*
X15528Y99608D01*
X16574Y86311D01*
X16629Y86046D01*
X16646Y85776D01*
X16804Y85158D01*
X25022Y59866D01*
X25220Y59444D01*
X25391Y59011D01*
X25520Y58807D01*
X25555Y58733D01*
X25606Y58671D01*
X25732Y58472D01*
X41363Y36957D01*
X41440Y36875D01*
X41478Y36815D01*
X41638Y36664D01*
X41682Y36617D01*
X41978Y36258D01*
X42164Y36104D01*
X42220Y36044D01*
X42288Y36001D01*
X42469Y35851D01*
X63984Y20220D01*
X64393Y19995D01*
X64785Y19745D01*
X65010Y19656D01*
X65082Y19617D01*
X65160Y19596D01*
X65378Y19510D01*
X90670Y11292D01*
X90935Y11241D01*
X91192Y11153D01*
X91823Y11063D01*
X105119Y10016D01*
X105206Y10020D01*
X105512Y10001D01*
X344298Y10001D01*
X344684Y10049D01*
G37*
%LPC*%
G36*
X621766Y308999D02*
X621766Y308999D01*
X606696Y315241D01*
X595162Y326775D01*
X588921Y341844D01*
X588921Y358156D01*
X595162Y373225D01*
X606696Y384759D01*
X606834Y384816D01*
X606934Y384873D01*
X607044Y384908D01*
X607477Y385182D01*
X607922Y385436D01*
X608005Y385516D01*
X608102Y385578D01*
X608453Y385951D01*
X608822Y386307D01*
X608882Y386406D01*
X608961Y386490D01*
X609208Y386938D01*
X609477Y387375D01*
X609510Y387485D01*
X609566Y387586D01*
X609695Y388083D01*
X609845Y388572D01*
X609851Y388687D01*
X609880Y388798D01*
X609921Y389435D01*
X609921Y410565D01*
X609906Y410680D01*
X609915Y410795D01*
X609828Y411299D01*
X609764Y411808D01*
X609721Y411915D01*
X609702Y412029D01*
X609492Y412496D01*
X609303Y412972D01*
X609235Y413066D01*
X609188Y413171D01*
X608868Y413571D01*
X608567Y413986D01*
X608478Y414060D01*
X608406Y414149D01*
X607998Y414458D01*
X607603Y414785D01*
X607499Y414834D01*
X607406Y414903D01*
X606834Y415184D01*
X606696Y415241D01*
X595162Y426775D01*
X588921Y441844D01*
X588921Y458156D01*
X595162Y473225D01*
X606696Y484759D01*
X621766Y491001D01*
X638077Y491001D01*
X653146Y484759D01*
X664680Y473225D01*
X670922Y458156D01*
X670922Y441844D01*
X664680Y426775D01*
X653146Y415241D01*
X653008Y415184D01*
X652908Y415127D01*
X652798Y415092D01*
X652366Y414818D01*
X651920Y414564D01*
X651837Y414484D01*
X651740Y414422D01*
X651389Y414049D01*
X651021Y413693D01*
X650960Y413594D01*
X650881Y413510D01*
X650634Y413062D01*
X650366Y412625D01*
X650332Y412515D01*
X650276Y412414D01*
X650148Y411917D01*
X649997Y411428D01*
X649991Y411313D01*
X649962Y411202D01*
X649922Y410565D01*
X649922Y389435D01*
X649936Y389320D01*
X649927Y389205D01*
X650015Y388701D01*
X650079Y388192D01*
X650121Y388085D01*
X650141Y387971D01*
X650351Y387504D01*
X650539Y387028D01*
X650607Y386934D01*
X650655Y386829D01*
X650974Y386429D01*
X651275Y386014D01*
X651364Y385940D01*
X651436Y385851D01*
X651845Y385542D01*
X652240Y385215D01*
X652344Y385166D01*
X652436Y385097D01*
X653008Y384816D01*
X653146Y384759D01*
X664680Y373225D01*
X664737Y373087D01*
X664794Y372987D01*
X664830Y372877D01*
X665103Y372444D01*
X665357Y371999D01*
X665438Y371916D01*
X665499Y371819D01*
X665872Y371468D01*
X666229Y371099D01*
X666327Y371039D01*
X666411Y370960D01*
X666859Y370713D01*
X667296Y370445D01*
X667406Y370411D01*
X667507Y370355D01*
X668004Y370227D01*
X668493Y370076D01*
X668608Y370070D01*
X668720Y370041D01*
X669356Y370001D01*
X816077Y370001D01*
X816192Y370015D01*
X816306Y370006D01*
X816811Y370093D01*
X817320Y370157D01*
X817427Y370200D01*
X817540Y370220D01*
X818007Y370430D01*
X818484Y370618D01*
X818578Y370686D01*
X818683Y370733D01*
X819083Y371053D01*
X819498Y371354D01*
X819571Y371443D01*
X819661Y371515D01*
X819969Y371923D01*
X820296Y372318D01*
X820345Y372423D01*
X820415Y372515D01*
X820696Y373087D01*
X820753Y373225D01*
X832287Y384759D01*
X847356Y391001D01*
X863667Y391001D01*
X878737Y384759D01*
X889661Y373835D01*
X890030Y373548D01*
X890381Y373238D01*
X890524Y373165D01*
X890650Y373067D01*
X891079Y372881D01*
X891496Y372668D01*
X891652Y372633D01*
X891799Y372569D01*
X892261Y372496D01*
X892718Y372393D01*
X892878Y372398D01*
X893036Y372373D01*
X893501Y372417D01*
X893970Y372431D01*
X894124Y372475D01*
X894283Y372490D01*
X894723Y372648D01*
X895173Y372778D01*
X895311Y372859D01*
X895462Y372914D01*
X895849Y373176D01*
X896252Y373414D01*
X896431Y373571D01*
X896498Y373617D01*
X896551Y373677D01*
X896731Y373835D01*
X965031Y442135D01*
X965270Y442443D01*
X965536Y442725D01*
X965652Y442935D01*
X965799Y443125D01*
X965953Y443482D01*
X966141Y443822D01*
X966201Y444054D01*
X966296Y444274D01*
X966357Y444657D01*
X966455Y445034D01*
X966480Y445431D01*
X966493Y445511D01*
X966488Y445559D01*
X966495Y445670D01*
X966495Y689920D01*
X966434Y690404D01*
X966408Y690831D01*
X966386Y690900D01*
X966376Y691008D01*
X966349Y691083D01*
X966338Y691163D01*
X966137Y691672D01*
X966125Y691705D01*
X966022Y692023D01*
X965996Y692064D01*
X965952Y692186D01*
X965907Y692253D01*
X965878Y692327D01*
X965556Y692770D01*
X965457Y692917D01*
X965353Y693081D01*
X965332Y693101D01*
X965249Y693223D01*
X965189Y693276D01*
X965142Y693341D01*
X964721Y693689D01*
X964493Y693891D01*
X964441Y693940D01*
X964432Y693945D01*
X964311Y694052D01*
X964239Y694089D01*
X964178Y694140D01*
X963684Y694372D01*
X963196Y694622D01*
X963117Y694640D01*
X963045Y694674D01*
X962508Y694777D01*
X961974Y694897D01*
X961893Y694894D01*
X961815Y694909D01*
X961574Y694895D01*
X961496Y694899D01*
X961476Y694899D01*
X961305Y694878D01*
X961269Y694876D01*
X960722Y694859D01*
X960645Y694837D01*
X960565Y694832D01*
X960323Y694754D01*
X960233Y694743D01*
X960006Y694653D01*
X959519Y694512D01*
X959450Y694471D01*
X959373Y694447D01*
X959186Y694328D01*
X959069Y694282D01*
X958815Y694098D01*
X958440Y693876D01*
X958356Y693803D01*
X958315Y693777D01*
X958259Y693717D01*
X958105Y693582D01*
X958055Y693546D01*
X958032Y693518D01*
X957961Y693455D01*
X903879Y639374D01*
X897550Y633044D01*
X893811Y631495D01*
X893473Y631303D01*
X893118Y631143D01*
X892931Y630994D01*
X892723Y630875D01*
X892443Y630604D01*
X892140Y630362D01*
X891995Y630170D01*
X891823Y630004D01*
X891620Y629672D01*
X891386Y629362D01*
X891211Y629006D01*
X891168Y628936D01*
X891154Y628889D01*
X891105Y628790D01*
X890271Y626775D01*
X878737Y615241D01*
X863667Y608999D01*
X847356Y608999D01*
X832287Y615241D01*
X820753Y626775D01*
X814511Y641844D01*
X814511Y658156D01*
X820753Y673225D01*
X832287Y684759D01*
X847356Y691001D01*
X863667Y691001D01*
X878737Y684759D01*
X882180Y681315D01*
X882506Y681063D01*
X882719Y680861D01*
X882771Y680833D01*
X882901Y680718D01*
X883043Y680646D01*
X883170Y680547D01*
X883599Y680361D01*
X884016Y680148D01*
X884172Y680113D01*
X884319Y680050D01*
X884781Y679976D01*
X885238Y679874D01*
X885398Y679878D01*
X885556Y679853D01*
X886021Y679897D01*
X886489Y679911D01*
X886643Y679955D01*
X886803Y679970D01*
X887242Y680128D01*
X887693Y680258D01*
X887831Y680340D01*
X887981Y680394D01*
X888157Y680513D01*
X888173Y680519D01*
X888272Y680591D01*
X888368Y680656D01*
X888772Y680894D01*
X888951Y681051D01*
X889018Y681097D01*
X889071Y681157D01*
X889161Y681236D01*
X889187Y681255D01*
X889199Y681270D01*
X889250Y681315D01*
X923417Y715482D01*
X923655Y715789D01*
X923922Y716072D01*
X924038Y716282D01*
X924185Y716471D01*
X924339Y716828D01*
X924527Y717168D01*
X924587Y717400D01*
X924682Y717620D01*
X924743Y718004D01*
X924841Y718381D01*
X924866Y718777D01*
X924879Y718857D01*
X924874Y718905D01*
X924881Y719017D01*
X924881Y1190100D01*
X927926Y1197451D01*
X1064273Y1333798D01*
X1071624Y1336843D01*
X1226801Y1336843D01*
X1234152Y1333798D01*
X1268698Y1299252D01*
X1268790Y1299181D01*
X1268864Y1299094D01*
X1269283Y1298799D01*
X1269688Y1298484D01*
X1269794Y1298438D01*
X1269888Y1298372D01*
X1270367Y1298190D01*
X1270837Y1297987D01*
X1270951Y1297969D01*
X1271059Y1297928D01*
X1271569Y1297870D01*
X1272074Y1297790D01*
X1272189Y1297801D01*
X1272303Y1297788D01*
X1272812Y1297859D01*
X1273321Y1297907D01*
X1273429Y1297946D01*
X1273543Y1297962D01*
X1274147Y1298168D01*
X1290261Y1304843D01*
X1308164Y1304843D01*
X1324703Y1297992D01*
X1337362Y1285333D01*
X1344213Y1268794D01*
X1344213Y1250891D01*
X1337362Y1234352D01*
X1324703Y1221693D01*
X1308164Y1214842D01*
X1290261Y1214842D01*
X1273722Y1221693D01*
X1261063Y1234352D01*
X1254212Y1250891D01*
X1254212Y1255097D01*
X1254163Y1255483D01*
X1254152Y1255872D01*
X1254085Y1256102D01*
X1254055Y1256340D01*
X1253912Y1256701D01*
X1253804Y1257075D01*
X1253682Y1257281D01*
X1253594Y1257504D01*
X1253366Y1257819D01*
X1253169Y1258154D01*
X1252906Y1258452D01*
X1252859Y1258518D01*
X1252821Y1258549D01*
X1252748Y1258633D01*
X1216002Y1295378D01*
X1215695Y1295616D01*
X1215412Y1295882D01*
X1215203Y1295998D01*
X1215013Y1296145D01*
X1214656Y1296300D01*
X1214316Y1296487D01*
X1214084Y1296547D01*
X1213864Y1296643D01*
X1213480Y1296704D01*
X1213104Y1296801D01*
X1212707Y1296827D01*
X1212627Y1296839D01*
X1212579Y1296835D01*
X1212467Y1296842D01*
X1137923Y1296842D01*
X1137380Y1296773D01*
X1136836Y1296722D01*
X1136760Y1296695D01*
X1136680Y1296685D01*
X1136173Y1296484D01*
X1135657Y1296299D01*
X1135590Y1296254D01*
X1135516Y1296224D01*
X1135075Y1295904D01*
X1134620Y1295596D01*
X1134567Y1295535D01*
X1134502Y1295488D01*
X1134154Y1295068D01*
X1133791Y1294657D01*
X1133755Y1294586D01*
X1133704Y1294524D01*
X1133470Y1294029D01*
X1133221Y1293542D01*
X1133204Y1293464D01*
X1133170Y1293391D01*
X1133067Y1292854D01*
X1132947Y1292320D01*
X1132949Y1292240D01*
X1132934Y1292161D01*
X1132968Y1291616D01*
X1132984Y1291068D01*
X1133006Y1290991D01*
X1133011Y1290911D01*
X1133180Y1290390D01*
X1133331Y1289865D01*
X1133372Y1289796D01*
X1133397Y1289720D01*
X1133690Y1289256D01*
X1133967Y1288786D01*
X1134040Y1288703D01*
X1134066Y1288661D01*
X1134126Y1288605D01*
X1134388Y1288307D01*
X1137362Y1285333D01*
X1144213Y1268794D01*
X1144213Y1250891D01*
X1137362Y1234352D01*
X1124703Y1221693D01*
X1121280Y1220275D01*
X1120942Y1220082D01*
X1120587Y1219923D01*
X1120400Y1219773D01*
X1120192Y1219654D01*
X1119913Y1219384D01*
X1119609Y1219141D01*
X1119465Y1218950D01*
X1119292Y1218783D01*
X1119089Y1218452D01*
X1118855Y1218141D01*
X1118680Y1217784D01*
X1118638Y1217716D01*
X1118623Y1217670D01*
X1118574Y1217569D01*
X1116168Y1211761D01*
X1099674Y1195267D01*
X1099339Y1194835D01*
X1098990Y1194414D01*
X1098956Y1194341D01*
X1098907Y1194278D01*
X1098689Y1193775D01*
X1098456Y1193281D01*
X1098441Y1193202D01*
X1098409Y1193128D01*
X1098323Y1192588D01*
X1098220Y1192051D01*
X1098225Y1191971D01*
X1098213Y1191892D01*
X1098264Y1191348D01*
X1098298Y1190801D01*
X1098322Y1190724D01*
X1098330Y1190645D01*
X1098514Y1190131D01*
X1098683Y1189609D01*
X1098726Y1189541D01*
X1098753Y1189466D01*
X1099059Y1189015D01*
X1099353Y1188551D01*
X1099411Y1188496D01*
X1099456Y1188430D01*
X1099866Y1188068D01*
X1100264Y1187692D01*
X1100334Y1187654D01*
X1100395Y1187601D01*
X1100884Y1187351D01*
X1101361Y1187087D01*
X1101438Y1187067D01*
X1101510Y1187031D01*
X1102043Y1186911D01*
X1102573Y1186773D01*
X1102684Y1186766D01*
X1102732Y1186756D01*
X1102813Y1186758D01*
X1103209Y1186733D01*
X1107416Y1186733D01*
X1123955Y1179882D01*
X1136614Y1167223D01*
X1143465Y1150683D01*
X1143465Y1132781D01*
X1136614Y1116242D01*
X1123955Y1103582D01*
X1107416Y1096732D01*
X1089513Y1096732D01*
X1072974Y1103582D01*
X1060315Y1116242D01*
X1053464Y1132781D01*
X1053464Y1136987D01*
X1053395Y1137531D01*
X1053344Y1138075D01*
X1053317Y1138150D01*
X1053307Y1138230D01*
X1053106Y1138739D01*
X1052921Y1139253D01*
X1052876Y1139320D01*
X1052846Y1139394D01*
X1052525Y1139837D01*
X1052218Y1140290D01*
X1052158Y1140343D01*
X1052110Y1140408D01*
X1051690Y1140756D01*
X1051279Y1141119D01*
X1051208Y1141156D01*
X1051146Y1141207D01*
X1050653Y1141439D01*
X1050164Y1141689D01*
X1050086Y1141706D01*
X1050013Y1141741D01*
X1049477Y1141844D01*
X1048942Y1141964D01*
X1048862Y1141961D01*
X1048783Y1141976D01*
X1048238Y1141943D01*
X1047690Y1141926D01*
X1047613Y1141904D01*
X1047533Y1141899D01*
X1047013Y1141731D01*
X1046487Y1141579D01*
X1046418Y1141538D01*
X1046342Y1141514D01*
X1045878Y1141220D01*
X1045408Y1140943D01*
X1045325Y1140870D01*
X1045283Y1140844D01*
X1045227Y1140784D01*
X1044930Y1140522D01*
X1007961Y1103554D01*
X1007722Y1103246D01*
X1007456Y1102964D01*
X1007340Y1102754D01*
X1007193Y1102564D01*
X1007039Y1102207D01*
X1006851Y1101867D01*
X1006791Y1101635D01*
X1006696Y1101415D01*
X1006635Y1101031D01*
X1006537Y1100655D01*
X1006512Y1100258D01*
X1006499Y1100178D01*
X1006504Y1100130D01*
X1006497Y1100019D01*
X1006497Y464565D01*
X1006565Y464022D01*
X1006616Y463478D01*
X1006643Y463402D01*
X1006654Y463323D01*
X1006854Y462815D01*
X1007040Y462299D01*
X1007085Y462233D01*
X1007114Y462158D01*
X1007435Y461716D01*
X1007743Y461263D01*
X1007803Y461210D01*
X1007850Y461145D01*
X1008272Y460795D01*
X1008681Y460434D01*
X1008753Y460397D01*
X1008814Y460346D01*
X1009309Y460113D01*
X1009797Y459864D01*
X1009875Y459846D01*
X1009947Y459812D01*
X1010485Y459709D01*
X1011018Y459589D01*
X1011099Y459591D01*
X1011177Y459576D01*
X1011723Y459610D01*
X1012270Y459626D01*
X1012347Y459648D01*
X1012427Y459653D01*
X1012947Y459822D01*
X1013473Y459974D01*
X1013543Y460014D01*
X1013619Y460039D01*
X1014081Y460332D01*
X1014552Y460609D01*
X1014636Y460682D01*
X1014677Y460709D01*
X1014734Y460768D01*
X1015031Y461030D01*
X1021166Y467166D01*
X1040386Y475127D01*
X1061189Y475127D01*
X1080408Y467166D01*
X1095118Y452455D01*
X1097825Y445921D01*
X1097882Y445821D01*
X1097917Y445712D01*
X1098192Y445278D01*
X1098445Y444834D01*
X1098525Y444751D01*
X1098587Y444653D01*
X1098961Y444301D01*
X1099317Y443934D01*
X1099415Y443874D01*
X1099499Y443795D01*
X1099946Y443548D01*
X1100384Y443279D01*
X1100494Y443245D01*
X1100595Y443190D01*
X1101092Y443061D01*
X1101581Y442910D01*
X1101695Y442905D01*
X1101807Y442876D01*
X1102444Y442835D01*
X1299131Y442835D01*
X1299245Y442850D01*
X1299360Y442841D01*
X1299865Y442928D01*
X1300374Y442992D01*
X1300481Y443034D01*
X1300594Y443054D01*
X1301062Y443264D01*
X1301538Y443453D01*
X1301631Y443521D01*
X1301736Y443568D01*
X1302136Y443887D01*
X1302552Y444189D01*
X1302625Y444277D01*
X1302715Y444349D01*
X1303023Y444758D01*
X1303350Y445153D01*
X1303399Y445257D01*
X1303469Y445349D01*
X1303750Y445921D01*
X1306456Y452455D01*
X1321166Y467166D01*
X1340386Y475127D01*
X1361189Y475127D01*
X1380408Y467166D01*
X1395118Y452455D01*
X1403079Y433236D01*
X1403079Y412433D01*
X1395118Y393214D01*
X1380408Y378503D01*
X1361189Y370543D01*
X1340386Y370543D01*
X1321166Y378503D01*
X1306456Y393214D01*
X1303750Y399748D01*
X1303693Y399848D01*
X1303657Y399957D01*
X1303383Y400392D01*
X1303129Y400836D01*
X1303050Y400918D01*
X1302988Y401016D01*
X1302614Y401368D01*
X1302258Y401735D01*
X1302160Y401795D01*
X1302076Y401874D01*
X1301628Y402122D01*
X1301191Y402390D01*
X1301080Y402424D01*
X1300980Y402480D01*
X1300483Y402608D01*
X1299994Y402759D01*
X1299879Y402764D01*
X1299767Y402793D01*
X1299131Y402834D01*
X1102444Y402834D01*
X1102329Y402820D01*
X1102215Y402829D01*
X1101710Y402741D01*
X1101201Y402677D01*
X1101094Y402635D01*
X1100981Y402615D01*
X1100513Y402405D01*
X1100037Y402216D01*
X1099943Y402148D01*
X1099838Y402101D01*
X1099439Y401782D01*
X1099023Y401481D01*
X1098950Y401392D01*
X1098860Y401320D01*
X1098551Y400911D01*
X1098224Y400516D01*
X1098175Y400412D01*
X1098106Y400320D01*
X1097825Y399748D01*
X1095118Y393214D01*
X1080408Y378503D01*
X1061189Y370543D01*
X1040386Y370543D01*
X1021166Y378503D01*
X1006456Y393214D01*
X999427Y410185D01*
X999330Y410354D01*
X999264Y410538D01*
X999021Y410896D01*
X998806Y411273D01*
X998671Y411413D01*
X998561Y411574D01*
X998237Y411861D01*
X997935Y412172D01*
X997769Y412274D01*
X997623Y412403D01*
X997237Y412600D01*
X996867Y412827D01*
X996681Y412884D01*
X996508Y412973D01*
X996084Y413068D01*
X995671Y413196D01*
X995476Y413205D01*
X995286Y413248D01*
X994852Y413235D01*
X994420Y413256D01*
X994229Y413216D01*
X994034Y413211D01*
X993617Y413090D01*
X993193Y413003D01*
X993018Y412917D01*
X992831Y412863D01*
X992458Y412644D01*
X992068Y412453D01*
X991919Y412327D01*
X991751Y412228D01*
X991273Y411807D01*
X912510Y333044D01*
X905159Y329999D01*
X894946Y329999D01*
X894832Y329985D01*
X894717Y329994D01*
X894213Y329907D01*
X893704Y329842D01*
X893596Y329800D01*
X893483Y329780D01*
X893016Y329570D01*
X892539Y329382D01*
X892446Y329314D01*
X892341Y329267D01*
X891941Y328947D01*
X891526Y328646D01*
X891452Y328557D01*
X891362Y328485D01*
X891054Y328076D01*
X890727Y327681D01*
X890678Y327577D01*
X890609Y327485D01*
X890328Y326913D01*
X890270Y326775D01*
X878737Y315241D01*
X863667Y308999D01*
X847356Y308999D01*
X832287Y315241D01*
X820753Y326775D01*
X820696Y326913D01*
X820648Y326997D01*
X820622Y327077D01*
X820614Y327090D01*
X820603Y327123D01*
X820330Y327555D01*
X820076Y328001D01*
X819995Y328084D01*
X819934Y328181D01*
X819561Y328532D01*
X819204Y328900D01*
X819106Y328961D01*
X819022Y329040D01*
X818574Y329287D01*
X818137Y329555D01*
X818027Y329589D01*
X817926Y329645D01*
X817429Y329773D01*
X816940Y329924D01*
X816825Y329930D01*
X816713Y329959D01*
X816077Y329999D01*
X669356Y329999D01*
X669241Y329985D01*
X669126Y329994D01*
X668622Y329907D01*
X668113Y329842D01*
X668006Y329800D01*
X667892Y329780D01*
X667426Y329570D01*
X666949Y329382D01*
X666855Y329314D01*
X666750Y329267D01*
X666350Y328947D01*
X665935Y328646D01*
X665862Y328557D01*
X665772Y328485D01*
X665464Y328076D01*
X665137Y327681D01*
X665087Y327577D01*
X665018Y327485D01*
X664737Y326913D01*
X664680Y326775D01*
X653146Y315241D01*
X638077Y308999D01*
X621766Y308999D01*
G37*
%LPD*%
%LPC*%
G36*
X621766Y1008999D02*
X621766Y1008999D01*
X606696Y1015241D01*
X595162Y1026775D01*
X588921Y1041844D01*
X588921Y1058156D01*
X595162Y1073225D01*
X606696Y1084759D01*
X621766Y1091001D01*
X638077Y1091001D01*
X653146Y1084759D01*
X664680Y1073225D01*
X664737Y1073087D01*
X664794Y1072987D01*
X664830Y1072877D01*
X665103Y1072444D01*
X665357Y1071999D01*
X665438Y1071916D01*
X665499Y1071819D01*
X665872Y1071468D01*
X666229Y1071099D01*
X666327Y1071039D01*
X666411Y1070960D01*
X666859Y1070713D01*
X667296Y1070445D01*
X667406Y1070411D01*
X667507Y1070355D01*
X668004Y1070227D01*
X668493Y1070076D01*
X668608Y1070070D01*
X668720Y1070041D01*
X669356Y1070001D01*
X816077Y1070001D01*
X816192Y1070015D01*
X816306Y1070006D01*
X816811Y1070093D01*
X817320Y1070157D01*
X817427Y1070200D01*
X817540Y1070220D01*
X818007Y1070430D01*
X818484Y1070618D01*
X818578Y1070686D01*
X818683Y1070733D01*
X819083Y1071053D01*
X819498Y1071354D01*
X819571Y1071443D01*
X819661Y1071515D01*
X819969Y1071923D01*
X820296Y1072318D01*
X820345Y1072423D01*
X820415Y1072515D01*
X820696Y1073087D01*
X820753Y1073225D01*
X832287Y1084759D01*
X847356Y1091001D01*
X863667Y1091001D01*
X878737Y1084759D01*
X890271Y1073225D01*
X896512Y1058156D01*
X896512Y1041844D01*
X890271Y1026775D01*
X878737Y1015241D01*
X863667Y1008999D01*
X847356Y1008999D01*
X832287Y1015241D01*
X820753Y1026775D01*
X820696Y1026913D01*
X820670Y1026959D01*
X820665Y1026974D01*
X820638Y1027017D01*
X820603Y1027123D01*
X820330Y1027555D01*
X820076Y1028001D01*
X819995Y1028084D01*
X819934Y1028181D01*
X819561Y1028532D01*
X819204Y1028900D01*
X819106Y1028961D01*
X819022Y1029040D01*
X818574Y1029287D01*
X818137Y1029555D01*
X818027Y1029589D01*
X817926Y1029645D01*
X817429Y1029773D01*
X816940Y1029924D01*
X816825Y1029930D01*
X816713Y1029959D01*
X816077Y1029999D01*
X669356Y1029999D01*
X669241Y1029985D01*
X669126Y1029994D01*
X668622Y1029907D01*
X668113Y1029842D01*
X668006Y1029800D01*
X667892Y1029780D01*
X667426Y1029570D01*
X666949Y1029382D01*
X666855Y1029314D01*
X666750Y1029267D01*
X666350Y1028947D01*
X665935Y1028646D01*
X665862Y1028557D01*
X665772Y1028485D01*
X665464Y1028076D01*
X665137Y1027681D01*
X665087Y1027577D01*
X665018Y1027485D01*
X664737Y1026913D01*
X664680Y1026775D01*
X653146Y1015241D01*
X638077Y1008999D01*
X621766Y1008999D01*
G37*
%LPD*%
%LPC*%
G36*
X621766Y908999D02*
X621766Y908999D01*
X606696Y915241D01*
X595162Y926775D01*
X588921Y941844D01*
X588921Y958156D01*
X595162Y973225D01*
X606696Y984759D01*
X621766Y991001D01*
X638077Y991001D01*
X653146Y984759D01*
X664680Y973225D01*
X664737Y973087D01*
X664794Y972987D01*
X664830Y972877D01*
X665103Y972444D01*
X665357Y971999D01*
X665438Y971916D01*
X665499Y971819D01*
X665872Y971468D01*
X666229Y971099D01*
X666327Y971039D01*
X666411Y970960D01*
X666859Y970713D01*
X667296Y970445D01*
X667406Y970411D01*
X667507Y970355D01*
X668004Y970227D01*
X668493Y970076D01*
X668608Y970070D01*
X668720Y970041D01*
X669356Y970001D01*
X816077Y970001D01*
X816192Y970015D01*
X816306Y970006D01*
X816811Y970093D01*
X817320Y970157D01*
X817427Y970200D01*
X817540Y970220D01*
X818007Y970430D01*
X818484Y970618D01*
X818578Y970686D01*
X818683Y970733D01*
X819083Y971053D01*
X819498Y971354D01*
X819571Y971443D01*
X819661Y971515D01*
X819969Y971923D01*
X820296Y972318D01*
X820345Y972423D01*
X820415Y972515D01*
X820696Y973087D01*
X820753Y973225D01*
X832287Y984759D01*
X847356Y991001D01*
X863667Y991001D01*
X878737Y984759D01*
X890271Y973225D01*
X896512Y958156D01*
X896512Y941844D01*
X890271Y926775D01*
X878737Y915241D01*
X863667Y908999D01*
X847356Y908999D01*
X832287Y915241D01*
X820753Y926775D01*
X820696Y926913D01*
X820667Y926964D01*
X820659Y926988D01*
X820634Y927027D01*
X820603Y927123D01*
X820330Y927555D01*
X820076Y928001D01*
X819995Y928084D01*
X819934Y928181D01*
X819561Y928532D01*
X819204Y928900D01*
X819106Y928961D01*
X819022Y929040D01*
X818574Y929287D01*
X818137Y929555D01*
X818027Y929589D01*
X817926Y929645D01*
X817429Y929773D01*
X816940Y929924D01*
X816825Y929930D01*
X816713Y929959D01*
X816077Y929999D01*
X669356Y929999D01*
X669241Y929985D01*
X669126Y929994D01*
X668622Y929907D01*
X668113Y929842D01*
X668006Y929800D01*
X667892Y929780D01*
X667426Y929570D01*
X666949Y929382D01*
X666855Y929314D01*
X666750Y929267D01*
X666350Y928947D01*
X665935Y928646D01*
X665862Y928557D01*
X665772Y928485D01*
X665464Y928076D01*
X665137Y927681D01*
X665087Y927577D01*
X665018Y927485D01*
X664737Y926913D01*
X664680Y926775D01*
X653146Y915241D01*
X638077Y908999D01*
X621766Y908999D01*
G37*
%LPD*%
%LPC*%
G36*
X621766Y208999D02*
X621766Y208999D01*
X606696Y215241D01*
X595162Y226775D01*
X588921Y241844D01*
X588921Y258156D01*
X595162Y273225D01*
X606696Y284759D01*
X621766Y291001D01*
X638077Y291001D01*
X653146Y284759D01*
X664680Y273225D01*
X664737Y273087D01*
X664794Y272987D01*
X664830Y272877D01*
X665103Y272444D01*
X665357Y271999D01*
X665438Y271916D01*
X665499Y271819D01*
X665872Y271468D01*
X666229Y271099D01*
X666327Y271039D01*
X666411Y270960D01*
X666859Y270713D01*
X667296Y270445D01*
X667406Y270411D01*
X667507Y270355D01*
X668004Y270227D01*
X668493Y270076D01*
X668608Y270070D01*
X668720Y270041D01*
X669356Y270001D01*
X816077Y270001D01*
X816192Y270015D01*
X816306Y270006D01*
X816811Y270093D01*
X817320Y270157D01*
X817427Y270200D01*
X817540Y270220D01*
X818007Y270430D01*
X818484Y270618D01*
X818578Y270686D01*
X818683Y270733D01*
X819083Y271053D01*
X819498Y271354D01*
X819571Y271443D01*
X819661Y271515D01*
X819969Y271923D01*
X820296Y272318D01*
X820345Y272423D01*
X820415Y272515D01*
X820696Y273087D01*
X820753Y273225D01*
X832287Y284759D01*
X847356Y291001D01*
X863667Y291001D01*
X878737Y284759D01*
X890271Y273225D01*
X896512Y258156D01*
X896512Y241844D01*
X890271Y226775D01*
X878737Y215241D01*
X863667Y208999D01*
X847356Y208999D01*
X832287Y215241D01*
X820753Y226775D01*
X820696Y226913D01*
X820645Y227002D01*
X820616Y227092D01*
X820611Y227101D01*
X820603Y227123D01*
X820330Y227555D01*
X820076Y228001D01*
X819995Y228084D01*
X819934Y228181D01*
X819561Y228532D01*
X819204Y228900D01*
X819106Y228961D01*
X819022Y229040D01*
X818574Y229287D01*
X818137Y229555D01*
X818027Y229589D01*
X817926Y229645D01*
X817429Y229773D01*
X816940Y229924D01*
X816825Y229930D01*
X816713Y229959D01*
X816077Y229999D01*
X669356Y229999D01*
X669241Y229985D01*
X669126Y229994D01*
X668622Y229907D01*
X668113Y229842D01*
X668006Y229800D01*
X667892Y229780D01*
X667426Y229570D01*
X666949Y229382D01*
X666855Y229314D01*
X666750Y229267D01*
X666350Y228947D01*
X665935Y228646D01*
X665862Y228557D01*
X665772Y228485D01*
X665464Y228076D01*
X665137Y227681D01*
X665087Y227577D01*
X665018Y227485D01*
X664737Y226913D01*
X664680Y226775D01*
X653146Y215241D01*
X638077Y208999D01*
X621766Y208999D01*
G37*
%LPD*%
%LPC*%
G36*
X621766Y808999D02*
X621766Y808999D01*
X606696Y815241D01*
X595162Y826775D01*
X588921Y841844D01*
X588921Y858156D01*
X595162Y873225D01*
X606696Y884759D01*
X621766Y891001D01*
X638077Y891001D01*
X653146Y884759D01*
X664680Y873225D01*
X664737Y873087D01*
X664794Y872987D01*
X664830Y872877D01*
X665103Y872444D01*
X665357Y871999D01*
X665438Y871916D01*
X665499Y871819D01*
X665872Y871468D01*
X666229Y871099D01*
X666327Y871039D01*
X666411Y870960D01*
X666859Y870713D01*
X667296Y870445D01*
X667406Y870411D01*
X667507Y870355D01*
X668004Y870227D01*
X668493Y870076D01*
X668608Y870070D01*
X668720Y870041D01*
X669356Y870001D01*
X816077Y870001D01*
X816192Y870015D01*
X816306Y870006D01*
X816811Y870093D01*
X817320Y870157D01*
X817427Y870200D01*
X817540Y870220D01*
X818007Y870430D01*
X818484Y870618D01*
X818578Y870686D01*
X818683Y870733D01*
X819083Y871053D01*
X819498Y871354D01*
X819571Y871443D01*
X819661Y871515D01*
X819969Y871923D01*
X820296Y872318D01*
X820345Y872423D01*
X820415Y872515D01*
X820696Y873087D01*
X820753Y873225D01*
X832287Y884759D01*
X847356Y891001D01*
X863667Y891001D01*
X878737Y884759D01*
X890271Y873225D01*
X896512Y858156D01*
X896512Y841844D01*
X890271Y826775D01*
X878737Y815241D01*
X863667Y808999D01*
X847356Y808999D01*
X832287Y815241D01*
X820753Y826775D01*
X820696Y826913D01*
X820664Y826970D01*
X820653Y827003D01*
X820631Y827038D01*
X820603Y827123D01*
X820330Y827555D01*
X820076Y828001D01*
X819995Y828084D01*
X819934Y828181D01*
X819561Y828532D01*
X819204Y828900D01*
X819106Y828961D01*
X819022Y829040D01*
X818574Y829287D01*
X818137Y829555D01*
X818027Y829589D01*
X817926Y829645D01*
X817429Y829773D01*
X816940Y829924D01*
X816825Y829930D01*
X816713Y829959D01*
X816077Y829999D01*
X669356Y829999D01*
X669241Y829985D01*
X669126Y829994D01*
X668622Y829907D01*
X668113Y829842D01*
X668006Y829800D01*
X667892Y829780D01*
X667426Y829570D01*
X666949Y829382D01*
X666855Y829314D01*
X666750Y829267D01*
X666350Y828947D01*
X665935Y828646D01*
X665862Y828557D01*
X665772Y828485D01*
X665464Y828076D01*
X665137Y827681D01*
X665087Y827577D01*
X665018Y827485D01*
X664737Y826913D01*
X664680Y826775D01*
X653146Y815241D01*
X638077Y808999D01*
X621766Y808999D01*
G37*
%LPD*%
%LPC*%
G36*
X621766Y708999D02*
X621766Y708999D01*
X606696Y715241D01*
X595162Y726775D01*
X588921Y741844D01*
X588921Y758156D01*
X595162Y773225D01*
X606696Y784759D01*
X621766Y791001D01*
X638077Y791001D01*
X653146Y784759D01*
X664680Y773225D01*
X664737Y773087D01*
X664794Y772987D01*
X664830Y772877D01*
X665103Y772444D01*
X665357Y771999D01*
X665438Y771916D01*
X665499Y771819D01*
X665872Y771468D01*
X666229Y771099D01*
X666327Y771039D01*
X666411Y770960D01*
X666859Y770713D01*
X667296Y770445D01*
X667406Y770411D01*
X667507Y770355D01*
X668004Y770227D01*
X668493Y770076D01*
X668608Y770070D01*
X668720Y770041D01*
X669356Y770001D01*
X816077Y770001D01*
X816192Y770015D01*
X816306Y770006D01*
X816811Y770093D01*
X817320Y770157D01*
X817427Y770200D01*
X817540Y770220D01*
X818007Y770430D01*
X818484Y770618D01*
X818578Y770686D01*
X818683Y770733D01*
X819083Y771053D01*
X819498Y771354D01*
X819571Y771443D01*
X819661Y771515D01*
X819969Y771923D01*
X820296Y772318D01*
X820345Y772423D01*
X820415Y772515D01*
X820696Y773087D01*
X820753Y773225D01*
X832287Y784759D01*
X847356Y791001D01*
X863667Y791001D01*
X878737Y784759D01*
X890271Y773225D01*
X896512Y758156D01*
X896512Y741844D01*
X890271Y726775D01*
X878737Y715241D01*
X863667Y708999D01*
X847356Y708999D01*
X832287Y715241D01*
X820753Y726775D01*
X820696Y726913D01*
X820661Y726975D01*
X820647Y727018D01*
X820627Y727048D01*
X820603Y727123D01*
X820330Y727555D01*
X820076Y728001D01*
X819995Y728084D01*
X819934Y728181D01*
X819561Y728532D01*
X819204Y728900D01*
X819106Y728961D01*
X819022Y729040D01*
X818574Y729287D01*
X818137Y729555D01*
X818027Y729589D01*
X817926Y729645D01*
X817429Y729773D01*
X816940Y729924D01*
X816825Y729930D01*
X816713Y729959D01*
X816077Y729999D01*
X669356Y729999D01*
X669241Y729985D01*
X669126Y729994D01*
X668622Y729907D01*
X668113Y729842D01*
X668006Y729800D01*
X667892Y729780D01*
X667426Y729570D01*
X666949Y729382D01*
X666855Y729314D01*
X666750Y729267D01*
X666350Y728947D01*
X665935Y728646D01*
X665862Y728557D01*
X665772Y728485D01*
X665463Y728076D01*
X665137Y727681D01*
X665087Y727577D01*
X665018Y727485D01*
X664737Y726913D01*
X664680Y726775D01*
X653146Y715241D01*
X638077Y708999D01*
X621766Y708999D01*
G37*
%LPD*%
%LPC*%
G36*
X1434232Y1619795D02*
X1434232Y1619795D01*
X1421828Y1624932D01*
X1412334Y1634426D01*
X1407196Y1646830D01*
X1407196Y1660256D01*
X1412334Y1672660D01*
X1420345Y1680671D01*
X1420464Y1680825D01*
X1420609Y1680956D01*
X1420847Y1681318D01*
X1421112Y1681660D01*
X1421190Y1681839D01*
X1421297Y1682002D01*
X1421438Y1682412D01*
X1421610Y1682810D01*
X1421641Y1683002D01*
X1421704Y1683187D01*
X1421738Y1683618D01*
X1421806Y1684047D01*
X1421788Y1684241D01*
X1421804Y1684435D01*
X1421730Y1684862D01*
X1421689Y1685293D01*
X1421623Y1685477D01*
X1421590Y1685669D01*
X1421412Y1686065D01*
X1421266Y1686472D01*
X1421156Y1686633D01*
X1421076Y1686811D01*
X1420806Y1687150D01*
X1420563Y1687508D01*
X1420417Y1687638D01*
X1420295Y1687790D01*
X1419950Y1688050D01*
X1419624Y1688338D01*
X1419451Y1688426D01*
X1419295Y1688544D01*
X1418723Y1688825D01*
X1411324Y1691889D01*
X1396614Y1706600D01*
X1388653Y1725819D01*
X1388653Y1746622D01*
X1396614Y1765841D01*
X1411324Y1780552D01*
X1430543Y1788512D01*
X1451346Y1788512D01*
X1470566Y1780552D01*
X1485276Y1765841D01*
X1493237Y1746622D01*
X1493237Y1725819D01*
X1485276Y1706600D01*
X1470566Y1691889D01*
X1463167Y1688825D01*
X1462997Y1688728D01*
X1462814Y1688662D01*
X1462456Y1688419D01*
X1462079Y1688204D01*
X1461939Y1688068D01*
X1461778Y1687959D01*
X1461491Y1687635D01*
X1461179Y1687333D01*
X1461077Y1687166D01*
X1460948Y1687021D01*
X1460752Y1686636D01*
X1460525Y1686266D01*
X1460467Y1686079D01*
X1460378Y1685905D01*
X1460283Y1685483D01*
X1460156Y1685069D01*
X1460146Y1684874D01*
X1460104Y1684684D01*
X1460117Y1684250D01*
X1460096Y1683818D01*
X1460135Y1683627D01*
X1460141Y1683432D01*
X1460261Y1683015D01*
X1460349Y1682591D01*
X1460434Y1682416D01*
X1460488Y1682229D01*
X1460708Y1681855D01*
X1460898Y1681466D01*
X1461025Y1681318D01*
X1461124Y1681149D01*
X1461545Y1680671D01*
X1469556Y1672660D01*
X1474694Y1660256D01*
X1474694Y1646830D01*
X1469556Y1634426D01*
X1460062Y1624932D01*
X1447658Y1619795D01*
X1434232Y1619795D01*
G37*
%LPD*%
%LPC*%
G36*
X93577Y39999D02*
X93577Y39999D01*
X71524Y49134D01*
X54646Y66012D01*
X45511Y88065D01*
X45511Y111935D01*
X54646Y133987D01*
X71524Y150866D01*
X93577Y160001D01*
X117447Y160001D01*
X139499Y150866D01*
X156378Y133987D01*
X165512Y111935D01*
X165512Y88065D01*
X156378Y66012D01*
X139499Y49134D01*
X117447Y39999D01*
X93577Y39999D01*
G37*
%LPD*%
%LPC*%
G36*
X1432160Y39999D02*
X1432160Y39999D01*
X1410107Y49134D01*
X1393228Y66012D01*
X1384094Y88065D01*
X1384094Y111935D01*
X1393228Y133987D01*
X1410107Y150866D01*
X1432160Y160001D01*
X1456029Y160001D01*
X1478082Y150866D01*
X1494961Y133987D01*
X1504095Y111935D01*
X1504095Y88065D01*
X1494961Y66012D01*
X1478082Y49134D01*
X1456029Y39999D01*
X1432160Y39999D01*
G37*
%LPD*%
%LPC*%
G36*
X1432160Y1839999D02*
X1432160Y1839999D01*
X1410107Y1849134D01*
X1393228Y1866012D01*
X1384094Y1888065D01*
X1384094Y1911935D01*
X1393228Y1933987D01*
X1410107Y1950866D01*
X1432160Y1960001D01*
X1456029Y1960001D01*
X1478082Y1950866D01*
X1494961Y1933987D01*
X1504095Y1911935D01*
X1504095Y1888065D01*
X1494961Y1866012D01*
X1478082Y1849134D01*
X1456029Y1839999D01*
X1432160Y1839999D01*
G37*
%LPD*%
%LPC*%
G36*
X1430543Y1361094D02*
X1430543Y1361094D01*
X1411324Y1369055D01*
X1396614Y1383765D01*
X1388653Y1402984D01*
X1388653Y1423787D01*
X1396614Y1443007D01*
X1411324Y1457717D01*
X1430543Y1465678D01*
X1451346Y1465678D01*
X1470566Y1457717D01*
X1485276Y1443007D01*
X1493237Y1423787D01*
X1493237Y1402984D01*
X1485276Y1383765D01*
X1470566Y1369055D01*
X1451346Y1361094D01*
X1430543Y1361094D01*
G37*
%LPD*%
%LPC*%
G36*
X1289513Y996732D02*
X1289513Y996732D01*
X1272974Y1003582D01*
X1260315Y1016242D01*
X1253464Y1032781D01*
X1253464Y1050683D01*
X1260315Y1067223D01*
X1272974Y1079882D01*
X1289513Y1086733D01*
X1307416Y1086733D01*
X1323955Y1079882D01*
X1336614Y1067223D01*
X1343465Y1050683D01*
X1343465Y1032781D01*
X1336614Y1016242D01*
X1323955Y1003582D01*
X1307416Y996732D01*
X1289513Y996732D01*
G37*
%LPD*%
%LPC*%
G36*
X1189513Y996732D02*
X1189513Y996732D01*
X1172974Y1003582D01*
X1160315Y1016242D01*
X1153464Y1032781D01*
X1153464Y1050683D01*
X1160315Y1067223D01*
X1172974Y1079882D01*
X1189513Y1086733D01*
X1207416Y1086733D01*
X1223955Y1079882D01*
X1236614Y1067223D01*
X1243465Y1050683D01*
X1243465Y1032781D01*
X1236614Y1016242D01*
X1223955Y1003582D01*
X1207416Y996732D01*
X1189513Y996732D01*
G37*
%LPD*%
%LPC*%
G36*
X1089513Y996732D02*
X1089513Y996732D01*
X1072974Y1003582D01*
X1060315Y1016242D01*
X1053464Y1032781D01*
X1053464Y1050683D01*
X1060315Y1067223D01*
X1072974Y1079882D01*
X1089513Y1086733D01*
X1107416Y1086733D01*
X1123955Y1079882D01*
X1136614Y1067223D01*
X1143465Y1050683D01*
X1143465Y1032781D01*
X1136614Y1016242D01*
X1123955Y1003582D01*
X1107416Y996732D01*
X1089513Y996732D01*
G37*
%LPD*%
%LPC*%
G36*
X982781Y1411692D02*
X982781Y1411692D01*
X966242Y1418543D01*
X953582Y1431202D01*
X946732Y1447742D01*
X946732Y1465644D01*
X953582Y1482184D01*
X966242Y1494843D01*
X982781Y1501694D01*
X1000683Y1501694D01*
X1017223Y1494843D01*
X1029882Y1482184D01*
X1036733Y1465644D01*
X1036733Y1447742D01*
X1029882Y1431202D01*
X1017223Y1418543D01*
X1000683Y1411692D01*
X982781Y1411692D01*
G37*
%LPD*%
%LPC*%
G36*
X1089513Y896732D02*
X1089513Y896732D01*
X1072974Y903582D01*
X1060315Y916242D01*
X1053464Y932781D01*
X1053464Y950683D01*
X1060315Y967223D01*
X1072974Y979882D01*
X1089513Y986733D01*
X1107416Y986733D01*
X1123955Y979882D01*
X1136614Y967223D01*
X1143465Y950683D01*
X1143465Y932781D01*
X1136614Y916242D01*
X1123955Y903582D01*
X1107416Y896732D01*
X1089513Y896732D01*
G37*
%LPD*%
%LPC*%
G36*
X1282781Y1411692D02*
X1282781Y1411692D01*
X1266242Y1418543D01*
X1253582Y1431202D01*
X1246732Y1447742D01*
X1246732Y1465644D01*
X1253582Y1482184D01*
X1266242Y1494843D01*
X1282781Y1501694D01*
X1300683Y1501694D01*
X1317223Y1494843D01*
X1329882Y1482184D01*
X1336733Y1465644D01*
X1336733Y1447742D01*
X1329882Y1431202D01*
X1317223Y1418543D01*
X1300683Y1411692D01*
X1282781Y1411692D01*
G37*
%LPD*%
%LPC*%
G36*
X1189513Y896732D02*
X1189513Y896732D01*
X1172974Y903582D01*
X1160315Y916242D01*
X1153464Y932781D01*
X1153464Y950683D01*
X1160315Y967223D01*
X1172974Y979882D01*
X1189513Y986733D01*
X1207416Y986733D01*
X1223955Y979882D01*
X1236614Y967223D01*
X1243465Y950683D01*
X1243465Y932781D01*
X1236614Y916242D01*
X1223955Y903582D01*
X1207416Y896732D01*
X1189513Y896732D01*
G37*
%LPD*%
%LPC*%
G36*
X1289513Y896732D02*
X1289513Y896732D01*
X1272974Y903582D01*
X1260315Y916242D01*
X1253464Y932781D01*
X1253464Y950683D01*
X1260315Y967223D01*
X1272974Y979882D01*
X1289513Y986733D01*
X1307416Y986733D01*
X1323955Y979882D01*
X1336614Y967223D01*
X1343465Y950683D01*
X1343465Y932781D01*
X1336614Y916242D01*
X1323955Y903582D01*
X1307416Y896732D01*
X1289513Y896732D01*
G37*
%LPD*%
%LPC*%
G36*
X1089513Y796732D02*
X1089513Y796732D01*
X1072974Y803582D01*
X1060315Y816242D01*
X1053464Y832781D01*
X1053464Y850683D01*
X1060315Y867223D01*
X1072974Y879882D01*
X1089513Y886733D01*
X1107416Y886733D01*
X1123955Y879882D01*
X1136614Y867223D01*
X1143465Y850683D01*
X1143465Y832781D01*
X1136614Y816242D01*
X1123955Y803582D01*
X1107416Y796732D01*
X1089513Y796732D01*
G37*
%LPD*%
%LPC*%
G36*
X1289513Y796732D02*
X1289513Y796732D01*
X1272974Y803582D01*
X1260315Y816242D01*
X1253464Y832781D01*
X1253464Y850683D01*
X1260315Y867223D01*
X1272974Y879882D01*
X1289513Y886733D01*
X1307416Y886733D01*
X1323955Y879882D01*
X1336614Y867223D01*
X1343465Y850683D01*
X1343465Y832781D01*
X1336614Y816242D01*
X1323955Y803582D01*
X1307416Y796732D01*
X1289513Y796732D01*
G37*
%LPD*%
%LPC*%
G36*
X1189513Y796732D02*
X1189513Y796732D01*
X1172974Y803582D01*
X1160315Y816242D01*
X1153464Y832781D01*
X1153464Y850683D01*
X1160315Y867223D01*
X1172974Y879882D01*
X1189513Y886733D01*
X1207416Y886733D01*
X1223955Y879882D01*
X1236614Y867223D01*
X1243465Y850683D01*
X1243465Y832781D01*
X1236614Y816242D01*
X1223955Y803582D01*
X1207416Y796732D01*
X1189513Y796732D01*
G37*
%LPD*%
%LPC*%
G36*
X1131206Y1545550D02*
X1131206Y1545550D01*
X1114667Y1552401D01*
X1102008Y1565060D01*
X1095157Y1581600D01*
X1095157Y1599502D01*
X1102008Y1616042D01*
X1114667Y1628701D01*
X1131206Y1635552D01*
X1149109Y1635552D01*
X1165648Y1628701D01*
X1178307Y1616042D01*
X1185158Y1599502D01*
X1185158Y1581600D01*
X1178307Y1565060D01*
X1165648Y1552401D01*
X1149109Y1545550D01*
X1131206Y1545550D01*
G37*
%LPD*%
%LPC*%
G36*
X1089513Y696732D02*
X1089513Y696732D01*
X1072974Y703582D01*
X1060315Y716242D01*
X1053464Y732781D01*
X1053464Y750683D01*
X1060315Y767223D01*
X1072974Y779882D01*
X1089513Y786733D01*
X1107416Y786733D01*
X1123955Y779882D01*
X1136614Y767223D01*
X1143465Y750683D01*
X1143465Y732781D01*
X1136614Y716242D01*
X1123955Y703582D01*
X1107416Y696732D01*
X1089513Y696732D01*
G37*
%LPD*%
%LPC*%
G36*
X1289513Y696732D02*
X1289513Y696732D01*
X1272974Y703582D01*
X1260315Y716242D01*
X1253464Y732781D01*
X1253464Y750683D01*
X1260315Y767223D01*
X1272974Y779882D01*
X1289513Y786733D01*
X1307416Y786733D01*
X1323955Y779882D01*
X1336614Y767223D01*
X1343465Y750683D01*
X1343465Y732781D01*
X1336614Y716242D01*
X1323955Y703582D01*
X1307416Y696732D01*
X1289513Y696732D01*
G37*
%LPD*%
%LPC*%
G36*
X1189513Y696732D02*
X1189513Y696732D01*
X1172974Y703582D01*
X1160315Y716242D01*
X1153464Y732781D01*
X1153464Y750683D01*
X1160315Y767223D01*
X1172974Y779882D01*
X1189513Y786733D01*
X1207416Y786733D01*
X1223955Y779882D01*
X1236614Y767223D01*
X1243465Y750683D01*
X1243465Y732781D01*
X1236614Y716242D01*
X1223955Y703582D01*
X1207416Y696732D01*
X1189513Y696732D01*
G37*
%LPD*%
%LPC*%
G36*
X1189513Y1096732D02*
X1189513Y1096732D01*
X1172974Y1103582D01*
X1160315Y1116242D01*
X1153464Y1132781D01*
X1153464Y1150683D01*
X1160315Y1167223D01*
X1172974Y1179882D01*
X1189513Y1186733D01*
X1207416Y1186733D01*
X1223955Y1179882D01*
X1236614Y1167223D01*
X1243465Y1150683D01*
X1243465Y1132781D01*
X1236614Y1116242D01*
X1223955Y1103582D01*
X1207416Y1096732D01*
X1189513Y1096732D01*
G37*
%LPD*%
%LPC*%
G36*
X1289513Y596732D02*
X1289513Y596732D01*
X1272974Y603582D01*
X1260315Y616242D01*
X1253464Y632781D01*
X1253464Y650683D01*
X1260315Y667223D01*
X1272974Y679882D01*
X1289513Y686733D01*
X1307416Y686733D01*
X1323955Y679882D01*
X1336614Y667223D01*
X1343465Y650683D01*
X1343465Y632781D01*
X1336614Y616242D01*
X1323955Y603582D01*
X1307416Y596732D01*
X1289513Y596732D01*
G37*
%LPD*%
%LPC*%
G36*
X1189513Y596732D02*
X1189513Y596732D01*
X1172974Y603582D01*
X1160315Y616242D01*
X1153464Y632781D01*
X1153464Y650683D01*
X1160315Y667223D01*
X1172974Y679882D01*
X1189513Y686733D01*
X1207416Y686733D01*
X1223955Y679882D01*
X1236614Y667223D01*
X1243465Y650683D01*
X1243465Y632781D01*
X1236614Y616242D01*
X1223955Y603582D01*
X1207416Y596732D01*
X1189513Y596732D01*
G37*
%LPD*%
%LPC*%
G36*
X1089513Y596732D02*
X1089513Y596732D01*
X1072974Y603582D01*
X1060315Y616242D01*
X1053464Y632781D01*
X1053464Y650683D01*
X1060315Y667223D01*
X1072974Y679882D01*
X1089513Y686733D01*
X1107416Y686733D01*
X1123955Y679882D01*
X1136614Y667223D01*
X1143465Y650683D01*
X1143465Y632781D01*
X1136614Y616242D01*
X1123955Y603582D01*
X1107416Y596732D01*
X1089513Y596732D01*
G37*
%LPD*%
%LPC*%
G36*
X1289513Y1096732D02*
X1289513Y1096732D01*
X1272974Y1103582D01*
X1260315Y1116242D01*
X1253464Y1132781D01*
X1253464Y1150683D01*
X1260315Y1167223D01*
X1272974Y1179882D01*
X1289513Y1186733D01*
X1307416Y1186733D01*
X1323955Y1179882D01*
X1336614Y1167223D01*
X1343465Y1150683D01*
X1343465Y1132781D01*
X1336614Y1116242D01*
X1323955Y1103582D01*
X1307416Y1096732D01*
X1289513Y1096732D01*
G37*
%LPD*%
%LPC*%
G36*
X847356Y408999D02*
X847356Y408999D01*
X832287Y415241D01*
X820753Y426775D01*
X814511Y441844D01*
X814511Y458156D01*
X820753Y473225D01*
X832287Y484759D01*
X847356Y491001D01*
X863667Y491001D01*
X878737Y484759D01*
X890271Y473225D01*
X896512Y458156D01*
X896512Y441844D01*
X890271Y426775D01*
X878737Y415241D01*
X863667Y408999D01*
X847356Y408999D01*
G37*
%LPD*%
%LPC*%
G36*
X621766Y608999D02*
X621766Y608999D01*
X606696Y615241D01*
X595162Y626775D01*
X588921Y641844D01*
X588921Y658156D01*
X595162Y673225D01*
X606696Y684759D01*
X621766Y691001D01*
X638077Y691001D01*
X653146Y684759D01*
X664680Y673225D01*
X670922Y658156D01*
X670922Y641844D01*
X664680Y626775D01*
X653146Y615241D01*
X638077Y608999D01*
X621766Y608999D01*
G37*
%LPD*%
%LPC*%
G36*
X1434232Y1541054D02*
X1434232Y1541054D01*
X1421828Y1546192D01*
X1412334Y1555686D01*
X1407196Y1568090D01*
X1407196Y1581516D01*
X1412334Y1593920D01*
X1421828Y1603414D01*
X1434232Y1608552D01*
X1447658Y1608552D01*
X1460062Y1603414D01*
X1469556Y1593920D01*
X1474694Y1581516D01*
X1474694Y1568090D01*
X1469556Y1555686D01*
X1460062Y1546192D01*
X1447658Y1541054D01*
X1434232Y1541054D01*
G37*
%LPD*%
D10*
X855512Y1750000D03*
X855512Y1650000D03*
X855512Y1550000D03*
X855512Y1450000D03*
X855512Y1350000D03*
X855512Y1250000D03*
X855512Y1150000D03*
X855512Y1050000D03*
X855512Y950000D03*
X855512Y850000D03*
X855512Y750000D03*
X855512Y650000D03*
X855512Y550000D03*
X855512Y450000D03*
X855512Y350000D03*
X855512Y250000D03*
X55512Y650000D03*
X55512Y750000D03*
X55512Y850000D03*
X55512Y950000D03*
X55512Y1050000D03*
X55512Y1150000D03*
X55512Y1250000D03*
X55512Y1350000D03*
X55512Y1450000D03*
X55512Y1550000D03*
X55512Y1650000D03*
X55512Y1750000D03*
D11*
X1299213Y1259843D03*
X1199213Y1259843D03*
X1099213Y1259843D03*
D12*
X1350787Y222835D03*
X1350787Y422835D03*
X1050787Y422835D03*
X1050787Y222835D03*
D13*
X1240157Y1712598D03*
X1141732Y1712598D03*
X1043307Y1712598D03*
D14*
X1440945Y1496063D03*
X1440945Y1574803D03*
X1440945Y1653543D03*
D12*
X1440945Y1413386D03*
X1440945Y1736220D03*
D11*
X1240157Y1590551D03*
X1140157Y1590551D03*
X1040157Y1590551D03*
X1291732Y1456693D03*
X991732Y1456693D03*
X1298465Y641732D03*
X1298465Y741732D03*
X1298465Y841732D03*
X1298465Y941732D03*
X1298465Y1041732D03*
X1298465Y1141732D03*
X1198465Y641732D03*
X1198465Y741732D03*
X1198465Y841732D03*
X1198465Y941732D03*
X1198465Y1041732D03*
X1198465Y1141732D03*
X1098465Y641732D03*
X1098465Y741732D03*
X1098465Y841732D03*
X1098465Y941732D03*
X1098465Y1041732D03*
X1098465Y1141732D03*
D10*
X629921Y1750000D03*
X629921Y1650000D03*
X629921Y1550000D03*
X629921Y1450000D03*
X629921Y1350000D03*
X629921Y1250000D03*
X629921Y1150000D03*
X629921Y1050000D03*
X629921Y950000D03*
X629921Y850000D03*
X629921Y750000D03*
X629921Y650000D03*
X629921Y550000D03*
X629921Y450000D03*
X629921Y350000D03*
X629921Y250000D03*
X236220Y650000D03*
X236220Y750000D03*
X236220Y850000D03*
X236220Y950000D03*
X236220Y1050000D03*
X236220Y1150000D03*
X236220Y1250000D03*
X236220Y1350000D03*
X236220Y1450000D03*
X236220Y1550000D03*
X236220Y1650000D03*
X236220Y1750000D03*
D15*
X629921Y1350000D02*
X855512Y1350000D01*
X855512Y1450000D02*
X629921Y1450000D01*
X629921Y1250000D02*
X855512Y1250000D01*
X855512Y1150000D02*
X629921Y1150000D01*
X629921Y1050000D02*
X855512Y1050000D01*
X855512Y950000D02*
X629921Y950000D01*
X629921Y850000D02*
X855512Y850000D01*
X855512Y750000D02*
X629921Y750000D01*
X236220Y1150000D02*
X55512Y1150000D01*
X55512Y1050000D02*
X236220Y1050000D01*
X629921Y350000D02*
X826772Y350000D01*
X855512Y350000D01*
X1099213Y1223091D02*
X1099213Y1259843D01*
X1099213Y1223091D02*
X986496Y1110374D01*
X986496Y435315D01*
X901181Y350000D02*
X826772Y350000D01*
X901181Y350000D02*
X986496Y435315D01*
X629921Y450000D02*
X629921Y350000D01*
D16*
X563921Y1777338D02*
X602583Y1816000D01*
X563921Y1177701D02*
X236220Y850000D01*
X1234336Y1712598D02*
X1240157Y1712598D01*
X563921Y1777338D02*
X563921Y1177701D01*
X602583Y1816000D02*
X1130934Y1816000D01*
X1234336Y1712598D01*
X1240157Y1712598D02*
X1240157Y1590551D01*
X236220Y850000D02*
X55512Y850000D01*
X55512Y650000D02*
X236220Y650000D01*
D15*
X236220Y950000D02*
X55512Y950000D01*
X1075602Y1316843D02*
X1222823Y1316843D01*
X1075602Y1316843D02*
X944882Y1186122D01*
X1279823Y1259843D02*
X1299213Y1259843D01*
X1279823Y1259843D02*
X1222823Y1316843D01*
X944882Y1186122D02*
X944882Y708661D01*
X886220Y650000D01*
X855512Y650000D01*
X236220Y1650000D02*
X55512Y1650000D01*
X55512Y1750000D02*
X236220Y1750000D01*
X236220Y1350000D02*
X55512Y1350000D01*
X55512Y1450000D02*
X236220Y1450000D01*
X236220Y1550000D02*
X55512Y1550000D01*
X629921Y1650000D02*
X855512Y1650000D01*
X855512Y1550000D02*
X629921Y1550000D01*
X1050787Y422835D02*
X1350787Y422835D01*
X236220Y1250000D02*
X55512Y1250000D01*
X629921Y250000D02*
X855512Y250000D01*
X236220Y750000D02*
X55512Y750000D01*
X629921Y1750000D02*
X855512Y1750000D01*
M02*
