G04 EAGLE Gerber X2 export*
%TF.Part,Single*%
%TF.FileFunction,Soldermask,Bot*%
%TF.FilePolarity,Negative*%
%TF.GenerationSoftware,Autodesk,EAGLE,9.1.2*%
%TF.CreationDate,2018-08-18T03:54:16Z*%
G75*
%MOIN*%
%FSLAX36Y36*%
%LPD*%
%AMOC8*
5,1,8,0,0,1.08239X$1,22.5*%
G01*
%ADD10C,0.104000*%
%ADD11C,0.070000*%
%ADD12C,0.078000*%
%ADD13C,0.092583*%
%ADD14C,0.068961*%
%ADD15C,0.055496*%


D10*
X105512Y1900000D03*
X1444094Y1900000D03*
X1444094Y100000D03*
X105512Y100000D03*
D11*
X855512Y1750000D03*
X855512Y1650000D03*
X855512Y1550000D03*
X855512Y1450000D03*
X855512Y1350000D03*
X855512Y1250000D03*
X855512Y1150000D03*
X855512Y1050000D03*
X855512Y950000D03*
X855512Y850000D03*
X855512Y750000D03*
X855512Y650000D03*
X855512Y550000D03*
X855512Y450000D03*
X855512Y350000D03*
X855512Y250000D03*
X55512Y650000D03*
X55512Y750000D03*
X55512Y850000D03*
X55512Y950000D03*
X55512Y1050000D03*
X55512Y1150000D03*
X55512Y1250000D03*
X55512Y1350000D03*
X55512Y1450000D03*
X55512Y1550000D03*
X55512Y1650000D03*
X55512Y1750000D03*
D12*
X1299213Y1259843D03*
X1199213Y1259843D03*
X1099213Y1259843D03*
D13*
X1350787Y222835D03*
X1350787Y422835D03*
X1050787Y422835D03*
X1050787Y222835D03*
D14*
X1240157Y1712598D03*
X1141732Y1712598D03*
X1043307Y1712598D03*
D15*
X1440945Y1496063D03*
X1440945Y1574803D03*
X1440945Y1653543D03*
D13*
X1440945Y1413386D03*
X1440945Y1736220D03*
D12*
X1240157Y1590551D03*
X1140157Y1590551D03*
X1040157Y1590551D03*
X1291732Y1456693D03*
X991732Y1456693D03*
X1298465Y641732D03*
X1298465Y741732D03*
X1298465Y841732D03*
X1298465Y941732D03*
X1298465Y1041732D03*
X1298465Y1141732D03*
X1198465Y641732D03*
X1198465Y741732D03*
X1198465Y841732D03*
X1198465Y941732D03*
X1198465Y1041732D03*
X1198465Y1141732D03*
X1098465Y641732D03*
X1098465Y741732D03*
X1098465Y841732D03*
X1098465Y941732D03*
X1098465Y1041732D03*
X1098465Y1141732D03*
D11*
X629921Y1750000D03*
X629921Y1650000D03*
X629921Y1550000D03*
X629921Y1450000D03*
X629921Y1350000D03*
X629921Y1250000D03*
X629921Y1150000D03*
X629921Y1050000D03*
X629921Y950000D03*
X629921Y850000D03*
X629921Y750000D03*
X629921Y650000D03*
X629921Y550000D03*
X629921Y450000D03*
X629921Y350000D03*
X629921Y250000D03*
X236220Y650000D03*
X236220Y750000D03*
X236220Y850000D03*
X236220Y950000D03*
X236220Y1050000D03*
X236220Y1150000D03*
X236220Y1250000D03*
X236220Y1350000D03*
X236220Y1450000D03*
X236220Y1550000D03*
X236220Y1650000D03*
X236220Y1750000D03*
M02*
