G04 EAGLE Gerber X2 export*
%TF.Part,Single*%
%TF.FileFunction,Copper,L2,Bot,Mixed*%
%TF.FilePolarity,Positive*%
%TF.GenerationSoftware,Autodesk,EAGLE,9.1.2*%
%TF.CreationDate,2018-08-18T03:54:16Z*%
G75*
%MOIN*%
%FSLAX36Y36*%
%LPD*%
%AMOC8*
5,1,8,0,0,1.08239X$1,22.5*%
G01*
%ADD10C,0.066000*%
%ADD11C,0.074000*%
%ADD12C,0.088583*%
%ADD13C,0.064961*%
%ADD14C,0.051496*%
%ADD15C,0.024000*%

G36*
X344684Y10049D02*
X344684Y10049D01*
X345073Y10061D01*
X345303Y10127D01*
X345541Y10157D01*
X345902Y10300D01*
X346276Y10408D01*
X346483Y10530D01*
X346705Y10618D01*
X347020Y10846D01*
X347355Y11044D01*
X347653Y11306D01*
X347719Y11354D01*
X347750Y11391D01*
X347834Y11465D01*
X366369Y30001D01*
X539654Y30001D01*
X558190Y11465D01*
X558497Y11226D01*
X558780Y10960D01*
X558990Y10844D01*
X559180Y10697D01*
X559536Y10543D01*
X559876Y10355D01*
X560109Y10295D01*
X560329Y10200D01*
X560712Y10139D01*
X561089Y10041D01*
X561486Y10016D01*
X561566Y10003D01*
X561614Y10008D01*
X561725Y10001D01*
X1435433Y10001D01*
X1435519Y10012D01*
X1435825Y10016D01*
X1449122Y11063D01*
X1449387Y11117D01*
X1449657Y11134D01*
X1450275Y11292D01*
X1475567Y19510D01*
X1475989Y19708D01*
X1476422Y19879D01*
X1476626Y20008D01*
X1476700Y20043D01*
X1476762Y20094D01*
X1476961Y20220D01*
X1498476Y35851D01*
X1498816Y36171D01*
X1499175Y36467D01*
X1499329Y36653D01*
X1499389Y36709D01*
X1499432Y36777D01*
X1499582Y36957D01*
X1515213Y58472D01*
X1515288Y58609D01*
X1515388Y58729D01*
X1515521Y59011D01*
X1515688Y59273D01*
X1515778Y59499D01*
X1515816Y59570D01*
X1515836Y59647D01*
X1515920Y59858D01*
X1515922Y59862D01*
X1515922Y59863D01*
X1515923Y59866D01*
X1517086Y63443D01*
X1517086Y63444D01*
X1517086Y63445D01*
X1521959Y78441D01*
X1521959Y78442D01*
X1523583Y83440D01*
X1523583Y83441D01*
X1523583Y83442D01*
X1524141Y85158D01*
X1524192Y85423D01*
X1524280Y85680D01*
X1524370Y86311D01*
X1525417Y99608D01*
X1525415Y99639D01*
X1525421Y99669D01*
X1525416Y99748D01*
X1525432Y100000D01*
X1525432Y1900000D01*
X1525421Y1900086D01*
X1525417Y1900392D01*
X1524370Y1913689D01*
X1524316Y1913954D01*
X1524299Y1914224D01*
X1524141Y1914842D01*
X1515923Y1940134D01*
X1515725Y1940556D01*
X1515554Y1940989D01*
X1515425Y1941193D01*
X1515390Y1941267D01*
X1515339Y1941329D01*
X1515213Y1941528D01*
X1499582Y1963043D01*
X1499262Y1963383D01*
X1498966Y1963742D01*
X1498780Y1963896D01*
X1498724Y1963956D01*
X1498656Y1963999D01*
X1498476Y1964149D01*
X1476961Y1979780D01*
X1476552Y1980005D01*
X1476160Y1980255D01*
X1475935Y1980344D01*
X1475863Y1980383D01*
X1475785Y1980403D01*
X1475567Y1980490D01*
X1450275Y1988708D01*
X1450009Y1988759D01*
X1449753Y1988847D01*
X1449122Y1988937D01*
X1435825Y1989984D01*
X1435738Y1989980D01*
X1435433Y1989999D01*
X665512Y1989999D01*
X665047Y1989941D01*
X664580Y1989912D01*
X664428Y1989862D01*
X664269Y1989842D01*
X663834Y1989670D01*
X663389Y1989526D01*
X663253Y1989440D01*
X663105Y1989382D01*
X662727Y1989107D01*
X662331Y1988857D01*
X662221Y1988740D01*
X662091Y1988646D01*
X661793Y1988286D01*
X661472Y1987945D01*
X661395Y1987805D01*
X661292Y1987681D01*
X661093Y1987258D01*
X660867Y1986849D01*
X660827Y1986694D01*
X660758Y1986549D01*
X660670Y1986090D01*
X660553Y1985636D01*
X660538Y1985398D01*
X660523Y1985319D01*
X660528Y1985238D01*
X660512Y1985000D01*
X660512Y1845000D01*
X660512Y1844999D01*
X245512Y1844999D01*
X245511Y1845000D01*
X245511Y1985000D01*
X245453Y1985464D01*
X245424Y1985931D01*
X245374Y1986084D01*
X245354Y1986242D01*
X245182Y1986677D01*
X245038Y1987123D01*
X244952Y1987258D01*
X244893Y1987407D01*
X244619Y1987785D01*
X244368Y1988181D01*
X244252Y1988291D01*
X244158Y1988421D01*
X243798Y1988719D01*
X243457Y1989040D01*
X243317Y1989117D01*
X243193Y1989219D01*
X242770Y1989419D01*
X242360Y1989645D01*
X242205Y1989685D01*
X242061Y1989753D01*
X241602Y1989841D01*
X241148Y1989959D01*
X240910Y1989974D01*
X240831Y1989989D01*
X240750Y1989984D01*
X240512Y1989999D01*
X105512Y1989999D01*
X105425Y1989988D01*
X105119Y1989984D01*
X91823Y1988937D01*
X91558Y1988883D01*
X91288Y1988866D01*
X90670Y1988708D01*
X65378Y1980490D01*
X64956Y1980292D01*
X64523Y1980121D01*
X64318Y1979992D01*
X64245Y1979957D01*
X64183Y1979906D01*
X63984Y1979780D01*
X42469Y1964149D01*
X42129Y1963829D01*
X41770Y1963533D01*
X41616Y1963347D01*
X41556Y1963291D01*
X41513Y1963223D01*
X41363Y1963043D01*
X25732Y1941528D01*
X25507Y1941119D01*
X25257Y1940726D01*
X25168Y1940502D01*
X25128Y1940430D01*
X25108Y1940352D01*
X25022Y1940134D01*
X22140Y1931266D01*
X22140Y1931265D01*
X20516Y1926267D01*
X20516Y1926266D01*
X18892Y1921268D01*
X18891Y1921267D01*
X17267Y1916269D01*
X17267Y1916268D01*
X17267Y1916267D01*
X16804Y1914842D01*
X16753Y1914576D01*
X16665Y1914320D01*
X16574Y1913689D01*
X15528Y1900392D01*
X15532Y1900305D01*
X15512Y1900000D01*
X15512Y1780054D01*
X15581Y1779510D01*
X15632Y1778966D01*
X15659Y1778891D01*
X15669Y1778811D01*
X15870Y1778303D01*
X16055Y1777788D01*
X16101Y1777721D01*
X16130Y1777647D01*
X16452Y1777204D01*
X16758Y1776751D01*
X16819Y1776698D01*
X16866Y1776633D01*
X17288Y1776284D01*
X17697Y1775922D01*
X17768Y1775885D01*
X17830Y1775834D01*
X18325Y1775601D01*
X18812Y1775352D01*
X18890Y1775334D01*
X18963Y1775300D01*
X19500Y1775197D01*
X20034Y1775077D01*
X20114Y1775080D01*
X20193Y1775064D01*
X20738Y1775098D01*
X21286Y1775115D01*
X21363Y1775137D01*
X21443Y1775142D01*
X21963Y1775310D01*
X22489Y1775462D01*
X22558Y1775503D01*
X22634Y1775527D01*
X23097Y1775820D01*
X23568Y1776097D01*
X23651Y1776171D01*
X23693Y1776197D01*
X23749Y1776257D01*
X24047Y1776519D01*
X32287Y1784759D01*
X47356Y1791001D01*
X63667Y1791001D01*
X78737Y1784759D01*
X90271Y1773225D01*
X96512Y1758156D01*
X96512Y1741844D01*
X90271Y1726775D01*
X78737Y1715241D01*
X63667Y1708999D01*
X47356Y1708999D01*
X32287Y1715241D01*
X24047Y1723481D01*
X23670Y1723774D01*
X23655Y1723788D01*
X23644Y1723794D01*
X23615Y1723816D01*
X23193Y1724166D01*
X23121Y1724200D01*
X23057Y1724249D01*
X22555Y1724467D01*
X22060Y1724700D01*
X21982Y1724715D01*
X21908Y1724747D01*
X21367Y1724832D01*
X20830Y1724935D01*
X20750Y1724930D01*
X20671Y1724943D01*
X20127Y1724892D01*
X19580Y1724858D01*
X19504Y1724833D01*
X19424Y1724826D01*
X18911Y1724641D01*
X18389Y1724473D01*
X18321Y1724430D01*
X18246Y1724403D01*
X17795Y1724097D01*
X17331Y1723803D01*
X17275Y1723744D01*
X17209Y1723700D01*
X16847Y1723290D01*
X16472Y1722891D01*
X16433Y1722821D01*
X16380Y1722761D01*
X16130Y1722273D01*
X15867Y1721795D01*
X15847Y1721717D01*
X15810Y1721646D01*
X15690Y1721113D01*
X15553Y1720583D01*
X15546Y1720471D01*
X15535Y1720424D01*
X15538Y1720343D01*
X15512Y1719946D01*
X15512Y1680054D01*
X15581Y1679510D01*
X15632Y1678966D01*
X15659Y1678891D01*
X15669Y1678811D01*
X15870Y1678303D01*
X16055Y1677788D01*
X16101Y1677721D01*
X16130Y1677647D01*
X16452Y1677204D01*
X16758Y1676751D01*
X16819Y1676698D01*
X16866Y1676633D01*
X17288Y1676284D01*
X17697Y1675922D01*
X17768Y1675885D01*
X17830Y1675834D01*
X18325Y1675601D01*
X18812Y1675352D01*
X18890Y1675334D01*
X18963Y1675300D01*
X19500Y1675197D01*
X20034Y1675077D01*
X20114Y1675080D01*
X20193Y1675064D01*
X20738Y1675098D01*
X21286Y1675115D01*
X21363Y1675137D01*
X21443Y1675142D01*
X21963Y1675310D01*
X22489Y1675462D01*
X22558Y1675503D01*
X22634Y1675527D01*
X23097Y1675820D01*
X23568Y1676097D01*
X23651Y1676171D01*
X23693Y1676197D01*
X23749Y1676257D01*
X24047Y1676519D01*
X32287Y1684759D01*
X47356Y1691001D01*
X63667Y1691001D01*
X78737Y1684759D01*
X90271Y1673225D01*
X96512Y1658156D01*
X96512Y1641844D01*
X90271Y1626775D01*
X78737Y1615241D01*
X63667Y1608999D01*
X47356Y1608999D01*
X32287Y1615241D01*
X24047Y1623481D01*
X23675Y1623770D01*
X23640Y1623803D01*
X23614Y1623817D01*
X23193Y1624166D01*
X23121Y1624200D01*
X23057Y1624249D01*
X22555Y1624467D01*
X22060Y1624700D01*
X21982Y1624715D01*
X21908Y1624747D01*
X21367Y1624832D01*
X20830Y1624935D01*
X20750Y1624930D01*
X20671Y1624943D01*
X20127Y1624892D01*
X19580Y1624858D01*
X19504Y1624833D01*
X19424Y1624826D01*
X18911Y1624641D01*
X18389Y1624473D01*
X18321Y1624430D01*
X18246Y1624403D01*
X17795Y1624097D01*
X17331Y1623803D01*
X17275Y1623744D01*
X17209Y1623700D01*
X16847Y1623290D01*
X16472Y1622891D01*
X16433Y1622821D01*
X16380Y1622761D01*
X16130Y1622273D01*
X15867Y1621795D01*
X15847Y1621717D01*
X15810Y1621646D01*
X15690Y1621113D01*
X15553Y1620583D01*
X15546Y1620471D01*
X15535Y1620424D01*
X15538Y1620343D01*
X15512Y1619946D01*
X15512Y1580054D01*
X15581Y1579510D01*
X15632Y1578966D01*
X15659Y1578891D01*
X15669Y1578811D01*
X15870Y1578303D01*
X16055Y1577788D01*
X16101Y1577721D01*
X16130Y1577647D01*
X16452Y1577204D01*
X16758Y1576751D01*
X16819Y1576698D01*
X16866Y1576633D01*
X17288Y1576284D01*
X17697Y1575922D01*
X17768Y1575885D01*
X17830Y1575834D01*
X18325Y1575601D01*
X18812Y1575352D01*
X18890Y1575334D01*
X18963Y1575300D01*
X19500Y1575197D01*
X20034Y1575077D01*
X20114Y1575080D01*
X20193Y1575064D01*
X20738Y1575098D01*
X21286Y1575115D01*
X21363Y1575137D01*
X21443Y1575142D01*
X21963Y1575310D01*
X22489Y1575462D01*
X22558Y1575503D01*
X22634Y1575527D01*
X23097Y1575820D01*
X23568Y1576097D01*
X23651Y1576171D01*
X23693Y1576197D01*
X23749Y1576257D01*
X24047Y1576519D01*
X32287Y1584759D01*
X47356Y1591001D01*
X63667Y1591001D01*
X78737Y1584759D01*
X90271Y1573225D01*
X96512Y1558156D01*
X96512Y1541844D01*
X90271Y1526775D01*
X78737Y1515241D01*
X63667Y1508999D01*
X47356Y1508999D01*
X32287Y1515241D01*
X24047Y1523481D01*
X23680Y1523766D01*
X23625Y1523817D01*
X23590Y1523837D01*
X23193Y1524166D01*
X23121Y1524200D01*
X23057Y1524249D01*
X22555Y1524467D01*
X22060Y1524700D01*
X21982Y1524715D01*
X21908Y1524747D01*
X21367Y1524832D01*
X20830Y1524935D01*
X20750Y1524930D01*
X20671Y1524943D01*
X20127Y1524892D01*
X19580Y1524858D01*
X19504Y1524833D01*
X19424Y1524826D01*
X18911Y1524641D01*
X18389Y1524473D01*
X18321Y1524430D01*
X18246Y1524403D01*
X17795Y1524097D01*
X17331Y1523803D01*
X17275Y1523744D01*
X17209Y1523700D01*
X16847Y1523290D01*
X16472Y1522891D01*
X16433Y1522821D01*
X16380Y1522761D01*
X16130Y1522273D01*
X15867Y1521795D01*
X15847Y1521717D01*
X15810Y1521646D01*
X15690Y1521113D01*
X15553Y1520583D01*
X15546Y1520471D01*
X15535Y1520424D01*
X15538Y1520343D01*
X15512Y1519946D01*
X15512Y1480054D01*
X15581Y1479510D01*
X15632Y1478966D01*
X15659Y1478891D01*
X15669Y1478811D01*
X15870Y1478303D01*
X16055Y1477788D01*
X16101Y1477721D01*
X16130Y1477647D01*
X16452Y1477204D01*
X16758Y1476751D01*
X16819Y1476698D01*
X16866Y1476633D01*
X17288Y1476284D01*
X17697Y1475922D01*
X17768Y1475885D01*
X17830Y1475834D01*
X18325Y1475601D01*
X18812Y1475352D01*
X18890Y1475334D01*
X18963Y1475300D01*
X19500Y1475197D01*
X20034Y1475077D01*
X20114Y1475080D01*
X20193Y1475064D01*
X20738Y1475098D01*
X21286Y1475115D01*
X21363Y1475137D01*
X21443Y1475142D01*
X21963Y1475310D01*
X22489Y1475462D01*
X22558Y1475503D01*
X22634Y1475527D01*
X23097Y1475820D01*
X23568Y1476097D01*
X23651Y1476171D01*
X23693Y1476197D01*
X23749Y1476257D01*
X24047Y1476519D01*
X32287Y1484759D01*
X47356Y1491001D01*
X63667Y1491001D01*
X78737Y1484759D01*
X90271Y1473225D01*
X96512Y1458156D01*
X96512Y1441844D01*
X90271Y1426775D01*
X78737Y1415241D01*
X63667Y1408999D01*
X47356Y1408999D01*
X32287Y1415241D01*
X24047Y1423481D01*
X23685Y1423762D01*
X23610Y1423832D01*
X23566Y1423857D01*
X23193Y1424166D01*
X23121Y1424200D01*
X23057Y1424249D01*
X22555Y1424467D01*
X22060Y1424700D01*
X21982Y1424715D01*
X21908Y1424747D01*
X21367Y1424832D01*
X20830Y1424935D01*
X20750Y1424930D01*
X20671Y1424943D01*
X20127Y1424892D01*
X19580Y1424858D01*
X19504Y1424833D01*
X19424Y1424826D01*
X18911Y1424641D01*
X18389Y1424473D01*
X18321Y1424430D01*
X18246Y1424403D01*
X17795Y1424097D01*
X17331Y1423803D01*
X17275Y1423744D01*
X17209Y1423700D01*
X16847Y1423290D01*
X16472Y1422891D01*
X16433Y1422821D01*
X16380Y1422761D01*
X16130Y1422273D01*
X15867Y1421795D01*
X15847Y1421717D01*
X15810Y1421646D01*
X15690Y1421113D01*
X15553Y1420583D01*
X15546Y1420471D01*
X15535Y1420424D01*
X15538Y1420343D01*
X15523Y1420114D01*
X15523Y1420111D01*
X15523Y1420109D01*
X15512Y1419946D01*
X15512Y1380054D01*
X15581Y1379510D01*
X15632Y1378966D01*
X15659Y1378891D01*
X15669Y1378811D01*
X15870Y1378303D01*
X16055Y1377788D01*
X16101Y1377721D01*
X16130Y1377647D01*
X16452Y1377204D01*
X16758Y1376751D01*
X16819Y1376698D01*
X16866Y1376633D01*
X17288Y1376284D01*
X17697Y1375922D01*
X17768Y1375885D01*
X17830Y1375834D01*
X18325Y1375601D01*
X18812Y1375352D01*
X18890Y1375334D01*
X18963Y1375300D01*
X19500Y1375197D01*
X20034Y1375077D01*
X20114Y1375080D01*
X20193Y1375064D01*
X20738Y1375098D01*
X21286Y1375115D01*
X21363Y1375137D01*
X21443Y1375142D01*
X21963Y1375310D01*
X22489Y1375462D01*
X22558Y1375503D01*
X22634Y1375527D01*
X23097Y1375820D01*
X23568Y1376097D01*
X23651Y1376171D01*
X23693Y1376197D01*
X23749Y1376257D01*
X24047Y1376519D01*
X32287Y1384759D01*
X47356Y1391001D01*
X63667Y1391001D01*
X78737Y1384759D01*
X90271Y1373225D01*
X96512Y1358156D01*
X96512Y1341844D01*
X90271Y1326775D01*
X78737Y1315241D01*
X63667Y1308999D01*
X47356Y1308999D01*
X32287Y1315241D01*
X24047Y1323481D01*
X23690Y1323758D01*
X23596Y1323847D01*
X23542Y1323876D01*
X23193Y1324166D01*
X23121Y1324200D01*
X23057Y1324249D01*
X22555Y1324467D01*
X22060Y1324700D01*
X21982Y1324715D01*
X21908Y1324747D01*
X21367Y1324832D01*
X20830Y1324935D01*
X20750Y1324930D01*
X20671Y1324943D01*
X20127Y1324892D01*
X19580Y1324858D01*
X19504Y1324833D01*
X19424Y1324826D01*
X18911Y1324641D01*
X18389Y1324473D01*
X18321Y1324430D01*
X18246Y1324403D01*
X17795Y1324097D01*
X17331Y1323803D01*
X17275Y1323744D01*
X17209Y1323700D01*
X16847Y1323290D01*
X16472Y1322891D01*
X16433Y1322821D01*
X16380Y1322761D01*
X16130Y1322273D01*
X15867Y1321795D01*
X15847Y1321717D01*
X15810Y1321646D01*
X15690Y1321113D01*
X15553Y1320583D01*
X15546Y1320471D01*
X15535Y1320424D01*
X15538Y1320343D01*
X15524Y1320136D01*
X15523Y1320126D01*
X15523Y1320116D01*
X15512Y1319946D01*
X15512Y1280054D01*
X15581Y1279510D01*
X15632Y1278966D01*
X15659Y1278891D01*
X15669Y1278811D01*
X15870Y1278303D01*
X16055Y1277788D01*
X16101Y1277721D01*
X16130Y1277647D01*
X16452Y1277204D01*
X16758Y1276751D01*
X16819Y1276698D01*
X16866Y1276633D01*
X17288Y1276284D01*
X17697Y1275922D01*
X17768Y1275885D01*
X17830Y1275834D01*
X18325Y1275601D01*
X18812Y1275352D01*
X18890Y1275334D01*
X18963Y1275300D01*
X19500Y1275197D01*
X20034Y1275077D01*
X20114Y1275080D01*
X20193Y1275064D01*
X20738Y1275098D01*
X21286Y1275115D01*
X21363Y1275137D01*
X21443Y1275142D01*
X21963Y1275310D01*
X22489Y1275462D01*
X22558Y1275503D01*
X22634Y1275527D01*
X23097Y1275820D01*
X23568Y1276097D01*
X23651Y1276171D01*
X23693Y1276197D01*
X23749Y1276257D01*
X24047Y1276519D01*
X32287Y1284759D01*
X47356Y1291001D01*
X63667Y1291001D01*
X78737Y1284759D01*
X90271Y1273225D01*
X96512Y1258156D01*
X96512Y1241844D01*
X90271Y1226775D01*
X78737Y1215241D01*
X63667Y1208999D01*
X47356Y1208999D01*
X32287Y1215241D01*
X24047Y1223481D01*
X23696Y1223754D01*
X23581Y1223862D01*
X23518Y1223896D01*
X23193Y1224166D01*
X23121Y1224200D01*
X23057Y1224249D01*
X22555Y1224467D01*
X22060Y1224700D01*
X21982Y1224715D01*
X21908Y1224747D01*
X21367Y1224832D01*
X20830Y1224935D01*
X20750Y1224930D01*
X20671Y1224943D01*
X20127Y1224892D01*
X19580Y1224858D01*
X19504Y1224833D01*
X19424Y1224826D01*
X18911Y1224641D01*
X18389Y1224473D01*
X18321Y1224430D01*
X18246Y1224403D01*
X17795Y1224097D01*
X17331Y1223803D01*
X17275Y1223744D01*
X17209Y1223700D01*
X16847Y1223290D01*
X16472Y1222891D01*
X16433Y1222821D01*
X16380Y1222761D01*
X16130Y1222273D01*
X15867Y1221795D01*
X15847Y1221717D01*
X15810Y1221646D01*
X15690Y1221113D01*
X15553Y1220583D01*
X15546Y1220471D01*
X15535Y1220424D01*
X15538Y1220343D01*
X15526Y1220158D01*
X15523Y1220141D01*
X15524Y1220123D01*
X15512Y1219946D01*
X15512Y1180054D01*
X15581Y1179510D01*
X15632Y1178966D01*
X15659Y1178891D01*
X15669Y1178811D01*
X15870Y1178303D01*
X16055Y1177788D01*
X16101Y1177721D01*
X16130Y1177647D01*
X16452Y1177204D01*
X16758Y1176751D01*
X16819Y1176698D01*
X16866Y1176633D01*
X17288Y1176284D01*
X17697Y1175922D01*
X17768Y1175885D01*
X17830Y1175834D01*
X18325Y1175601D01*
X18812Y1175352D01*
X18890Y1175334D01*
X18963Y1175300D01*
X19500Y1175197D01*
X20034Y1175077D01*
X20114Y1175080D01*
X20193Y1175064D01*
X20738Y1175098D01*
X21286Y1175115D01*
X21363Y1175137D01*
X21443Y1175142D01*
X21963Y1175310D01*
X22489Y1175462D01*
X22558Y1175503D01*
X22634Y1175527D01*
X23097Y1175820D01*
X23568Y1176097D01*
X23651Y1176171D01*
X23693Y1176197D01*
X23749Y1176257D01*
X24047Y1176519D01*
X32287Y1184759D01*
X47356Y1191001D01*
X63667Y1191001D01*
X78737Y1184759D01*
X90271Y1173225D01*
X96512Y1158156D01*
X96512Y1141844D01*
X90271Y1126775D01*
X78737Y1115241D01*
X63667Y1108999D01*
X47356Y1108999D01*
X32287Y1115241D01*
X24047Y1123481D01*
X23701Y1123750D01*
X23566Y1123876D01*
X23494Y1123916D01*
X23193Y1124166D01*
X23121Y1124200D01*
X23057Y1124249D01*
X22555Y1124467D01*
X22060Y1124700D01*
X21982Y1124715D01*
X21908Y1124747D01*
X21367Y1124832D01*
X20830Y1124935D01*
X20750Y1124930D01*
X20671Y1124943D01*
X20127Y1124892D01*
X19580Y1124858D01*
X19504Y1124833D01*
X19424Y1124826D01*
X18911Y1124641D01*
X18389Y1124473D01*
X18321Y1124430D01*
X18246Y1124403D01*
X17795Y1124097D01*
X17331Y1123803D01*
X17275Y1123744D01*
X17209Y1123700D01*
X16847Y1123290D01*
X16472Y1122891D01*
X16433Y1122821D01*
X16380Y1122761D01*
X16130Y1122273D01*
X15867Y1121795D01*
X15847Y1121717D01*
X15810Y1121646D01*
X15690Y1121113D01*
X15553Y1120583D01*
X15546Y1120471D01*
X15535Y1120424D01*
X15538Y1120343D01*
X15527Y1120180D01*
X15523Y1120156D01*
X15524Y1120131D01*
X15512Y1119946D01*
X15512Y1080054D01*
X15581Y1079510D01*
X15632Y1078966D01*
X15659Y1078891D01*
X15669Y1078811D01*
X15870Y1078303D01*
X16055Y1077788D01*
X16101Y1077721D01*
X16130Y1077647D01*
X16452Y1077204D01*
X16758Y1076751D01*
X16819Y1076698D01*
X16866Y1076633D01*
X17288Y1076284D01*
X17697Y1075922D01*
X17768Y1075885D01*
X17830Y1075834D01*
X18325Y1075601D01*
X18812Y1075352D01*
X18890Y1075334D01*
X18963Y1075300D01*
X19500Y1075197D01*
X20034Y1075077D01*
X20114Y1075080D01*
X20193Y1075064D01*
X20738Y1075098D01*
X21286Y1075115D01*
X21363Y1075137D01*
X21443Y1075142D01*
X21963Y1075310D01*
X22489Y1075462D01*
X22558Y1075503D01*
X22634Y1075527D01*
X23097Y1075820D01*
X23568Y1076097D01*
X23651Y1076171D01*
X23693Y1076197D01*
X23749Y1076257D01*
X24047Y1076519D01*
X32287Y1084759D01*
X47356Y1091001D01*
X63667Y1091001D01*
X78737Y1084759D01*
X90271Y1073225D01*
X96512Y1058156D01*
X96512Y1041844D01*
X90271Y1026775D01*
X78737Y1015241D01*
X63667Y1008999D01*
X47356Y1008999D01*
X32287Y1015241D01*
X24047Y1023481D01*
X23706Y1023746D01*
X23551Y1023891D01*
X23470Y1023936D01*
X23193Y1024166D01*
X23121Y1024200D01*
X23057Y1024249D01*
X22555Y1024467D01*
X22060Y1024700D01*
X21982Y1024715D01*
X21908Y1024747D01*
X21367Y1024832D01*
X20830Y1024935D01*
X20750Y1024930D01*
X20671Y1024943D01*
X20127Y1024892D01*
X19580Y1024858D01*
X19504Y1024833D01*
X19424Y1024826D01*
X18911Y1024641D01*
X18389Y1024473D01*
X18321Y1024430D01*
X18246Y1024403D01*
X17795Y1024097D01*
X17331Y1023803D01*
X17275Y1023744D01*
X17209Y1023700D01*
X16847Y1023290D01*
X16472Y1022891D01*
X16433Y1022821D01*
X16380Y1022761D01*
X16130Y1022273D01*
X15867Y1021795D01*
X15847Y1021717D01*
X15810Y1021646D01*
X15690Y1021113D01*
X15553Y1020583D01*
X15546Y1020471D01*
X15535Y1020424D01*
X15538Y1020343D01*
X15529Y1020202D01*
X15523Y1020170D01*
X15525Y1020138D01*
X15512Y1019946D01*
X15512Y980054D01*
X15581Y979510D01*
X15632Y978966D01*
X15659Y978891D01*
X15669Y978811D01*
X15870Y978303D01*
X16055Y977788D01*
X16101Y977721D01*
X16130Y977647D01*
X16452Y977204D01*
X16758Y976751D01*
X16819Y976698D01*
X16866Y976633D01*
X17288Y976284D01*
X17697Y975922D01*
X17768Y975885D01*
X17830Y975834D01*
X18325Y975601D01*
X18812Y975352D01*
X18890Y975334D01*
X18963Y975300D01*
X19500Y975197D01*
X20034Y975077D01*
X20114Y975080D01*
X20193Y975064D01*
X20738Y975098D01*
X21286Y975115D01*
X21363Y975137D01*
X21443Y975142D01*
X21963Y975310D01*
X22489Y975462D01*
X22558Y975503D01*
X22634Y975527D01*
X23097Y975820D01*
X23568Y976097D01*
X23651Y976171D01*
X23693Y976197D01*
X23749Y976257D01*
X24047Y976519D01*
X32287Y984759D01*
X47356Y991001D01*
X63667Y991001D01*
X78737Y984759D01*
X90271Y973225D01*
X96512Y958156D01*
X96512Y941844D01*
X90271Y926775D01*
X78737Y915241D01*
X63667Y908999D01*
X47356Y908999D01*
X32287Y915241D01*
X24047Y923481D01*
X23711Y923742D01*
X23537Y923906D01*
X23447Y923956D01*
X23193Y924166D01*
X23121Y924200D01*
X23057Y924249D01*
X22555Y924467D01*
X22060Y924700D01*
X21982Y924715D01*
X21908Y924747D01*
X21367Y924832D01*
X20830Y924935D01*
X20750Y924930D01*
X20671Y924943D01*
X20127Y924892D01*
X19580Y924858D01*
X19504Y924833D01*
X19424Y924826D01*
X18911Y924641D01*
X18389Y924473D01*
X18321Y924430D01*
X18246Y924403D01*
X17795Y924097D01*
X17331Y923803D01*
X17275Y923744D01*
X17209Y923700D01*
X16847Y923290D01*
X16472Y922891D01*
X16433Y922821D01*
X16380Y922761D01*
X16130Y922273D01*
X15867Y921795D01*
X15847Y921717D01*
X15810Y921646D01*
X15690Y921113D01*
X15553Y920583D01*
X15546Y920471D01*
X15535Y920424D01*
X15538Y920343D01*
X15530Y920224D01*
X15523Y920185D01*
X15525Y920145D01*
X15512Y919946D01*
X15512Y880054D01*
X15581Y879510D01*
X15632Y878966D01*
X15659Y878891D01*
X15669Y878811D01*
X15870Y878303D01*
X16055Y877788D01*
X16101Y877721D01*
X16130Y877647D01*
X16452Y877204D01*
X16758Y876751D01*
X16819Y876698D01*
X16866Y876633D01*
X17288Y876284D01*
X17697Y875922D01*
X17768Y875885D01*
X17830Y875834D01*
X18325Y875601D01*
X18812Y875352D01*
X18890Y875334D01*
X18963Y875300D01*
X19500Y875197D01*
X20034Y875077D01*
X20114Y875080D01*
X20193Y875064D01*
X20738Y875098D01*
X21286Y875115D01*
X21363Y875137D01*
X21443Y875142D01*
X21963Y875310D01*
X22489Y875462D01*
X22558Y875503D01*
X22634Y875527D01*
X23097Y875820D01*
X23568Y876097D01*
X23651Y876171D01*
X23693Y876197D01*
X23749Y876257D01*
X24047Y876519D01*
X32287Y884759D01*
X47356Y891001D01*
X63667Y891001D01*
X78737Y884759D01*
X90271Y873225D01*
X96512Y858156D01*
X96512Y841844D01*
X90271Y826775D01*
X78737Y815241D01*
X63667Y808999D01*
X47356Y808999D01*
X32287Y815241D01*
X24047Y823481D01*
X23716Y823738D01*
X23522Y823921D01*
X23423Y823976D01*
X23193Y824166D01*
X23121Y824200D01*
X23057Y824249D01*
X22555Y824467D01*
X22060Y824700D01*
X21982Y824715D01*
X21908Y824747D01*
X21367Y824832D01*
X20830Y824935D01*
X20750Y824930D01*
X20671Y824943D01*
X20127Y824892D01*
X19580Y824858D01*
X19504Y824833D01*
X19424Y824826D01*
X18911Y824641D01*
X18389Y824473D01*
X18321Y824430D01*
X18246Y824403D01*
X17795Y824097D01*
X17331Y823803D01*
X17275Y823744D01*
X17209Y823700D01*
X16847Y823290D01*
X16472Y822891D01*
X16433Y822821D01*
X16380Y822761D01*
X16130Y822273D01*
X15867Y821795D01*
X15847Y821717D01*
X15810Y821646D01*
X15764Y821443D01*
X15758Y821430D01*
X15740Y821335D01*
X15690Y821113D01*
X15553Y820583D01*
X15546Y820471D01*
X15535Y820424D01*
X15538Y820343D01*
X15532Y820246D01*
X15523Y820200D01*
X15526Y820152D01*
X15512Y819946D01*
X15512Y780054D01*
X15581Y779510D01*
X15632Y778966D01*
X15659Y778891D01*
X15669Y778811D01*
X15870Y778303D01*
X16055Y777788D01*
X16101Y777721D01*
X16130Y777647D01*
X16452Y777204D01*
X16758Y776751D01*
X16819Y776698D01*
X16866Y776633D01*
X17288Y776284D01*
X17697Y775922D01*
X17768Y775885D01*
X17830Y775834D01*
X18325Y775601D01*
X18812Y775352D01*
X18890Y775334D01*
X18963Y775300D01*
X19500Y775197D01*
X20034Y775077D01*
X20114Y775080D01*
X20193Y775064D01*
X20738Y775098D01*
X21286Y775115D01*
X21363Y775137D01*
X21443Y775142D01*
X21963Y775310D01*
X22489Y775462D01*
X22558Y775503D01*
X22634Y775527D01*
X23097Y775820D01*
X23568Y776097D01*
X23651Y776171D01*
X23693Y776197D01*
X23749Y776257D01*
X24047Y776519D01*
X32287Y784759D01*
X47356Y791001D01*
X63667Y791001D01*
X78737Y784759D01*
X90271Y773225D01*
X96512Y758156D01*
X96512Y741844D01*
X90271Y726775D01*
X78737Y715241D01*
X63667Y708999D01*
X47356Y708999D01*
X32287Y715241D01*
X24047Y723481D01*
X23721Y723734D01*
X23507Y723936D01*
X23399Y723995D01*
X23193Y724166D01*
X23121Y724200D01*
X23057Y724249D01*
X22555Y724467D01*
X22488Y724498D01*
X22411Y724541D01*
X22382Y724548D01*
X22060Y724700D01*
X21982Y724715D01*
X21908Y724747D01*
X21367Y724832D01*
X20830Y724935D01*
X20750Y724930D01*
X20671Y724943D01*
X20127Y724892D01*
X19580Y724858D01*
X19504Y724833D01*
X19424Y724826D01*
X18911Y724641D01*
X18389Y724473D01*
X18321Y724430D01*
X18246Y724403D01*
X17795Y724097D01*
X17331Y723803D01*
X17275Y723744D01*
X17209Y723700D01*
X16847Y723290D01*
X16472Y722891D01*
X16433Y722821D01*
X16380Y722761D01*
X16130Y722273D01*
X15867Y721795D01*
X15847Y721717D01*
X15810Y721646D01*
X15771Y721471D01*
X15758Y721445D01*
X15721Y721249D01*
X15690Y721113D01*
X15553Y720583D01*
X15546Y720471D01*
X15535Y720424D01*
X15538Y720343D01*
X15533Y720269D01*
X15523Y720215D01*
X15526Y720160D01*
X15512Y719946D01*
X15512Y680054D01*
X15581Y679510D01*
X15632Y678966D01*
X15659Y678891D01*
X15669Y678811D01*
X15870Y678303D01*
X16055Y677788D01*
X16101Y677721D01*
X16130Y677647D01*
X16452Y677204D01*
X16758Y676751D01*
X16819Y676698D01*
X16866Y676633D01*
X17288Y676284D01*
X17697Y675922D01*
X17768Y675885D01*
X17830Y675834D01*
X18325Y675601D01*
X18812Y675352D01*
X18890Y675334D01*
X18963Y675300D01*
X19500Y675197D01*
X20034Y675077D01*
X20114Y675080D01*
X20193Y675064D01*
X20738Y675098D01*
X21286Y675115D01*
X21363Y675137D01*
X21443Y675142D01*
X21963Y675310D01*
X22489Y675462D01*
X22558Y675503D01*
X22634Y675527D01*
X23097Y675820D01*
X23568Y676097D01*
X23651Y676171D01*
X23693Y676197D01*
X23749Y676257D01*
X24047Y676519D01*
X32287Y684759D01*
X47356Y691001D01*
X63667Y691001D01*
X78737Y684759D01*
X90271Y673225D01*
X96512Y658156D01*
X96512Y641844D01*
X90271Y626775D01*
X78737Y615241D01*
X63667Y608999D01*
X47356Y608999D01*
X32287Y615241D01*
X24047Y623481D01*
X23727Y623730D01*
X23492Y623950D01*
X23375Y624015D01*
X23193Y624166D01*
X23121Y624200D01*
X23057Y624249D01*
X22565Y624462D01*
X22396Y624555D01*
X22330Y624572D01*
X22060Y624700D01*
X21982Y624715D01*
X21908Y624747D01*
X21367Y624832D01*
X21206Y624864D01*
X21184Y624869D01*
X21172Y624870D01*
X20830Y624935D01*
X20750Y624930D01*
X20671Y624943D01*
X20127Y624892D01*
X19580Y624858D01*
X19504Y624833D01*
X19424Y624826D01*
X18911Y624641D01*
X18389Y624473D01*
X18321Y624430D01*
X18246Y624403D01*
X17795Y624097D01*
X17331Y623803D01*
X17275Y623744D01*
X17209Y623700D01*
X16847Y623290D01*
X16472Y622891D01*
X16433Y622821D01*
X16380Y622761D01*
X16296Y622596D01*
X16292Y622592D01*
X16278Y622561D01*
X16130Y622273D01*
X15867Y621795D01*
X15847Y621717D01*
X15810Y621646D01*
X15777Y621499D01*
X15758Y621459D01*
X15702Y621165D01*
X15690Y621113D01*
X15553Y620583D01*
X15546Y620471D01*
X15535Y620424D01*
X15538Y620343D01*
X15534Y620291D01*
X15523Y620229D01*
X15526Y620167D01*
X15512Y619946D01*
X15512Y100000D01*
X15523Y99914D01*
X15528Y99608D01*
X16574Y86311D01*
X16629Y86046D01*
X16646Y85776D01*
X16804Y85158D01*
X25022Y59866D01*
X25220Y59444D01*
X25391Y59011D01*
X25520Y58807D01*
X25555Y58733D01*
X25606Y58671D01*
X25732Y58472D01*
X41363Y36957D01*
X41440Y36875D01*
X41478Y36815D01*
X41638Y36664D01*
X41682Y36617D01*
X41978Y36258D01*
X42164Y36104D01*
X42220Y36044D01*
X42288Y36001D01*
X42469Y35851D01*
X63984Y20220D01*
X64393Y19995D01*
X64785Y19745D01*
X65010Y19656D01*
X65082Y19617D01*
X65160Y19596D01*
X65378Y19510D01*
X90670Y11292D01*
X90935Y11241D01*
X91192Y11153D01*
X91823Y11063D01*
X105119Y10016D01*
X105206Y10020D01*
X105512Y10001D01*
X344298Y10001D01*
X344684Y10049D01*
G37*
%LPC*%
G36*
X590734Y144999D02*
X590734Y144999D01*
X583383Y148044D01*
X527965Y203462D01*
X524921Y210813D01*
X524921Y830944D01*
X524872Y831329D01*
X524860Y831718D01*
X524794Y831948D01*
X524764Y832186D01*
X524621Y832547D01*
X524513Y832921D01*
X524391Y833128D01*
X524303Y833351D01*
X524075Y833665D01*
X523877Y834000D01*
X523615Y834299D01*
X523567Y834364D01*
X523530Y834395D01*
X523456Y834479D01*
X279041Y1078894D01*
X278824Y1079063D01*
X278633Y1079259D01*
X278332Y1079444D01*
X278052Y1079661D01*
X277800Y1079771D01*
X277566Y1079914D01*
X277228Y1080018D01*
X276903Y1080159D01*
X276631Y1080202D01*
X276369Y1080283D01*
X276016Y1080300D01*
X275666Y1080355D01*
X275392Y1080330D01*
X275118Y1080343D01*
X274772Y1080271D01*
X274419Y1080238D01*
X274161Y1080146D01*
X273892Y1080090D01*
X273573Y1079935D01*
X273240Y1079815D01*
X273013Y1079661D01*
X272766Y1079540D01*
X272497Y1079311D01*
X272204Y1079112D01*
X272022Y1078906D01*
X271813Y1078728D01*
X271609Y1078439D01*
X271375Y1078173D01*
X271250Y1077929D01*
X271092Y1077704D01*
X270966Y1077374D01*
X270805Y1077058D01*
X270745Y1076790D01*
X270647Y1076534D01*
X270608Y1076182D01*
X270530Y1075836D01*
X270538Y1075562D01*
X270508Y1075289D01*
X270557Y1074938D01*
X270567Y1074585D01*
X270644Y1074321D01*
X270682Y1074049D01*
X270888Y1073446D01*
X277221Y1058156D01*
X277221Y1041844D01*
X270979Y1026775D01*
X259445Y1015241D01*
X244376Y1008999D01*
X228065Y1008999D01*
X212996Y1015241D01*
X201462Y1026775D01*
X195220Y1041844D01*
X195220Y1058156D01*
X201462Y1073225D01*
X212996Y1084759D01*
X228065Y1091001D01*
X244376Y1091001D01*
X259666Y1084667D01*
X259931Y1084595D01*
X260183Y1084486D01*
X260532Y1084430D01*
X260874Y1084337D01*
X261149Y1084332D01*
X261420Y1084289D01*
X261772Y1084322D01*
X262126Y1084317D01*
X262393Y1084381D01*
X262667Y1084406D01*
X262999Y1084526D01*
X263344Y1084609D01*
X263587Y1084737D01*
X263845Y1084830D01*
X264138Y1085028D01*
X264451Y1085194D01*
X264655Y1085379D01*
X264882Y1085533D01*
X265116Y1085798D01*
X265378Y1086036D01*
X265529Y1086265D01*
X265711Y1086471D01*
X265872Y1086787D01*
X266067Y1087082D01*
X266156Y1087342D01*
X266281Y1087586D01*
X266359Y1087932D01*
X266473Y1088267D01*
X266495Y1088540D01*
X266556Y1088808D01*
X266545Y1089162D01*
X266573Y1089515D01*
X266526Y1089785D01*
X266518Y1090060D01*
X266420Y1090400D01*
X266360Y1090749D01*
X266247Y1090999D01*
X266171Y1091263D01*
X265991Y1091569D01*
X265846Y1091891D01*
X265675Y1092106D01*
X265535Y1092342D01*
X265114Y1092821D01*
X249962Y1107973D01*
X249871Y1108044D01*
X249796Y1108131D01*
X249379Y1108425D01*
X248973Y1108741D01*
X248867Y1108786D01*
X248773Y1108853D01*
X248293Y1109035D01*
X247824Y1109238D01*
X247710Y1109256D01*
X247602Y1109297D01*
X247092Y1109354D01*
X246587Y1109435D01*
X246472Y1109424D01*
X246357Y1109437D01*
X245849Y1109365D01*
X245340Y1109317D01*
X245232Y1109279D01*
X245117Y1109262D01*
X244514Y1109056D01*
X244376Y1108999D01*
X228065Y1108999D01*
X212996Y1115241D01*
X201462Y1126775D01*
X195220Y1141844D01*
X195220Y1158156D01*
X201462Y1173225D01*
X212996Y1184759D01*
X228065Y1191001D01*
X244376Y1191001D01*
X259666Y1184667D01*
X259931Y1184595D01*
X260183Y1184486D01*
X260532Y1184430D01*
X260874Y1184337D01*
X261149Y1184332D01*
X261420Y1184289D01*
X261772Y1184322D01*
X262126Y1184317D01*
X262393Y1184381D01*
X262667Y1184406D01*
X262999Y1184526D01*
X263344Y1184609D01*
X263587Y1184737D01*
X263845Y1184830D01*
X264138Y1185028D01*
X264451Y1185194D01*
X264655Y1185379D01*
X264882Y1185533D01*
X265116Y1185798D01*
X265378Y1186036D01*
X265529Y1186265D01*
X265711Y1186471D01*
X265872Y1186787D01*
X266067Y1187082D01*
X266156Y1187342D01*
X266281Y1187586D01*
X266359Y1187932D01*
X266473Y1188267D01*
X266495Y1188540D01*
X266556Y1188808D01*
X266545Y1189162D01*
X266573Y1189515D01*
X266526Y1189785D01*
X266518Y1190060D01*
X266420Y1190400D01*
X266360Y1190749D01*
X266247Y1190999D01*
X266171Y1191263D01*
X265991Y1191569D01*
X265846Y1191891D01*
X265675Y1192106D01*
X265535Y1192342D01*
X265114Y1192821D01*
X249962Y1207973D01*
X249871Y1208044D01*
X249796Y1208131D01*
X249378Y1208426D01*
X248973Y1208741D01*
X248867Y1208786D01*
X248773Y1208853D01*
X248293Y1209035D01*
X247824Y1209238D01*
X247710Y1209256D01*
X247602Y1209297D01*
X247092Y1209354D01*
X246587Y1209435D01*
X246472Y1209424D01*
X246357Y1209437D01*
X245849Y1209365D01*
X245340Y1209317D01*
X245232Y1209279D01*
X245117Y1209262D01*
X244514Y1209056D01*
X244376Y1208999D01*
X228065Y1208999D01*
X212996Y1215241D01*
X201462Y1226775D01*
X195220Y1241844D01*
X195220Y1258156D01*
X201462Y1273225D01*
X212996Y1284759D01*
X228065Y1291001D01*
X244376Y1291001D01*
X259445Y1284759D01*
X270979Y1273225D01*
X277221Y1258156D01*
X277221Y1241845D01*
X277164Y1241707D01*
X277133Y1241595D01*
X277081Y1241493D01*
X277065Y1241421D01*
X277040Y1241368D01*
X276967Y1240986D01*
X276833Y1240499D01*
X276831Y1240383D01*
X276806Y1240271D01*
X276809Y1240165D01*
X276804Y1240138D01*
X276816Y1239952D01*
X276821Y1239758D01*
X276813Y1239247D01*
X276840Y1239135D01*
X276844Y1239019D01*
X276986Y1238526D01*
X277105Y1238029D01*
X277159Y1237927D01*
X277191Y1237816D01*
X277451Y1237374D01*
X277690Y1236922D01*
X277768Y1236836D01*
X277826Y1236737D01*
X278247Y1236258D01*
X582646Y931859D01*
X582863Y931691D01*
X583054Y931494D01*
X583356Y931309D01*
X583635Y931092D01*
X583887Y930983D01*
X584122Y930839D01*
X584460Y930735D01*
X584785Y930594D01*
X585056Y930551D01*
X585318Y930470D01*
X585672Y930453D01*
X586022Y930398D01*
X586295Y930424D01*
X586569Y930410D01*
X586916Y930482D01*
X587268Y930515D01*
X587527Y930608D01*
X587796Y930663D01*
X588114Y930819D01*
X588447Y930938D01*
X588674Y931093D01*
X588921Y931213D01*
X589191Y931443D01*
X589483Y931641D01*
X589665Y931847D01*
X589874Y932025D01*
X590078Y932314D01*
X590313Y932580D01*
X590438Y932825D01*
X590596Y933049D01*
X590721Y933379D01*
X590883Y933695D01*
X590943Y933963D01*
X591040Y934220D01*
X591080Y934571D01*
X591157Y934917D01*
X591149Y935191D01*
X591180Y935464D01*
X591131Y935814D01*
X591120Y936169D01*
X591044Y936433D01*
X591006Y936704D01*
X590800Y937308D01*
X588921Y941844D01*
X588921Y958156D01*
X595162Y973225D01*
X606696Y984759D01*
X621766Y991001D01*
X638077Y991001D01*
X653146Y984759D01*
X664680Y973225D01*
X670922Y958156D01*
X670922Y941844D01*
X664680Y926775D01*
X653146Y915241D01*
X638077Y908999D01*
X621766Y908999D01*
X606696Y915241D01*
X605456Y916481D01*
X605024Y916816D01*
X604603Y917166D01*
X604530Y917200D01*
X604467Y917249D01*
X603965Y917466D01*
X603470Y917700D01*
X603391Y917715D01*
X603318Y917747D01*
X602776Y917833D01*
X602240Y917935D01*
X602160Y917930D01*
X602081Y917943D01*
X601537Y917892D01*
X600990Y917858D01*
X600913Y917833D01*
X600834Y917826D01*
X600320Y917641D01*
X599798Y917473D01*
X599731Y917430D01*
X599655Y917403D01*
X599203Y917096D01*
X598740Y916803D01*
X598685Y916744D01*
X598619Y916700D01*
X598257Y916290D01*
X597881Y915891D01*
X597843Y915821D01*
X597790Y915761D01*
X597541Y915274D01*
X597276Y914795D01*
X597256Y914717D01*
X597220Y914646D01*
X597100Y914114D01*
X596962Y913583D01*
X596955Y913471D01*
X596945Y913424D01*
X596947Y913343D01*
X596922Y912946D01*
X596922Y887054D01*
X596990Y886510D01*
X597042Y885966D01*
X597069Y885890D01*
X597079Y885811D01*
X597280Y885302D01*
X597465Y884787D01*
X597510Y884721D01*
X597539Y884647D01*
X597861Y884203D01*
X598168Y883751D01*
X598228Y883698D01*
X598275Y883633D01*
X598697Y883284D01*
X599107Y882922D01*
X599178Y882885D01*
X599240Y882834D01*
X599735Y882601D01*
X600222Y882352D01*
X600300Y882335D01*
X600372Y882300D01*
X600910Y882197D01*
X601444Y882077D01*
X601524Y882079D01*
X601602Y882064D01*
X602148Y882098D01*
X602695Y882115D01*
X602772Y882137D01*
X602852Y882142D01*
X603373Y882310D01*
X603899Y882462D01*
X603968Y882503D01*
X604044Y882527D01*
X604506Y882820D01*
X604978Y883097D01*
X605061Y883171D01*
X605102Y883197D01*
X605158Y883256D01*
X605456Y883519D01*
X606696Y884759D01*
X621766Y891001D01*
X638077Y891001D01*
X653146Y884759D01*
X664680Y873225D01*
X670922Y858156D01*
X670922Y841844D01*
X664680Y826775D01*
X653146Y815241D01*
X638077Y808999D01*
X621766Y808999D01*
X606696Y815241D01*
X605456Y816481D01*
X605024Y816816D01*
X604603Y817166D01*
X604530Y817200D01*
X604467Y817249D01*
X603965Y817466D01*
X603470Y817700D01*
X603391Y817715D01*
X603318Y817747D01*
X602776Y817833D01*
X602240Y817935D01*
X602160Y817930D01*
X602081Y817943D01*
X601537Y817892D01*
X600990Y817858D01*
X600913Y817833D01*
X600834Y817826D01*
X600320Y817641D01*
X599798Y817473D01*
X599731Y817430D01*
X599655Y817403D01*
X599203Y817096D01*
X598740Y816803D01*
X598685Y816744D01*
X598619Y816700D01*
X598257Y816290D01*
X597881Y815891D01*
X597843Y815821D01*
X597790Y815761D01*
X597541Y815274D01*
X597276Y814795D01*
X597256Y814717D01*
X597220Y814646D01*
X597100Y814114D01*
X596962Y813583D01*
X596955Y813471D01*
X596945Y813424D01*
X596947Y813343D01*
X596922Y812946D01*
X596922Y787054D01*
X596990Y786510D01*
X597042Y785966D01*
X597069Y785890D01*
X597079Y785811D01*
X597280Y785302D01*
X597465Y784787D01*
X597510Y784721D01*
X597539Y784647D01*
X597861Y784203D01*
X598168Y783751D01*
X598228Y783698D01*
X598275Y783633D01*
X598697Y783284D01*
X599107Y782922D01*
X599178Y782885D01*
X599240Y782834D01*
X599735Y782601D01*
X600222Y782352D01*
X600300Y782335D01*
X600372Y782300D01*
X600910Y782197D01*
X601444Y782077D01*
X601524Y782079D01*
X601602Y782064D01*
X602148Y782098D01*
X602695Y782115D01*
X602772Y782137D01*
X602852Y782142D01*
X603373Y782310D01*
X603899Y782462D01*
X603968Y782503D01*
X604044Y782527D01*
X604506Y782820D01*
X604978Y783097D01*
X605061Y783171D01*
X605102Y783197D01*
X605158Y783256D01*
X605456Y783519D01*
X606696Y784759D01*
X621766Y791001D01*
X638077Y791001D01*
X653146Y784759D01*
X664680Y773225D01*
X670922Y758156D01*
X670922Y741844D01*
X664680Y726775D01*
X653146Y715241D01*
X638077Y708999D01*
X621766Y708999D01*
X606696Y715241D01*
X605456Y716481D01*
X605024Y716816D01*
X604603Y717166D01*
X604530Y717200D01*
X604467Y717249D01*
X603965Y717466D01*
X603470Y717700D01*
X603391Y717715D01*
X603318Y717747D01*
X602776Y717833D01*
X602240Y717935D01*
X602160Y717930D01*
X602081Y717943D01*
X601537Y717892D01*
X600990Y717858D01*
X600913Y717833D01*
X600834Y717826D01*
X600320Y717641D01*
X599798Y717473D01*
X599731Y717430D01*
X599655Y717403D01*
X599203Y717096D01*
X598740Y716803D01*
X598685Y716744D01*
X598619Y716700D01*
X598257Y716290D01*
X597881Y715891D01*
X597843Y715821D01*
X597790Y715761D01*
X597541Y715274D01*
X597276Y714795D01*
X597256Y714717D01*
X597220Y714646D01*
X597100Y714114D01*
X596962Y713583D01*
X596955Y713471D01*
X596945Y713424D01*
X596947Y713343D01*
X596922Y712946D01*
X596922Y687054D01*
X596990Y686510D01*
X597042Y685966D01*
X597069Y685890D01*
X597079Y685811D01*
X597280Y685302D01*
X597465Y684787D01*
X597510Y684721D01*
X597539Y684647D01*
X597861Y684203D01*
X598168Y683751D01*
X598228Y683698D01*
X598275Y683633D01*
X598697Y683284D01*
X599107Y682922D01*
X599178Y682885D01*
X599240Y682834D01*
X599735Y682601D01*
X600222Y682352D01*
X600300Y682335D01*
X600372Y682300D01*
X600910Y682197D01*
X601444Y682077D01*
X601524Y682079D01*
X601602Y682064D01*
X602148Y682098D01*
X602695Y682115D01*
X602772Y682137D01*
X602852Y682142D01*
X603373Y682310D01*
X603899Y682462D01*
X603968Y682503D01*
X604044Y682527D01*
X604506Y682820D01*
X604978Y683097D01*
X605061Y683171D01*
X605102Y683197D01*
X605158Y683256D01*
X605456Y683519D01*
X606696Y684759D01*
X621766Y691001D01*
X638077Y691001D01*
X653146Y684759D01*
X664680Y673225D01*
X664737Y673087D01*
X664794Y672987D01*
X664830Y672877D01*
X665103Y672444D01*
X665357Y671999D01*
X665438Y671916D01*
X665499Y671819D01*
X665872Y671468D01*
X666229Y671099D01*
X666327Y671039D01*
X666411Y670960D01*
X666859Y670713D01*
X667296Y670445D01*
X667406Y670411D01*
X667507Y670355D01*
X668004Y670227D01*
X668493Y670076D01*
X668608Y670070D01*
X668720Y670041D01*
X669356Y670001D01*
X816077Y670001D01*
X816192Y670015D01*
X816306Y670006D01*
X816811Y670093D01*
X817320Y670157D01*
X817427Y670200D01*
X817540Y670220D01*
X818007Y670430D01*
X818484Y670618D01*
X818578Y670686D01*
X818683Y670733D01*
X819083Y671053D01*
X819498Y671354D01*
X819571Y671443D01*
X819661Y671515D01*
X819969Y671923D01*
X820296Y672318D01*
X820345Y672423D01*
X820415Y672515D01*
X820696Y673087D01*
X820753Y673225D01*
X832287Y684759D01*
X847356Y691001D01*
X863667Y691001D01*
X878737Y684759D01*
X879977Y683519D01*
X880409Y683184D01*
X880830Y682834D01*
X880903Y682800D01*
X880966Y682751D01*
X881468Y682533D01*
X881963Y682300D01*
X882042Y682285D01*
X882115Y682253D01*
X882657Y682167D01*
X883193Y682064D01*
X883273Y682069D01*
X883352Y682057D01*
X883896Y682108D01*
X884443Y682142D01*
X884520Y682166D01*
X884599Y682174D01*
X885113Y682359D01*
X885635Y682527D01*
X885702Y682570D01*
X885778Y682597D01*
X886230Y682904D01*
X886693Y683197D01*
X886748Y683255D01*
X886814Y683300D01*
X887176Y683710D01*
X887552Y684109D01*
X887590Y684179D01*
X887643Y684239D01*
X887892Y684726D01*
X888157Y685205D01*
X888177Y685283D01*
X888213Y685354D01*
X888333Y685886D01*
X888470Y686417D01*
X888478Y686528D01*
X888488Y686576D01*
X888486Y686657D01*
X888511Y687054D01*
X888511Y712946D01*
X888443Y713489D01*
X888391Y714034D01*
X888364Y714109D01*
X888354Y714189D01*
X888153Y714698D01*
X887968Y715212D01*
X887923Y715279D01*
X887893Y715353D01*
X887571Y715797D01*
X887265Y716249D01*
X887205Y716302D01*
X887158Y716367D01*
X886738Y716715D01*
X886326Y717078D01*
X886255Y717115D01*
X886193Y717166D01*
X885697Y717399D01*
X885211Y717648D01*
X885133Y717665D01*
X885061Y717700D01*
X884523Y717803D01*
X883989Y717923D01*
X883909Y717920D01*
X883831Y717935D01*
X883285Y717902D01*
X882738Y717885D01*
X882661Y717863D01*
X882581Y717858D01*
X882060Y717690D01*
X881534Y717538D01*
X881465Y717497D01*
X881389Y717473D01*
X880927Y717180D01*
X880455Y716902D01*
X880372Y716829D01*
X880331Y716803D01*
X880275Y716743D01*
X879977Y716481D01*
X878737Y715241D01*
X863667Y708999D01*
X847356Y708999D01*
X832287Y715241D01*
X820753Y726775D01*
X814511Y741844D01*
X814511Y758156D01*
X820753Y773225D01*
X832287Y784759D01*
X847356Y791001D01*
X863667Y791001D01*
X878737Y784759D01*
X879977Y783519D01*
X880409Y783184D01*
X880830Y782834D01*
X880903Y782800D01*
X880966Y782751D01*
X881468Y782533D01*
X881963Y782300D01*
X882042Y782285D01*
X882115Y782253D01*
X882657Y782167D01*
X883193Y782064D01*
X883273Y782069D01*
X883352Y782057D01*
X883896Y782108D01*
X884443Y782142D01*
X884520Y782166D01*
X884599Y782174D01*
X885113Y782359D01*
X885635Y782527D01*
X885702Y782570D01*
X885778Y782597D01*
X886230Y782904D01*
X886693Y783197D01*
X886748Y783255D01*
X886814Y783300D01*
X887176Y783710D01*
X887552Y784109D01*
X887590Y784179D01*
X887643Y784239D01*
X887892Y784726D01*
X888157Y785205D01*
X888177Y785283D01*
X888213Y785354D01*
X888333Y785886D01*
X888470Y786417D01*
X888478Y786528D01*
X888488Y786576D01*
X888486Y786657D01*
X888511Y787054D01*
X888511Y812946D01*
X888443Y813489D01*
X888391Y814034D01*
X888364Y814109D01*
X888354Y814189D01*
X888153Y814698D01*
X887968Y815212D01*
X887923Y815279D01*
X887893Y815353D01*
X887571Y815797D01*
X887265Y816249D01*
X887205Y816302D01*
X887158Y816367D01*
X886736Y816716D01*
X886326Y817078D01*
X886255Y817115D01*
X886193Y817166D01*
X885697Y817399D01*
X885211Y817648D01*
X885133Y817665D01*
X885061Y817700D01*
X884523Y817803D01*
X883989Y817923D01*
X883909Y817920D01*
X883831Y817935D01*
X883285Y817902D01*
X882738Y817885D01*
X882661Y817863D01*
X882581Y817858D01*
X882060Y817690D01*
X881534Y817538D01*
X881465Y817497D01*
X881389Y817473D01*
X880927Y817180D01*
X880455Y816902D01*
X880372Y816829D01*
X880331Y816803D01*
X880275Y816743D01*
X879977Y816481D01*
X878737Y815241D01*
X863667Y808999D01*
X847356Y808999D01*
X832287Y815241D01*
X820753Y826775D01*
X814511Y841844D01*
X814511Y858156D01*
X820753Y873225D01*
X832287Y884759D01*
X847356Y891001D01*
X863667Y891001D01*
X878737Y884759D01*
X879977Y883519D01*
X880409Y883184D01*
X880830Y882834D01*
X880903Y882800D01*
X880966Y882751D01*
X881468Y882533D01*
X881963Y882300D01*
X882042Y882285D01*
X882115Y882253D01*
X882657Y882167D01*
X883193Y882064D01*
X883273Y882069D01*
X883352Y882057D01*
X883896Y882108D01*
X884443Y882142D01*
X884520Y882166D01*
X884599Y882174D01*
X885113Y882359D01*
X885635Y882527D01*
X885702Y882570D01*
X885778Y882597D01*
X886230Y882904D01*
X886693Y883197D01*
X886748Y883255D01*
X886814Y883300D01*
X887176Y883710D01*
X887552Y884109D01*
X887590Y884179D01*
X887643Y884239D01*
X887892Y884726D01*
X888157Y885205D01*
X888177Y885283D01*
X888213Y885354D01*
X888333Y885886D01*
X888470Y886417D01*
X888478Y886528D01*
X888488Y886576D01*
X888486Y886657D01*
X888511Y887054D01*
X888511Y912946D01*
X888443Y913489D01*
X888391Y914034D01*
X888364Y914109D01*
X888354Y914189D01*
X888153Y914698D01*
X887968Y915212D01*
X887923Y915279D01*
X887893Y915353D01*
X887571Y915797D01*
X887265Y916249D01*
X887205Y916302D01*
X887158Y916367D01*
X886736Y916716D01*
X886326Y917078D01*
X886255Y917115D01*
X886193Y917166D01*
X885697Y917399D01*
X885211Y917648D01*
X885133Y917665D01*
X885061Y917700D01*
X884523Y917803D01*
X883989Y917923D01*
X883909Y917920D01*
X883831Y917935D01*
X883285Y917902D01*
X882738Y917885D01*
X882661Y917863D01*
X882581Y917858D01*
X882060Y917690D01*
X881534Y917538D01*
X881465Y917497D01*
X881389Y917473D01*
X880927Y917180D01*
X880455Y916902D01*
X880372Y916829D01*
X880331Y916803D01*
X880275Y916743D01*
X879977Y916481D01*
X878737Y915241D01*
X863667Y908999D01*
X847356Y908999D01*
X832287Y915241D01*
X820753Y926775D01*
X814511Y941844D01*
X814511Y958156D01*
X820753Y973225D01*
X832287Y984759D01*
X847356Y991001D01*
X863667Y991001D01*
X878737Y984759D01*
X879977Y983519D01*
X880409Y983184D01*
X880830Y982834D01*
X880903Y982800D01*
X880966Y982751D01*
X881468Y982533D01*
X881963Y982300D01*
X882042Y982285D01*
X882115Y982253D01*
X882657Y982167D01*
X883193Y982064D01*
X883273Y982069D01*
X883352Y982057D01*
X883896Y982108D01*
X884443Y982142D01*
X884520Y982166D01*
X884599Y982174D01*
X885113Y982359D01*
X885635Y982527D01*
X885702Y982570D01*
X885778Y982597D01*
X886230Y982904D01*
X886693Y983197D01*
X886748Y983255D01*
X886814Y983300D01*
X887176Y983710D01*
X887552Y984109D01*
X887590Y984179D01*
X887643Y984239D01*
X887892Y984726D01*
X888157Y985205D01*
X888177Y985283D01*
X888213Y985354D01*
X888333Y985886D01*
X888470Y986417D01*
X888478Y986528D01*
X888488Y986576D01*
X888486Y986657D01*
X888511Y987054D01*
X888511Y1012946D01*
X888443Y1013489D01*
X888391Y1014034D01*
X888364Y1014109D01*
X888354Y1014189D01*
X888153Y1014698D01*
X887968Y1015212D01*
X887923Y1015279D01*
X887893Y1015353D01*
X887571Y1015797D01*
X887265Y1016249D01*
X887205Y1016302D01*
X887158Y1016367D01*
X886736Y1016716D01*
X886326Y1017078D01*
X886255Y1017115D01*
X886193Y1017166D01*
X885697Y1017399D01*
X885211Y1017648D01*
X885133Y1017665D01*
X885061Y1017700D01*
X884523Y1017803D01*
X883989Y1017923D01*
X883909Y1017920D01*
X883831Y1017935D01*
X883285Y1017902D01*
X882738Y1017885D01*
X882661Y1017863D01*
X882581Y1017858D01*
X882060Y1017690D01*
X881534Y1017538D01*
X881465Y1017497D01*
X881389Y1017473D01*
X880927Y1017180D01*
X880455Y1016902D01*
X880372Y1016829D01*
X880331Y1016803D01*
X880275Y1016743D01*
X879977Y1016481D01*
X878737Y1015241D01*
X863667Y1008999D01*
X847356Y1008999D01*
X832287Y1015241D01*
X820753Y1026775D01*
X814511Y1041844D01*
X814511Y1058156D01*
X820753Y1073225D01*
X832287Y1084759D01*
X847356Y1091001D01*
X863667Y1091001D01*
X878737Y1084759D01*
X879977Y1083519D01*
X880409Y1083184D01*
X880830Y1082834D01*
X880903Y1082800D01*
X880966Y1082751D01*
X881468Y1082533D01*
X881963Y1082300D01*
X882042Y1082285D01*
X882115Y1082253D01*
X882657Y1082167D01*
X883193Y1082064D01*
X883273Y1082069D01*
X883352Y1082057D01*
X883896Y1082108D01*
X884443Y1082142D01*
X884520Y1082166D01*
X884599Y1082174D01*
X885113Y1082359D01*
X885635Y1082527D01*
X885702Y1082570D01*
X885778Y1082597D01*
X886230Y1082904D01*
X886693Y1083197D01*
X886748Y1083255D01*
X886814Y1083300D01*
X887176Y1083710D01*
X887552Y1084109D01*
X887590Y1084179D01*
X887643Y1084239D01*
X887892Y1084726D01*
X888157Y1085205D01*
X888177Y1085283D01*
X888213Y1085354D01*
X888333Y1085886D01*
X888470Y1086417D01*
X888478Y1086528D01*
X888488Y1086576D01*
X888486Y1086657D01*
X888511Y1087054D01*
X888511Y1112946D01*
X888443Y1113489D01*
X888391Y1114034D01*
X888364Y1114109D01*
X888354Y1114189D01*
X888153Y1114698D01*
X887968Y1115212D01*
X887923Y1115279D01*
X887893Y1115353D01*
X887571Y1115797D01*
X887265Y1116249D01*
X887205Y1116302D01*
X887158Y1116367D01*
X886736Y1116716D01*
X886326Y1117078D01*
X886255Y1117115D01*
X886193Y1117166D01*
X885697Y1117399D01*
X885211Y1117648D01*
X885133Y1117665D01*
X885061Y1117700D01*
X884523Y1117803D01*
X883989Y1117923D01*
X883909Y1117920D01*
X883831Y1117935D01*
X883285Y1117902D01*
X882738Y1117885D01*
X882661Y1117863D01*
X882581Y1117858D01*
X882060Y1117690D01*
X881534Y1117538D01*
X881465Y1117497D01*
X881389Y1117473D01*
X880927Y1117180D01*
X880455Y1116902D01*
X880372Y1116829D01*
X880331Y1116803D01*
X880275Y1116743D01*
X879977Y1116481D01*
X878737Y1115241D01*
X863667Y1108999D01*
X847356Y1108999D01*
X832287Y1115241D01*
X820753Y1126775D01*
X814511Y1141844D01*
X814511Y1158156D01*
X820753Y1173225D01*
X832287Y1184759D01*
X847356Y1191001D01*
X863667Y1191001D01*
X878737Y1184759D01*
X890271Y1173225D01*
X891341Y1170641D01*
X891437Y1170472D01*
X891503Y1170289D01*
X891746Y1169930D01*
X891961Y1169554D01*
X892097Y1169414D01*
X892206Y1169252D01*
X892531Y1168965D01*
X892832Y1168654D01*
X892998Y1168552D01*
X893145Y1168423D01*
X893531Y1168226D01*
X893900Y1167999D01*
X894086Y1167942D01*
X894260Y1167853D01*
X894683Y1167758D01*
X895097Y1167630D01*
X895291Y1167621D01*
X895482Y1167578D01*
X895915Y1167591D01*
X896347Y1167570D01*
X896538Y1167610D01*
X896733Y1167616D01*
X897150Y1167736D01*
X897574Y1167823D01*
X897749Y1167909D01*
X897937Y1167963D01*
X898310Y1168183D01*
X898699Y1168373D01*
X898848Y1168500D01*
X899016Y1168599D01*
X899494Y1169020D01*
X1064273Y1333798D01*
X1071624Y1336843D01*
X1222137Y1336843D01*
X1222522Y1336892D01*
X1222911Y1336903D01*
X1223141Y1336970D01*
X1223379Y1337000D01*
X1223740Y1337143D01*
X1224114Y1337251D01*
X1224321Y1337373D01*
X1224544Y1337461D01*
X1224858Y1337689D01*
X1225193Y1337886D01*
X1225492Y1338149D01*
X1225557Y1338196D01*
X1225588Y1338234D01*
X1225672Y1338307D01*
X1290522Y1403158D01*
X1290859Y1403591D01*
X1291207Y1404011D01*
X1291241Y1404084D01*
X1291290Y1404147D01*
X1291508Y1404650D01*
X1291741Y1405144D01*
X1291756Y1405223D01*
X1291788Y1405297D01*
X1291873Y1405837D01*
X1291976Y1406374D01*
X1291971Y1406454D01*
X1291984Y1406533D01*
X1291933Y1407077D01*
X1291899Y1407624D01*
X1291874Y1407701D01*
X1291867Y1407780D01*
X1291682Y1408294D01*
X1291514Y1408816D01*
X1291471Y1408884D01*
X1291444Y1408959D01*
X1291138Y1409410D01*
X1290844Y1409874D01*
X1290785Y1409929D01*
X1290741Y1409995D01*
X1290331Y1410357D01*
X1289932Y1410733D01*
X1289862Y1410771D01*
X1289802Y1410825D01*
X1289313Y1411074D01*
X1288836Y1411338D01*
X1288758Y1411358D01*
X1288687Y1411394D01*
X1288154Y1411514D01*
X1287624Y1411652D01*
X1287512Y1411659D01*
X1287465Y1411669D01*
X1287384Y1411667D01*
X1286987Y1411692D01*
X1282781Y1411692D01*
X1266242Y1418543D01*
X1253582Y1431202D01*
X1246732Y1447742D01*
X1246732Y1453621D01*
X1246683Y1454007D01*
X1246671Y1454395D01*
X1246605Y1454626D01*
X1246575Y1454863D01*
X1246432Y1455225D01*
X1246324Y1455598D01*
X1246202Y1455805D01*
X1246114Y1456028D01*
X1245886Y1456342D01*
X1245688Y1456677D01*
X1245426Y1456976D01*
X1245378Y1457041D01*
X1245341Y1457072D01*
X1245267Y1457156D01*
X1156961Y1545463D01*
X1156869Y1545534D01*
X1156795Y1545621D01*
X1156377Y1545915D01*
X1155971Y1546230D01*
X1155866Y1546276D01*
X1155771Y1546342D01*
X1155292Y1546524D01*
X1154822Y1546728D01*
X1154708Y1546746D01*
X1154601Y1546787D01*
X1154091Y1546844D01*
X1153585Y1546924D01*
X1153471Y1546914D01*
X1153356Y1546926D01*
X1152848Y1546855D01*
X1152338Y1546807D01*
X1152230Y1546768D01*
X1152116Y1546752D01*
X1151512Y1546546D01*
X1149109Y1545550D01*
X1131206Y1545550D01*
X1114667Y1552401D01*
X1102008Y1565060D01*
X1095157Y1581600D01*
X1095157Y1599502D01*
X1102008Y1616042D01*
X1114667Y1628701D01*
X1117071Y1629697D01*
X1117171Y1629754D01*
X1117280Y1629789D01*
X1117714Y1630064D01*
X1118158Y1630317D01*
X1118241Y1630397D01*
X1118339Y1630459D01*
X1118691Y1630833D01*
X1119058Y1631188D01*
X1119118Y1631287D01*
X1119197Y1631370D01*
X1119444Y1631818D01*
X1119713Y1632256D01*
X1119747Y1632366D01*
X1119802Y1632467D01*
X1119931Y1632963D01*
X1120082Y1633453D01*
X1120087Y1633567D01*
X1120116Y1633679D01*
X1120157Y1634315D01*
X1120157Y1674854D01*
X1120108Y1675240D01*
X1120096Y1675629D01*
X1120030Y1675859D01*
X1120000Y1676097D01*
X1119857Y1676458D01*
X1119749Y1676832D01*
X1119627Y1677039D01*
X1119539Y1677261D01*
X1119311Y1677576D01*
X1119114Y1677911D01*
X1118851Y1678209D01*
X1118803Y1678275D01*
X1118766Y1678306D01*
X1118692Y1678390D01*
X1107414Y1689668D01*
X1101251Y1704546D01*
X1101251Y1720651D01*
X1107414Y1735529D01*
X1118802Y1746917D01*
X1133680Y1753079D01*
X1149784Y1753079D01*
X1164663Y1746917D01*
X1176050Y1735529D01*
X1182213Y1720651D01*
X1182213Y1704546D01*
X1176050Y1689668D01*
X1164663Y1678280D01*
X1163244Y1677693D01*
X1163144Y1677636D01*
X1163035Y1677600D01*
X1162602Y1677326D01*
X1162156Y1677072D01*
X1162074Y1676992D01*
X1161976Y1676931D01*
X1161625Y1676558D01*
X1161257Y1676201D01*
X1161196Y1676103D01*
X1161118Y1676019D01*
X1160871Y1675572D01*
X1160602Y1675133D01*
X1160568Y1675023D01*
X1160512Y1674922D01*
X1160384Y1674426D01*
X1160233Y1673937D01*
X1160228Y1673822D01*
X1160199Y1673710D01*
X1160158Y1673074D01*
X1160158Y1634315D01*
X1160172Y1634201D01*
X1160163Y1634086D01*
X1160251Y1633582D01*
X1160315Y1633073D01*
X1160357Y1632966D01*
X1160377Y1632852D01*
X1160587Y1632385D01*
X1160776Y1631908D01*
X1160844Y1631815D01*
X1160891Y1631710D01*
X1161210Y1631310D01*
X1161511Y1630895D01*
X1161600Y1630821D01*
X1161672Y1630731D01*
X1162081Y1630423D01*
X1162476Y1630096D01*
X1162580Y1630047D01*
X1162672Y1629978D01*
X1163244Y1629697D01*
X1165648Y1628701D01*
X1178307Y1616042D01*
X1185158Y1599502D01*
X1185158Y1581600D01*
X1184162Y1579196D01*
X1184132Y1579085D01*
X1184079Y1578982D01*
X1183967Y1578484D01*
X1183832Y1577988D01*
X1183830Y1577873D01*
X1183805Y1577761D01*
X1183820Y1577249D01*
X1183812Y1576736D01*
X1183839Y1576624D01*
X1183842Y1576509D01*
X1183984Y1576016D01*
X1184104Y1575518D01*
X1184157Y1575416D01*
X1184189Y1575306D01*
X1184450Y1574863D01*
X1184689Y1574411D01*
X1184766Y1574326D01*
X1184825Y1574226D01*
X1185246Y1573748D01*
X1189945Y1569048D01*
X1190163Y1568880D01*
X1190353Y1568683D01*
X1190655Y1568498D01*
X1190935Y1568281D01*
X1191187Y1568172D01*
X1191421Y1568028D01*
X1191759Y1567924D01*
X1192084Y1567783D01*
X1192355Y1567740D01*
X1192618Y1567659D01*
X1192972Y1567642D01*
X1193321Y1567587D01*
X1193594Y1567612D01*
X1193869Y1567599D01*
X1194215Y1567671D01*
X1194568Y1567704D01*
X1194826Y1567797D01*
X1195095Y1567852D01*
X1195414Y1568008D01*
X1195746Y1568127D01*
X1195974Y1568281D01*
X1196220Y1568402D01*
X1196490Y1568632D01*
X1196783Y1568830D01*
X1196965Y1569036D01*
X1197174Y1569214D01*
X1197378Y1569503D01*
X1197612Y1569769D01*
X1197737Y1570013D01*
X1197895Y1570238D01*
X1198021Y1570569D01*
X1198182Y1570884D01*
X1198242Y1571152D01*
X1198340Y1571409D01*
X1198379Y1571760D01*
X1198457Y1572106D01*
X1198449Y1572380D01*
X1198479Y1572653D01*
X1198430Y1573004D01*
X1198419Y1573358D01*
X1198343Y1573622D01*
X1198305Y1573893D01*
X1198099Y1574497D01*
X1195157Y1581600D01*
X1195157Y1599502D01*
X1202008Y1616042D01*
X1214667Y1628701D01*
X1231206Y1635552D01*
X1249109Y1635552D01*
X1265648Y1628701D01*
X1278307Y1616042D01*
X1285158Y1599502D01*
X1285158Y1581600D01*
X1278307Y1565060D01*
X1265648Y1552401D01*
X1249109Y1545550D01*
X1231206Y1545550D01*
X1224103Y1548493D01*
X1223838Y1548565D01*
X1223586Y1548674D01*
X1223237Y1548730D01*
X1222895Y1548823D01*
X1222620Y1548828D01*
X1222349Y1548871D01*
X1221997Y1548838D01*
X1221643Y1548843D01*
X1221376Y1548779D01*
X1221102Y1548754D01*
X1220769Y1548634D01*
X1220425Y1548552D01*
X1220182Y1548423D01*
X1219924Y1548330D01*
X1219631Y1548132D01*
X1219318Y1547966D01*
X1219114Y1547781D01*
X1218887Y1547627D01*
X1218653Y1547362D01*
X1218391Y1547124D01*
X1218240Y1546895D01*
X1218058Y1546689D01*
X1217897Y1546373D01*
X1217702Y1546078D01*
X1217613Y1545818D01*
X1217488Y1545574D01*
X1217410Y1545228D01*
X1217296Y1544894D01*
X1217274Y1544620D01*
X1217213Y1544352D01*
X1217224Y1543998D01*
X1217196Y1543645D01*
X1217242Y1543375D01*
X1217251Y1543100D01*
X1217349Y1542759D01*
X1217409Y1542411D01*
X1217522Y1542161D01*
X1217598Y1541897D01*
X1217778Y1541592D01*
X1217923Y1541269D01*
X1218094Y1541054D01*
X1218234Y1540818D01*
X1218655Y1540339D01*
X1262401Y1496592D01*
X1262492Y1496522D01*
X1262567Y1496434D01*
X1262985Y1496139D01*
X1263391Y1495825D01*
X1263497Y1495779D01*
X1263591Y1495713D01*
X1264069Y1495531D01*
X1264540Y1495327D01*
X1264654Y1495309D01*
X1264762Y1495268D01*
X1265271Y1495211D01*
X1265777Y1495131D01*
X1265891Y1495141D01*
X1266006Y1495129D01*
X1266513Y1495200D01*
X1267024Y1495248D01*
X1267132Y1495287D01*
X1267246Y1495303D01*
X1267850Y1495509D01*
X1282781Y1501694D01*
X1300683Y1501694D01*
X1317223Y1494843D01*
X1322493Y1489572D01*
X1322647Y1489453D01*
X1322779Y1489308D01*
X1323141Y1489070D01*
X1323483Y1488804D01*
X1323662Y1488727D01*
X1323825Y1488620D01*
X1324234Y1488479D01*
X1324632Y1488307D01*
X1324825Y1488276D01*
X1325009Y1488213D01*
X1325441Y1488178D01*
X1325869Y1488110D01*
X1326063Y1488129D01*
X1326258Y1488113D01*
X1326685Y1488187D01*
X1327116Y1488227D01*
X1327299Y1488293D01*
X1327492Y1488327D01*
X1327887Y1488504D01*
X1328295Y1488651D01*
X1328456Y1488760D01*
X1328634Y1488840D01*
X1328972Y1489110D01*
X1329331Y1489354D01*
X1329460Y1489500D01*
X1329612Y1489622D01*
X1329873Y1489967D01*
X1330160Y1490292D01*
X1330249Y1490466D01*
X1330366Y1490622D01*
X1330647Y1491194D01*
X1331776Y1493920D01*
X1405732Y1567875D01*
X1405970Y1568183D01*
X1406237Y1568465D01*
X1406352Y1568675D01*
X1406500Y1568865D01*
X1406654Y1569222D01*
X1406842Y1569562D01*
X1406902Y1569794D01*
X1406997Y1570014D01*
X1407058Y1570398D01*
X1407156Y1570774D01*
X1407181Y1571171D01*
X1407194Y1571251D01*
X1407189Y1571299D01*
X1407196Y1571410D01*
X1407196Y1581516D01*
X1412334Y1593920D01*
X1421828Y1603414D01*
X1434232Y1608552D01*
X1447658Y1608552D01*
X1460062Y1603414D01*
X1469556Y1593920D01*
X1474694Y1581516D01*
X1474694Y1568090D01*
X1469556Y1555686D01*
X1460062Y1546192D01*
X1447658Y1541054D01*
X1437552Y1541054D01*
X1437167Y1541006D01*
X1436778Y1540994D01*
X1436547Y1540928D01*
X1436310Y1540898D01*
X1435949Y1540755D01*
X1435575Y1540647D01*
X1435368Y1540525D01*
X1435145Y1540437D01*
X1434831Y1540209D01*
X1434496Y1540011D01*
X1434197Y1539749D01*
X1434132Y1539701D01*
X1434101Y1539664D01*
X1434017Y1539590D01*
X1370197Y1475770D01*
X1369959Y1475463D01*
X1369692Y1475180D01*
X1369577Y1474970D01*
X1369430Y1474781D01*
X1369275Y1474424D01*
X1369087Y1474084D01*
X1369027Y1473852D01*
X1368932Y1473631D01*
X1368871Y1473248D01*
X1368773Y1472871D01*
X1368748Y1472475D01*
X1368735Y1472395D01*
X1368740Y1472346D01*
X1368733Y1472235D01*
X1368733Y1429104D01*
X1365688Y1421753D01*
X1243821Y1299887D01*
X1236470Y1296842D01*
X1137923Y1296842D01*
X1137380Y1296773D01*
X1136836Y1296722D01*
X1136760Y1296695D01*
X1136680Y1296685D01*
X1136173Y1296484D01*
X1135657Y1296299D01*
X1135590Y1296254D01*
X1135516Y1296224D01*
X1135075Y1295904D01*
X1134620Y1295596D01*
X1134567Y1295535D01*
X1134502Y1295488D01*
X1134154Y1295068D01*
X1133791Y1294657D01*
X1133755Y1294586D01*
X1133704Y1294524D01*
X1133470Y1294029D01*
X1133221Y1293542D01*
X1133204Y1293464D01*
X1133170Y1293391D01*
X1133067Y1292854D01*
X1132947Y1292320D01*
X1132949Y1292240D01*
X1132934Y1292161D01*
X1132968Y1291616D01*
X1132984Y1291068D01*
X1133006Y1290991D01*
X1133011Y1290911D01*
X1133180Y1290390D01*
X1133331Y1289865D01*
X1133372Y1289796D01*
X1133397Y1289720D01*
X1133690Y1289256D01*
X1133967Y1288786D01*
X1134040Y1288703D01*
X1134066Y1288661D01*
X1134126Y1288605D01*
X1134388Y1288307D01*
X1137362Y1285333D01*
X1144213Y1268794D01*
X1144213Y1250891D01*
X1137362Y1234352D01*
X1124703Y1221693D01*
X1108164Y1214842D01*
X1090261Y1214842D01*
X1073722Y1221693D01*
X1061063Y1234352D01*
X1054212Y1250891D01*
X1054212Y1255098D01*
X1054143Y1255641D01*
X1054092Y1256185D01*
X1054065Y1256260D01*
X1054055Y1256340D01*
X1053854Y1256849D01*
X1053669Y1257364D01*
X1053624Y1257430D01*
X1053594Y1257505D01*
X1053273Y1257947D01*
X1052966Y1258400D01*
X1052906Y1258453D01*
X1052859Y1258518D01*
X1052438Y1258867D01*
X1052027Y1259229D01*
X1051956Y1259266D01*
X1051894Y1259317D01*
X1051401Y1259549D01*
X1050912Y1259799D01*
X1050834Y1259817D01*
X1050761Y1259851D01*
X1050225Y1259954D01*
X1049690Y1260074D01*
X1049610Y1260071D01*
X1049531Y1260087D01*
X1048986Y1260053D01*
X1048438Y1260037D01*
X1048361Y1260014D01*
X1048281Y1260009D01*
X1047761Y1259841D01*
X1047235Y1259689D01*
X1047166Y1259648D01*
X1047090Y1259624D01*
X1046626Y1259331D01*
X1046156Y1259054D01*
X1046073Y1258980D01*
X1046031Y1258954D01*
X1045975Y1258895D01*
X1045678Y1258633D01*
X929977Y1142932D01*
X929738Y1142624D01*
X929472Y1142342D01*
X929356Y1142132D01*
X929209Y1141942D01*
X929055Y1141585D01*
X928867Y1141245D01*
X928807Y1141013D01*
X928711Y1140793D01*
X928650Y1140409D01*
X928553Y1140033D01*
X928528Y1139636D01*
X928515Y1139556D01*
X928520Y1139508D01*
X928512Y1139397D01*
X928512Y666387D01*
X928561Y666002D01*
X928573Y665613D01*
X928639Y665383D01*
X928669Y665145D01*
X928812Y664784D01*
X928920Y664410D01*
X929042Y664203D01*
X929130Y663980D01*
X929358Y663666D01*
X929556Y663331D01*
X929818Y663032D01*
X929866Y662967D01*
X929903Y662936D01*
X929977Y662852D01*
X1132035Y460794D01*
X1135079Y453443D01*
X1135079Y385380D01*
X1132035Y378029D01*
X902049Y148044D01*
X894699Y144999D01*
X590734Y144999D01*
G37*
%LPD*%
G36*
X819001Y217069D02*
X819001Y217069D01*
X819546Y217120D01*
X819621Y217148D01*
X819701Y217157D01*
X820210Y217359D01*
X820724Y217544D01*
X820790Y217589D01*
X820865Y217618D01*
X821309Y217940D01*
X821761Y218247D01*
X821814Y218307D01*
X821879Y218354D01*
X822228Y218776D01*
X822590Y219185D01*
X822626Y219257D01*
X822677Y219318D01*
X822910Y219813D01*
X823160Y220301D01*
X823177Y220378D01*
X823211Y220451D01*
X823315Y220989D01*
X823435Y221522D01*
X823432Y221602D01*
X823447Y221681D01*
X823414Y222227D01*
X823397Y222774D01*
X823375Y222851D01*
X823370Y222931D01*
X823202Y223452D01*
X823050Y223977D01*
X823009Y224046D01*
X822984Y224123D01*
X822692Y224585D01*
X822414Y225056D01*
X822341Y225140D01*
X822315Y225181D01*
X822255Y225237D01*
X821993Y225535D01*
X820753Y226775D01*
X814511Y241844D01*
X814511Y258156D01*
X820753Y273225D01*
X832287Y284759D01*
X847356Y291001D01*
X863667Y291001D01*
X878737Y284759D01*
X880422Y283073D01*
X880577Y282953D01*
X880708Y282809D01*
X881069Y282571D01*
X881412Y282305D01*
X881592Y282227D01*
X881754Y282120D01*
X882163Y281980D01*
X882561Y281807D01*
X882754Y281777D01*
X882938Y281714D01*
X883370Y281679D01*
X883798Y281611D01*
X883992Y281629D01*
X884187Y281614D01*
X884614Y281688D01*
X885045Y281728D01*
X885228Y281794D01*
X885421Y281827D01*
X885816Y282005D01*
X886223Y282151D01*
X886385Y282261D01*
X886563Y282341D01*
X886901Y282611D01*
X887260Y282854D01*
X887389Y283001D01*
X887541Y283122D01*
X887802Y283468D01*
X888089Y283793D01*
X888178Y283967D01*
X888295Y284123D01*
X888576Y284695D01*
X891556Y291888D01*
X897885Y298218D01*
X1000118Y400451D01*
X1000189Y400542D01*
X1000277Y400616D01*
X1000572Y401035D01*
X1000886Y401440D01*
X1000932Y401546D01*
X1000998Y401640D01*
X1001180Y402119D01*
X1001384Y402589D01*
X1001402Y402703D01*
X1001443Y402811D01*
X1001500Y403320D01*
X1001580Y403826D01*
X1001569Y403941D01*
X1001582Y404055D01*
X1001511Y404563D01*
X1001463Y405073D01*
X1001424Y405182D01*
X1001408Y405296D01*
X1001202Y405899D01*
X998495Y412433D01*
X998495Y433236D01*
X1006456Y452455D01*
X1021166Y467166D01*
X1040386Y475127D01*
X1049063Y475127D01*
X1049606Y475195D01*
X1050150Y475246D01*
X1050225Y475273D01*
X1050305Y475283D01*
X1050814Y475485D01*
X1051329Y475670D01*
X1051395Y475715D01*
X1051470Y475744D01*
X1051912Y476066D01*
X1052365Y476373D01*
X1052418Y476433D01*
X1052483Y476480D01*
X1052832Y476901D01*
X1053194Y477311D01*
X1053231Y477383D01*
X1053282Y477444D01*
X1053514Y477938D01*
X1053764Y478426D01*
X1053782Y478505D01*
X1053816Y478577D01*
X1053919Y479113D01*
X1054039Y479648D01*
X1054037Y479728D01*
X1054052Y479807D01*
X1054018Y480353D01*
X1054002Y480900D01*
X1053979Y480977D01*
X1053974Y481057D01*
X1053806Y481577D01*
X1053654Y482103D01*
X1053614Y482172D01*
X1053589Y482249D01*
X1053296Y482712D01*
X1053019Y483182D01*
X1052945Y483266D01*
X1052919Y483307D01*
X1052860Y483363D01*
X1052598Y483661D01*
X901188Y635070D01*
X901034Y635190D01*
X900903Y635334D01*
X900542Y635572D01*
X900199Y635838D01*
X900020Y635915D01*
X899857Y636022D01*
X899447Y636163D01*
X899050Y636335D01*
X898857Y636366D01*
X898673Y636429D01*
X898241Y636464D01*
X897813Y636532D01*
X897619Y636514D01*
X897424Y636529D01*
X896997Y636455D01*
X896566Y636415D01*
X896383Y636349D01*
X896190Y636315D01*
X895795Y636138D01*
X895387Y635991D01*
X895226Y635882D01*
X895048Y635802D01*
X894710Y635532D01*
X894351Y635288D01*
X894222Y635142D01*
X894069Y635020D01*
X893809Y634675D01*
X893522Y634350D01*
X893433Y634176D01*
X893316Y634020D01*
X893035Y633448D01*
X890271Y626775D01*
X878737Y615241D01*
X863667Y608999D01*
X847356Y608999D01*
X832287Y615241D01*
X820753Y626775D01*
X820696Y626913D01*
X820658Y626980D01*
X820641Y627033D01*
X820624Y627059D01*
X820603Y627123D01*
X820330Y627555D01*
X820076Y628001D01*
X819995Y628084D01*
X819934Y628181D01*
X819561Y628532D01*
X819204Y628900D01*
X819106Y628961D01*
X819022Y629040D01*
X818574Y629287D01*
X818137Y629555D01*
X818027Y629589D01*
X817926Y629645D01*
X817429Y629773D01*
X816940Y629924D01*
X816825Y629930D01*
X816713Y629959D01*
X816077Y629999D01*
X669356Y629999D01*
X669241Y629985D01*
X669126Y629994D01*
X668622Y629907D01*
X668113Y629842D01*
X668006Y629800D01*
X667892Y629780D01*
X667426Y629570D01*
X666949Y629382D01*
X666855Y629314D01*
X666750Y629267D01*
X666350Y628947D01*
X665935Y628646D01*
X665862Y628557D01*
X665772Y628485D01*
X665464Y628076D01*
X665137Y627681D01*
X665087Y627577D01*
X665018Y627485D01*
X664737Y626913D01*
X664680Y626775D01*
X653146Y615241D01*
X638077Y608999D01*
X621766Y608999D01*
X606696Y615241D01*
X605456Y616481D01*
X605024Y616816D01*
X604603Y617166D01*
X604530Y617200D01*
X604467Y617249D01*
X603965Y617466D01*
X603470Y617700D01*
X603391Y617715D01*
X603318Y617747D01*
X602776Y617833D01*
X602240Y617935D01*
X602160Y617930D01*
X602081Y617943D01*
X601537Y617892D01*
X600990Y617858D01*
X600913Y617833D01*
X600834Y617826D01*
X600320Y617641D01*
X599798Y617473D01*
X599731Y617430D01*
X599655Y617403D01*
X599203Y617096D01*
X598740Y616803D01*
X598685Y616744D01*
X598619Y616700D01*
X598257Y616290D01*
X597881Y615891D01*
X597843Y615821D01*
X597790Y615761D01*
X597541Y615274D01*
X597276Y614795D01*
X597256Y614717D01*
X597220Y614646D01*
X597100Y614114D01*
X596962Y613583D01*
X596955Y613471D01*
X596945Y613424D01*
X596947Y613343D01*
X596922Y612946D01*
X596922Y487054D01*
X596990Y486510D01*
X597042Y485966D01*
X597069Y485890D01*
X597079Y485811D01*
X597280Y485302D01*
X597465Y484787D01*
X597510Y484721D01*
X597539Y484647D01*
X597861Y484203D01*
X598168Y483751D01*
X598228Y483698D01*
X598275Y483633D01*
X598697Y483284D01*
X599107Y482922D01*
X599178Y482885D01*
X599240Y482834D01*
X599735Y482601D01*
X600222Y482352D01*
X600300Y482335D01*
X600372Y482300D01*
X600910Y482197D01*
X601444Y482077D01*
X601524Y482079D01*
X601602Y482064D01*
X602148Y482098D01*
X602695Y482115D01*
X602772Y482137D01*
X602852Y482142D01*
X603373Y482310D01*
X603899Y482462D01*
X603968Y482503D01*
X604044Y482527D01*
X604506Y482820D01*
X604978Y483097D01*
X605061Y483171D01*
X605102Y483197D01*
X605158Y483256D01*
X605456Y483519D01*
X606696Y484759D01*
X621766Y491001D01*
X638077Y491001D01*
X653146Y484759D01*
X664680Y473225D01*
X664737Y473087D01*
X664794Y472987D01*
X664830Y472877D01*
X665103Y472444D01*
X665357Y471999D01*
X665438Y471916D01*
X665499Y471819D01*
X665872Y471468D01*
X666229Y471099D01*
X666327Y471039D01*
X666411Y470960D01*
X666859Y470713D01*
X667296Y470445D01*
X667406Y470411D01*
X667507Y470355D01*
X668004Y470227D01*
X668493Y470076D01*
X668608Y470070D01*
X668720Y470041D01*
X669356Y470001D01*
X816077Y470001D01*
X816192Y470015D01*
X816306Y470006D01*
X816811Y470093D01*
X817320Y470157D01*
X817427Y470200D01*
X817540Y470220D01*
X818007Y470430D01*
X818484Y470618D01*
X818578Y470686D01*
X818683Y470733D01*
X819083Y471053D01*
X819498Y471354D01*
X819571Y471443D01*
X819661Y471515D01*
X819969Y471923D01*
X820296Y472318D01*
X820345Y472423D01*
X820415Y472515D01*
X820696Y473087D01*
X820753Y473225D01*
X832287Y484759D01*
X847356Y491001D01*
X863667Y491001D01*
X878737Y484759D01*
X890271Y473225D01*
X896512Y458156D01*
X896512Y441844D01*
X890271Y426775D01*
X878737Y415241D01*
X863667Y408999D01*
X847356Y408999D01*
X832287Y415241D01*
X820753Y426775D01*
X820696Y426913D01*
X820651Y426991D01*
X820628Y427062D01*
X820617Y427080D01*
X820603Y427123D01*
X820330Y427555D01*
X820076Y428001D01*
X819995Y428084D01*
X819934Y428181D01*
X819561Y428532D01*
X819204Y428900D01*
X819106Y428961D01*
X819022Y429040D01*
X818574Y429287D01*
X818137Y429555D01*
X818027Y429589D01*
X817926Y429645D01*
X817429Y429773D01*
X816940Y429924D01*
X816825Y429930D01*
X816713Y429959D01*
X816077Y429999D01*
X669356Y429999D01*
X669241Y429985D01*
X669126Y429994D01*
X668622Y429907D01*
X668113Y429842D01*
X668006Y429800D01*
X667892Y429780D01*
X667426Y429570D01*
X666949Y429382D01*
X666855Y429314D01*
X666750Y429267D01*
X666350Y428947D01*
X665935Y428646D01*
X665862Y428557D01*
X665772Y428485D01*
X665464Y428076D01*
X665137Y427681D01*
X665087Y427577D01*
X665018Y427485D01*
X664737Y426913D01*
X664680Y426775D01*
X653146Y415241D01*
X638077Y408999D01*
X621766Y408999D01*
X606696Y415241D01*
X605456Y416481D01*
X605024Y416816D01*
X604603Y417166D01*
X604530Y417200D01*
X604467Y417249D01*
X603965Y417466D01*
X603470Y417700D01*
X603391Y417715D01*
X603318Y417747D01*
X602776Y417833D01*
X602240Y417935D01*
X602160Y417930D01*
X602081Y417943D01*
X601537Y417892D01*
X600990Y417858D01*
X600913Y417833D01*
X600834Y417826D01*
X600320Y417641D01*
X599798Y417473D01*
X599731Y417430D01*
X599655Y417403D01*
X599203Y417096D01*
X598740Y416803D01*
X598685Y416744D01*
X598619Y416700D01*
X598257Y416290D01*
X597881Y415891D01*
X597843Y415821D01*
X597790Y415761D01*
X597541Y415274D01*
X597276Y414795D01*
X597256Y414717D01*
X597220Y414646D01*
X597100Y414114D01*
X596962Y413583D01*
X596955Y413471D01*
X596945Y413424D01*
X596947Y413343D01*
X596922Y412946D01*
X596922Y387054D01*
X596990Y386510D01*
X597042Y385966D01*
X597069Y385890D01*
X597079Y385811D01*
X597280Y385302D01*
X597465Y384787D01*
X597510Y384721D01*
X597539Y384647D01*
X597861Y384203D01*
X598168Y383751D01*
X598228Y383698D01*
X598275Y383633D01*
X598697Y383284D01*
X599107Y382922D01*
X599178Y382885D01*
X599240Y382834D01*
X599735Y382601D01*
X600222Y382352D01*
X600300Y382335D01*
X600372Y382300D01*
X600910Y382197D01*
X601444Y382077D01*
X601524Y382079D01*
X601602Y382064D01*
X602148Y382098D01*
X602695Y382115D01*
X602772Y382137D01*
X602852Y382142D01*
X603373Y382310D01*
X603899Y382462D01*
X603968Y382503D01*
X604044Y382527D01*
X604506Y382820D01*
X604978Y383097D01*
X605061Y383171D01*
X605102Y383197D01*
X605158Y383256D01*
X605456Y383519D01*
X606696Y384759D01*
X621766Y391001D01*
X638077Y391001D01*
X653146Y384759D01*
X664680Y373225D01*
X664737Y373087D01*
X664794Y372987D01*
X664830Y372877D01*
X665103Y372444D01*
X665357Y371999D01*
X665438Y371916D01*
X665499Y371819D01*
X665872Y371468D01*
X666229Y371099D01*
X666327Y371039D01*
X666411Y370960D01*
X666859Y370713D01*
X667296Y370445D01*
X667406Y370411D01*
X667507Y370355D01*
X668004Y370227D01*
X668493Y370076D01*
X668608Y370070D01*
X668720Y370041D01*
X669356Y370001D01*
X816077Y370001D01*
X816192Y370015D01*
X816306Y370006D01*
X816811Y370093D01*
X817320Y370157D01*
X817427Y370200D01*
X817540Y370220D01*
X818007Y370430D01*
X818484Y370618D01*
X818578Y370686D01*
X818683Y370733D01*
X819083Y371053D01*
X819498Y371354D01*
X819571Y371443D01*
X819661Y371515D01*
X819969Y371923D01*
X820296Y372318D01*
X820345Y372423D01*
X820415Y372515D01*
X820696Y373087D01*
X820753Y373225D01*
X832287Y384759D01*
X847356Y391001D01*
X863667Y391001D01*
X878737Y384759D01*
X890271Y373225D01*
X896512Y358156D01*
X896512Y341844D01*
X890271Y326775D01*
X878737Y315241D01*
X863667Y308999D01*
X847356Y308999D01*
X832287Y315241D01*
X820753Y326775D01*
X820696Y326913D01*
X820648Y326997D01*
X820622Y327077D01*
X820614Y327090D01*
X820603Y327123D01*
X820330Y327555D01*
X820076Y328001D01*
X819995Y328084D01*
X819934Y328181D01*
X819561Y328532D01*
X819204Y328900D01*
X819106Y328961D01*
X819022Y329040D01*
X818574Y329287D01*
X818137Y329555D01*
X818027Y329589D01*
X817926Y329645D01*
X817429Y329773D01*
X816940Y329924D01*
X816825Y329930D01*
X816713Y329959D01*
X816077Y329999D01*
X669356Y329999D01*
X669241Y329985D01*
X669126Y329994D01*
X668622Y329907D01*
X668113Y329842D01*
X668006Y329800D01*
X667892Y329780D01*
X667426Y329570D01*
X666949Y329382D01*
X666855Y329314D01*
X666750Y329267D01*
X666350Y328947D01*
X665935Y328646D01*
X665862Y328557D01*
X665772Y328485D01*
X665464Y328076D01*
X665137Y327681D01*
X665087Y327577D01*
X665018Y327485D01*
X664737Y326913D01*
X664680Y326775D01*
X653146Y315241D01*
X638077Y308999D01*
X621766Y308999D01*
X606696Y315241D01*
X605456Y316481D01*
X605024Y316816D01*
X604603Y317166D01*
X604530Y317200D01*
X604467Y317249D01*
X603965Y317466D01*
X603470Y317700D01*
X603391Y317715D01*
X603318Y317747D01*
X602776Y317833D01*
X602240Y317935D01*
X602160Y317930D01*
X602081Y317943D01*
X601537Y317892D01*
X600990Y317858D01*
X600913Y317833D01*
X600834Y317826D01*
X600320Y317641D01*
X599798Y317473D01*
X599731Y317430D01*
X599655Y317403D01*
X599203Y317096D01*
X598740Y316803D01*
X598685Y316744D01*
X598619Y316700D01*
X598257Y316290D01*
X597881Y315891D01*
X597843Y315821D01*
X597790Y315761D01*
X597541Y315274D01*
X597276Y314795D01*
X597256Y314717D01*
X597220Y314646D01*
X597100Y314114D01*
X596962Y313583D01*
X596955Y313471D01*
X596945Y313424D01*
X596947Y313343D01*
X596922Y312946D01*
X596922Y287054D01*
X596991Y286509D01*
X597042Y285966D01*
X597069Y285890D01*
X597079Y285811D01*
X597280Y285302D01*
X597465Y284787D01*
X597510Y284721D01*
X597539Y284647D01*
X597861Y284203D01*
X598168Y283751D01*
X598228Y283698D01*
X598275Y283633D01*
X598697Y283284D01*
X599107Y282922D01*
X599178Y282885D01*
X599240Y282834D01*
X599735Y282601D01*
X600222Y282352D01*
X600300Y282335D01*
X600372Y282300D01*
X600910Y282197D01*
X601444Y282077D01*
X601524Y282079D01*
X601602Y282064D01*
X602148Y282098D01*
X602695Y282115D01*
X602772Y282137D01*
X602852Y282142D01*
X603373Y282310D01*
X603899Y282462D01*
X603968Y282503D01*
X604044Y282527D01*
X604506Y282820D01*
X604978Y283097D01*
X605061Y283171D01*
X605102Y283197D01*
X605158Y283256D01*
X605456Y283519D01*
X606696Y284759D01*
X621766Y291001D01*
X638077Y291001D01*
X653146Y284759D01*
X664680Y273225D01*
X670922Y258156D01*
X670922Y241844D01*
X664680Y226775D01*
X663440Y225535D01*
X663105Y225103D01*
X662756Y224681D01*
X662721Y224609D01*
X662672Y224546D01*
X662455Y224043D01*
X662221Y223549D01*
X662206Y223470D01*
X662174Y223396D01*
X662089Y222855D01*
X661986Y222319D01*
X661991Y222239D01*
X661978Y222159D01*
X662029Y221616D01*
X662063Y221069D01*
X662088Y220992D01*
X662095Y220913D01*
X662280Y220398D01*
X662449Y219877D01*
X662491Y219809D01*
X662518Y219734D01*
X662825Y219282D01*
X663118Y218819D01*
X663177Y218764D01*
X663221Y218698D01*
X663631Y218336D01*
X664030Y217960D01*
X664100Y217922D01*
X664160Y217868D01*
X664647Y217619D01*
X665126Y217355D01*
X665204Y217335D01*
X665275Y217298D01*
X665807Y217179D01*
X666339Y217041D01*
X666450Y217034D01*
X666497Y217023D01*
X666578Y217026D01*
X666975Y217001D01*
X818458Y217001D01*
X819001Y217069D01*
G37*
%LPC*%
G36*
X228065Y1408999D02*
X228065Y1408999D01*
X212996Y1415241D01*
X201462Y1426775D01*
X195220Y1441844D01*
X195220Y1458156D01*
X201462Y1473225D01*
X212996Y1484759D01*
X228065Y1491001D01*
X244376Y1491001D01*
X257771Y1485452D01*
X257882Y1485422D01*
X257984Y1485370D01*
X258484Y1485257D01*
X258978Y1485122D01*
X259094Y1485120D01*
X259206Y1485095D01*
X259718Y1485110D01*
X260231Y1485102D01*
X260343Y1485129D01*
X260458Y1485132D01*
X260950Y1485274D01*
X261449Y1485394D01*
X261550Y1485448D01*
X261661Y1485479D01*
X262102Y1485739D01*
X262556Y1485979D01*
X262641Y1486057D01*
X262740Y1486115D01*
X263219Y1486536D01*
X590309Y1813626D01*
X596638Y1819956D01*
X603989Y1823001D01*
X881444Y1823001D01*
X888795Y1819956D01*
X895123Y1813627D01*
X895124Y1813626D01*
X919138Y1789612D01*
X925468Y1783283D01*
X928512Y1775932D01*
X928512Y1536883D01*
X928561Y1536497D01*
X928573Y1536109D01*
X928639Y1535878D01*
X928669Y1535640D01*
X928812Y1535279D01*
X928920Y1534906D01*
X929042Y1534699D01*
X929130Y1534476D01*
X929358Y1534161D01*
X929556Y1533826D01*
X929818Y1533528D01*
X929866Y1533462D01*
X929903Y1533432D01*
X929977Y1533348D01*
X965464Y1497861D01*
X965555Y1497790D01*
X965629Y1497703D01*
X966048Y1497408D01*
X966453Y1497093D01*
X966559Y1497047D01*
X966653Y1496981D01*
X967132Y1496799D01*
X967602Y1496595D01*
X967716Y1496577D01*
X967824Y1496537D01*
X968333Y1496479D01*
X968839Y1496399D01*
X968954Y1496410D01*
X969068Y1496397D01*
X969576Y1496468D01*
X970086Y1496516D01*
X970195Y1496555D01*
X970308Y1496571D01*
X970912Y1496777D01*
X982781Y1501694D01*
X1000683Y1501694D01*
X1017223Y1494843D01*
X1029882Y1482184D01*
X1036733Y1465644D01*
X1036733Y1447742D01*
X1029882Y1431202D01*
X1017223Y1418543D01*
X1000683Y1411692D01*
X982781Y1411692D01*
X966242Y1418543D01*
X953582Y1431202D01*
X946732Y1447742D01*
X946732Y1457952D01*
X946683Y1458337D01*
X946671Y1458726D01*
X946605Y1458956D01*
X946575Y1459194D01*
X946432Y1459555D01*
X946324Y1459929D01*
X946202Y1460136D01*
X946114Y1460359D01*
X945886Y1460673D01*
X945688Y1461008D01*
X945426Y1461307D01*
X945378Y1461372D01*
X945341Y1461403D01*
X945267Y1461487D01*
X891556Y1515198D01*
X890652Y1517381D01*
X890555Y1517550D01*
X890489Y1517734D01*
X890246Y1518092D01*
X890032Y1518469D01*
X889896Y1518609D01*
X889786Y1518770D01*
X889461Y1519057D01*
X889160Y1519368D01*
X888994Y1519470D01*
X888848Y1519599D01*
X888461Y1519797D01*
X888093Y1520023D01*
X887907Y1520080D01*
X887733Y1520169D01*
X887310Y1520264D01*
X886896Y1520392D01*
X886701Y1520401D01*
X886511Y1520444D01*
X886077Y1520431D01*
X885645Y1520452D01*
X885454Y1520412D01*
X885259Y1520407D01*
X884842Y1520286D01*
X884419Y1520199D01*
X884244Y1520113D01*
X884056Y1520059D01*
X883683Y1519839D01*
X883293Y1519649D01*
X883145Y1519523D01*
X882977Y1519424D01*
X882498Y1519003D01*
X878737Y1515241D01*
X863667Y1508999D01*
X847356Y1508999D01*
X832287Y1515241D01*
X820753Y1526775D01*
X814511Y1541844D01*
X814511Y1558156D01*
X820753Y1573225D01*
X832287Y1584759D01*
X847356Y1591001D01*
X863667Y1591001D01*
X878737Y1584759D01*
X879977Y1583519D01*
X880409Y1583184D01*
X880830Y1582834D01*
X880903Y1582800D01*
X880966Y1582751D01*
X881468Y1582533D01*
X881963Y1582300D01*
X882042Y1582285D01*
X882115Y1582253D01*
X882657Y1582167D01*
X883193Y1582064D01*
X883273Y1582069D01*
X883352Y1582057D01*
X883896Y1582108D01*
X884443Y1582142D01*
X884520Y1582166D01*
X884599Y1582174D01*
X885113Y1582359D01*
X885635Y1582527D01*
X885702Y1582570D01*
X885778Y1582597D01*
X886230Y1582904D01*
X886693Y1583197D01*
X886748Y1583255D01*
X886814Y1583300D01*
X887176Y1583710D01*
X887552Y1584109D01*
X887590Y1584179D01*
X887643Y1584239D01*
X887892Y1584726D01*
X888157Y1585205D01*
X888177Y1585283D01*
X888213Y1585354D01*
X888333Y1585886D01*
X888470Y1586417D01*
X888478Y1586528D01*
X888488Y1586576D01*
X888486Y1586657D01*
X888511Y1587054D01*
X888511Y1612946D01*
X888443Y1613489D01*
X888391Y1614034D01*
X888364Y1614109D01*
X888354Y1614189D01*
X888153Y1614698D01*
X887968Y1615212D01*
X887923Y1615279D01*
X887893Y1615353D01*
X887571Y1615797D01*
X887265Y1616249D01*
X887205Y1616302D01*
X887158Y1616367D01*
X886736Y1616716D01*
X886326Y1617078D01*
X886255Y1617115D01*
X886193Y1617166D01*
X885697Y1617399D01*
X885211Y1617648D01*
X885133Y1617665D01*
X885061Y1617700D01*
X884523Y1617803D01*
X883989Y1617923D01*
X883909Y1617920D01*
X883831Y1617935D01*
X883285Y1617902D01*
X882738Y1617885D01*
X882661Y1617863D01*
X882581Y1617858D01*
X882060Y1617690D01*
X881534Y1617538D01*
X881465Y1617497D01*
X881389Y1617473D01*
X880927Y1617180D01*
X880455Y1616902D01*
X880372Y1616829D01*
X880331Y1616803D01*
X880275Y1616743D01*
X879977Y1616481D01*
X878737Y1615241D01*
X863667Y1608999D01*
X847356Y1608999D01*
X832287Y1615241D01*
X820753Y1626775D01*
X814511Y1641844D01*
X814511Y1658156D01*
X820753Y1673225D01*
X832287Y1684759D01*
X847356Y1691001D01*
X863667Y1691001D01*
X878737Y1684759D01*
X879977Y1683519D01*
X880409Y1683184D01*
X880830Y1682834D01*
X880903Y1682800D01*
X880966Y1682751D01*
X881468Y1682533D01*
X881963Y1682300D01*
X882042Y1682285D01*
X882115Y1682253D01*
X882657Y1682167D01*
X883193Y1682064D01*
X883273Y1682069D01*
X883352Y1682057D01*
X883896Y1682108D01*
X884443Y1682142D01*
X884520Y1682166D01*
X884599Y1682174D01*
X885113Y1682359D01*
X885635Y1682527D01*
X885702Y1682570D01*
X885778Y1682597D01*
X886230Y1682904D01*
X886693Y1683197D01*
X886748Y1683255D01*
X886814Y1683300D01*
X887176Y1683710D01*
X887552Y1684109D01*
X887590Y1684179D01*
X887643Y1684239D01*
X887892Y1684726D01*
X888157Y1685205D01*
X888177Y1685283D01*
X888213Y1685354D01*
X888333Y1685886D01*
X888470Y1686417D01*
X888478Y1686528D01*
X888488Y1686576D01*
X888486Y1686657D01*
X888511Y1687054D01*
X888511Y1712946D01*
X888443Y1713489D01*
X888391Y1714034D01*
X888364Y1714109D01*
X888354Y1714189D01*
X888153Y1714698D01*
X887968Y1715212D01*
X887923Y1715279D01*
X887893Y1715353D01*
X887571Y1715797D01*
X887265Y1716249D01*
X887205Y1716302D01*
X887158Y1716367D01*
X886736Y1716716D01*
X886326Y1717078D01*
X886255Y1717115D01*
X886193Y1717166D01*
X885697Y1717399D01*
X885211Y1717648D01*
X885133Y1717665D01*
X885061Y1717700D01*
X884523Y1717803D01*
X883989Y1717923D01*
X883909Y1717920D01*
X883831Y1717935D01*
X883285Y1717902D01*
X882738Y1717885D01*
X882661Y1717863D01*
X882581Y1717858D01*
X882060Y1717690D01*
X881534Y1717538D01*
X881465Y1717497D01*
X881389Y1717473D01*
X880927Y1717180D01*
X880455Y1716902D01*
X880372Y1716829D01*
X880331Y1716803D01*
X880275Y1716743D01*
X879977Y1716481D01*
X878737Y1715241D01*
X863667Y1708999D01*
X847356Y1708999D01*
X832287Y1715241D01*
X820753Y1726775D01*
X814511Y1741844D01*
X814511Y1758156D01*
X820753Y1773225D01*
X821993Y1774465D01*
X822328Y1774897D01*
X822677Y1775319D01*
X822712Y1775391D01*
X822761Y1775454D01*
X822978Y1775956D01*
X823211Y1776451D01*
X823227Y1776530D01*
X823258Y1776604D01*
X823344Y1777145D01*
X823447Y1777681D01*
X823442Y1777761D01*
X823455Y1777840D01*
X823404Y1778384D01*
X823370Y1778931D01*
X823345Y1779008D01*
X823338Y1779087D01*
X823153Y1779601D01*
X822984Y1780123D01*
X822942Y1780190D01*
X822914Y1780266D01*
X822608Y1780718D01*
X822315Y1781181D01*
X822256Y1781236D01*
X822211Y1781302D01*
X821802Y1781664D01*
X821403Y1782040D01*
X821333Y1782078D01*
X821273Y1782132D01*
X820786Y1782381D01*
X820307Y1782645D01*
X820229Y1782665D01*
X820158Y1782701D01*
X819626Y1782821D01*
X819094Y1782959D01*
X818983Y1782966D01*
X818936Y1782976D01*
X818855Y1782974D01*
X818458Y1782999D01*
X666975Y1782999D01*
X666432Y1782931D01*
X665887Y1782880D01*
X665812Y1782852D01*
X665732Y1782842D01*
X665223Y1782641D01*
X664709Y1782456D01*
X664642Y1782411D01*
X664568Y1782382D01*
X664124Y1782060D01*
X663672Y1781753D01*
X663619Y1781693D01*
X663554Y1781646D01*
X663205Y1781224D01*
X662843Y1780815D01*
X662807Y1780743D01*
X662756Y1780681D01*
X662522Y1780186D01*
X662273Y1779699D01*
X662256Y1779621D01*
X662221Y1779549D01*
X662118Y1779011D01*
X661998Y1778478D01*
X662001Y1778397D01*
X661986Y1778319D01*
X662019Y1777773D01*
X662036Y1777226D01*
X662058Y1777149D01*
X662063Y1777069D01*
X662231Y1776548D01*
X662383Y1776023D01*
X662424Y1775953D01*
X662449Y1775877D01*
X662741Y1775415D01*
X663019Y1774943D01*
X663092Y1774860D01*
X663118Y1774819D01*
X663178Y1774763D01*
X663440Y1774465D01*
X664680Y1773225D01*
X670922Y1758156D01*
X670922Y1741844D01*
X664680Y1726775D01*
X653146Y1715241D01*
X638077Y1708999D01*
X621766Y1708999D01*
X606696Y1715241D01*
X595162Y1726775D01*
X588921Y1741844D01*
X588921Y1743598D01*
X588852Y1744142D01*
X588801Y1744686D01*
X588774Y1744761D01*
X588764Y1744841D01*
X588562Y1745350D01*
X588377Y1745864D01*
X588332Y1745931D01*
X588303Y1746005D01*
X587981Y1746448D01*
X587674Y1746901D01*
X587614Y1746954D01*
X587567Y1747019D01*
X587146Y1747367D01*
X586736Y1747730D01*
X586664Y1747767D01*
X586603Y1747818D01*
X586109Y1748050D01*
X585621Y1748300D01*
X585542Y1748317D01*
X585470Y1748352D01*
X584933Y1748454D01*
X584399Y1748575D01*
X584319Y1748572D01*
X584240Y1748587D01*
X583695Y1748554D01*
X583147Y1748537D01*
X583070Y1748515D01*
X582990Y1748510D01*
X582470Y1748342D01*
X581944Y1748190D01*
X581875Y1748149D01*
X581798Y1748125D01*
X581335Y1747831D01*
X580865Y1747554D01*
X580781Y1747481D01*
X580740Y1747455D01*
X580684Y1747395D01*
X580386Y1747133D01*
X278685Y1445432D01*
X278447Y1445125D01*
X278181Y1444842D01*
X278065Y1444633D01*
X277918Y1444443D01*
X277763Y1444086D01*
X277575Y1443746D01*
X277515Y1443514D01*
X277420Y1443294D01*
X277359Y1442910D01*
X277262Y1442534D01*
X277236Y1442137D01*
X277224Y1442057D01*
X277228Y1442009D01*
X277221Y1441897D01*
X277221Y1441844D01*
X270979Y1426775D01*
X259445Y1415241D01*
X244376Y1408999D01*
X228065Y1408999D01*
G37*
%LPD*%
%LPC*%
G36*
X1089513Y696732D02*
X1089513Y696732D01*
X1072974Y703582D01*
X1060315Y716242D01*
X1053464Y732781D01*
X1053464Y750683D01*
X1060315Y767223D01*
X1072974Y779882D01*
X1089513Y786733D01*
X1107416Y786733D01*
X1123955Y779882D01*
X1136614Y767223D01*
X1137610Y764819D01*
X1137667Y764719D01*
X1137703Y764609D01*
X1137977Y764175D01*
X1138230Y763731D01*
X1138310Y763649D01*
X1138372Y763551D01*
X1138746Y763199D01*
X1139102Y762832D01*
X1139200Y762771D01*
X1139284Y762692D01*
X1139732Y762445D01*
X1140169Y762177D01*
X1140280Y762143D01*
X1140380Y762087D01*
X1140877Y761959D01*
X1141366Y761808D01*
X1141481Y761802D01*
X1141593Y761773D01*
X1142229Y761733D01*
X1154700Y761733D01*
X1154815Y761747D01*
X1154929Y761738D01*
X1155434Y761826D01*
X1155943Y761890D01*
X1156050Y761932D01*
X1156163Y761952D01*
X1156631Y762162D01*
X1157107Y762351D01*
X1157201Y762418D01*
X1157305Y762465D01*
X1157705Y762785D01*
X1158121Y763086D01*
X1158194Y763175D01*
X1158284Y763247D01*
X1158593Y763656D01*
X1158920Y764051D01*
X1158969Y764155D01*
X1159038Y764247D01*
X1159319Y764819D01*
X1160315Y767223D01*
X1172974Y779882D01*
X1189513Y786733D01*
X1207416Y786733D01*
X1223955Y779882D01*
X1236614Y767223D01*
X1237610Y764819D01*
X1237667Y764719D01*
X1237703Y764609D01*
X1237977Y764175D01*
X1238230Y763731D01*
X1238310Y763649D01*
X1238372Y763551D01*
X1238746Y763199D01*
X1239102Y762832D01*
X1239200Y762771D01*
X1239284Y762692D01*
X1239732Y762445D01*
X1240169Y762177D01*
X1240280Y762143D01*
X1240380Y762087D01*
X1240877Y761959D01*
X1241366Y761808D01*
X1241481Y761802D01*
X1241593Y761773D01*
X1242229Y761733D01*
X1254700Y761733D01*
X1254815Y761747D01*
X1254929Y761738D01*
X1255434Y761826D01*
X1255943Y761890D01*
X1256050Y761932D01*
X1256163Y761952D01*
X1256631Y762162D01*
X1257107Y762351D01*
X1257201Y762418D01*
X1257305Y762465D01*
X1257705Y762785D01*
X1258121Y763086D01*
X1258194Y763175D01*
X1258284Y763247D01*
X1258593Y763656D01*
X1258920Y764051D01*
X1258969Y764155D01*
X1259038Y764247D01*
X1259319Y764819D01*
X1260315Y767223D01*
X1272974Y779882D01*
X1289513Y786733D01*
X1307416Y786733D01*
X1323955Y779882D01*
X1336614Y767223D01*
X1343465Y750683D01*
X1343465Y732781D01*
X1336614Y716242D01*
X1323955Y703582D01*
X1307416Y696732D01*
X1289513Y696732D01*
X1272974Y703582D01*
X1260315Y716242D01*
X1259319Y718645D01*
X1259262Y718745D01*
X1259227Y718855D01*
X1258952Y719289D01*
X1258699Y719733D01*
X1258619Y719816D01*
X1258557Y719913D01*
X1258183Y720266D01*
X1257827Y720633D01*
X1257729Y720693D01*
X1257645Y720772D01*
X1257197Y721019D01*
X1256760Y721288D01*
X1256649Y721322D01*
X1256549Y721377D01*
X1256052Y721506D01*
X1255563Y721656D01*
X1255448Y721662D01*
X1255336Y721691D01*
X1254700Y721732D01*
X1242229Y721732D01*
X1242114Y721717D01*
X1242000Y721726D01*
X1241495Y721639D01*
X1240986Y721575D01*
X1240879Y721532D01*
X1240766Y721513D01*
X1240298Y721303D01*
X1239822Y721114D01*
X1239728Y721046D01*
X1239624Y720999D01*
X1239224Y720680D01*
X1238808Y720378D01*
X1238735Y720289D01*
X1238645Y720218D01*
X1238336Y719809D01*
X1238009Y719414D01*
X1237961Y719310D01*
X1237891Y719218D01*
X1237610Y718645D01*
X1236614Y716242D01*
X1223955Y703582D01*
X1207416Y696732D01*
X1189513Y696732D01*
X1172974Y703582D01*
X1160315Y716242D01*
X1159319Y718645D01*
X1159262Y718745D01*
X1159227Y718855D01*
X1158952Y719289D01*
X1158699Y719733D01*
X1158619Y719816D01*
X1158557Y719913D01*
X1158183Y720266D01*
X1157827Y720633D01*
X1157729Y720693D01*
X1157645Y720772D01*
X1157197Y721019D01*
X1156760Y721288D01*
X1156649Y721322D01*
X1156549Y721377D01*
X1156052Y721506D01*
X1155563Y721656D01*
X1155448Y721662D01*
X1155336Y721691D01*
X1154700Y721732D01*
X1142229Y721732D01*
X1142114Y721717D01*
X1142000Y721726D01*
X1141495Y721639D01*
X1140986Y721575D01*
X1140879Y721532D01*
X1140766Y721513D01*
X1140298Y721303D01*
X1139822Y721114D01*
X1139728Y721046D01*
X1139624Y720999D01*
X1139224Y720680D01*
X1138808Y720378D01*
X1138735Y720289D01*
X1138645Y720218D01*
X1138336Y719809D01*
X1138009Y719414D01*
X1137961Y719310D01*
X1137891Y719218D01*
X1137610Y718645D01*
X1136614Y716242D01*
X1123955Y703582D01*
X1107416Y696732D01*
X1089513Y696732D01*
G37*
%LPD*%
%LPC*%
G36*
X1089513Y1096732D02*
X1089513Y1096732D01*
X1072974Y1103582D01*
X1060315Y1116242D01*
X1053464Y1132781D01*
X1053464Y1150683D01*
X1060315Y1167223D01*
X1072974Y1179882D01*
X1089513Y1186733D01*
X1107416Y1186733D01*
X1123955Y1179882D01*
X1136614Y1167223D01*
X1137610Y1164819D01*
X1137667Y1164719D01*
X1137703Y1164609D01*
X1137977Y1164175D01*
X1138230Y1163731D01*
X1138310Y1163649D01*
X1138372Y1163551D01*
X1138746Y1163199D01*
X1139102Y1162832D01*
X1139200Y1162771D01*
X1139284Y1162692D01*
X1139732Y1162445D01*
X1140169Y1162177D01*
X1140280Y1162143D01*
X1140380Y1162087D01*
X1140877Y1161959D01*
X1141366Y1161808D01*
X1141481Y1161802D01*
X1141593Y1161773D01*
X1142229Y1161733D01*
X1154700Y1161733D01*
X1154815Y1161747D01*
X1154929Y1161738D01*
X1155434Y1161826D01*
X1155943Y1161890D01*
X1156050Y1161932D01*
X1156163Y1161952D01*
X1156631Y1162162D01*
X1157107Y1162351D01*
X1157201Y1162418D01*
X1157305Y1162465D01*
X1157705Y1162785D01*
X1158121Y1163086D01*
X1158194Y1163175D01*
X1158284Y1163247D01*
X1158593Y1163656D01*
X1158920Y1164051D01*
X1158969Y1164155D01*
X1159038Y1164247D01*
X1159319Y1164819D01*
X1160315Y1167223D01*
X1172974Y1179882D01*
X1189513Y1186733D01*
X1207416Y1186733D01*
X1223955Y1179882D01*
X1236614Y1167223D01*
X1237610Y1164819D01*
X1237667Y1164719D01*
X1237703Y1164609D01*
X1237977Y1164175D01*
X1238230Y1163731D01*
X1238310Y1163649D01*
X1238372Y1163551D01*
X1238746Y1163199D01*
X1239102Y1162832D01*
X1239200Y1162771D01*
X1239284Y1162692D01*
X1239732Y1162445D01*
X1240169Y1162177D01*
X1240280Y1162143D01*
X1240380Y1162087D01*
X1240877Y1161959D01*
X1241366Y1161808D01*
X1241481Y1161802D01*
X1241593Y1161773D01*
X1242229Y1161733D01*
X1254700Y1161733D01*
X1254815Y1161747D01*
X1254929Y1161738D01*
X1255434Y1161826D01*
X1255943Y1161890D01*
X1256050Y1161932D01*
X1256163Y1161952D01*
X1256631Y1162162D01*
X1257107Y1162351D01*
X1257201Y1162418D01*
X1257305Y1162465D01*
X1257705Y1162785D01*
X1258121Y1163086D01*
X1258194Y1163175D01*
X1258284Y1163247D01*
X1258593Y1163656D01*
X1258920Y1164051D01*
X1258969Y1164155D01*
X1259038Y1164247D01*
X1259319Y1164819D01*
X1260315Y1167223D01*
X1272974Y1179882D01*
X1289513Y1186733D01*
X1307416Y1186733D01*
X1323955Y1179882D01*
X1336614Y1167223D01*
X1343465Y1150683D01*
X1343465Y1132781D01*
X1336614Y1116242D01*
X1323955Y1103582D01*
X1307416Y1096732D01*
X1289513Y1096732D01*
X1272974Y1103582D01*
X1260315Y1116242D01*
X1259319Y1118645D01*
X1259262Y1118745D01*
X1259227Y1118855D01*
X1258952Y1119289D01*
X1258699Y1119733D01*
X1258619Y1119816D01*
X1258557Y1119913D01*
X1258183Y1120266D01*
X1257827Y1120633D01*
X1257729Y1120693D01*
X1257645Y1120772D01*
X1257197Y1121019D01*
X1256760Y1121288D01*
X1256649Y1121322D01*
X1256549Y1121377D01*
X1256052Y1121506D01*
X1255563Y1121656D01*
X1255448Y1121662D01*
X1255336Y1121691D01*
X1254700Y1121732D01*
X1242229Y1121732D01*
X1242114Y1121717D01*
X1242000Y1121726D01*
X1241495Y1121639D01*
X1240986Y1121575D01*
X1240879Y1121532D01*
X1240766Y1121513D01*
X1240298Y1121303D01*
X1239822Y1121114D01*
X1239728Y1121046D01*
X1239624Y1120999D01*
X1239224Y1120680D01*
X1238808Y1120378D01*
X1238735Y1120289D01*
X1238645Y1120218D01*
X1238336Y1119809D01*
X1238009Y1119414D01*
X1237961Y1119310D01*
X1237891Y1119218D01*
X1237610Y1118645D01*
X1236614Y1116242D01*
X1223955Y1103582D01*
X1207416Y1096732D01*
X1189513Y1096732D01*
X1172974Y1103582D01*
X1160315Y1116242D01*
X1159319Y1118645D01*
X1159262Y1118745D01*
X1159227Y1118855D01*
X1158952Y1119289D01*
X1158699Y1119733D01*
X1158619Y1119816D01*
X1158557Y1119913D01*
X1158183Y1120266D01*
X1157827Y1120633D01*
X1157729Y1120693D01*
X1157645Y1120772D01*
X1157197Y1121019D01*
X1156760Y1121288D01*
X1156649Y1121322D01*
X1156549Y1121377D01*
X1156052Y1121506D01*
X1155563Y1121656D01*
X1155448Y1121662D01*
X1155336Y1121691D01*
X1154700Y1121732D01*
X1142229Y1121732D01*
X1142114Y1121717D01*
X1142000Y1121726D01*
X1141495Y1121639D01*
X1140986Y1121575D01*
X1140879Y1121532D01*
X1140766Y1121513D01*
X1140298Y1121303D01*
X1139822Y1121114D01*
X1139728Y1121046D01*
X1139624Y1120999D01*
X1139224Y1120680D01*
X1138808Y1120378D01*
X1138735Y1120289D01*
X1138645Y1120218D01*
X1138336Y1119809D01*
X1138009Y1119414D01*
X1137961Y1119310D01*
X1137891Y1119218D01*
X1137610Y1118645D01*
X1136614Y1116242D01*
X1123955Y1103582D01*
X1107416Y1096732D01*
X1089513Y1096732D01*
G37*
%LPD*%
%LPC*%
G36*
X1089513Y596732D02*
X1089513Y596732D01*
X1072974Y603582D01*
X1060315Y616242D01*
X1053464Y632781D01*
X1053464Y650683D01*
X1060315Y667223D01*
X1072974Y679882D01*
X1089513Y686733D01*
X1107416Y686733D01*
X1123955Y679882D01*
X1136614Y667223D01*
X1137610Y664819D01*
X1137667Y664719D01*
X1137703Y664609D01*
X1137977Y664175D01*
X1138230Y663731D01*
X1138310Y663649D01*
X1138372Y663551D01*
X1138746Y663199D01*
X1139102Y662832D01*
X1139200Y662771D01*
X1139284Y662692D01*
X1139732Y662445D01*
X1140169Y662177D01*
X1140280Y662143D01*
X1140380Y662087D01*
X1140877Y661959D01*
X1141366Y661808D01*
X1141481Y661802D01*
X1141593Y661773D01*
X1142229Y661733D01*
X1154700Y661733D01*
X1154815Y661747D01*
X1154929Y661738D01*
X1155434Y661826D01*
X1155943Y661890D01*
X1156050Y661932D01*
X1156163Y661952D01*
X1156631Y662162D01*
X1157107Y662351D01*
X1157201Y662418D01*
X1157305Y662465D01*
X1157705Y662785D01*
X1158121Y663086D01*
X1158194Y663175D01*
X1158284Y663247D01*
X1158593Y663656D01*
X1158920Y664051D01*
X1158969Y664155D01*
X1159038Y664247D01*
X1159319Y664819D01*
X1160315Y667223D01*
X1172974Y679882D01*
X1189513Y686733D01*
X1207416Y686733D01*
X1223955Y679882D01*
X1236614Y667223D01*
X1237610Y664819D01*
X1237667Y664719D01*
X1237703Y664609D01*
X1237977Y664175D01*
X1238230Y663731D01*
X1238310Y663649D01*
X1238372Y663551D01*
X1238746Y663199D01*
X1239102Y662832D01*
X1239200Y662771D01*
X1239284Y662692D01*
X1239732Y662445D01*
X1240169Y662177D01*
X1240280Y662143D01*
X1240380Y662087D01*
X1240877Y661959D01*
X1241366Y661808D01*
X1241481Y661802D01*
X1241593Y661773D01*
X1242229Y661733D01*
X1254700Y661733D01*
X1254815Y661747D01*
X1254929Y661738D01*
X1255434Y661826D01*
X1255943Y661890D01*
X1256050Y661932D01*
X1256163Y661952D01*
X1256631Y662162D01*
X1257107Y662351D01*
X1257201Y662418D01*
X1257305Y662465D01*
X1257705Y662785D01*
X1258121Y663086D01*
X1258194Y663175D01*
X1258284Y663247D01*
X1258593Y663656D01*
X1258920Y664051D01*
X1258969Y664155D01*
X1259038Y664247D01*
X1259319Y664819D01*
X1260315Y667223D01*
X1272974Y679882D01*
X1289513Y686733D01*
X1307416Y686733D01*
X1323955Y679882D01*
X1336614Y667223D01*
X1343465Y650683D01*
X1343465Y632781D01*
X1336614Y616242D01*
X1323955Y603582D01*
X1307416Y596732D01*
X1289513Y596732D01*
X1272974Y603582D01*
X1260315Y616242D01*
X1259319Y618645D01*
X1259262Y618745D01*
X1259227Y618855D01*
X1258952Y619289D01*
X1258699Y619733D01*
X1258619Y619816D01*
X1258557Y619913D01*
X1258183Y620266D01*
X1257827Y620633D01*
X1257729Y620693D01*
X1257645Y620772D01*
X1257197Y621019D01*
X1256760Y621288D01*
X1256649Y621322D01*
X1256549Y621377D01*
X1256052Y621506D01*
X1255563Y621656D01*
X1255448Y621662D01*
X1255336Y621691D01*
X1254700Y621732D01*
X1242229Y621732D01*
X1242114Y621717D01*
X1242000Y621726D01*
X1241495Y621639D01*
X1240986Y621575D01*
X1240879Y621532D01*
X1240766Y621513D01*
X1240298Y621303D01*
X1239822Y621114D01*
X1239728Y621046D01*
X1239624Y620999D01*
X1239224Y620680D01*
X1238808Y620378D01*
X1238735Y620289D01*
X1238645Y620218D01*
X1238336Y619809D01*
X1238009Y619414D01*
X1237961Y619310D01*
X1237891Y619218D01*
X1237610Y618645D01*
X1236614Y616242D01*
X1223955Y603582D01*
X1207416Y596732D01*
X1189513Y596732D01*
X1172974Y603582D01*
X1160315Y616242D01*
X1159319Y618645D01*
X1159262Y618745D01*
X1159227Y618855D01*
X1158952Y619289D01*
X1158699Y619733D01*
X1158619Y619816D01*
X1158557Y619913D01*
X1158183Y620266D01*
X1157827Y620633D01*
X1157729Y620693D01*
X1157645Y620772D01*
X1157197Y621019D01*
X1156760Y621288D01*
X1156649Y621322D01*
X1156549Y621377D01*
X1156052Y621506D01*
X1155563Y621656D01*
X1155448Y621662D01*
X1155336Y621691D01*
X1154700Y621732D01*
X1142229Y621732D01*
X1142114Y621717D01*
X1142000Y621726D01*
X1141495Y621639D01*
X1140986Y621575D01*
X1140879Y621532D01*
X1140766Y621513D01*
X1140298Y621303D01*
X1139822Y621114D01*
X1139728Y621046D01*
X1139624Y620999D01*
X1139224Y620680D01*
X1138808Y620378D01*
X1138735Y620289D01*
X1138645Y620218D01*
X1138336Y619809D01*
X1138009Y619414D01*
X1137961Y619310D01*
X1137891Y619218D01*
X1137610Y618645D01*
X1136614Y616242D01*
X1123955Y603582D01*
X1107416Y596732D01*
X1089513Y596732D01*
G37*
%LPD*%
%LPC*%
G36*
X1089513Y796732D02*
X1089513Y796732D01*
X1072974Y803582D01*
X1060315Y816242D01*
X1053464Y832781D01*
X1053464Y850683D01*
X1060315Y867223D01*
X1072974Y879882D01*
X1089513Y886733D01*
X1107416Y886733D01*
X1123955Y879882D01*
X1136614Y867223D01*
X1137610Y864819D01*
X1137667Y864719D01*
X1137703Y864609D01*
X1137977Y864175D01*
X1138230Y863731D01*
X1138310Y863649D01*
X1138372Y863551D01*
X1138746Y863199D01*
X1139102Y862832D01*
X1139200Y862771D01*
X1139284Y862692D01*
X1139732Y862445D01*
X1140169Y862177D01*
X1140280Y862143D01*
X1140380Y862087D01*
X1140877Y861959D01*
X1141366Y861808D01*
X1141481Y861802D01*
X1141593Y861773D01*
X1142229Y861733D01*
X1154700Y861733D01*
X1154815Y861747D01*
X1154929Y861738D01*
X1155434Y861826D01*
X1155943Y861890D01*
X1156050Y861932D01*
X1156163Y861952D01*
X1156631Y862162D01*
X1157107Y862351D01*
X1157201Y862418D01*
X1157305Y862465D01*
X1157705Y862785D01*
X1158121Y863086D01*
X1158194Y863175D01*
X1158284Y863247D01*
X1158593Y863656D01*
X1158920Y864051D01*
X1158969Y864155D01*
X1159038Y864247D01*
X1159319Y864819D01*
X1160315Y867223D01*
X1172974Y879882D01*
X1189513Y886733D01*
X1207416Y886733D01*
X1223955Y879882D01*
X1236614Y867223D01*
X1237610Y864819D01*
X1237667Y864719D01*
X1237703Y864609D01*
X1237977Y864175D01*
X1238230Y863731D01*
X1238310Y863649D01*
X1238372Y863551D01*
X1238746Y863199D01*
X1239102Y862832D01*
X1239200Y862771D01*
X1239284Y862692D01*
X1239732Y862445D01*
X1240169Y862177D01*
X1240280Y862143D01*
X1240380Y862087D01*
X1240877Y861959D01*
X1241366Y861808D01*
X1241481Y861802D01*
X1241593Y861773D01*
X1242229Y861733D01*
X1254700Y861733D01*
X1254815Y861747D01*
X1254929Y861738D01*
X1255434Y861826D01*
X1255943Y861890D01*
X1256050Y861932D01*
X1256163Y861952D01*
X1256631Y862162D01*
X1257107Y862351D01*
X1257201Y862418D01*
X1257305Y862465D01*
X1257705Y862785D01*
X1258121Y863086D01*
X1258194Y863175D01*
X1258284Y863247D01*
X1258593Y863656D01*
X1258920Y864051D01*
X1258969Y864155D01*
X1259038Y864247D01*
X1259319Y864819D01*
X1260315Y867223D01*
X1272974Y879882D01*
X1289513Y886733D01*
X1307416Y886733D01*
X1323955Y879882D01*
X1336614Y867223D01*
X1343465Y850683D01*
X1343465Y832781D01*
X1336614Y816242D01*
X1323955Y803582D01*
X1307416Y796732D01*
X1289513Y796732D01*
X1272974Y803582D01*
X1260315Y816242D01*
X1259319Y818645D01*
X1259262Y818745D01*
X1259227Y818855D01*
X1258952Y819289D01*
X1258699Y819733D01*
X1258619Y819816D01*
X1258557Y819913D01*
X1258183Y820266D01*
X1257827Y820633D01*
X1257729Y820693D01*
X1257645Y820772D01*
X1257197Y821019D01*
X1256760Y821288D01*
X1256649Y821322D01*
X1256549Y821377D01*
X1256052Y821506D01*
X1255563Y821656D01*
X1255448Y821662D01*
X1255336Y821691D01*
X1254700Y821732D01*
X1242229Y821732D01*
X1242114Y821717D01*
X1242000Y821726D01*
X1241495Y821639D01*
X1240986Y821575D01*
X1240879Y821532D01*
X1240766Y821513D01*
X1240298Y821303D01*
X1239822Y821114D01*
X1239728Y821046D01*
X1239624Y820999D01*
X1239224Y820680D01*
X1238808Y820378D01*
X1238735Y820289D01*
X1238645Y820218D01*
X1238336Y819809D01*
X1238009Y819414D01*
X1237961Y819310D01*
X1237891Y819218D01*
X1237610Y818645D01*
X1236614Y816242D01*
X1223955Y803582D01*
X1207416Y796732D01*
X1189513Y796732D01*
X1172974Y803582D01*
X1160315Y816242D01*
X1159319Y818645D01*
X1159262Y818745D01*
X1159227Y818855D01*
X1158952Y819289D01*
X1158699Y819733D01*
X1158619Y819816D01*
X1158557Y819913D01*
X1158183Y820266D01*
X1157827Y820633D01*
X1157729Y820693D01*
X1157645Y820772D01*
X1157197Y821019D01*
X1156760Y821288D01*
X1156649Y821322D01*
X1156549Y821377D01*
X1156052Y821506D01*
X1155563Y821656D01*
X1155448Y821662D01*
X1155336Y821691D01*
X1154700Y821732D01*
X1142229Y821732D01*
X1142114Y821717D01*
X1142000Y821726D01*
X1141495Y821639D01*
X1140986Y821575D01*
X1140879Y821532D01*
X1140766Y821513D01*
X1140298Y821303D01*
X1139822Y821114D01*
X1139728Y821046D01*
X1139624Y820999D01*
X1139224Y820680D01*
X1138808Y820378D01*
X1138735Y820289D01*
X1138645Y820218D01*
X1138336Y819809D01*
X1138009Y819414D01*
X1137961Y819310D01*
X1137891Y819218D01*
X1137610Y818645D01*
X1136614Y816242D01*
X1123955Y803582D01*
X1107416Y796732D01*
X1089513Y796732D01*
G37*
%LPD*%
%LPC*%
G36*
X1089513Y896732D02*
X1089513Y896732D01*
X1072974Y903582D01*
X1060315Y916242D01*
X1053464Y932781D01*
X1053464Y950683D01*
X1060315Y967223D01*
X1072974Y979882D01*
X1089513Y986733D01*
X1107416Y986733D01*
X1123955Y979882D01*
X1136614Y967223D01*
X1137610Y964819D01*
X1137667Y964719D01*
X1137703Y964609D01*
X1137977Y964175D01*
X1138230Y963731D01*
X1138310Y963649D01*
X1138372Y963551D01*
X1138746Y963199D01*
X1139102Y962832D01*
X1139200Y962771D01*
X1139284Y962692D01*
X1139732Y962445D01*
X1140169Y962177D01*
X1140280Y962143D01*
X1140380Y962087D01*
X1140877Y961959D01*
X1141366Y961808D01*
X1141481Y961802D01*
X1141593Y961773D01*
X1142229Y961733D01*
X1154700Y961733D01*
X1154815Y961747D01*
X1154929Y961738D01*
X1155434Y961826D01*
X1155943Y961890D01*
X1156050Y961932D01*
X1156163Y961952D01*
X1156631Y962162D01*
X1157107Y962351D01*
X1157201Y962418D01*
X1157305Y962465D01*
X1157705Y962785D01*
X1158121Y963086D01*
X1158194Y963175D01*
X1158284Y963247D01*
X1158593Y963656D01*
X1158920Y964051D01*
X1158969Y964155D01*
X1159038Y964247D01*
X1159319Y964819D01*
X1160315Y967223D01*
X1172974Y979882D01*
X1189513Y986733D01*
X1207416Y986733D01*
X1223955Y979882D01*
X1236614Y967223D01*
X1237610Y964819D01*
X1237667Y964719D01*
X1237703Y964609D01*
X1237977Y964175D01*
X1238230Y963731D01*
X1238310Y963649D01*
X1238372Y963551D01*
X1238746Y963199D01*
X1239102Y962832D01*
X1239200Y962771D01*
X1239284Y962692D01*
X1239732Y962445D01*
X1240169Y962177D01*
X1240280Y962143D01*
X1240380Y962087D01*
X1240877Y961959D01*
X1241366Y961808D01*
X1241481Y961802D01*
X1241593Y961773D01*
X1242229Y961733D01*
X1254700Y961733D01*
X1254815Y961747D01*
X1254929Y961738D01*
X1255434Y961826D01*
X1255943Y961890D01*
X1256050Y961932D01*
X1256163Y961952D01*
X1256631Y962162D01*
X1257107Y962351D01*
X1257201Y962418D01*
X1257305Y962465D01*
X1257705Y962785D01*
X1258121Y963086D01*
X1258194Y963175D01*
X1258284Y963247D01*
X1258593Y963656D01*
X1258920Y964051D01*
X1258969Y964155D01*
X1259038Y964247D01*
X1259319Y964819D01*
X1260315Y967223D01*
X1272974Y979882D01*
X1289513Y986733D01*
X1307416Y986733D01*
X1323955Y979882D01*
X1336614Y967223D01*
X1343465Y950683D01*
X1343465Y932781D01*
X1336614Y916242D01*
X1323955Y903582D01*
X1307416Y896732D01*
X1289513Y896732D01*
X1272974Y903582D01*
X1260315Y916242D01*
X1259319Y918645D01*
X1259262Y918745D01*
X1259227Y918855D01*
X1258952Y919289D01*
X1258699Y919733D01*
X1258619Y919816D01*
X1258557Y919913D01*
X1258183Y920266D01*
X1257827Y920633D01*
X1257729Y920693D01*
X1257645Y920772D01*
X1257197Y921019D01*
X1256760Y921288D01*
X1256649Y921322D01*
X1256549Y921377D01*
X1256052Y921506D01*
X1255563Y921656D01*
X1255448Y921662D01*
X1255336Y921691D01*
X1254700Y921732D01*
X1242229Y921732D01*
X1242114Y921717D01*
X1242000Y921726D01*
X1241495Y921639D01*
X1240986Y921575D01*
X1240879Y921532D01*
X1240766Y921513D01*
X1240298Y921303D01*
X1239822Y921114D01*
X1239728Y921046D01*
X1239624Y920999D01*
X1239224Y920680D01*
X1238808Y920378D01*
X1238735Y920289D01*
X1238645Y920218D01*
X1238336Y919809D01*
X1238009Y919414D01*
X1237961Y919310D01*
X1237891Y919218D01*
X1237610Y918645D01*
X1236614Y916242D01*
X1223955Y903582D01*
X1207416Y896732D01*
X1189513Y896732D01*
X1172974Y903582D01*
X1160315Y916242D01*
X1159319Y918645D01*
X1159262Y918745D01*
X1159227Y918855D01*
X1158952Y919289D01*
X1158699Y919733D01*
X1158619Y919816D01*
X1158557Y919913D01*
X1158183Y920266D01*
X1157827Y920633D01*
X1157729Y920693D01*
X1157645Y920772D01*
X1157197Y921019D01*
X1156760Y921288D01*
X1156649Y921322D01*
X1156549Y921377D01*
X1156052Y921506D01*
X1155563Y921656D01*
X1155448Y921662D01*
X1155336Y921691D01*
X1154700Y921732D01*
X1142229Y921732D01*
X1142114Y921717D01*
X1142000Y921726D01*
X1141495Y921639D01*
X1140986Y921575D01*
X1140879Y921532D01*
X1140766Y921513D01*
X1140298Y921303D01*
X1139822Y921114D01*
X1139728Y921046D01*
X1139624Y920999D01*
X1139224Y920680D01*
X1138808Y920378D01*
X1138735Y920289D01*
X1138645Y920218D01*
X1138336Y919809D01*
X1138009Y919414D01*
X1137961Y919310D01*
X1137891Y919218D01*
X1137610Y918645D01*
X1136614Y916242D01*
X1123955Y903582D01*
X1107416Y896732D01*
X1089513Y896732D01*
G37*
%LPD*%
%LPC*%
G36*
X1089513Y996732D02*
X1089513Y996732D01*
X1072974Y1003582D01*
X1060315Y1016242D01*
X1053464Y1032781D01*
X1053464Y1050683D01*
X1060315Y1067223D01*
X1072974Y1079882D01*
X1089513Y1086733D01*
X1107416Y1086733D01*
X1123955Y1079882D01*
X1136614Y1067223D01*
X1137610Y1064819D01*
X1137667Y1064719D01*
X1137703Y1064609D01*
X1137977Y1064175D01*
X1138230Y1063731D01*
X1138310Y1063649D01*
X1138372Y1063551D01*
X1138746Y1063199D01*
X1139102Y1062832D01*
X1139200Y1062771D01*
X1139284Y1062692D01*
X1139732Y1062445D01*
X1140169Y1062177D01*
X1140280Y1062143D01*
X1140380Y1062087D01*
X1140877Y1061959D01*
X1141366Y1061808D01*
X1141481Y1061802D01*
X1141593Y1061773D01*
X1142229Y1061733D01*
X1154700Y1061733D01*
X1154815Y1061747D01*
X1154929Y1061738D01*
X1155434Y1061826D01*
X1155943Y1061890D01*
X1156050Y1061932D01*
X1156163Y1061952D01*
X1156631Y1062162D01*
X1157107Y1062351D01*
X1157201Y1062418D01*
X1157305Y1062465D01*
X1157705Y1062785D01*
X1158121Y1063086D01*
X1158194Y1063175D01*
X1158284Y1063247D01*
X1158593Y1063656D01*
X1158920Y1064051D01*
X1158969Y1064155D01*
X1159038Y1064247D01*
X1159319Y1064819D01*
X1160315Y1067223D01*
X1172974Y1079882D01*
X1189513Y1086733D01*
X1207416Y1086733D01*
X1223955Y1079882D01*
X1236614Y1067223D01*
X1237610Y1064819D01*
X1237667Y1064719D01*
X1237703Y1064609D01*
X1237977Y1064175D01*
X1238230Y1063731D01*
X1238310Y1063649D01*
X1238372Y1063551D01*
X1238746Y1063199D01*
X1239102Y1062832D01*
X1239200Y1062771D01*
X1239284Y1062692D01*
X1239732Y1062445D01*
X1240169Y1062177D01*
X1240280Y1062143D01*
X1240380Y1062087D01*
X1240877Y1061959D01*
X1241366Y1061808D01*
X1241481Y1061802D01*
X1241593Y1061773D01*
X1242229Y1061733D01*
X1254700Y1061733D01*
X1254815Y1061747D01*
X1254929Y1061738D01*
X1255434Y1061826D01*
X1255943Y1061890D01*
X1256050Y1061932D01*
X1256163Y1061952D01*
X1256631Y1062162D01*
X1257107Y1062351D01*
X1257201Y1062418D01*
X1257305Y1062465D01*
X1257705Y1062785D01*
X1258121Y1063086D01*
X1258194Y1063175D01*
X1258284Y1063247D01*
X1258593Y1063656D01*
X1258920Y1064051D01*
X1258969Y1064155D01*
X1259038Y1064247D01*
X1259319Y1064819D01*
X1260315Y1067223D01*
X1272974Y1079882D01*
X1289513Y1086733D01*
X1307416Y1086733D01*
X1323955Y1079882D01*
X1336614Y1067223D01*
X1343465Y1050683D01*
X1343465Y1032781D01*
X1336614Y1016242D01*
X1323955Y1003582D01*
X1307416Y996732D01*
X1289513Y996732D01*
X1272974Y1003582D01*
X1260315Y1016242D01*
X1259319Y1018645D01*
X1259262Y1018745D01*
X1259227Y1018855D01*
X1258952Y1019289D01*
X1258699Y1019733D01*
X1258619Y1019816D01*
X1258557Y1019913D01*
X1258183Y1020266D01*
X1257827Y1020633D01*
X1257729Y1020693D01*
X1257645Y1020772D01*
X1257197Y1021019D01*
X1256760Y1021288D01*
X1256649Y1021322D01*
X1256549Y1021377D01*
X1256052Y1021506D01*
X1255563Y1021656D01*
X1255448Y1021662D01*
X1255336Y1021691D01*
X1254700Y1021732D01*
X1242229Y1021732D01*
X1242114Y1021717D01*
X1242000Y1021726D01*
X1241495Y1021639D01*
X1240986Y1021575D01*
X1240879Y1021532D01*
X1240766Y1021513D01*
X1240298Y1021303D01*
X1239822Y1021114D01*
X1239728Y1021046D01*
X1239624Y1020999D01*
X1239224Y1020680D01*
X1238808Y1020378D01*
X1238735Y1020289D01*
X1238645Y1020218D01*
X1238336Y1019809D01*
X1238009Y1019414D01*
X1237961Y1019310D01*
X1237891Y1019218D01*
X1237610Y1018645D01*
X1236614Y1016242D01*
X1223955Y1003582D01*
X1207416Y996732D01*
X1189513Y996732D01*
X1172974Y1003582D01*
X1160315Y1016242D01*
X1159319Y1018645D01*
X1159262Y1018745D01*
X1159227Y1018855D01*
X1158952Y1019289D01*
X1158699Y1019733D01*
X1158619Y1019816D01*
X1158557Y1019913D01*
X1158183Y1020266D01*
X1157827Y1020633D01*
X1157729Y1020693D01*
X1157645Y1020772D01*
X1157197Y1021019D01*
X1156760Y1021288D01*
X1156649Y1021322D01*
X1156549Y1021377D01*
X1156052Y1021506D01*
X1155563Y1021656D01*
X1155448Y1021662D01*
X1155336Y1021691D01*
X1154700Y1021732D01*
X1142229Y1021732D01*
X1142114Y1021717D01*
X1142000Y1021726D01*
X1141495Y1021639D01*
X1140986Y1021575D01*
X1140879Y1021532D01*
X1140766Y1021513D01*
X1140298Y1021303D01*
X1139822Y1021114D01*
X1139728Y1021046D01*
X1139624Y1020999D01*
X1139224Y1020680D01*
X1138808Y1020378D01*
X1138735Y1020289D01*
X1138645Y1020218D01*
X1138336Y1019809D01*
X1138009Y1019414D01*
X1137961Y1019310D01*
X1137891Y1019218D01*
X1137610Y1018645D01*
X1136614Y1016242D01*
X1123955Y1003582D01*
X1107416Y996732D01*
X1089513Y996732D01*
G37*
%LPD*%
%LPC*%
G36*
X1434232Y1619795D02*
X1434232Y1619795D01*
X1421828Y1624932D01*
X1412334Y1634426D01*
X1407196Y1646830D01*
X1407196Y1660256D01*
X1412334Y1672660D01*
X1420345Y1680671D01*
X1420464Y1680825D01*
X1420609Y1680956D01*
X1420847Y1681318D01*
X1421112Y1681660D01*
X1421190Y1681839D01*
X1421297Y1682002D01*
X1421438Y1682412D01*
X1421610Y1682810D01*
X1421641Y1683002D01*
X1421704Y1683187D01*
X1421738Y1683618D01*
X1421806Y1684047D01*
X1421788Y1684241D01*
X1421804Y1684435D01*
X1421730Y1684862D01*
X1421689Y1685293D01*
X1421623Y1685477D01*
X1421590Y1685669D01*
X1421412Y1686065D01*
X1421266Y1686472D01*
X1421156Y1686633D01*
X1421076Y1686811D01*
X1420806Y1687150D01*
X1420563Y1687508D01*
X1420417Y1687638D01*
X1420295Y1687790D01*
X1419950Y1688050D01*
X1419624Y1688338D01*
X1419451Y1688426D01*
X1419295Y1688544D01*
X1418723Y1688825D01*
X1411324Y1691889D01*
X1396614Y1706600D01*
X1388653Y1725819D01*
X1388653Y1746622D01*
X1396614Y1765841D01*
X1411324Y1780552D01*
X1430543Y1788512D01*
X1451346Y1788512D01*
X1470566Y1780552D01*
X1485276Y1765841D01*
X1493237Y1746622D01*
X1493237Y1725819D01*
X1485276Y1706600D01*
X1470566Y1691889D01*
X1463167Y1688825D01*
X1462997Y1688728D01*
X1462814Y1688662D01*
X1462456Y1688419D01*
X1462079Y1688204D01*
X1461939Y1688068D01*
X1461778Y1687959D01*
X1461491Y1687635D01*
X1461179Y1687333D01*
X1461077Y1687166D01*
X1460948Y1687021D01*
X1460752Y1686636D01*
X1460525Y1686266D01*
X1460467Y1686079D01*
X1460378Y1685905D01*
X1460283Y1685483D01*
X1460156Y1685069D01*
X1460146Y1684874D01*
X1460104Y1684684D01*
X1460117Y1684250D01*
X1460096Y1683818D01*
X1460135Y1683627D01*
X1460141Y1683432D01*
X1460261Y1683015D01*
X1460349Y1682591D01*
X1460434Y1682416D01*
X1460488Y1682229D01*
X1460708Y1681855D01*
X1460898Y1681466D01*
X1461025Y1681318D01*
X1461124Y1681149D01*
X1461545Y1680671D01*
X1469556Y1672660D01*
X1474694Y1660256D01*
X1474694Y1646830D01*
X1469556Y1634426D01*
X1460062Y1624932D01*
X1447658Y1619795D01*
X1434232Y1619795D01*
G37*
%LPD*%
%LPC*%
G36*
X93577Y39999D02*
X93577Y39999D01*
X71524Y49134D01*
X54646Y66012D01*
X45511Y88065D01*
X45511Y111935D01*
X54646Y133987D01*
X71524Y150866D01*
X93577Y160001D01*
X117447Y160001D01*
X139499Y150866D01*
X156378Y133987D01*
X165512Y111935D01*
X165512Y88065D01*
X156378Y66012D01*
X139499Y49134D01*
X117447Y39999D01*
X93577Y39999D01*
G37*
%LPD*%
%LPC*%
G36*
X1432160Y39999D02*
X1432160Y39999D01*
X1410107Y49134D01*
X1393228Y66012D01*
X1384094Y88065D01*
X1384094Y111935D01*
X1393228Y133987D01*
X1410107Y150866D01*
X1432160Y160001D01*
X1456029Y160001D01*
X1478082Y150866D01*
X1494961Y133987D01*
X1504095Y111935D01*
X1504095Y88065D01*
X1494961Y66012D01*
X1478082Y49134D01*
X1456029Y39999D01*
X1432160Y39999D01*
G37*
%LPD*%
%LPC*%
G36*
X1432160Y1839999D02*
X1432160Y1839999D01*
X1410107Y1849134D01*
X1393228Y1866012D01*
X1384094Y1888065D01*
X1384094Y1911935D01*
X1393228Y1933987D01*
X1410107Y1950866D01*
X1432160Y1960001D01*
X1456029Y1960001D01*
X1478082Y1950866D01*
X1494961Y1933987D01*
X1504095Y1911935D01*
X1504095Y1888065D01*
X1494961Y1866012D01*
X1478082Y1849134D01*
X1456029Y1839999D01*
X1432160Y1839999D01*
G37*
%LPD*%
%LPC*%
G36*
X93577Y1839999D02*
X93577Y1839999D01*
X71524Y1849134D01*
X54646Y1866012D01*
X45511Y1888065D01*
X45511Y1911935D01*
X54646Y1933987D01*
X71524Y1950866D01*
X93577Y1960001D01*
X117447Y1960001D01*
X139499Y1950866D01*
X156378Y1933987D01*
X165512Y1911935D01*
X165512Y1888065D01*
X156378Y1866012D01*
X139499Y1849134D01*
X117447Y1839999D01*
X93577Y1839999D01*
G37*
%LPD*%
%LPC*%
G36*
X1430543Y1361094D02*
X1430543Y1361094D01*
X1411324Y1369055D01*
X1396614Y1383765D01*
X1388653Y1402984D01*
X1388653Y1423787D01*
X1396614Y1443007D01*
X1411324Y1457717D01*
X1430543Y1465678D01*
X1451346Y1465678D01*
X1470566Y1457717D01*
X1485276Y1443007D01*
X1493237Y1423787D01*
X1493237Y1402984D01*
X1485276Y1383765D01*
X1470566Y1369055D01*
X1451346Y1361094D01*
X1430543Y1361094D01*
G37*
%LPD*%
%LPC*%
G36*
X1340386Y370543D02*
X1340386Y370543D01*
X1321166Y378503D01*
X1306456Y393214D01*
X1298495Y412433D01*
X1298495Y433236D01*
X1306456Y452455D01*
X1321166Y467166D01*
X1340386Y475127D01*
X1361189Y475127D01*
X1380408Y467166D01*
X1395118Y452455D01*
X1403079Y433236D01*
X1403079Y412433D01*
X1395118Y393214D01*
X1380408Y378503D01*
X1361189Y370543D01*
X1340386Y370543D01*
G37*
%LPD*%
%LPC*%
G36*
X1290261Y1214842D02*
X1290261Y1214842D01*
X1273722Y1221693D01*
X1261063Y1234352D01*
X1254212Y1250891D01*
X1254212Y1268794D01*
X1261063Y1285333D01*
X1273722Y1297992D01*
X1290261Y1304843D01*
X1308164Y1304843D01*
X1324703Y1297992D01*
X1337362Y1285333D01*
X1344213Y1268794D01*
X1344213Y1250891D01*
X1337362Y1234352D01*
X1324703Y1221693D01*
X1308164Y1214842D01*
X1290261Y1214842D01*
G37*
%LPD*%
%LPC*%
G36*
X621766Y1508999D02*
X621766Y1508999D01*
X606696Y1515241D01*
X595162Y1526775D01*
X588921Y1541844D01*
X588921Y1558156D01*
X595162Y1573225D01*
X606696Y1584759D01*
X621766Y1591001D01*
X638077Y1591001D01*
X653146Y1584759D01*
X664680Y1573225D01*
X670922Y1558156D01*
X670922Y1541844D01*
X664680Y1526775D01*
X653146Y1515241D01*
X638077Y1508999D01*
X621766Y1508999D01*
G37*
%LPD*%
%LPC*%
G36*
X621766Y1208999D02*
X621766Y1208999D01*
X606696Y1215241D01*
X595162Y1226775D01*
X588921Y1241844D01*
X588921Y1258156D01*
X595162Y1273225D01*
X606696Y1284759D01*
X621766Y1291001D01*
X638077Y1291001D01*
X653146Y1284759D01*
X664680Y1273225D01*
X670922Y1258156D01*
X670922Y1241844D01*
X664680Y1226775D01*
X653146Y1215241D01*
X638077Y1208999D01*
X621766Y1208999D01*
G37*
%LPD*%
%LPC*%
G36*
X847356Y1208999D02*
X847356Y1208999D01*
X832287Y1215241D01*
X820753Y1226775D01*
X814511Y1241844D01*
X814511Y1258156D01*
X820753Y1273225D01*
X832287Y1284759D01*
X847356Y1291001D01*
X863667Y1291001D01*
X878737Y1284759D01*
X890271Y1273225D01*
X896512Y1258156D01*
X896512Y1241844D01*
X890271Y1226775D01*
X878737Y1215241D01*
X863667Y1208999D01*
X847356Y1208999D01*
G37*
%LPD*%
%LPC*%
G36*
X621766Y1108999D02*
X621766Y1108999D01*
X606696Y1115241D01*
X595162Y1126775D01*
X588921Y1141844D01*
X588921Y1158156D01*
X595162Y1173225D01*
X606696Y1184759D01*
X621766Y1191001D01*
X638077Y1191001D01*
X653146Y1184759D01*
X664680Y1173225D01*
X670922Y1158156D01*
X670922Y1141844D01*
X664680Y1126775D01*
X653146Y1115241D01*
X638077Y1108999D01*
X621766Y1108999D01*
G37*
%LPD*%
%LPC*%
G36*
X228065Y1508999D02*
X228065Y1508999D01*
X212996Y1515241D01*
X201462Y1526775D01*
X195220Y1541844D01*
X195220Y1558156D01*
X201462Y1573225D01*
X212996Y1584759D01*
X228065Y1591001D01*
X244376Y1591001D01*
X259445Y1584759D01*
X270979Y1573225D01*
X277221Y1558156D01*
X277221Y1541844D01*
X270979Y1526775D01*
X259445Y1515241D01*
X244376Y1508999D01*
X228065Y1508999D01*
G37*
%LPD*%
%LPC*%
G36*
X621766Y1008999D02*
X621766Y1008999D01*
X606696Y1015241D01*
X595162Y1026775D01*
X588921Y1041844D01*
X588921Y1058156D01*
X595162Y1073225D01*
X606696Y1084759D01*
X621766Y1091001D01*
X638077Y1091001D01*
X653146Y1084759D01*
X664680Y1073225D01*
X670922Y1058156D01*
X670922Y1041844D01*
X664680Y1026775D01*
X653146Y1015241D01*
X638077Y1008999D01*
X621766Y1008999D01*
G37*
%LPD*%
%LPC*%
G36*
X621766Y1408999D02*
X621766Y1408999D01*
X606696Y1415241D01*
X595162Y1426775D01*
X588921Y1441844D01*
X588921Y1458156D01*
X595162Y1473225D01*
X606696Y1484759D01*
X621766Y1491001D01*
X638077Y1491001D01*
X653146Y1484759D01*
X664680Y1473225D01*
X670922Y1458156D01*
X670922Y1441844D01*
X664680Y1426775D01*
X653146Y1415241D01*
X638077Y1408999D01*
X621766Y1408999D01*
G37*
%LPD*%
%LPC*%
G36*
X228065Y908999D02*
X228065Y908999D01*
X212996Y915241D01*
X201462Y926775D01*
X195220Y941844D01*
X195220Y958156D01*
X201462Y973225D01*
X212996Y984759D01*
X228065Y991001D01*
X244376Y991001D01*
X259445Y984759D01*
X270979Y973225D01*
X277221Y958156D01*
X277221Y941844D01*
X270979Y926775D01*
X259445Y915241D01*
X244376Y908999D01*
X228065Y908999D01*
G37*
%LPD*%
%LPC*%
G36*
X228065Y1608999D02*
X228065Y1608999D01*
X212996Y1615241D01*
X201462Y1626775D01*
X195220Y1641844D01*
X195220Y1658156D01*
X201462Y1673225D01*
X212996Y1684759D01*
X228065Y1691001D01*
X244376Y1691001D01*
X259445Y1684759D01*
X270979Y1673225D01*
X277221Y1658156D01*
X277221Y1641844D01*
X270979Y1626775D01*
X259445Y1615241D01*
X244376Y1608999D01*
X228065Y1608999D01*
G37*
%LPD*%
%LPC*%
G36*
X228065Y808999D02*
X228065Y808999D01*
X212996Y815241D01*
X201462Y826775D01*
X195220Y841844D01*
X195220Y858156D01*
X201462Y873225D01*
X212996Y884759D01*
X228065Y891001D01*
X244376Y891001D01*
X259445Y884759D01*
X270979Y873225D01*
X277221Y858156D01*
X277221Y841844D01*
X270979Y826775D01*
X259445Y815241D01*
X244376Y808999D01*
X228065Y808999D01*
G37*
%LPD*%
%LPC*%
G36*
X621766Y1608999D02*
X621766Y1608999D01*
X606696Y1615241D01*
X595162Y1626775D01*
X588921Y1641844D01*
X588921Y1658156D01*
X595162Y1673225D01*
X606696Y1684759D01*
X621766Y1691001D01*
X638077Y1691001D01*
X653146Y1684759D01*
X664680Y1673225D01*
X670922Y1658156D01*
X670922Y1641844D01*
X664680Y1626775D01*
X653146Y1615241D01*
X638077Y1608999D01*
X621766Y1608999D01*
G37*
%LPD*%
%LPC*%
G36*
X228065Y708999D02*
X228065Y708999D01*
X212996Y715241D01*
X201462Y726775D01*
X195220Y741844D01*
X195220Y758156D01*
X201462Y773225D01*
X212996Y784759D01*
X228065Y791001D01*
X244376Y791001D01*
X259445Y784759D01*
X270979Y773225D01*
X277221Y758156D01*
X277221Y741844D01*
X270979Y726775D01*
X259445Y715241D01*
X244376Y708999D01*
X228065Y708999D01*
G37*
%LPD*%
%LPC*%
G36*
X228065Y1708999D02*
X228065Y1708999D01*
X212996Y1715241D01*
X201462Y1726775D01*
X195220Y1741844D01*
X195220Y1758156D01*
X201462Y1773225D01*
X212996Y1784759D01*
X228065Y1791001D01*
X244376Y1791001D01*
X259445Y1784759D01*
X270979Y1773225D01*
X277221Y1758156D01*
X277221Y1741844D01*
X270979Y1726775D01*
X259445Y1715241D01*
X244376Y1708999D01*
X228065Y1708999D01*
G37*
%LPD*%
%LPC*%
G36*
X228065Y608999D02*
X228065Y608999D01*
X212996Y615241D01*
X201462Y626775D01*
X195220Y641844D01*
X195220Y658156D01*
X201462Y673225D01*
X212996Y684759D01*
X228065Y691001D01*
X244376Y691001D01*
X259445Y684759D01*
X270979Y673225D01*
X277221Y658156D01*
X277221Y641844D01*
X270979Y626775D01*
X259445Y615241D01*
X244376Y608999D01*
X228065Y608999D01*
G37*
%LPD*%
%LPC*%
G36*
X228065Y1308999D02*
X228065Y1308999D01*
X212996Y1315241D01*
X201462Y1326775D01*
X195220Y1341844D01*
X195220Y1358156D01*
X201462Y1373225D01*
X212996Y1384759D01*
X228065Y1391001D01*
X244376Y1391001D01*
X259445Y1384759D01*
X270979Y1373225D01*
X277221Y1358156D01*
X277221Y1341844D01*
X270979Y1326775D01*
X259445Y1315241D01*
X244376Y1308999D01*
X228065Y1308999D01*
G37*
%LPD*%
%LPC*%
G36*
X621766Y1308999D02*
X621766Y1308999D01*
X606696Y1315241D01*
X595162Y1326775D01*
X588921Y1341844D01*
X588921Y1358156D01*
X595162Y1373225D01*
X606696Y1384759D01*
X621766Y1391001D01*
X638077Y1391001D01*
X653146Y1384759D01*
X664680Y1373225D01*
X670922Y1358156D01*
X670922Y1341844D01*
X664680Y1326775D01*
X653146Y1315241D01*
X638077Y1308999D01*
X621766Y1308999D01*
G37*
%LPD*%
%LPC*%
G36*
X847356Y1308999D02*
X847356Y1308999D01*
X832287Y1315241D01*
X820753Y1326775D01*
X814511Y1341844D01*
X814511Y1358156D01*
X820753Y1373225D01*
X832287Y1384759D01*
X847356Y1391001D01*
X863667Y1391001D01*
X878737Y1384759D01*
X890271Y1373225D01*
X896512Y1358156D01*
X896512Y1341844D01*
X890271Y1326775D01*
X878737Y1315241D01*
X863667Y1308999D01*
X847356Y1308999D01*
G37*
%LPD*%
%LPC*%
G36*
X847356Y1408999D02*
X847356Y1408999D01*
X832287Y1415241D01*
X820753Y1426775D01*
X814511Y1441844D01*
X814511Y1458156D01*
X820753Y1473225D01*
X832287Y1484759D01*
X847356Y1491001D01*
X863667Y1491001D01*
X878737Y1484759D01*
X890271Y1473225D01*
X896512Y1458156D01*
X896512Y1441844D01*
X890271Y1426775D01*
X878737Y1415241D01*
X863667Y1408999D01*
X847356Y1408999D01*
G37*
%LPD*%
%LPC*%
G36*
X1232105Y1672117D02*
X1232105Y1672117D01*
X1217227Y1678280D01*
X1205839Y1689668D01*
X1199676Y1704546D01*
X1199676Y1720651D01*
X1205839Y1735529D01*
X1217227Y1746917D01*
X1232105Y1753079D01*
X1248210Y1753079D01*
X1263088Y1746917D01*
X1274476Y1735529D01*
X1280638Y1720651D01*
X1280638Y1704546D01*
X1274476Y1689668D01*
X1263088Y1678280D01*
X1248210Y1672117D01*
X1232105Y1672117D01*
G37*
%LPD*%
D10*
X855512Y1750000D03*
X855512Y1650000D03*
X855512Y1550000D03*
X855512Y1450000D03*
X855512Y1350000D03*
X855512Y1250000D03*
X855512Y1150000D03*
X855512Y1050000D03*
X855512Y950000D03*
X855512Y850000D03*
X855512Y750000D03*
X855512Y650000D03*
X855512Y550000D03*
X855512Y450000D03*
X855512Y350000D03*
X855512Y250000D03*
X55512Y650000D03*
X55512Y750000D03*
X55512Y850000D03*
X55512Y950000D03*
X55512Y1050000D03*
X55512Y1150000D03*
X55512Y1250000D03*
X55512Y1350000D03*
X55512Y1450000D03*
X55512Y1550000D03*
X55512Y1650000D03*
X55512Y1750000D03*
D11*
X1299213Y1259843D03*
X1199213Y1259843D03*
X1099213Y1259843D03*
D12*
X1350787Y222835D03*
X1350787Y422835D03*
X1050787Y422835D03*
X1050787Y222835D03*
D13*
X1240157Y1712598D03*
X1141732Y1712598D03*
X1043307Y1712598D03*
D14*
X1440945Y1496063D03*
X1440945Y1574803D03*
X1440945Y1653543D03*
D12*
X1440945Y1413386D03*
X1440945Y1736220D03*
D11*
X1240157Y1590551D03*
X1140157Y1590551D03*
X1040157Y1590551D03*
X1291732Y1456693D03*
X991732Y1456693D03*
X1298465Y641732D03*
X1298465Y741732D03*
X1298465Y841732D03*
X1298465Y941732D03*
X1298465Y1041732D03*
X1298465Y1141732D03*
X1198465Y641732D03*
X1198465Y741732D03*
X1198465Y841732D03*
X1198465Y941732D03*
X1198465Y1041732D03*
X1198465Y1141732D03*
X1098465Y641732D03*
X1098465Y741732D03*
X1098465Y841732D03*
X1098465Y941732D03*
X1098465Y1041732D03*
X1098465Y1141732D03*
D10*
X629921Y1750000D03*
X629921Y1650000D03*
X629921Y1550000D03*
X629921Y1450000D03*
X629921Y1350000D03*
X629921Y1250000D03*
X629921Y1150000D03*
X629921Y1050000D03*
X629921Y950000D03*
X629921Y850000D03*
X629921Y750000D03*
X629921Y650000D03*
X629921Y550000D03*
X629921Y450000D03*
X629921Y350000D03*
X629921Y250000D03*
X236220Y650000D03*
X236220Y750000D03*
X236220Y850000D03*
X236220Y950000D03*
X236220Y1050000D03*
X236220Y1150000D03*
X236220Y1250000D03*
X236220Y1350000D03*
X236220Y1450000D03*
X236220Y1550000D03*
X236220Y1650000D03*
X236220Y1750000D03*
D15*
X1348732Y1482591D02*
X1440945Y1574803D01*
X1348732Y1482591D02*
X1348732Y1433083D01*
X1232492Y1316843D01*
X1075602Y1316843D01*
X908512Y1149752D01*
X544921Y214792D02*
X594713Y165000D01*
X890720Y165000D01*
X544921Y841299D02*
X236220Y1150000D01*
X544921Y841299D02*
X544921Y214792D01*
X890720Y165000D02*
X1115079Y389359D01*
X1115079Y449465D01*
X908512Y656032D02*
X908512Y1149752D01*
X908512Y656032D02*
X1115079Y449465D01*
X855512Y450000D02*
X629921Y450000D01*
X629921Y350000D02*
X855512Y350000D01*
X855512Y650000D02*
X629921Y650000D01*
X985039Y1450000D02*
X991732Y1456693D01*
X908512Y1771953D02*
X877465Y1803000D01*
X254968Y1450000D02*
X236220Y1450000D01*
X908512Y1526528D02*
X908512Y1771953D01*
X908512Y1526528D02*
X985039Y1450000D01*
X607968Y1803000D02*
X254968Y1450000D01*
X607968Y1803000D02*
X877465Y1803000D01*
X908512Y228047D02*
X877465Y197000D01*
X607968Y197000D02*
X576921Y228047D01*
X908512Y280559D02*
X1050787Y422835D01*
X908512Y280559D02*
X908512Y228047D01*
X877465Y197000D02*
X607968Y197000D01*
X576921Y909299D02*
X236220Y1250000D01*
X576921Y909299D02*
X576921Y228047D01*
X1098465Y1141732D02*
X1198465Y1141732D01*
X1298465Y1141732D01*
X1198465Y1041732D02*
X1098465Y1041732D01*
X1198465Y1041732D02*
X1298465Y1041732D01*
X1198465Y941732D02*
X1098465Y941732D01*
X1198465Y941732D02*
X1298465Y941732D01*
X1198465Y841732D02*
X1098465Y841732D01*
X1198465Y841732D02*
X1298465Y841732D01*
X1198465Y741732D02*
X1098465Y741732D01*
X1198465Y741732D02*
X1298465Y741732D01*
X1198465Y641732D02*
X1098465Y641732D01*
X1198465Y641732D02*
X1298465Y641732D01*
X1140157Y1711024D02*
X1141732Y1712598D01*
X1140157Y1711024D02*
X1140157Y1590551D01*
X1274016Y1456693D01*
X1291732Y1456693D01*
M02*
