M48
;GenerationSoftware,Autodesk,EAGLE,9.1.2*%
;CreationDate,2018-08-18T03:54:16Z*%
FMAT,2
ICI,OFF
INCH,TZ,00.0000
T6C0.0315
T5C0.0354
T4C0.0394
T3C0.0400
T2C0.0433
T1C0.0591
%
G90
M72
T1
X13508Y4228
X13508Y2228
X10508Y4228
X10508Y2228
X14409Y14134
X14409Y17362
T2
X12402Y17126
X11417Y17126
X10433Y17126
T3
X11985Y8417
X11985Y7417
X11985Y6417
X12985Y11417
X12985Y10417
X12985Y9417
X12985Y8417
X10985Y11417
X12985Y6417
X10402Y15906
X11402Y15906
X12402Y15906
X11985Y9417
X11985Y10417
X11985Y11417
X10985Y6417
X10985Y7417
X10985Y8417
X10985Y9417
X12992Y12598
X11992Y12598
X10992Y12598
X10985Y10417
X12985Y7417
T4
X555Y17500
X555Y16500
X555Y15500
X555Y14500
X555Y13500
X2362Y16500
X2362Y15500
X2362Y14500
X555Y12500
X555Y11500
X555Y10500
X555Y9500
X555Y8500
X2362Y13500
X2362Y17500
X555Y7500
X555Y6500
X8555Y2500
X8555Y3500
X8555Y4500
X8555Y5500
X8555Y6500
X8555Y7500
X8555Y8500
X8555Y9500
X8555Y10500
X8555Y11500
X8555Y12500
X8555Y13500
X8555Y14500
X8555Y15500
X8555Y16500
X8555Y17500
X6299Y17500
X6299Y16500
X6299Y15500
X6299Y14500
X6299Y13500
X6299Y12500
X6299Y11500
X6299Y10500
X6299Y9500
X6299Y8500
X6299Y7500
X6299Y6500
X6299Y5500
X6299Y4500
X6299Y3500
X6299Y2500
X2362Y6500
X2362Y7500
X2362Y8500
X2362Y9500
X2362Y10500
X2362Y11500
X2362Y12500
T5
X12917Y14567
X9917Y14567
T6
X14409Y16535
X14409Y15748
X14409Y14961
M30