M48
;GenerationSoftware,Autodesk,EAGLE,9.0.0*%
;CreationDate,2018-04-30T06:41:38Z*%
FMAT,2
ICI,OFF
METRIC,TZ,000.000
T9C0.350
T8C0.394
T7C0.400
T6C0.500
T5C0.700
T4C0.800
T3C0.900
T2C1.016
T1C2.000
%
G90
M71
T1
X-12000Y18000
X12000Y18000
X12000Y-16000
T2
X-15000Y17120
X-15000Y14580
X-15000Y12040
X-15000Y9500
X15000Y9380
X15000Y11920
X15000Y14460
X15000Y17000
T3
X3600Y18478
X-3600Y18478
X-8055Y1831
T4
X-3300Y15678
X3300Y15678
T5
X-1950Y16578
X1950Y16578
T6
X9750Y-17000
T7
X-3000Y-4028
X-7250Y-15000
X-11000Y-9500
X1000Y-2000
X-5000Y-12000
X-2981Y-3019
X-3000Y-2000
X317Y14531
X-5477Y-12951
X13500Y4000
X9000Y9459
X9513Y-4571
T8
X-3750Y-1250
X5397Y-11922
X-1064Y13510
X-1900Y-2000
X-2000Y500
X11890Y-8477
X12509Y2064
X-318Y6382
X-1588Y6382
X-445Y-10271
X-4101Y10981
X13954Y-2111
X1400Y1064
X10989Y9914
X7302Y5632
X10406Y11788
X1841Y-3270
X4000Y1810
X-4446Y8430
T9
X-2704Y-6041
X8680Y12077
X4019Y14390
X11000Y-10000
X12000Y-6000
X7046Y13960
X-4000Y7000
X1107Y-7000
X-9000Y11000
X-10000Y0
X-13000Y-9000
X2000Y4250
X9000Y2137
X3319Y3109
X10808Y15675
X-8498Y8651
X7821Y4321
X-5194Y7790
X7250Y13000
X11000Y13750
X10000Y9500
X3476Y4792
X10002Y2137
X8040Y2095
X-2000Y13000
X-7214Y-9714
X-11000Y-13000
X-12000Y-1000
X-12700Y-300
X1872Y14628
X-995Y14491
X6000Y0
X3059Y14443
X4831Y4126
X6000Y-9000
X-6322Y2223
X-10000Y1000
X4000Y11000
X2349Y-146
X-8998Y13002
X9000Y11000
X14000Y6000
X11947Y6938
X-10799Y9000
X204Y2796
X-13000Y9000
X11678Y14538
X8988Y-1488
M30