G04 EAGLE Gerber X2 export*
%TF.Part,Single*%
%TF.FileFunction,Soldermask,Top,1*%
%TF.FilePolarity,Negative*%
%TF.GenerationSoftware,Autodesk,EAGLE,9.0.0*%
%TF.CreationDate,2018-04-30T06:41:38Z*%
G75*
%MOMM*%
%FSLAX34Y34*%
%LPD*%
%AMOC8*
5,1,8,0,0,1.08239X$1,22.5*%
G01*
%ADD10R,1.101600X1.201600*%
%ADD11R,1.401600X1.601600*%
%ADD12R,1.201600X1.101600*%
%ADD13R,1.301600X1.301600*%
%ADD14R,0.351600X0.901600*%
%ADD15R,0.901600X0.351600*%
%ADD16R,4.801600X4.801600*%
%ADD17R,1.001600X1.001600*%
%ADD18C,0.801600*%
%ADD19R,2.601600X2.601600*%
%ADD20C,1.409600*%
%ADD21R,1.101600X2.101600*%
%ADD22R,0.500000X1.450000*%
%ADD23R,1.101600X4.701600*%
%ADD24R,1.701600X3.501600*%
%ADD25R,1.501600X1.501600*%
%ADD26R,0.801600X1.801600*%
%ADD27R,2.101600X1.301600*%
%ADD28R,0.351600X0.601600*%
%ADD29R,0.601600X0.351600*%
%ADD30R,0.761600X1.001600*%
%ADD31R,0.551600X1.001600*%
%ADD32R,0.651600X1.301600*%
%ADD33R,1.301600X0.401600*%
%ADD34R,1.951600X0.551600*%
%ADD35R,0.551600X1.951600*%
%ADD36C,1.001600*%
%ADD37R,1.601600X1.401600*%
%ADD38C,1.981200*%
%ADD39C,3.101600*%


D10*
X96790Y158680D03*
X96790Y141680D03*
X62700Y172490D03*
X62700Y155490D03*
D11*
X102730Y-125770D03*
X121730Y-125770D03*
D12*
X-65120Y150540D03*
X-82120Y150540D03*
D13*
X-63500Y186440D03*
X-63500Y165440D03*
X82230Y188980D03*
X82230Y167980D03*
D14*
X65000Y131590D03*
X60000Y131590D03*
X55000Y131590D03*
X50000Y131590D03*
X45000Y131590D03*
X40000Y131590D03*
X35000Y131590D03*
X30000Y131590D03*
X25000Y131590D03*
X20000Y131590D03*
X15000Y131590D03*
D15*
X5250Y121840D03*
X5250Y116840D03*
X5250Y111840D03*
X5250Y106840D03*
X5250Y101840D03*
X5250Y96840D03*
X5250Y91840D03*
X5250Y86840D03*
X5250Y81840D03*
X5250Y76840D03*
X5250Y71840D03*
D14*
X15000Y62090D03*
X20000Y62090D03*
X25000Y62090D03*
X30000Y62090D03*
X35000Y62090D03*
X40000Y62090D03*
X45000Y62090D03*
X50000Y62090D03*
X55000Y62090D03*
X60000Y62090D03*
X65000Y62090D03*
D15*
X74750Y71840D03*
X74750Y76840D03*
X74750Y81840D03*
X74750Y86840D03*
X74750Y91840D03*
X74750Y96840D03*
X74750Y101840D03*
X74750Y106840D03*
X74750Y111840D03*
X74750Y116840D03*
X74750Y121840D03*
D16*
X40000Y96840D03*
D17*
X-73000Y118910D03*
X-73000Y134910D03*
X-32000Y134910D03*
X-32000Y118910D03*
D12*
X151200Y-47940D03*
X168200Y-47940D03*
X105650Y76360D03*
X88650Y76360D03*
D10*
X83620Y132080D03*
X83620Y149080D03*
D18*
X19500Y165780D03*
X-19500Y165780D03*
D19*
X-36000Y184780D03*
X36000Y184780D03*
D20*
X33000Y156780D02*
X46080Y156780D01*
X-33000Y156780D02*
X-46080Y156780D01*
D21*
X7500Y185780D03*
X-7500Y185780D03*
D22*
X13000Y158030D03*
X6500Y158030D03*
X0Y158030D03*
X-6500Y158030D03*
X-13000Y158030D03*
D23*
X39840Y-107620D03*
X19840Y-107620D03*
D24*
X63840Y-159620D03*
X-4160Y-159620D03*
D25*
X84450Y-159040D03*
X84450Y-122040D03*
X-24770Y-119810D03*
X-24770Y-156810D03*
D10*
X-41280Y-133420D03*
X-41280Y-150420D03*
D11*
X24630Y-64930D03*
X43630Y-64930D03*
D26*
G36*
X-24052Y89900D02*
X-29720Y84232D01*
X-42458Y96970D01*
X-36790Y102638D01*
X-24052Y89900D01*
G37*
G36*
X-15567Y98385D02*
X-21235Y92717D01*
X-33973Y105455D01*
X-28305Y111123D01*
X-15567Y98385D01*
G37*
G36*
X-7082Y106870D02*
X-12750Y101202D01*
X-25488Y113940D01*
X-19820Y119608D01*
X-7082Y106870D01*
G37*
D27*
X145100Y-33650D03*
X83100Y-33650D03*
X83100Y6350D03*
X145100Y6350D03*
D28*
X50000Y-6500D03*
X45000Y-6500D03*
X40000Y-6500D03*
X35000Y-6500D03*
X30000Y-6500D03*
D29*
X26500Y-15000D03*
X26500Y-20000D03*
X26500Y-25000D03*
D28*
X30000Y-33500D03*
X35000Y-33500D03*
X40000Y-33500D03*
X45000Y-33500D03*
X50000Y-33500D03*
D29*
X53500Y-25000D03*
X53500Y-20000D03*
X53500Y-15000D03*
D30*
X100330Y-109300D03*
X122230Y-109300D03*
X122230Y-95800D03*
X100330Y-95800D03*
D10*
X84610Y-107240D03*
X84610Y-90240D03*
X146050Y44220D03*
X146050Y27220D03*
D31*
X112690Y32460D03*
X112690Y49460D03*
X103690Y32460D03*
X95690Y32460D03*
X86690Y32460D03*
X86690Y49460D03*
X103690Y49460D03*
X95690Y49460D03*
X-32690Y51960D03*
X-32690Y34960D03*
X-23690Y51960D03*
X-15690Y51960D03*
X-6690Y51960D03*
X-6690Y34960D03*
X-23690Y34960D03*
X-15690Y34960D03*
D32*
X-16490Y-89041D03*
X-6990Y-89041D03*
X2510Y-89041D03*
X2510Y-63039D03*
X-16490Y-63039D03*
D12*
X-70100Y99300D03*
X-53100Y99300D03*
X23880Y-49370D03*
X40880Y-49370D03*
X-11680Y-43020D03*
X5320Y-43020D03*
D33*
X136370Y-59770D03*
X136370Y-66270D03*
X136370Y-72770D03*
X136370Y-79270D03*
X94120Y-79270D03*
X94120Y-72770D03*
X94120Y-66270D03*
X94120Y-59770D03*
D12*
X63570Y-68260D03*
X80570Y-68260D03*
X80570Y-53020D03*
X63570Y-53020D03*
D10*
X148110Y-92780D03*
X148110Y-109780D03*
X152080Y-61030D03*
X152080Y-78030D03*
X135410Y-92780D03*
X135410Y-109780D03*
D34*
X-150805Y13810D03*
X-150805Y6810D03*
X-150805Y-35190D03*
X-150805Y-42190D03*
X-150805Y-49190D03*
X-150805Y-56190D03*
X-150805Y-63190D03*
X-150805Y-70190D03*
X-150805Y-77190D03*
X-150805Y-84190D03*
X-150805Y-91190D03*
X-150805Y-98190D03*
D35*
X-144555Y-114440D03*
X-137555Y-114440D03*
X-130555Y-114440D03*
X-123555Y-114440D03*
X-116555Y-114440D03*
X-109555Y-114440D03*
X-102555Y-114440D03*
X-95555Y-114440D03*
X-88555Y-114440D03*
X-81555Y-114440D03*
X-74555Y-114440D03*
X-67555Y-114440D03*
X-60555Y-114440D03*
D34*
X-54305Y-98190D03*
X-54305Y-91190D03*
X-54305Y-84190D03*
X-54305Y-77190D03*
X-54305Y-70190D03*
X-54305Y-63190D03*
X-54305Y-56190D03*
X-54305Y-49190D03*
X-54305Y-42190D03*
X-54305Y-35190D03*
X-54305Y-28190D03*
X-54305Y-21190D03*
X-54305Y-14190D03*
X-54305Y-7190D03*
X-54305Y-190D03*
X-54305Y6810D03*
X-54305Y13810D03*
D36*
X-80555Y18310D03*
D13*
X-140665Y72605D03*
X-161665Y72605D03*
X-84755Y72605D03*
X-63755Y72605D03*
D37*
X-166490Y30485D03*
X-166490Y49485D03*
X-35000Y650D03*
X-35000Y19650D03*
X-163925Y-23705D03*
X-163925Y-4705D03*
D11*
X-105070Y75150D03*
X-124070Y75150D03*
G36*
X-166670Y-133749D02*
X-176580Y-123839D01*
X-165256Y-112515D01*
X-155346Y-122425D01*
X-166670Y-133749D01*
G37*
G36*
X-153234Y-147185D02*
X-163144Y-137275D01*
X-151820Y-125951D01*
X-141910Y-135861D01*
X-153234Y-147185D01*
G37*
D37*
X-58030Y-164350D03*
X-58030Y-145350D03*
D10*
X-37265Y-68910D03*
X-37265Y-51910D03*
X-28195Y-87075D03*
X-28195Y-104075D03*
D17*
X-73390Y-172285D03*
X-89390Y-172285D03*
X-89390Y-131285D03*
X-73390Y-131285D03*
D38*
X150000Y170000D03*
X150000Y144600D03*
X150000Y119200D03*
X150000Y93800D03*
X-150000Y95000D03*
X-150000Y120400D03*
X-150000Y145800D03*
X-150000Y171200D03*
D39*
X-120000Y180000D03*
X120000Y180000D03*
X120000Y-160000D03*
M02*
