G04 EAGLE Gerber X2 export*
%TF.Part,Single*%
%TF.FileFunction,Legend,Bot,1*%
%TF.FilePolarity,Positive*%
%TF.GenerationSoftware,Autodesk,EAGLE,9.0.0*%
%TF.CreationDate,2018-04-30T06:41:38Z*%
G75*
%MOMM*%
%FSLAX34Y34*%
%LPD*%
%AMOC8*
5,1,8,0,0,1.08239X$1,22.5*%
G01*
%ADD10C,0.152400*%
%ADD11C,0.076200*%
%ADD12C,0.203200*%


D10*
X59238Y-153238D02*
X59238Y-136968D01*
X53815Y-142391D01*
X48391Y-136968D01*
X48391Y-153238D01*
X40155Y-153238D02*
X34732Y-153238D01*
X40155Y-153238D02*
X42866Y-150526D01*
X42866Y-145103D01*
X40155Y-142391D01*
X34732Y-142391D01*
X32020Y-145103D01*
X32020Y-147815D01*
X42866Y-147815D01*
X23783Y-150526D02*
X23783Y-139680D01*
X23783Y-150526D02*
X21072Y-153238D01*
X21072Y-142391D02*
X26495Y-142391D01*
X12869Y-153238D02*
X7446Y-153238D01*
X12869Y-153238D02*
X15581Y-150526D01*
X15581Y-145103D01*
X12869Y-142391D01*
X7446Y-142391D01*
X4734Y-145103D01*
X4734Y-147815D01*
X15581Y-147815D01*
X-791Y-153238D02*
X-791Y-142391D01*
X-6214Y-142391D02*
X-791Y-147815D01*
X-6214Y-142391D02*
X-8926Y-142391D01*
X-30806Y-136968D02*
X-30806Y-147815D01*
X-36229Y-153238D01*
X-41652Y-147815D01*
X-41652Y-136968D01*
X-47177Y-142391D02*
X-52600Y-136968D01*
X-52600Y-153238D01*
X-47177Y-153238D02*
X-58024Y-153238D01*
D11*
X59619Y-160213D02*
X59619Y-169619D01*
X56484Y-166484D01*
X53348Y-169619D01*
X53348Y-160213D01*
X48696Y-169619D02*
X45561Y-169619D01*
X48696Y-169619D02*
X50264Y-168051D01*
X50264Y-164916D01*
X48696Y-163348D01*
X45561Y-163348D01*
X43993Y-164916D01*
X43993Y-166484D01*
X50264Y-166484D01*
X39341Y-163348D02*
X36206Y-163348D01*
X34638Y-164916D01*
X34638Y-169619D01*
X39341Y-169619D01*
X40909Y-168051D01*
X39341Y-166484D01*
X34638Y-166484D01*
X31553Y-169619D02*
X31553Y-163348D01*
X28418Y-163348D02*
X31553Y-166484D01*
X28418Y-163348D02*
X26850Y-163348D01*
X22190Y-163348D02*
X19054Y-163348D01*
X17487Y-164916D01*
X17487Y-169619D01*
X22190Y-169619D01*
X23757Y-168051D01*
X22190Y-166484D01*
X17487Y-166484D01*
X14402Y-169619D02*
X14402Y-160213D01*
X14402Y-169619D02*
X9699Y-169619D01*
X8132Y-168051D01*
X8132Y-164916D01*
X9699Y-163348D01*
X14402Y-163348D01*
X5047Y-160213D02*
X3479Y-160213D01*
X3479Y-169619D01*
X1912Y-169619D02*
X5047Y-169619D01*
X-2757Y-169619D02*
X-5893Y-169619D01*
X-2757Y-169619D02*
X-1190Y-168051D01*
X-1190Y-164916D01*
X-2757Y-163348D01*
X-5893Y-163348D01*
X-7460Y-164916D01*
X-7460Y-166484D01*
X-1190Y-166484D01*
X-19900Y-169619D02*
X-19900Y-160213D01*
X-23035Y-163348D01*
X-26171Y-160213D01*
X-26171Y-169619D01*
X-30823Y-169619D02*
X-33958Y-169619D01*
X-30823Y-169619D02*
X-29255Y-168051D01*
X-29255Y-164916D01*
X-30823Y-163348D01*
X-33958Y-163348D01*
X-35526Y-164916D01*
X-35526Y-166484D01*
X-29255Y-166484D01*
X-44881Y-169619D02*
X-44881Y-160213D01*
X-44881Y-169619D02*
X-40178Y-169619D01*
X-38610Y-168051D01*
X-38610Y-164916D01*
X-40178Y-163348D01*
X-44881Y-163348D01*
X-47966Y-163348D02*
X-49533Y-163348D01*
X-49533Y-169619D01*
X-47966Y-169619D02*
X-51101Y-169619D01*
X-49533Y-160213D02*
X-49533Y-158645D01*
X-55770Y-163348D02*
X-58905Y-163348D01*
X-60473Y-164916D01*
X-60473Y-169619D01*
X-55770Y-169619D01*
X-54202Y-168051D01*
X-55770Y-166484D01*
X-60473Y-166484D01*
D12*
X-46200Y127800D02*
X-46197Y128045D01*
X-46188Y128291D01*
X-46173Y128536D01*
X-46152Y128780D01*
X-46125Y129024D01*
X-46092Y129267D01*
X-46053Y129510D01*
X-46008Y129751D01*
X-45957Y129991D01*
X-45900Y130230D01*
X-45838Y130467D01*
X-45769Y130703D01*
X-45695Y130937D01*
X-45615Y131169D01*
X-45530Y131399D01*
X-45439Y131627D01*
X-45342Y131852D01*
X-45240Y132076D01*
X-45132Y132296D01*
X-45019Y132514D01*
X-44901Y132729D01*
X-44777Y132941D01*
X-44649Y133150D01*
X-44515Y133356D01*
X-44376Y133558D01*
X-44232Y133757D01*
X-44083Y133952D01*
X-43930Y134144D01*
X-43772Y134332D01*
X-43610Y134516D01*
X-43442Y134695D01*
X-43271Y134871D01*
X-43095Y135042D01*
X-42916Y135210D01*
X-42732Y135372D01*
X-42544Y135530D01*
X-42352Y135683D01*
X-42157Y135832D01*
X-41958Y135976D01*
X-41756Y136115D01*
X-41550Y136249D01*
X-41341Y136377D01*
X-41129Y136501D01*
X-40914Y136619D01*
X-40696Y136732D01*
X-40476Y136840D01*
X-40252Y136942D01*
X-40027Y137039D01*
X-39799Y137130D01*
X-39569Y137215D01*
X-39337Y137295D01*
X-39103Y137369D01*
X-38867Y137438D01*
X-38630Y137500D01*
X-38391Y137557D01*
X-38151Y137608D01*
X-37910Y137653D01*
X-37667Y137692D01*
X-37424Y137725D01*
X-37180Y137752D01*
X-36936Y137773D01*
X-36691Y137788D01*
X-36445Y137797D01*
X-36200Y137800D01*
X-35955Y137797D01*
X-35709Y137788D01*
X-35464Y137773D01*
X-35220Y137752D01*
X-34976Y137725D01*
X-34733Y137692D01*
X-34490Y137653D01*
X-34249Y137608D01*
X-34009Y137557D01*
X-33770Y137500D01*
X-33533Y137438D01*
X-33297Y137369D01*
X-33063Y137295D01*
X-32831Y137215D01*
X-32601Y137130D01*
X-32373Y137039D01*
X-32148Y136942D01*
X-31924Y136840D01*
X-31704Y136732D01*
X-31486Y136619D01*
X-31271Y136501D01*
X-31059Y136377D01*
X-30850Y136249D01*
X-30644Y136115D01*
X-30442Y135976D01*
X-30243Y135832D01*
X-30048Y135683D01*
X-29856Y135530D01*
X-29668Y135372D01*
X-29484Y135210D01*
X-29305Y135042D01*
X-29129Y134871D01*
X-28958Y134695D01*
X-28790Y134516D01*
X-28628Y134332D01*
X-28470Y134144D01*
X-28317Y133952D01*
X-28168Y133757D01*
X-28024Y133558D01*
X-27885Y133356D01*
X-27751Y133150D01*
X-27623Y132941D01*
X-27499Y132729D01*
X-27381Y132514D01*
X-27268Y132296D01*
X-27160Y132076D01*
X-27058Y131852D01*
X-26961Y131627D01*
X-26870Y131399D01*
X-26785Y131169D01*
X-26705Y130937D01*
X-26631Y130703D01*
X-26562Y130467D01*
X-26500Y130230D01*
X-26443Y129991D01*
X-26392Y129751D01*
X-26347Y129510D01*
X-26308Y129267D01*
X-26275Y129024D01*
X-26248Y128780D01*
X-26227Y128536D01*
X-26212Y128291D01*
X-26203Y128045D01*
X-26200Y127800D01*
X-26203Y127555D01*
X-26212Y127309D01*
X-26227Y127064D01*
X-26248Y126820D01*
X-26275Y126576D01*
X-26308Y126333D01*
X-26347Y126090D01*
X-26392Y125849D01*
X-26443Y125609D01*
X-26500Y125370D01*
X-26562Y125133D01*
X-26631Y124897D01*
X-26705Y124663D01*
X-26785Y124431D01*
X-26870Y124201D01*
X-26961Y123973D01*
X-27058Y123748D01*
X-27160Y123524D01*
X-27268Y123304D01*
X-27381Y123086D01*
X-27499Y122871D01*
X-27623Y122659D01*
X-27751Y122450D01*
X-27885Y122244D01*
X-28024Y122042D01*
X-28168Y121843D01*
X-28317Y121648D01*
X-28470Y121456D01*
X-28628Y121268D01*
X-28790Y121084D01*
X-28958Y120905D01*
X-29129Y120729D01*
X-29305Y120558D01*
X-29484Y120390D01*
X-29668Y120228D01*
X-29856Y120070D01*
X-30048Y119917D01*
X-30243Y119768D01*
X-30442Y119624D01*
X-30644Y119485D01*
X-30850Y119351D01*
X-31059Y119223D01*
X-31271Y119099D01*
X-31486Y118981D01*
X-31704Y118868D01*
X-31924Y118760D01*
X-32148Y118658D01*
X-32373Y118561D01*
X-32601Y118470D01*
X-32831Y118385D01*
X-33063Y118305D01*
X-33297Y118231D01*
X-33533Y118162D01*
X-33770Y118100D01*
X-34009Y118043D01*
X-34249Y117992D01*
X-34490Y117947D01*
X-34733Y117908D01*
X-34976Y117875D01*
X-35220Y117848D01*
X-35464Y117827D01*
X-35709Y117812D01*
X-35955Y117803D01*
X-36200Y117800D01*
X-36445Y117803D01*
X-36691Y117812D01*
X-36936Y117827D01*
X-37180Y117848D01*
X-37424Y117875D01*
X-37667Y117908D01*
X-37910Y117947D01*
X-38151Y117992D01*
X-38391Y118043D01*
X-38630Y118100D01*
X-38867Y118162D01*
X-39103Y118231D01*
X-39337Y118305D01*
X-39569Y118385D01*
X-39799Y118470D01*
X-40027Y118561D01*
X-40252Y118658D01*
X-40476Y118760D01*
X-40696Y118868D01*
X-40914Y118981D01*
X-41129Y119099D01*
X-41341Y119223D01*
X-41550Y119351D01*
X-41756Y119485D01*
X-41958Y119624D01*
X-42157Y119768D01*
X-42352Y119917D01*
X-42544Y120070D01*
X-42732Y120228D01*
X-42916Y120390D01*
X-43095Y120558D01*
X-43271Y120729D01*
X-43442Y120905D01*
X-43610Y121084D01*
X-43772Y121268D01*
X-43930Y121456D01*
X-44083Y121648D01*
X-44232Y121843D01*
X-44376Y122042D01*
X-44515Y122244D01*
X-44649Y122450D01*
X-44777Y122659D01*
X-44901Y122871D01*
X-45019Y123086D01*
X-45132Y123304D01*
X-45240Y123524D01*
X-45342Y123748D01*
X-45439Y123973D01*
X-45530Y124201D01*
X-45615Y124431D01*
X-45695Y124663D01*
X-45769Y124897D01*
X-45838Y125133D01*
X-45900Y125370D01*
X-45957Y125609D01*
X-46008Y125849D01*
X-46053Y126090D01*
X-46092Y126333D01*
X-46125Y126576D01*
X-46152Y126820D01*
X-46173Y127064D01*
X-46188Y127309D01*
X-46197Y127555D01*
X-46200Y127800D01*
D10*
X-42296Y96883D02*
X-35686Y96883D01*
X-35686Y94680D02*
X-35686Y99086D01*
X-35686Y102164D02*
X-42296Y102164D01*
X-35686Y102164D02*
X-35686Y105469D01*
X-36788Y106570D01*
X-38991Y106570D01*
X-40093Y105469D01*
X-40093Y102164D01*
X-37890Y109648D02*
X-35686Y111851D01*
X-42296Y111851D01*
X-42296Y109648D02*
X-42296Y114054D01*
D12*
X9600Y127800D02*
X9603Y128045D01*
X9612Y128291D01*
X9627Y128536D01*
X9648Y128780D01*
X9675Y129024D01*
X9708Y129267D01*
X9747Y129510D01*
X9792Y129751D01*
X9843Y129991D01*
X9900Y130230D01*
X9962Y130467D01*
X10031Y130703D01*
X10105Y130937D01*
X10185Y131169D01*
X10270Y131399D01*
X10361Y131627D01*
X10458Y131852D01*
X10560Y132076D01*
X10668Y132296D01*
X10781Y132514D01*
X10899Y132729D01*
X11023Y132941D01*
X11151Y133150D01*
X11285Y133356D01*
X11424Y133558D01*
X11568Y133757D01*
X11717Y133952D01*
X11870Y134144D01*
X12028Y134332D01*
X12190Y134516D01*
X12358Y134695D01*
X12529Y134871D01*
X12705Y135042D01*
X12884Y135210D01*
X13068Y135372D01*
X13256Y135530D01*
X13448Y135683D01*
X13643Y135832D01*
X13842Y135976D01*
X14044Y136115D01*
X14250Y136249D01*
X14459Y136377D01*
X14671Y136501D01*
X14886Y136619D01*
X15104Y136732D01*
X15324Y136840D01*
X15548Y136942D01*
X15773Y137039D01*
X16001Y137130D01*
X16231Y137215D01*
X16463Y137295D01*
X16697Y137369D01*
X16933Y137438D01*
X17170Y137500D01*
X17409Y137557D01*
X17649Y137608D01*
X17890Y137653D01*
X18133Y137692D01*
X18376Y137725D01*
X18620Y137752D01*
X18864Y137773D01*
X19109Y137788D01*
X19355Y137797D01*
X19600Y137800D01*
X19845Y137797D01*
X20091Y137788D01*
X20336Y137773D01*
X20580Y137752D01*
X20824Y137725D01*
X21067Y137692D01*
X21310Y137653D01*
X21551Y137608D01*
X21791Y137557D01*
X22030Y137500D01*
X22267Y137438D01*
X22503Y137369D01*
X22737Y137295D01*
X22969Y137215D01*
X23199Y137130D01*
X23427Y137039D01*
X23652Y136942D01*
X23876Y136840D01*
X24096Y136732D01*
X24314Y136619D01*
X24529Y136501D01*
X24741Y136377D01*
X24950Y136249D01*
X25156Y136115D01*
X25358Y135976D01*
X25557Y135832D01*
X25752Y135683D01*
X25944Y135530D01*
X26132Y135372D01*
X26316Y135210D01*
X26495Y135042D01*
X26671Y134871D01*
X26842Y134695D01*
X27010Y134516D01*
X27172Y134332D01*
X27330Y134144D01*
X27483Y133952D01*
X27632Y133757D01*
X27776Y133558D01*
X27915Y133356D01*
X28049Y133150D01*
X28177Y132941D01*
X28301Y132729D01*
X28419Y132514D01*
X28532Y132296D01*
X28640Y132076D01*
X28742Y131852D01*
X28839Y131627D01*
X28930Y131399D01*
X29015Y131169D01*
X29095Y130937D01*
X29169Y130703D01*
X29238Y130467D01*
X29300Y130230D01*
X29357Y129991D01*
X29408Y129751D01*
X29453Y129510D01*
X29492Y129267D01*
X29525Y129024D01*
X29552Y128780D01*
X29573Y128536D01*
X29588Y128291D01*
X29597Y128045D01*
X29600Y127800D01*
X29597Y127555D01*
X29588Y127309D01*
X29573Y127064D01*
X29552Y126820D01*
X29525Y126576D01*
X29492Y126333D01*
X29453Y126090D01*
X29408Y125849D01*
X29357Y125609D01*
X29300Y125370D01*
X29238Y125133D01*
X29169Y124897D01*
X29095Y124663D01*
X29015Y124431D01*
X28930Y124201D01*
X28839Y123973D01*
X28742Y123748D01*
X28640Y123524D01*
X28532Y123304D01*
X28419Y123086D01*
X28301Y122871D01*
X28177Y122659D01*
X28049Y122450D01*
X27915Y122244D01*
X27776Y122042D01*
X27632Y121843D01*
X27483Y121648D01*
X27330Y121456D01*
X27172Y121268D01*
X27010Y121084D01*
X26842Y120905D01*
X26671Y120729D01*
X26495Y120558D01*
X26316Y120390D01*
X26132Y120228D01*
X25944Y120070D01*
X25752Y119917D01*
X25557Y119768D01*
X25358Y119624D01*
X25156Y119485D01*
X24950Y119351D01*
X24741Y119223D01*
X24529Y119099D01*
X24314Y118981D01*
X24096Y118868D01*
X23876Y118760D01*
X23652Y118658D01*
X23427Y118561D01*
X23199Y118470D01*
X22969Y118385D01*
X22737Y118305D01*
X22503Y118231D01*
X22267Y118162D01*
X22030Y118100D01*
X21791Y118043D01*
X21551Y117992D01*
X21310Y117947D01*
X21067Y117908D01*
X20824Y117875D01*
X20580Y117848D01*
X20336Y117827D01*
X20091Y117812D01*
X19845Y117803D01*
X19600Y117800D01*
X19355Y117803D01*
X19109Y117812D01*
X18864Y117827D01*
X18620Y117848D01*
X18376Y117875D01*
X18133Y117908D01*
X17890Y117947D01*
X17649Y117992D01*
X17409Y118043D01*
X17170Y118100D01*
X16933Y118162D01*
X16697Y118231D01*
X16463Y118305D01*
X16231Y118385D01*
X16001Y118470D01*
X15773Y118561D01*
X15548Y118658D01*
X15324Y118760D01*
X15104Y118868D01*
X14886Y118981D01*
X14671Y119099D01*
X14459Y119223D01*
X14250Y119351D01*
X14044Y119485D01*
X13842Y119624D01*
X13643Y119768D01*
X13448Y119917D01*
X13256Y120070D01*
X13068Y120228D01*
X12884Y120390D01*
X12705Y120558D01*
X12529Y120729D01*
X12358Y120905D01*
X12190Y121084D01*
X12028Y121268D01*
X11870Y121456D01*
X11717Y121648D01*
X11568Y121843D01*
X11424Y122042D01*
X11285Y122244D01*
X11151Y122450D01*
X11023Y122659D01*
X10899Y122871D01*
X10781Y123086D01*
X10668Y123304D01*
X10560Y123524D01*
X10458Y123748D01*
X10361Y123973D01*
X10270Y124201D01*
X10185Y124431D01*
X10105Y124663D01*
X10031Y124897D01*
X9962Y125133D01*
X9900Y125370D01*
X9843Y125609D01*
X9792Y125849D01*
X9747Y126090D01*
X9708Y126333D01*
X9675Y126576D01*
X9648Y126820D01*
X9627Y127064D01*
X9612Y127309D01*
X9603Y127555D01*
X9600Y127800D01*
D10*
X13504Y96883D02*
X20114Y96883D01*
X20114Y94680D02*
X20114Y99086D01*
X20114Y102164D02*
X13504Y102164D01*
X20114Y102164D02*
X20114Y105469D01*
X19012Y106570D01*
X16809Y106570D01*
X15707Y105469D01*
X15707Y102164D01*
X13504Y109648D02*
X13504Y114054D01*
X13504Y109648D02*
X17910Y114054D01*
X19012Y114054D01*
X20114Y112953D01*
X20114Y110749D01*
X19012Y109648D01*
D12*
X-8300Y127400D02*
X-8297Y127645D01*
X-8288Y127891D01*
X-8273Y128136D01*
X-8252Y128380D01*
X-8225Y128624D01*
X-8192Y128867D01*
X-8153Y129110D01*
X-8108Y129351D01*
X-8057Y129591D01*
X-8000Y129830D01*
X-7938Y130067D01*
X-7869Y130303D01*
X-7795Y130537D01*
X-7715Y130769D01*
X-7630Y130999D01*
X-7539Y131227D01*
X-7442Y131452D01*
X-7340Y131676D01*
X-7232Y131896D01*
X-7119Y132114D01*
X-7001Y132329D01*
X-6877Y132541D01*
X-6749Y132750D01*
X-6615Y132956D01*
X-6476Y133158D01*
X-6332Y133357D01*
X-6183Y133552D01*
X-6030Y133744D01*
X-5872Y133932D01*
X-5710Y134116D01*
X-5542Y134295D01*
X-5371Y134471D01*
X-5195Y134642D01*
X-5016Y134810D01*
X-4832Y134972D01*
X-4644Y135130D01*
X-4452Y135283D01*
X-4257Y135432D01*
X-4058Y135576D01*
X-3856Y135715D01*
X-3650Y135849D01*
X-3441Y135977D01*
X-3229Y136101D01*
X-3014Y136219D01*
X-2796Y136332D01*
X-2576Y136440D01*
X-2352Y136542D01*
X-2127Y136639D01*
X-1899Y136730D01*
X-1669Y136815D01*
X-1437Y136895D01*
X-1203Y136969D01*
X-967Y137038D01*
X-730Y137100D01*
X-491Y137157D01*
X-251Y137208D01*
X-10Y137253D01*
X233Y137292D01*
X476Y137325D01*
X720Y137352D01*
X964Y137373D01*
X1209Y137388D01*
X1455Y137397D01*
X1700Y137400D01*
X1945Y137397D01*
X2191Y137388D01*
X2436Y137373D01*
X2680Y137352D01*
X2924Y137325D01*
X3167Y137292D01*
X3410Y137253D01*
X3651Y137208D01*
X3891Y137157D01*
X4130Y137100D01*
X4367Y137038D01*
X4603Y136969D01*
X4837Y136895D01*
X5069Y136815D01*
X5299Y136730D01*
X5527Y136639D01*
X5752Y136542D01*
X5976Y136440D01*
X6196Y136332D01*
X6414Y136219D01*
X6629Y136101D01*
X6841Y135977D01*
X7050Y135849D01*
X7256Y135715D01*
X7458Y135576D01*
X7657Y135432D01*
X7852Y135283D01*
X8044Y135130D01*
X8232Y134972D01*
X8416Y134810D01*
X8595Y134642D01*
X8771Y134471D01*
X8942Y134295D01*
X9110Y134116D01*
X9272Y133932D01*
X9430Y133744D01*
X9583Y133552D01*
X9732Y133357D01*
X9876Y133158D01*
X10015Y132956D01*
X10149Y132750D01*
X10277Y132541D01*
X10401Y132329D01*
X10519Y132114D01*
X10632Y131896D01*
X10740Y131676D01*
X10842Y131452D01*
X10939Y131227D01*
X11030Y130999D01*
X11115Y130769D01*
X11195Y130537D01*
X11269Y130303D01*
X11338Y130067D01*
X11400Y129830D01*
X11457Y129591D01*
X11508Y129351D01*
X11553Y129110D01*
X11592Y128867D01*
X11625Y128624D01*
X11652Y128380D01*
X11673Y128136D01*
X11688Y127891D01*
X11697Y127645D01*
X11700Y127400D01*
X11697Y127155D01*
X11688Y126909D01*
X11673Y126664D01*
X11652Y126420D01*
X11625Y126176D01*
X11592Y125933D01*
X11553Y125690D01*
X11508Y125449D01*
X11457Y125209D01*
X11400Y124970D01*
X11338Y124733D01*
X11269Y124497D01*
X11195Y124263D01*
X11115Y124031D01*
X11030Y123801D01*
X10939Y123573D01*
X10842Y123348D01*
X10740Y123124D01*
X10632Y122904D01*
X10519Y122686D01*
X10401Y122471D01*
X10277Y122259D01*
X10149Y122050D01*
X10015Y121844D01*
X9876Y121642D01*
X9732Y121443D01*
X9583Y121248D01*
X9430Y121056D01*
X9272Y120868D01*
X9110Y120684D01*
X8942Y120505D01*
X8771Y120329D01*
X8595Y120158D01*
X8416Y119990D01*
X8232Y119828D01*
X8044Y119670D01*
X7852Y119517D01*
X7657Y119368D01*
X7458Y119224D01*
X7256Y119085D01*
X7050Y118951D01*
X6841Y118823D01*
X6629Y118699D01*
X6414Y118581D01*
X6196Y118468D01*
X5976Y118360D01*
X5752Y118258D01*
X5527Y118161D01*
X5299Y118070D01*
X5069Y117985D01*
X4837Y117905D01*
X4603Y117831D01*
X4367Y117762D01*
X4130Y117700D01*
X3891Y117643D01*
X3651Y117592D01*
X3410Y117547D01*
X3167Y117508D01*
X2924Y117475D01*
X2680Y117448D01*
X2436Y117427D01*
X2191Y117412D01*
X1945Y117403D01*
X1700Y117400D01*
X1455Y117403D01*
X1209Y117412D01*
X964Y117427D01*
X720Y117448D01*
X476Y117475D01*
X233Y117508D01*
X-10Y117547D01*
X-251Y117592D01*
X-491Y117643D01*
X-730Y117700D01*
X-967Y117762D01*
X-1203Y117831D01*
X-1437Y117905D01*
X-1669Y117985D01*
X-1899Y118070D01*
X-2127Y118161D01*
X-2352Y118258D01*
X-2576Y118360D01*
X-2796Y118468D01*
X-3014Y118581D01*
X-3229Y118699D01*
X-3441Y118823D01*
X-3650Y118951D01*
X-3856Y119085D01*
X-4058Y119224D01*
X-4257Y119368D01*
X-4452Y119517D01*
X-4644Y119670D01*
X-4832Y119828D01*
X-5016Y119990D01*
X-5195Y120158D01*
X-5371Y120329D01*
X-5542Y120505D01*
X-5710Y120684D01*
X-5872Y120868D01*
X-6030Y121056D01*
X-6183Y121248D01*
X-6332Y121443D01*
X-6476Y121642D01*
X-6615Y121844D01*
X-6749Y122050D01*
X-6877Y122259D01*
X-7001Y122471D01*
X-7119Y122686D01*
X-7232Y122904D01*
X-7340Y123124D01*
X-7442Y123348D01*
X-7539Y123573D01*
X-7630Y123801D01*
X-7715Y124031D01*
X-7795Y124263D01*
X-7869Y124497D01*
X-7938Y124733D01*
X-8000Y124970D01*
X-8057Y125209D01*
X-8108Y125449D01*
X-8153Y125690D01*
X-8192Y125933D01*
X-8225Y126176D01*
X-8252Y126420D01*
X-8273Y126664D01*
X-8288Y126909D01*
X-8297Y127155D01*
X-8300Y127400D01*
D10*
X-4396Y96483D02*
X2214Y96483D01*
X2214Y94280D02*
X2214Y98686D01*
X2214Y101764D02*
X-4396Y101764D01*
X2214Y101764D02*
X2214Y105069D01*
X1112Y106170D01*
X-1091Y106170D01*
X-2193Y105069D01*
X-2193Y101764D01*
X1112Y109248D02*
X2214Y110349D01*
X2214Y112553D01*
X1112Y113654D01*
X10Y113654D01*
X-1091Y112553D01*
X-1091Y111451D01*
X-1091Y112553D02*
X-2193Y113654D01*
X-3294Y113654D01*
X-4396Y112553D01*
X-4396Y110349D01*
X-3294Y109248D01*
D12*
X-70800Y127800D02*
X-70797Y128045D01*
X-70788Y128291D01*
X-70773Y128536D01*
X-70752Y128780D01*
X-70725Y129024D01*
X-70692Y129267D01*
X-70653Y129510D01*
X-70608Y129751D01*
X-70557Y129991D01*
X-70500Y130230D01*
X-70438Y130467D01*
X-70369Y130703D01*
X-70295Y130937D01*
X-70215Y131169D01*
X-70130Y131399D01*
X-70039Y131627D01*
X-69942Y131852D01*
X-69840Y132076D01*
X-69732Y132296D01*
X-69619Y132514D01*
X-69501Y132729D01*
X-69377Y132941D01*
X-69249Y133150D01*
X-69115Y133356D01*
X-68976Y133558D01*
X-68832Y133757D01*
X-68683Y133952D01*
X-68530Y134144D01*
X-68372Y134332D01*
X-68210Y134516D01*
X-68042Y134695D01*
X-67871Y134871D01*
X-67695Y135042D01*
X-67516Y135210D01*
X-67332Y135372D01*
X-67144Y135530D01*
X-66952Y135683D01*
X-66757Y135832D01*
X-66558Y135976D01*
X-66356Y136115D01*
X-66150Y136249D01*
X-65941Y136377D01*
X-65729Y136501D01*
X-65514Y136619D01*
X-65296Y136732D01*
X-65076Y136840D01*
X-64852Y136942D01*
X-64627Y137039D01*
X-64399Y137130D01*
X-64169Y137215D01*
X-63937Y137295D01*
X-63703Y137369D01*
X-63467Y137438D01*
X-63230Y137500D01*
X-62991Y137557D01*
X-62751Y137608D01*
X-62510Y137653D01*
X-62267Y137692D01*
X-62024Y137725D01*
X-61780Y137752D01*
X-61536Y137773D01*
X-61291Y137788D01*
X-61045Y137797D01*
X-60800Y137800D01*
X-60555Y137797D01*
X-60309Y137788D01*
X-60064Y137773D01*
X-59820Y137752D01*
X-59576Y137725D01*
X-59333Y137692D01*
X-59090Y137653D01*
X-58849Y137608D01*
X-58609Y137557D01*
X-58370Y137500D01*
X-58133Y137438D01*
X-57897Y137369D01*
X-57663Y137295D01*
X-57431Y137215D01*
X-57201Y137130D01*
X-56973Y137039D01*
X-56748Y136942D01*
X-56524Y136840D01*
X-56304Y136732D01*
X-56086Y136619D01*
X-55871Y136501D01*
X-55659Y136377D01*
X-55450Y136249D01*
X-55244Y136115D01*
X-55042Y135976D01*
X-54843Y135832D01*
X-54648Y135683D01*
X-54456Y135530D01*
X-54268Y135372D01*
X-54084Y135210D01*
X-53905Y135042D01*
X-53729Y134871D01*
X-53558Y134695D01*
X-53390Y134516D01*
X-53228Y134332D01*
X-53070Y134144D01*
X-52917Y133952D01*
X-52768Y133757D01*
X-52624Y133558D01*
X-52485Y133356D01*
X-52351Y133150D01*
X-52223Y132941D01*
X-52099Y132729D01*
X-51981Y132514D01*
X-51868Y132296D01*
X-51760Y132076D01*
X-51658Y131852D01*
X-51561Y131627D01*
X-51470Y131399D01*
X-51385Y131169D01*
X-51305Y130937D01*
X-51231Y130703D01*
X-51162Y130467D01*
X-51100Y130230D01*
X-51043Y129991D01*
X-50992Y129751D01*
X-50947Y129510D01*
X-50908Y129267D01*
X-50875Y129024D01*
X-50848Y128780D01*
X-50827Y128536D01*
X-50812Y128291D01*
X-50803Y128045D01*
X-50800Y127800D01*
X-50803Y127555D01*
X-50812Y127309D01*
X-50827Y127064D01*
X-50848Y126820D01*
X-50875Y126576D01*
X-50908Y126333D01*
X-50947Y126090D01*
X-50992Y125849D01*
X-51043Y125609D01*
X-51100Y125370D01*
X-51162Y125133D01*
X-51231Y124897D01*
X-51305Y124663D01*
X-51385Y124431D01*
X-51470Y124201D01*
X-51561Y123973D01*
X-51658Y123748D01*
X-51760Y123524D01*
X-51868Y123304D01*
X-51981Y123086D01*
X-52099Y122871D01*
X-52223Y122659D01*
X-52351Y122450D01*
X-52485Y122244D01*
X-52624Y122042D01*
X-52768Y121843D01*
X-52917Y121648D01*
X-53070Y121456D01*
X-53228Y121268D01*
X-53390Y121084D01*
X-53558Y120905D01*
X-53729Y120729D01*
X-53905Y120558D01*
X-54084Y120390D01*
X-54268Y120228D01*
X-54456Y120070D01*
X-54648Y119917D01*
X-54843Y119768D01*
X-55042Y119624D01*
X-55244Y119485D01*
X-55450Y119351D01*
X-55659Y119223D01*
X-55871Y119099D01*
X-56086Y118981D01*
X-56304Y118868D01*
X-56524Y118760D01*
X-56748Y118658D01*
X-56973Y118561D01*
X-57201Y118470D01*
X-57431Y118385D01*
X-57663Y118305D01*
X-57897Y118231D01*
X-58133Y118162D01*
X-58370Y118100D01*
X-58609Y118043D01*
X-58849Y117992D01*
X-59090Y117947D01*
X-59333Y117908D01*
X-59576Y117875D01*
X-59820Y117848D01*
X-60064Y117827D01*
X-60309Y117812D01*
X-60555Y117803D01*
X-60800Y117800D01*
X-61045Y117803D01*
X-61291Y117812D01*
X-61536Y117827D01*
X-61780Y117848D01*
X-62024Y117875D01*
X-62267Y117908D01*
X-62510Y117947D01*
X-62751Y117992D01*
X-62991Y118043D01*
X-63230Y118100D01*
X-63467Y118162D01*
X-63703Y118231D01*
X-63937Y118305D01*
X-64169Y118385D01*
X-64399Y118470D01*
X-64627Y118561D01*
X-64852Y118658D01*
X-65076Y118760D01*
X-65296Y118868D01*
X-65514Y118981D01*
X-65729Y119099D01*
X-65941Y119223D01*
X-66150Y119351D01*
X-66356Y119485D01*
X-66558Y119624D01*
X-66757Y119768D01*
X-66952Y119917D01*
X-67144Y120070D01*
X-67332Y120228D01*
X-67516Y120390D01*
X-67695Y120558D01*
X-67871Y120729D01*
X-68042Y120905D01*
X-68210Y121084D01*
X-68372Y121268D01*
X-68530Y121456D01*
X-68683Y121648D01*
X-68832Y121843D01*
X-68976Y122042D01*
X-69115Y122244D01*
X-69249Y122450D01*
X-69377Y122659D01*
X-69501Y122871D01*
X-69619Y123086D01*
X-69732Y123304D01*
X-69840Y123524D01*
X-69942Y123748D01*
X-70039Y123973D01*
X-70130Y124201D01*
X-70215Y124431D01*
X-70295Y124663D01*
X-70369Y124897D01*
X-70438Y125133D01*
X-70500Y125370D01*
X-70557Y125609D01*
X-70608Y125849D01*
X-70653Y126090D01*
X-70692Y126333D01*
X-70725Y126576D01*
X-70752Y126820D01*
X-70773Y127064D01*
X-70788Y127309D01*
X-70797Y127555D01*
X-70800Y127800D01*
D10*
X-66896Y96883D02*
X-60286Y96883D01*
X-60286Y94680D02*
X-60286Y99086D01*
X-60286Y102164D02*
X-66896Y102164D01*
X-60286Y102164D02*
X-60286Y105469D01*
X-61388Y106570D01*
X-63591Y106570D01*
X-64693Y105469D01*
X-64693Y102164D01*
X-66896Y112953D02*
X-60286Y112953D01*
X-63591Y109648D01*
X-63591Y114054D01*
D12*
X-150890Y29525D02*
X-150890Y-85475D01*
X-150890Y29525D02*
X-100890Y29525D01*
X-100890Y-85475D01*
X-150890Y-85475D01*
D10*
X-89220Y-78213D02*
X-88118Y-78213D01*
X-89220Y-78213D02*
X-91423Y-76010D01*
X-89220Y-73807D01*
X-88118Y-73807D01*
X-91423Y-76010D02*
X-94728Y-76010D01*
X-94728Y-70729D02*
X-94728Y-66322D01*
X-90322Y-66322D02*
X-94728Y-70729D01*
X-90322Y-66322D02*
X-89220Y-66322D01*
X-88118Y-67424D01*
X-88118Y-69627D01*
X-89220Y-70729D01*
D12*
X-92075Y-6030D02*
X-92072Y-5785D01*
X-92063Y-5539D01*
X-92048Y-5294D01*
X-92027Y-5050D01*
X-92000Y-4806D01*
X-91967Y-4563D01*
X-91928Y-4320D01*
X-91883Y-4079D01*
X-91832Y-3839D01*
X-91775Y-3600D01*
X-91713Y-3363D01*
X-91644Y-3127D01*
X-91570Y-2893D01*
X-91490Y-2661D01*
X-91405Y-2431D01*
X-91314Y-2203D01*
X-91217Y-1978D01*
X-91115Y-1754D01*
X-91007Y-1534D01*
X-90894Y-1316D01*
X-90776Y-1101D01*
X-90652Y-889D01*
X-90524Y-680D01*
X-90390Y-474D01*
X-90251Y-272D01*
X-90107Y-73D01*
X-89958Y122D01*
X-89805Y314D01*
X-89647Y502D01*
X-89485Y686D01*
X-89317Y865D01*
X-89146Y1041D01*
X-88970Y1212D01*
X-88791Y1380D01*
X-88607Y1542D01*
X-88419Y1700D01*
X-88227Y1853D01*
X-88032Y2002D01*
X-87833Y2146D01*
X-87631Y2285D01*
X-87425Y2419D01*
X-87216Y2547D01*
X-87004Y2671D01*
X-86789Y2789D01*
X-86571Y2902D01*
X-86351Y3010D01*
X-86127Y3112D01*
X-85902Y3209D01*
X-85674Y3300D01*
X-85444Y3385D01*
X-85212Y3465D01*
X-84978Y3539D01*
X-84742Y3608D01*
X-84505Y3670D01*
X-84266Y3727D01*
X-84026Y3778D01*
X-83785Y3823D01*
X-83542Y3862D01*
X-83299Y3895D01*
X-83055Y3922D01*
X-82811Y3943D01*
X-82566Y3958D01*
X-82320Y3967D01*
X-82075Y3970D01*
X-81830Y3967D01*
X-81584Y3958D01*
X-81339Y3943D01*
X-81095Y3922D01*
X-80851Y3895D01*
X-80608Y3862D01*
X-80365Y3823D01*
X-80124Y3778D01*
X-79884Y3727D01*
X-79645Y3670D01*
X-79408Y3608D01*
X-79172Y3539D01*
X-78938Y3465D01*
X-78706Y3385D01*
X-78476Y3300D01*
X-78248Y3209D01*
X-78023Y3112D01*
X-77799Y3010D01*
X-77579Y2902D01*
X-77361Y2789D01*
X-77146Y2671D01*
X-76934Y2547D01*
X-76725Y2419D01*
X-76519Y2285D01*
X-76317Y2146D01*
X-76118Y2002D01*
X-75923Y1853D01*
X-75731Y1700D01*
X-75543Y1542D01*
X-75359Y1380D01*
X-75180Y1212D01*
X-75004Y1041D01*
X-74833Y865D01*
X-74665Y686D01*
X-74503Y502D01*
X-74345Y314D01*
X-74192Y122D01*
X-74043Y-73D01*
X-73899Y-272D01*
X-73760Y-474D01*
X-73626Y-680D01*
X-73498Y-889D01*
X-73374Y-1101D01*
X-73256Y-1316D01*
X-73143Y-1534D01*
X-73035Y-1754D01*
X-72933Y-1978D01*
X-72836Y-2203D01*
X-72745Y-2431D01*
X-72660Y-2661D01*
X-72580Y-2893D01*
X-72506Y-3127D01*
X-72437Y-3363D01*
X-72375Y-3600D01*
X-72318Y-3839D01*
X-72267Y-4079D01*
X-72222Y-4320D01*
X-72183Y-4563D01*
X-72150Y-4806D01*
X-72123Y-5050D01*
X-72102Y-5294D01*
X-72087Y-5539D01*
X-72078Y-5785D01*
X-72075Y-6030D01*
X-72078Y-6275D01*
X-72087Y-6521D01*
X-72102Y-6766D01*
X-72123Y-7010D01*
X-72150Y-7254D01*
X-72183Y-7497D01*
X-72222Y-7740D01*
X-72267Y-7981D01*
X-72318Y-8221D01*
X-72375Y-8460D01*
X-72437Y-8697D01*
X-72506Y-8933D01*
X-72580Y-9167D01*
X-72660Y-9399D01*
X-72745Y-9629D01*
X-72836Y-9857D01*
X-72933Y-10082D01*
X-73035Y-10306D01*
X-73143Y-10526D01*
X-73256Y-10744D01*
X-73374Y-10959D01*
X-73498Y-11171D01*
X-73626Y-11380D01*
X-73760Y-11586D01*
X-73899Y-11788D01*
X-74043Y-11987D01*
X-74192Y-12182D01*
X-74345Y-12374D01*
X-74503Y-12562D01*
X-74665Y-12746D01*
X-74833Y-12925D01*
X-75004Y-13101D01*
X-75180Y-13272D01*
X-75359Y-13440D01*
X-75543Y-13602D01*
X-75731Y-13760D01*
X-75923Y-13913D01*
X-76118Y-14062D01*
X-76317Y-14206D01*
X-76519Y-14345D01*
X-76725Y-14479D01*
X-76934Y-14607D01*
X-77146Y-14731D01*
X-77361Y-14849D01*
X-77579Y-14962D01*
X-77799Y-15070D01*
X-78023Y-15172D01*
X-78248Y-15269D01*
X-78476Y-15360D01*
X-78706Y-15445D01*
X-78938Y-15525D01*
X-79172Y-15599D01*
X-79408Y-15668D01*
X-79645Y-15730D01*
X-79884Y-15787D01*
X-80124Y-15838D01*
X-80365Y-15883D01*
X-80608Y-15922D01*
X-80851Y-15955D01*
X-81095Y-15982D01*
X-81339Y-16003D01*
X-81584Y-16018D01*
X-81830Y-16027D01*
X-82075Y-16030D01*
X-82320Y-16027D01*
X-82566Y-16018D01*
X-82811Y-16003D01*
X-83055Y-15982D01*
X-83299Y-15955D01*
X-83542Y-15922D01*
X-83785Y-15883D01*
X-84026Y-15838D01*
X-84266Y-15787D01*
X-84505Y-15730D01*
X-84742Y-15668D01*
X-84978Y-15599D01*
X-85212Y-15525D01*
X-85444Y-15445D01*
X-85674Y-15360D01*
X-85902Y-15269D01*
X-86127Y-15172D01*
X-86351Y-15070D01*
X-86571Y-14962D01*
X-86789Y-14849D01*
X-87004Y-14731D01*
X-87216Y-14607D01*
X-87425Y-14479D01*
X-87631Y-14345D01*
X-87833Y-14206D01*
X-88032Y-14062D01*
X-88227Y-13913D01*
X-88419Y-13760D01*
X-88607Y-13602D01*
X-88791Y-13440D01*
X-88970Y-13272D01*
X-89146Y-13101D01*
X-89317Y-12925D01*
X-89485Y-12746D01*
X-89647Y-12562D01*
X-89805Y-12374D01*
X-89958Y-12182D01*
X-90107Y-11987D01*
X-90251Y-11788D01*
X-90390Y-11586D01*
X-90524Y-11380D01*
X-90652Y-11171D01*
X-90776Y-10959D01*
X-90894Y-10744D01*
X-91007Y-10526D01*
X-91115Y-10306D01*
X-91217Y-10082D01*
X-91314Y-9857D01*
X-91405Y-9629D01*
X-91490Y-9399D01*
X-91570Y-9167D01*
X-91644Y-8933D01*
X-91713Y-8697D01*
X-91775Y-8460D01*
X-91832Y-8221D01*
X-91883Y-7981D01*
X-91928Y-7740D01*
X-91967Y-7497D01*
X-92000Y-7254D01*
X-92027Y-7010D01*
X-92048Y-6766D01*
X-92063Y-6521D01*
X-92072Y-6275D01*
X-92075Y-6030D01*
D10*
X-96470Y-6538D02*
X-96470Y72D01*
X-94267Y72D02*
X-98673Y72D01*
X-101751Y72D02*
X-101751Y-6538D01*
X-101751Y72D02*
X-105056Y72D01*
X-106158Y-1030D01*
X-106158Y-3233D01*
X-105056Y-4335D01*
X-101751Y-4335D01*
X-109235Y72D02*
X-113642Y72D01*
X-109235Y72D02*
X-109235Y-3233D01*
X-111439Y-2132D01*
X-112540Y-2132D01*
X-113642Y-3233D01*
X-113642Y-5436D01*
X-112540Y-6538D01*
X-110337Y-6538D01*
X-109235Y-5436D01*
D12*
X-92075Y-28890D02*
X-92072Y-28645D01*
X-92063Y-28399D01*
X-92048Y-28154D01*
X-92027Y-27910D01*
X-92000Y-27666D01*
X-91967Y-27423D01*
X-91928Y-27180D01*
X-91883Y-26939D01*
X-91832Y-26699D01*
X-91775Y-26460D01*
X-91713Y-26223D01*
X-91644Y-25987D01*
X-91570Y-25753D01*
X-91490Y-25521D01*
X-91405Y-25291D01*
X-91314Y-25063D01*
X-91217Y-24838D01*
X-91115Y-24614D01*
X-91007Y-24394D01*
X-90894Y-24176D01*
X-90776Y-23961D01*
X-90652Y-23749D01*
X-90524Y-23540D01*
X-90390Y-23334D01*
X-90251Y-23132D01*
X-90107Y-22933D01*
X-89958Y-22738D01*
X-89805Y-22546D01*
X-89647Y-22358D01*
X-89485Y-22174D01*
X-89317Y-21995D01*
X-89146Y-21819D01*
X-88970Y-21648D01*
X-88791Y-21480D01*
X-88607Y-21318D01*
X-88419Y-21160D01*
X-88227Y-21007D01*
X-88032Y-20858D01*
X-87833Y-20714D01*
X-87631Y-20575D01*
X-87425Y-20441D01*
X-87216Y-20313D01*
X-87004Y-20189D01*
X-86789Y-20071D01*
X-86571Y-19958D01*
X-86351Y-19850D01*
X-86127Y-19748D01*
X-85902Y-19651D01*
X-85674Y-19560D01*
X-85444Y-19475D01*
X-85212Y-19395D01*
X-84978Y-19321D01*
X-84742Y-19252D01*
X-84505Y-19190D01*
X-84266Y-19133D01*
X-84026Y-19082D01*
X-83785Y-19037D01*
X-83542Y-18998D01*
X-83299Y-18965D01*
X-83055Y-18938D01*
X-82811Y-18917D01*
X-82566Y-18902D01*
X-82320Y-18893D01*
X-82075Y-18890D01*
X-81830Y-18893D01*
X-81584Y-18902D01*
X-81339Y-18917D01*
X-81095Y-18938D01*
X-80851Y-18965D01*
X-80608Y-18998D01*
X-80365Y-19037D01*
X-80124Y-19082D01*
X-79884Y-19133D01*
X-79645Y-19190D01*
X-79408Y-19252D01*
X-79172Y-19321D01*
X-78938Y-19395D01*
X-78706Y-19475D01*
X-78476Y-19560D01*
X-78248Y-19651D01*
X-78023Y-19748D01*
X-77799Y-19850D01*
X-77579Y-19958D01*
X-77361Y-20071D01*
X-77146Y-20189D01*
X-76934Y-20313D01*
X-76725Y-20441D01*
X-76519Y-20575D01*
X-76317Y-20714D01*
X-76118Y-20858D01*
X-75923Y-21007D01*
X-75731Y-21160D01*
X-75543Y-21318D01*
X-75359Y-21480D01*
X-75180Y-21648D01*
X-75004Y-21819D01*
X-74833Y-21995D01*
X-74665Y-22174D01*
X-74503Y-22358D01*
X-74345Y-22546D01*
X-74192Y-22738D01*
X-74043Y-22933D01*
X-73899Y-23132D01*
X-73760Y-23334D01*
X-73626Y-23540D01*
X-73498Y-23749D01*
X-73374Y-23961D01*
X-73256Y-24176D01*
X-73143Y-24394D01*
X-73035Y-24614D01*
X-72933Y-24838D01*
X-72836Y-25063D01*
X-72745Y-25291D01*
X-72660Y-25521D01*
X-72580Y-25753D01*
X-72506Y-25987D01*
X-72437Y-26223D01*
X-72375Y-26460D01*
X-72318Y-26699D01*
X-72267Y-26939D01*
X-72222Y-27180D01*
X-72183Y-27423D01*
X-72150Y-27666D01*
X-72123Y-27910D01*
X-72102Y-28154D01*
X-72087Y-28399D01*
X-72078Y-28645D01*
X-72075Y-28890D01*
X-72078Y-29135D01*
X-72087Y-29381D01*
X-72102Y-29626D01*
X-72123Y-29870D01*
X-72150Y-30114D01*
X-72183Y-30357D01*
X-72222Y-30600D01*
X-72267Y-30841D01*
X-72318Y-31081D01*
X-72375Y-31320D01*
X-72437Y-31557D01*
X-72506Y-31793D01*
X-72580Y-32027D01*
X-72660Y-32259D01*
X-72745Y-32489D01*
X-72836Y-32717D01*
X-72933Y-32942D01*
X-73035Y-33166D01*
X-73143Y-33386D01*
X-73256Y-33604D01*
X-73374Y-33819D01*
X-73498Y-34031D01*
X-73626Y-34240D01*
X-73760Y-34446D01*
X-73899Y-34648D01*
X-74043Y-34847D01*
X-74192Y-35042D01*
X-74345Y-35234D01*
X-74503Y-35422D01*
X-74665Y-35606D01*
X-74833Y-35785D01*
X-75004Y-35961D01*
X-75180Y-36132D01*
X-75359Y-36300D01*
X-75543Y-36462D01*
X-75731Y-36620D01*
X-75923Y-36773D01*
X-76118Y-36922D01*
X-76317Y-37066D01*
X-76519Y-37205D01*
X-76725Y-37339D01*
X-76934Y-37467D01*
X-77146Y-37591D01*
X-77361Y-37709D01*
X-77579Y-37822D01*
X-77799Y-37930D01*
X-78023Y-38032D01*
X-78248Y-38129D01*
X-78476Y-38220D01*
X-78706Y-38305D01*
X-78938Y-38385D01*
X-79172Y-38459D01*
X-79408Y-38528D01*
X-79645Y-38590D01*
X-79884Y-38647D01*
X-80124Y-38698D01*
X-80365Y-38743D01*
X-80608Y-38782D01*
X-80851Y-38815D01*
X-81095Y-38842D01*
X-81339Y-38863D01*
X-81584Y-38878D01*
X-81830Y-38887D01*
X-82075Y-38890D01*
X-82320Y-38887D01*
X-82566Y-38878D01*
X-82811Y-38863D01*
X-83055Y-38842D01*
X-83299Y-38815D01*
X-83542Y-38782D01*
X-83785Y-38743D01*
X-84026Y-38698D01*
X-84266Y-38647D01*
X-84505Y-38590D01*
X-84742Y-38528D01*
X-84978Y-38459D01*
X-85212Y-38385D01*
X-85444Y-38305D01*
X-85674Y-38220D01*
X-85902Y-38129D01*
X-86127Y-38032D01*
X-86351Y-37930D01*
X-86571Y-37822D01*
X-86789Y-37709D01*
X-87004Y-37591D01*
X-87216Y-37467D01*
X-87425Y-37339D01*
X-87631Y-37205D01*
X-87833Y-37066D01*
X-88032Y-36922D01*
X-88227Y-36773D01*
X-88419Y-36620D01*
X-88607Y-36462D01*
X-88791Y-36300D01*
X-88970Y-36132D01*
X-89146Y-35961D01*
X-89317Y-35785D01*
X-89485Y-35606D01*
X-89647Y-35422D01*
X-89805Y-35234D01*
X-89958Y-35042D01*
X-90107Y-34847D01*
X-90251Y-34648D01*
X-90390Y-34446D01*
X-90524Y-34240D01*
X-90652Y-34031D01*
X-90776Y-33819D01*
X-90894Y-33604D01*
X-91007Y-33386D01*
X-91115Y-33166D01*
X-91217Y-32942D01*
X-91314Y-32717D01*
X-91405Y-32489D01*
X-91490Y-32259D01*
X-91570Y-32027D01*
X-91644Y-31793D01*
X-91713Y-31557D01*
X-91775Y-31320D01*
X-91832Y-31081D01*
X-91883Y-30841D01*
X-91928Y-30600D01*
X-91967Y-30357D01*
X-92000Y-30114D01*
X-92027Y-29870D01*
X-92048Y-29626D01*
X-92063Y-29381D01*
X-92072Y-29135D01*
X-92075Y-28890D01*
D10*
X-96470Y-29398D02*
X-96470Y-22788D01*
X-94267Y-22788D02*
X-98673Y-22788D01*
X-101751Y-22788D02*
X-101751Y-29398D01*
X-101751Y-22788D02*
X-105056Y-22788D01*
X-106158Y-23890D01*
X-106158Y-26093D01*
X-105056Y-27195D01*
X-101751Y-27195D01*
X-111439Y-23890D02*
X-113642Y-22788D01*
X-111439Y-23890D02*
X-109235Y-26093D01*
X-109235Y-28296D01*
X-110337Y-29398D01*
X-112540Y-29398D01*
X-113642Y-28296D01*
X-113642Y-27195D01*
X-112540Y-26093D01*
X-109235Y-26093D01*
D12*
X-92075Y-51750D02*
X-92072Y-51505D01*
X-92063Y-51259D01*
X-92048Y-51014D01*
X-92027Y-50770D01*
X-92000Y-50526D01*
X-91967Y-50283D01*
X-91928Y-50040D01*
X-91883Y-49799D01*
X-91832Y-49559D01*
X-91775Y-49320D01*
X-91713Y-49083D01*
X-91644Y-48847D01*
X-91570Y-48613D01*
X-91490Y-48381D01*
X-91405Y-48151D01*
X-91314Y-47923D01*
X-91217Y-47698D01*
X-91115Y-47474D01*
X-91007Y-47254D01*
X-90894Y-47036D01*
X-90776Y-46821D01*
X-90652Y-46609D01*
X-90524Y-46400D01*
X-90390Y-46194D01*
X-90251Y-45992D01*
X-90107Y-45793D01*
X-89958Y-45598D01*
X-89805Y-45406D01*
X-89647Y-45218D01*
X-89485Y-45034D01*
X-89317Y-44855D01*
X-89146Y-44679D01*
X-88970Y-44508D01*
X-88791Y-44340D01*
X-88607Y-44178D01*
X-88419Y-44020D01*
X-88227Y-43867D01*
X-88032Y-43718D01*
X-87833Y-43574D01*
X-87631Y-43435D01*
X-87425Y-43301D01*
X-87216Y-43173D01*
X-87004Y-43049D01*
X-86789Y-42931D01*
X-86571Y-42818D01*
X-86351Y-42710D01*
X-86127Y-42608D01*
X-85902Y-42511D01*
X-85674Y-42420D01*
X-85444Y-42335D01*
X-85212Y-42255D01*
X-84978Y-42181D01*
X-84742Y-42112D01*
X-84505Y-42050D01*
X-84266Y-41993D01*
X-84026Y-41942D01*
X-83785Y-41897D01*
X-83542Y-41858D01*
X-83299Y-41825D01*
X-83055Y-41798D01*
X-82811Y-41777D01*
X-82566Y-41762D01*
X-82320Y-41753D01*
X-82075Y-41750D01*
X-81830Y-41753D01*
X-81584Y-41762D01*
X-81339Y-41777D01*
X-81095Y-41798D01*
X-80851Y-41825D01*
X-80608Y-41858D01*
X-80365Y-41897D01*
X-80124Y-41942D01*
X-79884Y-41993D01*
X-79645Y-42050D01*
X-79408Y-42112D01*
X-79172Y-42181D01*
X-78938Y-42255D01*
X-78706Y-42335D01*
X-78476Y-42420D01*
X-78248Y-42511D01*
X-78023Y-42608D01*
X-77799Y-42710D01*
X-77579Y-42818D01*
X-77361Y-42931D01*
X-77146Y-43049D01*
X-76934Y-43173D01*
X-76725Y-43301D01*
X-76519Y-43435D01*
X-76317Y-43574D01*
X-76118Y-43718D01*
X-75923Y-43867D01*
X-75731Y-44020D01*
X-75543Y-44178D01*
X-75359Y-44340D01*
X-75180Y-44508D01*
X-75004Y-44679D01*
X-74833Y-44855D01*
X-74665Y-45034D01*
X-74503Y-45218D01*
X-74345Y-45406D01*
X-74192Y-45598D01*
X-74043Y-45793D01*
X-73899Y-45992D01*
X-73760Y-46194D01*
X-73626Y-46400D01*
X-73498Y-46609D01*
X-73374Y-46821D01*
X-73256Y-47036D01*
X-73143Y-47254D01*
X-73035Y-47474D01*
X-72933Y-47698D01*
X-72836Y-47923D01*
X-72745Y-48151D01*
X-72660Y-48381D01*
X-72580Y-48613D01*
X-72506Y-48847D01*
X-72437Y-49083D01*
X-72375Y-49320D01*
X-72318Y-49559D01*
X-72267Y-49799D01*
X-72222Y-50040D01*
X-72183Y-50283D01*
X-72150Y-50526D01*
X-72123Y-50770D01*
X-72102Y-51014D01*
X-72087Y-51259D01*
X-72078Y-51505D01*
X-72075Y-51750D01*
X-72078Y-51995D01*
X-72087Y-52241D01*
X-72102Y-52486D01*
X-72123Y-52730D01*
X-72150Y-52974D01*
X-72183Y-53217D01*
X-72222Y-53460D01*
X-72267Y-53701D01*
X-72318Y-53941D01*
X-72375Y-54180D01*
X-72437Y-54417D01*
X-72506Y-54653D01*
X-72580Y-54887D01*
X-72660Y-55119D01*
X-72745Y-55349D01*
X-72836Y-55577D01*
X-72933Y-55802D01*
X-73035Y-56026D01*
X-73143Y-56246D01*
X-73256Y-56464D01*
X-73374Y-56679D01*
X-73498Y-56891D01*
X-73626Y-57100D01*
X-73760Y-57306D01*
X-73899Y-57508D01*
X-74043Y-57707D01*
X-74192Y-57902D01*
X-74345Y-58094D01*
X-74503Y-58282D01*
X-74665Y-58466D01*
X-74833Y-58645D01*
X-75004Y-58821D01*
X-75180Y-58992D01*
X-75359Y-59160D01*
X-75543Y-59322D01*
X-75731Y-59480D01*
X-75923Y-59633D01*
X-76118Y-59782D01*
X-76317Y-59926D01*
X-76519Y-60065D01*
X-76725Y-60199D01*
X-76934Y-60327D01*
X-77146Y-60451D01*
X-77361Y-60569D01*
X-77579Y-60682D01*
X-77799Y-60790D01*
X-78023Y-60892D01*
X-78248Y-60989D01*
X-78476Y-61080D01*
X-78706Y-61165D01*
X-78938Y-61245D01*
X-79172Y-61319D01*
X-79408Y-61388D01*
X-79645Y-61450D01*
X-79884Y-61507D01*
X-80124Y-61558D01*
X-80365Y-61603D01*
X-80608Y-61642D01*
X-80851Y-61675D01*
X-81095Y-61702D01*
X-81339Y-61723D01*
X-81584Y-61738D01*
X-81830Y-61747D01*
X-82075Y-61750D01*
X-82320Y-61747D01*
X-82566Y-61738D01*
X-82811Y-61723D01*
X-83055Y-61702D01*
X-83299Y-61675D01*
X-83542Y-61642D01*
X-83785Y-61603D01*
X-84026Y-61558D01*
X-84266Y-61507D01*
X-84505Y-61450D01*
X-84742Y-61388D01*
X-84978Y-61319D01*
X-85212Y-61245D01*
X-85444Y-61165D01*
X-85674Y-61080D01*
X-85902Y-60989D01*
X-86127Y-60892D01*
X-86351Y-60790D01*
X-86571Y-60682D01*
X-86789Y-60569D01*
X-87004Y-60451D01*
X-87216Y-60327D01*
X-87425Y-60199D01*
X-87631Y-60065D01*
X-87833Y-59926D01*
X-88032Y-59782D01*
X-88227Y-59633D01*
X-88419Y-59480D01*
X-88607Y-59322D01*
X-88791Y-59160D01*
X-88970Y-58992D01*
X-89146Y-58821D01*
X-89317Y-58645D01*
X-89485Y-58466D01*
X-89647Y-58282D01*
X-89805Y-58094D01*
X-89958Y-57902D01*
X-90107Y-57707D01*
X-90251Y-57508D01*
X-90390Y-57306D01*
X-90524Y-57100D01*
X-90652Y-56891D01*
X-90776Y-56679D01*
X-90894Y-56464D01*
X-91007Y-56246D01*
X-91115Y-56026D01*
X-91217Y-55802D01*
X-91314Y-55577D01*
X-91405Y-55349D01*
X-91490Y-55119D01*
X-91570Y-54887D01*
X-91644Y-54653D01*
X-91713Y-54417D01*
X-91775Y-54180D01*
X-91832Y-53941D01*
X-91883Y-53701D01*
X-91928Y-53460D01*
X-91967Y-53217D01*
X-92000Y-52974D01*
X-92027Y-52730D01*
X-92048Y-52486D01*
X-92063Y-52241D01*
X-92072Y-51995D01*
X-92075Y-51750D01*
D10*
X-96470Y-52258D02*
X-96470Y-45648D01*
X-94267Y-45648D02*
X-98673Y-45648D01*
X-101751Y-45648D02*
X-101751Y-52258D01*
X-101751Y-45648D02*
X-105056Y-45648D01*
X-106158Y-46750D01*
X-106158Y-48953D01*
X-105056Y-50055D01*
X-101751Y-50055D01*
X-109235Y-45648D02*
X-113642Y-45648D01*
X-113642Y-46750D01*
X-109235Y-51156D01*
X-109235Y-52258D01*
D12*
X-24920Y87880D02*
X-24917Y88125D01*
X-24908Y88371D01*
X-24893Y88616D01*
X-24872Y88860D01*
X-24845Y89104D01*
X-24812Y89347D01*
X-24773Y89590D01*
X-24728Y89831D01*
X-24677Y90071D01*
X-24620Y90310D01*
X-24558Y90547D01*
X-24489Y90783D01*
X-24415Y91017D01*
X-24335Y91249D01*
X-24250Y91479D01*
X-24159Y91707D01*
X-24062Y91932D01*
X-23960Y92156D01*
X-23852Y92376D01*
X-23739Y92594D01*
X-23621Y92809D01*
X-23497Y93021D01*
X-23369Y93230D01*
X-23235Y93436D01*
X-23096Y93638D01*
X-22952Y93837D01*
X-22803Y94032D01*
X-22650Y94224D01*
X-22492Y94412D01*
X-22330Y94596D01*
X-22162Y94775D01*
X-21991Y94951D01*
X-21815Y95122D01*
X-21636Y95290D01*
X-21452Y95452D01*
X-21264Y95610D01*
X-21072Y95763D01*
X-20877Y95912D01*
X-20678Y96056D01*
X-20476Y96195D01*
X-20270Y96329D01*
X-20061Y96457D01*
X-19849Y96581D01*
X-19634Y96699D01*
X-19416Y96812D01*
X-19196Y96920D01*
X-18972Y97022D01*
X-18747Y97119D01*
X-18519Y97210D01*
X-18289Y97295D01*
X-18057Y97375D01*
X-17823Y97449D01*
X-17587Y97518D01*
X-17350Y97580D01*
X-17111Y97637D01*
X-16871Y97688D01*
X-16630Y97733D01*
X-16387Y97772D01*
X-16144Y97805D01*
X-15900Y97832D01*
X-15656Y97853D01*
X-15411Y97868D01*
X-15165Y97877D01*
X-14920Y97880D01*
X-14675Y97877D01*
X-14429Y97868D01*
X-14184Y97853D01*
X-13940Y97832D01*
X-13696Y97805D01*
X-13453Y97772D01*
X-13210Y97733D01*
X-12969Y97688D01*
X-12729Y97637D01*
X-12490Y97580D01*
X-12253Y97518D01*
X-12017Y97449D01*
X-11783Y97375D01*
X-11551Y97295D01*
X-11321Y97210D01*
X-11093Y97119D01*
X-10868Y97022D01*
X-10644Y96920D01*
X-10424Y96812D01*
X-10206Y96699D01*
X-9991Y96581D01*
X-9779Y96457D01*
X-9570Y96329D01*
X-9364Y96195D01*
X-9162Y96056D01*
X-8963Y95912D01*
X-8768Y95763D01*
X-8576Y95610D01*
X-8388Y95452D01*
X-8204Y95290D01*
X-8025Y95122D01*
X-7849Y94951D01*
X-7678Y94775D01*
X-7510Y94596D01*
X-7348Y94412D01*
X-7190Y94224D01*
X-7037Y94032D01*
X-6888Y93837D01*
X-6744Y93638D01*
X-6605Y93436D01*
X-6471Y93230D01*
X-6343Y93021D01*
X-6219Y92809D01*
X-6101Y92594D01*
X-5988Y92376D01*
X-5880Y92156D01*
X-5778Y91932D01*
X-5681Y91707D01*
X-5590Y91479D01*
X-5505Y91249D01*
X-5425Y91017D01*
X-5351Y90783D01*
X-5282Y90547D01*
X-5220Y90310D01*
X-5163Y90071D01*
X-5112Y89831D01*
X-5067Y89590D01*
X-5028Y89347D01*
X-4995Y89104D01*
X-4968Y88860D01*
X-4947Y88616D01*
X-4932Y88371D01*
X-4923Y88125D01*
X-4920Y87880D01*
X-4923Y87635D01*
X-4932Y87389D01*
X-4947Y87144D01*
X-4968Y86900D01*
X-4995Y86656D01*
X-5028Y86413D01*
X-5067Y86170D01*
X-5112Y85929D01*
X-5163Y85689D01*
X-5220Y85450D01*
X-5282Y85213D01*
X-5351Y84977D01*
X-5425Y84743D01*
X-5505Y84511D01*
X-5590Y84281D01*
X-5681Y84053D01*
X-5778Y83828D01*
X-5880Y83604D01*
X-5988Y83384D01*
X-6101Y83166D01*
X-6219Y82951D01*
X-6343Y82739D01*
X-6471Y82530D01*
X-6605Y82324D01*
X-6744Y82122D01*
X-6888Y81923D01*
X-7037Y81728D01*
X-7190Y81536D01*
X-7348Y81348D01*
X-7510Y81164D01*
X-7678Y80985D01*
X-7849Y80809D01*
X-8025Y80638D01*
X-8204Y80470D01*
X-8388Y80308D01*
X-8576Y80150D01*
X-8768Y79997D01*
X-8963Y79848D01*
X-9162Y79704D01*
X-9364Y79565D01*
X-9570Y79431D01*
X-9779Y79303D01*
X-9991Y79179D01*
X-10206Y79061D01*
X-10424Y78948D01*
X-10644Y78840D01*
X-10868Y78738D01*
X-11093Y78641D01*
X-11321Y78550D01*
X-11551Y78465D01*
X-11783Y78385D01*
X-12017Y78311D01*
X-12253Y78242D01*
X-12490Y78180D01*
X-12729Y78123D01*
X-12969Y78072D01*
X-13210Y78027D01*
X-13453Y77988D01*
X-13696Y77955D01*
X-13940Y77928D01*
X-14184Y77907D01*
X-14429Y77892D01*
X-14675Y77883D01*
X-14920Y77880D01*
X-15165Y77883D01*
X-15411Y77892D01*
X-15656Y77907D01*
X-15900Y77928D01*
X-16144Y77955D01*
X-16387Y77988D01*
X-16630Y78027D01*
X-16871Y78072D01*
X-17111Y78123D01*
X-17350Y78180D01*
X-17587Y78242D01*
X-17823Y78311D01*
X-18057Y78385D01*
X-18289Y78465D01*
X-18519Y78550D01*
X-18747Y78641D01*
X-18972Y78738D01*
X-19196Y78840D01*
X-19416Y78948D01*
X-19634Y79061D01*
X-19849Y79179D01*
X-20061Y79303D01*
X-20270Y79431D01*
X-20476Y79565D01*
X-20678Y79704D01*
X-20877Y79848D01*
X-21072Y79997D01*
X-21264Y80150D01*
X-21452Y80308D01*
X-21636Y80470D01*
X-21815Y80638D01*
X-21991Y80809D01*
X-22162Y80985D01*
X-22330Y81164D01*
X-22492Y81348D01*
X-22650Y81536D01*
X-22803Y81728D01*
X-22952Y81923D01*
X-23096Y82122D01*
X-23235Y82324D01*
X-23369Y82530D01*
X-23497Y82739D01*
X-23621Y82951D01*
X-23739Y83166D01*
X-23852Y83384D01*
X-23960Y83604D01*
X-24062Y83828D01*
X-24159Y84053D01*
X-24250Y84281D01*
X-24335Y84511D01*
X-24415Y84743D01*
X-24489Y84977D01*
X-24558Y85213D01*
X-24620Y85450D01*
X-24677Y85689D01*
X-24728Y85929D01*
X-24773Y86170D01*
X-24812Y86413D01*
X-24845Y86656D01*
X-24872Y86900D01*
X-24893Y87144D01*
X-24908Y87389D01*
X-24917Y87635D01*
X-24920Y87880D01*
D10*
X-29315Y87372D02*
X-29315Y93982D01*
X-27112Y93982D02*
X-31518Y93982D01*
X-34596Y93982D02*
X-34596Y87372D01*
X-34596Y93982D02*
X-37901Y93982D01*
X-39003Y92880D01*
X-39003Y90677D01*
X-37901Y89575D01*
X-34596Y89575D01*
X-42080Y92880D02*
X-43182Y93982D01*
X-45385Y93982D01*
X-46487Y92880D01*
X-46487Y91778D01*
X-45385Y90677D01*
X-46487Y89575D01*
X-46487Y88474D01*
X-45385Y87372D01*
X-43182Y87372D01*
X-42080Y88474D01*
X-42080Y89575D01*
X-43182Y90677D01*
X-42080Y91778D01*
X-42080Y92880D01*
X-43182Y90677D02*
X-45385Y90677D01*
D12*
X5080Y87520D02*
X5083Y87765D01*
X5092Y88011D01*
X5107Y88256D01*
X5128Y88500D01*
X5155Y88744D01*
X5188Y88987D01*
X5227Y89230D01*
X5272Y89471D01*
X5323Y89711D01*
X5380Y89950D01*
X5442Y90187D01*
X5511Y90423D01*
X5585Y90657D01*
X5665Y90889D01*
X5750Y91119D01*
X5841Y91347D01*
X5938Y91572D01*
X6040Y91796D01*
X6148Y92016D01*
X6261Y92234D01*
X6379Y92449D01*
X6503Y92661D01*
X6631Y92870D01*
X6765Y93076D01*
X6904Y93278D01*
X7048Y93477D01*
X7197Y93672D01*
X7350Y93864D01*
X7508Y94052D01*
X7670Y94236D01*
X7838Y94415D01*
X8009Y94591D01*
X8185Y94762D01*
X8364Y94930D01*
X8548Y95092D01*
X8736Y95250D01*
X8928Y95403D01*
X9123Y95552D01*
X9322Y95696D01*
X9524Y95835D01*
X9730Y95969D01*
X9939Y96097D01*
X10151Y96221D01*
X10366Y96339D01*
X10584Y96452D01*
X10804Y96560D01*
X11028Y96662D01*
X11253Y96759D01*
X11481Y96850D01*
X11711Y96935D01*
X11943Y97015D01*
X12177Y97089D01*
X12413Y97158D01*
X12650Y97220D01*
X12889Y97277D01*
X13129Y97328D01*
X13370Y97373D01*
X13613Y97412D01*
X13856Y97445D01*
X14100Y97472D01*
X14344Y97493D01*
X14589Y97508D01*
X14835Y97517D01*
X15080Y97520D01*
X15325Y97517D01*
X15571Y97508D01*
X15816Y97493D01*
X16060Y97472D01*
X16304Y97445D01*
X16547Y97412D01*
X16790Y97373D01*
X17031Y97328D01*
X17271Y97277D01*
X17510Y97220D01*
X17747Y97158D01*
X17983Y97089D01*
X18217Y97015D01*
X18449Y96935D01*
X18679Y96850D01*
X18907Y96759D01*
X19132Y96662D01*
X19356Y96560D01*
X19576Y96452D01*
X19794Y96339D01*
X20009Y96221D01*
X20221Y96097D01*
X20430Y95969D01*
X20636Y95835D01*
X20838Y95696D01*
X21037Y95552D01*
X21232Y95403D01*
X21424Y95250D01*
X21612Y95092D01*
X21796Y94930D01*
X21975Y94762D01*
X22151Y94591D01*
X22322Y94415D01*
X22490Y94236D01*
X22652Y94052D01*
X22810Y93864D01*
X22963Y93672D01*
X23112Y93477D01*
X23256Y93278D01*
X23395Y93076D01*
X23529Y92870D01*
X23657Y92661D01*
X23781Y92449D01*
X23899Y92234D01*
X24012Y92016D01*
X24120Y91796D01*
X24222Y91572D01*
X24319Y91347D01*
X24410Y91119D01*
X24495Y90889D01*
X24575Y90657D01*
X24649Y90423D01*
X24718Y90187D01*
X24780Y89950D01*
X24837Y89711D01*
X24888Y89471D01*
X24933Y89230D01*
X24972Y88987D01*
X25005Y88744D01*
X25032Y88500D01*
X25053Y88256D01*
X25068Y88011D01*
X25077Y87765D01*
X25080Y87520D01*
X25077Y87275D01*
X25068Y87029D01*
X25053Y86784D01*
X25032Y86540D01*
X25005Y86296D01*
X24972Y86053D01*
X24933Y85810D01*
X24888Y85569D01*
X24837Y85329D01*
X24780Y85090D01*
X24718Y84853D01*
X24649Y84617D01*
X24575Y84383D01*
X24495Y84151D01*
X24410Y83921D01*
X24319Y83693D01*
X24222Y83468D01*
X24120Y83244D01*
X24012Y83024D01*
X23899Y82806D01*
X23781Y82591D01*
X23657Y82379D01*
X23529Y82170D01*
X23395Y81964D01*
X23256Y81762D01*
X23112Y81563D01*
X22963Y81368D01*
X22810Y81176D01*
X22652Y80988D01*
X22490Y80804D01*
X22322Y80625D01*
X22151Y80449D01*
X21975Y80278D01*
X21796Y80110D01*
X21612Y79948D01*
X21424Y79790D01*
X21232Y79637D01*
X21037Y79488D01*
X20838Y79344D01*
X20636Y79205D01*
X20430Y79071D01*
X20221Y78943D01*
X20009Y78819D01*
X19794Y78701D01*
X19576Y78588D01*
X19356Y78480D01*
X19132Y78378D01*
X18907Y78281D01*
X18679Y78190D01*
X18449Y78105D01*
X18217Y78025D01*
X17983Y77951D01*
X17747Y77882D01*
X17510Y77820D01*
X17271Y77763D01*
X17031Y77712D01*
X16790Y77667D01*
X16547Y77628D01*
X16304Y77595D01*
X16060Y77568D01*
X15816Y77547D01*
X15571Y77532D01*
X15325Y77523D01*
X15080Y77520D01*
X14835Y77523D01*
X14589Y77532D01*
X14344Y77547D01*
X14100Y77568D01*
X13856Y77595D01*
X13613Y77628D01*
X13370Y77667D01*
X13129Y77712D01*
X12889Y77763D01*
X12650Y77820D01*
X12413Y77882D01*
X12177Y77951D01*
X11943Y78025D01*
X11711Y78105D01*
X11481Y78190D01*
X11253Y78281D01*
X11028Y78378D01*
X10804Y78480D01*
X10584Y78588D01*
X10366Y78701D01*
X10151Y78819D01*
X9939Y78943D01*
X9730Y79071D01*
X9524Y79205D01*
X9322Y79344D01*
X9123Y79488D01*
X8928Y79637D01*
X8736Y79790D01*
X8548Y79948D01*
X8364Y80110D01*
X8185Y80278D01*
X8009Y80449D01*
X7838Y80625D01*
X7670Y80804D01*
X7508Y80988D01*
X7350Y81176D01*
X7197Y81368D01*
X7048Y81563D01*
X6904Y81762D01*
X6765Y81964D01*
X6631Y82170D01*
X6503Y82379D01*
X6379Y82591D01*
X6261Y82806D01*
X6148Y83024D01*
X6040Y83244D01*
X5938Y83468D01*
X5841Y83693D01*
X5750Y83921D01*
X5665Y84151D01*
X5585Y84383D01*
X5511Y84617D01*
X5442Y84853D01*
X5380Y85090D01*
X5323Y85329D01*
X5272Y85569D01*
X5227Y85810D01*
X5188Y86053D01*
X5155Y86296D01*
X5128Y86540D01*
X5107Y86784D01*
X5092Y87029D01*
X5083Y87275D01*
X5080Y87520D01*
D10*
X685Y87012D02*
X685Y93622D01*
X2888Y93622D02*
X-1518Y93622D01*
X-4596Y93622D02*
X-4596Y87012D01*
X-4596Y93622D02*
X-7901Y93622D01*
X-9003Y92520D01*
X-9003Y90317D01*
X-7901Y89215D01*
X-4596Y89215D01*
X-12080Y88114D02*
X-13182Y87012D01*
X-15385Y87012D01*
X-16487Y88114D01*
X-16487Y92520D01*
X-15385Y93622D01*
X-13182Y93622D01*
X-12080Y92520D01*
X-12080Y91418D01*
X-13182Y90317D01*
X-16487Y90317D01*
M02*
