%
M48
M72
T01C0.03150
T02C0.03543
T03C0.03937
T04C0.04000
T05C0.04331
T06C0.05906
T07C0.10000
%
T01
X145043Y219839
X145043Y227713
X145043Y235587
T02
X100122Y215902
X130122Y215902
T03
X63941Y95232
X63941Y105232
X63941Y115232
X63941Y125232
X63941Y135232
X63941Y145232
X63941Y155232
X63941Y165232
X63941Y175232
X63941Y185232
X63941Y195232
X63941Y205232
X63941Y215232
X63941Y225232
X63941Y235232
X63941Y245232
X86500Y245232
X86500Y235232
X86500Y225232
X86500Y215232
X86500Y205232
X86500Y195232
X86500Y185232
X86500Y175232
X86500Y165232
X86500Y155232
X86500Y145232
X86500Y135232
X86500Y125232
X86500Y115232
X86500Y105232
X86500Y95232
X24571Y135232
X24571Y145232
X24571Y155232
X24571Y165232
X24571Y175232
X24571Y185232
X24571Y195232
X24571Y205232
X24571Y215232
X24571Y225232
X24571Y235232
X24571Y245232
X6500Y245232
X6500Y235232
X6500Y225232
X6500Y215232
X6500Y205232
X6500Y195232
X6500Y185232
X6500Y175232
X6500Y165232
X6500Y155232
X6500Y145232
X6500Y135232
T04
X110795Y134406
X110795Y144406
X110795Y154406
X110795Y164406
X110795Y174406
X110795Y184406
X110870Y196217
X120870Y196217
X120795Y184406
X120795Y174406
X120795Y164406
X120795Y154406
X120795Y144406
X120795Y134406
X130795Y134406
X130795Y144406
X130795Y154406
X130795Y164406
X130795Y174406
X130795Y184406
X130870Y196217
X124965Y229287
X114965Y229287
X104965Y229287
T05
X105280Y241492
X115122Y241492
X124965Y241492
T06
X106028Y92516
X106028Y112516
X136028Y112516
X136028Y92516
X145043Y211571
X145043Y243854
T07
X11500Y80232
X11500Y260232
X145358Y80232
X145358Y260232
M30
