G75*
%MOIN*%
%OFA0B0*%
%FSLAX25Y25*%
%IPPOS*%
%LPD*%
%AMOC8*
5,1,8,0,0,1.08239X$1,22.5*
%
%ADD10C,0.00000*%
%ADD11C,0.10400*%
%ADD12C,0.07000*%
%ADD13C,0.07800*%
%ADD14C,0.09258*%
%ADD15C,0.06896*%
%ADD16C,0.05550*%
D10*
X0011500Y0070232D02*
X0036000Y0070232D01*
X0038000Y0072232D01*
X0054500Y0072232D01*
X0056500Y0070232D01*
X0144492Y0070232D01*
X0144734Y0070235D01*
X0144975Y0070244D01*
X0145216Y0070258D01*
X0145457Y0070279D01*
X0145697Y0070305D01*
X0145937Y0070337D01*
X0146176Y0070375D01*
X0146413Y0070418D01*
X0146650Y0070468D01*
X0146885Y0070523D01*
X0147119Y0070583D01*
X0147351Y0070650D01*
X0147582Y0070721D01*
X0147811Y0070799D01*
X0148038Y0070882D01*
X0148263Y0070970D01*
X0148486Y0071064D01*
X0148706Y0071163D01*
X0148924Y0071268D01*
X0149139Y0071377D01*
X0149352Y0071492D01*
X0149562Y0071612D01*
X0149768Y0071737D01*
X0149972Y0071867D01*
X0150173Y0072002D01*
X0150370Y0072142D01*
X0150564Y0072286D01*
X0150754Y0072435D01*
X0150940Y0072589D01*
X0151123Y0072747D01*
X0151302Y0072909D01*
X0151477Y0073076D01*
X0151648Y0073247D01*
X0151815Y0073422D01*
X0151977Y0073601D01*
X0152135Y0073784D01*
X0152289Y0073970D01*
X0152438Y0074160D01*
X0152582Y0074354D01*
X0152722Y0074551D01*
X0152857Y0074752D01*
X0152987Y0074956D01*
X0153112Y0075162D01*
X0153232Y0075372D01*
X0153347Y0075585D01*
X0153456Y0075800D01*
X0153561Y0076018D01*
X0153660Y0076238D01*
X0153754Y0076461D01*
X0153842Y0076686D01*
X0153925Y0076913D01*
X0154003Y0077142D01*
X0154074Y0077373D01*
X0154141Y0077605D01*
X0154201Y0077839D01*
X0154256Y0078074D01*
X0154306Y0078311D01*
X0154349Y0078548D01*
X0154387Y0078787D01*
X0154419Y0079027D01*
X0154445Y0079267D01*
X0154466Y0079508D01*
X0154480Y0079749D01*
X0154489Y0079990D01*
X0154492Y0080232D01*
X0154492Y0260232D01*
X0140358Y0260232D02*
X0140360Y0260373D01*
X0140366Y0260514D01*
X0140376Y0260654D01*
X0140390Y0260794D01*
X0140408Y0260934D01*
X0140429Y0261073D01*
X0140455Y0261212D01*
X0140484Y0261350D01*
X0140518Y0261486D01*
X0140555Y0261622D01*
X0140596Y0261757D01*
X0140641Y0261891D01*
X0140690Y0262023D01*
X0140742Y0262154D01*
X0140798Y0262283D01*
X0140858Y0262410D01*
X0140921Y0262536D01*
X0140987Y0262660D01*
X0141058Y0262783D01*
X0141131Y0262903D01*
X0141208Y0263021D01*
X0141288Y0263137D01*
X0141372Y0263250D01*
X0141458Y0263361D01*
X0141548Y0263470D01*
X0141641Y0263576D01*
X0141736Y0263679D01*
X0141835Y0263780D01*
X0141936Y0263878D01*
X0142040Y0263973D01*
X0142147Y0264065D01*
X0142256Y0264154D01*
X0142368Y0264239D01*
X0142482Y0264322D01*
X0142598Y0264402D01*
X0142717Y0264478D01*
X0142838Y0264550D01*
X0142960Y0264620D01*
X0143085Y0264685D01*
X0143211Y0264748D01*
X0143339Y0264806D01*
X0143469Y0264861D01*
X0143600Y0264913D01*
X0143733Y0264960D01*
X0143867Y0265004D01*
X0144002Y0265045D01*
X0144138Y0265081D01*
X0144275Y0265113D01*
X0144413Y0265142D01*
X0144551Y0265167D01*
X0144691Y0265187D01*
X0144831Y0265204D01*
X0144971Y0265217D01*
X0145112Y0265226D01*
X0145252Y0265231D01*
X0145393Y0265232D01*
X0145534Y0265229D01*
X0145675Y0265222D01*
X0145815Y0265211D01*
X0145955Y0265196D01*
X0146095Y0265177D01*
X0146234Y0265155D01*
X0146372Y0265128D01*
X0146510Y0265098D01*
X0146646Y0265063D01*
X0146782Y0265025D01*
X0146916Y0264983D01*
X0147050Y0264937D01*
X0147182Y0264888D01*
X0147312Y0264834D01*
X0147441Y0264777D01*
X0147568Y0264717D01*
X0147694Y0264653D01*
X0147817Y0264585D01*
X0147939Y0264514D01*
X0148059Y0264440D01*
X0148176Y0264362D01*
X0148291Y0264281D01*
X0148404Y0264197D01*
X0148515Y0264110D01*
X0148623Y0264019D01*
X0148728Y0263926D01*
X0148831Y0263829D01*
X0148931Y0263730D01*
X0149028Y0263628D01*
X0149122Y0263523D01*
X0149213Y0263416D01*
X0149301Y0263306D01*
X0149386Y0263194D01*
X0149468Y0263079D01*
X0149547Y0262962D01*
X0149622Y0262843D01*
X0149694Y0262722D01*
X0149762Y0262599D01*
X0149827Y0262474D01*
X0149889Y0262347D01*
X0149946Y0262218D01*
X0150001Y0262088D01*
X0150051Y0261957D01*
X0150098Y0261824D01*
X0150141Y0261690D01*
X0150180Y0261554D01*
X0150215Y0261418D01*
X0150247Y0261281D01*
X0150274Y0261143D01*
X0150298Y0261004D01*
X0150318Y0260864D01*
X0150334Y0260724D01*
X0150346Y0260584D01*
X0150354Y0260443D01*
X0150358Y0260302D01*
X0150358Y0260162D01*
X0150354Y0260021D01*
X0150346Y0259880D01*
X0150334Y0259740D01*
X0150318Y0259600D01*
X0150298Y0259460D01*
X0150274Y0259321D01*
X0150247Y0259183D01*
X0150215Y0259046D01*
X0150180Y0258910D01*
X0150141Y0258774D01*
X0150098Y0258640D01*
X0150051Y0258507D01*
X0150001Y0258376D01*
X0149946Y0258246D01*
X0149889Y0258117D01*
X0149827Y0257990D01*
X0149762Y0257865D01*
X0149694Y0257742D01*
X0149622Y0257621D01*
X0149547Y0257502D01*
X0149468Y0257385D01*
X0149386Y0257270D01*
X0149301Y0257158D01*
X0149213Y0257048D01*
X0149122Y0256941D01*
X0149028Y0256836D01*
X0148931Y0256734D01*
X0148831Y0256635D01*
X0148728Y0256538D01*
X0148623Y0256445D01*
X0148515Y0256354D01*
X0148404Y0256267D01*
X0148291Y0256183D01*
X0148176Y0256102D01*
X0148059Y0256024D01*
X0147939Y0255950D01*
X0147817Y0255879D01*
X0147694Y0255811D01*
X0147568Y0255747D01*
X0147441Y0255687D01*
X0147312Y0255630D01*
X0147182Y0255576D01*
X0147050Y0255527D01*
X0146916Y0255481D01*
X0146782Y0255439D01*
X0146646Y0255401D01*
X0146510Y0255366D01*
X0146372Y0255336D01*
X0146234Y0255309D01*
X0146095Y0255287D01*
X0145955Y0255268D01*
X0145815Y0255253D01*
X0145675Y0255242D01*
X0145534Y0255235D01*
X0145393Y0255232D01*
X0145252Y0255233D01*
X0145112Y0255238D01*
X0144971Y0255247D01*
X0144831Y0255260D01*
X0144691Y0255277D01*
X0144551Y0255297D01*
X0144413Y0255322D01*
X0144275Y0255351D01*
X0144138Y0255383D01*
X0144002Y0255419D01*
X0143867Y0255460D01*
X0143733Y0255504D01*
X0143600Y0255551D01*
X0143469Y0255603D01*
X0143339Y0255658D01*
X0143211Y0255716D01*
X0143085Y0255779D01*
X0142960Y0255844D01*
X0142838Y0255914D01*
X0142717Y0255986D01*
X0142598Y0256062D01*
X0142482Y0256142D01*
X0142368Y0256225D01*
X0142256Y0256310D01*
X0142147Y0256399D01*
X0142040Y0256491D01*
X0141936Y0256586D01*
X0141835Y0256684D01*
X0141736Y0256785D01*
X0141641Y0256888D01*
X0141548Y0256994D01*
X0141458Y0257103D01*
X0141372Y0257214D01*
X0141288Y0257327D01*
X0141208Y0257443D01*
X0141131Y0257561D01*
X0141058Y0257681D01*
X0140987Y0257804D01*
X0140921Y0257928D01*
X0140858Y0258054D01*
X0140798Y0258181D01*
X0140742Y0258310D01*
X0140690Y0258441D01*
X0140641Y0258573D01*
X0140596Y0258707D01*
X0140555Y0258842D01*
X0140518Y0258978D01*
X0140484Y0259114D01*
X0140455Y0259252D01*
X0140429Y0259391D01*
X0140408Y0259530D01*
X0140390Y0259670D01*
X0140376Y0259810D01*
X0140366Y0259950D01*
X0140360Y0260091D01*
X0140358Y0260232D01*
X0144492Y0270232D02*
X0144734Y0270229D01*
X0144975Y0270220D01*
X0145216Y0270206D01*
X0145457Y0270185D01*
X0145697Y0270159D01*
X0145937Y0270127D01*
X0146176Y0270089D01*
X0146413Y0270046D01*
X0146650Y0269996D01*
X0146885Y0269941D01*
X0147119Y0269881D01*
X0147351Y0269814D01*
X0147582Y0269743D01*
X0147811Y0269665D01*
X0148038Y0269582D01*
X0148263Y0269494D01*
X0148486Y0269400D01*
X0148706Y0269301D01*
X0148924Y0269196D01*
X0149139Y0269087D01*
X0149352Y0268972D01*
X0149562Y0268852D01*
X0149768Y0268727D01*
X0149972Y0268597D01*
X0150173Y0268462D01*
X0150370Y0268322D01*
X0150564Y0268178D01*
X0150754Y0268029D01*
X0150940Y0267875D01*
X0151123Y0267717D01*
X0151302Y0267555D01*
X0151477Y0267388D01*
X0151648Y0267217D01*
X0151815Y0267042D01*
X0151977Y0266863D01*
X0152135Y0266680D01*
X0152289Y0266494D01*
X0152438Y0266304D01*
X0152582Y0266110D01*
X0152722Y0265913D01*
X0152857Y0265712D01*
X0152987Y0265508D01*
X0153112Y0265302D01*
X0153232Y0265092D01*
X0153347Y0264879D01*
X0153456Y0264664D01*
X0153561Y0264446D01*
X0153660Y0264226D01*
X0153754Y0264003D01*
X0153842Y0263778D01*
X0153925Y0263551D01*
X0154003Y0263322D01*
X0154074Y0263091D01*
X0154141Y0262859D01*
X0154201Y0262625D01*
X0154256Y0262390D01*
X0154306Y0262153D01*
X0154349Y0261916D01*
X0154387Y0261677D01*
X0154419Y0261437D01*
X0154445Y0261197D01*
X0154466Y0260956D01*
X0154480Y0260715D01*
X0154489Y0260474D01*
X0154492Y0260232D01*
X0144492Y0270232D02*
X0011500Y0270232D01*
X0006500Y0260232D02*
X0006502Y0260373D01*
X0006508Y0260514D01*
X0006518Y0260654D01*
X0006532Y0260794D01*
X0006550Y0260934D01*
X0006571Y0261073D01*
X0006597Y0261212D01*
X0006626Y0261350D01*
X0006660Y0261486D01*
X0006697Y0261622D01*
X0006738Y0261757D01*
X0006783Y0261891D01*
X0006832Y0262023D01*
X0006884Y0262154D01*
X0006940Y0262283D01*
X0007000Y0262410D01*
X0007063Y0262536D01*
X0007129Y0262660D01*
X0007200Y0262783D01*
X0007273Y0262903D01*
X0007350Y0263021D01*
X0007430Y0263137D01*
X0007514Y0263250D01*
X0007600Y0263361D01*
X0007690Y0263470D01*
X0007783Y0263576D01*
X0007878Y0263679D01*
X0007977Y0263780D01*
X0008078Y0263878D01*
X0008182Y0263973D01*
X0008289Y0264065D01*
X0008398Y0264154D01*
X0008510Y0264239D01*
X0008624Y0264322D01*
X0008740Y0264402D01*
X0008859Y0264478D01*
X0008980Y0264550D01*
X0009102Y0264620D01*
X0009227Y0264685D01*
X0009353Y0264748D01*
X0009481Y0264806D01*
X0009611Y0264861D01*
X0009742Y0264913D01*
X0009875Y0264960D01*
X0010009Y0265004D01*
X0010144Y0265045D01*
X0010280Y0265081D01*
X0010417Y0265113D01*
X0010555Y0265142D01*
X0010693Y0265167D01*
X0010833Y0265187D01*
X0010973Y0265204D01*
X0011113Y0265217D01*
X0011254Y0265226D01*
X0011394Y0265231D01*
X0011535Y0265232D01*
X0011676Y0265229D01*
X0011817Y0265222D01*
X0011957Y0265211D01*
X0012097Y0265196D01*
X0012237Y0265177D01*
X0012376Y0265155D01*
X0012514Y0265128D01*
X0012652Y0265098D01*
X0012788Y0265063D01*
X0012924Y0265025D01*
X0013058Y0264983D01*
X0013192Y0264937D01*
X0013324Y0264888D01*
X0013454Y0264834D01*
X0013583Y0264777D01*
X0013710Y0264717D01*
X0013836Y0264653D01*
X0013959Y0264585D01*
X0014081Y0264514D01*
X0014201Y0264440D01*
X0014318Y0264362D01*
X0014433Y0264281D01*
X0014546Y0264197D01*
X0014657Y0264110D01*
X0014765Y0264019D01*
X0014870Y0263926D01*
X0014973Y0263829D01*
X0015073Y0263730D01*
X0015170Y0263628D01*
X0015264Y0263523D01*
X0015355Y0263416D01*
X0015443Y0263306D01*
X0015528Y0263194D01*
X0015610Y0263079D01*
X0015689Y0262962D01*
X0015764Y0262843D01*
X0015836Y0262722D01*
X0015904Y0262599D01*
X0015969Y0262474D01*
X0016031Y0262347D01*
X0016088Y0262218D01*
X0016143Y0262088D01*
X0016193Y0261957D01*
X0016240Y0261824D01*
X0016283Y0261690D01*
X0016322Y0261554D01*
X0016357Y0261418D01*
X0016389Y0261281D01*
X0016416Y0261143D01*
X0016440Y0261004D01*
X0016460Y0260864D01*
X0016476Y0260724D01*
X0016488Y0260584D01*
X0016496Y0260443D01*
X0016500Y0260302D01*
X0016500Y0260162D01*
X0016496Y0260021D01*
X0016488Y0259880D01*
X0016476Y0259740D01*
X0016460Y0259600D01*
X0016440Y0259460D01*
X0016416Y0259321D01*
X0016389Y0259183D01*
X0016357Y0259046D01*
X0016322Y0258910D01*
X0016283Y0258774D01*
X0016240Y0258640D01*
X0016193Y0258507D01*
X0016143Y0258376D01*
X0016088Y0258246D01*
X0016031Y0258117D01*
X0015969Y0257990D01*
X0015904Y0257865D01*
X0015836Y0257742D01*
X0015764Y0257621D01*
X0015689Y0257502D01*
X0015610Y0257385D01*
X0015528Y0257270D01*
X0015443Y0257158D01*
X0015355Y0257048D01*
X0015264Y0256941D01*
X0015170Y0256836D01*
X0015073Y0256734D01*
X0014973Y0256635D01*
X0014870Y0256538D01*
X0014765Y0256445D01*
X0014657Y0256354D01*
X0014546Y0256267D01*
X0014433Y0256183D01*
X0014318Y0256102D01*
X0014201Y0256024D01*
X0014081Y0255950D01*
X0013959Y0255879D01*
X0013836Y0255811D01*
X0013710Y0255747D01*
X0013583Y0255687D01*
X0013454Y0255630D01*
X0013324Y0255576D01*
X0013192Y0255527D01*
X0013058Y0255481D01*
X0012924Y0255439D01*
X0012788Y0255401D01*
X0012652Y0255366D01*
X0012514Y0255336D01*
X0012376Y0255309D01*
X0012237Y0255287D01*
X0012097Y0255268D01*
X0011957Y0255253D01*
X0011817Y0255242D01*
X0011676Y0255235D01*
X0011535Y0255232D01*
X0011394Y0255233D01*
X0011254Y0255238D01*
X0011113Y0255247D01*
X0010973Y0255260D01*
X0010833Y0255277D01*
X0010693Y0255297D01*
X0010555Y0255322D01*
X0010417Y0255351D01*
X0010280Y0255383D01*
X0010144Y0255419D01*
X0010009Y0255460D01*
X0009875Y0255504D01*
X0009742Y0255551D01*
X0009611Y0255603D01*
X0009481Y0255658D01*
X0009353Y0255716D01*
X0009227Y0255779D01*
X0009102Y0255844D01*
X0008980Y0255914D01*
X0008859Y0255986D01*
X0008740Y0256062D01*
X0008624Y0256142D01*
X0008510Y0256225D01*
X0008398Y0256310D01*
X0008289Y0256399D01*
X0008182Y0256491D01*
X0008078Y0256586D01*
X0007977Y0256684D01*
X0007878Y0256785D01*
X0007783Y0256888D01*
X0007690Y0256994D01*
X0007600Y0257103D01*
X0007514Y0257214D01*
X0007430Y0257327D01*
X0007350Y0257443D01*
X0007273Y0257561D01*
X0007200Y0257681D01*
X0007129Y0257804D01*
X0007063Y0257928D01*
X0007000Y0258054D01*
X0006940Y0258181D01*
X0006884Y0258310D01*
X0006832Y0258441D01*
X0006783Y0258573D01*
X0006738Y0258707D01*
X0006697Y0258842D01*
X0006660Y0258978D01*
X0006626Y0259114D01*
X0006597Y0259252D01*
X0006571Y0259391D01*
X0006550Y0259530D01*
X0006532Y0259670D01*
X0006518Y0259810D01*
X0006508Y0259950D01*
X0006502Y0260091D01*
X0006500Y0260232D01*
X0001500Y0260232D02*
X0001503Y0260474D01*
X0001512Y0260715D01*
X0001526Y0260956D01*
X0001547Y0261197D01*
X0001573Y0261437D01*
X0001605Y0261677D01*
X0001643Y0261916D01*
X0001686Y0262153D01*
X0001736Y0262390D01*
X0001791Y0262625D01*
X0001851Y0262859D01*
X0001918Y0263091D01*
X0001989Y0263322D01*
X0002067Y0263551D01*
X0002150Y0263778D01*
X0002238Y0264003D01*
X0002332Y0264226D01*
X0002431Y0264446D01*
X0002536Y0264664D01*
X0002645Y0264879D01*
X0002760Y0265092D01*
X0002880Y0265302D01*
X0003005Y0265508D01*
X0003135Y0265712D01*
X0003270Y0265913D01*
X0003410Y0266110D01*
X0003554Y0266304D01*
X0003703Y0266494D01*
X0003857Y0266680D01*
X0004015Y0266863D01*
X0004177Y0267042D01*
X0004344Y0267217D01*
X0004515Y0267388D01*
X0004690Y0267555D01*
X0004869Y0267717D01*
X0005052Y0267875D01*
X0005238Y0268029D01*
X0005428Y0268178D01*
X0005622Y0268322D01*
X0005819Y0268462D01*
X0006020Y0268597D01*
X0006224Y0268727D01*
X0006430Y0268852D01*
X0006640Y0268972D01*
X0006853Y0269087D01*
X0007068Y0269196D01*
X0007286Y0269301D01*
X0007506Y0269400D01*
X0007729Y0269494D01*
X0007954Y0269582D01*
X0008181Y0269665D01*
X0008410Y0269743D01*
X0008641Y0269814D01*
X0008873Y0269881D01*
X0009107Y0269941D01*
X0009342Y0269996D01*
X0009579Y0270046D01*
X0009816Y0270089D01*
X0010055Y0270127D01*
X0010295Y0270159D01*
X0010535Y0270185D01*
X0010776Y0270206D01*
X0011017Y0270220D01*
X0011258Y0270229D01*
X0011500Y0270232D01*
X0001500Y0260232D02*
X0001500Y0080232D01*
X0006500Y0080232D02*
X0006502Y0080373D01*
X0006508Y0080514D01*
X0006518Y0080654D01*
X0006532Y0080794D01*
X0006550Y0080934D01*
X0006571Y0081073D01*
X0006597Y0081212D01*
X0006626Y0081350D01*
X0006660Y0081486D01*
X0006697Y0081622D01*
X0006738Y0081757D01*
X0006783Y0081891D01*
X0006832Y0082023D01*
X0006884Y0082154D01*
X0006940Y0082283D01*
X0007000Y0082410D01*
X0007063Y0082536D01*
X0007129Y0082660D01*
X0007200Y0082783D01*
X0007273Y0082903D01*
X0007350Y0083021D01*
X0007430Y0083137D01*
X0007514Y0083250D01*
X0007600Y0083361D01*
X0007690Y0083470D01*
X0007783Y0083576D01*
X0007878Y0083679D01*
X0007977Y0083780D01*
X0008078Y0083878D01*
X0008182Y0083973D01*
X0008289Y0084065D01*
X0008398Y0084154D01*
X0008510Y0084239D01*
X0008624Y0084322D01*
X0008740Y0084402D01*
X0008859Y0084478D01*
X0008980Y0084550D01*
X0009102Y0084620D01*
X0009227Y0084685D01*
X0009353Y0084748D01*
X0009481Y0084806D01*
X0009611Y0084861D01*
X0009742Y0084913D01*
X0009875Y0084960D01*
X0010009Y0085004D01*
X0010144Y0085045D01*
X0010280Y0085081D01*
X0010417Y0085113D01*
X0010555Y0085142D01*
X0010693Y0085167D01*
X0010833Y0085187D01*
X0010973Y0085204D01*
X0011113Y0085217D01*
X0011254Y0085226D01*
X0011394Y0085231D01*
X0011535Y0085232D01*
X0011676Y0085229D01*
X0011817Y0085222D01*
X0011957Y0085211D01*
X0012097Y0085196D01*
X0012237Y0085177D01*
X0012376Y0085155D01*
X0012514Y0085128D01*
X0012652Y0085098D01*
X0012788Y0085063D01*
X0012924Y0085025D01*
X0013058Y0084983D01*
X0013192Y0084937D01*
X0013324Y0084888D01*
X0013454Y0084834D01*
X0013583Y0084777D01*
X0013710Y0084717D01*
X0013836Y0084653D01*
X0013959Y0084585D01*
X0014081Y0084514D01*
X0014201Y0084440D01*
X0014318Y0084362D01*
X0014433Y0084281D01*
X0014546Y0084197D01*
X0014657Y0084110D01*
X0014765Y0084019D01*
X0014870Y0083926D01*
X0014973Y0083829D01*
X0015073Y0083730D01*
X0015170Y0083628D01*
X0015264Y0083523D01*
X0015355Y0083416D01*
X0015443Y0083306D01*
X0015528Y0083194D01*
X0015610Y0083079D01*
X0015689Y0082962D01*
X0015764Y0082843D01*
X0015836Y0082722D01*
X0015904Y0082599D01*
X0015969Y0082474D01*
X0016031Y0082347D01*
X0016088Y0082218D01*
X0016143Y0082088D01*
X0016193Y0081957D01*
X0016240Y0081824D01*
X0016283Y0081690D01*
X0016322Y0081554D01*
X0016357Y0081418D01*
X0016389Y0081281D01*
X0016416Y0081143D01*
X0016440Y0081004D01*
X0016460Y0080864D01*
X0016476Y0080724D01*
X0016488Y0080584D01*
X0016496Y0080443D01*
X0016500Y0080302D01*
X0016500Y0080162D01*
X0016496Y0080021D01*
X0016488Y0079880D01*
X0016476Y0079740D01*
X0016460Y0079600D01*
X0016440Y0079460D01*
X0016416Y0079321D01*
X0016389Y0079183D01*
X0016357Y0079046D01*
X0016322Y0078910D01*
X0016283Y0078774D01*
X0016240Y0078640D01*
X0016193Y0078507D01*
X0016143Y0078376D01*
X0016088Y0078246D01*
X0016031Y0078117D01*
X0015969Y0077990D01*
X0015904Y0077865D01*
X0015836Y0077742D01*
X0015764Y0077621D01*
X0015689Y0077502D01*
X0015610Y0077385D01*
X0015528Y0077270D01*
X0015443Y0077158D01*
X0015355Y0077048D01*
X0015264Y0076941D01*
X0015170Y0076836D01*
X0015073Y0076734D01*
X0014973Y0076635D01*
X0014870Y0076538D01*
X0014765Y0076445D01*
X0014657Y0076354D01*
X0014546Y0076267D01*
X0014433Y0076183D01*
X0014318Y0076102D01*
X0014201Y0076024D01*
X0014081Y0075950D01*
X0013959Y0075879D01*
X0013836Y0075811D01*
X0013710Y0075747D01*
X0013583Y0075687D01*
X0013454Y0075630D01*
X0013324Y0075576D01*
X0013192Y0075527D01*
X0013058Y0075481D01*
X0012924Y0075439D01*
X0012788Y0075401D01*
X0012652Y0075366D01*
X0012514Y0075336D01*
X0012376Y0075309D01*
X0012237Y0075287D01*
X0012097Y0075268D01*
X0011957Y0075253D01*
X0011817Y0075242D01*
X0011676Y0075235D01*
X0011535Y0075232D01*
X0011394Y0075233D01*
X0011254Y0075238D01*
X0011113Y0075247D01*
X0010973Y0075260D01*
X0010833Y0075277D01*
X0010693Y0075297D01*
X0010555Y0075322D01*
X0010417Y0075351D01*
X0010280Y0075383D01*
X0010144Y0075419D01*
X0010009Y0075460D01*
X0009875Y0075504D01*
X0009742Y0075551D01*
X0009611Y0075603D01*
X0009481Y0075658D01*
X0009353Y0075716D01*
X0009227Y0075779D01*
X0009102Y0075844D01*
X0008980Y0075914D01*
X0008859Y0075986D01*
X0008740Y0076062D01*
X0008624Y0076142D01*
X0008510Y0076225D01*
X0008398Y0076310D01*
X0008289Y0076399D01*
X0008182Y0076491D01*
X0008078Y0076586D01*
X0007977Y0076684D01*
X0007878Y0076785D01*
X0007783Y0076888D01*
X0007690Y0076994D01*
X0007600Y0077103D01*
X0007514Y0077214D01*
X0007430Y0077327D01*
X0007350Y0077443D01*
X0007273Y0077561D01*
X0007200Y0077681D01*
X0007129Y0077804D01*
X0007063Y0077928D01*
X0007000Y0078054D01*
X0006940Y0078181D01*
X0006884Y0078310D01*
X0006832Y0078441D01*
X0006783Y0078573D01*
X0006738Y0078707D01*
X0006697Y0078842D01*
X0006660Y0078978D01*
X0006626Y0079114D01*
X0006597Y0079252D01*
X0006571Y0079391D01*
X0006550Y0079530D01*
X0006532Y0079670D01*
X0006518Y0079810D01*
X0006508Y0079950D01*
X0006502Y0080091D01*
X0006500Y0080232D01*
X0001500Y0080232D02*
X0001503Y0079990D01*
X0001512Y0079749D01*
X0001526Y0079508D01*
X0001547Y0079267D01*
X0001573Y0079027D01*
X0001605Y0078787D01*
X0001643Y0078548D01*
X0001686Y0078311D01*
X0001736Y0078074D01*
X0001791Y0077839D01*
X0001851Y0077605D01*
X0001918Y0077373D01*
X0001989Y0077142D01*
X0002067Y0076913D01*
X0002150Y0076686D01*
X0002238Y0076461D01*
X0002332Y0076238D01*
X0002431Y0076018D01*
X0002536Y0075800D01*
X0002645Y0075585D01*
X0002760Y0075372D01*
X0002880Y0075162D01*
X0003005Y0074956D01*
X0003135Y0074752D01*
X0003270Y0074551D01*
X0003410Y0074354D01*
X0003554Y0074160D01*
X0003703Y0073970D01*
X0003857Y0073784D01*
X0004015Y0073601D01*
X0004177Y0073422D01*
X0004344Y0073247D01*
X0004515Y0073076D01*
X0004690Y0072909D01*
X0004869Y0072747D01*
X0005052Y0072589D01*
X0005238Y0072435D01*
X0005428Y0072286D01*
X0005622Y0072142D01*
X0005819Y0072002D01*
X0006020Y0071867D01*
X0006224Y0071737D01*
X0006430Y0071612D01*
X0006640Y0071492D01*
X0006853Y0071377D01*
X0007068Y0071268D01*
X0007286Y0071163D01*
X0007506Y0071064D01*
X0007729Y0070970D01*
X0007954Y0070882D01*
X0008181Y0070799D01*
X0008410Y0070721D01*
X0008641Y0070650D01*
X0008873Y0070583D01*
X0009107Y0070523D01*
X0009342Y0070468D01*
X0009579Y0070418D01*
X0009816Y0070375D01*
X0010055Y0070337D01*
X0010295Y0070305D01*
X0010535Y0070279D01*
X0010776Y0070258D01*
X0011017Y0070244D01*
X0011258Y0070235D01*
X0011500Y0070232D01*
X0140358Y0080232D02*
X0140360Y0080373D01*
X0140366Y0080514D01*
X0140376Y0080654D01*
X0140390Y0080794D01*
X0140408Y0080934D01*
X0140429Y0081073D01*
X0140455Y0081212D01*
X0140484Y0081350D01*
X0140518Y0081486D01*
X0140555Y0081622D01*
X0140596Y0081757D01*
X0140641Y0081891D01*
X0140690Y0082023D01*
X0140742Y0082154D01*
X0140798Y0082283D01*
X0140858Y0082410D01*
X0140921Y0082536D01*
X0140987Y0082660D01*
X0141058Y0082783D01*
X0141131Y0082903D01*
X0141208Y0083021D01*
X0141288Y0083137D01*
X0141372Y0083250D01*
X0141458Y0083361D01*
X0141548Y0083470D01*
X0141641Y0083576D01*
X0141736Y0083679D01*
X0141835Y0083780D01*
X0141936Y0083878D01*
X0142040Y0083973D01*
X0142147Y0084065D01*
X0142256Y0084154D01*
X0142368Y0084239D01*
X0142482Y0084322D01*
X0142598Y0084402D01*
X0142717Y0084478D01*
X0142838Y0084550D01*
X0142960Y0084620D01*
X0143085Y0084685D01*
X0143211Y0084748D01*
X0143339Y0084806D01*
X0143469Y0084861D01*
X0143600Y0084913D01*
X0143733Y0084960D01*
X0143867Y0085004D01*
X0144002Y0085045D01*
X0144138Y0085081D01*
X0144275Y0085113D01*
X0144413Y0085142D01*
X0144551Y0085167D01*
X0144691Y0085187D01*
X0144831Y0085204D01*
X0144971Y0085217D01*
X0145112Y0085226D01*
X0145252Y0085231D01*
X0145393Y0085232D01*
X0145534Y0085229D01*
X0145675Y0085222D01*
X0145815Y0085211D01*
X0145955Y0085196D01*
X0146095Y0085177D01*
X0146234Y0085155D01*
X0146372Y0085128D01*
X0146510Y0085098D01*
X0146646Y0085063D01*
X0146782Y0085025D01*
X0146916Y0084983D01*
X0147050Y0084937D01*
X0147182Y0084888D01*
X0147312Y0084834D01*
X0147441Y0084777D01*
X0147568Y0084717D01*
X0147694Y0084653D01*
X0147817Y0084585D01*
X0147939Y0084514D01*
X0148059Y0084440D01*
X0148176Y0084362D01*
X0148291Y0084281D01*
X0148404Y0084197D01*
X0148515Y0084110D01*
X0148623Y0084019D01*
X0148728Y0083926D01*
X0148831Y0083829D01*
X0148931Y0083730D01*
X0149028Y0083628D01*
X0149122Y0083523D01*
X0149213Y0083416D01*
X0149301Y0083306D01*
X0149386Y0083194D01*
X0149468Y0083079D01*
X0149547Y0082962D01*
X0149622Y0082843D01*
X0149694Y0082722D01*
X0149762Y0082599D01*
X0149827Y0082474D01*
X0149889Y0082347D01*
X0149946Y0082218D01*
X0150001Y0082088D01*
X0150051Y0081957D01*
X0150098Y0081824D01*
X0150141Y0081690D01*
X0150180Y0081554D01*
X0150215Y0081418D01*
X0150247Y0081281D01*
X0150274Y0081143D01*
X0150298Y0081004D01*
X0150318Y0080864D01*
X0150334Y0080724D01*
X0150346Y0080584D01*
X0150354Y0080443D01*
X0150358Y0080302D01*
X0150358Y0080162D01*
X0150354Y0080021D01*
X0150346Y0079880D01*
X0150334Y0079740D01*
X0150318Y0079600D01*
X0150298Y0079460D01*
X0150274Y0079321D01*
X0150247Y0079183D01*
X0150215Y0079046D01*
X0150180Y0078910D01*
X0150141Y0078774D01*
X0150098Y0078640D01*
X0150051Y0078507D01*
X0150001Y0078376D01*
X0149946Y0078246D01*
X0149889Y0078117D01*
X0149827Y0077990D01*
X0149762Y0077865D01*
X0149694Y0077742D01*
X0149622Y0077621D01*
X0149547Y0077502D01*
X0149468Y0077385D01*
X0149386Y0077270D01*
X0149301Y0077158D01*
X0149213Y0077048D01*
X0149122Y0076941D01*
X0149028Y0076836D01*
X0148931Y0076734D01*
X0148831Y0076635D01*
X0148728Y0076538D01*
X0148623Y0076445D01*
X0148515Y0076354D01*
X0148404Y0076267D01*
X0148291Y0076183D01*
X0148176Y0076102D01*
X0148059Y0076024D01*
X0147939Y0075950D01*
X0147817Y0075879D01*
X0147694Y0075811D01*
X0147568Y0075747D01*
X0147441Y0075687D01*
X0147312Y0075630D01*
X0147182Y0075576D01*
X0147050Y0075527D01*
X0146916Y0075481D01*
X0146782Y0075439D01*
X0146646Y0075401D01*
X0146510Y0075366D01*
X0146372Y0075336D01*
X0146234Y0075309D01*
X0146095Y0075287D01*
X0145955Y0075268D01*
X0145815Y0075253D01*
X0145675Y0075242D01*
X0145534Y0075235D01*
X0145393Y0075232D01*
X0145252Y0075233D01*
X0145112Y0075238D01*
X0144971Y0075247D01*
X0144831Y0075260D01*
X0144691Y0075277D01*
X0144551Y0075297D01*
X0144413Y0075322D01*
X0144275Y0075351D01*
X0144138Y0075383D01*
X0144002Y0075419D01*
X0143867Y0075460D01*
X0143733Y0075504D01*
X0143600Y0075551D01*
X0143469Y0075603D01*
X0143339Y0075658D01*
X0143211Y0075716D01*
X0143085Y0075779D01*
X0142960Y0075844D01*
X0142838Y0075914D01*
X0142717Y0075986D01*
X0142598Y0076062D01*
X0142482Y0076142D01*
X0142368Y0076225D01*
X0142256Y0076310D01*
X0142147Y0076399D01*
X0142040Y0076491D01*
X0141936Y0076586D01*
X0141835Y0076684D01*
X0141736Y0076785D01*
X0141641Y0076888D01*
X0141548Y0076994D01*
X0141458Y0077103D01*
X0141372Y0077214D01*
X0141288Y0077327D01*
X0141208Y0077443D01*
X0141131Y0077561D01*
X0141058Y0077681D01*
X0140987Y0077804D01*
X0140921Y0077928D01*
X0140858Y0078054D01*
X0140798Y0078181D01*
X0140742Y0078310D01*
X0140690Y0078441D01*
X0140641Y0078573D01*
X0140596Y0078707D01*
X0140555Y0078842D01*
X0140518Y0078978D01*
X0140484Y0079114D01*
X0140455Y0079252D01*
X0140429Y0079391D01*
X0140408Y0079530D01*
X0140390Y0079670D01*
X0140376Y0079810D01*
X0140366Y0079950D01*
X0140360Y0080091D01*
X0140358Y0080232D01*
D11*
X0145358Y0080232D03*
X0011500Y0080232D03*
X0011500Y0260232D03*
X0145358Y0260232D03*
D12*
X0086500Y0245232D03*
X0086500Y0235232D03*
X0086500Y0225232D03*
X0086500Y0215232D03*
X0086500Y0205232D03*
X0086500Y0195232D03*
X0086500Y0185232D03*
X0086500Y0175232D03*
X0086500Y0165232D03*
X0086500Y0155232D03*
X0086500Y0145232D03*
X0086500Y0135232D03*
X0086500Y0125232D03*
X0086500Y0115232D03*
X0086500Y0105232D03*
X0086500Y0095232D03*
X0063941Y0095232D03*
X0063941Y0105232D03*
X0063941Y0115232D03*
X0063941Y0125232D03*
X0063941Y0135232D03*
X0063941Y0145232D03*
X0063941Y0155232D03*
X0063941Y0165232D03*
X0063941Y0175232D03*
X0063941Y0185232D03*
X0063941Y0195232D03*
X0063941Y0205232D03*
X0063941Y0215232D03*
X0063941Y0225232D03*
X0063941Y0235232D03*
X0063941Y0245232D03*
X0024571Y0245232D03*
X0024571Y0235232D03*
X0024571Y0225232D03*
X0024571Y0215232D03*
X0024571Y0205232D03*
X0024571Y0195232D03*
X0024571Y0185232D03*
X0024571Y0175232D03*
X0024571Y0165232D03*
X0024571Y0155232D03*
X0024571Y0145232D03*
X0024571Y0135232D03*
X0006500Y0135232D03*
X0006500Y0145232D03*
X0006500Y0155232D03*
X0006500Y0165232D03*
X0006500Y0175232D03*
X0006500Y0185232D03*
X0006500Y0195232D03*
X0006500Y0205232D03*
X0006500Y0215232D03*
X0006500Y0225232D03*
X0006500Y0235232D03*
X0006500Y0245232D03*
D13*
X0100122Y0215902D03*
X0104965Y0229287D03*
X0114965Y0229287D03*
X0124965Y0229287D03*
X0130122Y0215902D03*
X0130870Y0196217D03*
X0130795Y0184406D03*
X0130795Y0174406D03*
X0130795Y0164406D03*
X0130795Y0154406D03*
X0130795Y0144406D03*
X0130795Y0134406D03*
X0120795Y0134406D03*
X0120795Y0144406D03*
X0120795Y0154406D03*
X0120795Y0164406D03*
X0120795Y0174406D03*
X0120795Y0184406D03*
X0120870Y0196217D03*
X0110870Y0196217D03*
X0110795Y0184406D03*
X0110795Y0174406D03*
X0110795Y0164406D03*
X0110795Y0154406D03*
X0110795Y0144406D03*
X0110795Y0134406D03*
D14*
X0106028Y0112516D03*
X0106028Y0092516D03*
X0136028Y0092516D03*
X0136028Y0112516D03*
X0145043Y0211571D03*
X0145043Y0243854D03*
D15*
X0124965Y0241492D03*
X0115122Y0241492D03*
X0105280Y0241492D03*
D16*
X0145043Y0235587D03*
X0145043Y0227713D03*
X0145043Y0219839D03*
M02*
