G04 EAGLE Gerber X2 export*
%TF.Part,Single*%
%TF.FileFunction,Copper,L2,Bot,Mixed*%
%TF.FilePolarity,Positive*%
%TF.GenerationSoftware,Autodesk,EAGLE,9.0.0*%
%TF.CreationDate,2018-04-30T04:21:51Z*%
G75*
%MOMM*%
%FSLAX34Y34*%
%LPD*%
%AMOC8*
5,1,8,0,0,1.08239X$1,22.5*%
G01*
%ADD10R,2.500000X2.500000*%
%ADD11C,1.308000*%
%ADD12C,1.500000*%
%ADD13R,2.500000X6.000000*%
%ADD14R,1.000000X2.500000*%
%ADD15C,1.879600*%
%ADD16C,0.756400*%
%ADD17C,0.254000*%
%ADD18C,0.800100*%
%ADD19C,1.016000*%
%ADD20C,0.406400*%
%ADD21C,0.806400*%
%ADD22C,1.270000*%
%ADD23C,0.609600*%
%ADD24C,0.906400*%
%ADD25C,3.000000*%

G36*
X103788Y-174982D02*
X103788Y-174982D01*
X103926Y-174969D01*
X103945Y-174962D01*
X103965Y-174959D01*
X104095Y-174908D01*
X104225Y-174861D01*
X104242Y-174850D01*
X104261Y-174842D01*
X104373Y-174761D01*
X104489Y-174683D01*
X104502Y-174667D01*
X104518Y-174656D01*
X104607Y-174548D01*
X104699Y-174444D01*
X104708Y-174426D01*
X104721Y-174411D01*
X104780Y-174285D01*
X104844Y-174161D01*
X104848Y-174141D01*
X104857Y-174123D01*
X104883Y-173986D01*
X104913Y-173851D01*
X104913Y-173830D01*
X104916Y-173811D01*
X104908Y-173672D01*
X104904Y-173533D01*
X104898Y-173513D01*
X104897Y-173493D01*
X104854Y-173361D01*
X104815Y-173227D01*
X104805Y-173210D01*
X104799Y-173191D01*
X104724Y-173073D01*
X104654Y-172953D01*
X104635Y-172932D01*
X104628Y-172922D01*
X104613Y-172908D01*
X104547Y-172833D01*
X103044Y-171329D01*
X99999Y-163978D01*
X99999Y-156022D01*
X103044Y-148671D01*
X108671Y-143044D01*
X116022Y-139999D01*
X123978Y-139999D01*
X131329Y-143044D01*
X136956Y-148671D01*
X140001Y-156022D01*
X140001Y-163978D01*
X137620Y-169725D01*
X137616Y-169740D01*
X137609Y-169754D01*
X137574Y-169894D01*
X137537Y-170032D01*
X137536Y-170047D01*
X137533Y-170062D01*
X137534Y-170206D01*
X137531Y-170350D01*
X137535Y-170365D01*
X137535Y-170380D01*
X137572Y-170519D01*
X137606Y-170659D01*
X137613Y-170673D01*
X137617Y-170688D01*
X137687Y-170813D01*
X137754Y-170940D01*
X137765Y-170952D01*
X137772Y-170965D01*
X137872Y-171069D01*
X137968Y-171175D01*
X137981Y-171184D01*
X137992Y-171195D01*
X138114Y-171271D01*
X138234Y-171350D01*
X138249Y-171355D01*
X138262Y-171363D01*
X138399Y-171407D01*
X138535Y-171453D01*
X138550Y-171454D01*
X138565Y-171459D01*
X138709Y-171467D01*
X138852Y-171478D01*
X138867Y-171476D01*
X138883Y-171477D01*
X139023Y-171449D01*
X139165Y-171424D01*
X139179Y-171418D01*
X139195Y-171415D01*
X139344Y-171354D01*
X149137Y-166638D01*
X149189Y-166604D01*
X149245Y-166579D01*
X149377Y-166487D01*
X158784Y-158985D01*
X158827Y-158941D01*
X158877Y-158904D01*
X158985Y-158784D01*
X166487Y-149377D01*
X166519Y-149324D01*
X166559Y-149277D01*
X166638Y-149137D01*
X171858Y-138297D01*
X171878Y-138238D01*
X171907Y-138183D01*
X171952Y-138028D01*
X174630Y-126298D01*
X174632Y-126272D01*
X174640Y-126247D01*
X174659Y-126087D01*
X174997Y-120071D01*
X174996Y-120052D01*
X174999Y-120000D01*
X174999Y130000D01*
X174984Y130118D01*
X174977Y130237D01*
X174964Y130275D01*
X174959Y130316D01*
X174916Y130426D01*
X174879Y130539D01*
X174857Y130574D01*
X174842Y130611D01*
X174773Y130707D01*
X174709Y130808D01*
X174679Y130836D01*
X174656Y130869D01*
X174564Y130945D01*
X174477Y131026D01*
X174442Y131046D01*
X174411Y131071D01*
X174303Y131122D01*
X174199Y131180D01*
X174159Y131190D01*
X174123Y131207D01*
X174006Y131229D01*
X173891Y131259D01*
X173831Y131263D01*
X173811Y131267D01*
X173790Y131265D01*
X173730Y131269D01*
X155695Y131269D01*
X155686Y131268D01*
X155676Y131269D01*
X155528Y131248D01*
X155379Y131229D01*
X155371Y131226D01*
X155361Y131225D01*
X155209Y131173D01*
X152864Y130201D01*
X147136Y130201D01*
X144791Y131173D01*
X144782Y131175D01*
X144774Y131180D01*
X144629Y131217D01*
X144484Y131257D01*
X144475Y131257D01*
X144466Y131259D01*
X144305Y131269D01*
X139022Y131269D01*
X138904Y131254D01*
X138785Y131247D01*
X138746Y131234D01*
X138706Y131229D01*
X138596Y131186D01*
X138482Y131149D01*
X138448Y131127D01*
X138411Y131112D01*
X138314Y131043D01*
X138214Y130979D01*
X138186Y130949D01*
X138153Y130926D01*
X138077Y130834D01*
X137996Y130747D01*
X137976Y130712D01*
X137950Y130681D01*
X137900Y130573D01*
X137842Y130469D01*
X137832Y130429D01*
X137815Y130393D01*
X137793Y130276D01*
X137763Y130161D01*
X137759Y130101D01*
X137755Y130081D01*
X137756Y130060D01*
X137753Y130000D01*
X137753Y104980D01*
X137770Y104842D01*
X137783Y104703D01*
X137790Y104684D01*
X137792Y104664D01*
X137843Y104535D01*
X137891Y104404D01*
X137902Y104387D01*
X137909Y104368D01*
X137991Y104256D01*
X138069Y104141D01*
X138084Y104127D01*
X138096Y104111D01*
X138204Y104022D01*
X138308Y103930D01*
X138326Y103921D01*
X138341Y103908D01*
X138467Y103849D01*
X138591Y103786D01*
X138611Y103781D01*
X138629Y103773D01*
X138765Y103747D01*
X138901Y103716D01*
X138921Y103717D01*
X138941Y103713D01*
X139080Y103722D01*
X139219Y103726D01*
X139239Y103731D01*
X139259Y103733D01*
X139391Y103775D01*
X139525Y103814D01*
X139542Y103824D01*
X139561Y103831D01*
X139679Y103905D01*
X139798Y103976D01*
X139819Y103994D01*
X139830Y104001D01*
X139844Y104016D01*
X139919Y104082D01*
X141844Y106007D01*
X147136Y108199D01*
X152864Y108199D01*
X158156Y106007D01*
X162207Y101956D01*
X164399Y96664D01*
X164399Y90936D01*
X162207Y85644D01*
X158156Y81593D01*
X152864Y79401D01*
X147136Y79401D01*
X141844Y81593D01*
X139919Y83518D01*
X139809Y83603D01*
X139702Y83692D01*
X139684Y83700D01*
X139668Y83713D01*
X139540Y83768D01*
X139415Y83827D01*
X139395Y83831D01*
X139376Y83839D01*
X139238Y83861D01*
X139102Y83887D01*
X139082Y83886D01*
X139062Y83889D01*
X138923Y83876D01*
X138785Y83867D01*
X138766Y83861D01*
X138745Y83859D01*
X138614Y83812D01*
X138482Y83769D01*
X138465Y83758D01*
X138446Y83752D01*
X138331Y83673D01*
X138214Y83599D01*
X138200Y83584D01*
X138183Y83573D01*
X138091Y83469D01*
X137996Y83367D01*
X137986Y83350D01*
X137973Y83335D01*
X137909Y83210D01*
X137842Y83089D01*
X137837Y83069D01*
X137828Y83051D01*
X137797Y82915D01*
X137763Y82781D01*
X137761Y82753D01*
X137758Y82741D01*
X137759Y82721D01*
X137753Y82620D01*
X137753Y81701D01*
X136367Y78357D01*
X136365Y78348D01*
X136360Y78340D01*
X136323Y78195D01*
X136283Y78050D01*
X136283Y78041D01*
X136281Y78032D01*
X136271Y77871D01*
X136271Y73123D01*
X136283Y73025D01*
X136286Y72926D01*
X136303Y72868D01*
X136311Y72808D01*
X136347Y72716D01*
X136375Y72620D01*
X136405Y72568D01*
X136428Y72512D01*
X136486Y72432D01*
X136536Y72346D01*
X136602Y72271D01*
X136614Y72255D01*
X136624Y72247D01*
X136642Y72226D01*
X138416Y70452D01*
X138494Y70392D01*
X138566Y70324D01*
X138619Y70295D01*
X138667Y70258D01*
X138758Y70218D01*
X138845Y70170D01*
X138903Y70155D01*
X138959Y70131D01*
X139057Y70116D01*
X139152Y70091D01*
X139252Y70085D01*
X139273Y70081D01*
X139285Y70083D01*
X139313Y70081D01*
X142005Y70081D01*
X145710Y68546D01*
X148546Y65710D01*
X150081Y62005D01*
X150081Y57995D01*
X148546Y54290D01*
X145710Y51454D01*
X142005Y49919D01*
X140919Y49919D01*
X140782Y49902D01*
X140643Y49889D01*
X140624Y49882D01*
X140604Y49879D01*
X140475Y49828D01*
X140344Y49781D01*
X140327Y49770D01*
X140308Y49762D01*
X140195Y49681D01*
X140080Y49603D01*
X140067Y49587D01*
X140051Y49576D01*
X139962Y49468D01*
X139870Y49364D01*
X139861Y49346D01*
X139848Y49331D01*
X139789Y49205D01*
X139725Y49081D01*
X139721Y49061D01*
X139712Y49043D01*
X139686Y48907D01*
X139656Y48771D01*
X139656Y48750D01*
X139652Y48731D01*
X139661Y48592D01*
X139665Y48453D01*
X139671Y48433D01*
X139672Y48413D01*
X139715Y48281D01*
X139754Y48147D01*
X139764Y48130D01*
X139770Y48111D01*
X139845Y47993D01*
X139915Y47873D01*
X139934Y47852D01*
X139940Y47842D01*
X139955Y47828D01*
X140022Y47753D01*
X142658Y45117D01*
X144033Y41797D01*
X144033Y38203D01*
X142658Y34883D01*
X140480Y32706D01*
X140407Y32612D01*
X140328Y32523D01*
X140310Y32487D01*
X140285Y32455D01*
X140238Y32345D01*
X140184Y32239D01*
X140175Y32200D01*
X140159Y32163D01*
X140140Y32045D01*
X140114Y31929D01*
X140115Y31889D01*
X140109Y31849D01*
X140120Y31730D01*
X140124Y31611D01*
X140135Y31572D01*
X140139Y31532D01*
X140179Y31420D01*
X140212Y31306D01*
X140233Y31271D01*
X140247Y31233D01*
X140314Y31134D01*
X140374Y31032D01*
X140414Y30987D01*
X140425Y30970D01*
X140440Y30956D01*
X140480Y30911D01*
X142281Y29111D01*
X143235Y26806D01*
X143235Y-12050D01*
X143239Y-12079D01*
X143237Y-12108D01*
X143259Y-12237D01*
X143275Y-12365D01*
X143286Y-12393D01*
X143291Y-12422D01*
X143344Y-12540D01*
X143392Y-12661D01*
X143409Y-12685D01*
X143422Y-12712D01*
X143503Y-12813D01*
X143579Y-12918D01*
X143602Y-12937D01*
X143620Y-12960D01*
X143724Y-13038D01*
X143824Y-13121D01*
X143851Y-13134D01*
X143874Y-13151D01*
X144019Y-13222D01*
X144639Y-13479D01*
X147171Y-16011D01*
X148541Y-19319D01*
X148541Y-22901D01*
X147171Y-26209D01*
X144639Y-28741D01*
X141331Y-30111D01*
X137540Y-30111D01*
X137422Y-30126D01*
X137303Y-30134D01*
X137265Y-30146D01*
X137224Y-30151D01*
X137114Y-30195D01*
X137001Y-30232D01*
X136966Y-30253D01*
X136929Y-30268D01*
X136833Y-30338D01*
X136732Y-30402D01*
X136704Y-30431D01*
X136671Y-30455D01*
X136595Y-30547D01*
X136514Y-30633D01*
X136494Y-30669D01*
X136469Y-30700D01*
X136418Y-30808D01*
X136360Y-30912D01*
X136350Y-30951D01*
X136333Y-30988D01*
X136311Y-31104D01*
X136281Y-31220D01*
X136277Y-31280D01*
X136273Y-31300D01*
X136275Y-31320D01*
X136271Y-31380D01*
X136271Y-131247D01*
X135316Y-133552D01*
X133552Y-135316D01*
X131247Y-136271D01*
X-48237Y-136271D01*
X-48335Y-136283D01*
X-48434Y-136286D01*
X-48492Y-136303D01*
X-48552Y-136311D01*
X-48644Y-136347D01*
X-48739Y-136375D01*
X-48792Y-136405D01*
X-48848Y-136428D01*
X-48928Y-136486D01*
X-49013Y-136536D01*
X-49089Y-136602D01*
X-49105Y-136614D01*
X-49113Y-136624D01*
X-49134Y-136643D01*
X-49655Y-137164D01*
X-52975Y-138539D01*
X-56569Y-138539D01*
X-59640Y-137266D01*
X-59688Y-137253D01*
X-59733Y-137232D01*
X-59841Y-137212D01*
X-59947Y-137182D01*
X-59997Y-137182D01*
X-60046Y-137172D01*
X-60155Y-137179D01*
X-60265Y-137177D01*
X-60313Y-137189D01*
X-60363Y-137192D01*
X-60467Y-137226D01*
X-60574Y-137252D01*
X-60618Y-137275D01*
X-60665Y-137290D01*
X-60758Y-137349D01*
X-60855Y-137400D01*
X-60892Y-137434D01*
X-60934Y-137460D01*
X-61009Y-137540D01*
X-61091Y-137614D01*
X-61118Y-137656D01*
X-61152Y-137692D01*
X-61205Y-137788D01*
X-61265Y-137880D01*
X-61282Y-137927D01*
X-61306Y-137970D01*
X-61333Y-138077D01*
X-61369Y-138181D01*
X-61373Y-138230D01*
X-61385Y-138278D01*
X-61395Y-138439D01*
X-61395Y-141339D01*
X-61383Y-141437D01*
X-61380Y-141536D01*
X-61363Y-141594D01*
X-61355Y-141655D01*
X-61319Y-141747D01*
X-61291Y-141842D01*
X-61261Y-141894D01*
X-61238Y-141950D01*
X-61180Y-142030D01*
X-61130Y-142116D01*
X-61064Y-142191D01*
X-61052Y-142208D01*
X-61042Y-142215D01*
X-61024Y-142236D01*
X-59850Y-143410D01*
X-58895Y-145715D01*
X-58895Y-154285D01*
X-59850Y-156590D01*
X-65910Y-162650D01*
X-68215Y-163605D01*
X-76785Y-163605D01*
X-79090Y-162650D01*
X-95098Y-146642D01*
X-95176Y-146582D01*
X-95248Y-146514D01*
X-95301Y-146485D01*
X-95349Y-146448D01*
X-95440Y-146408D01*
X-95526Y-146360D01*
X-95585Y-146345D01*
X-95641Y-146321D01*
X-95739Y-146306D01*
X-95834Y-146281D01*
X-95934Y-146275D01*
X-95955Y-146271D01*
X-95967Y-146273D01*
X-95995Y-146271D01*
X-131247Y-146271D01*
X-133552Y-145316D01*
X-135316Y-143552D01*
X-136271Y-141247D01*
X-136271Y-96676D01*
X-136283Y-96577D01*
X-136286Y-96478D01*
X-136303Y-96420D01*
X-136311Y-96360D01*
X-136347Y-96268D01*
X-136375Y-96173D01*
X-136405Y-96121D01*
X-136428Y-96064D01*
X-136486Y-95984D01*
X-136536Y-95899D01*
X-136602Y-95824D01*
X-136614Y-95807D01*
X-136624Y-95799D01*
X-136642Y-95778D01*
X-137446Y-94975D01*
X-138783Y-91747D01*
X-138783Y-88253D01*
X-137842Y-85981D01*
X-137828Y-85933D01*
X-137807Y-85888D01*
X-137787Y-85780D01*
X-137758Y-85674D01*
X-137757Y-85624D01*
X-137747Y-85575D01*
X-137754Y-85466D01*
X-137753Y-85356D01*
X-137764Y-85308D01*
X-137767Y-85258D01*
X-137801Y-85154D01*
X-137827Y-85047D01*
X-137850Y-85003D01*
X-137865Y-84956D01*
X-137924Y-84863D01*
X-137975Y-84766D01*
X-138009Y-84729D01*
X-138035Y-84687D01*
X-138115Y-84612D01*
X-138189Y-84530D01*
X-138231Y-84503D01*
X-138267Y-84469D01*
X-138363Y-84416D01*
X-138455Y-84356D01*
X-138502Y-84339D01*
X-138546Y-84315D01*
X-138652Y-84288D01*
X-138756Y-84252D01*
X-138805Y-84248D01*
X-138853Y-84236D01*
X-139014Y-84226D01*
X-139385Y-84226D01*
X-141223Y-83464D01*
X-142629Y-82058D01*
X-143391Y-80220D01*
X-143391Y-18230D01*
X-142629Y-16392D01*
X-141223Y-14986D01*
X-139385Y-14224D01*
X-129656Y-14224D01*
X-129607Y-14218D01*
X-129557Y-14220D01*
X-129450Y-14198D01*
X-129341Y-14184D01*
X-129294Y-14166D01*
X-129246Y-14156D01*
X-129147Y-14108D01*
X-129045Y-14067D01*
X-129005Y-14038D01*
X-128960Y-14016D01*
X-128877Y-13945D01*
X-128788Y-13881D01*
X-128756Y-13842D01*
X-128718Y-13810D01*
X-128655Y-13720D01*
X-128585Y-13636D01*
X-128564Y-13591D01*
X-128535Y-13550D01*
X-128496Y-13447D01*
X-128449Y-13348D01*
X-128440Y-13299D01*
X-128422Y-13253D01*
X-128410Y-13143D01*
X-128389Y-13036D01*
X-128393Y-12986D01*
X-128387Y-12937D01*
X-128402Y-12828D01*
X-128409Y-12718D01*
X-128425Y-12671D01*
X-128431Y-12622D01*
X-128484Y-12469D01*
X-128571Y-12258D01*
X-128620Y-12172D01*
X-128661Y-12082D01*
X-128699Y-12034D01*
X-128729Y-11982D01*
X-128798Y-11911D01*
X-128859Y-11833D01*
X-128908Y-11797D01*
X-128950Y-11753D01*
X-129034Y-11702D01*
X-129113Y-11642D01*
X-129204Y-11598D01*
X-129221Y-11587D01*
X-129233Y-11583D01*
X-129258Y-11571D01*
X-131975Y-10446D01*
X-134446Y-7975D01*
X-134639Y-7509D01*
X-134653Y-7484D01*
X-134662Y-7456D01*
X-134732Y-7346D01*
X-134796Y-7233D01*
X-134817Y-7212D01*
X-134832Y-7187D01*
X-134927Y-7098D01*
X-135017Y-7005D01*
X-135043Y-6989D01*
X-135064Y-6969D01*
X-135178Y-6906D01*
X-135289Y-6838D01*
X-135317Y-6830D01*
X-135343Y-6815D01*
X-135468Y-6783D01*
X-135592Y-6745D01*
X-135622Y-6743D01*
X-135651Y-6736D01*
X-135811Y-6726D01*
X-144585Y-6726D01*
X-146423Y-5964D01*
X-147829Y-4558D01*
X-148591Y-2720D01*
X-148591Y24270D01*
X-147829Y26108D01*
X-146423Y27514D01*
X-144585Y28276D01*
X-132595Y28276D01*
X-130757Y27514D01*
X-129351Y26108D01*
X-128589Y24270D01*
X-128589Y10168D01*
X-128577Y10070D01*
X-128574Y9971D01*
X-128557Y9913D01*
X-128549Y9853D01*
X-128513Y9761D01*
X-128485Y9665D01*
X-128455Y9613D01*
X-128432Y9557D01*
X-128374Y9477D01*
X-128324Y9392D01*
X-128258Y9316D01*
X-128246Y9300D01*
X-128236Y9292D01*
X-128218Y9271D01*
X-125357Y6411D01*
X-125248Y6325D01*
X-125141Y6237D01*
X-125122Y6228D01*
X-125106Y6216D01*
X-124978Y6160D01*
X-124853Y6101D01*
X-124833Y6097D01*
X-124814Y6089D01*
X-124676Y6067D01*
X-124540Y6041D01*
X-124520Y6043D01*
X-124500Y6039D01*
X-124361Y6053D01*
X-124223Y6061D01*
X-124204Y6067D01*
X-124184Y6069D01*
X-124052Y6116D01*
X-123921Y6159D01*
X-123903Y6170D01*
X-123884Y6177D01*
X-123769Y6255D01*
X-123652Y6329D01*
X-123638Y6344D01*
X-123621Y6355D01*
X-123529Y6460D01*
X-123434Y6561D01*
X-123424Y6579D01*
X-123411Y6594D01*
X-123347Y6718D01*
X-123280Y6839D01*
X-123275Y6859D01*
X-123266Y6877D01*
X-123236Y7013D01*
X-123201Y7147D01*
X-123199Y7175D01*
X-123196Y7187D01*
X-123197Y7208D01*
X-123191Y7308D01*
X-123191Y24270D01*
X-122429Y26108D01*
X-121023Y27514D01*
X-119185Y28276D01*
X-107195Y28276D01*
X-105357Y27514D01*
X-103951Y26108D01*
X-103189Y24270D01*
X-103189Y20052D01*
X-103174Y19934D01*
X-103167Y19815D01*
X-103154Y19777D01*
X-103149Y19736D01*
X-103106Y19626D01*
X-103069Y19513D01*
X-103047Y19478D01*
X-103032Y19441D01*
X-102963Y19345D01*
X-102899Y19244D01*
X-102869Y19216D01*
X-102846Y19183D01*
X-102754Y19107D01*
X-102667Y19026D01*
X-102632Y19006D01*
X-102601Y18981D01*
X-102493Y18930D01*
X-102389Y18872D01*
X-102349Y18862D01*
X-102313Y18845D01*
X-102196Y18823D01*
X-102081Y18793D01*
X-102021Y18789D01*
X-102001Y18785D01*
X-101980Y18787D01*
X-101920Y18783D01*
X-98253Y18783D01*
X-98026Y18689D01*
X-97978Y18675D01*
X-97933Y18654D01*
X-97825Y18634D01*
X-97719Y18605D01*
X-97669Y18604D01*
X-97620Y18595D01*
X-97511Y18601D01*
X-97401Y18600D01*
X-97353Y18611D01*
X-97303Y18614D01*
X-97199Y18648D01*
X-97092Y18674D01*
X-97048Y18697D01*
X-97001Y18712D01*
X-96908Y18771D01*
X-96811Y18822D01*
X-96774Y18856D01*
X-96732Y18882D01*
X-96657Y18962D01*
X-96575Y19036D01*
X-96548Y19078D01*
X-96514Y19114D01*
X-96461Y19210D01*
X-96401Y19302D01*
X-96384Y19349D01*
X-96360Y19393D01*
X-96333Y19499D01*
X-96297Y19603D01*
X-96293Y19652D01*
X-96281Y19701D01*
X-96271Y19861D01*
X-96271Y76877D01*
X-96283Y76975D01*
X-96286Y77074D01*
X-96303Y77132D01*
X-96311Y77192D01*
X-96347Y77284D01*
X-96375Y77380D01*
X-96405Y77432D01*
X-96428Y77488D01*
X-96486Y77568D01*
X-96536Y77653D01*
X-96602Y77729D01*
X-96614Y77745D01*
X-96624Y77753D01*
X-96642Y77774D01*
X-97382Y78514D01*
X-98336Y80818D01*
X-98336Y84165D01*
X-98354Y84302D01*
X-98367Y84441D01*
X-98374Y84460D01*
X-98376Y84480D01*
X-98427Y84609D01*
X-98474Y84740D01*
X-98486Y84757D01*
X-98493Y84776D01*
X-98575Y84888D01*
X-98653Y85004D01*
X-98668Y85017D01*
X-98680Y85033D01*
X-98787Y85122D01*
X-98891Y85214D01*
X-98909Y85223D01*
X-98925Y85236D01*
X-99051Y85295D01*
X-99175Y85359D01*
X-99194Y85363D01*
X-99213Y85372D01*
X-99349Y85398D01*
X-99485Y85428D01*
X-99505Y85428D01*
X-99525Y85431D01*
X-99663Y85423D01*
X-99803Y85419D01*
X-99822Y85413D01*
X-99843Y85412D01*
X-99975Y85369D01*
X-100108Y85330D01*
X-100126Y85320D01*
X-100145Y85314D01*
X-100263Y85239D01*
X-100382Y85169D01*
X-100403Y85150D01*
X-100414Y85144D01*
X-100428Y85129D01*
X-100503Y85062D01*
X-103011Y82554D01*
X-106239Y81217D01*
X-109733Y81217D01*
X-112961Y82554D01*
X-113764Y83358D01*
X-113842Y83418D01*
X-113915Y83486D01*
X-113968Y83515D01*
X-114015Y83552D01*
X-114106Y83592D01*
X-114193Y83640D01*
X-114252Y83655D01*
X-114307Y83679D01*
X-114405Y83694D01*
X-114501Y83719D01*
X-114601Y83725D01*
X-114621Y83729D01*
X-114634Y83727D01*
X-114662Y83729D01*
X-123324Y83729D01*
X-123423Y83717D01*
X-123522Y83714D01*
X-123580Y83697D01*
X-123640Y83689D01*
X-123732Y83653D01*
X-123827Y83625D01*
X-123879Y83595D01*
X-123936Y83572D01*
X-124016Y83514D01*
X-124101Y83464D01*
X-124176Y83398D01*
X-124193Y83386D01*
X-124201Y83376D01*
X-124222Y83358D01*
X-125025Y82554D01*
X-128253Y81217D01*
X-131747Y81217D01*
X-134975Y82554D01*
X-137568Y85148D01*
X-137573Y85155D01*
X-137594Y85173D01*
X-137624Y85204D01*
X-137656Y85228D01*
X-137730Y85305D01*
X-137773Y85332D01*
X-137812Y85366D01*
X-137874Y85397D01*
X-137875Y85398D01*
X-137881Y85401D01*
X-137908Y85415D01*
X-138001Y85472D01*
X-138050Y85487D01*
X-138095Y85510D01*
X-138201Y85534D01*
X-138304Y85566D01*
X-138355Y85569D01*
X-138405Y85580D01*
X-138514Y85576D01*
X-138622Y85582D01*
X-138672Y85572D01*
X-138723Y85570D01*
X-138827Y85540D01*
X-138934Y85518D01*
X-138980Y85496D01*
X-139029Y85482D01*
X-139122Y85427D01*
X-139220Y85379D01*
X-139259Y85346D01*
X-139303Y85320D01*
X-139423Y85214D01*
X-141844Y82793D01*
X-147136Y80601D01*
X-152864Y80601D01*
X-158156Y82793D01*
X-162207Y86844D01*
X-164399Y92136D01*
X-164399Y97864D01*
X-162207Y103156D01*
X-158156Y107207D01*
X-152864Y109399D01*
X-147136Y109399D01*
X-141844Y107207D01*
X-137793Y103156D01*
X-135847Y98458D01*
X-135788Y98355D01*
X-135736Y98248D01*
X-135710Y98217D01*
X-135690Y98182D01*
X-135607Y98096D01*
X-135530Y98006D01*
X-135497Y97983D01*
X-135469Y97953D01*
X-135367Y97891D01*
X-135270Y97823D01*
X-135232Y97808D01*
X-135197Y97787D01*
X-135084Y97752D01*
X-134972Y97710D01*
X-134932Y97705D01*
X-134893Y97694D01*
X-134775Y97688D01*
X-134656Y97675D01*
X-134616Y97680D01*
X-134576Y97678D01*
X-134459Y97703D01*
X-134341Y97719D01*
X-134284Y97739D01*
X-134264Y97743D01*
X-134246Y97752D01*
X-134189Y97771D01*
X-131747Y98783D01*
X-130611Y98783D01*
X-130513Y98795D01*
X-130414Y98798D01*
X-130356Y98815D01*
X-130296Y98823D01*
X-130204Y98859D01*
X-130108Y98887D01*
X-130056Y98917D01*
X-130000Y98940D01*
X-129920Y98998D01*
X-129835Y99048D01*
X-129759Y99114D01*
X-129743Y99126D01*
X-129735Y99136D01*
X-129714Y99154D01*
X-99766Y129103D01*
X-99680Y129212D01*
X-99592Y129319D01*
X-99583Y129338D01*
X-99571Y129354D01*
X-99515Y129482D01*
X-99456Y129607D01*
X-99452Y129627D01*
X-99444Y129646D01*
X-99422Y129784D01*
X-99396Y129920D01*
X-99398Y129940D01*
X-99395Y129960D01*
X-99408Y130099D01*
X-99416Y130237D01*
X-99422Y130256D01*
X-99424Y130276D01*
X-99472Y130408D01*
X-99514Y130539D01*
X-99525Y130557D01*
X-99532Y130576D01*
X-99610Y130691D01*
X-99684Y130808D01*
X-99699Y130822D01*
X-99711Y130839D01*
X-99815Y130931D01*
X-99916Y131026D01*
X-99934Y131036D01*
X-99949Y131049D01*
X-100073Y131112D01*
X-100195Y131180D01*
X-100214Y131185D01*
X-100232Y131194D01*
X-100368Y131224D01*
X-100502Y131259D01*
X-100531Y131261D01*
X-100542Y131264D01*
X-100563Y131263D01*
X-100663Y131269D01*
X-173730Y131269D01*
X-173848Y131254D01*
X-173967Y131247D01*
X-174005Y131234D01*
X-174046Y131229D01*
X-174156Y131186D01*
X-174269Y131149D01*
X-174304Y131127D01*
X-174341Y131112D01*
X-174437Y131043D01*
X-174538Y130979D01*
X-174566Y130949D01*
X-174599Y130926D01*
X-174675Y130834D01*
X-174756Y130747D01*
X-174776Y130712D01*
X-174801Y130681D01*
X-174852Y130573D01*
X-174910Y130469D01*
X-174920Y130429D01*
X-174937Y130393D01*
X-174959Y130276D01*
X-174989Y130161D01*
X-174993Y130101D01*
X-174997Y130081D01*
X-174995Y130060D01*
X-174999Y130000D01*
X-174999Y-120000D01*
X-174997Y-120019D01*
X-174997Y-120071D01*
X-174659Y-126087D01*
X-174655Y-126113D01*
X-174655Y-126139D01*
X-174630Y-126298D01*
X-171952Y-138028D01*
X-171931Y-138087D01*
X-171919Y-138147D01*
X-171858Y-138297D01*
X-166638Y-149137D01*
X-166604Y-149189D01*
X-166579Y-149245D01*
X-166487Y-149377D01*
X-158985Y-158784D01*
X-158941Y-158827D01*
X-158903Y-158877D01*
X-158784Y-158985D01*
X-149377Y-166487D01*
X-149324Y-166519D01*
X-149277Y-166559D01*
X-149137Y-166638D01*
X-138297Y-171858D01*
X-138238Y-171878D01*
X-138183Y-171907D01*
X-138028Y-171952D01*
X-126298Y-174630D01*
X-126272Y-174632D01*
X-126247Y-174640D01*
X-126087Y-174659D01*
X-120071Y-174997D01*
X-120052Y-174996D01*
X-120000Y-174999D01*
X103650Y-174999D01*
X103788Y-174982D01*
G37*
G36*
X130099Y56404D02*
X130099Y56404D01*
X130237Y56412D01*
X130256Y56419D01*
X130276Y56421D01*
X130408Y56468D01*
X130539Y56510D01*
X130557Y56521D01*
X130576Y56528D01*
X130691Y56606D01*
X130808Y56681D01*
X130822Y56695D01*
X130839Y56707D01*
X130931Y56811D01*
X131026Y56912D01*
X131036Y56930D01*
X131049Y56945D01*
X131113Y57069D01*
X131180Y57191D01*
X131185Y57210D01*
X131194Y57228D01*
X131224Y57364D01*
X131259Y57499D01*
X131261Y57527D01*
X131264Y57539D01*
X131263Y57559D01*
X131269Y57659D01*
X131269Y140421D01*
X137459Y140421D01*
X137508Y140427D01*
X137558Y140425D01*
X137666Y140447D01*
X137775Y140461D01*
X137821Y140479D01*
X137869Y140489D01*
X137968Y140537D01*
X138070Y140578D01*
X138110Y140607D01*
X138155Y140629D01*
X138239Y140700D01*
X138328Y140764D01*
X138359Y140803D01*
X138397Y140835D01*
X138460Y140925D01*
X138530Y141009D01*
X138552Y141054D01*
X138580Y141095D01*
X138619Y141198D01*
X138666Y141297D01*
X138675Y141346D01*
X138693Y141392D01*
X138705Y141502D01*
X138726Y141610D01*
X138723Y141659D01*
X138728Y141709D01*
X138713Y141817D01*
X138706Y141927D01*
X138691Y141974D01*
X138684Y142023D01*
X138632Y142176D01*
X138569Y142326D01*
X138569Y146874D01*
X140309Y151075D01*
X143525Y154291D01*
X147726Y156031D01*
X152274Y156031D01*
X156475Y154291D01*
X159691Y151075D01*
X161431Y146874D01*
X161431Y142326D01*
X161368Y142176D01*
X161355Y142128D01*
X161334Y142083D01*
X161313Y141975D01*
X161284Y141869D01*
X161284Y141819D01*
X161274Y141771D01*
X161281Y141661D01*
X161279Y141551D01*
X161291Y141503D01*
X161294Y141453D01*
X161328Y141349D01*
X161353Y141242D01*
X161377Y141198D01*
X161392Y141151D01*
X161451Y141058D01*
X161502Y140961D01*
X161536Y140924D01*
X161562Y140882D01*
X161642Y140807D01*
X161716Y140725D01*
X161758Y140698D01*
X161794Y140664D01*
X161890Y140611D01*
X161982Y140551D01*
X162029Y140534D01*
X162072Y140510D01*
X162179Y140483D01*
X162283Y140447D01*
X162332Y140443D01*
X162380Y140431D01*
X162541Y140421D01*
X176190Y140421D01*
X176308Y140436D01*
X176427Y140443D01*
X176465Y140456D01*
X176506Y140461D01*
X176616Y140504D01*
X176729Y140541D01*
X176764Y140563D01*
X176801Y140578D01*
X176897Y140648D01*
X176998Y140711D01*
X177026Y140741D01*
X177059Y140764D01*
X177135Y140856D01*
X177216Y140943D01*
X177236Y140978D01*
X177261Y141009D01*
X177312Y141117D01*
X177370Y141221D01*
X177380Y141261D01*
X177397Y141297D01*
X177419Y141414D01*
X177449Y141529D01*
X177453Y141590D01*
X177457Y141610D01*
X177455Y141630D01*
X177459Y141690D01*
X177459Y154870D01*
X177457Y154890D01*
X177453Y154997D01*
X176858Y160958D01*
X176852Y160984D01*
X176851Y161010D01*
X176819Y161167D01*
X173633Y172773D01*
X173610Y172831D01*
X173595Y172891D01*
X173528Y173037D01*
X167840Y183643D01*
X167804Y183694D01*
X167777Y183749D01*
X167679Y183877D01*
X159773Y192952D01*
X159727Y192993D01*
X159688Y193041D01*
X159564Y193144D01*
X149838Y200231D01*
X149783Y200261D01*
X149734Y200299D01*
X149591Y200372D01*
X138531Y205118D01*
X138471Y205135D01*
X138415Y205161D01*
X138259Y205200D01*
X126420Y207366D01*
X126394Y207367D01*
X126369Y207374D01*
X126208Y207387D01*
X120465Y207459D01*
X120460Y207459D01*
X120449Y207459D01*
X120083Y207459D01*
X120067Y207457D01*
X120028Y207458D01*
X118860Y207407D01*
X118819Y207423D01*
X118748Y207431D01*
X118679Y207449D01*
X118518Y207459D01*
X-120000Y207459D01*
X-120019Y207457D01*
X-120071Y207457D01*
X-126362Y207104D01*
X-126388Y207099D01*
X-126415Y207100D01*
X-126574Y207074D01*
X-138841Y204274D01*
X-138899Y204253D01*
X-138960Y204241D01*
X-139109Y204180D01*
X-150446Y198721D01*
X-150498Y198687D01*
X-150554Y198662D01*
X-150686Y198570D01*
X-160524Y190725D01*
X-160567Y190680D01*
X-160617Y190643D01*
X-160725Y190524D01*
X-168570Y180686D01*
X-168602Y180633D01*
X-168642Y180586D01*
X-168721Y180446D01*
X-174180Y169109D01*
X-174200Y169050D01*
X-174229Y168995D01*
X-174274Y168841D01*
X-177074Y156574D01*
X-177077Y156547D01*
X-177085Y156522D01*
X-177104Y156362D01*
X-177457Y150071D01*
X-177456Y150052D01*
X-177459Y150000D01*
X-177459Y141690D01*
X-177444Y141572D01*
X-177437Y141453D01*
X-177424Y141415D01*
X-177419Y141374D01*
X-177376Y141264D01*
X-177339Y141151D01*
X-177317Y141116D01*
X-177302Y141079D01*
X-177233Y140983D01*
X-177169Y140882D01*
X-177139Y140854D01*
X-177116Y140821D01*
X-177024Y140746D01*
X-176937Y140664D01*
X-176902Y140644D01*
X-176871Y140619D01*
X-176763Y140568D01*
X-176659Y140510D01*
X-176619Y140500D01*
X-176583Y140483D01*
X-176466Y140461D01*
X-176351Y140431D01*
X-176291Y140427D01*
X-176271Y140423D01*
X-176250Y140425D01*
X-176190Y140421D01*
X-162044Y140421D01*
X-161995Y140427D01*
X-161945Y140425D01*
X-161838Y140447D01*
X-161728Y140461D01*
X-161682Y140479D01*
X-161634Y140489D01*
X-161535Y140537D01*
X-161433Y140578D01*
X-161393Y140607D01*
X-161348Y140629D01*
X-161264Y140700D01*
X-161175Y140764D01*
X-161144Y140803D01*
X-161106Y140835D01*
X-161043Y140925D01*
X-160973Y141009D01*
X-160951Y141054D01*
X-160923Y141095D01*
X-160884Y141198D01*
X-160837Y141297D01*
X-160828Y141346D01*
X-160810Y141392D01*
X-160798Y141502D01*
X-160777Y141610D01*
X-160780Y141659D01*
X-160775Y141709D01*
X-160790Y141817D01*
X-160797Y141927D01*
X-160812Y141974D01*
X-160819Y142023D01*
X-160871Y142176D01*
X-161431Y143526D01*
X-161431Y148074D01*
X-159691Y152275D01*
X-156475Y155491D01*
X-152274Y157231D01*
X-147726Y157231D01*
X-143525Y155491D01*
X-140309Y152275D01*
X-139320Y149886D01*
X-139305Y149861D01*
X-139296Y149833D01*
X-139227Y149723D01*
X-139163Y149610D01*
X-139142Y149589D01*
X-139126Y149564D01*
X-139032Y149475D01*
X-138941Y149382D01*
X-138916Y149366D01*
X-138895Y149346D01*
X-138781Y149283D01*
X-138670Y149215D01*
X-138642Y149207D01*
X-138616Y149192D01*
X-138490Y149160D01*
X-138366Y149122D01*
X-138337Y149120D01*
X-138308Y149113D01*
X-138147Y149103D01*
X-94377Y149103D01*
X-86067Y140793D01*
X-85989Y140732D01*
X-85916Y140664D01*
X-85863Y140635D01*
X-85816Y140598D01*
X-85725Y140558D01*
X-85638Y140510D01*
X-85579Y140495D01*
X-85524Y140471D01*
X-85426Y140456D01*
X-85330Y140431D01*
X-85230Y140425D01*
X-85210Y140421D01*
X-85197Y140423D01*
X-85169Y140421D01*
X-44052Y140421D01*
X-43954Y140433D01*
X-43855Y140436D01*
X-43797Y140453D01*
X-43737Y140461D01*
X-43644Y140497D01*
X-43549Y140525D01*
X-43497Y140555D01*
X-43441Y140578D01*
X-43361Y140636D01*
X-43275Y140686D01*
X-43200Y140752D01*
X-43184Y140764D01*
X-43176Y140774D01*
X-43155Y140793D01*
X-38242Y145705D01*
X-16765Y145705D01*
X-16736Y145709D01*
X-16707Y145707D01*
X-16578Y145729D01*
X-16450Y145745D01*
X-16422Y145756D01*
X-16393Y145761D01*
X-16275Y145814D01*
X-16154Y145862D01*
X-16130Y145879D01*
X-16103Y145892D01*
X-16002Y145973D01*
X-15897Y146049D01*
X-15878Y146072D01*
X-15855Y146090D01*
X-15777Y146194D01*
X-15694Y146294D01*
X-15681Y146321D01*
X-15664Y146344D01*
X-15593Y146489D01*
X-14881Y148208D01*
X-13245Y149844D01*
X-11108Y150729D01*
X-8794Y150729D01*
X-6657Y149844D01*
X-5021Y148208D01*
X-4782Y147631D01*
X-4714Y147510D01*
X-4648Y147387D01*
X-4635Y147372D01*
X-4625Y147355D01*
X-4528Y147255D01*
X-4435Y147152D01*
X-4418Y147141D01*
X-4404Y147126D01*
X-4285Y147054D01*
X-4169Y146977D01*
X-4150Y146971D01*
X-4132Y146960D01*
X-3999Y146919D01*
X-3868Y146874D01*
X-3848Y146872D01*
X-3828Y146866D01*
X-3690Y146860D01*
X-3551Y146849D01*
X-3531Y146852D01*
X-3511Y146851D01*
X-3375Y146879D01*
X-3238Y146903D01*
X-3219Y146911D01*
X-3199Y146916D01*
X-3074Y146977D01*
X-2948Y147034D01*
X-2932Y147046D01*
X-2914Y147055D01*
X-2808Y147146D01*
X-2699Y147232D01*
X-2687Y147248D01*
X-2672Y147262D01*
X-2591Y147375D01*
X-2508Y147486D01*
X-2496Y147512D01*
X-2489Y147522D01*
X-2481Y147541D01*
X-2437Y147631D01*
X-1975Y148745D01*
X-269Y150451D01*
X1960Y151375D01*
X4034Y151375D01*
X4132Y151387D01*
X4231Y151390D01*
X4290Y151407D01*
X4350Y151415D01*
X4442Y151451D01*
X4537Y151479D01*
X4589Y151509D01*
X4645Y151532D01*
X4725Y151590D01*
X4811Y151640D01*
X4886Y151706D01*
X4903Y151718D01*
X4911Y151728D01*
X4932Y151746D01*
X10831Y157646D01*
X10904Y157740D01*
X10983Y157829D01*
X11001Y157865D01*
X11026Y157897D01*
X11073Y158006D01*
X11127Y158112D01*
X11136Y158151D01*
X11152Y158189D01*
X11171Y158306D01*
X11197Y158422D01*
X11196Y158463D01*
X11202Y158503D01*
X11191Y158621D01*
X11187Y158740D01*
X11176Y158779D01*
X11172Y158819D01*
X11132Y158932D01*
X11099Y159046D01*
X11078Y159081D01*
X11064Y159119D01*
X10998Y159217D01*
X10937Y159320D01*
X10897Y159365D01*
X10886Y159382D01*
X10871Y159395D01*
X10831Y159441D01*
X8887Y161384D01*
X8887Y192008D01*
X20764Y203885D01*
X51236Y203885D01*
X53542Y201579D01*
X53542Y201578D01*
X94698Y160423D01*
X94776Y160362D01*
X94848Y160294D01*
X94901Y160265D01*
X94949Y160228D01*
X95040Y160189D01*
X95126Y160141D01*
X95185Y160126D01*
X95241Y160102D01*
X95339Y160086D01*
X95434Y160061D01*
X95534Y160055D01*
X95555Y160052D01*
X95567Y160053D01*
X95595Y160051D01*
X102634Y160051D01*
X102732Y160064D01*
X102831Y160067D01*
X102890Y160083D01*
X102950Y160091D01*
X103042Y160128D01*
X103137Y160155D01*
X103189Y160186D01*
X103245Y160208D01*
X103325Y160266D01*
X103411Y160317D01*
X103486Y160383D01*
X103503Y160395D01*
X103511Y160404D01*
X103532Y160423D01*
X104787Y161678D01*
X106924Y162563D01*
X109237Y162563D01*
X111374Y161678D01*
X113010Y160042D01*
X113895Y157905D01*
X113895Y155592D01*
X113010Y153455D01*
X112314Y152759D01*
X112241Y152665D01*
X112162Y152576D01*
X112144Y152540D01*
X112119Y152508D01*
X112072Y152398D01*
X112018Y152292D01*
X112009Y152253D01*
X111993Y152216D01*
X111974Y152098D01*
X111948Y151982D01*
X111949Y151942D01*
X111943Y151902D01*
X111954Y151783D01*
X111958Y151664D01*
X111969Y151625D01*
X111973Y151585D01*
X112013Y151473D01*
X112046Y151359D01*
X112067Y151324D01*
X112080Y151286D01*
X112147Y151187D01*
X112208Y151085D01*
X112248Y151039D01*
X112259Y151023D01*
X112274Y151009D01*
X112314Y150964D01*
X112518Y150760D01*
X112542Y150741D01*
X112561Y150719D01*
X112667Y150644D01*
X112770Y150565D01*
X112797Y150553D01*
X112821Y150536D01*
X112942Y150490D01*
X113062Y150438D01*
X113091Y150434D01*
X113118Y150423D01*
X113247Y150409D01*
X113376Y150388D01*
X113405Y150391D01*
X113434Y150388D01*
X113563Y150406D01*
X113692Y150418D01*
X113720Y150428D01*
X113749Y150432D01*
X113902Y150484D01*
X115621Y151197D01*
X117934Y151197D01*
X120072Y150312D01*
X121707Y148676D01*
X122593Y146539D01*
X122593Y144225D01*
X121744Y142176D01*
X121730Y142128D01*
X121709Y142083D01*
X121689Y141975D01*
X121660Y141869D01*
X121659Y141819D01*
X121649Y141771D01*
X121656Y141661D01*
X121655Y141551D01*
X121666Y141503D01*
X121669Y141453D01*
X121703Y141349D01*
X121729Y141242D01*
X121752Y141198D01*
X121767Y141151D01*
X121826Y141058D01*
X121877Y140961D01*
X121911Y140924D01*
X121937Y140882D01*
X122017Y140807D01*
X122091Y140725D01*
X122133Y140698D01*
X122169Y140664D01*
X122265Y140611D01*
X122357Y140551D01*
X122404Y140534D01*
X122448Y140510D01*
X122554Y140483D01*
X122658Y140447D01*
X122707Y140443D01*
X122755Y140431D01*
X122916Y140421D01*
X124229Y140421D01*
X124223Y140407D01*
X121753Y137936D01*
X119566Y137031D01*
X119541Y137016D01*
X119513Y137007D01*
X119403Y136937D01*
X119290Y136873D01*
X119269Y136853D01*
X119244Y136837D01*
X119155Y136742D01*
X119062Y136652D01*
X119046Y136627D01*
X119026Y136605D01*
X118963Y136492D01*
X118895Y136381D01*
X118887Y136352D01*
X118872Y136327D01*
X118840Y136201D01*
X118802Y136077D01*
X118800Y136047D01*
X118793Y136019D01*
X118783Y135858D01*
X118783Y135753D01*
X117446Y132525D01*
X114975Y130054D01*
X111747Y128717D01*
X108253Y128717D01*
X105003Y130063D01*
X104966Y130092D01*
X104877Y130171D01*
X104841Y130189D01*
X104809Y130214D01*
X104700Y130261D01*
X104594Y130315D01*
X104555Y130324D01*
X104518Y130340D01*
X104400Y130359D01*
X104284Y130385D01*
X104243Y130384D01*
X104203Y130390D01*
X104085Y130379D01*
X103966Y130375D01*
X103927Y130364D01*
X103887Y130360D01*
X103775Y130320D01*
X103660Y130287D01*
X103626Y130266D01*
X103588Y130253D01*
X103489Y130186D01*
X103386Y130125D01*
X103341Y130085D01*
X103324Y130074D01*
X103311Y130059D01*
X103266Y130019D01*
X102963Y129716D01*
X102014Y129323D01*
X101953Y129288D01*
X101889Y129263D01*
X101816Y129210D01*
X101738Y129166D01*
X101688Y129117D01*
X101631Y129076D01*
X101574Y129007D01*
X101510Y128944D01*
X101473Y128885D01*
X101429Y128831D01*
X101390Y128750D01*
X101343Y128673D01*
X101323Y128606D01*
X101293Y128543D01*
X101276Y128455D01*
X101250Y128369D01*
X101246Y128299D01*
X101233Y128231D01*
X101239Y128141D01*
X101235Y128052D01*
X101249Y127983D01*
X101253Y127914D01*
X101281Y127828D01*
X101299Y127740D01*
X101330Y127677D01*
X101351Y127611D01*
X101399Y127535D01*
X101439Y127454D01*
X101484Y127401D01*
X101521Y127342D01*
X101587Y127281D01*
X101645Y127212D01*
X101702Y127172D01*
X101753Y127124D01*
X101831Y127081D01*
X101905Y127029D01*
X101970Y127005D01*
X102031Y126971D01*
X102118Y126949D01*
X102202Y126917D01*
X102272Y126909D01*
X102339Y126891D01*
X102500Y126881D01*
X105846Y126881D01*
X109154Y125511D01*
X111686Y122979D01*
X113056Y119671D01*
X113056Y116089D01*
X111686Y112781D01*
X109213Y110308D01*
X109127Y110198D01*
X109039Y110091D01*
X109030Y110073D01*
X109018Y110057D01*
X108962Y109929D01*
X108903Y109803D01*
X108899Y109784D01*
X108891Y109765D01*
X108869Y109627D01*
X108843Y109491D01*
X108845Y109471D01*
X108841Y109451D01*
X108855Y109312D01*
X108863Y109174D01*
X108869Y109154D01*
X108871Y109134D01*
X108918Y109003D01*
X108961Y108871D01*
X108972Y108854D01*
X108979Y108835D01*
X109057Y108720D01*
X109131Y108602D01*
X109146Y108588D01*
X109157Y108572D01*
X109262Y108480D01*
X109363Y108384D01*
X109381Y108375D01*
X109396Y108361D01*
X109520Y108298D01*
X109641Y108231D01*
X109661Y108226D01*
X109679Y108217D01*
X109815Y108186D01*
X109949Y108151D01*
X109977Y108150D01*
X109989Y108147D01*
X110010Y108148D01*
X110110Y108141D01*
X111681Y108141D01*
X114989Y106771D01*
X117521Y104239D01*
X118891Y100931D01*
X118891Y97349D01*
X117459Y93893D01*
X117457Y93884D01*
X117452Y93876D01*
X117431Y93794D01*
X117425Y93781D01*
X117417Y93737D01*
X117415Y93730D01*
X117375Y93586D01*
X117375Y93577D01*
X117373Y93568D01*
X117367Y93479D01*
X117365Y93469D01*
X117366Y93458D01*
X117363Y93407D01*
X117363Y69027D01*
X117375Y68929D01*
X117378Y68830D01*
X117395Y68772D01*
X117403Y68712D01*
X117439Y68620D01*
X117467Y68525D01*
X117497Y68472D01*
X117520Y68416D01*
X117578Y68336D01*
X117628Y68251D01*
X117694Y68175D01*
X117706Y68159D01*
X117716Y68151D01*
X117734Y68130D01*
X129103Y56762D01*
X129212Y56677D01*
X129319Y56588D01*
X129338Y56579D01*
X129354Y56567D01*
X129482Y56511D01*
X129607Y56452D01*
X129627Y56449D01*
X129646Y56441D01*
X129784Y56419D01*
X129920Y56393D01*
X129940Y56394D01*
X129960Y56391D01*
X130099Y56404D01*
G37*
G36*
X101767Y-95373D02*
X101767Y-95373D01*
X101866Y-95370D01*
X101924Y-95353D01*
X101984Y-95345D01*
X102076Y-95309D01*
X102171Y-95281D01*
X102223Y-95251D01*
X102280Y-95228D01*
X102360Y-95170D01*
X102445Y-95120D01*
X102520Y-95054D01*
X102537Y-95042D01*
X102545Y-95032D01*
X102566Y-95014D01*
X105025Y-92554D01*
X108253Y-91217D01*
X109389Y-91217D01*
X109487Y-91205D01*
X109586Y-91202D01*
X109644Y-91185D01*
X109704Y-91177D01*
X109796Y-91141D01*
X109892Y-91113D01*
X109944Y-91083D01*
X110000Y-91060D01*
X110080Y-91002D01*
X110165Y-90952D01*
X110241Y-90886D01*
X110257Y-90874D01*
X110265Y-90864D01*
X110286Y-90846D01*
X114375Y-86756D01*
X116680Y-85802D01*
X118663Y-85802D01*
X118781Y-85787D01*
X118899Y-85779D01*
X118938Y-85767D01*
X118978Y-85762D01*
X119089Y-85718D01*
X119202Y-85681D01*
X119236Y-85660D01*
X119274Y-85645D01*
X119370Y-85575D01*
X119471Y-85511D01*
X119498Y-85482D01*
X119531Y-85458D01*
X119607Y-85366D01*
X119689Y-85280D01*
X119708Y-85244D01*
X119734Y-85213D01*
X119785Y-85105D01*
X119842Y-85001D01*
X119852Y-84962D01*
X119869Y-84925D01*
X119892Y-84809D01*
X119922Y-84693D01*
X119925Y-84633D01*
X119929Y-84613D01*
X119928Y-84593D01*
X119932Y-84533D01*
X119932Y-78730D01*
X119919Y-78632D01*
X119916Y-78533D01*
X119900Y-78474D01*
X119892Y-78414D01*
X119855Y-78322D01*
X119828Y-78227D01*
X119797Y-78175D01*
X119775Y-78119D01*
X119717Y-78039D01*
X119666Y-77953D01*
X119600Y-77878D01*
X119588Y-77861D01*
X119579Y-77854D01*
X119560Y-77832D01*
X114684Y-72956D01*
X113729Y-70652D01*
X113729Y-66676D01*
X113717Y-66577D01*
X113714Y-66478D01*
X113697Y-66420D01*
X113689Y-66360D01*
X113653Y-66268D01*
X113625Y-66173D01*
X113595Y-66121D01*
X113572Y-66064D01*
X113514Y-65984D01*
X113464Y-65899D01*
X113398Y-65824D01*
X113386Y-65807D01*
X113376Y-65799D01*
X113357Y-65778D01*
X112554Y-64975D01*
X111217Y-61747D01*
X111217Y-58253D01*
X112554Y-55025D01*
X115025Y-52554D01*
X118253Y-51217D01*
X121747Y-51217D01*
X124975Y-52554D01*
X127446Y-55025D01*
X128827Y-58361D01*
X128862Y-58421D01*
X128888Y-58486D01*
X128940Y-58559D01*
X128985Y-58637D01*
X129034Y-58687D01*
X129074Y-58744D01*
X129144Y-58801D01*
X129206Y-58865D01*
X129266Y-58902D01*
X129319Y-58946D01*
X129401Y-58985D01*
X129477Y-59032D01*
X129544Y-59052D01*
X129607Y-59082D01*
X129695Y-59099D01*
X129781Y-59125D01*
X129851Y-59129D01*
X129920Y-59142D01*
X130009Y-59136D01*
X130099Y-59140D01*
X130167Y-59126D01*
X130237Y-59122D01*
X130322Y-59094D01*
X130410Y-59076D01*
X130473Y-59045D01*
X130539Y-59024D01*
X130615Y-58976D01*
X130696Y-58936D01*
X130749Y-58891D01*
X130808Y-58854D01*
X130870Y-58788D01*
X130938Y-58730D01*
X130978Y-58673D01*
X131026Y-58622D01*
X131069Y-58544D01*
X131121Y-58470D01*
X131146Y-58405D01*
X131180Y-58344D01*
X131202Y-58257D01*
X131234Y-58173D01*
X131242Y-58103D01*
X131259Y-58036D01*
X131269Y-57875D01*
X131269Y-24916D01*
X131268Y-24907D01*
X131269Y-24898D01*
X131248Y-24749D01*
X131229Y-24601D01*
X131226Y-24592D01*
X131225Y-24583D01*
X131173Y-24431D01*
X130539Y-22900D01*
X130539Y-19320D01*
X130597Y-19179D01*
X130600Y-19170D01*
X130604Y-19161D01*
X130641Y-19017D01*
X130681Y-18872D01*
X130681Y-18863D01*
X130684Y-18854D01*
X130694Y-18693D01*
X130694Y3984D01*
X130676Y4122D01*
X130663Y4260D01*
X130656Y4280D01*
X130654Y4300D01*
X130603Y4429D01*
X130556Y4560D01*
X130544Y4577D01*
X130537Y4595D01*
X130455Y4708D01*
X130377Y4823D01*
X130362Y4836D01*
X130350Y4853D01*
X130243Y4941D01*
X130139Y5033D01*
X130121Y5043D01*
X130105Y5055D01*
X129979Y5115D01*
X129855Y5178D01*
X129836Y5182D01*
X129817Y5191D01*
X129681Y5217D01*
X129545Y5248D01*
X129525Y5247D01*
X129505Y5251D01*
X129367Y5242D01*
X129227Y5238D01*
X129208Y5232D01*
X129188Y5231D01*
X129055Y5188D01*
X128922Y5150D01*
X128904Y5139D01*
X128885Y5133D01*
X128768Y5059D01*
X128648Y4988D01*
X128627Y4969D01*
X128616Y4963D01*
X128602Y4948D01*
X128527Y4882D01*
X96642Y-27003D01*
X96582Y-27081D01*
X96514Y-27153D01*
X96485Y-27206D01*
X96448Y-27254D01*
X96408Y-27345D01*
X96360Y-27432D01*
X96345Y-27490D01*
X96321Y-27546D01*
X96306Y-27644D01*
X96281Y-27740D01*
X96275Y-27840D01*
X96271Y-27860D01*
X96273Y-27872D01*
X96271Y-27900D01*
X96271Y-35560D01*
X96274Y-35589D01*
X96272Y-35619D01*
X96294Y-35747D01*
X96311Y-35875D01*
X96321Y-35903D01*
X96326Y-35932D01*
X96380Y-36050D01*
X96428Y-36171D01*
X96445Y-36195D01*
X96457Y-36222D01*
X96538Y-36323D01*
X96614Y-36428D01*
X96637Y-36447D01*
X96656Y-36470D01*
X96759Y-36548D01*
X96859Y-36631D01*
X96886Y-36644D01*
X96910Y-36662D01*
X97054Y-36732D01*
X100251Y-38056D01*
X102792Y-40597D01*
X104167Y-43917D01*
X104167Y-47511D01*
X102792Y-50831D01*
X100251Y-53372D01*
X96931Y-54747D01*
X93337Y-54747D01*
X90017Y-53372D01*
X87476Y-50831D01*
X86101Y-47511D01*
X86101Y-46075D01*
X86089Y-45977D01*
X86086Y-45878D01*
X86069Y-45820D01*
X86061Y-45760D01*
X86025Y-45668D01*
X85997Y-45572D01*
X85967Y-45520D01*
X85944Y-45464D01*
X85886Y-45384D01*
X85836Y-45299D01*
X85770Y-45223D01*
X85758Y-45207D01*
X85748Y-45199D01*
X85730Y-45178D01*
X84684Y-44132D01*
X83729Y-41827D01*
X83729Y-32962D01*
X83712Y-32825D01*
X83699Y-32686D01*
X83692Y-32667D01*
X83689Y-32647D01*
X83638Y-32518D01*
X83591Y-32386D01*
X83580Y-32370D01*
X83572Y-32351D01*
X83491Y-32238D01*
X83413Y-32123D01*
X83397Y-32110D01*
X83386Y-32094D01*
X83278Y-32005D01*
X83174Y-31913D01*
X83156Y-31904D01*
X83141Y-31891D01*
X83015Y-31831D01*
X82891Y-31768D01*
X82871Y-31764D01*
X82853Y-31755D01*
X82717Y-31729D01*
X82581Y-31699D01*
X82560Y-31699D01*
X82541Y-31695D01*
X82402Y-31704D01*
X82263Y-31708D01*
X82243Y-31714D01*
X82223Y-31715D01*
X82091Y-31758D01*
X81957Y-31797D01*
X81940Y-31807D01*
X81921Y-31813D01*
X81803Y-31888D01*
X81683Y-31958D01*
X81662Y-31977D01*
X81652Y-31983D01*
X81638Y-31998D01*
X81563Y-32065D01*
X78298Y-35329D01*
X78238Y-35407D01*
X78170Y-35479D01*
X78141Y-35532D01*
X78104Y-35580D01*
X78064Y-35671D01*
X78016Y-35758D01*
X78001Y-35816D01*
X77977Y-35872D01*
X77962Y-35970D01*
X77937Y-36065D01*
X77931Y-36166D01*
X77927Y-36186D01*
X77929Y-36198D01*
X77927Y-36226D01*
X77927Y-94116D01*
X77942Y-94234D01*
X77949Y-94353D01*
X77962Y-94391D01*
X77967Y-94432D01*
X78010Y-94542D01*
X78047Y-94655D01*
X78069Y-94690D01*
X78084Y-94727D01*
X78153Y-94823D01*
X78217Y-94924D01*
X78247Y-94952D01*
X78270Y-94985D01*
X78362Y-95061D01*
X78449Y-95142D01*
X78484Y-95162D01*
X78515Y-95187D01*
X78623Y-95238D01*
X78727Y-95296D01*
X78767Y-95306D01*
X78803Y-95323D01*
X78920Y-95345D01*
X79035Y-95375D01*
X79095Y-95379D01*
X79115Y-95383D01*
X79136Y-95381D01*
X79196Y-95385D01*
X101668Y-95385D01*
X101767Y-95373D01*
G37*
G36*
X63684Y140424D02*
X63684Y140424D01*
X63713Y140422D01*
X63841Y140444D01*
X63970Y140461D01*
X63998Y140471D01*
X64027Y140477D01*
X64145Y140530D01*
X64266Y140578D01*
X64290Y140595D01*
X64317Y140607D01*
X64418Y140688D01*
X64523Y140764D01*
X64542Y140787D01*
X64565Y140806D01*
X64643Y140909D01*
X64726Y141009D01*
X64739Y141036D01*
X64756Y141060D01*
X64827Y141204D01*
X65529Y142898D01*
X67164Y144534D01*
X69302Y145419D01*
X71615Y145419D01*
X73752Y144534D01*
X75007Y143278D01*
X75085Y143218D01*
X75157Y143150D01*
X75210Y143121D01*
X75258Y143084D01*
X75349Y143044D01*
X75436Y142996D01*
X75494Y142981D01*
X75550Y142957D01*
X75648Y142942D01*
X75744Y142917D01*
X75844Y142911D01*
X75864Y142907D01*
X75877Y142909D01*
X75905Y142907D01*
X95623Y142907D01*
X95721Y142919D01*
X95820Y142922D01*
X95878Y142939D01*
X95938Y142947D01*
X96031Y142983D01*
X96126Y143011D01*
X96178Y143041D01*
X96234Y143064D01*
X96314Y143122D01*
X96400Y143172D01*
X96475Y143238D01*
X96491Y143250D01*
X96499Y143260D01*
X96520Y143278D01*
X104026Y150784D01*
X104099Y150879D01*
X104178Y150968D01*
X104196Y151004D01*
X104221Y151036D01*
X104269Y151145D01*
X104323Y151251D01*
X104332Y151290D01*
X104348Y151328D01*
X104366Y151445D01*
X104392Y151561D01*
X104391Y151602D01*
X104397Y151642D01*
X104386Y151760D01*
X104383Y151879D01*
X104371Y151918D01*
X104368Y151958D01*
X104327Y152070D01*
X104294Y152185D01*
X104274Y152219D01*
X104260Y152258D01*
X104193Y152356D01*
X104133Y152459D01*
X104093Y152504D01*
X104081Y152521D01*
X104066Y152534D01*
X104026Y152579D01*
X103532Y153074D01*
X103453Y153135D01*
X103381Y153203D01*
X103328Y153232D01*
X103280Y153269D01*
X103189Y153308D01*
X103103Y153356D01*
X103044Y153371D01*
X102989Y153395D01*
X102891Y153411D01*
X102795Y153436D01*
X102695Y153442D01*
X102674Y153445D01*
X102662Y153444D01*
X102634Y153446D01*
X92333Y153446D01*
X48871Y196908D01*
X48793Y196968D01*
X48721Y197036D01*
X48668Y197065D01*
X48620Y197102D01*
X48529Y197142D01*
X48443Y197190D01*
X48384Y197205D01*
X48328Y197229D01*
X48230Y197244D01*
X48135Y197269D01*
X48035Y197275D01*
X48014Y197279D01*
X48002Y197277D01*
X47974Y197279D01*
X24026Y197279D01*
X23928Y197267D01*
X23829Y197264D01*
X23771Y197247D01*
X23711Y197239D01*
X23618Y197203D01*
X23523Y197175D01*
X23471Y197145D01*
X23415Y197122D01*
X23335Y197064D01*
X23249Y197014D01*
X23174Y196948D01*
X23157Y196936D01*
X23150Y196926D01*
X23129Y196908D01*
X15864Y189643D01*
X15804Y189565D01*
X15736Y189493D01*
X15707Y189440D01*
X15670Y189392D01*
X15630Y189301D01*
X15582Y189215D01*
X15567Y189156D01*
X15543Y189100D01*
X15528Y189002D01*
X15503Y188907D01*
X15497Y188807D01*
X15493Y188786D01*
X15495Y188774D01*
X15493Y188746D01*
X15493Y172558D01*
X15499Y172509D01*
X15497Y172459D01*
X15519Y172352D01*
X15533Y172243D01*
X15551Y172196D01*
X15561Y172148D01*
X15609Y172049D01*
X15650Y171947D01*
X15679Y171907D01*
X15701Y171862D01*
X15772Y171778D01*
X15836Y171690D01*
X15875Y171658D01*
X15907Y171620D01*
X15997Y171557D01*
X16081Y171487D01*
X16126Y171466D01*
X16167Y171437D01*
X16270Y171398D01*
X16369Y171351D01*
X16418Y171342D01*
X16464Y171324D01*
X16574Y171312D01*
X16681Y171291D01*
X16731Y171295D01*
X16780Y171289D01*
X16889Y171304D01*
X16999Y171311D01*
X17046Y171327D01*
X17095Y171333D01*
X17248Y171386D01*
X18298Y171821D01*
X20702Y171821D01*
X22922Y170901D01*
X24621Y169202D01*
X25541Y166982D01*
X25541Y164578D01*
X24621Y162358D01*
X22922Y160659D01*
X20702Y159739D01*
X19176Y159739D01*
X19058Y159724D01*
X18940Y159717D01*
X18901Y159704D01*
X18861Y159699D01*
X18750Y159656D01*
X18637Y159619D01*
X18603Y159597D01*
X18565Y159582D01*
X18469Y159513D01*
X18368Y159449D01*
X18341Y159419D01*
X18308Y159396D01*
X18232Y159304D01*
X18150Y159217D01*
X18131Y159182D01*
X18105Y159151D01*
X18054Y159043D01*
X17997Y158939D01*
X17987Y158899D01*
X17970Y158863D01*
X17947Y158746D01*
X17917Y158631D01*
X17914Y158571D01*
X17910Y158551D01*
X17911Y158530D01*
X17907Y158470D01*
X17907Y155380D01*
X16789Y154263D01*
X16704Y154153D01*
X16615Y154046D01*
X16607Y154027D01*
X16594Y154011D01*
X16539Y153884D01*
X16480Y153758D01*
X16476Y153738D01*
X16468Y153719D01*
X16446Y153582D01*
X16420Y153446D01*
X16421Y153425D01*
X16418Y153405D01*
X16431Y153266D01*
X16440Y153128D01*
X16446Y153109D01*
X16448Y153089D01*
X16495Y152958D01*
X16538Y152826D01*
X16549Y152809D01*
X16556Y152789D01*
X16634Y152674D01*
X16708Y152557D01*
X16723Y152543D01*
X16734Y152526D01*
X16839Y152434D01*
X16940Y152339D01*
X16957Y152329D01*
X16973Y152316D01*
X17097Y152252D01*
X17218Y152186D01*
X17238Y152180D01*
X17256Y152171D01*
X17392Y152141D01*
X17526Y152106D01*
X17554Y152104D01*
X17566Y152102D01*
X17587Y152102D01*
X17687Y152096D01*
X19876Y152096D01*
X22013Y151211D01*
X23648Y149575D01*
X24055Y148594D01*
X24079Y148551D01*
X24096Y148504D01*
X24158Y148413D01*
X24212Y148317D01*
X24247Y148282D01*
X24275Y148241D01*
X24357Y148168D01*
X24434Y148089D01*
X24476Y148063D01*
X24513Y148030D01*
X24611Y147980D01*
X24705Y147923D01*
X24752Y147908D01*
X24797Y147886D01*
X24904Y147861D01*
X25009Y147829D01*
X25058Y147827D01*
X25107Y147816D01*
X25217Y147819D01*
X25326Y147814D01*
X25375Y147824D01*
X25425Y147826D01*
X25530Y147856D01*
X25638Y147878D01*
X25683Y147900D01*
X25730Y147914D01*
X25825Y147970D01*
X25924Y148018D01*
X25961Y148050D01*
X26004Y148076D01*
X26125Y148182D01*
X27299Y149356D01*
X29436Y150241D01*
X31749Y150241D01*
X33886Y149356D01*
X34754Y148488D01*
X34848Y148415D01*
X34937Y148336D01*
X34973Y148318D01*
X35005Y148293D01*
X35115Y148245D01*
X35220Y148191D01*
X35260Y148183D01*
X35297Y148166D01*
X35415Y148148D01*
X35531Y148122D01*
X35571Y148123D01*
X35611Y148117D01*
X35730Y148128D01*
X35849Y148131D01*
X35887Y148143D01*
X35928Y148146D01*
X36040Y148187D01*
X36154Y148220D01*
X36189Y148240D01*
X36227Y148254D01*
X36325Y148321D01*
X36428Y148381D01*
X36473Y148421D01*
X36490Y148433D01*
X36504Y148448D01*
X36549Y148488D01*
X36895Y148834D01*
X39032Y149719D01*
X41345Y149719D01*
X43482Y148834D01*
X45118Y147198D01*
X46003Y145061D01*
X46003Y143286D01*
X46015Y143188D01*
X46018Y143089D01*
X46035Y143030D01*
X46043Y142970D01*
X46079Y142878D01*
X46107Y142783D01*
X46138Y142731D01*
X46160Y142675D01*
X46218Y142595D01*
X46268Y142509D01*
X46335Y142434D01*
X46347Y142417D01*
X46356Y142409D01*
X46375Y142388D01*
X47971Y140793D01*
X48049Y140732D01*
X48121Y140664D01*
X48174Y140635D01*
X48222Y140598D01*
X48313Y140558D01*
X48399Y140510D01*
X48458Y140495D01*
X48514Y140471D01*
X48612Y140456D01*
X48707Y140431D01*
X48807Y140425D01*
X48828Y140421D01*
X48840Y140423D01*
X48868Y140421D01*
X63655Y140421D01*
X63684Y140424D01*
G37*
G36*
X66149Y40457D02*
X66149Y40457D01*
X66248Y40460D01*
X66306Y40477D01*
X66366Y40484D01*
X66458Y40521D01*
X66553Y40548D01*
X66605Y40579D01*
X66662Y40601D01*
X66742Y40659D01*
X66827Y40710D01*
X66903Y40776D01*
X66919Y40788D01*
X66927Y40798D01*
X66948Y40816D01*
X69051Y42919D01*
X69112Y42997D01*
X69179Y43069D01*
X69209Y43122D01*
X69246Y43170D01*
X69285Y43261D01*
X69333Y43348D01*
X69348Y43406D01*
X69372Y43462D01*
X69388Y43560D01*
X69412Y43656D01*
X69419Y43756D01*
X69422Y43776D01*
X69421Y43788D01*
X69423Y43816D01*
X69423Y44952D01*
X70038Y46438D01*
X70070Y46553D01*
X70108Y46666D01*
X70111Y46706D01*
X70122Y46745D01*
X70124Y46864D01*
X70133Y46983D01*
X70126Y47023D01*
X70127Y47063D01*
X70099Y47179D01*
X70079Y47296D01*
X70062Y47333D01*
X70053Y47372D01*
X69997Y47478D01*
X69948Y47586D01*
X69923Y47618D01*
X69904Y47654D01*
X69824Y47742D01*
X69750Y47835D01*
X69718Y47859D01*
X69690Y47889D01*
X69591Y47954D01*
X69496Y48026D01*
X69442Y48052D01*
X69425Y48064D01*
X69405Y48070D01*
X69351Y48097D01*
X67921Y48689D01*
X65389Y51221D01*
X64019Y54529D01*
X64019Y58111D01*
X65389Y61419D01*
X67921Y63951D01*
X71229Y65321D01*
X72627Y65321D01*
X72726Y65334D01*
X72825Y65337D01*
X72883Y65353D01*
X72943Y65361D01*
X73035Y65398D01*
X73130Y65425D01*
X73182Y65456D01*
X73239Y65478D01*
X73319Y65536D01*
X73404Y65587D01*
X73479Y65653D01*
X73496Y65665D01*
X73504Y65674D01*
X73525Y65693D01*
X76024Y68192D01*
X76084Y68270D01*
X76152Y68342D01*
X76181Y68395D01*
X76218Y68443D01*
X76258Y68534D01*
X76306Y68621D01*
X76321Y68679D01*
X76345Y68735D01*
X76360Y68833D01*
X76385Y68928D01*
X76391Y69029D01*
X76395Y69049D01*
X76393Y69061D01*
X76395Y69089D01*
X76395Y101371D01*
X77350Y103676D01*
X79114Y105440D01*
X81419Y106395D01*
X82043Y106395D01*
X82141Y106407D01*
X82240Y106410D01*
X82298Y106427D01*
X82358Y106434D01*
X82450Y106471D01*
X82546Y106498D01*
X82598Y106529D01*
X82654Y106551D01*
X82734Y106610D01*
X82819Y106660D01*
X82895Y106726D01*
X82911Y106738D01*
X82919Y106748D01*
X82940Y106766D01*
X84406Y108232D01*
X86711Y109187D01*
X89811Y109187D01*
X89909Y109199D01*
X90008Y109202D01*
X90067Y109219D01*
X90127Y109227D01*
X90219Y109263D01*
X90314Y109291D01*
X90366Y109321D01*
X90422Y109344D01*
X90502Y109402D01*
X90588Y109452D01*
X90663Y109518D01*
X90680Y109530D01*
X90688Y109540D01*
X90709Y109558D01*
X91867Y110717D01*
X91910Y110772D01*
X91960Y110821D01*
X92007Y110897D01*
X92062Y110968D01*
X92090Y111032D01*
X92126Y111092D01*
X92153Y111178D01*
X92188Y111260D01*
X92199Y111329D01*
X92220Y111396D01*
X92224Y111485D01*
X92238Y111574D01*
X92232Y111644D01*
X92235Y111713D01*
X92217Y111801D01*
X92209Y111891D01*
X92185Y111957D01*
X92171Y112025D01*
X92131Y112106D01*
X92101Y112190D01*
X92062Y112248D01*
X92031Y112311D01*
X91973Y112379D01*
X91922Y112453D01*
X91870Y112499D01*
X91825Y112553D01*
X91751Y112604D01*
X91684Y112664D01*
X91622Y112695D01*
X91565Y112736D01*
X91481Y112768D01*
X91401Y112808D01*
X91333Y112824D01*
X91267Y112848D01*
X91178Y112858D01*
X91090Y112878D01*
X91021Y112876D01*
X90951Y112884D01*
X90862Y112871D01*
X90772Y112868D01*
X90705Y112849D01*
X90636Y112839D01*
X90484Y112787D01*
X88543Y111983D01*
X85049Y111983D01*
X81821Y113320D01*
X81018Y114124D01*
X80940Y114184D01*
X80868Y114252D01*
X80815Y114281D01*
X80767Y114318D01*
X80676Y114358D01*
X80589Y114406D01*
X80531Y114421D01*
X80475Y114445D01*
X80377Y114460D01*
X80281Y114485D01*
X80181Y114491D01*
X80161Y114495D01*
X80149Y114493D01*
X80121Y114495D01*
X62079Y114495D01*
X59774Y115450D01*
X40475Y134750D01*
X40396Y134810D01*
X40324Y134878D01*
X40271Y134907D01*
X40223Y134944D01*
X40132Y134984D01*
X40046Y135032D01*
X39987Y135047D01*
X39932Y135071D01*
X39834Y135086D01*
X39738Y135111D01*
X39638Y135117D01*
X39617Y135121D01*
X39605Y135119D01*
X39577Y135121D01*
X38351Y135121D01*
X38312Y135132D01*
X38262Y135133D01*
X38213Y135142D01*
X38103Y135135D01*
X37994Y135137D01*
X37945Y135125D01*
X37895Y135122D01*
X37791Y135089D01*
X37684Y135063D01*
X37640Y135040D01*
X37593Y135024D01*
X37500Y134966D01*
X37403Y134914D01*
X37366Y134881D01*
X37324Y134854D01*
X37249Y134774D01*
X37168Y134701D01*
X37140Y134659D01*
X37106Y134623D01*
X37053Y134527D01*
X36993Y134435D01*
X36977Y134388D01*
X36953Y134344D01*
X36925Y134238D01*
X36890Y134134D01*
X36886Y134084D01*
X36873Y134036D01*
X36863Y133875D01*
X36863Y62540D01*
X36878Y62422D01*
X36885Y62303D01*
X36898Y62265D01*
X36903Y62224D01*
X36947Y62114D01*
X36983Y62001D01*
X37005Y61966D01*
X37020Y61929D01*
X37090Y61833D01*
X37154Y61732D01*
X37183Y61704D01*
X37207Y61671D01*
X37298Y61595D01*
X37385Y61514D01*
X37421Y61494D01*
X37452Y61469D01*
X37559Y61418D01*
X37664Y61360D01*
X37703Y61350D01*
X37739Y61333D01*
X37856Y61311D01*
X37972Y61281D01*
X38032Y61277D01*
X38052Y61273D01*
X38072Y61275D01*
X38132Y61271D01*
X38937Y61271D01*
X41242Y60316D01*
X47156Y54402D01*
X48110Y52098D01*
X48110Y51310D01*
X48125Y51191D01*
X48133Y51073D01*
X48145Y51034D01*
X48150Y50994D01*
X48194Y50883D01*
X48231Y50770D01*
X48252Y50736D01*
X48267Y50698D01*
X48337Y50602D01*
X48401Y50502D01*
X48430Y50474D01*
X48454Y50441D01*
X48546Y50365D01*
X48633Y50284D01*
X48668Y50264D01*
X48699Y50238D01*
X48807Y50188D01*
X48911Y50130D01*
X48950Y50120D01*
X48987Y50103D01*
X49104Y50080D01*
X49219Y50051D01*
X49279Y50047D01*
X49299Y50043D01*
X49319Y50044D01*
X49380Y50040D01*
X50061Y50040D01*
X53289Y48703D01*
X55760Y46233D01*
X57097Y43005D01*
X57097Y41714D01*
X57112Y41595D01*
X57119Y41477D01*
X57132Y41438D01*
X57137Y41398D01*
X57180Y41287D01*
X57217Y41174D01*
X57239Y41140D01*
X57254Y41102D01*
X57323Y41006D01*
X57387Y40906D01*
X57417Y40878D01*
X57440Y40845D01*
X57532Y40769D01*
X57619Y40688D01*
X57654Y40668D01*
X57685Y40642D01*
X57793Y40592D01*
X57897Y40534D01*
X57937Y40524D01*
X57973Y40507D01*
X58090Y40484D01*
X58205Y40455D01*
X58265Y40451D01*
X58285Y40447D01*
X58306Y40448D01*
X58366Y40444D01*
X66051Y40444D01*
X66149Y40457D01*
G37*
G36*
X130118Y-131254D02*
X130118Y-131254D01*
X130237Y-131247D01*
X130275Y-131234D01*
X130316Y-131229D01*
X130426Y-131186D01*
X130539Y-131149D01*
X130574Y-131127D01*
X130611Y-131112D01*
X130707Y-131043D01*
X130808Y-130979D01*
X130836Y-130949D01*
X130869Y-130926D01*
X130945Y-130834D01*
X131026Y-130747D01*
X131046Y-130712D01*
X131071Y-130681D01*
X131122Y-130573D01*
X131180Y-130469D01*
X131190Y-130429D01*
X131207Y-130393D01*
X131229Y-130276D01*
X131259Y-130161D01*
X131263Y-130101D01*
X131267Y-130081D01*
X131265Y-130060D01*
X131269Y-130000D01*
X131269Y-94660D01*
X131252Y-94523D01*
X131239Y-94384D01*
X131232Y-94365D01*
X131229Y-94345D01*
X131178Y-94216D01*
X131131Y-94085D01*
X131120Y-94068D01*
X131112Y-94049D01*
X131031Y-93937D01*
X130953Y-93822D01*
X130937Y-93808D01*
X130926Y-93792D01*
X130818Y-93703D01*
X130714Y-93611D01*
X130696Y-93602D01*
X130681Y-93589D01*
X130555Y-93530D01*
X130431Y-93467D01*
X130411Y-93462D01*
X130393Y-93454D01*
X130257Y-93427D01*
X130121Y-93397D01*
X130100Y-93398D01*
X130081Y-93394D01*
X129942Y-93402D01*
X129803Y-93407D01*
X129783Y-93412D01*
X129763Y-93414D01*
X129631Y-93456D01*
X129497Y-93495D01*
X129480Y-93505D01*
X129461Y-93512D01*
X129343Y-93586D01*
X129223Y-93657D01*
X129202Y-93675D01*
X129192Y-93682D01*
X129178Y-93697D01*
X129103Y-93763D01*
X125477Y-97389D01*
X123172Y-98343D01*
X121051Y-98343D01*
X120952Y-98356D01*
X120853Y-98359D01*
X120795Y-98375D01*
X120735Y-98383D01*
X120643Y-98420D01*
X120548Y-98447D01*
X120496Y-98478D01*
X120439Y-98500D01*
X120359Y-98558D01*
X120274Y-98609D01*
X120199Y-98675D01*
X120182Y-98687D01*
X120174Y-98696D01*
X120153Y-98715D01*
X119154Y-99714D01*
X119094Y-99792D01*
X119026Y-99864D01*
X118997Y-99917D01*
X118960Y-99965D01*
X118920Y-100056D01*
X118872Y-100143D01*
X118857Y-100201D01*
X118833Y-100257D01*
X118818Y-100355D01*
X118793Y-100450D01*
X118787Y-100551D01*
X118783Y-100571D01*
X118785Y-100583D01*
X118783Y-100611D01*
X118783Y-101747D01*
X117446Y-104975D01*
X114975Y-107446D01*
X111747Y-108783D01*
X108253Y-108783D01*
X106420Y-108023D01*
X106411Y-108021D01*
X106403Y-108016D01*
X106257Y-107979D01*
X106113Y-107939D01*
X106104Y-107939D01*
X106095Y-107937D01*
X105934Y-107927D01*
X53925Y-107927D01*
X51620Y-106972D01*
X21290Y-76642D01*
X21212Y-76582D01*
X21140Y-76514D01*
X21087Y-76485D01*
X21039Y-76448D01*
X20948Y-76408D01*
X20861Y-76360D01*
X20803Y-76345D01*
X20747Y-76321D01*
X20649Y-76306D01*
X20553Y-76281D01*
X20453Y-76275D01*
X20433Y-76271D01*
X20421Y-76273D01*
X20393Y-76271D01*
X17750Y-76271D01*
X17651Y-76283D01*
X17552Y-76286D01*
X17494Y-76303D01*
X17434Y-76311D01*
X17342Y-76347D01*
X17247Y-76375D01*
X17195Y-76405D01*
X17138Y-76428D01*
X17058Y-76486D01*
X16973Y-76536D01*
X16898Y-76602D01*
X16881Y-76614D01*
X16873Y-76624D01*
X16852Y-76642D01*
X16049Y-77446D01*
X12821Y-78783D01*
X9327Y-78783D01*
X6099Y-77446D01*
X4027Y-75373D01*
X3932Y-75300D01*
X3843Y-75221D01*
X3807Y-75203D01*
X3775Y-75178D01*
X3666Y-75131D01*
X3560Y-75077D01*
X3521Y-75068D01*
X3483Y-75052D01*
X3366Y-75033D01*
X3250Y-75007D01*
X3209Y-75008D01*
X3169Y-75002D01*
X3051Y-75013D01*
X2932Y-75017D01*
X2893Y-75028D01*
X2853Y-75032D01*
X2741Y-75072D01*
X2626Y-75105D01*
X2592Y-75126D01*
X2553Y-75139D01*
X2455Y-75206D01*
X2352Y-75267D01*
X2307Y-75307D01*
X2290Y-75318D01*
X2277Y-75333D01*
X2232Y-75373D01*
X-1483Y-79088D01*
X-1544Y-79166D01*
X-1612Y-79238D01*
X-1641Y-79291D01*
X-1678Y-79339D01*
X-1717Y-79430D01*
X-1765Y-79517D01*
X-1780Y-79575D01*
X-1804Y-79631D01*
X-1820Y-79729D01*
X-1845Y-79825D01*
X-1851Y-79925D01*
X-1854Y-79945D01*
X-1853Y-79957D01*
X-1855Y-79985D01*
X-1855Y-89817D01*
X-1881Y-89911D01*
X-1881Y-89961D01*
X-1891Y-90010D01*
X-1884Y-90119D01*
X-1886Y-90229D01*
X-1874Y-90277D01*
X-1871Y-90327D01*
X-1837Y-90431D01*
X-1811Y-90538D01*
X-1788Y-90582D01*
X-1773Y-90629D01*
X-1714Y-90722D01*
X-1663Y-90819D01*
X-1629Y-90856D01*
X-1603Y-90898D01*
X-1523Y-90973D01*
X-1449Y-91055D01*
X-1407Y-91082D01*
X-1371Y-91116D01*
X-1275Y-91169D01*
X-1183Y-91229D01*
X-1136Y-91246D01*
X-1093Y-91270D01*
X-986Y-91297D01*
X-882Y-91333D01*
X-833Y-91337D01*
X-785Y-91349D01*
X-624Y-91359D01*
X19398Y-91359D01*
X23570Y-93087D01*
X61380Y-130898D01*
X61458Y-130958D01*
X61530Y-131026D01*
X61583Y-131055D01*
X61631Y-131092D01*
X61722Y-131132D01*
X61809Y-131180D01*
X61867Y-131195D01*
X61923Y-131219D01*
X62021Y-131234D01*
X62117Y-131259D01*
X62217Y-131265D01*
X62237Y-131269D01*
X62249Y-131267D01*
X62277Y-131269D01*
X130000Y-131269D01*
X130118Y-131254D01*
G37*
G36*
X-69727Y15058D02*
X-69727Y15058D01*
X-69588Y15063D01*
X-69568Y15068D01*
X-69548Y15069D01*
X-69416Y15112D01*
X-69282Y15151D01*
X-69265Y15161D01*
X-69246Y15168D01*
X-69128Y15242D01*
X-69008Y15313D01*
X-68987Y15331D01*
X-68977Y15338D01*
X-68963Y15353D01*
X-68888Y15419D01*
X-62783Y21524D01*
X-62722Y21602D01*
X-62654Y21674D01*
X-62625Y21727D01*
X-62588Y21775D01*
X-62548Y21866D01*
X-62501Y21953D01*
X-62486Y22011D01*
X-62462Y22067D01*
X-62446Y22165D01*
X-62421Y22260D01*
X-62415Y22361D01*
X-62412Y22381D01*
X-62413Y22393D01*
X-62411Y22421D01*
X-62411Y25107D01*
X-61456Y27412D01*
X-54142Y34726D01*
X-54082Y34804D01*
X-54014Y34876D01*
X-53985Y34929D01*
X-53948Y34977D01*
X-53908Y35068D01*
X-53860Y35155D01*
X-53845Y35213D01*
X-53821Y35269D01*
X-53806Y35367D01*
X-53781Y35462D01*
X-53775Y35563D01*
X-53771Y35583D01*
X-53773Y35595D01*
X-53771Y35623D01*
X-53771Y36756D01*
X-53783Y36854D01*
X-53786Y36953D01*
X-53803Y37012D01*
X-53811Y37072D01*
X-53847Y37164D01*
X-53875Y37259D01*
X-53905Y37311D01*
X-53928Y37367D01*
X-53986Y37448D01*
X-54036Y37533D01*
X-54102Y37608D01*
X-54114Y37625D01*
X-54124Y37633D01*
X-54142Y37654D01*
X-79846Y63358D01*
X-79925Y63418D01*
X-79997Y63486D01*
X-80050Y63515D01*
X-80098Y63552D01*
X-80188Y63592D01*
X-80275Y63640D01*
X-80334Y63655D01*
X-80389Y63679D01*
X-80487Y63694D01*
X-80583Y63719D01*
X-80683Y63725D01*
X-80703Y63729D01*
X-80716Y63727D01*
X-80744Y63729D01*
X-81247Y63729D01*
X-83552Y64684D01*
X-85494Y66626D01*
X-85495Y66626D01*
X-89103Y70234D01*
X-89212Y70320D01*
X-89319Y70408D01*
X-89338Y70417D01*
X-89354Y70429D01*
X-89482Y70485D01*
X-89607Y70544D01*
X-89627Y70548D01*
X-89646Y70556D01*
X-89784Y70578D01*
X-89920Y70604D01*
X-89940Y70602D01*
X-89960Y70605D01*
X-90099Y70592D01*
X-90237Y70584D01*
X-90256Y70578D01*
X-90276Y70576D01*
X-90408Y70528D01*
X-90539Y70486D01*
X-90557Y70475D01*
X-90576Y70468D01*
X-90691Y70390D01*
X-90808Y70316D01*
X-90822Y70301D01*
X-90839Y70289D01*
X-90931Y70185D01*
X-91026Y70084D01*
X-91036Y70066D01*
X-91049Y70051D01*
X-91112Y69927D01*
X-91180Y69805D01*
X-91185Y69786D01*
X-91194Y69768D01*
X-91224Y69632D01*
X-91259Y69498D01*
X-91261Y69469D01*
X-91264Y69458D01*
X-91263Y69437D01*
X-91269Y69337D01*
X-91269Y23651D01*
X-91261Y23582D01*
X-91262Y23512D01*
X-91241Y23425D01*
X-91229Y23336D01*
X-91204Y23271D01*
X-91187Y23203D01*
X-91145Y23123D01*
X-91112Y23040D01*
X-91071Y22983D01*
X-91039Y22922D01*
X-90978Y22855D01*
X-90926Y22782D01*
X-90872Y22738D01*
X-90825Y22686D01*
X-90750Y22637D01*
X-90681Y22580D01*
X-90617Y22550D01*
X-90559Y22512D01*
X-90474Y22482D01*
X-90393Y22444D01*
X-90324Y22431D01*
X-90258Y22408D01*
X-90169Y22401D01*
X-90081Y22384D01*
X-90011Y22389D01*
X-89941Y22383D01*
X-89853Y22399D01*
X-89763Y22404D01*
X-89697Y22426D01*
X-89628Y22438D01*
X-89546Y22474D01*
X-89461Y22502D01*
X-89402Y22539D01*
X-89338Y22568D01*
X-89268Y22624D01*
X-89192Y22672D01*
X-89144Y22723D01*
X-89090Y22767D01*
X-89035Y22839D01*
X-88974Y22904D01*
X-88940Y22965D01*
X-88898Y23021D01*
X-88827Y23165D01*
X-88609Y23692D01*
X-85937Y26364D01*
X-82445Y27811D01*
X-78665Y27811D01*
X-75173Y26364D01*
X-72501Y23692D01*
X-71054Y20200D01*
X-71054Y16316D01*
X-71037Y16179D01*
X-71024Y16040D01*
X-71017Y16021D01*
X-71014Y16001D01*
X-70963Y15872D01*
X-70916Y15741D01*
X-70905Y15724D01*
X-70897Y15705D01*
X-70816Y15593D01*
X-70738Y15478D01*
X-70722Y15464D01*
X-70711Y15448D01*
X-70603Y15359D01*
X-70499Y15267D01*
X-70481Y15258D01*
X-70466Y15245D01*
X-70340Y15186D01*
X-70216Y15123D01*
X-70196Y15118D01*
X-70178Y15110D01*
X-70042Y15083D01*
X-69906Y15053D01*
X-69885Y15054D01*
X-69866Y15050D01*
X-69727Y15058D01*
G37*
%LPC*%
G36*
X116612Y162967D02*
X116612Y162967D01*
X110352Y165560D01*
X105560Y170352D01*
X102967Y176612D01*
X102967Y183388D01*
X105560Y189648D01*
X110352Y194440D01*
X116612Y197033D01*
X123388Y197033D01*
X129648Y194440D01*
X134440Y189648D01*
X137033Y183388D01*
X137033Y176612D01*
X134440Y170352D01*
X129648Y165560D01*
X123388Y162967D01*
X116612Y162967D01*
G37*
%LPD*%
%LPC*%
G36*
X-123388Y162967D02*
X-123388Y162967D01*
X-129648Y165560D01*
X-134440Y170352D01*
X-137033Y176612D01*
X-137033Y183388D01*
X-134440Y189648D01*
X-129648Y194440D01*
X-123388Y197033D01*
X-116612Y197033D01*
X-110352Y194440D01*
X-105560Y189648D01*
X-102967Y183388D01*
X-102967Y176612D01*
X-105560Y170352D01*
X-110352Y165560D01*
X-116612Y162967D01*
X-123388Y162967D01*
G37*
%LPD*%
G36*
X17423Y-14033D02*
X17423Y-14033D01*
X17542Y-14029D01*
X17580Y-14018D01*
X17621Y-14014D01*
X17733Y-13974D01*
X17847Y-13941D01*
X17882Y-13920D01*
X17920Y-13906D01*
X18018Y-13840D01*
X18121Y-13779D01*
X18166Y-13739D01*
X18183Y-13728D01*
X18197Y-13713D01*
X18242Y-13673D01*
X18626Y-13289D01*
X18686Y-13211D01*
X18754Y-13139D01*
X18783Y-13086D01*
X18820Y-13038D01*
X18860Y-12947D01*
X18908Y-12860D01*
X18923Y-12802D01*
X18947Y-12746D01*
X18962Y-12648D01*
X18987Y-12552D01*
X18993Y-12452D01*
X18997Y-12432D01*
X18995Y-12420D01*
X18997Y-12392D01*
X18997Y-8447D01*
X19952Y-6143D01*
X23739Y-2355D01*
X23812Y-2261D01*
X23891Y-2172D01*
X23909Y-2136D01*
X23934Y-2104D01*
X23981Y-1995D01*
X24036Y-1889D01*
X24044Y-1850D01*
X24060Y-1812D01*
X24079Y-1695D01*
X24105Y-1579D01*
X24104Y-1538D01*
X24110Y-1498D01*
X24099Y-1380D01*
X24096Y-1261D01*
X24084Y-1222D01*
X24080Y-1182D01*
X24040Y-1070D01*
X24007Y-955D01*
X23987Y-920D01*
X23973Y-882D01*
X23906Y-784D01*
X23846Y-681D01*
X23806Y-636D01*
X23794Y-619D01*
X23779Y-606D01*
X23739Y-560D01*
X21894Y1284D01*
X20456Y2723D01*
X20432Y2741D01*
X20413Y2764D01*
X20307Y2838D01*
X20204Y2918D01*
X20177Y2930D01*
X20153Y2947D01*
X20032Y2993D01*
X19912Y3044D01*
X19883Y3049D01*
X19856Y3059D01*
X19727Y3074D01*
X19598Y3094D01*
X19569Y3091D01*
X19540Y3095D01*
X19411Y3077D01*
X19282Y3064D01*
X19254Y3054D01*
X19225Y3050D01*
X19072Y2998D01*
X15791Y1639D01*
X12209Y1639D01*
X8901Y3009D01*
X6369Y5541D01*
X4999Y8849D01*
X4999Y12431D01*
X6384Y15774D01*
X6402Y15794D01*
X6431Y15847D01*
X6468Y15894D01*
X6508Y15985D01*
X6556Y16072D01*
X6571Y16131D01*
X6595Y16186D01*
X6610Y16284D01*
X6635Y16380D01*
X6641Y16480D01*
X6645Y16500D01*
X6643Y16513D01*
X6645Y16541D01*
X6645Y46682D01*
X7600Y48986D01*
X9542Y50929D01*
X13467Y54854D01*
X13540Y54948D01*
X13619Y55037D01*
X13637Y55073D01*
X13662Y55105D01*
X13710Y55214D01*
X13764Y55320D01*
X13772Y55360D01*
X13789Y55397D01*
X13807Y55515D01*
X13833Y55631D01*
X13832Y55671D01*
X13838Y55711D01*
X13827Y55830D01*
X13824Y55948D01*
X13812Y55987D01*
X13809Y56028D01*
X13768Y56140D01*
X13735Y56254D01*
X13715Y56289D01*
X13701Y56327D01*
X13634Y56425D01*
X13574Y56528D01*
X13534Y56573D01*
X13522Y56590D01*
X13507Y56603D01*
X13467Y56649D01*
X7828Y62288D01*
X7789Y62319D01*
X7755Y62355D01*
X7663Y62416D01*
X7577Y62483D01*
X7531Y62503D01*
X7490Y62530D01*
X7386Y62566D01*
X7285Y62609D01*
X7236Y62617D01*
X7189Y62633D01*
X7079Y62642D01*
X6971Y62659D01*
X6921Y62655D01*
X6872Y62658D01*
X6763Y62640D01*
X6654Y62629D01*
X6607Y62613D01*
X6558Y62604D01*
X6458Y62559D01*
X6355Y62522D01*
X6314Y62494D01*
X6268Y62473D01*
X6183Y62405D01*
X6092Y62343D01*
X6059Y62306D01*
X6020Y62275D01*
X5954Y62187D01*
X5881Y62105D01*
X5859Y62061D01*
X5829Y62021D01*
X5758Y61876D01*
X4451Y58721D01*
X3462Y57733D01*
X3402Y57655D01*
X3334Y57582D01*
X3305Y57529D01*
X3268Y57482D01*
X3228Y57391D01*
X3180Y57304D01*
X3165Y57245D01*
X3141Y57190D01*
X3126Y57092D01*
X3101Y56996D01*
X3095Y56896D01*
X3091Y56876D01*
X3093Y56863D01*
X3091Y56835D01*
X3091Y31506D01*
X2136Y29201D01*
X1601Y28666D01*
X1540Y28588D01*
X1473Y28516D01*
X1443Y28463D01*
X1406Y28415D01*
X1367Y28324D01*
X1319Y28237D01*
X1304Y28179D01*
X1280Y28123D01*
X1264Y28025D01*
X1240Y27929D01*
X1233Y27829D01*
X1230Y27809D01*
X1231Y27797D01*
X1229Y27769D01*
X1229Y-1835D01*
X1242Y-1934D01*
X1245Y-2033D01*
X1262Y-2091D01*
X1269Y-2151D01*
X1306Y-2243D01*
X1333Y-2338D01*
X1364Y-2390D01*
X1386Y-2447D01*
X1444Y-2527D01*
X1495Y-2612D01*
X1561Y-2688D01*
X1573Y-2704D01*
X1582Y-2712D01*
X1601Y-2733D01*
X9464Y-10596D01*
X9542Y-10656D01*
X9614Y-10724D01*
X9667Y-10753D01*
X9715Y-10790D01*
X9806Y-10830D01*
X9893Y-10878D01*
X9951Y-10893D01*
X10007Y-10917D01*
X10105Y-10932D01*
X10200Y-10957D01*
X10301Y-10963D01*
X10321Y-10967D01*
X10333Y-10965D01*
X10361Y-10967D01*
X11797Y-10967D01*
X15117Y-12342D01*
X16447Y-13673D01*
X16541Y-13746D01*
X16630Y-13824D01*
X16666Y-13843D01*
X16698Y-13868D01*
X16807Y-13915D01*
X16913Y-13969D01*
X16953Y-13978D01*
X16990Y-13994D01*
X17108Y-14013D01*
X17224Y-14039D01*
X17264Y-14037D01*
X17304Y-14044D01*
X17423Y-14033D01*
G37*
G36*
X-45275Y103845D02*
X-45275Y103845D01*
X-45185Y103848D01*
X-45118Y103868D01*
X-45049Y103877D01*
X-44897Y103929D01*
X-42426Y104953D01*
X-12641Y104953D01*
X-12543Y104965D01*
X-12444Y104968D01*
X-12386Y104985D01*
X-12326Y104993D01*
X-12234Y105029D01*
X-12138Y105057D01*
X-12086Y105087D01*
X-12030Y105110D01*
X-11950Y105168D01*
X-11865Y105218D01*
X-11789Y105284D01*
X-11773Y105296D01*
X-11765Y105306D01*
X-11744Y105324D01*
X-3107Y113961D01*
X-3077Y114000D01*
X-3040Y114034D01*
X-2980Y114125D01*
X-2912Y114212D01*
X-2892Y114258D01*
X-2865Y114299D01*
X-2830Y114403D01*
X-2786Y114504D01*
X-2778Y114553D01*
X-2762Y114600D01*
X-2753Y114709D01*
X-2736Y114818D01*
X-2741Y114868D01*
X-2737Y114917D01*
X-2756Y115025D01*
X-2766Y115135D01*
X-2783Y115182D01*
X-2791Y115231D01*
X-2836Y115331D01*
X-2873Y115434D01*
X-2901Y115475D01*
X-2922Y115521D01*
X-2990Y115606D01*
X-3052Y115697D01*
X-3089Y115730D01*
X-3120Y115769D01*
X-3208Y115835D01*
X-3291Y115908D01*
X-3335Y115930D01*
X-3374Y115960D01*
X-3519Y116031D01*
X-5381Y116802D01*
X-8898Y120319D01*
X-8909Y120346D01*
X-8923Y120371D01*
X-8932Y120399D01*
X-9002Y120509D01*
X-9066Y120622D01*
X-9087Y120643D01*
X-9103Y120668D01*
X-9197Y120757D01*
X-9288Y120850D01*
X-9313Y120866D01*
X-9334Y120886D01*
X-9448Y120949D01*
X-9559Y121017D01*
X-9587Y121025D01*
X-9613Y121040D01*
X-9738Y121072D01*
X-9863Y121110D01*
X-9892Y121112D01*
X-9921Y121119D01*
X-10081Y121129D01*
X-18650Y121129D01*
X-18788Y121165D01*
X-18933Y121205D01*
X-18943Y121205D01*
X-18952Y121207D01*
X-19112Y121217D01*
X-21747Y121217D01*
X-23689Y122022D01*
X-23804Y122053D01*
X-23916Y122092D01*
X-23957Y122095D01*
X-23996Y122106D01*
X-24115Y122107D01*
X-24233Y122117D01*
X-24273Y122110D01*
X-24314Y122111D01*
X-24430Y122083D01*
X-24547Y122063D01*
X-24584Y122046D01*
X-24623Y122036D01*
X-24728Y121981D01*
X-24837Y121932D01*
X-24868Y121907D01*
X-24904Y121888D01*
X-24992Y121808D01*
X-25085Y121733D01*
X-25109Y121701D01*
X-25139Y121674D01*
X-25205Y121574D01*
X-25276Y121479D01*
X-25303Y121425D01*
X-25314Y121408D01*
X-25321Y121389D01*
X-25347Y121335D01*
X-25602Y120719D01*
X-29119Y117202D01*
X-33713Y115299D01*
X-36454Y115299D01*
X-36552Y115287D01*
X-36651Y115284D01*
X-36710Y115267D01*
X-36770Y115259D01*
X-36862Y115223D01*
X-36957Y115195D01*
X-37009Y115165D01*
X-37065Y115142D01*
X-37145Y115084D01*
X-37231Y115034D01*
X-37306Y114968D01*
X-37323Y114956D01*
X-37331Y114946D01*
X-37352Y114928D01*
X-46280Y105999D01*
X-46323Y105944D01*
X-46373Y105896D01*
X-46420Y105819D01*
X-46475Y105748D01*
X-46502Y105684D01*
X-46539Y105625D01*
X-46565Y105539D01*
X-46601Y105456D01*
X-46612Y105387D01*
X-46632Y105321D01*
X-46637Y105231D01*
X-46651Y105142D01*
X-46644Y105073D01*
X-46648Y105003D01*
X-46629Y104915D01*
X-46621Y104826D01*
X-46597Y104760D01*
X-46583Y104692D01*
X-46544Y104611D01*
X-46513Y104526D01*
X-46474Y104468D01*
X-46444Y104406D01*
X-46385Y104338D01*
X-46335Y104263D01*
X-46283Y104217D01*
X-46237Y104164D01*
X-46164Y104112D01*
X-46096Y104053D01*
X-46034Y104021D01*
X-45977Y103981D01*
X-45893Y103949D01*
X-45813Y103908D01*
X-45745Y103893D01*
X-45680Y103868D01*
X-45590Y103858D01*
X-45503Y103838D01*
X-45433Y103841D01*
X-45364Y103833D01*
X-45275Y103845D01*
G37*
%LPC*%
G36*
X33381Y175739D02*
X33381Y175739D01*
X30578Y177358D01*
X28959Y180161D01*
X28959Y187153D01*
X28957Y187174D01*
X28956Y187238D01*
X28853Y188795D01*
X30342Y191824D01*
X33147Y193703D01*
X33403Y193720D01*
X33459Y193731D01*
X33516Y193732D01*
X33614Y193761D01*
X33715Y193781D01*
X33766Y193805D01*
X33820Y193821D01*
X34873Y193821D01*
X34894Y193823D01*
X34958Y193824D01*
X35710Y193874D01*
X35725Y193877D01*
X35740Y193876D01*
X35860Y193902D01*
X35916Y193899D01*
X35920Y193899D01*
X35923Y193898D01*
X36084Y193899D01*
X36106Y193900D01*
X36116Y193899D01*
X36130Y193895D01*
X36290Y193874D01*
X37042Y193824D01*
X37063Y193825D01*
X37127Y193821D01*
X38196Y193821D01*
X38233Y193808D01*
X38327Y193768D01*
X38384Y193759D01*
X38438Y193741D01*
X38597Y193720D01*
X38853Y193703D01*
X41658Y191824D01*
X43147Y188795D01*
X43044Y187237D01*
X43045Y187217D01*
X43041Y187153D01*
X43041Y180161D01*
X41422Y177358D01*
X38619Y175739D01*
X33381Y175739D01*
G37*
%LPD*%
%LPC*%
G36*
X-35843Y175700D02*
X-35843Y175700D01*
X-35920Y175700D01*
X-35997Y175710D01*
X-36157Y175700D01*
X-36160Y175699D01*
X-36161Y175699D01*
X-37432Y175540D01*
X-40677Y176910D01*
X-42803Y179718D01*
X-42859Y180168D01*
X-42864Y180187D01*
X-42865Y180208D01*
X-42903Y180341D01*
X-42938Y180476D01*
X-42947Y180494D01*
X-42953Y180513D01*
X-43023Y180633D01*
X-43041Y180664D01*
X-43041Y181543D01*
X-43041Y181546D01*
X-43051Y181700D01*
X-43158Y182561D01*
X-43146Y182581D01*
X-43140Y182601D01*
X-43130Y182619D01*
X-43096Y182753D01*
X-43057Y182887D01*
X-43056Y182907D01*
X-43051Y182927D01*
X-43041Y183087D01*
X-43041Y186473D01*
X-43043Y186493D01*
X-43041Y186513D01*
X-43063Y186651D01*
X-43081Y186788D01*
X-43088Y186807D01*
X-43091Y186827D01*
X-43146Y186955D01*
X-43160Y186988D01*
X-43051Y187860D01*
X-43051Y187863D01*
X-43041Y188017D01*
X-43041Y188884D01*
X-43026Y188903D01*
X-43018Y188922D01*
X-43006Y188938D01*
X-42955Y189068D01*
X-42900Y189195D01*
X-42896Y189215D01*
X-42889Y189234D01*
X-42859Y189392D01*
X-42803Y189842D01*
X-40677Y192650D01*
X-37432Y194020D01*
X-36157Y193860D01*
X-36080Y193860D01*
X-36003Y193850D01*
X-35843Y193860D01*
X-35840Y193861D01*
X-35839Y193861D01*
X-34568Y194020D01*
X-31323Y192650D01*
X-29197Y189842D01*
X-29141Y189392D01*
X-29136Y189373D01*
X-29135Y189352D01*
X-29097Y189219D01*
X-29062Y189084D01*
X-29053Y189066D01*
X-29047Y189047D01*
X-28977Y188927D01*
X-28959Y188896D01*
X-28959Y188017D01*
X-28959Y188014D01*
X-28949Y187860D01*
X-28842Y186999D01*
X-28854Y186979D01*
X-28860Y186959D01*
X-28870Y186941D01*
X-28904Y186807D01*
X-28943Y186673D01*
X-28944Y186653D01*
X-28949Y186633D01*
X-28959Y186473D01*
X-28959Y183087D01*
X-28957Y183067D01*
X-28959Y183047D01*
X-28937Y182909D01*
X-28919Y182772D01*
X-28912Y182753D01*
X-28909Y182733D01*
X-28854Y182605D01*
X-28840Y182572D01*
X-28949Y181700D01*
X-28949Y181697D01*
X-28959Y181543D01*
X-28959Y180675D01*
X-28974Y180656D01*
X-28982Y180638D01*
X-28994Y180622D01*
X-29045Y180492D01*
X-29100Y180365D01*
X-29104Y180345D01*
X-29111Y180326D01*
X-29141Y180168D01*
X-29197Y179718D01*
X-31323Y176910D01*
X-34568Y175540D01*
X-35843Y175700D01*
G37*
%LPD*%
%LPC*%
G36*
X-20702Y159739D02*
X-20702Y159739D01*
X-22922Y160659D01*
X-24621Y162358D01*
X-25541Y164578D01*
X-25541Y166982D01*
X-24621Y169202D01*
X-22922Y170901D01*
X-20702Y171821D01*
X-18298Y171821D01*
X-16078Y170901D01*
X-14379Y169202D01*
X-13459Y166982D01*
X-13459Y164578D01*
X-14379Y162358D01*
X-16078Y160659D01*
X-18298Y159739D01*
X-20702Y159739D01*
G37*
%LPD*%
G36*
X-82869Y115928D02*
X-82869Y115928D01*
X-82731Y115937D01*
X-82712Y115943D01*
X-82692Y115945D01*
X-82560Y115992D01*
X-82429Y116035D01*
X-82411Y116046D01*
X-82392Y116052D01*
X-82277Y116130D01*
X-82160Y116205D01*
X-82146Y116220D01*
X-82129Y116231D01*
X-82037Y116335D01*
X-81942Y116436D01*
X-81932Y116454D01*
X-81919Y116469D01*
X-81855Y116594D01*
X-81788Y116715D01*
X-81783Y116735D01*
X-81774Y116753D01*
X-81744Y116888D01*
X-81709Y117023D01*
X-81707Y117051D01*
X-81704Y117063D01*
X-81705Y117083D01*
X-81699Y117184D01*
X-81699Y122305D01*
X-81711Y122403D01*
X-81714Y122502D01*
X-81731Y122560D01*
X-81739Y122620D01*
X-81775Y122712D01*
X-81803Y122808D01*
X-81833Y122860D01*
X-81856Y122916D01*
X-81914Y122996D01*
X-81964Y123081D01*
X-82030Y123157D01*
X-82042Y123173D01*
X-82052Y123181D01*
X-82070Y123202D01*
X-88264Y129396D01*
X-88313Y129482D01*
X-88320Y129489D01*
X-88325Y129497D01*
X-88431Y129618D01*
X-89103Y130289D01*
X-89212Y130374D01*
X-89319Y130463D01*
X-89338Y130472D01*
X-89354Y130484D01*
X-89482Y130540D01*
X-89607Y130599D01*
X-89627Y130603D01*
X-89646Y130611D01*
X-89783Y130632D01*
X-89920Y130658D01*
X-89940Y130657D01*
X-89960Y130660D01*
X-90098Y130647D01*
X-90237Y130639D01*
X-90256Y130632D01*
X-90276Y130631D01*
X-90407Y130584D01*
X-90539Y130541D01*
X-90557Y130530D01*
X-90576Y130523D01*
X-90690Y130445D01*
X-90808Y130371D01*
X-90822Y130356D01*
X-90839Y130344D01*
X-90931Y130240D01*
X-91026Y130139D01*
X-91036Y130121D01*
X-91049Y130106D01*
X-91112Y129982D01*
X-91180Y129860D01*
X-91185Y129841D01*
X-91194Y129823D01*
X-91224Y129687D01*
X-91259Y129552D01*
X-91261Y129524D01*
X-91264Y129512D01*
X-91263Y129492D01*
X-91269Y129392D01*
X-91269Y120052D01*
X-91254Y119934D01*
X-91247Y119815D01*
X-91234Y119777D01*
X-91229Y119736D01*
X-91186Y119626D01*
X-91149Y119513D01*
X-91127Y119478D01*
X-91112Y119441D01*
X-91043Y119345D01*
X-90979Y119244D01*
X-90949Y119216D01*
X-90926Y119183D01*
X-90834Y119107D01*
X-90747Y119026D01*
X-90712Y119006D01*
X-90681Y118981D01*
X-90573Y118930D01*
X-90469Y118872D01*
X-90429Y118862D01*
X-90393Y118845D01*
X-90276Y118823D01*
X-90161Y118793D01*
X-90101Y118789D01*
X-90081Y118785D01*
X-90060Y118787D01*
X-90000Y118783D01*
X-88253Y118783D01*
X-85025Y117446D01*
X-83865Y116286D01*
X-83756Y116201D01*
X-83649Y116112D01*
X-83630Y116104D01*
X-83614Y116091D01*
X-83487Y116036D01*
X-83361Y115977D01*
X-83341Y115973D01*
X-83322Y115965D01*
X-83184Y115943D01*
X-83048Y115917D01*
X-83028Y115918D01*
X-83008Y115915D01*
X-82869Y115928D01*
G37*
G36*
X36808Y180836D02*
X36808Y180836D01*
X36927Y180843D01*
X36965Y180856D01*
X37006Y180861D01*
X37116Y180904D01*
X37229Y180941D01*
X37264Y180963D01*
X37301Y180978D01*
X37397Y181047D01*
X37498Y181111D01*
X37526Y181141D01*
X37559Y181164D01*
X37635Y181256D01*
X37716Y181343D01*
X37736Y181378D01*
X37761Y181409D01*
X37812Y181517D01*
X37870Y181621D01*
X37880Y181661D01*
X37897Y181697D01*
X37919Y181814D01*
X37949Y181929D01*
X37953Y181989D01*
X37957Y182009D01*
X37955Y182030D01*
X37959Y182090D01*
X37959Y185848D01*
X37952Y185905D01*
X37954Y185962D01*
X37932Y186062D01*
X37919Y186164D01*
X37898Y186217D01*
X37886Y186272D01*
X37956Y187323D01*
X37955Y187343D01*
X37959Y187407D01*
X37959Y187470D01*
X37944Y187588D01*
X37937Y187707D01*
X37924Y187745D01*
X37919Y187786D01*
X37876Y187896D01*
X37839Y188009D01*
X37817Y188044D01*
X37802Y188081D01*
X37733Y188177D01*
X37669Y188278D01*
X37639Y188306D01*
X37616Y188339D01*
X37524Y188415D01*
X37437Y188496D01*
X37402Y188516D01*
X37371Y188541D01*
X37263Y188592D01*
X37159Y188650D01*
X37119Y188660D01*
X37083Y188677D01*
X36966Y188699D01*
X36851Y188729D01*
X36791Y188733D01*
X36771Y188737D01*
X36750Y188735D01*
X36690Y188739D01*
X35310Y188739D01*
X35192Y188724D01*
X35073Y188717D01*
X35035Y188704D01*
X34994Y188699D01*
X34884Y188656D01*
X34771Y188619D01*
X34736Y188597D01*
X34699Y188582D01*
X34603Y188513D01*
X34502Y188449D01*
X34474Y188419D01*
X34441Y188396D01*
X34365Y188304D01*
X34284Y188217D01*
X34264Y188182D01*
X34239Y188151D01*
X34188Y188043D01*
X34130Y187939D01*
X34120Y187899D01*
X34103Y187863D01*
X34081Y187746D01*
X34051Y187631D01*
X34047Y187571D01*
X34043Y187551D01*
X34045Y187530D01*
X34041Y187470D01*
X34041Y187407D01*
X34043Y187386D01*
X34044Y187322D01*
X34115Y186256D01*
X34105Y186218D01*
X34070Y186121D01*
X34065Y186064D01*
X34051Y186009D01*
X34041Y185848D01*
X34041Y182090D01*
X34056Y181972D01*
X34063Y181853D01*
X34076Y181815D01*
X34081Y181774D01*
X34124Y181664D01*
X34161Y181551D01*
X34183Y181516D01*
X34198Y181479D01*
X34267Y181383D01*
X34331Y181282D01*
X34361Y181254D01*
X34384Y181221D01*
X34476Y181145D01*
X34563Y181064D01*
X34598Y181044D01*
X34629Y181019D01*
X34737Y180968D01*
X34841Y180910D01*
X34881Y180900D01*
X34917Y180883D01*
X35034Y180861D01*
X35149Y180831D01*
X35209Y180827D01*
X35229Y180823D01*
X35250Y180825D01*
X35310Y180821D01*
X36690Y180821D01*
X36808Y180836D01*
G37*
G36*
X-35843Y180860D02*
X-35843Y180860D01*
X-35153Y180946D01*
X-35113Y180956D01*
X-35073Y180959D01*
X-34960Y180996D01*
X-34844Y181025D01*
X-34809Y181045D01*
X-34771Y181057D01*
X-34670Y181121D01*
X-34566Y181178D01*
X-34536Y181205D01*
X-34502Y181227D01*
X-34420Y181314D01*
X-34333Y181395D01*
X-34312Y181429D01*
X-34284Y181459D01*
X-34227Y181563D01*
X-34162Y181663D01*
X-34150Y181702D01*
X-34130Y181737D01*
X-34101Y181852D01*
X-34064Y181966D01*
X-34061Y182006D01*
X-34051Y182045D01*
X-34041Y182206D01*
X-34041Y187354D01*
X-34046Y187394D01*
X-34043Y187435D01*
X-34066Y187552D01*
X-34081Y187670D01*
X-34095Y187707D01*
X-34103Y187747D01*
X-34154Y187855D01*
X-34198Y187965D01*
X-34221Y187998D01*
X-34239Y188035D01*
X-34314Y188126D01*
X-34384Y188223D01*
X-34416Y188249D01*
X-34441Y188280D01*
X-34538Y188350D01*
X-34629Y188426D01*
X-34666Y188443D01*
X-34699Y188467D01*
X-34810Y188510D01*
X-34917Y188561D01*
X-34957Y188569D01*
X-34994Y188584D01*
X-35153Y188614D01*
X-35843Y188700D01*
X-35920Y188700D01*
X-35997Y188710D01*
X-36157Y188700D01*
X-36847Y188614D01*
X-36887Y188604D01*
X-36927Y188601D01*
X-37040Y188564D01*
X-37156Y188535D01*
X-37191Y188515D01*
X-37229Y188503D01*
X-37330Y188439D01*
X-37434Y188382D01*
X-37464Y188355D01*
X-37498Y188333D01*
X-37580Y188246D01*
X-37667Y188165D01*
X-37688Y188131D01*
X-37716Y188101D01*
X-37773Y187997D01*
X-37838Y187897D01*
X-37850Y187858D01*
X-37870Y187823D01*
X-37899Y187708D01*
X-37936Y187594D01*
X-37939Y187554D01*
X-37949Y187515D01*
X-37959Y187354D01*
X-37959Y182206D01*
X-37954Y182166D01*
X-37957Y182125D01*
X-37934Y182009D01*
X-37919Y181890D01*
X-37905Y181853D01*
X-37897Y181813D01*
X-37846Y181705D01*
X-37802Y181595D01*
X-37779Y181562D01*
X-37761Y181525D01*
X-37685Y181434D01*
X-37616Y181337D01*
X-37584Y181312D01*
X-37559Y181280D01*
X-37462Y181210D01*
X-37371Y181135D01*
X-37334Y181117D01*
X-37301Y181094D01*
X-37190Y181050D01*
X-37083Y180999D01*
X-37043Y180991D01*
X-37006Y180977D01*
X-36847Y180946D01*
X-36157Y180860D01*
X-36080Y180860D01*
X-36003Y180850D01*
X-35843Y180860D01*
G37*
D10*
X-36000Y184780D03*
X36000Y184780D03*
D11*
X33000Y156780D02*
X46080Y156780D01*
X-33000Y156780D02*
X-46080Y156780D01*
D12*
X-36200Y127800D03*
X19600Y127800D03*
X1700Y127400D03*
X-60800Y127800D03*
D13*
X-125890Y-49225D03*
D14*
X-113190Y10775D03*
X-138590Y10775D03*
D12*
X-82075Y-6030D03*
X-82075Y-28890D03*
X-82075Y-51750D03*
D15*
X150000Y170000D03*
X150000Y144600D03*
X150000Y119200D03*
X150000Y93800D03*
X-150000Y95000D03*
X-150000Y120400D03*
X-150000Y145800D03*
X-150000Y171200D03*
D12*
X-14920Y87880D03*
X15080Y87520D03*
D16*
X70458Y139604D03*
X116778Y145382D03*
D17*
X111285Y147323D02*
X105235Y147323D01*
X113225Y145382D02*
X116778Y145382D01*
X113225Y145382D02*
X111285Y147323D01*
X97517Y139604D02*
X70458Y139604D01*
X97517Y139604D02*
X105235Y147323D01*
D18*
X-41010Y109810D03*
X53970Y-119220D03*
X118900Y-84770D03*
D17*
X97178Y-53048D02*
X92096Y-53048D01*
X97178Y-53048D02*
X118900Y-74770D01*
X118900Y-84770D01*
D16*
X-130000Y90000D03*
X2043Y27957D03*
D17*
X2043Y17195D01*
X10975Y3338D02*
X18691Y3338D01*
X10975Y3338D02*
X6698Y7615D01*
X6698Y12541D01*
X2043Y17195D01*
X-107986Y90000D02*
X-130000Y90000D01*
D16*
X-107986Y90000D03*
X119474Y69376D03*
X140000Y60000D03*
D17*
X120772Y69376D02*
X119474Y69376D01*
X120772Y69376D02*
X130624Y69376D01*
X140000Y60000D01*
D19*
X127672Y147672D02*
X150000Y170000D01*
X120772Y76807D02*
X120772Y69376D01*
X127672Y130000D02*
X127672Y147672D01*
X127672Y130000D02*
X127672Y83706D01*
X120772Y76807D01*
X119474Y69376D02*
X128850Y60000D01*
X140000Y60000D01*
X-135580Y156780D02*
X-150000Y171200D01*
X-135580Y156780D02*
X-33000Y156780D01*
D16*
X90000Y110000D03*
D17*
X105848Y130000D02*
X120000Y130000D01*
X127672Y130000D01*
D20*
X95991Y115991D02*
X90000Y110000D01*
X95991Y115991D02*
X95991Y121220D01*
X113250Y129654D02*
X113596Y130000D01*
X120000Y130000D01*
X104424Y129654D02*
X95991Y121220D01*
X104424Y129654D02*
X113250Y129654D01*
D16*
X-89982Y130018D03*
D17*
X-130000Y90000D01*
X18691Y3338D02*
X23487Y-1458D01*
D16*
X23487Y-1458D03*
X40000Y110000D03*
X-100000Y10000D03*
D17*
X-75457Y10000D01*
X-63224Y22232D01*
D16*
X-63224Y22232D03*
X60000Y-90000D03*
D17*
X60000Y0D01*
D16*
X48314Y41258D03*
X30592Y144426D03*
X60000Y0D03*
D17*
X37690Y55000D02*
X34572Y55000D01*
X37690Y55000D02*
X41840Y50850D01*
X41840Y47732D01*
X48314Y41258D01*
X30592Y58979D02*
X30592Y144426D01*
X30592Y58979D02*
X34572Y55000D01*
D18*
X-37500Y-12500D03*
D17*
X-40000Y-10000D01*
X-69530Y119070D02*
X-60800Y127800D01*
X-51476Y127800D01*
D16*
X-9951Y144915D03*
D17*
X-12463Y142403D01*
X-36874Y142403D01*
X-51476Y127800D01*
X-69530Y119070D02*
X-69530Y68375D01*
X-34572Y33417D01*
X-34572Y-4572D02*
X-40000Y-10000D01*
X-34572Y-4572D02*
X-34572Y33417D01*
D18*
X-10640Y135100D03*
X-19000Y-20000D03*
D17*
X-36200Y124947D02*
X-36200Y127800D01*
X-36200Y124947D02*
X-63597Y97550D01*
X-22934Y137084D02*
X-17066Y137084D01*
X-32218Y127800D02*
X-36200Y127800D01*
X-17066Y137084D02*
X-15082Y135100D01*
X-10640Y135100D01*
X-22934Y137084D02*
X-32218Y127800D01*
X-63597Y68908D02*
X-30000Y35311D01*
X-63597Y68908D02*
X-63597Y97550D01*
X-30000Y35311D02*
X-30000Y-10000D01*
X-27334Y-12666D01*
X-26962Y-12666D01*
X-19628Y-20000D02*
X-19000Y-20000D01*
X-19628Y-20000D02*
X-26962Y-12666D01*
D18*
X-20000Y5000D03*
D16*
X18719Y146281D03*
D17*
X-59025Y80836D02*
X-59025Y70802D01*
X-20000Y31777D02*
X-20000Y5000D01*
X-20000Y31777D02*
X-59025Y70802D01*
X-9518Y98682D02*
X19600Y127800D01*
X-9518Y98682D02*
X-41179Y98682D01*
X-59025Y80836D01*
X19600Y127800D02*
X19600Y145400D01*
X18719Y146281D01*
X1700Y127400D02*
X-17400Y127400D01*
X-20000Y130000D01*
D16*
X-20000Y130000D03*
D18*
X125090Y20640D03*
D17*
X122550Y20640D01*
D16*
X80404Y20952D03*
D17*
X124778Y20952D02*
X125090Y20640D01*
X124778Y20952D02*
X109614Y20952D01*
X87066Y14290D02*
X80404Y20952D01*
X87066Y14290D02*
X102953Y14290D01*
X109614Y20952D01*
D18*
X-3180Y63820D03*
D21*
X10000Y-20000D03*
D17*
X-3180Y32753D02*
X-3180Y63820D01*
X-3180Y32753D02*
X-5041Y30892D01*
X-5041Y-4959D01*
X10000Y-20000D01*
D18*
X-15880Y63820D03*
D21*
X-50000Y-120000D03*
D17*
X-50000Y-112271D02*
X-12698Y-74968D01*
X-50000Y-112271D02*
X-50000Y-120000D01*
X-12698Y60638D02*
X-15880Y63820D01*
X-12698Y-24025D02*
X-12698Y-74968D01*
X-12698Y-24025D02*
X-11698Y-23025D01*
X-11698Y-16975D01*
X-12698Y-15975D01*
X-12698Y60638D01*
D18*
X-4450Y-102710D03*
D22*
X17140Y-102710D01*
X57780Y-143350D01*
D23*
X134569Y-143350D02*
X145410Y-132509D01*
D24*
X97500Y-170000D03*
D16*
X100018Y21374D03*
X34756Y47916D03*
D17*
X-47503Y65746D02*
X-47503Y70000D01*
X-47503Y65746D02*
X-37092Y55334D01*
X-34693Y55334D01*
X-18905Y71123D01*
X-47503Y70000D02*
X-51941Y74438D01*
X-51941Y77901D01*
D16*
X-51941Y77901D03*
X-84982Y86512D03*
D17*
X-77482Y96053D02*
X-76767Y96767D01*
X-75428Y98106D01*
X-95745Y145800D02*
X-150000Y145800D01*
D16*
X33186Y31090D03*
D17*
X31068Y47916D02*
X7862Y71123D01*
X-18905Y71123D01*
X-76767Y94726D02*
X-76767Y96767D01*
X-76767Y94726D02*
X-84982Y86512D01*
X33186Y31090D02*
X40000Y31090D01*
X41445Y31090D01*
X72570Y29602D02*
X75576Y32608D01*
X88785Y32608D01*
X100018Y21374D01*
X-82898Y132898D02*
X-82898Y132953D01*
X-95745Y145800D01*
X-75428Y125428D02*
X-75428Y98106D01*
X-75428Y125428D02*
X-82898Y132898D01*
X31068Y47916D02*
X34756Y47916D01*
X40000Y31090D02*
X41488Y29602D01*
X72570Y29602D01*
D21*
X-54772Y-129506D03*
D16*
X90000Y21374D03*
X20000Y42500D03*
D17*
X77470Y28036D02*
X83338Y28036D01*
X-46962Y-127334D02*
X-52600Y-127334D01*
X-54772Y-129506D01*
X90000Y21374D02*
X83338Y28036D01*
X52916Y-15821D02*
X20000Y-48737D01*
X-8126Y-76862D02*
X-8126Y-88497D01*
X-46962Y-127334D01*
X52916Y3482D02*
X77470Y28036D01*
X52916Y3482D02*
X52916Y-15821D01*
X20000Y-48737D02*
X-8126Y-76862D01*
X20000Y14967D02*
X20000Y42500D01*
X11108Y-29675D02*
X11108Y-35725D01*
X20000Y-44617D02*
X20000Y-48737D01*
X20000Y-44617D02*
X11108Y-35725D01*
X25268Y9699D02*
X20000Y14967D01*
X20391Y-20391D02*
X11108Y-29675D01*
X20391Y-20391D02*
X25268Y-15515D01*
X30571Y-4392D02*
X30571Y1476D01*
X25268Y6779D02*
X25268Y9699D01*
X25268Y-9695D02*
X25268Y-15515D01*
X30571Y1476D02*
X25268Y6779D01*
X30571Y-4392D02*
X25268Y-9695D01*
D18*
X73020Y56320D03*
X104055Y117880D03*
D17*
X104055Y115437D01*
X82666Y65966D02*
X73020Y56320D01*
X82666Y65966D02*
X82666Y100124D01*
X85166Y100124D01*
X101325Y115150D02*
X104055Y117880D01*
X87958Y102916D02*
X85166Y100124D01*
X87958Y102916D02*
X92934Y102916D01*
X101325Y111306D01*
X101325Y115150D01*
D16*
X-130000Y-90000D03*
D17*
X-130000Y-140000D01*
D16*
X-100000Y0D03*
X-90000Y110000D03*
X11074Y-70000D03*
X89880Y-14880D03*
D17*
X64828Y-101656D02*
X55172Y-101656D01*
X64828Y-101656D02*
X71656Y-94828D01*
X23516Y-70000D02*
X11074Y-70000D01*
X23516Y-70000D02*
X55172Y-101656D01*
X71656Y-94828D02*
X71656Y-33103D01*
X89880Y-14880D01*
D16*
X-27043Y-60410D03*
D17*
X-62552Y-95920D01*
X-62552Y-102571D01*
X-67666Y-107684D02*
X-67666Y-144462D01*
X-67666Y-107684D02*
X-62552Y-102571D01*
X-92872Y-140000D02*
X-130000Y-140000D01*
D16*
X86796Y120766D03*
X40188Y143904D03*
D17*
X63326Y120766D01*
X86796Y120766D01*
X-90000Y110000D02*
X-90000Y91512D01*
X-92066Y89446D01*
X-92066Y82066D01*
X-80000Y70000D01*
X-47500Y39879D02*
X-47500Y32500D01*
X-77621Y70000D02*
X-80000Y70000D01*
X-77621Y70000D02*
X-47500Y39879D01*
D16*
X110000Y-100000D03*
X120000Y-60000D03*
D17*
X117928Y-92073D02*
X110000Y-100000D01*
X117928Y-92073D02*
X121925Y-92073D01*
X126203Y-87795D01*
X120000Y-69404D02*
X120000Y-60000D01*
X126203Y-75607D02*
X126203Y-87795D01*
X126203Y-75607D02*
X120000Y-69404D01*
X108344Y-101656D02*
X64828Y-101656D01*
X108344Y-101656D02*
X110000Y-100000D01*
X-69462Y-157334D02*
X-75538Y-157334D01*
X-69462Y-157334D02*
X-65166Y-153038D01*
X-65166Y-146962D01*
X-67666Y-144462D01*
X-75538Y-157334D02*
X-92872Y-140000D01*
X-56140Y23860D02*
X-47500Y32500D01*
X-56140Y23860D02*
X-56140Y19298D01*
X-86549Y4772D02*
X-91321Y0D01*
X-100000Y0D01*
X-70666Y4772D02*
X-56140Y19298D01*
X-70666Y4772D02*
X-86549Y4772D01*
D18*
X-44460Y84300D03*
D17*
X-40880Y87880D02*
X-14920Y87880D01*
X-40880Y87880D02*
X-44460Y84300D01*
D16*
X-40000Y70000D03*
D17*
X-32922Y77078D01*
X-4Y87520D02*
X15080Y87520D01*
X-10446Y77078D02*
X-32922Y77078D01*
X-10446Y77078D02*
X-4Y87520D01*
D21*
X95134Y-45714D03*
X90000Y94586D03*
D17*
X90000Y-40580D02*
X95134Y-45714D01*
X90000Y-40580D02*
X90000Y-24777D01*
X132393Y17615D01*
X110000Y30000D02*
X90000Y50000D01*
X132393Y23665D02*
X132393Y17615D01*
X132393Y23665D02*
X126057Y30000D01*
X110000Y30000D01*
X90000Y50000D02*
X90000Y94586D01*
D18*
X40000Y18100D03*
X18410Y-32700D03*
D17*
X18410Y-31430D02*
X29840Y-20000D01*
X18410Y-31430D02*
X18410Y-32700D01*
X29840Y-20000D02*
X29840Y-11589D01*
X35143Y-6286D01*
X35143Y13243D02*
X40000Y18100D01*
X35143Y13243D02*
X35143Y-6286D01*
D18*
X109890Y99140D03*
D21*
X135000Y40000D03*
D17*
X135000Y41996D01*
X111092Y65904D01*
X111092Y97938D02*
X109890Y99140D01*
X111092Y97938D02*
X111092Y65904D01*
D21*
X3166Y145310D03*
D16*
X108081Y156749D03*
D17*
X14605Y156749D02*
X3166Y145310D01*
X22132Y200582D02*
X49868Y200582D01*
X22132Y200582D02*
X12190Y190640D01*
X12190Y162752D01*
X93701Y156749D02*
X108081Y156749D01*
X93701Y156749D02*
X49868Y200582D01*
X12190Y162752D02*
X14605Y160338D01*
X14605Y156749D01*
D18*
X14000Y10640D03*
D16*
X78205Y43205D03*
D17*
X27084Y45434D02*
X22934Y49584D01*
X17066Y49584D01*
X12916Y45434D01*
X27084Y45434D02*
X27084Y43341D01*
X12916Y45434D02*
X12916Y11724D01*
X14000Y10640D01*
X69174Y34174D02*
X78205Y43205D01*
X45195Y34174D02*
X44277Y34723D01*
X40826Y38174D02*
X32252Y38174D01*
X40826Y38174D02*
X44277Y34723D01*
X45195Y34174D02*
X69174Y34174D01*
X32252Y38174D02*
X27084Y43341D01*
D18*
X139540Y-21110D03*
D16*
X72500Y130000D03*
X110000Y137500D03*
X100000Y95000D03*
D17*
X136965Y-18535D02*
X139540Y-21110D01*
X136965Y-18535D02*
X136965Y25559D01*
X100000Y62523D02*
X100000Y95000D01*
X100000Y62523D02*
X136965Y25559D01*
X110000Y137500D02*
X101879Y137500D01*
X99411Y135032D01*
X77532Y135032D01*
X72500Y130000D01*
D21*
X-30000Y-20000D03*
D17*
X-68105Y-20000D02*
X-82075Y-6030D01*
X-68105Y-20000D02*
X-30000Y-20000D01*
D21*
X-29814Y-30186D03*
D17*
X-32666Y-27334D01*
X-80519Y-27334D02*
X-82075Y-28890D01*
X-80519Y-27334D02*
X-32666Y-27334D01*
D21*
X-110000Y-95000D03*
X-72500Y-150000D03*
D17*
X-72500Y-137500D01*
X-110000Y-100000D01*
X-110000Y-95000D01*
D16*
X-72136Y-97136D03*
D17*
X-100000Y-130000D02*
X-110000Y-130000D01*
D16*
X-110000Y-130000D03*
D17*
X-106962Y-87666D02*
X-113038Y-87666D01*
X-117334Y-91962D01*
X-100000Y-116466D02*
X-100000Y-130000D01*
X-97492Y-97136D02*
X-72136Y-97136D01*
X-97492Y-97136D02*
X-106962Y-87666D01*
X-117334Y-91962D02*
X-117334Y-99132D01*
X-100000Y-116466D01*
D16*
X-120000Y-10000D03*
D17*
X-113190Y-3190D02*
X-113190Y10775D01*
X-113190Y-3190D02*
X-120000Y-10000D01*
D16*
X-127000Y-3000D03*
D17*
X-127000Y-815D01*
X-138590Y10775D01*
D21*
X-30000Y-40282D03*
D17*
X-70607Y-40282D01*
X-82075Y-51750D01*
D25*
X-120000Y180000D03*
X120000Y180000D03*
X120000Y-160000D03*
M02*
