G04 EAGLE Gerber X2 export*
%TF.Part,Single*%
%TF.FileFunction,Legend,Top,1*%
%TF.FilePolarity,Positive*%
%TF.GenerationSoftware,Autodesk,EAGLE,9.0.0*%
%TF.CreationDate,2018-04-30T04:21:51Z*%
G75*
%MOMM*%
%FSLAX34Y34*%
%LPD*%
%AMOC8*
5,1,8,0,0,1.08239X$1,22.5*%
G01*
%ADD10C,0.076200*%
%ADD11C,0.101600*%
%ADD12C,0.304800*%
%ADD13R,0.889000X0.190500*%
%ADD14C,0.406400*%
%ADD15C,0.127000*%
%ADD16C,0.152400*%
%ADD17C,0.203200*%
%ADD18R,1.000000X0.200000*%
%ADD19C,0.025400*%
%ADD20C,0.050800*%
%ADD21C,0.228600*%
%ADD22R,0.190500X0.889000*%

G36*
X-153648Y68039D02*
X-153648Y68039D01*
X-153630Y68037D01*
X-153528Y68065D01*
X-153425Y68087D01*
X-153410Y68096D01*
X-153393Y68101D01*
X-153248Y68186D01*
X-148168Y71996D01*
X-148165Y71999D01*
X-148162Y72001D01*
X-148080Y72088D01*
X-147998Y72173D01*
X-147996Y72177D01*
X-147993Y72180D01*
X-147943Y72289D01*
X-147893Y72396D01*
X-147893Y72400D01*
X-147891Y72404D01*
X-147878Y72522D01*
X-147865Y72640D01*
X-147865Y72644D01*
X-147865Y72649D01*
X-147891Y72765D01*
X-147916Y72881D01*
X-147918Y72885D01*
X-147919Y72889D01*
X-147980Y72991D01*
X-148041Y73093D01*
X-148044Y73096D01*
X-148046Y73099D01*
X-148168Y73214D01*
X-153248Y77024D01*
X-153264Y77032D01*
X-153277Y77045D01*
X-153292Y77052D01*
X-153300Y77058D01*
X-153350Y77078D01*
X-153373Y77089D01*
X-153466Y77138D01*
X-153484Y77141D01*
X-153500Y77148D01*
X-153605Y77160D01*
X-153709Y77176D01*
X-153727Y77173D01*
X-153744Y77175D01*
X-153847Y77153D01*
X-153952Y77135D01*
X-153967Y77127D01*
X-153985Y77123D01*
X-154075Y77069D01*
X-154169Y77019D01*
X-154181Y77006D01*
X-154196Y76997D01*
X-154265Y76917D01*
X-154337Y76840D01*
X-154344Y76823D01*
X-154356Y76810D01*
X-154395Y76712D01*
X-154439Y76616D01*
X-154441Y76598D01*
X-154448Y76582D01*
X-154466Y76415D01*
X-154466Y68795D01*
X-154463Y68777D01*
X-154465Y68760D01*
X-154444Y68656D01*
X-154427Y68552D01*
X-154418Y68537D01*
X-154415Y68519D01*
X-154361Y68428D01*
X-154311Y68335D01*
X-154299Y68323D01*
X-154290Y68307D01*
X-154210Y68238D01*
X-154133Y68166D01*
X-154117Y68158D01*
X-154103Y68146D01*
X-154006Y68106D01*
X-153910Y68062D01*
X-153892Y68060D01*
X-153876Y68053D01*
X-153770Y68046D01*
X-153666Y68035D01*
X-153648Y68039D01*
G37*
G36*
X-71693Y68037D02*
X-71693Y68037D01*
X-71676Y68035D01*
X-71573Y68057D01*
X-71468Y68075D01*
X-71453Y68083D01*
X-71435Y68087D01*
X-71345Y68141D01*
X-71252Y68191D01*
X-71239Y68204D01*
X-71224Y68213D01*
X-71155Y68293D01*
X-71083Y68370D01*
X-71076Y68387D01*
X-71064Y68400D01*
X-71025Y68498D01*
X-70981Y68594D01*
X-70979Y68612D01*
X-70972Y68628D01*
X-70954Y68795D01*
X-70954Y76415D01*
X-70956Y76432D01*
X-70955Y76447D01*
X-70955Y76450D01*
X-70976Y76554D01*
X-70994Y76658D01*
X-71002Y76673D01*
X-71006Y76691D01*
X-71059Y76782D01*
X-71109Y76875D01*
X-71121Y76887D01*
X-71131Y76903D01*
X-71210Y76972D01*
X-71287Y77045D01*
X-71303Y77052D01*
X-71317Y77064D01*
X-71414Y77104D01*
X-71510Y77148D01*
X-71528Y77150D01*
X-71544Y77157D01*
X-71650Y77164D01*
X-71754Y77175D01*
X-71772Y77171D01*
X-71790Y77173D01*
X-71892Y77145D01*
X-71965Y77129D01*
X-71968Y77129D01*
X-71995Y77123D01*
X-72010Y77114D01*
X-72027Y77109D01*
X-72172Y77024D01*
X-77252Y73214D01*
X-77255Y73211D01*
X-77259Y73209D01*
X-77340Y73122D01*
X-77422Y73037D01*
X-77424Y73033D01*
X-77427Y73030D01*
X-77477Y72921D01*
X-77527Y72814D01*
X-77527Y72810D01*
X-77529Y72806D01*
X-77542Y72688D01*
X-77555Y72570D01*
X-77555Y72566D01*
X-77555Y72561D01*
X-77529Y72445D01*
X-77505Y72329D01*
X-77502Y72325D01*
X-77501Y72321D01*
X-77440Y72219D01*
X-77380Y72117D01*
X-77376Y72114D01*
X-77374Y72111D01*
X-77252Y71996D01*
X-72172Y68186D01*
X-72156Y68178D01*
X-72143Y68166D01*
X-72047Y68121D01*
X-71954Y68072D01*
X-71936Y68069D01*
X-71920Y68062D01*
X-71815Y68050D01*
X-71711Y68034D01*
X-71693Y68037D01*
G37*
G36*
X86058Y175182D02*
X86058Y175182D01*
X86075Y175180D01*
X86179Y175201D01*
X86283Y175219D01*
X86298Y175227D01*
X86316Y175231D01*
X86407Y175284D01*
X86500Y175334D01*
X86512Y175346D01*
X86528Y175356D01*
X86597Y175435D01*
X86670Y175512D01*
X86677Y175528D01*
X86689Y175542D01*
X86729Y175639D01*
X86773Y175735D01*
X86775Y175753D01*
X86782Y175769D01*
X86789Y175875D01*
X86800Y175979D01*
X86796Y175997D01*
X86798Y176015D01*
X86770Y176117D01*
X86748Y176220D01*
X86739Y176235D01*
X86734Y176252D01*
X86649Y176397D01*
X82839Y181477D01*
X82836Y181480D01*
X82834Y181484D01*
X82747Y181565D01*
X82662Y181647D01*
X82658Y181649D01*
X82655Y181652D01*
X82546Y181702D01*
X82439Y181752D01*
X82435Y181752D01*
X82431Y181754D01*
X82313Y181767D01*
X82195Y181780D01*
X82191Y181780D01*
X82186Y181780D01*
X82070Y181754D01*
X81954Y181730D01*
X81950Y181727D01*
X81946Y181726D01*
X81844Y181665D01*
X81742Y181605D01*
X81739Y181601D01*
X81736Y181599D01*
X81621Y181477D01*
X77811Y176397D01*
X77803Y176381D01*
X77791Y176368D01*
X77746Y176272D01*
X77697Y176179D01*
X77694Y176161D01*
X77687Y176145D01*
X77675Y176040D01*
X77659Y175936D01*
X77662Y175918D01*
X77660Y175901D01*
X77682Y175798D01*
X77700Y175693D01*
X77708Y175678D01*
X77712Y175660D01*
X77766Y175570D01*
X77816Y175477D01*
X77829Y175464D01*
X77838Y175449D01*
X77918Y175380D01*
X77995Y175308D01*
X78012Y175301D01*
X78025Y175289D01*
X78123Y175250D01*
X78219Y175206D01*
X78237Y175204D01*
X78253Y175197D01*
X78420Y175179D01*
X86040Y175179D01*
X86058Y175182D01*
G37*
G36*
X-59672Y172642D02*
X-59672Y172642D01*
X-59655Y172640D01*
X-59551Y172661D01*
X-59447Y172679D01*
X-59432Y172687D01*
X-59414Y172691D01*
X-59323Y172744D01*
X-59230Y172794D01*
X-59218Y172806D01*
X-59202Y172816D01*
X-59133Y172895D01*
X-59061Y172972D01*
X-59053Y172988D01*
X-59041Y173002D01*
X-59001Y173099D01*
X-58957Y173195D01*
X-58955Y173213D01*
X-58948Y173229D01*
X-58941Y173335D01*
X-58930Y173439D01*
X-58934Y173457D01*
X-58932Y173475D01*
X-58960Y173577D01*
X-58982Y173680D01*
X-58991Y173695D01*
X-58996Y173712D01*
X-59081Y173857D01*
X-62891Y178937D01*
X-62894Y178940D01*
X-62896Y178944D01*
X-62983Y179025D01*
X-63068Y179107D01*
X-63072Y179109D01*
X-63075Y179112D01*
X-63184Y179162D01*
X-63291Y179212D01*
X-63295Y179212D01*
X-63299Y179214D01*
X-63417Y179227D01*
X-63535Y179240D01*
X-63539Y179240D01*
X-63544Y179240D01*
X-63660Y179214D01*
X-63776Y179190D01*
X-63780Y179187D01*
X-63784Y179186D01*
X-63886Y179125D01*
X-63988Y179065D01*
X-63991Y179061D01*
X-63994Y179059D01*
X-64109Y178937D01*
X-67919Y173857D01*
X-67927Y173841D01*
X-67940Y173828D01*
X-67984Y173732D01*
X-68033Y173639D01*
X-68036Y173621D01*
X-68043Y173605D01*
X-68055Y173500D01*
X-68071Y173396D01*
X-68068Y173378D01*
X-68070Y173361D01*
X-68048Y173258D01*
X-68030Y173153D01*
X-68022Y173138D01*
X-68018Y173120D01*
X-67964Y173030D01*
X-67914Y172937D01*
X-67901Y172924D01*
X-67892Y172909D01*
X-67812Y172840D01*
X-67735Y172768D01*
X-67718Y172761D01*
X-67705Y172749D01*
X-67607Y172710D01*
X-67511Y172666D01*
X-67493Y172664D01*
X-67477Y172657D01*
X-67310Y172639D01*
X-59690Y172639D01*
X-59672Y172642D01*
G37*
G36*
X-22699Y-141315D02*
X-22699Y-141315D01*
X-22627Y-141315D01*
X-22559Y-141295D01*
X-22489Y-141285D01*
X-22423Y-141256D01*
X-22354Y-141236D01*
X-22294Y-141198D01*
X-22229Y-141169D01*
X-22174Y-141123D01*
X-22114Y-141085D01*
X-22066Y-141032D01*
X-22012Y-140986D01*
X-21972Y-140926D01*
X-21925Y-140872D01*
X-21894Y-140808D01*
X-21855Y-140749D01*
X-21833Y-140681D01*
X-21802Y-140616D01*
X-21790Y-140546D01*
X-21769Y-140478D01*
X-21767Y-140406D01*
X-21755Y-140336D01*
X-21763Y-140265D01*
X-21761Y-140194D01*
X-21780Y-140124D01*
X-21788Y-140053D01*
X-21813Y-139998D01*
X-21833Y-139919D01*
X-21894Y-139816D01*
X-21925Y-139747D01*
X-23925Y-136747D01*
X-24002Y-136660D01*
X-24075Y-136570D01*
X-24097Y-136555D01*
X-24115Y-136535D01*
X-24212Y-136473D01*
X-24307Y-136406D01*
X-24333Y-136398D01*
X-24355Y-136383D01*
X-24466Y-136351D01*
X-24576Y-136313D01*
X-24603Y-136312D01*
X-24628Y-136305D01*
X-24744Y-136305D01*
X-24860Y-136299D01*
X-24886Y-136305D01*
X-24913Y-136305D01*
X-25024Y-136337D01*
X-25137Y-136363D01*
X-25160Y-136376D01*
X-25186Y-136384D01*
X-25284Y-136446D01*
X-25385Y-136502D01*
X-25401Y-136520D01*
X-25426Y-136535D01*
X-25611Y-136743D01*
X-25615Y-136747D01*
X-27615Y-139747D01*
X-27646Y-139811D01*
X-27686Y-139871D01*
X-27707Y-139939D01*
X-27738Y-140003D01*
X-27750Y-140074D01*
X-27771Y-140142D01*
X-27773Y-140213D01*
X-27785Y-140284D01*
X-27777Y-140355D01*
X-27779Y-140426D01*
X-27761Y-140495D01*
X-27752Y-140566D01*
X-27725Y-140632D01*
X-27707Y-140701D01*
X-27670Y-140762D01*
X-27643Y-140828D01*
X-27598Y-140884D01*
X-27562Y-140946D01*
X-27510Y-140995D01*
X-27465Y-141050D01*
X-27407Y-141091D01*
X-27354Y-141140D01*
X-27291Y-141173D01*
X-27233Y-141214D01*
X-27165Y-141237D01*
X-27101Y-141270D01*
X-27042Y-141280D01*
X-26964Y-141307D01*
X-26845Y-141313D01*
X-26770Y-141325D01*
X-22770Y-141325D01*
X-22699Y-141315D01*
G37*
G36*
X84566Y-142545D02*
X84566Y-142545D01*
X84593Y-142545D01*
X84704Y-142513D01*
X84817Y-142487D01*
X84840Y-142474D01*
X84866Y-142466D01*
X84964Y-142404D01*
X85065Y-142348D01*
X85081Y-142330D01*
X85106Y-142315D01*
X85291Y-142107D01*
X85295Y-142103D01*
X87295Y-139103D01*
X87326Y-139039D01*
X87366Y-138979D01*
X87387Y-138911D01*
X87418Y-138847D01*
X87430Y-138776D01*
X87451Y-138708D01*
X87453Y-138637D01*
X87465Y-138567D01*
X87457Y-138495D01*
X87459Y-138424D01*
X87441Y-138355D01*
X87432Y-138284D01*
X87405Y-138218D01*
X87387Y-138149D01*
X87350Y-138088D01*
X87323Y-138022D01*
X87278Y-137966D01*
X87242Y-137904D01*
X87190Y-137855D01*
X87145Y-137800D01*
X87087Y-137759D01*
X87034Y-137710D01*
X86971Y-137677D01*
X86913Y-137636D01*
X86845Y-137613D01*
X86781Y-137580D01*
X86722Y-137570D01*
X86644Y-137543D01*
X86525Y-137537D01*
X86450Y-137525D01*
X82450Y-137525D01*
X82379Y-137535D01*
X82307Y-137535D01*
X82239Y-137555D01*
X82169Y-137565D01*
X82103Y-137594D01*
X82034Y-137614D01*
X81974Y-137652D01*
X81909Y-137681D01*
X81854Y-137727D01*
X81794Y-137765D01*
X81746Y-137819D01*
X81692Y-137865D01*
X81652Y-137924D01*
X81605Y-137978D01*
X81574Y-138042D01*
X81535Y-138101D01*
X81513Y-138170D01*
X81482Y-138234D01*
X81470Y-138304D01*
X81449Y-138372D01*
X81447Y-138444D01*
X81435Y-138515D01*
X81443Y-138585D01*
X81441Y-138656D01*
X81460Y-138726D01*
X81468Y-138797D01*
X81493Y-138852D01*
X81513Y-138931D01*
X81574Y-139034D01*
X81605Y-139103D01*
X83605Y-142103D01*
X83682Y-142190D01*
X83755Y-142280D01*
X83777Y-142295D01*
X83795Y-142315D01*
X83892Y-142377D01*
X83987Y-142444D01*
X84013Y-142452D01*
X84035Y-142467D01*
X84146Y-142499D01*
X84256Y-142537D01*
X84283Y-142538D01*
X84308Y-142545D01*
X84424Y-142545D01*
X84540Y-142551D01*
X84566Y-142545D01*
G37*
D10*
X-129619Y149787D02*
X-129619Y140381D01*
X-124916Y140381D01*
X-123348Y141949D01*
X-123348Y148219D01*
X-124916Y149787D01*
X-129619Y149787D01*
X-120264Y140381D02*
X-117128Y140381D01*
X-118696Y140381D02*
X-118696Y149787D01*
X-120264Y149787D02*
X-117128Y149787D01*
X-129619Y124787D02*
X-129619Y118516D01*
X-126484Y115381D01*
X-123348Y118516D01*
X-123348Y124787D01*
X-115561Y124787D02*
X-113993Y123219D01*
X-115561Y124787D02*
X-118696Y124787D01*
X-120264Y123219D01*
X-120264Y116949D01*
X-118696Y115381D01*
X-115561Y115381D01*
X-113993Y116949D01*
X-106206Y124787D02*
X-104638Y123219D01*
X-106206Y124787D02*
X-109341Y124787D01*
X-110909Y123219D01*
X-110909Y116949D01*
X-109341Y115381D01*
X-106206Y115381D01*
X-104638Y116949D01*
X-123348Y162219D02*
X-124916Y163787D01*
X-128051Y163787D01*
X-129619Y162219D01*
X-129619Y155949D01*
X-128051Y154381D01*
X-124916Y154381D01*
X-123348Y155949D01*
X-123348Y159084D01*
X-126484Y159084D01*
X-120264Y154381D02*
X-120264Y163787D01*
X-113993Y154381D01*
X-113993Y163787D01*
X-110909Y163787D02*
X-110909Y154381D01*
X-106206Y154381D01*
X-104638Y155949D01*
X-104638Y162219D01*
X-106206Y163787D01*
X-110909Y163787D01*
X115084Y163787D02*
X116652Y162219D01*
X115084Y163787D02*
X111949Y163787D01*
X110381Y162219D01*
X110381Y155949D01*
X111949Y154381D01*
X115084Y154381D01*
X116652Y155949D01*
X116652Y159084D01*
X113516Y159084D01*
X119736Y154381D02*
X119736Y163787D01*
X126007Y154381D01*
X126007Y163787D01*
X129091Y163787D02*
X129091Y154381D01*
X133794Y154381D01*
X135362Y155949D01*
X135362Y162219D01*
X133794Y163787D01*
X129091Y163787D01*
X122381Y149787D02*
X122381Y140381D01*
X127084Y140381D01*
X128652Y141949D01*
X128652Y148219D01*
X127084Y149787D01*
X122381Y149787D01*
X131736Y140381D02*
X134872Y140381D01*
X133304Y140381D02*
X133304Y149787D01*
X131736Y149787D02*
X134872Y149787D01*
X106381Y122787D02*
X106381Y116516D01*
X109516Y113381D01*
X112652Y116516D01*
X112652Y122787D01*
X120439Y122787D02*
X122007Y121219D01*
X120439Y122787D02*
X117304Y122787D01*
X115736Y121219D01*
X115736Y114949D01*
X117304Y113381D01*
X120439Y113381D01*
X122007Y114949D01*
X129794Y122787D02*
X131362Y121219D01*
X129794Y122787D02*
X126659Y122787D01*
X125091Y121219D01*
X125091Y114949D01*
X126659Y113381D01*
X129794Y113381D01*
X131362Y114949D01*
D11*
X103142Y123920D02*
X91448Y123920D01*
X91448Y129767D01*
X93397Y131716D01*
X97295Y131716D01*
X99244Y129767D01*
X99244Y123920D01*
X99244Y127818D02*
X103142Y131716D01*
X95346Y135614D02*
X91448Y139512D01*
X103142Y139512D01*
X103142Y135614D02*
X103142Y143410D01*
X56052Y154730D02*
X44358Y154730D01*
X44358Y160577D01*
X46307Y162526D01*
X50205Y162526D01*
X52154Y160577D01*
X52154Y154730D01*
X52154Y158628D02*
X56052Y162526D01*
X56052Y166424D02*
X56052Y174220D01*
X56052Y166424D02*
X48256Y174220D01*
X46307Y174220D01*
X44358Y172271D01*
X44358Y168373D01*
X46307Y166424D01*
D12*
X112230Y-120690D02*
X112230Y-130850D01*
D10*
X108882Y-108801D02*
X107314Y-107233D01*
X104179Y-107233D01*
X102611Y-108801D01*
X102611Y-115071D01*
X104179Y-116639D01*
X107314Y-116639D01*
X108882Y-115071D01*
X116669Y-116639D02*
X116669Y-107233D01*
X111966Y-111936D01*
X118237Y-111936D01*
D11*
X-62880Y144188D02*
X-62880Y155882D01*
X-57033Y155882D01*
X-55084Y153933D01*
X-55084Y150035D01*
X-57033Y148086D01*
X-62880Y148086D01*
X-58982Y148086D02*
X-55084Y144188D01*
X-51186Y153933D02*
X-49237Y155882D01*
X-45339Y155882D01*
X-43390Y153933D01*
X-43390Y151984D01*
X-45339Y150035D01*
X-47288Y150035D01*
X-45339Y150035D02*
X-43390Y148086D01*
X-43390Y146137D01*
X-45339Y144188D01*
X-49237Y144188D01*
X-51186Y146137D01*
D13*
X-63500Y178298D03*
D11*
X-71708Y163748D02*
X-83402Y163748D01*
X-83402Y169595D01*
X-81453Y171544D01*
X-77555Y171544D01*
X-75606Y169595D01*
X-75606Y163748D01*
X-71708Y175442D02*
X-83402Y175442D01*
X-75606Y179340D02*
X-71708Y175442D01*
X-75606Y179340D02*
X-71708Y183238D01*
X-83402Y183238D01*
X-83402Y187136D02*
X-71708Y187136D01*
X-83402Y187136D02*
X-83402Y192983D01*
X-81453Y194932D01*
X-77555Y194932D01*
X-75606Y192983D01*
X-75606Y187136D01*
X-75606Y191034D02*
X-71708Y194932D01*
D13*
X82230Y180838D03*
D11*
X74022Y180288D02*
X62328Y180288D01*
X74022Y180288D02*
X74022Y188084D01*
D14*
X77510Y136160D02*
X77512Y136231D01*
X77518Y136302D01*
X77528Y136373D01*
X77542Y136443D01*
X77560Y136512D01*
X77581Y136579D01*
X77607Y136646D01*
X77636Y136711D01*
X77668Y136774D01*
X77705Y136836D01*
X77744Y136895D01*
X77787Y136952D01*
X77833Y137006D01*
X77882Y137058D01*
X77934Y137107D01*
X77988Y137153D01*
X78045Y137196D01*
X78104Y137235D01*
X78166Y137272D01*
X78229Y137304D01*
X78294Y137333D01*
X78361Y137359D01*
X78428Y137380D01*
X78497Y137398D01*
X78567Y137412D01*
X78638Y137422D01*
X78709Y137428D01*
X78780Y137430D01*
X78851Y137428D01*
X78922Y137422D01*
X78993Y137412D01*
X79063Y137398D01*
X79132Y137380D01*
X79199Y137359D01*
X79266Y137333D01*
X79331Y137304D01*
X79394Y137272D01*
X79456Y137235D01*
X79515Y137196D01*
X79572Y137153D01*
X79626Y137107D01*
X79678Y137058D01*
X79727Y137006D01*
X79773Y136952D01*
X79816Y136895D01*
X79855Y136836D01*
X79892Y136774D01*
X79924Y136711D01*
X79953Y136646D01*
X79979Y136579D01*
X80000Y136512D01*
X80018Y136443D01*
X80032Y136373D01*
X80042Y136302D01*
X80048Y136231D01*
X80050Y136160D01*
X80048Y136089D01*
X80042Y136018D01*
X80032Y135947D01*
X80018Y135877D01*
X80000Y135808D01*
X79979Y135741D01*
X79953Y135674D01*
X79924Y135609D01*
X79892Y135546D01*
X79855Y135484D01*
X79816Y135425D01*
X79773Y135368D01*
X79727Y135314D01*
X79678Y135262D01*
X79626Y135213D01*
X79572Y135167D01*
X79515Y135124D01*
X79456Y135085D01*
X79394Y135048D01*
X79331Y135016D01*
X79266Y134987D01*
X79199Y134961D01*
X79132Y134940D01*
X79063Y134922D01*
X78993Y134908D01*
X78922Y134898D01*
X78851Y134892D01*
X78780Y134890D01*
X78709Y134892D01*
X78638Y134898D01*
X78567Y134908D01*
X78497Y134922D01*
X78428Y134940D01*
X78361Y134961D01*
X78294Y134987D01*
X78229Y135016D01*
X78166Y135048D01*
X78104Y135085D01*
X78045Y135124D01*
X77988Y135167D01*
X77934Y135213D01*
X77882Y135262D01*
X77833Y135314D01*
X77787Y135368D01*
X77744Y135425D01*
X77705Y135484D01*
X77668Y135546D01*
X77636Y135609D01*
X77607Y135674D01*
X77581Y135741D01*
X77560Y135808D01*
X77542Y135877D01*
X77528Y135947D01*
X77518Y136018D01*
X77512Y136089D01*
X77510Y136160D01*
D15*
X76000Y60840D02*
X68000Y60840D01*
X76000Y60840D02*
X76000Y68840D01*
X12000Y60840D02*
X4000Y60840D01*
X4000Y68840D01*
X76000Y124840D02*
X76000Y132840D01*
X68000Y132840D01*
X4000Y132840D02*
X4000Y124840D01*
X4000Y132840D02*
X12000Y132840D01*
D16*
X20204Y41972D02*
X25628Y41972D01*
X22916Y41972D02*
X22916Y58242D01*
X20204Y58242D02*
X25628Y58242D01*
X39254Y58242D02*
X41965Y55530D01*
X39254Y58242D02*
X33830Y58242D01*
X31119Y55530D01*
X31119Y44684D01*
X33830Y41972D01*
X39254Y41972D01*
X41965Y44684D01*
X47490Y52819D02*
X52914Y58242D01*
X52914Y41972D01*
X58337Y41972D02*
X47490Y41972D01*
D17*
X-31500Y111656D02*
X-73500Y111656D01*
X-73500Y142164D02*
X-31500Y142164D01*
D10*
X154784Y-29403D02*
X156352Y-30971D01*
X154784Y-29403D02*
X151649Y-29403D01*
X150081Y-30971D01*
X150081Y-37241D01*
X151649Y-38809D01*
X154784Y-38809D01*
X156352Y-37241D01*
X162572Y-30971D02*
X165707Y-29403D01*
X162572Y-30971D02*
X159436Y-34106D01*
X159436Y-37241D01*
X161004Y-38809D01*
X164139Y-38809D01*
X165707Y-37241D01*
X165707Y-35674D01*
X164139Y-34106D01*
X159436Y-34106D01*
X95091Y65669D02*
X93524Y67237D01*
X90388Y67237D01*
X88821Y65669D01*
X88821Y59399D01*
X90388Y57831D01*
X93524Y57831D01*
X95091Y59399D01*
X98176Y67237D02*
X104447Y67237D01*
X104447Y65669D01*
X98176Y59399D01*
X98176Y57831D01*
D11*
X74952Y133468D02*
X63258Y133468D01*
X63258Y139315D01*
X65207Y141264D01*
X69105Y141264D01*
X71054Y139315D01*
X71054Y133468D01*
X71054Y137366D02*
X74952Y141264D01*
X63258Y145162D02*
X63258Y152958D01*
X63258Y145162D02*
X69105Y145162D01*
X67156Y149060D01*
X67156Y151009D01*
X69105Y152958D01*
X73003Y152958D01*
X74952Y151009D01*
X74952Y147111D01*
X73003Y145162D01*
D15*
X25000Y154780D02*
X17000Y154780D01*
X-17000Y154780D02*
X-25000Y154780D01*
X38000Y199780D02*
X38000Y208780D01*
X-38000Y208780D01*
X-38000Y199780D01*
D11*
X-10627Y153782D02*
X-8678Y151833D01*
X-10627Y153782D02*
X-14525Y153782D01*
X-16474Y151833D01*
X-16474Y144037D01*
X-14525Y142088D01*
X-10627Y142088D01*
X-8678Y144037D01*
X-4780Y142088D02*
X-4780Y153782D01*
X3016Y142088D01*
X3016Y153782D01*
X6914Y149884D02*
X10812Y153782D01*
X10812Y142088D01*
X6914Y142088D02*
X14710Y142088D01*
D17*
X7340Y-174620D02*
X52340Y-174620D01*
X-10160Y-139620D02*
X-10160Y-99620D01*
X-1660Y-99620D01*
X-1660Y-124620D01*
X12340Y-124620D01*
X47340Y-124620D02*
X61340Y-124620D01*
X61340Y-99620D01*
X69840Y-99620D01*
X69840Y-139620D01*
D11*
X8972Y-183218D02*
X8972Y-194912D01*
X8972Y-183218D02*
X14819Y-183218D01*
X16768Y-185167D01*
X16768Y-187116D01*
X14819Y-189065D01*
X16768Y-191014D01*
X16768Y-192963D01*
X14819Y-194912D01*
X8972Y-194912D01*
X8972Y-189065D02*
X14819Y-189065D01*
X20666Y-187116D02*
X20666Y-194912D01*
X20666Y-187116D02*
X24564Y-183218D01*
X28462Y-187116D01*
X28462Y-194912D01*
X28462Y-189065D02*
X20666Y-189065D01*
X36258Y-194912D02*
X36258Y-183218D01*
X32360Y-183218D02*
X40156Y-183218D01*
X47952Y-183218D02*
X47952Y-194912D01*
X44054Y-183218D02*
X51850Y-183218D01*
D17*
X77450Y-149270D02*
X77450Y-131810D01*
X91450Y-131810D02*
X91450Y-149270D01*
X84450Y-143540D02*
X80450Y-137540D01*
X88450Y-137540D01*
X84450Y-143540D01*
D18*
X84450Y-144540D03*
D19*
X74323Y-151413D02*
X70510Y-151413D01*
X74323Y-151413D02*
X74323Y-149506D01*
X73687Y-148871D01*
X71145Y-148871D01*
X70510Y-149506D01*
X70510Y-151413D01*
X71781Y-147671D02*
X70510Y-146400D01*
X74323Y-146400D01*
X74323Y-147671D02*
X74323Y-145129D01*
D17*
X-17770Y-147040D02*
X-17770Y-129580D01*
X-31770Y-129580D02*
X-31770Y-147040D01*
X-20770Y-141310D02*
X-24770Y-135310D01*
X-20770Y-141310D02*
X-28770Y-141310D01*
X-24770Y-135310D01*
D18*
X-24770Y-134310D03*
D19*
X-14646Y-134667D02*
X-10833Y-134667D01*
X-10833Y-132761D01*
X-11469Y-132125D01*
X-14011Y-132125D01*
X-14646Y-132761D01*
X-14646Y-134667D01*
X-10833Y-130925D02*
X-10833Y-128383D01*
X-10833Y-130925D02*
X-13375Y-128383D01*
X-14011Y-128383D01*
X-14646Y-129018D01*
X-14646Y-130290D01*
X-14011Y-130925D01*
D10*
X-44589Y-122979D02*
X-46157Y-124546D01*
X-46157Y-127682D01*
X-44589Y-129249D01*
X-38319Y-129249D01*
X-36751Y-127682D01*
X-36751Y-124546D01*
X-38319Y-122979D01*
X-46157Y-119894D02*
X-46157Y-113624D01*
X-46157Y-119894D02*
X-41454Y-119894D01*
X-43022Y-116759D01*
X-43022Y-115191D01*
X-41454Y-113624D01*
X-38319Y-113624D01*
X-36751Y-115191D01*
X-36751Y-118327D01*
X-38319Y-119894D01*
D12*
X34130Y-70010D02*
X34130Y-59850D01*
D10*
X30782Y-47961D02*
X29214Y-46393D01*
X26079Y-46393D01*
X24511Y-47961D01*
X24511Y-54231D01*
X26079Y-55799D01*
X29214Y-55799D01*
X30782Y-54231D01*
X33866Y-47961D02*
X35434Y-46393D01*
X38569Y-46393D01*
X40137Y-47961D01*
X40137Y-49528D01*
X38569Y-51096D01*
X40137Y-52664D01*
X40137Y-54231D01*
X38569Y-55799D01*
X35434Y-55799D01*
X33866Y-54231D01*
X33866Y-52664D01*
X35434Y-51096D01*
X33866Y-49528D01*
X33866Y-47961D01*
X35434Y-51096D02*
X38569Y-51096D01*
D17*
X-7446Y110052D02*
X-16638Y119244D01*
X-42094Y93788D02*
X-32902Y84596D01*
D19*
X-42283Y107041D02*
X-42733Y107490D01*
X-42283Y107041D02*
X-40486Y107041D01*
X-40486Y108838D01*
X-40935Y109288D01*
X-40486Y107041D02*
X-39138Y105692D01*
X-39188Y109237D02*
X-39188Y111035D01*
X-36492Y108338D01*
X-37390Y107440D02*
X-35593Y109237D01*
D17*
X81100Y-43650D02*
X147100Y-43650D01*
X147100Y16350D02*
X81100Y16350D01*
X147100Y-1650D02*
X147100Y-25650D01*
X81100Y-25650D02*
X81100Y-1650D01*
X99067Y-13650D02*
X99072Y-13281D01*
X99085Y-12912D01*
X99108Y-12544D01*
X99139Y-12177D01*
X99180Y-11810D01*
X99230Y-11444D01*
X99288Y-11080D01*
X99356Y-10717D01*
X99432Y-10356D01*
X99518Y-9997D01*
X99612Y-9641D01*
X99714Y-9286D01*
X99826Y-8934D01*
X99946Y-8586D01*
X100074Y-8240D01*
X100211Y-7897D01*
X100357Y-7558D01*
X100510Y-7223D01*
X100672Y-6891D01*
X100842Y-6563D01*
X101020Y-6240D01*
X101206Y-5921D01*
X101399Y-5607D01*
X101601Y-5298D01*
X101809Y-4994D01*
X102025Y-4695D01*
X102249Y-4401D01*
X102479Y-4113D01*
X102717Y-3831D01*
X102961Y-3554D01*
X103212Y-3284D01*
X103470Y-3020D01*
X103734Y-2762D01*
X104004Y-2511D01*
X104281Y-2267D01*
X104563Y-2029D01*
X104851Y-1799D01*
X105145Y-1575D01*
X105444Y-1359D01*
X105748Y-1151D01*
X106057Y-949D01*
X106371Y-756D01*
X106690Y-570D01*
X107013Y-392D01*
X107341Y-222D01*
X107673Y-60D01*
X108008Y93D01*
X108347Y239D01*
X108690Y376D01*
X109036Y504D01*
X109384Y624D01*
X109736Y736D01*
X110091Y838D01*
X110447Y932D01*
X110806Y1018D01*
X111167Y1094D01*
X111530Y1162D01*
X111894Y1220D01*
X112260Y1270D01*
X112627Y1311D01*
X112994Y1342D01*
X113362Y1365D01*
X113731Y1378D01*
X114100Y1383D01*
X114469Y1378D01*
X114838Y1365D01*
X115206Y1342D01*
X115573Y1311D01*
X115940Y1270D01*
X116306Y1220D01*
X116670Y1162D01*
X117033Y1094D01*
X117394Y1018D01*
X117753Y932D01*
X118109Y838D01*
X118464Y736D01*
X118816Y624D01*
X119164Y504D01*
X119510Y376D01*
X119853Y239D01*
X120192Y93D01*
X120527Y-60D01*
X120859Y-222D01*
X121187Y-392D01*
X121510Y-570D01*
X121829Y-756D01*
X122143Y-949D01*
X122452Y-1151D01*
X122756Y-1359D01*
X123055Y-1575D01*
X123349Y-1799D01*
X123637Y-2029D01*
X123919Y-2267D01*
X124196Y-2511D01*
X124466Y-2762D01*
X124730Y-3020D01*
X124988Y-3284D01*
X125239Y-3554D01*
X125483Y-3831D01*
X125721Y-4113D01*
X125951Y-4401D01*
X126175Y-4695D01*
X126391Y-4994D01*
X126599Y-5298D01*
X126801Y-5607D01*
X126994Y-5921D01*
X127180Y-6240D01*
X127358Y-6563D01*
X127528Y-6891D01*
X127690Y-7223D01*
X127843Y-7558D01*
X127989Y-7897D01*
X128126Y-8240D01*
X128254Y-8586D01*
X128374Y-8934D01*
X128486Y-9286D01*
X128588Y-9641D01*
X128682Y-9997D01*
X128768Y-10356D01*
X128844Y-10717D01*
X128912Y-11080D01*
X128970Y-11444D01*
X129020Y-11810D01*
X129061Y-12177D01*
X129092Y-12544D01*
X129115Y-12912D01*
X129128Y-13281D01*
X129133Y-13650D01*
X129128Y-14019D01*
X129115Y-14388D01*
X129092Y-14756D01*
X129061Y-15123D01*
X129020Y-15490D01*
X128970Y-15856D01*
X128912Y-16220D01*
X128844Y-16583D01*
X128768Y-16944D01*
X128682Y-17303D01*
X128588Y-17659D01*
X128486Y-18014D01*
X128374Y-18366D01*
X128254Y-18714D01*
X128126Y-19060D01*
X127989Y-19403D01*
X127843Y-19742D01*
X127690Y-20077D01*
X127528Y-20409D01*
X127358Y-20737D01*
X127180Y-21060D01*
X126994Y-21379D01*
X126801Y-21693D01*
X126599Y-22002D01*
X126391Y-22306D01*
X126175Y-22605D01*
X125951Y-22899D01*
X125721Y-23187D01*
X125483Y-23469D01*
X125239Y-23746D01*
X124988Y-24016D01*
X124730Y-24280D01*
X124466Y-24538D01*
X124196Y-24789D01*
X123919Y-25033D01*
X123637Y-25271D01*
X123349Y-25501D01*
X123055Y-25725D01*
X122756Y-25941D01*
X122452Y-26149D01*
X122143Y-26351D01*
X121829Y-26544D01*
X121510Y-26730D01*
X121187Y-26908D01*
X120859Y-27078D01*
X120527Y-27240D01*
X120192Y-27393D01*
X119853Y-27539D01*
X119510Y-27676D01*
X119164Y-27804D01*
X118816Y-27924D01*
X118464Y-28036D01*
X118109Y-28138D01*
X117753Y-28232D01*
X117394Y-28318D01*
X117033Y-28394D01*
X116670Y-28462D01*
X116306Y-28520D01*
X115940Y-28570D01*
X115573Y-28611D01*
X115206Y-28642D01*
X114838Y-28665D01*
X114469Y-28678D01*
X114100Y-28683D01*
X113731Y-28678D01*
X113362Y-28665D01*
X112994Y-28642D01*
X112627Y-28611D01*
X112260Y-28570D01*
X111894Y-28520D01*
X111530Y-28462D01*
X111167Y-28394D01*
X110806Y-28318D01*
X110447Y-28232D01*
X110091Y-28138D01*
X109736Y-28036D01*
X109384Y-27924D01*
X109036Y-27804D01*
X108690Y-27676D01*
X108347Y-27539D01*
X108008Y-27393D01*
X107673Y-27240D01*
X107341Y-27078D01*
X107013Y-26908D01*
X106690Y-26730D01*
X106371Y-26544D01*
X106057Y-26351D01*
X105748Y-26149D01*
X105444Y-25941D01*
X105145Y-25725D01*
X104851Y-25501D01*
X104563Y-25271D01*
X104281Y-25033D01*
X104004Y-24789D01*
X103734Y-24538D01*
X103470Y-24280D01*
X103212Y-24016D01*
X102961Y-23746D01*
X102717Y-23469D01*
X102479Y-23187D01*
X102249Y-22899D01*
X102025Y-22605D01*
X101809Y-22306D01*
X101601Y-22002D01*
X101399Y-21693D01*
X101206Y-21379D01*
X101020Y-21060D01*
X100842Y-20737D01*
X100672Y-20409D01*
X100510Y-20077D01*
X100357Y-19742D01*
X100211Y-19403D01*
X100074Y-19060D01*
X99946Y-18714D01*
X99826Y-18366D01*
X99714Y-18014D01*
X99612Y-17659D01*
X99518Y-17303D01*
X99432Y-16944D01*
X99356Y-16583D01*
X99288Y-16220D01*
X99230Y-15856D01*
X99180Y-15490D01*
X99139Y-15123D01*
X99108Y-14756D01*
X99085Y-14388D01*
X99072Y-14019D01*
X99067Y-13650D01*
X104100Y-13650D02*
X104103Y-13405D01*
X104112Y-13159D01*
X104127Y-12914D01*
X104148Y-12670D01*
X104175Y-12426D01*
X104208Y-12183D01*
X104247Y-11940D01*
X104292Y-11699D01*
X104343Y-11459D01*
X104400Y-11220D01*
X104462Y-10983D01*
X104531Y-10747D01*
X104605Y-10513D01*
X104685Y-10281D01*
X104770Y-10051D01*
X104861Y-9823D01*
X104958Y-9598D01*
X105060Y-9374D01*
X105168Y-9154D01*
X105281Y-8936D01*
X105399Y-8721D01*
X105523Y-8509D01*
X105651Y-8300D01*
X105785Y-8094D01*
X105924Y-7892D01*
X106068Y-7693D01*
X106217Y-7498D01*
X106370Y-7306D01*
X106528Y-7118D01*
X106690Y-6934D01*
X106858Y-6755D01*
X107029Y-6579D01*
X107205Y-6408D01*
X107384Y-6240D01*
X107568Y-6078D01*
X107756Y-5920D01*
X107948Y-5767D01*
X108143Y-5618D01*
X108342Y-5474D01*
X108544Y-5335D01*
X108750Y-5201D01*
X108959Y-5073D01*
X109171Y-4949D01*
X109386Y-4831D01*
X109604Y-4718D01*
X109824Y-4610D01*
X110048Y-4508D01*
X110273Y-4411D01*
X110501Y-4320D01*
X110731Y-4235D01*
X110963Y-4155D01*
X111197Y-4081D01*
X111433Y-4012D01*
X111670Y-3950D01*
X111909Y-3893D01*
X112149Y-3842D01*
X112390Y-3797D01*
X112633Y-3758D01*
X112876Y-3725D01*
X113120Y-3698D01*
X113364Y-3677D01*
X113609Y-3662D01*
X113855Y-3653D01*
X114100Y-3650D01*
X114345Y-3653D01*
X114591Y-3662D01*
X114836Y-3677D01*
X115080Y-3698D01*
X115324Y-3725D01*
X115567Y-3758D01*
X115810Y-3797D01*
X116051Y-3842D01*
X116291Y-3893D01*
X116530Y-3950D01*
X116767Y-4012D01*
X117003Y-4081D01*
X117237Y-4155D01*
X117469Y-4235D01*
X117699Y-4320D01*
X117927Y-4411D01*
X118152Y-4508D01*
X118376Y-4610D01*
X118596Y-4718D01*
X118814Y-4831D01*
X119029Y-4949D01*
X119241Y-5073D01*
X119450Y-5201D01*
X119656Y-5335D01*
X119858Y-5474D01*
X120057Y-5618D01*
X120252Y-5767D01*
X120444Y-5920D01*
X120632Y-6078D01*
X120816Y-6240D01*
X120995Y-6408D01*
X121171Y-6579D01*
X121342Y-6755D01*
X121510Y-6934D01*
X121672Y-7118D01*
X121830Y-7306D01*
X121983Y-7498D01*
X122132Y-7693D01*
X122276Y-7892D01*
X122415Y-8094D01*
X122549Y-8300D01*
X122677Y-8509D01*
X122801Y-8721D01*
X122919Y-8936D01*
X123032Y-9154D01*
X123140Y-9374D01*
X123242Y-9598D01*
X123339Y-9823D01*
X123430Y-10051D01*
X123515Y-10281D01*
X123595Y-10513D01*
X123669Y-10747D01*
X123738Y-10983D01*
X123800Y-11220D01*
X123857Y-11459D01*
X123908Y-11699D01*
X123953Y-11940D01*
X123992Y-12183D01*
X124025Y-12426D01*
X124052Y-12670D01*
X124073Y-12914D01*
X124088Y-13159D01*
X124097Y-13405D01*
X124100Y-13650D01*
X124097Y-13895D01*
X124088Y-14141D01*
X124073Y-14386D01*
X124052Y-14630D01*
X124025Y-14874D01*
X123992Y-15117D01*
X123953Y-15360D01*
X123908Y-15601D01*
X123857Y-15841D01*
X123800Y-16080D01*
X123738Y-16317D01*
X123669Y-16553D01*
X123595Y-16787D01*
X123515Y-17019D01*
X123430Y-17249D01*
X123339Y-17477D01*
X123242Y-17702D01*
X123140Y-17926D01*
X123032Y-18146D01*
X122919Y-18364D01*
X122801Y-18579D01*
X122677Y-18791D01*
X122549Y-19000D01*
X122415Y-19206D01*
X122276Y-19408D01*
X122132Y-19607D01*
X121983Y-19802D01*
X121830Y-19994D01*
X121672Y-20182D01*
X121510Y-20366D01*
X121342Y-20545D01*
X121171Y-20721D01*
X120995Y-20892D01*
X120816Y-21060D01*
X120632Y-21222D01*
X120444Y-21380D01*
X120252Y-21533D01*
X120057Y-21682D01*
X119858Y-21826D01*
X119656Y-21965D01*
X119450Y-22099D01*
X119241Y-22227D01*
X119029Y-22351D01*
X118814Y-22469D01*
X118596Y-22582D01*
X118376Y-22690D01*
X118152Y-22792D01*
X117927Y-22889D01*
X117699Y-22980D01*
X117469Y-23065D01*
X117237Y-23145D01*
X117003Y-23219D01*
X116767Y-23288D01*
X116530Y-23350D01*
X116291Y-23407D01*
X116051Y-23458D01*
X115810Y-23503D01*
X115567Y-23542D01*
X115324Y-23575D01*
X115080Y-23602D01*
X114836Y-23623D01*
X114591Y-23638D01*
X114345Y-23647D01*
X114100Y-23650D01*
X113855Y-23647D01*
X113609Y-23638D01*
X113364Y-23623D01*
X113120Y-23602D01*
X112876Y-23575D01*
X112633Y-23542D01*
X112390Y-23503D01*
X112149Y-23458D01*
X111909Y-23407D01*
X111670Y-23350D01*
X111433Y-23288D01*
X111197Y-23219D01*
X110963Y-23145D01*
X110731Y-23065D01*
X110501Y-22980D01*
X110273Y-22889D01*
X110048Y-22792D01*
X109824Y-22690D01*
X109604Y-22582D01*
X109386Y-22469D01*
X109171Y-22351D01*
X108959Y-22227D01*
X108750Y-22099D01*
X108544Y-21965D01*
X108342Y-21826D01*
X108143Y-21682D01*
X107948Y-21533D01*
X107756Y-21380D01*
X107568Y-21222D01*
X107384Y-21060D01*
X107205Y-20892D01*
X107029Y-20721D01*
X106858Y-20545D01*
X106690Y-20366D01*
X106528Y-20182D01*
X106370Y-19994D01*
X106217Y-19802D01*
X106068Y-19607D01*
X105924Y-19408D01*
X105785Y-19206D01*
X105651Y-19000D01*
X105523Y-18791D01*
X105399Y-18579D01*
X105281Y-18364D01*
X105168Y-18146D01*
X105060Y-17926D01*
X104958Y-17702D01*
X104861Y-17477D01*
X104770Y-17249D01*
X104685Y-17019D01*
X104605Y-16787D01*
X104531Y-16553D01*
X104462Y-16317D01*
X104400Y-16080D01*
X104343Y-15841D01*
X104292Y-15601D01*
X104247Y-15360D01*
X104208Y-15117D01*
X104175Y-14874D01*
X104148Y-14630D01*
X104127Y-14386D01*
X104112Y-14141D01*
X104103Y-13895D01*
X104100Y-13650D01*
D16*
X127464Y-49406D02*
X128566Y-50508D01*
X127464Y-49406D02*
X125261Y-49406D01*
X124160Y-50508D01*
X124160Y-51610D01*
X125261Y-52711D01*
X127464Y-52711D01*
X128566Y-53813D01*
X128566Y-54914D01*
X127464Y-56016D01*
X125261Y-56016D01*
X124160Y-54914D01*
X131644Y-56016D02*
X131644Y-49406D01*
X133847Y-53813D02*
X131644Y-56016D01*
X133847Y-53813D02*
X136050Y-56016D01*
X136050Y-49406D01*
X139128Y-56016D02*
X143534Y-56016D01*
X139128Y-56016D02*
X143534Y-51610D01*
X143534Y-50508D01*
X142433Y-49406D01*
X140229Y-49406D01*
X139128Y-50508D01*
D17*
X57000Y-11000D02*
X57000Y-3000D01*
X53500Y-3000D01*
X23000Y-3000D02*
X23000Y-11000D01*
X23000Y-3000D02*
X26500Y-3000D01*
X26500Y-37000D02*
X23000Y-37000D01*
X23000Y-29000D01*
X57000Y-29000D02*
X57000Y-37000D01*
X53500Y-37000D01*
D14*
X54500Y2500D02*
X54502Y2563D01*
X54508Y2625D01*
X54518Y2687D01*
X54531Y2749D01*
X54549Y2809D01*
X54570Y2868D01*
X54595Y2926D01*
X54624Y2982D01*
X54656Y3036D01*
X54691Y3088D01*
X54729Y3137D01*
X54771Y3185D01*
X54815Y3229D01*
X54863Y3271D01*
X54912Y3309D01*
X54964Y3344D01*
X55018Y3376D01*
X55074Y3405D01*
X55132Y3430D01*
X55191Y3451D01*
X55251Y3469D01*
X55313Y3482D01*
X55375Y3492D01*
X55437Y3498D01*
X55500Y3500D01*
X55563Y3498D01*
X55625Y3492D01*
X55687Y3482D01*
X55749Y3469D01*
X55809Y3451D01*
X55868Y3430D01*
X55926Y3405D01*
X55982Y3376D01*
X56036Y3344D01*
X56088Y3309D01*
X56137Y3271D01*
X56185Y3229D01*
X56229Y3185D01*
X56271Y3137D01*
X56309Y3088D01*
X56344Y3036D01*
X56376Y2982D01*
X56405Y2926D01*
X56430Y2868D01*
X56451Y2809D01*
X56469Y2749D01*
X56482Y2687D01*
X56492Y2625D01*
X56498Y2563D01*
X56500Y2500D01*
X56498Y2437D01*
X56492Y2375D01*
X56482Y2313D01*
X56469Y2251D01*
X56451Y2191D01*
X56430Y2132D01*
X56405Y2074D01*
X56376Y2018D01*
X56344Y1964D01*
X56309Y1912D01*
X56271Y1863D01*
X56229Y1815D01*
X56185Y1771D01*
X56137Y1729D01*
X56088Y1691D01*
X56036Y1656D01*
X55982Y1624D01*
X55926Y1595D01*
X55868Y1570D01*
X55809Y1549D01*
X55749Y1531D01*
X55687Y1518D01*
X55625Y1508D01*
X55563Y1502D01*
X55500Y1500D01*
X55437Y1502D01*
X55375Y1508D01*
X55313Y1518D01*
X55251Y1531D01*
X55191Y1549D01*
X55132Y1570D01*
X55074Y1595D01*
X55018Y1624D01*
X54964Y1656D01*
X54912Y1691D01*
X54863Y1729D01*
X54815Y1771D01*
X54771Y1815D01*
X54729Y1863D01*
X54691Y1912D01*
X54656Y1964D01*
X54624Y2018D01*
X54595Y2074D01*
X54570Y2132D01*
X54549Y2191D01*
X54531Y2251D01*
X54518Y2313D01*
X54508Y2375D01*
X54502Y2437D01*
X54500Y2500D01*
D16*
X68366Y-19993D02*
X68366Y-22196D01*
X68366Y-21094D02*
X61756Y-21094D01*
X61756Y-19993D02*
X61756Y-22196D01*
X61756Y-13902D02*
X62858Y-12800D01*
X61756Y-13902D02*
X61756Y-16105D01*
X62858Y-17206D01*
X67264Y-17206D01*
X68366Y-16105D01*
X68366Y-13902D01*
X67264Y-12800D01*
X68366Y-6417D02*
X61756Y-6417D01*
X65061Y-9722D01*
X65061Y-5316D01*
D15*
X94280Y-88550D02*
X94280Y-115550D01*
X94280Y-88550D02*
X128280Y-88550D01*
X128280Y-116550D01*
X94280Y-116550D01*
X94280Y-115550D01*
D16*
X90156Y-115788D02*
X84648Y-115788D01*
X90156Y-115788D02*
X91258Y-114686D01*
X91258Y-112483D01*
X90156Y-111382D01*
X84648Y-111382D01*
X86852Y-108304D02*
X84648Y-106101D01*
X91258Y-106101D01*
X91258Y-108304D02*
X91258Y-103897D01*
X78508Y-76893D02*
X79610Y-75792D01*
X78508Y-76893D02*
X78508Y-79096D01*
X79610Y-80198D01*
X84016Y-80198D01*
X85118Y-79096D01*
X85118Y-76893D01*
X84016Y-75792D01*
X80712Y-72714D02*
X78508Y-70511D01*
X85118Y-70511D01*
X85118Y-72714D02*
X85118Y-68307D01*
X154536Y25250D02*
X161146Y25250D01*
X154536Y25250D02*
X154536Y28554D01*
X155638Y29656D01*
X157841Y29656D01*
X158943Y28554D01*
X158943Y25250D01*
X158943Y27453D02*
X161146Y29656D01*
X156740Y32734D02*
X154536Y34937D01*
X161146Y34937D01*
X161146Y32734D02*
X161146Y37140D01*
X155638Y40218D02*
X154536Y41319D01*
X154536Y43523D01*
X155638Y44624D01*
X156740Y44624D01*
X157841Y43523D01*
X157841Y42421D01*
X157841Y43523D02*
X158943Y44624D01*
X160044Y44624D01*
X161146Y43523D01*
X161146Y41319D01*
X160044Y40218D01*
X91000Y30204D02*
X91000Y23594D01*
X91000Y30204D02*
X94304Y30204D01*
X95406Y29102D01*
X95406Y26899D01*
X94304Y25797D01*
X91000Y25797D01*
X93203Y25797D02*
X95406Y23594D01*
X98484Y23594D02*
X102890Y23594D01*
X98484Y23594D02*
X102890Y28000D01*
X102890Y29102D01*
X101789Y30204D01*
X99585Y30204D01*
X98484Y29102D01*
X105968Y23594D02*
X110374Y23594D01*
X105968Y23594D02*
X110374Y28000D01*
X110374Y29102D01*
X109273Y30204D01*
X107069Y30204D01*
X105968Y29102D01*
X-31928Y55222D02*
X-31928Y61832D01*
X-28623Y61832D01*
X-27522Y60730D01*
X-27522Y58527D01*
X-28623Y57425D01*
X-31928Y57425D01*
X-29725Y57425D02*
X-27522Y55222D01*
X-24444Y59628D02*
X-22241Y61832D01*
X-22241Y55222D01*
X-24444Y55222D02*
X-20037Y55222D01*
X-16960Y61832D02*
X-12553Y61832D01*
X-16960Y61832D02*
X-16960Y58527D01*
X-14757Y59628D01*
X-13655Y59628D01*
X-12553Y58527D01*
X-12553Y56324D01*
X-13655Y55222D01*
X-15858Y55222D01*
X-16960Y56324D01*
D17*
X-23490Y-68040D02*
X-23490Y-84040D01*
X9510Y-84040D02*
X9510Y-68040D01*
X-2990Y-65540D02*
X-10990Y-65540D01*
D16*
X11552Y-73668D02*
X11552Y-79176D01*
X12654Y-80278D01*
X14857Y-80278D01*
X15958Y-79176D01*
X15958Y-73668D01*
X19036Y-74770D02*
X20138Y-73668D01*
X22341Y-73668D01*
X23443Y-74770D01*
X23443Y-75872D01*
X22341Y-76973D01*
X21239Y-76973D01*
X22341Y-76973D02*
X23443Y-78075D01*
X23443Y-79176D01*
X22341Y-80278D01*
X20138Y-80278D01*
X19036Y-79176D01*
D12*
X76671Y-112710D02*
X84608Y-112710D01*
D17*
X72823Y-112710D02*
X72825Y-112518D01*
X72832Y-112326D01*
X72844Y-112135D01*
X72861Y-111944D01*
X72882Y-111753D01*
X72908Y-111563D01*
X72938Y-111374D01*
X72973Y-111185D01*
X73013Y-110997D01*
X73057Y-110811D01*
X73106Y-110625D01*
X73160Y-110441D01*
X73218Y-110258D01*
X73280Y-110077D01*
X73347Y-109897D01*
X73418Y-109719D01*
X73494Y-109542D01*
X73574Y-109368D01*
X73658Y-109195D01*
X73746Y-109025D01*
X73839Y-108857D01*
X73935Y-108691D01*
X74036Y-108528D01*
X74140Y-108367D01*
X74249Y-108209D01*
X74361Y-108053D01*
X74477Y-107901D01*
X74597Y-107751D01*
X74721Y-107604D01*
X74848Y-107460D01*
X74979Y-107320D01*
X75113Y-107183D01*
X75250Y-107049D01*
X75390Y-106918D01*
X75534Y-106791D01*
X75681Y-106667D01*
X75831Y-106547D01*
X75983Y-106431D01*
X76139Y-106319D01*
X76297Y-106210D01*
X76458Y-106106D01*
X76621Y-106005D01*
X76787Y-105909D01*
X76955Y-105816D01*
X77125Y-105728D01*
X77298Y-105644D01*
X77472Y-105564D01*
X77649Y-105488D01*
X77827Y-105417D01*
X78007Y-105350D01*
X78188Y-105288D01*
X78371Y-105230D01*
X78555Y-105176D01*
X78741Y-105127D01*
X78927Y-105083D01*
X79115Y-105043D01*
X79304Y-105008D01*
X79493Y-104978D01*
X79683Y-104952D01*
X79874Y-104931D01*
X80065Y-104914D01*
X80256Y-104902D01*
X80448Y-104895D01*
X80640Y-104893D01*
X80832Y-104895D01*
X81024Y-104902D01*
X81215Y-104914D01*
X81406Y-104931D01*
X81597Y-104952D01*
X81787Y-104978D01*
X81976Y-105008D01*
X82165Y-105043D01*
X82353Y-105083D01*
X82539Y-105127D01*
X82725Y-105176D01*
X82909Y-105230D01*
X83092Y-105288D01*
X83273Y-105350D01*
X83453Y-105417D01*
X83631Y-105488D01*
X83808Y-105564D01*
X83982Y-105644D01*
X84155Y-105728D01*
X84325Y-105816D01*
X84493Y-105909D01*
X84659Y-106005D01*
X84822Y-106106D01*
X84983Y-106210D01*
X85141Y-106319D01*
X85297Y-106431D01*
X85449Y-106547D01*
X85599Y-106667D01*
X85746Y-106791D01*
X85890Y-106918D01*
X86030Y-107049D01*
X86167Y-107183D01*
X86301Y-107320D01*
X86432Y-107460D01*
X86559Y-107604D01*
X86683Y-107751D01*
X86803Y-107901D01*
X86919Y-108053D01*
X87031Y-108209D01*
X87140Y-108367D01*
X87244Y-108528D01*
X87345Y-108691D01*
X87441Y-108857D01*
X87534Y-109025D01*
X87622Y-109195D01*
X87706Y-109368D01*
X87786Y-109542D01*
X87862Y-109719D01*
X87933Y-109897D01*
X88000Y-110077D01*
X88062Y-110258D01*
X88120Y-110441D01*
X88174Y-110625D01*
X88223Y-110811D01*
X88267Y-110997D01*
X88307Y-111185D01*
X88342Y-111374D01*
X88372Y-111563D01*
X88398Y-111753D01*
X88419Y-111944D01*
X88436Y-112135D01*
X88448Y-112326D01*
X88455Y-112518D01*
X88457Y-112710D01*
X88455Y-112902D01*
X88448Y-113094D01*
X88436Y-113285D01*
X88419Y-113476D01*
X88398Y-113667D01*
X88372Y-113857D01*
X88342Y-114046D01*
X88307Y-114235D01*
X88267Y-114423D01*
X88223Y-114609D01*
X88174Y-114795D01*
X88120Y-114979D01*
X88062Y-115162D01*
X88000Y-115343D01*
X87933Y-115523D01*
X87862Y-115701D01*
X87786Y-115878D01*
X87706Y-116052D01*
X87622Y-116225D01*
X87534Y-116395D01*
X87441Y-116563D01*
X87345Y-116729D01*
X87244Y-116892D01*
X87140Y-117053D01*
X87031Y-117211D01*
X86919Y-117367D01*
X86803Y-117519D01*
X86683Y-117669D01*
X86559Y-117816D01*
X86432Y-117960D01*
X86301Y-118100D01*
X86167Y-118237D01*
X86030Y-118371D01*
X85890Y-118502D01*
X85746Y-118629D01*
X85599Y-118753D01*
X85449Y-118873D01*
X85297Y-118989D01*
X85141Y-119101D01*
X84983Y-119210D01*
X84822Y-119314D01*
X84659Y-119415D01*
X84493Y-119511D01*
X84325Y-119604D01*
X84155Y-119692D01*
X83982Y-119776D01*
X83808Y-119856D01*
X83631Y-119932D01*
X83453Y-120003D01*
X83273Y-120070D01*
X83092Y-120132D01*
X82909Y-120190D01*
X82725Y-120244D01*
X82539Y-120293D01*
X82353Y-120337D01*
X82165Y-120377D01*
X81976Y-120412D01*
X81787Y-120442D01*
X81597Y-120468D01*
X81406Y-120489D01*
X81215Y-120506D01*
X81024Y-120518D01*
X80832Y-120525D01*
X80640Y-120527D01*
X80448Y-120525D01*
X80256Y-120518D01*
X80065Y-120506D01*
X79874Y-120489D01*
X79683Y-120468D01*
X79493Y-120442D01*
X79304Y-120412D01*
X79115Y-120377D01*
X78927Y-120337D01*
X78741Y-120293D01*
X78555Y-120244D01*
X78371Y-120190D01*
X78188Y-120132D01*
X78007Y-120070D01*
X77827Y-120003D01*
X77649Y-119932D01*
X77472Y-119856D01*
X77298Y-119776D01*
X77125Y-119692D01*
X76955Y-119604D01*
X76787Y-119511D01*
X76621Y-119415D01*
X76458Y-119314D01*
X76297Y-119210D01*
X76139Y-119101D01*
X75983Y-118989D01*
X75831Y-118873D01*
X75681Y-118753D01*
X75534Y-118629D01*
X75390Y-118502D01*
X75250Y-118371D01*
X75113Y-118237D01*
X74979Y-118100D01*
X74848Y-117960D01*
X74721Y-117816D01*
X74597Y-117669D01*
X74477Y-117519D01*
X74361Y-117367D01*
X74249Y-117211D01*
X74140Y-117053D01*
X74036Y-116892D01*
X73935Y-116729D01*
X73839Y-116563D01*
X73746Y-116395D01*
X73658Y-116225D01*
X73574Y-116052D01*
X73494Y-115878D01*
X73418Y-115701D01*
X73347Y-115523D01*
X73280Y-115343D01*
X73218Y-115162D01*
X73160Y-114979D01*
X73106Y-114795D01*
X73057Y-114609D01*
X73013Y-114423D01*
X72973Y-114235D01*
X72938Y-114046D01*
X72908Y-113857D01*
X72882Y-113667D01*
X72861Y-113476D01*
X72844Y-113285D01*
X72832Y-113094D01*
X72825Y-112902D01*
X72823Y-112710D01*
D12*
X-16992Y-105250D02*
X-24929Y-105250D01*
X-20960Y-101282D02*
X-20960Y-109218D01*
D17*
X-28777Y-105250D02*
X-28775Y-105058D01*
X-28768Y-104866D01*
X-28756Y-104675D01*
X-28739Y-104484D01*
X-28718Y-104293D01*
X-28692Y-104103D01*
X-28662Y-103914D01*
X-28627Y-103725D01*
X-28587Y-103537D01*
X-28543Y-103351D01*
X-28494Y-103165D01*
X-28440Y-102981D01*
X-28382Y-102798D01*
X-28320Y-102617D01*
X-28253Y-102437D01*
X-28182Y-102259D01*
X-28106Y-102082D01*
X-28026Y-101908D01*
X-27942Y-101735D01*
X-27854Y-101565D01*
X-27761Y-101397D01*
X-27665Y-101231D01*
X-27564Y-101068D01*
X-27460Y-100907D01*
X-27351Y-100749D01*
X-27239Y-100593D01*
X-27123Y-100441D01*
X-27003Y-100291D01*
X-26879Y-100144D01*
X-26752Y-100000D01*
X-26621Y-99860D01*
X-26487Y-99723D01*
X-26350Y-99589D01*
X-26210Y-99458D01*
X-26066Y-99331D01*
X-25919Y-99207D01*
X-25769Y-99087D01*
X-25617Y-98971D01*
X-25461Y-98859D01*
X-25303Y-98750D01*
X-25142Y-98646D01*
X-24979Y-98545D01*
X-24813Y-98449D01*
X-24645Y-98356D01*
X-24475Y-98268D01*
X-24302Y-98184D01*
X-24128Y-98104D01*
X-23951Y-98028D01*
X-23773Y-97957D01*
X-23593Y-97890D01*
X-23412Y-97828D01*
X-23229Y-97770D01*
X-23045Y-97716D01*
X-22859Y-97667D01*
X-22673Y-97623D01*
X-22485Y-97583D01*
X-22296Y-97548D01*
X-22107Y-97518D01*
X-21917Y-97492D01*
X-21726Y-97471D01*
X-21535Y-97454D01*
X-21344Y-97442D01*
X-21152Y-97435D01*
X-20960Y-97433D01*
X-20768Y-97435D01*
X-20576Y-97442D01*
X-20385Y-97454D01*
X-20194Y-97471D01*
X-20003Y-97492D01*
X-19813Y-97518D01*
X-19624Y-97548D01*
X-19435Y-97583D01*
X-19247Y-97623D01*
X-19061Y-97667D01*
X-18875Y-97716D01*
X-18691Y-97770D01*
X-18508Y-97828D01*
X-18327Y-97890D01*
X-18147Y-97957D01*
X-17969Y-98028D01*
X-17792Y-98104D01*
X-17618Y-98184D01*
X-17445Y-98268D01*
X-17275Y-98356D01*
X-17107Y-98449D01*
X-16941Y-98545D01*
X-16778Y-98646D01*
X-16617Y-98750D01*
X-16459Y-98859D01*
X-16303Y-98971D01*
X-16151Y-99087D01*
X-16001Y-99207D01*
X-15854Y-99331D01*
X-15710Y-99458D01*
X-15570Y-99589D01*
X-15433Y-99723D01*
X-15299Y-99860D01*
X-15168Y-100000D01*
X-15041Y-100144D01*
X-14917Y-100291D01*
X-14797Y-100441D01*
X-14681Y-100593D01*
X-14569Y-100749D01*
X-14460Y-100907D01*
X-14356Y-101068D01*
X-14255Y-101231D01*
X-14159Y-101397D01*
X-14066Y-101565D01*
X-13978Y-101735D01*
X-13894Y-101908D01*
X-13814Y-102082D01*
X-13738Y-102259D01*
X-13667Y-102437D01*
X-13600Y-102617D01*
X-13538Y-102798D01*
X-13480Y-102981D01*
X-13426Y-103165D01*
X-13377Y-103351D01*
X-13333Y-103537D01*
X-13293Y-103725D01*
X-13258Y-103914D01*
X-13228Y-104103D01*
X-13202Y-104293D01*
X-13181Y-104484D01*
X-13164Y-104675D01*
X-13152Y-104866D01*
X-13145Y-105058D01*
X-13143Y-105250D01*
X-13145Y-105442D01*
X-13152Y-105634D01*
X-13164Y-105825D01*
X-13181Y-106016D01*
X-13202Y-106207D01*
X-13228Y-106397D01*
X-13258Y-106586D01*
X-13293Y-106775D01*
X-13333Y-106963D01*
X-13377Y-107149D01*
X-13426Y-107335D01*
X-13480Y-107519D01*
X-13538Y-107702D01*
X-13600Y-107883D01*
X-13667Y-108063D01*
X-13738Y-108241D01*
X-13814Y-108418D01*
X-13894Y-108592D01*
X-13978Y-108765D01*
X-14066Y-108935D01*
X-14159Y-109103D01*
X-14255Y-109269D01*
X-14356Y-109432D01*
X-14460Y-109593D01*
X-14569Y-109751D01*
X-14681Y-109907D01*
X-14797Y-110059D01*
X-14917Y-110209D01*
X-15041Y-110356D01*
X-15168Y-110500D01*
X-15299Y-110640D01*
X-15433Y-110777D01*
X-15570Y-110911D01*
X-15710Y-111042D01*
X-15854Y-111169D01*
X-16001Y-111293D01*
X-16151Y-111413D01*
X-16303Y-111529D01*
X-16459Y-111641D01*
X-16617Y-111750D01*
X-16778Y-111854D01*
X-16941Y-111955D01*
X-17107Y-112051D01*
X-17275Y-112144D01*
X-17445Y-112232D01*
X-17618Y-112316D01*
X-17792Y-112396D01*
X-17969Y-112472D01*
X-18147Y-112543D01*
X-18327Y-112610D01*
X-18508Y-112672D01*
X-18691Y-112730D01*
X-18875Y-112784D01*
X-19061Y-112833D01*
X-19247Y-112877D01*
X-19435Y-112917D01*
X-19624Y-112952D01*
X-19813Y-112982D01*
X-20003Y-113008D01*
X-20194Y-113029D01*
X-20385Y-113046D01*
X-20576Y-113058D01*
X-20768Y-113065D01*
X-20960Y-113067D01*
X-21152Y-113065D01*
X-21344Y-113058D01*
X-21535Y-113046D01*
X-21726Y-113029D01*
X-21917Y-113008D01*
X-22107Y-112982D01*
X-22296Y-112952D01*
X-22485Y-112917D01*
X-22673Y-112877D01*
X-22859Y-112833D01*
X-23045Y-112784D01*
X-23229Y-112730D01*
X-23412Y-112672D01*
X-23593Y-112610D01*
X-23773Y-112543D01*
X-23951Y-112472D01*
X-24128Y-112396D01*
X-24302Y-112316D01*
X-24475Y-112232D01*
X-24645Y-112144D01*
X-24813Y-112051D01*
X-24979Y-111955D01*
X-25142Y-111854D01*
X-25303Y-111750D01*
X-25461Y-111641D01*
X-25617Y-111529D01*
X-25769Y-111413D01*
X-25919Y-111293D01*
X-26066Y-111169D01*
X-26210Y-111042D01*
X-26350Y-110911D01*
X-26487Y-110777D01*
X-26621Y-110640D01*
X-26752Y-110500D01*
X-26879Y-110356D01*
X-27003Y-110209D01*
X-27123Y-110059D01*
X-27239Y-109907D01*
X-27351Y-109751D01*
X-27460Y-109593D01*
X-27564Y-109432D01*
X-27665Y-109269D01*
X-27761Y-109103D01*
X-27854Y-108935D01*
X-27942Y-108765D01*
X-28026Y-108592D01*
X-28106Y-108418D01*
X-28182Y-108241D01*
X-28253Y-108063D01*
X-28320Y-107883D01*
X-28382Y-107702D01*
X-28440Y-107519D01*
X-28494Y-107335D01*
X-28543Y-107149D01*
X-28587Y-106963D01*
X-28627Y-106775D01*
X-28662Y-106586D01*
X-28692Y-106397D01*
X-28718Y-106207D01*
X-28739Y-106016D01*
X-28756Y-105825D01*
X-28768Y-105634D01*
X-28775Y-105442D01*
X-28777Y-105250D01*
D16*
X-38652Y104300D02*
X-39753Y105402D01*
X-41956Y105402D01*
X-43058Y104300D01*
X-43058Y99894D01*
X-41956Y98792D01*
X-39753Y98792D01*
X-38652Y99894D01*
X-35574Y98792D02*
X-31167Y98792D01*
X-31167Y103198D02*
X-35574Y98792D01*
X-31167Y103198D02*
X-31167Y104300D01*
X-32269Y105402D01*
X-34472Y105402D01*
X-35574Y104300D01*
X54227Y-43268D02*
X55328Y-44370D01*
X54227Y-43268D02*
X52024Y-43268D01*
X50922Y-44370D01*
X50922Y-48776D01*
X52024Y-49878D01*
X54227Y-49878D01*
X55328Y-48776D01*
X58406Y-44370D02*
X59508Y-43268D01*
X61711Y-43268D01*
X62813Y-44370D01*
X62813Y-45472D01*
X61711Y-46573D01*
X60609Y-46573D01*
X61711Y-46573D02*
X62813Y-47675D01*
X62813Y-48776D01*
X61711Y-49878D01*
X59508Y-49878D01*
X58406Y-48776D01*
X-8638Y-36528D02*
X-8638Y-29918D01*
X-5333Y-29918D01*
X-4232Y-31020D01*
X-4232Y-33223D01*
X-5333Y-34325D01*
X-8638Y-34325D01*
X-6435Y-34325D02*
X-4232Y-36528D01*
X1049Y-31020D02*
X3253Y-29918D01*
X1049Y-31020D02*
X-1154Y-33223D01*
X-1154Y-35426D01*
X-52Y-36528D01*
X2151Y-36528D01*
X3253Y-35426D01*
X3253Y-34325D01*
X2151Y-33223D01*
X-1154Y-33223D01*
X102240Y-85770D02*
X128240Y-85770D01*
X128240Y-53270D02*
X102240Y-53270D01*
X131490Y-82520D02*
X131488Y-82631D01*
X131482Y-82742D01*
X131473Y-82852D01*
X131460Y-82963D01*
X131443Y-83072D01*
X131422Y-83181D01*
X131398Y-83289D01*
X131369Y-83397D01*
X131338Y-83503D01*
X131302Y-83608D01*
X131263Y-83712D01*
X131221Y-83815D01*
X131175Y-83916D01*
X131126Y-84015D01*
X131073Y-84113D01*
X131017Y-84209D01*
X130958Y-84302D01*
X130895Y-84394D01*
X130830Y-84484D01*
X130761Y-84571D01*
X130690Y-84656D01*
X130615Y-84738D01*
X130538Y-84818D01*
X130458Y-84895D01*
X130376Y-84970D01*
X130291Y-85041D01*
X130204Y-85110D01*
X130114Y-85175D01*
X130022Y-85238D01*
X129929Y-85297D01*
X129833Y-85353D01*
X129735Y-85406D01*
X129636Y-85455D01*
X129535Y-85501D01*
X129432Y-85543D01*
X129328Y-85582D01*
X129223Y-85618D01*
X129117Y-85649D01*
X129009Y-85678D01*
X128901Y-85702D01*
X128792Y-85723D01*
X128683Y-85740D01*
X128572Y-85753D01*
X128462Y-85762D01*
X128351Y-85768D01*
X128240Y-85770D01*
X131490Y-56520D02*
X131488Y-56409D01*
X131482Y-56298D01*
X131473Y-56188D01*
X131460Y-56077D01*
X131443Y-55968D01*
X131422Y-55859D01*
X131398Y-55751D01*
X131369Y-55643D01*
X131338Y-55537D01*
X131302Y-55432D01*
X131263Y-55328D01*
X131221Y-55225D01*
X131175Y-55124D01*
X131126Y-55025D01*
X131073Y-54927D01*
X131017Y-54831D01*
X130958Y-54738D01*
X130895Y-54646D01*
X130830Y-54556D01*
X130761Y-54469D01*
X130690Y-54384D01*
X130615Y-54302D01*
X130538Y-54222D01*
X130458Y-54145D01*
X130376Y-54070D01*
X130291Y-53999D01*
X130204Y-53930D01*
X130114Y-53865D01*
X130022Y-53802D01*
X129929Y-53743D01*
X129833Y-53687D01*
X129735Y-53634D01*
X129636Y-53585D01*
X129535Y-53539D01*
X129432Y-53497D01*
X129328Y-53458D01*
X129223Y-53422D01*
X129117Y-53391D01*
X129009Y-53362D01*
X128901Y-53338D01*
X128792Y-53317D01*
X128683Y-53300D01*
X128572Y-53287D01*
X128462Y-53278D01*
X128351Y-53272D01*
X128240Y-53270D01*
X102240Y-53270D02*
X102129Y-53272D01*
X102018Y-53278D01*
X101908Y-53287D01*
X101797Y-53300D01*
X101688Y-53317D01*
X101579Y-53338D01*
X101471Y-53362D01*
X101363Y-53391D01*
X101257Y-53422D01*
X101152Y-53458D01*
X101048Y-53497D01*
X100945Y-53539D01*
X100844Y-53585D01*
X100745Y-53634D01*
X100647Y-53687D01*
X100551Y-53743D01*
X100458Y-53802D01*
X100366Y-53865D01*
X100276Y-53930D01*
X100189Y-53999D01*
X100104Y-54070D01*
X100022Y-54145D01*
X99942Y-54222D01*
X99865Y-54302D01*
X99790Y-54384D01*
X99719Y-54469D01*
X99650Y-54556D01*
X99585Y-54646D01*
X99522Y-54738D01*
X99463Y-54831D01*
X99407Y-54927D01*
X99354Y-55025D01*
X99305Y-55124D01*
X99259Y-55225D01*
X99217Y-55328D01*
X99178Y-55432D01*
X99142Y-55537D01*
X99111Y-55643D01*
X99082Y-55751D01*
X99058Y-55859D01*
X99037Y-55968D01*
X99020Y-56077D01*
X99007Y-56188D01*
X98998Y-56298D01*
X98992Y-56409D01*
X98990Y-56520D01*
X98990Y-82520D02*
X98992Y-82631D01*
X98998Y-82742D01*
X99007Y-82852D01*
X99020Y-82963D01*
X99037Y-83072D01*
X99058Y-83181D01*
X99082Y-83289D01*
X99111Y-83397D01*
X99142Y-83503D01*
X99178Y-83608D01*
X99217Y-83712D01*
X99259Y-83815D01*
X99305Y-83916D01*
X99354Y-84015D01*
X99407Y-84113D01*
X99463Y-84209D01*
X99522Y-84302D01*
X99585Y-84394D01*
X99650Y-84484D01*
X99719Y-84571D01*
X99790Y-84656D01*
X99865Y-84738D01*
X99942Y-84818D01*
X100022Y-84895D01*
X100104Y-84970D01*
X100189Y-85041D01*
X100276Y-85110D01*
X100366Y-85175D01*
X100458Y-85238D01*
X100551Y-85297D01*
X100647Y-85353D01*
X100745Y-85406D01*
X100844Y-85455D01*
X100945Y-85501D01*
X101048Y-85543D01*
X101152Y-85582D01*
X101257Y-85618D01*
X101363Y-85649D01*
X101471Y-85678D01*
X101579Y-85702D01*
X101688Y-85723D01*
X101797Y-85740D01*
X101908Y-85753D01*
X102018Y-85762D01*
X102129Y-85768D01*
X102240Y-85770D01*
D20*
X102344Y-60074D02*
X102346Y-59933D01*
X102352Y-59792D01*
X102362Y-59652D01*
X102376Y-59512D01*
X102394Y-59372D01*
X102415Y-59233D01*
X102441Y-59094D01*
X102470Y-58956D01*
X102504Y-58820D01*
X102541Y-58684D01*
X102582Y-58549D01*
X102627Y-58415D01*
X102676Y-58283D01*
X102728Y-58152D01*
X102784Y-58023D01*
X102844Y-57896D01*
X102907Y-57770D01*
X102973Y-57646D01*
X103044Y-57523D01*
X103117Y-57403D01*
X103194Y-57285D01*
X103274Y-57169D01*
X103358Y-57056D01*
X103444Y-56945D01*
X103534Y-56836D01*
X103627Y-56730D01*
X103722Y-56627D01*
X103821Y-56526D01*
X103922Y-56428D01*
X104026Y-56333D01*
X104133Y-56241D01*
X104242Y-56152D01*
X104354Y-56067D01*
X104468Y-55984D01*
X104584Y-55904D01*
X104703Y-55828D01*
X104824Y-55756D01*
X104946Y-55686D01*
X105071Y-55621D01*
X105197Y-55558D01*
X105325Y-55500D01*
X105455Y-55445D01*
X105586Y-55393D01*
X105719Y-55346D01*
X105853Y-55302D01*
X105988Y-55261D01*
X106124Y-55225D01*
X106261Y-55193D01*
X106399Y-55164D01*
X106537Y-55139D01*
X106677Y-55119D01*
X106817Y-55102D01*
X106957Y-55089D01*
X107098Y-55080D01*
X107238Y-55075D01*
X107379Y-55074D01*
X107520Y-55077D01*
X107661Y-55084D01*
X107801Y-55095D01*
X107941Y-55110D01*
X108081Y-55129D01*
X108220Y-55151D01*
X108358Y-55178D01*
X108496Y-55208D01*
X108632Y-55243D01*
X108768Y-55281D01*
X108902Y-55323D01*
X109036Y-55369D01*
X109168Y-55418D01*
X109298Y-55472D01*
X109427Y-55529D01*
X109554Y-55589D01*
X109680Y-55653D01*
X109803Y-55721D01*
X109925Y-55792D01*
X110045Y-55866D01*
X110162Y-55944D01*
X110277Y-56025D01*
X110390Y-56109D01*
X110501Y-56196D01*
X110609Y-56287D01*
X110714Y-56380D01*
X110817Y-56477D01*
X110917Y-56576D01*
X111014Y-56678D01*
X111108Y-56783D01*
X111199Y-56890D01*
X111287Y-57000D01*
X111372Y-57112D01*
X111454Y-57227D01*
X111533Y-57344D01*
X111608Y-57463D01*
X111680Y-57584D01*
X111748Y-57707D01*
X111813Y-57832D01*
X111875Y-57959D01*
X111932Y-58088D01*
X111987Y-58218D01*
X112037Y-58349D01*
X112084Y-58482D01*
X112127Y-58616D01*
X112166Y-58752D01*
X112201Y-58888D01*
X112233Y-59025D01*
X112260Y-59163D01*
X112284Y-59302D01*
X112304Y-59442D01*
X112320Y-59582D01*
X112332Y-59722D01*
X112340Y-59863D01*
X112344Y-60004D01*
X112344Y-60144D01*
X112340Y-60285D01*
X112332Y-60426D01*
X112320Y-60566D01*
X112304Y-60706D01*
X112284Y-60846D01*
X112260Y-60985D01*
X112233Y-61123D01*
X112201Y-61260D01*
X112166Y-61396D01*
X112127Y-61532D01*
X112084Y-61666D01*
X112037Y-61799D01*
X111987Y-61930D01*
X111932Y-62060D01*
X111875Y-62189D01*
X111813Y-62316D01*
X111748Y-62441D01*
X111680Y-62564D01*
X111608Y-62685D01*
X111533Y-62804D01*
X111454Y-62921D01*
X111372Y-63036D01*
X111287Y-63148D01*
X111199Y-63258D01*
X111108Y-63365D01*
X111014Y-63470D01*
X110917Y-63572D01*
X110817Y-63671D01*
X110714Y-63768D01*
X110609Y-63861D01*
X110501Y-63952D01*
X110390Y-64039D01*
X110277Y-64123D01*
X110162Y-64204D01*
X110045Y-64282D01*
X109925Y-64356D01*
X109803Y-64427D01*
X109680Y-64495D01*
X109554Y-64559D01*
X109427Y-64619D01*
X109298Y-64676D01*
X109168Y-64730D01*
X109036Y-64779D01*
X108902Y-64825D01*
X108768Y-64867D01*
X108632Y-64905D01*
X108496Y-64940D01*
X108358Y-64970D01*
X108220Y-64997D01*
X108081Y-65019D01*
X107941Y-65038D01*
X107801Y-65053D01*
X107661Y-65064D01*
X107520Y-65071D01*
X107379Y-65074D01*
X107238Y-65073D01*
X107098Y-65068D01*
X106957Y-65059D01*
X106817Y-65046D01*
X106677Y-65029D01*
X106537Y-65009D01*
X106399Y-64984D01*
X106261Y-64955D01*
X106124Y-64923D01*
X105988Y-64887D01*
X105853Y-64846D01*
X105719Y-64802D01*
X105586Y-64755D01*
X105455Y-64703D01*
X105325Y-64648D01*
X105197Y-64590D01*
X105071Y-64527D01*
X104946Y-64462D01*
X104824Y-64392D01*
X104703Y-64320D01*
X104584Y-64244D01*
X104468Y-64164D01*
X104354Y-64081D01*
X104242Y-63996D01*
X104133Y-63907D01*
X104026Y-63815D01*
X103922Y-63720D01*
X103821Y-63622D01*
X103722Y-63521D01*
X103627Y-63418D01*
X103534Y-63312D01*
X103444Y-63203D01*
X103358Y-63092D01*
X103274Y-62979D01*
X103194Y-62863D01*
X103117Y-62745D01*
X103044Y-62625D01*
X102973Y-62502D01*
X102907Y-62378D01*
X102844Y-62252D01*
X102784Y-62125D01*
X102728Y-61996D01*
X102676Y-61865D01*
X102627Y-61733D01*
X102582Y-61599D01*
X102541Y-61464D01*
X102504Y-61328D01*
X102470Y-61192D01*
X102441Y-61054D01*
X102415Y-60915D01*
X102394Y-60776D01*
X102376Y-60636D01*
X102362Y-60496D01*
X102352Y-60356D01*
X102346Y-60215D01*
X102344Y-60074D01*
D15*
X94298Y-48575D02*
X90485Y-48575D01*
X92392Y-48575D02*
X92392Y-37135D01*
X94298Y-37135D02*
X90485Y-37135D01*
X104001Y-37135D02*
X105907Y-39042D01*
X104001Y-37135D02*
X100188Y-37135D01*
X98281Y-39042D01*
X98281Y-46668D01*
X100188Y-48575D01*
X104001Y-48575D01*
X105907Y-46668D01*
X109975Y-48575D02*
X117601Y-48575D01*
X109975Y-48575D02*
X117601Y-40949D01*
X117601Y-39042D01*
X115695Y-37135D01*
X111882Y-37135D01*
X109975Y-39042D01*
D16*
X90612Y-62158D02*
X90612Y-68768D01*
X90612Y-62158D02*
X93917Y-62158D01*
X95018Y-63260D01*
X95018Y-65463D01*
X93917Y-66565D01*
X90612Y-66565D01*
X92815Y-66565D02*
X95018Y-68768D01*
X98096Y-63260D02*
X99198Y-62158D01*
X101401Y-62158D01*
X102503Y-63260D01*
X102503Y-64362D01*
X101401Y-65463D01*
X102503Y-66565D01*
X102503Y-67666D01*
X101401Y-68768D01*
X99198Y-68768D01*
X98096Y-67666D01*
X98096Y-66565D01*
X99198Y-65463D01*
X98096Y-64362D01*
X98096Y-63260D01*
X99198Y-65463D02*
X101401Y-65463D01*
X40084Y-59116D02*
X40084Y-52506D01*
X43389Y-52506D01*
X44490Y-53608D01*
X44490Y-55811D01*
X43389Y-56913D01*
X40084Y-56913D01*
X42287Y-56913D02*
X44490Y-59116D01*
X47568Y-58014D02*
X48669Y-59116D01*
X50873Y-59116D01*
X51974Y-58014D01*
X51974Y-53608D01*
X50873Y-52506D01*
X48669Y-52506D01*
X47568Y-53608D01*
X47568Y-54710D01*
X48669Y-55811D01*
X51974Y-55811D01*
X147596Y-140750D02*
X154206Y-140750D01*
X147596Y-140750D02*
X147596Y-137446D01*
X148698Y-136344D01*
X150901Y-136344D01*
X152003Y-137446D01*
X152003Y-140750D01*
X152003Y-138547D02*
X154206Y-136344D01*
X149800Y-133266D02*
X147596Y-131063D01*
X154206Y-131063D01*
X154206Y-133266D02*
X154206Y-128860D01*
X153104Y-125782D02*
X148698Y-125782D01*
X147596Y-124681D01*
X147596Y-122477D01*
X148698Y-121376D01*
X153104Y-121376D01*
X154206Y-122477D01*
X154206Y-124681D01*
X153104Y-125782D01*
X148698Y-121376D01*
X151566Y-109000D02*
X158176Y-109000D01*
X151566Y-109000D02*
X151566Y-105696D01*
X152668Y-104594D01*
X154871Y-104594D01*
X155973Y-105696D01*
X155973Y-109000D01*
X155973Y-106797D02*
X158176Y-104594D01*
X153770Y-101516D02*
X151566Y-99313D01*
X158176Y-99313D01*
X158176Y-101516D02*
X158176Y-97110D01*
X153770Y-94032D02*
X151566Y-91829D01*
X158176Y-91829D01*
X158176Y-94032D02*
X158176Y-89626D01*
X135998Y-128860D02*
X134896Y-129962D01*
X134896Y-132165D01*
X135998Y-133266D01*
X140404Y-133266D01*
X141506Y-132165D01*
X141506Y-129962D01*
X140404Y-128860D01*
X140404Y-125782D02*
X141506Y-124681D01*
X141506Y-122477D01*
X140404Y-121376D01*
X135998Y-121376D01*
X134896Y-122477D01*
X134896Y-124681D01*
X135998Y-125782D01*
X137100Y-125782D01*
X138201Y-124681D01*
X138201Y-121376D01*
D15*
X-153555Y18810D02*
X-153555Y64810D01*
X-51555Y64810D01*
X-51555Y18810D01*
X-153555Y1810D02*
X-153555Y-30190D01*
X-153555Y-103190D02*
X-153555Y-117190D01*
X-149555Y-117190D01*
X-55555Y-117190D02*
X-51555Y-117190D01*
X-51555Y-103190D01*
D21*
X-50072Y69970D02*
X-50072Y78656D01*
X-50072Y69970D02*
X-48335Y68233D01*
X-44861Y68233D01*
X-43123Y69970D01*
X-43123Y78656D01*
X-38378Y68233D02*
X-31429Y68233D01*
X-38378Y68233D02*
X-31429Y75182D01*
X-31429Y76919D01*
X-33167Y78656D01*
X-36641Y78656D01*
X-38378Y76919D01*
D22*
X-148808Y72605D03*
D16*
X-139183Y75137D02*
X-139183Y68527D01*
X-135878Y68527D01*
X-134777Y69629D01*
X-134777Y74035D01*
X-135878Y75137D01*
X-139183Y75137D01*
X-131699Y74035D02*
X-130597Y75137D01*
X-128394Y75137D01*
X-127292Y74035D01*
X-127292Y72933D01*
X-128394Y71832D01*
X-129496Y71832D01*
X-128394Y71832D02*
X-127292Y70730D01*
X-127292Y69629D01*
X-128394Y68527D01*
X-130597Y68527D01*
X-131699Y69629D01*
D22*
X-76613Y72605D03*
D16*
X-63681Y70079D02*
X-63681Y76689D01*
X-63681Y70079D02*
X-60377Y70079D01*
X-59275Y71181D01*
X-59275Y75587D01*
X-60377Y76689D01*
X-63681Y76689D01*
X-52892Y76689D02*
X-52892Y70079D01*
X-56197Y73384D02*
X-52892Y76689D01*
X-51791Y73384D02*
X-56197Y73384D01*
D12*
X-161410Y39985D02*
X-171570Y39985D01*
D16*
X-170592Y52067D02*
X-163982Y52067D01*
X-170592Y52067D02*
X-170592Y55372D01*
X-169490Y56473D01*
X-167287Y56473D01*
X-166185Y55372D01*
X-166185Y52067D01*
X-166185Y54270D02*
X-163982Y56473D01*
X-170592Y59551D02*
X-170592Y63958D01*
X-169490Y63958D01*
X-165084Y59551D01*
X-163982Y59551D01*
D12*
X-40080Y10150D02*
X-29920Y10150D01*
D16*
X-35492Y-19768D02*
X-42102Y-19768D01*
X-42102Y-16463D01*
X-41000Y-15362D01*
X-38797Y-15362D01*
X-37695Y-16463D01*
X-37695Y-19768D01*
X-37695Y-17565D02*
X-35492Y-15362D01*
X-39898Y-12284D02*
X-42102Y-10081D01*
X-35492Y-10081D01*
X-35492Y-12284D02*
X-35492Y-7877D01*
X-35492Y-4800D02*
X-35492Y-393D01*
X-39898Y-393D02*
X-35492Y-4800D01*
X-39898Y-393D02*
X-41000Y-393D01*
X-42102Y-1495D01*
X-42102Y-3698D01*
X-41000Y-4800D01*
D12*
X-158845Y-14205D02*
X-169005Y-14205D01*
D16*
X-170027Y182D02*
X-168925Y1283D01*
X-170027Y182D02*
X-170027Y-2021D01*
X-168925Y-3123D01*
X-164519Y-3123D01*
X-163417Y-2021D01*
X-163417Y182D01*
X-164519Y1283D01*
X-167823Y4361D02*
X-170027Y6564D01*
X-163417Y6564D01*
X-163417Y4361D02*
X-163417Y8768D01*
X-164519Y11845D02*
X-168925Y11845D01*
X-170027Y12947D01*
X-170027Y15150D01*
X-168925Y16252D01*
X-164519Y16252D01*
X-163417Y15150D01*
X-163417Y12947D01*
X-164519Y11845D01*
X-168925Y16252D01*
D12*
X-114570Y70070D02*
X-114570Y80230D01*
D16*
X-102276Y76664D02*
X-101174Y75562D01*
X-102276Y76664D02*
X-104479Y76664D01*
X-105580Y75562D01*
X-105580Y71156D01*
X-104479Y70054D01*
X-102276Y70054D01*
X-101174Y71156D01*
X-98096Y74460D02*
X-95893Y76664D01*
X-95893Y70054D01*
X-98096Y70054D02*
X-93690Y70054D01*
X-90612Y74460D02*
X-88409Y76664D01*
X-88409Y70054D01*
X-90612Y70054D02*
X-86206Y70054D01*
X-140023Y-140443D02*
X-144697Y-145116D01*
X-140023Y-140443D02*
X-137686Y-142780D01*
X-137686Y-144337D01*
X-139244Y-145895D01*
X-140802Y-145895D01*
X-143139Y-143558D01*
X-141581Y-145116D02*
X-141581Y-148232D01*
X-137068Y-152745D02*
X-132394Y-148072D01*
X-137068Y-148072D01*
X-133952Y-151187D01*
D12*
X-155653Y-126258D02*
X-162837Y-133442D01*
X-63110Y-154850D02*
X-52950Y-154850D01*
D16*
X-57522Y-143768D02*
X-64132Y-143768D01*
X-64132Y-140463D01*
X-63030Y-139362D01*
X-60827Y-139362D01*
X-59725Y-140463D01*
X-59725Y-143768D01*
X-59725Y-141565D02*
X-57522Y-139362D01*
X-61928Y-136284D02*
X-64132Y-134081D01*
X-57522Y-134081D01*
X-57522Y-136284D02*
X-57522Y-131877D01*
X-63030Y-126597D02*
X-64132Y-124393D01*
X-63030Y-126597D02*
X-60827Y-128800D01*
X-58624Y-128800D01*
X-57522Y-127698D01*
X-57522Y-125495D01*
X-58624Y-124393D01*
X-59725Y-124393D01*
X-60827Y-125495D01*
X-60827Y-128800D01*
X-45367Y-49868D02*
X-38757Y-49868D01*
X-45367Y-49868D02*
X-45367Y-46563D01*
X-44265Y-45462D01*
X-42062Y-45462D01*
X-40960Y-46563D01*
X-40960Y-49868D01*
X-40960Y-47665D02*
X-38757Y-45462D01*
X-43163Y-42384D02*
X-45367Y-40181D01*
X-38757Y-40181D01*
X-38757Y-42384D02*
X-38757Y-37977D01*
X-45367Y-34900D02*
X-45367Y-30493D01*
X-44265Y-30493D01*
X-39859Y-34900D01*
X-38757Y-34900D01*
X-40709Y-105045D02*
X-34099Y-105045D01*
X-40709Y-105045D02*
X-40709Y-101741D01*
X-39607Y-100639D01*
X-37404Y-100639D01*
X-36302Y-101741D01*
X-36302Y-105045D01*
X-36302Y-102842D02*
X-34099Y-100639D01*
X-38505Y-97561D02*
X-40709Y-95358D01*
X-34099Y-95358D01*
X-34099Y-97561D02*
X-34099Y-93155D01*
X-39607Y-90077D02*
X-40709Y-88976D01*
X-40709Y-86772D01*
X-39607Y-85671D01*
X-38505Y-85671D01*
X-37404Y-86772D01*
X-36302Y-85671D01*
X-35201Y-85671D01*
X-34099Y-86772D01*
X-34099Y-88976D01*
X-35201Y-90077D01*
X-36302Y-90077D01*
X-37404Y-88976D01*
X-38505Y-90077D01*
X-39607Y-90077D01*
X-37404Y-88976D02*
X-37404Y-86772D01*
D17*
X-66136Y-130785D02*
X-66136Y-172785D01*
X-96644Y-172785D02*
X-96644Y-130785D01*
D16*
X-106244Y-175608D02*
X-112854Y-175608D01*
X-112854Y-172303D01*
X-111752Y-171202D01*
X-109549Y-171202D01*
X-108447Y-172303D01*
X-108447Y-175608D01*
X-108447Y-173405D02*
X-106244Y-171202D01*
X-112854Y-168124D02*
X-112854Y-163717D01*
X-112854Y-168124D02*
X-106244Y-168124D01*
X-106244Y-163717D01*
X-109549Y-165921D02*
X-109549Y-168124D01*
X-112854Y-157335D02*
X-111752Y-156233D01*
X-112854Y-157335D02*
X-112854Y-159538D01*
X-111752Y-160640D01*
X-110650Y-160640D01*
X-109549Y-159538D01*
X-109549Y-157335D01*
X-108447Y-156233D01*
X-107346Y-156233D01*
X-106244Y-157335D01*
X-106244Y-159538D01*
X-107346Y-160640D01*
X-112854Y-153155D02*
X-112854Y-148749D01*
X-112854Y-153155D02*
X-106244Y-153155D01*
X-106244Y-148749D01*
X-109549Y-150952D02*
X-109549Y-153155D01*
X-106244Y-143468D02*
X-112854Y-143468D01*
X-112854Y-145671D02*
X-112854Y-141265D01*
X-110650Y-138187D02*
X-112854Y-135984D01*
X-106244Y-135984D01*
X-106244Y-138187D02*
X-106244Y-133781D01*
D17*
X162700Y87450D02*
X162700Y100150D01*
X162700Y87450D02*
X156350Y81100D01*
X143650Y81100D02*
X137300Y87450D01*
X162700Y125550D02*
X156350Y131900D01*
X162700Y125550D02*
X162700Y112850D01*
X156350Y106500D01*
X143650Y106500D02*
X137300Y112850D01*
X137300Y125550D01*
X143650Y131900D01*
X156350Y106500D02*
X162700Y100150D01*
X143650Y106500D02*
X137300Y100150D01*
X137300Y87450D01*
X162700Y163650D02*
X162700Y176350D01*
X162700Y163650D02*
X156350Y157300D01*
X143650Y157300D02*
X137300Y163650D01*
X156350Y157300D02*
X162700Y150950D01*
X162700Y138250D01*
X156350Y131900D01*
X143650Y131900D02*
X137300Y138250D01*
X137300Y150950D01*
X143650Y157300D01*
X143650Y182700D02*
X156350Y182700D01*
X162700Y176350D01*
X143650Y182700D02*
X137300Y176350D01*
X137300Y163650D01*
X143650Y81100D02*
X156350Y81100D01*
D15*
X164601Y109075D02*
X169431Y109075D01*
X169431Y112295D02*
X164601Y109075D01*
X164601Y112295D02*
X169431Y112295D01*
X164601Y114688D02*
X164601Y117908D01*
X164601Y114688D02*
X169431Y114688D01*
X169431Y117908D01*
X167016Y116298D02*
X167016Y114688D01*
X164601Y121106D02*
X164601Y122716D01*
X164601Y121106D02*
X165406Y120301D01*
X168626Y120301D01*
X169431Y121106D01*
X169431Y122716D01*
X168626Y123521D01*
X165406Y123521D01*
X164601Y122716D01*
X164601Y125914D02*
X169431Y125914D01*
X164601Y125914D02*
X164601Y128329D01*
X165406Y129134D01*
X167016Y129134D01*
X167821Y128329D01*
X167821Y125914D01*
X169431Y131527D02*
X169431Y133137D01*
X169431Y132332D02*
X164601Y132332D01*
X164601Y131527D02*
X164601Y133137D01*
X164601Y135269D02*
X169431Y138489D01*
X169431Y135269D02*
X164601Y138489D01*
X164601Y140882D02*
X164601Y144102D01*
X164601Y140882D02*
X169431Y140882D01*
X169431Y144102D01*
X167016Y142492D02*
X167016Y140882D01*
X164601Y146496D02*
X169431Y146496D01*
X169431Y149716D01*
X167016Y152109D02*
X167016Y155329D01*
X169431Y157722D02*
X164601Y157722D01*
X164601Y160137D01*
X165406Y160942D01*
X167016Y160942D01*
X167821Y160137D01*
X167821Y157722D01*
X167821Y159332D02*
X169431Y160942D01*
D17*
X-162700Y164850D02*
X-162700Y177550D01*
X-156350Y183900D01*
X-143650Y183900D02*
X-137300Y177550D01*
X-162700Y139450D02*
X-156350Y133100D01*
X-162700Y139450D02*
X-162700Y152150D01*
X-156350Y158500D01*
X-143650Y158500D02*
X-137300Y152150D01*
X-137300Y139450D01*
X-143650Y133100D01*
X-156350Y158500D02*
X-162700Y164850D01*
X-143650Y158500D02*
X-137300Y164850D01*
X-137300Y177550D01*
X-162700Y101350D02*
X-162700Y88650D01*
X-162700Y101350D02*
X-156350Y107700D01*
X-143650Y107700D02*
X-137300Y101350D01*
X-156350Y107700D02*
X-162700Y114050D01*
X-162700Y126750D01*
X-156350Y133100D01*
X-143650Y133100D02*
X-137300Y126750D01*
X-137300Y114050D01*
X-143650Y107700D01*
X-143650Y82300D02*
X-156350Y82300D01*
X-162700Y88650D01*
X-143650Y82300D02*
X-137300Y88650D01*
X-137300Y101350D01*
X-143650Y183900D02*
X-156350Y183900D01*
D15*
X-165605Y102935D02*
X-170435Y102935D01*
X-165605Y106155D01*
X-170435Y106155D01*
X-170435Y108548D02*
X-170435Y111768D01*
X-170435Y108548D02*
X-165605Y108548D01*
X-165605Y111768D01*
X-168020Y110158D02*
X-168020Y108548D01*
X-170435Y114966D02*
X-170435Y116576D01*
X-170435Y114966D02*
X-169630Y114161D01*
X-166410Y114161D01*
X-165605Y114966D01*
X-165605Y116576D01*
X-166410Y117381D01*
X-169630Y117381D01*
X-170435Y116576D01*
X-170435Y119774D02*
X-165605Y119774D01*
X-170435Y119774D02*
X-170435Y122189D01*
X-169630Y122994D01*
X-168020Y122994D01*
X-167215Y122189D01*
X-167215Y119774D01*
X-165605Y125387D02*
X-165605Y126997D01*
X-165605Y126192D02*
X-170435Y126192D01*
X-170435Y125387D02*
X-170435Y126997D01*
X-170435Y129129D02*
X-165605Y132350D01*
X-165605Y129129D02*
X-170435Y132350D01*
X-170435Y134743D02*
X-170435Y137963D01*
X-170435Y134743D02*
X-165605Y134743D01*
X-165605Y137963D01*
X-168020Y136353D02*
X-168020Y134743D01*
X-170435Y140356D02*
X-165605Y140356D01*
X-165605Y143576D01*
X-168020Y145969D02*
X-168020Y149189D01*
X-170435Y151582D02*
X-165605Y151582D01*
X-165605Y154802D01*
M02*
