  0
SECTION
  2
HEADER
  9
$ACADVER
  1
AC1012
  9
$DWGCODEPAGE
  3
undefined
  9
$INSBASE
 10
0.0
 20
0.0
 30
0.0
  9
$EXTMIN
 10
1.000000000000000E+20
 20
1.000000000000000E+20
 30
1.000000000000000E+20
  9
$EXTMAX
 10
-1.000000000000000E+20
 20
-1.000000000000000E+20
 30
-1.000000000000000E+20
  9
$LIMMIN
 10
0.0
 20
0.0
  9
$LIMMAX
 10
12.0
 20
9.0
  9
$ORTHOMODE
 70
     0
  9
$REGENMODE
 70
     1
  9
$FILLMODE
 70
     1
  9
$QTEXTMODE
 70
     0
  9
$MIRRTEXT
 70
     1
  9
$DRAGMODE
 70
     2
  9
$LTSCALE
 40
1.0
  9
$OSMODE
 70
    37
  9
$ATTMODE
 70
     1
  9
$TEXTSIZE
 40
0.2
  9
$TRACEWID
 40
0.05
  9
$TEXTSTYLE
  7
STANDARD
  9
$CLAYER
  8
0
  9
$CELTYPE
  6
BYLAYER
  9
$CECOLOR
 62
   256
  9
$CELTSCALE
 40
1.0
  9
$DELOBJ
 70
     1
  9
$DISPSILH
 70
     0
  9
$DIMSCALE
 40
1.0
  9
$DIMASZ
 40
0.18
  9
$DIMEXO
 40
0.0625
  9
$DIMDLI
 40
0.38
  9
$DIMRND
 40
0.0
  9
$DIMDLE
 40
0.0
  9
$DIMEXE
 40
0.18
  9
$DIMTP
 40
0.0
  9
$DIMTM
 40
0.0
  9
$DIMTXT
 40
0.18
  9
$DIMCEN
 40
0.09
  9
$DIMTSZ
 40
0.0
  9
$DIMTOL
 70
     0
  9
$DIMLIM
 70
     0
  9
$DIMTIH
 70
     1
  9
$DIMTOH
 70
     1
  9
$DIMSE1
 70
     0
  9
$DIMSE2
 70
     0
  9
$DIMTAD
 70
     0
  9
$DIMZIN
 70
     0
  9
$DIMBLK
  1

  9
$DIMASO
 70
     1
  9
$DIMSHO
 70
     1
  9
$DIMPOST
  1

  9
$DIMAPOST
  1

  9
$DIMALT
 70
     0
  9
$DIMALTD
 70
     2
  9
$DIMALTF
 40
25.4
  9
$DIMLFAC
 40
1.0
  9
$DIMTOFL
 70
     0
  9
$DIMTVP
 40
0.0
  9
$DIMTIX
 70
     0
  9
$DIMSOXD
 70
     0
  9
$DIMSAH
 70
     0
  9
$DIMBLK1
  1

  9
$DIMBLK2
  1

  9
$DIMSTYLE
  2
STANDARD
  9
$DIMCLRD
 70
     0
  9
$DIMCLRE
 70
     0
  9
$DIMCLRT
 70
     0
  9
$DIMTFAC
 40
1.0
  9
$DIMGAP
 40
0.09
  9
$DIMJUST
 70
     0
  9
$DIMSD1
 70
     0
  9
$DIMSD2
 70
     0
  9
$DIMTOLJ
 70
     1
  9
$DIMTZIN
 70
     0
  9
$DIMALTZ
 70
     0
  9
$DIMALTTZ
 70
     0
  9
$DIMFIT
 70
     3
  9
$DIMUPT
 70
     0
  9
$DIMUNIT
 70
     2
  9
$DIMDEC
 70
     4
  9
$DIMTDEC
 70
     4
  9
$DIMALTU
 70
     2
  9
$DIMALTTD
 70
     2
  9
$DIMTXSTY
  7
STANDARD
  9
$DIMAUNIT
 70
     0
  9
$LUNITS
 70
     2
  9
$LUPREC
 70
     4
  9
$SKETCHINC
 40
0.1
  9
$FILLETRAD
 40
0.5
  9
$AUNITS
 70
     0
  9
$AUPREC
 70
     0
  9
$MENU
  1
.
  9
$ELEVATION
 40
0.0
  9
$PELEVATION
 40
0.0
  9
$THICKNESS
 40
0.0
  9
$LIMCHECK
 70
     0
  9
$CHAMFERA
 40
0.5
  9
$CHAMFERB
 40
0.5
  9
$CHAMFERC
 40
1.0
  9
$CHAMFERD
 40
0.0
  9
$SKPOLY
 70
     0
  9
$TDCREATE
 40
2458233.949814803
  9
$TDUPDATE
 40
2458233.949814803
  9
$TDINDWG
 40
0.0000000116
  9
$TDUSRTIMER
 40
0.0000000116
  9
$USRTIMER
 70
     1
  9
$ANGBASE
 50
0.0
  9
$ANGDIR
 70
     0
  9
$PDMODE
 70
     0
  9
$PDSIZE
 40
0.0
  9
$PLINEWID
 40
0.0
  9
$COORDS
 70
     1
  9
$SPLFRAME
 70
     0
  9
$SPLINETYPE
 70
     6
  9
$SPLINESEGS
 70
     8
  9
$ATTDIA
 70
     0
  9
$ATTREQ
 70
     1
  9
$HANDLING
 70
     1
  9
$HANDSEED
  5
4D
  9
$SURFTAB1
 70
     6
  9
$SURFTAB2
 70
     6
  9
$SURFTYPE
 70
     6
  9
$SURFU
 70
     6
  9
$SURFV
 70
     6
  9
$UCSNAME
  2

  9
$UCSORG
 10
0.0
 20
0.0
 30
0.0
  9
$UCSXDIR
 10
1.0
 20
0.0
 30
0.0
  9
$UCSYDIR
 10
0.0
 20
1.0
 30
0.0
  9
$PUCSNAME
  2

  9
$PUCSORG
 10
0.0
 20
0.0
 30
0.0
  9
$PUCSXDIR
 10
1.0
 20
0.0
 30
0.0
  9
$PUCSYDIR
 10
0.0
 20
1.0
 30
0.0
  9
$USERI1
 70
     0
  9
$USERI2
 70
     0
  9
$USERI3
 70
     0
  9
$USERI4
 70
     0
  9
$USERI5
 70
     0
  9
$USERR1
 40
0.0
  9
$USERR2
 40
0.0
  9
$USERR3
 40
0.0
  9
$USERR4
 40
0.0
  9
$USERR5
 40
0.0
  9
$WORLDVIEW
 70
     1
  9
$SHADEDGE
 70
     3
  9
$SHADEDIF
 70
    70
  9
$TILEMODE
 70
     1
  9
$MAXACTVP
 70
    64
  9
$PINSBASE
 10
0.0
 20
0.0
 30
0.0
  9
$PLIMCHECK
 70
     0
  9
$PEXTMIN
 10
1.000000000000000E+20
 20
1.000000000000000E+20
 30
1.000000000000000E+20
  9
$PEXTMAX
 10
-1.000000000000000E+20
 20
-1.000000000000000E+20
 30
-1.000000000000000E+20
  9
$PLIMMIN
 10
0.0
 20
0.0
  9
$PLIMMAX
 10
12.0
 20
9.0
  9
$UNITMODE
 70
     0
  9
$VISRETAIN
 70
     1
  9
$PLINEGEN
 70
     0
  9
$PSLTSCALE
 70
     1
  9
$TREEDEPTH
 70
  3020
  9
$PICKSTYLE
 70
     1
  9
$CMLSTYLE
  2
STANDARD
  9
$CMLJUST
 70
     0
  9
$CMLSCALE
 40
1.0
  9
$SAVEIMAGES
 70
     1
  0
ENDSEC
  0
SECTION
  2
CLASSES
  0
CLASS
  1
ACDBDICTIONARYWDFLT
  2
AcDbDictionaryWithDefault
  3
ObjectDBX Classes
 90
    32768
280
     0
281
     0
  0
CLASS
  1
VISUALSTYLE
  2
AcDbVisualStyle
  3
ObjectDBX Classes
 90
     4095
280
     0
281
     0
  0
CLASS
  1
MATERIAL
  2
AcDbMaterial
  3
ObjectDBX Classes
 90
     1153
280
     0
281
     0
  0
CLASS
  1
SUN
  2
AcDbSun
  3
SCENEOE
 90
     1024
280
     0
281
     0
  0
CLASS
  1
DICTIONARYVAR
  2
AcDbDictionaryVar
  3
ObjectDBX Classes
 90
        0
280
     0
281
     0
  0
CLASS
  1
XRECORD
  2
AcDbXrecord
  3
AutoCAD 2000
 90
    32768
280
     0
281
     0
  0
CLASS
  1
LWPOLYLINE
  2
AcDbPolyline
  3
AutoCAD 2000
 90
    32768
280
     0
281
     1
  0
CLASS
  1
HATCH
  2
AcDbHatch
  3
AutoCAD 2000
 90
    32768
280
     0
281
     1
  0
CLASS
  1
ACDBPLACEHOLDER
  2
AcDbPlaceHolder
  3
ObjectDBX Classes
 90
        0
280
     0
281
     0
  0
CLASS
  1
LAYOUT
  2
AcDbLayout
  3
ObjectDBX Classes
 90
        0
280
     0
281
     0
  0
ENDSEC
  0
SECTION
  2
TABLES
  0
TABLE
  2
VPORT
  5
8
330
0
100
AcDbSymbolTable
 70
     1
  0
VPORT
  5
29
330
8
100
AcDbSymbolTableRecord
100
AcDbViewportTableRecord
  2
*ACTIVE
 70
     0
 10
0.0
 20
0.0
 11
1.0
 21
1.0
 12
0.0
 22
0.0
 13
0.0
 23
0.0
 14
0.5
 24
0.5
 15
0.5
 25
0.5
 16
0.0
 26
0.0
 36
1.0
 17
49.9991944319445
 27
-49.9991944319445
 37
0.0
 40
99.99838886388899
 41
1.0
 42
50.0
 43
0.0
 44
0.0
 50
0.0
 51
0.0
 71
     0
 72
   100
 73
     1
 74
     3
 75
     0
 76
     0
 77
     0
 78
     0
  0
ENDTAB
  0
TABLE
  2
LTYPE
  5
5
330
0
100
AcDbSymbolTable
 70
     1
  0
LTYPE
  5
14
330
5
100
AcDbSymbolTableRecord
100
AcDbLinetypeTableRecord
  2
BYBLOCK
 70
     0
  3

 72
    65
 73
     0
 40
0.0
  0
LTYPE
  5
15
330
5
100
AcDbSymbolTableRecord
100
AcDbLinetypeTableRecord
  2
BYLAYER
 70
     0
  3

 72
    65
 73
     0
 40
0.0
  0
LTYPE
  5
16
330
5
100
AcDbSymbolTableRecord
100
AcDbLinetypeTableRecord
  2
CONTINUOUS
 70
     0
  3
Solid line
 72
    65
 73
     0
 40
0.0
  0
ENDTAB
  0
TABLE
  2
LAYER
  5
2
330
0
100
AcDbSymbolTable
 70
     2
  0
LAYER
  5
10
330
2
100
AcDbSymbolTableRecord
100
AcDbLayerTableRecord
  2
0
 70
     0
 62
     7
  6
CONTINUOUS
  0
LAYER
  5
40
330
2
100
AcDbSymbolTableRecord
100
AcDbLayerTableRecord
  2
LAYER_1
 70
     0
 62
     7
  6
CONTINUOUS
  0
ENDTAB
  0
TABLE
  2
STYLE
  5
3
330
0
100
AcDbSymbolTable
 70
     1
  0
STYLE
  5
11
330
3
100
AcDbSymbolTableRecord
100
AcDbTextStyleTableRecord
  2
STANDARD
 70
     0
 40
0.0
 41
1.0
 50
0.0
 71
     0
 42
0.2
  3
txt
  4

  0
ENDTAB
  0
TABLE
  2
VIEW
  5
6
330
0
100
AcDbSymbolTable
 70
     0
  0
ENDTAB
  0
TABLE
  2
UCS
  5
7
330
0
100
AcDbSymbolTable
 70
     0
  0
ENDTAB
  0
TABLE
  2
APPID
  5
9
330
0
100
AcDbSymbolTable
 70
     1
  0
APPID
  5
12
330
9
100
AcDbSymbolTableRecord
100
AcDbRegAppTableRecord
  2
ACAD
 70
     0
  0
ENDTAB
  0
TABLE
  2
DIMSTYLE
  5
A
330
0
100
AcDbSymbolTable
 70
     1
  0
DIMSTYLE
105
27
330
A
100
AcDbSymbolTableRecord
100
AcDbDimStyleTableRecord
  2
STANDARD
 70
     0
  3

  4

  5

  6

  7

 40
1.0
 41
0.18
 42
0.0625
 43
0.38
 44
0.18
 45
0.0
 46
0.0
 47
0.0
 48
0.0
140
0.18
141
0.09
142
0.0
143
25.4
144
1.0
145
0.0
146
1.0
147
0.09
 71
     0
 72
     0
 73
     1
 74
     1
 75
     0
 76
     0
 77
     0
 78
     0
170
     0
171
     2
172
     0
173
     0
174
     0
175
     0
176
     0
177
     0
178
     0
270
     2
271
     4
272
     4
273
     2
274
     2
340
11
275
     0
280
     0
281
     0
282
     0
283
     1
284
     0
285
     0
286
     0
287
     3
288
     0
  0
ENDTAB
  0
TABLE
  2
BLOCK_RECORD
  5
1
330
0
100
AcDbSymbolTable
 70
     1
  0
BLOCK_RECORD
  5
1F
330
1
100
AcDbSymbolTableRecord
100
AcDbBlockTableRecord
  2
*MODEL_SPACE
  0
BLOCK_RECORD
  5
1B
330
1
100
AcDbSymbolTableRecord
100
AcDbBlockTableRecord
  2
*PAPER_SPACE
  0
ENDTAB
  0
ENDSEC
  0
SECTION
  2
BLOCKS
  0
BLOCK
  5
20
330
1F
100
AcDbEntity
  8
0
100
AcDbBlockBegin
  2
*MODEL_SPACE
 70
     0
 10
0.0
 20
0.0
 30
0.0
  3
*MODEL_SPACE
  1

  0
ENDBLK
  5
21
330
1F
100
AcDbEntity
  8
0
100
AcDbBlockEnd
  0
BLOCK
  5
1C
330
1B
100
AcDbEntity
 67
     1
  8
0
100
AcDbBlockBegin
  2
*PAPER_SPACE
 70
     0
 10
0.0
 20
0.0
 30
0.0
  3
*PAPER_SPACE
  1

  0
ENDBLK
  5
1D
330
1B
100
AcDbEntity
 67
     1
  8
0
100
AcDbBlockEnd
  0
ENDSEC
  0
SECTION
  2
ENTITIES
  0
SPLINE
  5
41
330
1F
100
AcDbEntity
  8
LAYER_1
100
AcDbSpline
210
0.0
220
0.0
230
1.0
 70
    11
 71
     3
 72
  1157
 73
  1153
 74
     0
 42
0.0000000001
 43
0.0000000001
 12
1.0
 22
0.0
 32
0.0
 13
1.0
 23
0.0
 33
0.0
 40
0.0
 40
0.0
 40
0.0
 40
0.0
 40
1.0
 40
1.0
 40
1.0
 40
2.0
 40
2.0
 40
2.0
 40
3.0
 40
3.0
 40
3.0
 40
4.0
 40
4.0
 40
4.0
 40
5.0
 40
5.0
 40
5.0
 40
6.0
 40
6.0
 40
6.0
 40
7.0
 40
7.0
 40
7.0
 40
8.0
 40
8.0
 40
8.0
 40
9.0
 40
9.0
 40
9.0
 40
10.0
 40
10.0
 40
10.0
 40
11.0
 40
11.0
 40
11.0
 40
12.0
 40
12.0
 40
12.0
 40
13.0
 40
13.0
 40
13.0
 40
14.0
 40
14.0
 40
14.0
 40
15.0
 40
15.0
 40
15.0
 40
16.0
 40
16.0
 40
16.0
 40
17.0
 40
17.0
 40
17.0
 40
18.0
 40
18.0
 40
18.0
 40
19.0
 40
19.0
 40
19.0
 40
20.0
 40
20.0
 40
20.0
 40
21.0
 40
21.0
 40
21.0
 40
22.0
 40
22.0
 40
22.0
 40
23.0
 40
23.0
 40
23.0
 40
24.0
 40
24.0
 40
24.0
 40
25.0
 40
25.0
 40
25.0
 40
26.0
 40
26.0
 40
26.0
 40
27.0
 40
27.0
 40
27.0
 40
28.0
 40
28.0
 40
28.0
 40
29.0
 40
29.0
 40
29.0
 40
30.0
 40
30.0
 40
30.0
 40
31.0
 40
31.0
 40
31.0
 40
32.0
 40
32.0
 40
32.0
 40
33.0
 40
33.0
 40
33.0
 40
34.0
 40
34.0
 40
34.0
 40
35.0
 40
35.0
 40
35.0
 40
36.0
 40
36.0
 40
36.0
 40
37.0
 40
37.0
 40
37.0
 40
38.0
 40
38.0
 40
38.0
 40
39.0
 40
39.0
 40
39.0
 40
40.0
 40
40.0
 40
40.0
 40
41.0
 40
41.0
 40
41.0
 40
42.0
 40
42.0
 40
42.0
 40
43.0
 40
43.0
 40
43.0
 40
44.0
 40
44.0
 40
44.0
 40
45.0
 40
45.0
 40
45.0
 40
46.0
 40
46.0
 40
46.0
 40
47.0
 40
47.0
 40
47.0
 40
48.0
 40
48.0
 40
48.0
 40
49.0
 40
49.0
 40
49.0
 40
50.0
 40
50.0
 40
50.0
 40
51.0
 40
51.0
 40
51.0
 40
52.0
 40
52.0
 40
52.0
 40
53.0
 40
53.0
 40
53.0
 40
54.0
 40
54.0
 40
54.0
 40
55.0
 40
55.0
 40
55.0
 40
56.0
 40
56.0
 40
56.0
 40
57.0
 40
57.0
 40
57.0
 40
58.0
 40
58.0
 40
58.0
 40
59.0
 40
59.0
 40
59.0
 40
60.0
 40
60.0
 40
60.0
 40
61.0
 40
61.0
 40
61.0
 40
62.0
 40
62.0
 40
62.0
 40
63.0
 40
63.0
 40
63.0
 40
64.0
 40
64.0
 40
64.0
 40
65.0
 40
65.0
 40
65.0
 40
66.0
 40
66.0
 40
66.0
 40
67.0
 40
67.0
 40
67.0
 40
68.0
 40
68.0
 40
68.0
 40
69.0
 40
69.0
 40
69.0
 40
70.0
 40
70.0
 40
70.0
 40
71.0
 40
71.0
 40
71.0
 40
72.0
 40
72.0
 40
72.0
 40
73.0
 40
73.0
 40
73.0
 40
74.0
 40
74.0
 40
74.0
 40
75.0
 40
75.0
 40
75.0
 40
76.0
 40
76.0
 40
76.0
 40
77.0
 40
77.0
 40
77.0
 40
78.0
 40
78.0
 40
78.0
 40
79.0
 40
79.0
 40
79.0
 40
80.0
 40
80.0
 40
80.0
 40
81.0
 40
81.0
 40
81.0
 40
82.0
 40
82.0
 40
82.0
 40
83.0
 40
83.0
 40
83.0
 40
84.0
 40
84.0
 40
84.0
 40
85.0
 40
85.0
 40
85.0
 40
86.0
 40
86.0
 40
86.0
 40
87.0
 40
87.0
 40
87.0
 40
88.0
 40
88.0
 40
88.0
 40
89.0
 40
89.0
 40
89.0
 40
90.0
 40
90.0
 40
90.0
 40
91.0
 40
91.0
 40
91.0
 40
92.0
 40
92.0
 40
92.0
 40
93.0
 40
93.0
 40
93.0
 40
94.0
 40
94.0
 40
94.0
 40
95.0
 40
95.0
 40
95.0
 40
96.0
 40
96.0
 40
96.0
 40
97.0
 40
97.0
 40
97.0
 40
98.0
 40
98.0
 40
98.0
 40
99.0
 40
99.0
 40
99.0
 40
100.0
 40
100.0
 40
100.0
 40
101.0
 40
101.0
 40
101.0
 40
102.0
 40
102.0
 40
102.0
 40
103.0
 40
103.0
 40
103.0
 40
104.0
 40
104.0
 40
104.0
 40
105.0
 40
105.0
 40
105.0
 40
106.0
 40
106.0
 40
106.0
 40
107.0
 40
107.0
 40
107.0
 40
108.0
 40
108.0
 40
108.0
 40
109.0
 40
109.0
 40
109.0
 40
110.0
 40
110.0
 40
110.0
 40
111.0
 40
111.0
 40
111.0
 40
112.0
 40
112.0
 40
112.0
 40
113.0
 40
113.0
 40
113.0
 40
114.0
 40
114.0
 40
114.0
 40
115.0
 40
115.0
 40
115.0
 40
116.0
 40
116.0
 40
116.0
 40
117.0
 40
117.0
 40
117.0
 40
118.0
 40
118.0
 40
118.0
 40
119.0
 40
119.0
 40
119.0
 40
120.0
 40
120.0
 40
120.0
 40
121.0
 40
121.0
 40
121.0
 40
122.0
 40
122.0
 40
122.0
 40
123.0
 40
123.0
 40
123.0
 40
124.0
 40
124.0
 40
124.0
 40
125.0
 40
125.0
 40
125.0
 40
126.0
 40
126.0
 40
126.0
 40
127.0
 40
127.0
 40
127.0
 40
128.0
 40
128.0
 40
128.0
 40
129.0
 40
129.0
 40
129.0
 40
130.0
 40
130.0
 40
130.0
 40
131.0
 40
131.0
 40
131.0
 40
132.0
 40
132.0
 40
132.0
 40
133.0
 40
133.0
 40
133.0
 40
134.0
 40
134.0
 40
134.0
 40
135.0
 40
135.0
 40
135.0
 40
136.0
 40
136.0
 40
136.0
 40
137.0
 40
137.0
 40
137.0
 40
138.0
 40
138.0
 40
138.0
 40
139.0
 40
139.0
 40
139.0
 40
140.0
 40
140.0
 40
140.0
 40
141.0
 40
141.0
 40
141.0
 40
142.0
 40
142.0
 40
142.0
 40
143.0
 40
143.0
 40
143.0
 40
144.0
 40
144.0
 40
144.0
 40
145.0
 40
145.0
 40
145.0
 40
146.0
 40
146.0
 40
146.0
 40
147.0
 40
147.0
 40
147.0
 40
148.0
 40
148.0
 40
148.0
 40
149.0
 40
149.0
 40
149.0
 40
150.0
 40
150.0
 40
150.0
 40
151.0
 40
151.0
 40
151.0
 40
152.0
 40
152.0
 40
152.0
 40
153.0
 40
153.0
 40
153.0
 40
154.0
 40
154.0
 40
154.0
 40
155.0
 40
155.0
 40
155.0
 40
156.0
 40
156.0
 40
156.0
 40
157.0
 40
157.0
 40
157.0
 40
158.0
 40
158.0
 40
158.0
 40
159.0
 40
159.0
 40
159.0
 40
160.0
 40
160.0
 40
160.0
 40
161.0
 40
161.0
 40
161.0
 40
162.0
 40
162.0
 40
162.0
 40
163.0
 40
163.0
 40
163.0
 40
164.0
 40
164.0
 40
164.0
 40
165.0
 40
165.0
 40
165.0
 40
166.0
 40
166.0
 40
166.0
 40
167.0
 40
167.0
 40
167.0
 40
168.0
 40
168.0
 40
168.0
 40
169.0
 40
169.0
 40
169.0
 40
170.0
 40
170.0
 40
170.0
 40
171.0
 40
171.0
 40
171.0
 40
172.0
 40
172.0
 40
172.0
 40
173.0
 40
173.0
 40
173.0
 40
174.0
 40
174.0
 40
174.0
 40
175.0
 40
175.0
 40
175.0
 40
176.0
 40
176.0
 40
176.0
 40
177.0
 40
177.0
 40
177.0
 40
178.0
 40
178.0
 40
178.0
 40
179.0
 40
179.0
 40
179.0
 40
180.0
 40
180.0
 40
180.0
 40
181.0
 40
181.0
 40
181.0
 40
182.0
 40
182.0
 40
182.0
 40
183.0
 40
183.0
 40
183.0
 40
184.0
 40
184.0
 40
184.0
 40
185.0
 40
185.0
 40
185.0
 40
186.0
 40
186.0
 40
186.0
 40
187.0
 40
187.0
 40
187.0
 40
188.0
 40
188.0
 40
188.0
 40
189.0
 40
189.0
 40
189.0
 40
190.0
 40
190.0
 40
190.0
 40
191.0
 40
191.0
 40
191.0
 40
192.0
 40
192.0
 40
192.0
 40
193.0
 40
193.0
 40
193.0
 40
194.0
 40
194.0
 40
194.0
 40
195.0
 40
195.0
 40
195.0
 40
196.0
 40
196.0
 40
196.0
 40
197.0
 40
197.0
 40
197.0
 40
198.0
 40
198.0
 40
198.0
 40
199.0
 40
199.0
 40
199.0
 40
200.0
 40
200.0
 40
200.0
 40
201.0
 40
201.0
 40
201.0
 40
202.0
 40
202.0
 40
202.0
 40
203.0
 40
203.0
 40
203.0
 40
204.0
 40
204.0
 40
204.0
 40
205.0
 40
205.0
 40
205.0
 40
206.0
 40
206.0
 40
206.0
 40
207.0
 40
207.0
 40
207.0
 40
208.0
 40
208.0
 40
208.0
 40
209.0
 40
209.0
 40
209.0
 40
210.0
 40
210.0
 40
210.0
 40
211.0
 40
211.0
 40
211.0
 40
212.0
 40
212.0
 40
212.0
 40
213.0
 40
213.0
 40
213.0
 40
214.0
 40
214.0
 40
214.0
 40
215.0
 40
215.0
 40
215.0
 40
216.0
 40
216.0
 40
216.0
 40
217.0
 40
217.0
 40
217.0
 40
218.0
 40
218.0
 40
218.0
 40
219.0
 40
219.0
 40
219.0
 40
220.0
 40
220.0
 40
220.0
 40
221.0
 40
221.0
 40
221.0
 40
222.0
 40
222.0
 40
222.0
 40
223.0
 40
223.0
 40
223.0
 40
224.0
 40
224.0
 40
224.0
 40
225.0
 40
225.0
 40
225.0
 40
226.0
 40
226.0
 40
226.0
 40
227.0
 40
227.0
 40
227.0
 40
228.0
 40
228.0
 40
228.0
 40
229.0
 40
229.0
 40
229.0
 40
230.0
 40
230.0
 40
230.0
 40
231.0
 40
231.0
 40
231.0
 40
232.0
 40
232.0
 40
232.0
 40
233.0
 40
233.0
 40
233.0
 40
234.0
 40
234.0
 40
234.0
 40
235.0
 40
235.0
 40
235.0
 40
236.0
 40
236.0
 40
236.0
 40
237.0
 40
237.0
 40
237.0
 40
238.0
 40
238.0
 40
238.0
 40
239.0
 40
239.0
 40
239.0
 40
240.0
 40
240.0
 40
240.0
 40
241.0
 40
241.0
 40
241.0
 40
242.0
 40
242.0
 40
242.0
 40
243.0
 40
243.0
 40
243.0
 40
244.0
 40
244.0
 40
244.0
 40
245.0
 40
245.0
 40
245.0
 40
246.0
 40
246.0
 40
246.0
 40
247.0
 40
247.0
 40
247.0
 40
248.0
 40
248.0
 40
248.0
 40
249.0
 40
249.0
 40
249.0
 40
250.0
 40
250.0
 40
250.0
 40
251.0
 40
251.0
 40
251.0
 40
252.0
 40
252.0
 40
252.0
 40
253.0
 40
253.0
 40
253.0
 40
254.0
 40
254.0
 40
254.0
 40
255.0
 40
255.0
 40
255.0
 40
256.0
 40
256.0
 40
256.0
 40
257.0
 40
257.0
 40
257.0
 40
258.0
 40
258.0
 40
258.0
 40
259.0
 40
259.0
 40
259.0
 40
260.0
 40
260.0
 40
260.0
 40
261.0
 40
261.0
 40
261.0
 40
262.0
 40
262.0
 40
262.0
 40
263.0
 40
263.0
 40
263.0
 40
264.0
 40
264.0
 40
264.0
 40
265.0
 40
265.0
 40
265.0
 40
266.0
 40
266.0
 40
266.0
 40
267.0
 40
267.0
 40
267.0
 40
268.0
 40
268.0
 40
268.0
 40
269.0
 40
269.0
 40
269.0
 40
270.0
 40
270.0
 40
270.0
 40
271.0
 40
271.0
 40
271.0
 40
272.0
 40
272.0
 40
272.0
 40
273.0
 40
273.0
 40
273.0
 40
274.0
 40
274.0
 40
274.0
 40
275.0
 40
275.0
 40
275.0
 40
276.0
 40
276.0
 40
276.0
 40
277.0
 40
277.0
 40
277.0
 40
278.0
 40
278.0
 40
278.0
 40
279.0
 40
279.0
 40
279.0
 40
280.0
 40
280.0
 40
280.0
 40
281.0
 40
281.0
 40
281.0
 40
282.0
 40
282.0
 40
282.0
 40
283.0
 40
283.0
 40
283.0
 40
284.0
 40
284.0
 40
284.0
 40
285.0
 40
285.0
 40
285.0
 40
286.0
 40
286.0
 40
286.0
 40
287.0
 40
287.0
 40
287.0
 40
288.0
 40
288.0
 40
288.0
 40
289.0
 40
289.0
 40
289.0
 40
290.0
 40
290.0
 40
290.0
 40
291.0
 40
291.0
 40
291.0
 40
292.0
 40
292.0
 40
292.0
 40
293.0
 40
293.0
 40
293.0
 40
294.0
 40
294.0
 40
294.0
 40
295.0
 40
295.0
 40
295.0
 40
296.0
 40
296.0
 40
296.0
 40
297.0
 40
297.0
 40
297.0
 40
298.0
 40
298.0
 40
298.0
 40
299.0
 40
299.0
 40
299.0
 40
300.0
 40
300.0
 40
300.0
 40
301.0
 40
301.0
 40
301.0
 40
302.0
 40
302.0
 40
302.0
 40
303.0
 40
303.0
 40
303.0
 40
304.0
 40
304.0
 40
304.0
 40
305.0
 40
305.0
 40
305.0
 40
306.0
 40
306.0
 40
306.0
 40
307.0
 40
307.0
 40
307.0
 40
308.0
 40
308.0
 40
308.0
 40
309.0
 40
309.0
 40
309.0
 40
310.0
 40
310.0
 40
310.0
 40
311.0
 40
311.0
 40
311.0
 40
312.0
 40
312.0
 40
312.0
 40
313.0
 40
313.0
 40
313.0
 40
314.0
 40
314.0
 40
314.0
 40
315.0
 40
315.0
 40
315.0
 40
316.0
 40
316.0
 40
316.0
 40
317.0
 40
317.0
 40
317.0
 40
318.0
 40
318.0
 40
318.0
 40
319.0
 40
319.0
 40
319.0
 40
320.0
 40
320.0
 40
320.0
 40
321.0
 40
321.0
 40
321.0
 40
322.0
 40
322.0
 40
322.0
 40
323.0
 40
323.0
 40
323.0
 40
324.0
 40
324.0
 40
324.0
 40
325.0
 40
325.0
 40
325.0
 40
326.0
 40
326.0
 40
326.0
 40
327.0
 40
327.0
 40
327.0
 40
328.0
 40
328.0
 40
328.0
 40
329.0
 40
329.0
 40
329.0
 40
330.0
 40
330.0
 40
330.0
 40
331.0
 40
331.0
 40
331.0
 40
332.0
 40
332.0
 40
332.0
 40
333.0
 40
333.0
 40
333.0
 40
334.0
 40
334.0
 40
334.0
 40
335.0
 40
335.0
 40
335.0
 40
336.0
 40
336.0
 40
336.0
 40
337.0
 40
337.0
 40
337.0
 40
338.0
 40
338.0
 40
338.0
 40
339.0
 40
339.0
 40
339.0
 40
340.0
 40
340.0
 40
340.0
 40
341.0
 40
341.0
 40
341.0
 40
342.0
 40
342.0
 40
342.0
 40
343.0
 40
343.0
 40
343.0
 40
344.0
 40
344.0
 40
344.0
 40
345.0
 40
345.0
 40
345.0
 40
346.0
 40
346.0
 40
346.0
 40
347.0
 40
347.0
 40
347.0
 40
348.0
 40
348.0
 40
348.0
 40
349.0
 40
349.0
 40
349.0
 40
350.0
 40
350.0
 40
350.0
 40
351.0
 40
351.0
 40
351.0
 40
352.0
 40
352.0
 40
352.0
 40
353.0
 40
353.0
 40
353.0
 40
354.0
 40
354.0
 40
354.0
 40
355.0
 40
355.0
 40
355.0
 40
356.0
 40
356.0
 40
356.0
 40
357.0
 40
357.0
 40
357.0
 40
358.0
 40
358.0
 40
358.0
 40
359.0
 40
359.0
 40
359.0
 40
360.0
 40
360.0
 40
360.0
 40
361.0
 40
361.0
 40
361.0
 40
362.0
 40
362.0
 40
362.0
 40
363.0
 40
363.0
 40
363.0
 40
364.0
 40
364.0
 40
364.0
 40
365.0
 40
365.0
 40
365.0
 40
366.0
 40
366.0
 40
366.0
 40
367.0
 40
367.0
 40
367.0
 40
368.0
 40
368.0
 40
368.0
 40
369.0
 40
369.0
 40
369.0
 40
370.0
 40
370.0
 40
370.0
 40
371.0
 40
371.0
 40
371.0
 40
372.0
 40
372.0
 40
372.0
 40
373.0
 40
373.0
 40
373.0
 40
374.0
 40
374.0
 40
374.0
 40
375.0
 40
375.0
 40
375.0
 40
376.0
 40
376.0
 40
376.0
 40
377.0
 40
377.0
 40
377.0
 40
378.0
 40
378.0
 40
378.0
 40
379.0
 40
379.0
 40
379.0
 40
380.0
 40
380.0
 40
380.0
 40
381.0
 40
381.0
 40
381.0
 40
382.0
 40
382.0
 40
382.0
 40
383.0
 40
383.0
 40
383.0
 40
384.0
 40
384.0
 40
384.0
 40
384.0
 10
60.27186228658615
 20
-72.08439527907396
 30
0.0
 10
60.27186228658615
 20
-72.08439527907396
 30
0.0
 10
59.63653711079555
 20
-72.08439527907396
 30
0.0
 10
59.63653711079555
 20
-72.08439527907396
 30
0.0
 10
59.63653711079555
 20
-72.08439527907396
 30
0.0
 10
59.00121193500559
 20
-72.08439527907396
 30
0.0
 10
59.00121193500559
 20
-72.08439527907396
 30
0.0
 10
59.00121193500559
 20
-72.08439527907396
 30
0.0
 10
58.36588675921563
 20
-72.08439527907396
 30
0.0
 10
58.36588675921563
 20
-72.08439527907396
 30
0.0
 10
58.36588675921563
 20
-72.08439527907396
 30
0.0
 10
57.73056158342503
 20
-72.08439527907396
 30
0.0
 10
57.73056158342503
 20
-72.08439527907396
 30
0.0
 10
57.73056158342503
 20
-72.08439527907396
 30
0.0
 10
57.09523640763443
 20
-72.08439527907396
 30
0.0
 10
57.09523640763443
 20
-72.08439527907396
 30
0.0
 10
57.09523640763443
 20
-72.08439527907396
 30
0.0
 10
56.45991123184447
 20
-72.08439527907396
 30
0.0
 10
56.45991123184447
 20
-72.08439527907396
 30
0.0
 10
56.45991123184447
 20
-72.08439527907396
 30
0.0
 10
55.82458605605451
 20
-72.08439527907396
 30
0.0
 10
55.82458605605451
 20
-72.08439527907396
 30
0.0
 10
55.82458605605451
 20
-72.08439527907396
 30
0.0
 10
55.18926088026392
 20
-72.08439527907396
 30
0.0
 10
55.18926088026392
 20
-72.08439527907396
 30
0.0
 10
55.18926088026392
 20
-72.08439527907396
 30
0.0
 10
54.55393570447331
 20
-72.08439527907396
 30
0.0
 10
54.55393570447331
 20
-72.08439527907396
 30
0.0
 10
54.55393570447331
 20
-72.08439527907396
 30
0.0
 10
53.91861052868335
 20
-72.08439527907396
 30
0.0
 10
53.91861052868335
 20
-72.08439527907396
 30
0.0
 10
53.91861052868335
 20
-72.08439527907396
 30
0.0
 10
53.28328535289339
 20
-72.08439527907396
 30
0.0
 10
53.28328535289339
 20
-72.08439527907396
 30
0.0
 10
53.28328535289339
 20
-72.08439527907396
 30
0.0
 10
52.6479601771028
 20
-72.08439527907396
 30
0.0
 10
52.6479601771028
 20
-72.08439527907396
 30
0.0
 10
52.6479601771028
 20
-72.08439527907396
 30
0.0
 10
52.0126350013122
 20
-72.08439527907396
 30
0.0
 10
52.0126350013122
 20
-72.08439527907396
 30
0.0
 10
52.0126350013122
 20
-72.08439527907396
 30
0.0
 10
51.37730982552223
 20
-72.08439527907396
 30
0.0
 10
51.37730982552223
 20
-72.08439527907396
 30
0.0
 10
51.37730982552223
 20
-72.08439527907396
 30
0.0
 10
50.74198464973227
 20
-72.08439527907396
 30
0.0
 10
50.74198464973227
 20
-72.08439527907396
 30
0.0
 10
50.74198464973227
 20
-72.08439527907396
 30
0.0
 10
50.10665947394168
 20
-72.08439527907396
 30
0.0
 10
50.10665947394168
 20
-72.08439527907396
 30
0.0
 10
50.10665947394168
 20
-72.08439527907396
 30
0.0
 10
49.4713342981514
 20
-72.08439527907396
 30
0.0
 10
49.4713342981514
 20
-72.08439527907396
 30
0.0
 10
49.4713342981514
 20
-72.08439527907396
 30
0.0
 10
48.83600912236112
 20
-72.08439527907396
 30
0.0
 10
48.83600912236112
 20
-72.08439527907396
 30
0.0
 10
48.83600912236112
 20
-72.08439527907396
 30
0.0
 10
48.20068394657083
 20
-72.08439527907396
 30
0.0
 10
48.20068394657083
 20
-72.08439527907396
 30
0.0
 10
48.20068394657083
 20
-72.08439527907396
 30
0.0
 10
47.56535877078056
 20
-72.08439527907396
 30
0.0
 10
47.56535877078056
 20
-72.08439527907396
 30
0.0
 10
47.56535877078056
 20
-72.08439527907396
 30
0.0
 10
46.93003359499028
 20
-72.08439527907396
 30
0.0
 10
46.93003359499028
 20
-72.08439527907396
 30
0.0
 10
46.93003359499028
 20
-72.08439527907396
 30
0.0
 10
46.2947084192
 20
-72.08439527907396
 30
0.0
 10
46.2947084192
 20
-72.08439527907396
 30
0.0
 10
46.2947084192
 20
-72.08439527907396
 30
0.0
 10
45.65938324340972
 20
-72.08439527907396
 30
0.0
 10
45.65938324340972
 20
-72.08439527907396
 30
0.0
 10
45.65938324340972
 20
-72.08439527907396
 30
0.0
 10
45.02405806761944
 20
-72.08439527907396
 30
0.0
 10
45.02405806761944
 20
-72.08439527907396
 30
0.0
 10
45.02405806761944
 20
-72.08439527907396
 30
0.0
 10
44.38873289182916
 20
-72.08439527907396
 30
0.0
 10
44.38873289182916
 20
-72.08439527907396
 30
0.0
 10
44.38873289182916
 20
-72.08439527907396
 30
0.0
 10
43.75340771603888
 20
-72.08439527907396
 30
0.0
 10
43.75340771603888
 20
-72.08439527907396
 30
0.0
 10
43.75340771603888
 20
-72.08439527907396
 30
0.0
 10
43.1180825402486
 20
-72.08439527907396
 30
0.0
 10
43.1180825402486
 20
-72.08439527907396
 30
0.0
 10
43.1180825402486
 20
-72.08439527907396
 30
0.0
 10
42.48275736445832
 20
-72.08439527907396
 30
0.0
 10
42.48275736445832
 20
-72.08439527907396
 30
0.0
 10
42.48275736445832
 20
-72.08439527907396
 30
0.0
 10
41.84743218866804
 20
-72.08439527907396
 30
0.0
 10
41.84743218866804
 20
-72.08439527907396
 30
0.0
 10
41.84743218866804
 20
-72.08439527907396
 30
0.0
 10
41.21210701287776
 20
-72.08439527907396
 30
0.0
 10
41.21210701287776
 20
-72.08439527907396
 30
0.0
 10
41.21210701287776
 20
-72.08439527907396
 30
0.0
 10
40.57678183708748
 20
-72.08439527907396
 30
0.0
 10
40.57678183708748
 20
-72.08439527907396
 30
0.0
 10
40.57678183708748
 20
-72.08439527907396
 30
0.0
 10
39.9414566612972
 20
-72.08439527907396
 30
0.0
 10
39.9414566612972
 20
-72.08439527907396
 30
0.0
 10
39.90540406183798
 20
-72.08439527907396
 30
0.0
 10
39.86942638125882
 20
-72.08379020695926
 30
0.0
 10
39.83353644941695
 20
-72.08258743968469
 30
0.0
 10
39.79764651757507
 20
-72.08138467241076
 30
0.0
 10
39.76184433447114
 20
-72.07958420997697
 30
0.0
 10
39.72614272996302
 20
-72.07719342934006
 30
0.0
 10
39.69044112545488
 20
-72.0748026487025
 30
0.0
 10
39.65484009954256
 20
-72.0718215498612
 30
0.0
 10
39.61935248208456
 20
-72.06825750977225
 30
0.0
 10
39.58386486462624
 20
-72.06469346968332
 30
0.0
 10
39.54849065562191
 20
-72.06054648834609
 30
0.0
 10
39.51324268492979
 20
-72.05582394271606
 30
0.0
 10
39.47799471423765
 20
-72.05110139708603
 30
0.0
 10
39.44287298185771
 20
-72.04580328716318
 30
0.0
 10
39.40789031764784
 20
-72.03993698990429
 30
0.0
 10
39.37290765343829
 20
-72.03407069264476
 30
0.0
 10
39.33806405739848
 20
-72.02763620804852
 30
0.0
 10
39.30337235938757
 20
-72.02064091307108
 30
0.0
 10
39.26868066137666
 20
-72.013645618093
 30
0.0
 10
39.234140861394
 20
-72.00608951273368
 30
0.0
 10
39.19976578929781
 20
-71.99797997394862
 30
0.0
 10
39.1653907172016
 20
-71.98987043516357
 30
0.0
 10
39.13118037299185
 20
-71.98120746295277
 30
0.0
 10
39.09714758652706
 20
-71.97199843427232
 30
0.0
 10
39.06311480006228
 20
-71.96278940559189
 30
0.0
 10
39.02925957134181
 20
-71.95303432044054
 30
0.0
 10
38.99559473022418
 20
-71.94274055577502
 30
0.0
 10
38.96192988910688
 20
-71.93244679110887
 30
0.0
 10
38.92845543559209
 20
-71.92161434692855
 30
0.0
 10
38.89518419953833
 20
-71.91025060018956
 30
0.0
 10
38.86191296348424
 20
-71.89888685345055
 30
0.0
 10
38.82884494489151
 20
-71.88699180415159
 30
0.0
 10
38.79599297361769
 20
-71.87457282925004
 30
0.0
 10
38.76314100234385
 20
-71.8621538543485
 30
0.0
 10
38.73050507838892
 20
-71.84921095384311
 30
0.0
 10
38.69809803161142
 20
-71.83575150468997
 30
0.0
 10
38.6656909848339
 20
-71.82229205553683
 30
0.0
 10
38.63351281523348
 20
-71.80831605773595
 30
0.0
 10
38.60157635266867
 20
-71.79383088824281
 30
0.0
 10
38.56963989010355
 20
-71.77934571874967
 30
0.0
 10
38.53794513457402
 20
-71.76435137756425
 30
0.0
 10
38.50650491593766
 20
-71.74885524164205
 30
0.0
 10
38.4750646973013
 20
-71.73335910571984
 30
0.0
 10
38.44387901555842
 20
-71.71736117506084
 30
0.0
 10
38.41296070056721
 20
-71.70086882662116
 30
0.0
 10
38.382042385576
 20
-71.68437647818149
 30
0.0
 10
38.35139143733647
 20
-71.66738971195984
 30
0.0
 10
38.32102068570648
 20
-71.64991590491364
 30
0.0
 10
38.29064993407649
 20
-71.63244209786743
 30
0.0
 10
38.26055937905637
 20
-71.61448124999538
 30
0.0
 10
38.23076185050367
 20
-71.59604073825294
 30
0.0
 10
38.20096432195129
 20
-71.57760022651115
 30
0.0
 10
38.17145981986696
 20
-71.55868005089899
 30
0.0
 10
38.14226117410825
 20
-71.53928758837321
 30
0.0
 10
38.11306252834954
 20
-71.51989512584743
 30
0.0
 10
38.08416973891708
 20
-71.50003037640674
 30
0.0
 10
38.05559563566875
 20
-71.47970071700726
 30
0.0
 10
38.02702153242009
 20
-71.45937105760844
 30
0.0
 10
37.99876611535588
 20
-71.43857648825018
 30
0.0
 10
37.97084221433367
 20
-71.41732438588924
 30
0.0
 10
37.94291831331178
 20
-71.39607228352831
 30
0.0
 10
37.91532592833189
 20
-71.37436264816407
 30
0.0
 10
37.88807788925251
 20
-71.35220285675197
 30
0.0
 10
37.8608298501728
 20
-71.33004306534053
 30
0.0
 10
37.83392615699361
 20
-71.3074331178806
 30
0.0
 10
37.80737963957312
 20
-71.28438039132959
 30
0.0
 10
37.78083312215263
 20
-71.26132766477858
 30
0.0
 10
37.75464378049052
 20
-71.2378321591352
 30
0.0
 10
37.72882444444531
 20
-71.21390125135557
 30
0.0
 10
37.70300510839978
 20
-71.18997034357592
 30
0.0
 10
37.67755577797115
 20
-71.16560403366003
 30
0.0
 10
37.65248928301696
 20
-71.14080969856272
 30
0.0
 10
37.62742278806278
 20
-71.11601536346541
 30
0.0
 10
37.60273912858368
 20
-71.09079300318797
 30
0.0
 10
37.57845113443723
 20
-71.06514999468521
 30
0.0
 10
37.5541631402911
 20
-71.03950698618245
 30
0.0
 10
37.5302708114776
 20
-71.01344332945439
 30
0.0
 10
37.50678697785526
 20
-70.98696640145712
 30
0.0
 10
37.48330314423293
 20
-70.96048947345987
 30
0.0
 10
37.46022780580142
 20
-70.93359927419213
 30
0.0
 10
37.43757379241926
 20
-70.90630318061133
 30
0.0
 10
37.41491977903711
 20
-70.87900708702988
 30
0.0
 10
37.39268709070431
 20
-70.85130509913407
 30
0.0
 10
37.3708885572784
 20
-70.82320459388065
 30
0.0
 10
37.34909002385249
 20
-70.79510408862723
 30
0.0
 10
37.32772564533444
 20
-70.76660506601492
 30
0.0
 10
37.30680825158149
 20
-70.73771490299984
 30
0.0
 10
37.28589085782853
 20
-70.70882473998475
 30
0.0
 10
37.26542044884099
 20
-70.6795434365669
 30
0.0
 10
37.24540985447706
 20
-70.64987836970174
 30
0.0
 10
37.22539926011312
 20
-70.62021330283659
 30
0.0
 10
37.20584848037279
 20
-70.59016447252414
 30
0.0
 10
37.18677034511394
 20
-70.55973925571985
 30
0.0
 10
37.16769220985542
 20
-70.52931403891621
 30
0.0
 10
37.14908671907836
 20
-70.4985124356201
 30
0.0
 10
37.1309667026413
 20
-70.46734182278828
 30
0.0
 10
37.1309667026413
 20
-70.46734182278828
 30
0.0
 10
36.76557615708979
 20
-69.83875553211038
 30
0.0
 10
36.76557615708979
 20
-69.83875553211038
 30
0.0
 10
36.76557615708979
 20
-69.83875553211038
 30
0.0
 10
36.40018561153796
 20
-69.21016924143248
 30
0.0
 10
36.40018561153796
 20
-69.21016924143248
 30
0.0
 10
36.40018561153796
 20
-69.21016924143248
 30
0.0
 10
36.03479506598612
 20
-68.5815829507546
 30
0.0
 10
36.03479506598612
 20
-68.5815829507546
 30
0.0
 10
36.03479506598612
 20
-68.5815829507546
 30
0.0
 10
35.6694045204346
 20
-67.95299666007669
 30
0.0
 10
35.6694045204346
 20
-67.95299666007669
 30
0.0
 10
35.6694045204346
 20
-67.95299666007669
 30
0.0
 10
35.30401397488309
 20
-67.32441036939879
 30
0.0
 10
35.30401397488309
 20
-67.32441036939879
 30
0.0
 10
35.30401397488309
 20
-67.32441036939879
 30
0.0
 10
34.93862342933125
 20
-66.6958240787209
 30
0.0
 10
34.93862342933125
 20
-66.6958240787209
 30
0.0
 10
34.93862342933125
 20
-66.6958240787209
 30
0.0
 10
34.57323288377942
 20
-66.06723778804236
 30
0.0
 10
34.57323288377942
 20
-66.06723778804236
 30
0.0
 10
34.57323288377942
 20
-66.06723778804236
 30
0.0
 10
34.20784233822791
 20
-65.43865149736446
 30
0.0
 10
34.20784233822791
 20
-65.43865149736446
 30
0.0
 10
34.20784233822791
 20
-65.43865149736446
 30
0.0
 10
33.84245179267639
 20
-64.81006520668656
 30
0.0
 10
33.84245179267639
 20
-64.81006520668656
 30
0.0
 10
33.84245179267639
 20
-64.81006520668656
 30
0.0
 10
33.47706124712455
 20
-64.18147891600803
 30
0.0
 10
33.47706124712455
 20
-64.18147891600803
 30
0.0
 10
33.47706124712455
 20
-64.18147891600803
 30
0.0
 10
33.11167070157272
 20
-63.55289262533013
 30
0.0
 10
33.11167070157272
 20
-63.55289262533013
 30
0.0
 10
33.11167070157272
 20
-63.55289262533013
 30
0.0
 10
32.7462801560212
 20
-62.92430633465224
 30
0.0
 10
32.7462801560212
 20
-62.92430633465224
 30
0.0
 10
32.7462801560212
 20
-62.92430633465224
 30
0.0
 10
32.38088961046937
 20
-62.29572004397433
 30
0.0
 10
32.38088961046937
 20
-62.29572004397433
 30
0.0
 10
32.38088961046937
 20
-62.29572004397433
 30
0.0
 10
32.01549906491753
 20
-61.66713375329644
 30
0.0
 10
32.01549906491753
 20
-61.66713375329644
 30
0.0
 10
32.01549906491753
 20
-61.66713375329644
 30
0.0
 10
31.65010851936602
 20
-61.03854746261855
 30
0.0
 10
31.65010851936602
 20
-61.03854746261855
 30
0.0
 10
31.65010851936602
 20
-61.03854746261855
 30
0.0
 10
31.28471797381418
 20
-60.40996117194064
 30
0.0
 10
31.28471797381418
 20
-60.40996117194064
 30
0.0
 10
31.28471797381418
 20
-60.40996117194064
 30
0.0
 10
30.91932742826235
 20
-59.78137488126275
 30
0.0
 10
30.91932742826235
 20
-59.78137488126275
 30
0.0
 10
30.91932742826235
 20
-59.78137488126275
 30
0.0
 10
30.55393688271083
 20
-59.15278859058485
 30
0.0
 10
30.55393688271083
 20
-59.15278859058485
 30
0.0
 10
30.55393688271083
 20
-59.15278859058485
 30
0.0
 10
30.18854633715932
 20
-58.52420229990695
 30
0.0
 10
30.18854633715932
 20
-58.52420229990695
 30
0.0
 10
30.18854633715932
 20
-58.52420229990695
 30
0.0
 10
29.82315579160748
 20
-57.89561600922906
 30
0.0
 10
29.82315579160748
 20
-57.89561600922906
 30
0.0
 10
29.82315579160748
 20
-57.89561600922906
 30
0.0
 10
29.45776524605564
 20
-57.26702971855116
 30
0.0
 10
29.45776524605564
 20
-57.26702971855116
 30
0.0
 10
29.45776524605564
 20
-57.26702971855116
 30
0.0
 10
29.09237470050413
 20
-56.63844342787326
 30
0.0
 10
29.09237470050413
 20
-56.63844342787326
 30
0.0
 10
29.09237470050413
 20
-56.63844342787326
 30
0.0
 10
28.72698415495261
 20
-56.00985713719473
 30
0.0
 10
28.72698415495261
 20
-56.00985713719473
 30
0.0
 10
28.72698415495261
 20
-56.00985713719473
 30
0.0
 10
28.36159360940078
 20
-55.38127084651683
 30
0.0
 10
28.36159360940078
 20
-55.38127084651683
 30
0.0
 10
28.36159360940078
 20
-55.38127084651683
 30
0.0
 10
27.99620306384895
 20
-54.75268455583893
 30
0.0
 10
27.99620306384895
 20
-54.75268455583893
 30
0.0
 10
27.99620306384895
 20
-54.75268455583893
 30
0.0
 10
27.63081251829743
 20
-54.1240982651604
 30
0.0
 10
27.63081251829743
 20
-54.1240982651604
 30
0.0
 10
27.63081251829743
 20
-54.1240982651604
 30
0.0
 10
27.26542197274592
 20
-53.4955119744825
 30
0.0
 10
27.26542197274592
 20
-53.4955119744825
 30
0.0
 10
27.26542197274592
 20
-53.4955119744825
 30
0.0
 10
26.90003142719408
 20
-52.8669256838046
 30
0.0
 10
26.90003142719408
 20
-52.8669256838046
 30
0.0
 10
26.90003142719408
 20
-52.8669256838046
 30
0.0
 10
26.53464088164224
 20
-52.23833939312671
 30
0.0
 10
26.53464088164224
 20
-52.23833939312671
 30
0.0
 10
26.53464088164224
 20
-52.23833939312671
 30
0.0
 10
26.16925033609073
 20
-51.60975310244881
 30
0.0
 10
26.16925033609073
 20
-51.60975310244881
 30
0.0
 10
26.16925033609073
 20
-51.60975310244881
 30
0.0
 10
25.80385979053921
 20
-50.98116681177091
 30
0.0
 10
25.80385979053921
 20
-50.98116681177091
 30
0.0
 10
25.80385979053921
 20
-50.98116681177091
 30
0.0
 10
25.43846924498738
 20
-50.35258052109269
 30
0.0
 10
25.43846924498738
 20
-50.35258052109269
 30
0.0
 10
25.42018794863473
 20
-50.32113747597163
 30
0.0
 10
25.40247726171276
 20
-50.2894557801646
 30
0.0
 10
25.38533718422083
 20
-50.25755032379953
 30
0.0
 10
25.3681971067289
 20
-50.22564486743445
 30
0.0
 10
25.35162763866733
 20
-50.19351565051102
 30
0.0
 10
25.33562878003612
 20
-50.16117756315684
 30
0.0
 10
25.31962992140459
 20
-50.12883947580234
 30
0.0
 10
25.30420167220374
 20
-50.0962925180174
 30
0.0
 10
25.28934403243293
 20
-50.06355157992868
 30
0.0
 10
25.27448639266244
 20
-50.03081064183964
 30
0.0
 10
25.26019936232198
 20
-49.99787572344746
 30
0.0
 10
25.24648294141157
 20
-49.96476171487847
 30
0.0
 10
25.23276652050115
 20
-49.93164770630948
 30
0.0
 10
25.21962070902142
 20
-49.89835460756463
 30
0.0
 10
25.20704550697172
 20
-49.86489730877057
 30
0.0
 10
25.19447030492234
 20
-49.83144000997653
 30
0.0
 10
25.18246571230301
 20
-49.7978185111339
 30
0.0
 10
25.17103172911403
 20
-49.76404770236906
 30
0.0
 10
25.15959774592505
 20
-49.73027689360452
 30
0.0
 10
25.14873437216643
 20
-49.69635677491839
 30
0.0
 10
25.13844160783785
 20
-49.66230223643763
 30
0.0
 10
25.12814884350959
 20
-49.6282476979572
 30
0.0
 10
25.11842668861137
 20
-49.59405873968246
 30
0.0
 10
25.10927514314351
 20
-49.55975025174038
 30
0.0
 10
25.10012359767565
 20
-49.5254417637983
 30
0.0
 10
25.09154266163815
 20
-49.49101374618952
 30
0.0
 10
25.08353233503101
 20
-49.45648108904101
 30
0.0
 10
25.07552200842386
 20
-49.42194843189218
 30
0.0
 10
25.06808229124708
 20
-49.38731113520395
 30
0.0
 10
25.06121318350033
 20
-49.35258408910327
 30
0.0
 10
25.05434407575359
 20
-49.3178570430026
 30
0.0
 10
25.0480455774372
 20
-49.28304024748948
 30
0.0
 10
25.04231768855118
 20
-49.24814859269153
 30
0.0
 10
25.03658979966515
 20
-49.21325693789358
 30
0.0
 10
25.03143252020948
 20
-49.17829042381048
 30
0.0
 10
25.02684585018385
 20
-49.14326394056953
 30
0.0
 10
25.02225918015823
 20
-49.10823745732856
 30
0.0
 10
25.01824311956328
 20
-49.07315100493038
 30
0.0
 10
25.01479766839837
 20
-49.0380194735013
 30
0.0
 10
25.01135221723346
 20
-49.00288794207222
 30
0.0
 10
25.00847737549859
 20
-48.96771133161289
 30
0.0
 10
25.0061731431944
 20
-48.9325045322506
 30
0.0
 10
25.0038689108902
 20
-48.8972977328883
 30
0.0
 10
25.00213528801605
 20
-48.86206074462272
 30
0.0
 10
25.00097227457226
 20
-48.82680845758147
 30
0.0
 10
24.99980926112878
 20
-48.79155617054021
 30
0.0
 10
24.99921685711503
 20
-48.75628858472328
 30
0.0
 10
24.99919506253195
 20
-48.72102059025764
 30
0.0
 10
24.99917326794888
 20
-48.68575259579201
 30
0.0
 10
24.99972208279584
 20
-48.65048419267831
 30
0.0
 10
25.00084150707317
 20
-48.6152302710435
 30
0.0
 10
25.00196093135081
 20
-48.57997634940838
 30
0.0
 10
25.00365096505849
 20
-48.54473690925216
 30
0.0
 10
25.00591160819653
 20
-48.50952684070245
 30
0.0
 10
25.00817225133457
 20
-48.47431677215275
 30
0.0
 10
25.01100350390297
 20
-48.43913607520891
 30
0.0
 10
25.01440536590141
 20
-48.40399963999887
 30
0.0
 10
25.01780722790017
 20
-48.36886320478851
 30
0.0
 10
25.02177969932897
 20
-48.33377103131195
 30
0.0
 10
25.02632278018813
 20
-48.29873800969617
 30
0.0
 10
25.03086586104729
 20
-48.26370498808038
 30
0.0
 10
25.0359795513368
 20
-48.22873111832568
 30
0.0
 10
25.04166385105636
 20
-48.19383129055872
 30
0.0
 10
25.04734815077624
 20
-48.15893146279208
 30
0.0
 10
25.05360305992647
 20
-48.12410567701382
 30
0.0
 10
25.06042857850675
 20
-48.08936882335058
 30
0.0
 10
25.06725409708702
 20
-48.05463196968734
 30
0.0
 10
25.07465022509766
 20
-48.0199840481401
 30
0.0
 10
25.08261696253865
 20
-47.98543994883548
 30
0.0
 10
25.09058369997964
 20
-47.95089584953055
 30
0.0
 10
25.09912104685067
 20
-47.91645557246889
 30
0.0
 10
25.10822900315206
 20
-47.88213400777683
 30
0.0
 10
25.11733695945377
 20
-47.84781244308478
 30
0.0
 10
25.12701552518552
 20
-47.81360959076329
 30
0.0
 10
25.13726470034763
 20
-47.77954034093901
 30
0.0
 10
25.14751387550974
 20
-47.74547109111474
 30
0.0
 10
25.15833366010221
 20
-47.71153544378832
 30
0.0
 10
25.16972405412472
 20
-47.67774828908608
 30
0.0
 10
25.18111444814723
 20
-47.64396113438416
 30
0.0
 10
25.19307545160041
 20
-47.61032247230707
 30
0.0
 10
25.20560706448364
 20
-47.57684719298176
 30
0.0
 10
25.21813867736719
 20
-47.54337191365678
 30
0.0
 10
25.23124089968077
 20
-47.5100600170839
 30
0.0
 10
25.24491373142439
 20
-47.47692639339011
 30
0.0
 10
25.25858656316802
 20
-47.44379276969632
 30
0.0
 10
25.27283000434232
 20
-47.41083741888224
 30
0.0
 10
25.28764405494666
 20
-47.37807523107485
 30
0.0
 10
25.30245810555133
 20
-47.34531304326715
 30
0.0
 10
25.31784276558603
 20
-47.31274401846677
 30
0.0
 10
25.33379803505109
 20
-47.28038304680006
 30
0.0
 10
25.34975330451615
 20
-47.24802207513334
 30
0.0
 10
25.36627918341125
 20
-47.21586915660092
 30
0.0
 10
25.38337567173671
 20
-47.18393918132977
 30
0.0
 10
25.40047216006249
 20
-47.15200920605862
 30
0.0
 10
25.4181392578183
 20
-47.12030217404874
 30
0.0
 10
25.43637696500448
 20
-47.08883297542773
 30
0.0
 10
25.43637696500448
 20
-47.08883297542773
 30
0.0
 10
25.75429454952282
 20
-46.54026767627056
 30
0.0
 10
25.75429454952282
 20
-46.54026767627056
 30
0.0
 10
25.75429454952282
 20
-46.54026767627056
 30
0.0
 10
26.07221213404083
 20
-45.99170237711371
 30
0.0
 10
26.07221213404083
 20
-45.99170237711371
 30
0.0
 10
26.07221213404083
 20
-45.99170237711371
 30
0.0
 10
26.39012971855885
 20
-45.44313707795687
 30
0.0
 10
26.39012971855885
 20
-45.44313707795687
 30
0.0
 10
26.39012971855885
 20
-45.44313707795687
 30
0.0
 10
26.70804730307686
 20
-44.8945717787997
 30
0.0
 10
26.70804730307686
 20
-44.8945717787997
 30
0.0
 10
26.70804730307686
 20
-44.8945717787997
 30
0.0
 10
27.02596488759488
 20
-44.34600647964253
 30
0.0
 10
27.02596488759488
 20
-44.34600647964253
 30
0.0
 10
27.02596488759488
 20
-44.34600647964253
 30
0.0
 10
27.3438824721129
 20
-43.79744118048568
 30
0.0
 10
27.3438824721129
 20
-43.79744118048568
 30
0.0
 10
27.3438824721129
 20
-43.79744118048568
 30
0.0
 10
27.66180005663091
 20
-43.24887588132884
 30
0.0
 10
27.66180005663091
 20
-43.24887588132884
 30
0.0
 10
27.66180005663091
 20
-43.24887588132884
 30
0.0
 10
27.97971764114892
 20
-42.70031058217167
 30
0.0
 10
27.97971764114892
 20
-42.70031058217167
 30
0.0
 10
27.97971764114892
 20
-42.70031058217167
 30
0.0
 10
28.29763522566694
 20
-42.15174528301451
 30
0.0
 10
28.29763522566694
 20
-42.15174528301451
 30
0.0
 10
28.29763522566694
 20
-42.15174528301451
 30
0.0
 10
28.61555281018495
 20
-41.60317998385766
 30
0.0
 10
28.61555281018495
 20
-41.60317998385766
 30
0.0
 10
28.61555281018495
 20
-41.60317998385766
 30
0.0
 10
28.93347039470297
 20
-41.05461468470081
 30
0.0
 10
28.93347039470297
 20
-41.05461468470081
 30
0.0
 10
28.93347039470297
 20
-41.05461468470081
 30
0.0
 10
29.25138797922099
 20
-40.50604938554365
 30
0.0
 10
29.25138797922099
 20
-40.50604938554365
 30
0.0
 10
29.25138797922099
 20
-40.50604938554365
 30
0.0
 10
29.569305563739
 20
-39.95748408638648
 30
0.0
 10
29.569305563739
 20
-39.95748408638648
 30
0.0
 10
29.569305563739
 20
-39.95748408638648
 30
0.0
 10
29.88722314825702
 20
-39.40891878722963
 30
0.0
 10
29.88722314825702
 20
-39.40891878722963
 30
0.0
 10
29.88722314825702
 20
-39.40891878722963
 30
0.0
 10
30.20514073277503
 20
-38.86035348807278
 30
0.0
 10
30.20514073277503
 20
-38.86035348807278
 30
0.0
 10
30.20514073277503
 20
-38.86035348807278
 30
0.0
 10
30.52305831729337
 20
-38.31178818891561
 30
0.0
 10
30.52305831729337
 20
-38.31178818891561
 30
0.0
 10
30.52305831729337
 20
-38.31178818891561
 30
0.0
 10
30.8409759018117
 20
-37.76322288975845
 30
0.0
 10
30.8409759018117
 20
-37.76322288975845
 30
0.0
 10
30.8409759018117
 20
-37.76322288975845
 30
0.0
 10
31.15889348632972
 20
-37.2146575906016
 30
0.0
 10
31.15889348632972
 20
-37.2146575906016
 30
0.0
 10
31.15889348632972
 20
-37.2146575906016
 30
0.0
 10
31.47681107084773
 20
-36.66609229144444
 30
0.0
 10
31.47681107084773
 20
-36.66609229144444
 30
0.0
 10
31.47681107084773
 20
-36.66609229144444
 30
0.0
 10
31.79472865536575
 20
-36.11752699228727
 30
0.0
 10
31.79472865536575
 20
-36.11752699228727
 30
0.0
 10
31.79472865536575
 20
-36.11752699228727
 30
0.0
 10
32.11264623988377
 20
-35.56896169313042
 30
0.0
 10
32.11264623988377
 20
-35.56896169313042
 30
0.0
 10
32.11264623988377
 20
-35.56896169313042
 30
0.0
 10
32.43056382440178
 20
-35.02039639397326
 30
0.0
 10
32.43056382440178
 20
-35.02039639397326
 30
0.0
 10
32.43056382440178
 20
-35.02039639397326
 30
0.0
 10
32.74848140891979
 20
-34.47183109481609
 30
0.0
 10
32.74848140891979
 20
-34.47183109481609
 30
0.0
 10
32.74848140891979
 20
-34.47183109481609
 30
0.0
 10
33.06639899343813
 20
-33.92326579565924
 30
0.0
 10
33.06639899343813
 20
-33.92326579565924
 30
0.0
 10
33.06639899343813
 20
-33.92326579565924
 30
0.0
 10
33.38431657795647
 20
-33.37470049650239
 30
0.0
 10
33.38431657795647
 20
-33.37470049650239
 30
0.0
 10
33.38431657795647
 20
-33.37470049650239
 30
0.0
 10
33.70223416247448
 20
-32.82613519734522
 30
0.0
 10
33.70223416247448
 20
-32.82613519734522
 30
0.0
 10
33.70223416247448
 20
-32.82613519734522
 30
0.0
 10
34.0201517469925
 20
-32.27756989818806
 30
0.0
 10
34.0201517469925
 20
-32.27756989818806
 30
0.0
 10
34.0201517469925
 20
-32.27756989818806
 30
0.0
 10
34.33806933151052
 20
-31.72900459903121
 30
0.0
 10
34.33806933151052
 20
-31.72900459903121
 30
0.0
 10
34.33806933151052
 20
-31.72900459903121
 30
0.0
 10
34.65598691602853
 20
-31.18043929987437
 30
0.0
 10
34.65598691602853
 20
-31.18043929987437
 30
0.0
 10
34.65598691602853
 20
-31.18043929987437
 30
0.0
 10
34.97390450054655
 20
-30.6318740007172
 30
0.0
 10
34.97390450054655
 20
-30.6318740007172
 30
0.0
 10
34.97390450054655
 20
-30.6318740007172
 30
0.0
 10
35.29182208506456
 20
-30.08330870156003
 30
0.0
 10
35.29182208506456
 20
-30.08330870156003
 30
0.0
 10
35.29182208506456
 20
-30.08330870156003
 30
0.0
 10
35.60973966958289
 20
-29.53474340240319
 30
0.0
 10
35.60973966958289
 20
-29.53474340240319
 30
0.0
 10
35.62785096818686
 20
-29.50350086744699
 30
0.0
 10
35.6464486946436
 20
-29.47262822743193
 30
0.0
 10
35.66552002335165
 20
-29.44213287421181
 30
0.0
 10
35.6845913520597
 20
-29.4116375209917
 30
0.0
 10
35.70413628301969
 20
-29.38151945456716
 30
0.0
 10
35.72414199062919
 20
-29.351786066792
 30
0.0
 10
35.744147698239
 20
-29.32205267901684
 30
0.0
 10
35.76461418249897
 20
-29.29270396989106
 30
0.0
 10
35.78552861780727
 20
-29.2637473312691
 30
0.0
 10
35.80644305311589
 20
-29.23479069264714
 30
0.0
 10
35.82780543947317
 20
-29.206226124529
 30
0.0
 10
35.84960295127763
 20
-29.17806101876849
 30
0.0
 10
35.87140046308209
 20
-29.14989591300797
 30
0.0
 10
35.89363310033405
 20
-29.12213026960571
 30
0.0
 10
35.91628803743203
 20
-29.09477148041552
 30
0.0
 10
35.93894297453001
 20
-29.06741269122533
 30
0.0
 10
35.962020211474
 20
-29.04046075624719
 30
0.0
 10
35.9855069226622
 20
-29.01392306733556
 30
0.0
 10
36.00899363385073
 20
-28.98738537842393
 30
0.0
 10
36.0328898192838
 20
-28.96126193557849
 30
0.0
 10
36.05718265335991
 20
-28.93556013065398
 30
0.0
 10
36.08147548743634
 20
-28.90985832572916
 30
0.0
 10
36.1061649701555
 20
-28.88457815872528
 30
0.0
 10
36.13123827591688
 20
-28.85972702149583
 30
0.0
 10
36.15631158167826
 20
-28.83487588426637
 30
0.0
 10
36.1817687104812
 20
-28.8104537768123
 30
0.0
 10
36.20759683672487
 20
-28.78646809098709
 30
0.0
 10
36.23342496296823
 20
-28.76248240516189
 30
0.0
 10
36.25962408665232
 20
-28.73893314096555
 30
0.0
 10
36.28618138217532
 20
-28.71582769025283
 30
0.0
 10
36.31273867769833
 20
-28.69272223954012
 30
0.0
 10
36.33965414506027
 20
-28.67006060231039
 30
0.0
 10
36.36691495865996
 20
-28.6478501704184
 30
0.0
 10
36.39417577225998
 20
-28.62563973852674
 30
0.0
 10
36.42178193209712
 20
-28.60388051197219
 30
0.0
 10
36.44972061257118
 20
-28.5825798826095
 30
0.0
 10
36.47765929304524
 20
-28.56127925324681
 30
0.0
 10
36.50593049415527
 20
-28.54043722107599
 30
0.0
 10
36.53452139030009
 20
-28.52006117795116
 30
0.0
 10
36.56311228644523
 20
-28.49968513482633
 30
0.0
 10
36.59202287762518
 20
-28.47977508074748
 30
0.0
 10
36.62124033823876
 20
-28.46033840756906
 30
0.0
 10
36.65045779885234
 20
-28.44090173439065
 30
0.0
 10
36.67998212889955
 20
-28.42193844211202
 30
0.0
 10
36.70980050277861
 20
-28.40345592258827
 30
0.0
 10
36.73961887665798
 20
-28.38497340306419
 30
0.0
 10
36.76973129436919
 20
-28.36697165629499
 30
0.0
 10
36.80012493031171
 20
-28.34945807413413
 30
0.0
 10
36.83051856625423
 20
-28.33194449197327
 30
0.0
 10
36.86119342042711
 20
-28.31491907442141
 30
0.0
 10
36.89213666722949
 20
-28.29838921333201
 30
0.0
 10
36.92307991403187
 20
-28.28185935224294
 30
0.0
 10
36.95429155346377
 20
-28.26582504761666
 30
0.0
 10
36.98575875992369
 20
-28.2502936913076
 30
0.0
 10
37.01722596638361
 20
-28.23476233499855
 30
0.0
 10
37.04894873987157
 20
-28.21973392700673
 30
0.0
 10
37.08091425478639
 20
-28.20521585918595
 30
0.0
 10
37.1128797697012
 20
-28.19069779136548
 30
0.0
 10
37.14508802604225
 20
-28.17669006371637
 30
0.0
 10
37.177526198209
 20
-28.16320006809273
 30
0.0
 10
37.20996437037575
 20
-28.14971007246909
 30
0.0
 10
37.24263245836757
 20
-28.13673780887125
 30
0.0
 10
37.27551763658328
 20
-28.12429066915331
 30
0.0
 10
37.30840281479932
 20
-28.11184352943506
 30
0.0
 10
37.34150508323926
 20
-28.09992151359672
 30
0.0
 10
37.37481161630129
 20
-28.08853201349242
 30
0.0
 10
37.40811814936365
 20
-28.07714251338812
 30
0.0
 10
37.44162894704844
 20
-28.06628552901785
 30
0.0
 10
37.47533118375447
 20
-28.05596845223606
 30
0.0
 10
37.50903342046051
 20
-28.04565137545427
 30
0.0
 10
37.54292709618748
 20
-28.03587420626064
 30
0.0
 10
37.57699938533455
 20
-28.0266443365096
 30
0.0
 10
37.61107167448163
 20
-28.01741446675856
 30
0.0
 10
37.64532257704816
 20
-28.00873189645012
 30
0.0
 10
37.67973926743329
 20
-28.0006040174384
 30
0.0
 10
37.71415595781843
 20
-27.99247613842635
 30
0.0
 10
37.74873843602219
 20
-27.98490295071135
 30
0.0
 10
37.78347387644276
 20
-27.9778918461475
 30
0.0
 10
37.81820931686332
 20
-27.97088074158365
 30
0.0
 10
37.85309771950102
 20
-27.96443172017032
 30
0.0
 10
37.88812625875436
 20
-27.95855217376259
 30
0.0
 10
37.92315479800739
 20
-27.95267262735486
 30
0.0
 10
37.95832347387639
 20
-27.94736255595209
 30
0.0
 10
37.99361946075955
 20
-27.94262935140904
 30
0.0
 10
38.02891544764272
 20
-27.93789614686599
 30
0.0
 10
38.06433874554004
 20
-27.93373980918202
 30
0.0
 10
38.0998765288507
 20
-27.93016773021189
 30
0.0
 10
38.13541431216104
 20
-27.92659565124175
 30
0.0
 10
38.17106658088438
 20
-27.92360783098547
 30
0.0
 10
38.20682050941893
 20
-27.92121166129682
 30
0.0
 10
38.24257443795346
 20
-27.91881549160817
 30
0.0
 10
38.27843002629985
 20
-27.9170109724878
 30
0.0
 10
38.31437444885628
 20
-27.9158054957892
 30
0.0
 10
38.35031887141303
 20
-27.91460001909059
 30
0.0
 10
38.3863521281795
 20
-27.91399358481439
 30
0.0
 10
38.42246139355485
 20
-27.91399358481439
 30
0.0
 10
38.42246139355485
 20
-27.91399358481439
 30
0.0
 10
39.15090174642709
 20
-27.91399358481439
 30
0.0
 10
39.15090174642709
 20
-27.91399358481439
 30
0.0
 10
39.15090174642709
 20
-27.91399358481439
 30
0.0
 10
39.87934209929933
 20
-27.91399358481439
 30
0.0
 10
39.87934209929933
 20
-27.91399358481439
 30
0.0
 10
39.87934209929933
 20
-27.91399358481439
 30
0.0
 10
40.60778245217158
 20
-27.91399358481439
 30
0.0
 10
40.60778245217158
 20
-27.91399358481439
 30
0.0
 10
40.60778245217158
 20
-27.91399358481439
 30
0.0
 10
41.33622280504382
 20
-27.91399358481439
 30
0.0
 10
41.33622280504382
 20
-27.91399358481439
 30
0.0
 10
41.33622280504382
 20
-27.91399358481439
 30
0.0
 10
42.06466315791607
 20
-27.91399358481439
 30
0.0
 10
42.06466315791607
 20
-27.91399358481439
 30
0.0
 10
42.06466315791607
 20
-27.91399358481439
 30
0.0
 10
42.79310351078831
 20
-27.91399358481439
 30
0.0
 10
42.79310351078831
 20
-27.91399358481439
 30
0.0
 10
42.79310351078831
 20
-27.91399358481439
 30
0.0
 10
43.52154386366055
 20
-27.91399358481439
 30
0.0
 10
43.52154386366055
 20
-27.91399358481439
 30
0.0
 10
43.52154386366055
 20
-27.91399358481439
 30
0.0
 10
44.24998421653279
 20
-27.91399358481439
 30
0.0
 10
44.24998421653279
 20
-27.91399358481439
 30
0.0
 10
44.24998421653279
 20
-27.91399358481439
 30
0.0
 10
44.97842456940504
 20
-27.91399358481439
 30
0.0
 10
44.97842456940504
 20
-27.91399358481439
 30
0.0
 10
44.97842456940504
 20
-27.91399358481439
 30
0.0
 10
45.70686492227728
 20
-27.91399358481439
 30
0.0
 10
45.70686492227728
 20
-27.91399358481439
 30
0.0
 10
45.70686492227728
 20
-27.91399358481439
 30
0.0
 10
46.43530527514952
 20
-27.91399358481439
 30
0.0
 10
46.43530527514952
 20
-27.91399358481439
 30
0.0
 10
46.43530527514952
 20
-27.91399358481439
 30
0.0
 10
47.16374562802177
 20
-27.91399358481439
 30
0.0
 10
47.16374562802177
 20
-27.91399358481439
 30
0.0
 10
47.16374562802177
 20
-27.91399358481439
 30
0.0
 10
47.89218598089401
 20
-27.91399358481439
 30
0.0
 10
47.89218598089401
 20
-27.91399358481439
 30
0.0
 10
47.89218598089401
 20
-27.91399358481439
 30
0.0
 10
48.62062633376626
 20
-27.91399358481439
 30
0.0
 10
48.62062633376626
 20
-27.91399358481439
 30
0.0
 10
48.62062633376626
 20
-27.91399358481439
 30
0.0
 10
49.3490666866385
 20
-27.91399358481439
 30
0.0
 10
49.3490666866385
 20
-27.91399358481439
 30
0.0
 10
49.3490666866385
 20
-27.91399358481439
 30
0.0
 10
50.07750703951074
 20
-27.91399358481439
 30
0.0
 10
50.07750703951074
 20
-27.91399358481439
 30
0.0
 10
50.07750703951074
 20
-27.91399358481439
 30
0.0
 10
50.80594739238299
 20
-27.91399358481439
 30
0.0
 10
50.80594739238299
 20
-27.91399358481439
 30
0.0
 10
50.80594739238299
 20
-27.91399358481439
 30
0.0
 10
51.53438774525523
 20
-27.91399358481439
 30
0.0
 10
51.53438774525523
 20
-27.91399358481439
 30
0.0
 10
51.53438774525523
 20
-27.91399358481439
 30
0.0
 10
52.26282809812748
 20
-27.91399358481439
 30
0.0
 10
52.26282809812748
 20
-27.91399358481439
 30
0.0
 10
52.26282809812748
 20
-27.91399358481439
 30
0.0
 10
52.99126845099972
 20
-27.91399358481439
 30
0.0
 10
52.99126845099972
 20
-27.91399358481439
 30
0.0
 10
52.99126845099972
 20
-27.91399358481439
 30
0.0
 10
53.71970880387197
 20
-27.91399358481439
 30
0.0
 10
53.71970880387197
 20
-27.91399358481439
 30
0.0
 10
53.71970880387197
 20
-27.91399358481439
 30
0.0
 10
54.44814915674421
 20
-27.91399358481439
 30
0.0
 10
54.44814915674421
 20
-27.91399358481439
 30
0.0
 10
54.44814915674421
 20
-27.91399358481439
 30
0.0
 10
55.17658950961645
 20
-27.91399358481439
 30
0.0
 10
55.17658950961645
 20
-27.91399358481439
 30
0.0
 10
55.17658950961645
 20
-27.91399358481439
 30
0.0
 10
55.9050298624887
 20
-27.91399358481439
 30
0.0
 10
55.9050298624887
 20
-27.91399358481439
 30
0.0
 10
55.9050298624887
 20
-27.91399358481439
 30
0.0
 10
56.63347021536094
 20
-27.91399358481439
 30
0.0
 10
56.63347021536094
 20
-27.91399358481439
 30
0.0
 10
56.63347021536094
 20
-27.91399358481439
 30
0.0
 10
57.36191056823318
 20
-27.91399358481439
 30
0.0
 10
57.36191056823318
 20
-27.91399358481439
 30
0.0
 10
57.36191056823318
 20
-27.91399358481439
 30
0.0
 10
58.09035092110543
 20
-27.91399358481439
 30
0.0
 10
58.09035092110543
 20
-27.91399358481439
 30
0.0
 10
58.09035092110543
 20
-27.91399358481439
 30
0.0
 10
58.81879127397767
 20
-27.91399358481439
 30
0.0
 10
58.81879127397767
 20
-27.91399358481439
 30
0.0
 10
58.81879127397767
 20
-27.91399358481439
 30
0.0
 10
59.54723162684991
 20
-27.91399358481439
 30
0.0
 10
59.54723162684991
 20
-27.91399358481439
 30
0.0
 10
59.54723162684991
 20
-27.91399358481439
 30
0.0
 10
60.27567197972215
 20
-27.91399358481439
 30
0.0
 10
60.27567197972215
 20
-27.91399358481439
 30
0.0
 10
60.27567197972215
 20
-27.91399358481439
 30
0.0
 10
61.0041123325944
 20
-27.91399358481439
 30
0.0
 10
61.0041123325944
 20
-27.91399358481439
 30
0.0
 10
61.0041123325944
 20
-27.91399358481439
 30
0.0
 10
61.73255268546664
 20
-27.91399358481439
 30
0.0
 10
61.73255268546664
 20
-27.91399358481439
 30
0.0
 10
61.7689409215067
 20
-27.91399358481439
 30
0.0
 10
61.80524851758864
 20
-27.91460717043816
 30
0.0
 10
61.84146259277342
 20
-27.91582685831182
 30
0.0
 10
61.87767666795884
 20
-27.91704654618515
 30
0.0
 10
61.91379722224711
 20
-27.91887233630838
 30
0.0
 10
61.94981137469919
 20
-27.92129674530634
 30
0.0
 10
61.98582552715126
 20
-27.92372115430429
 30
0.0
 10
62.02173327776777
 20
-27.92674418217729
 30
0.0
 10
62.05752174560905
 20
-27.93035834555115
 30
0.0
 10
62.09331021345033
 20
-27.93397250892468
 30
0.0
 10
62.12897939851573
 20
-27.93817780779905
 30
0.0
 10
62.16451641986686
 20
-27.94296675879944
 30
0.0
 10
62.20005344121797
 20
-27.94775570979983
 30
0.0
 10
62.23545829885482
 20
-27.95312831292654
 30
0.0
 10
62.27071811183834
 20
-27.95907708480473
 30
0.0
 10
62.30597792482122
 20
-27.96502585668293
 30
0.0
 10
62.34109269315142
 20
-27.97155079731293
 30
0.0
 10
62.37604953588799
 20
-27.97864442332022
 30
0.0
 10
62.41100637862455
 20
-27.98573804932719
 30
0.0
 10
62.44580529576875
 20
-27.99340036071177
 30
0.0
 10
62.48043340638091
 20
-28.0016238740991
 30
0.0
 10
62.51506151699306
 20
-28.00984738748612
 30
0.0
 10
62.54951882107318
 20
-28.01863210287655
 30
0.0
 10
62.58379243768157
 20
-28.02797053689489
 30
0.0
 10
62.61806605428996
 20
-28.03730897091324
 30
0.0
 10
62.65215598342791
 20
-28.04720112356015
 30
0.0
 10
62.68604934415573
 20
-28.05763951146078
 30
0.0
 10
62.71994270488292
 20
-28.06807789936142
 30
0.0
 10
62.75363949719998
 20
-28.07906252251578
 30
0.0
 10
62.78712684016723
 20
-28.09058589754998
 30
0.0
 10
62.82061418313449
 20
-28.10210927258386
 30
0.0
 10
62.85389207675257
 20
-28.11417139949726
 30
0.0
 10
62.88694764008181
 20
-28.12676479491566
 30
0.0
 10
62.92000320341106
 20
-28.13935819033407
 30
0.0
 10
62.95283643645145
 20
-28.15248285425747
 30
0.0
 10
62.98543445826395
 20
-28.16613130331136
 30
0.0
 10
63.01803248007646
 20
-28.17977975236525
 30
0.0
 10
63.05039529066107
 20
-28.19395198654961
 30
0.0
 10
63.08251000907876
 20
-28.20864052249026
 30
0.0
 10
63.11462472749581
 20
-28.22332905843059
 30
0.0
 10
63.14649135374593
 20
-28.23853389612752
 30
0.0
 10
63.17809700689008
 20
-28.25424755220557
 30
0.0
 10
63.20970266003422
 20
-28.26996120828393
 30
0.0
 10
63.2410473400724
 20
-28.28618368274406
 30
0.0
 10
63.27211816606429
 20
-28.30290749221111
 30
0.0
 10
63.30318899205681
 20
-28.31963130167815
 30
0.0
 10
63.33398596400369
 20
-28.33685644615244
 30
0.0
 10
63.36449620096587
 20
-28.35457544225945
 30
0.0
 10
63.39500643792805
 20
-28.37229443836645
 30
0.0
 10
63.42522993990553
 20
-28.39050728610617
 30
0.0
 10
63.45515382595929
 20
-28.40920650210409
 30
0.0
 10
63.48507771201241
 20
-28.42790571810201
 30
0.0
 10
63.51470198214242
 20
-28.44709130235845
 30
0.0
 10
63.54401375540903
 20
-28.46675577149856
 30
0.0
 10
63.57332552867563
 20
-28.486420240639
 30
0.0
 10
63.6023248050801
 20
-28.50656359466279
 30
0.0
 10
63.63099870368148
 20
-28.52717835019637
 30
0.0
 10
63.65967260228285
 20
-28.54779310572964
 30
0.0
 10
63.68802112308241
 20
-28.56887926277238
 30
0.0
 10
63.71603138513982
 20
-28.59042933795008
 30
0.0
 10
63.74404164719724
 20
-28.61197941312746
 30
0.0
 10
63.7717136505138
 20
-28.63399340644011
 30
0.0
 10
63.79903451414982
 20
-28.6564638345132
 30
0.0
 10
63.82635537778585
 20
-28.67893426258629
 30
0.0
 10
63.85332510174069
 20
-28.70186112541981
 30
0.0
 10
63.87993080507596
 20
-28.72523693963957
 30
0.0
 10
63.90653650841186
 20
-28.74861275385933
 30
0.0
 10
63.93277819112691
 20
-28.77243751946468
 30
0.0
 10
63.95864297228397
 20
-28.79670375308206
 30
0.0
 10
63.98450775344039
 20
-28.82096998669913
 30
0.0
 10
64.00999563303819
 20
-28.8456776883279
 30
0.0
 10
64.03509373013769
 20
-28.87081937459388
 30
0.0
 10
64.06019182723719
 20
-28.89596106085985
 30
0.0
 10
64.08490014183903
 20
-28.92153673176301
 30
0.0
 10
64.10920579300289
 20
-28.94753890392852
 30
0.0
 10
64.13351144416674
 20
-28.97354107609404
 30
0.0
 10
64.1574144318939
 20
-28.99996974952222
 30
0.0
 10
64.18090187524402
 20
-29.02681744083888
 30
0.0
 10
64.20438931859414
 20
-29.05366513215554
 30
0.0
 10
64.22746121756788
 20
-29.08093184136035
 30
0.0
 10
64.2501046912262
 20
-29.10861008507879
 30
0.0
 10
64.27274816488388
 20
-29.13628832879755
 30
0.0
 10
64.29496321322613
 20
-29.16437810702994
 30
0.0
 10
64.31673695531327
 20
-29.19287193640144
 30
0.0
 10
64.33851069740106
 20
-29.22136576577294
 30
0.0
 10
64.35984313323308
 20
-29.25026364628419
 30
0.0
 10
64.38072138187162
 20
-29.2795580945597
 30
0.0
 10
64.40159963051015
 20
-29.30885254283554
 30
0.0
 10
64.42202369195388
 20
-29.33854355887629
 30
0.0
 10
64.44198068526508
 20
-29.36862365930743
 30
0.0
 10
64.46193767857628
 20
-29.39870375973856
 30
0.0
 10
64.48142760375427
 20
-29.42917294456009
 30
0.0
 10
64.50043757985877
 20
-29.46002373039748
 30
0.0
 10
64.51944755596453
 20
-29.49087451623519
 30
0.0
 10
64.5379775829968
 20
-29.52210690308877
 30
0.0
 10
64.55601478001779
 20
-29.5537134075837
 30
0.0
 10
64.55601478001779
 20
-29.5537134075837
 30
0.0
 10
64.8690721724918
 20
-30.10234191103213
 30
0.0
 10
64.8690721724918
 20
-30.10234191103213
 30
0.0
 10
64.8690721724918
 20
-30.10234191103213
 30
0.0
 10
65.1821295649658
 20
-30.65097041448025
 30
0.0
 10
65.1821295649658
 20
-30.65097041448025
 30
0.0
 10
65.1821295649658
 20
-30.65097041448025
 30
0.0
 10
65.49518695743981
 20
-31.19959891792837
 30
0.0
 10
65.49518695743981
 20
-31.19959891792837
 30
0.0
 10
65.49518695743981
 20
-31.19959891792837
 30
0.0
 10
65.80824434991382
 20
-31.74822742137648
 30
0.0
 10
65.80824434991382
 20
-31.74822742137648
 30
0.0
 10
65.80824434991382
 20
-31.74822742137648
 30
0.0
 10
66.12130174238783
 20
-32.29685592482461
 30
0.0
 10
66.12130174238783
 20
-32.29685592482461
 30
0.0
 10
66.12130174238783
 20
-32.29685592482461
 30
0.0
 10
66.43435913486185
 20
-32.84548442827272
 30
0.0
 10
66.43435913486185
 20
-32.84548442827272
 30
0.0
 10
66.43435913486185
 20
-32.84548442827272
 30
0.0
 10
66.74741652733586
 20
-33.39411293172083
 30
0.0
 10
66.74741652733586
 20
-33.39411293172083
 30
0.0
 10
66.74741652733586
 20
-33.39411293172083
 30
0.0
 10
67.06047391980987
 20
-33.94274143516895
 30
0.0
 10
67.06047391980987
 20
-33.94274143516895
 30
0.0
 10
67.06047391980987
 20
-33.94274143516895
 30
0.0
 10
67.37353131228387
 20
-34.49136993861707
 30
0.0
 10
67.37353131228387
 20
-34.49136993861707
 30
0.0
 10
67.37353131228387
 20
-34.49136993861707
 30
0.0
 10
67.68658870475788
 20
-35.03999844206518
 30
0.0
 10
67.68658870475788
 20
-35.03999844206518
 30
0.0
 10
67.68658870475788
 20
-35.03999844206518
 30
0.0
 10
67.99964609723189
 20
-35.5886269455133
 30
0.0
 10
67.99964609723189
 20
-35.5886269455133
 30
0.0
 10
67.99964609723189
 20
-35.5886269455133
 30
0.0
 10
68.3127034897059
 20
-36.13725544896142
 30
0.0
 10
68.3127034897059
 20
-36.13725544896142
 30
0.0
 10
68.3127034897059
 20
-36.13725544896142
 30
0.0
 10
68.62576088217992
 20
-36.68588395240954
 30
0.0
 10
68.62576088217992
 20
-36.68588395240954
 30
0.0
 10
68.62576088217992
 20
-36.68588395240954
 30
0.0
 10
68.93881827465393
 20
-37.23451245585765
 30
0.0
 10
68.93881827465393
 20
-37.23451245585765
 30
0.0
 10
68.93881827465393
 20
-37.23451245585765
 30
0.0
 10
69.25187566712793
 20
-37.78314095930577
 30
0.0
 10
69.25187566712793
 20
-37.78314095930577
 30
0.0
 10
69.25187566712793
 20
-37.78314095930577
 30
0.0
 10
69.56493305960194
 20
-38.33176946275421
 30
0.0
 10
69.56493305960194
 20
-38.33176946275421
 30
0.0
 10
69.56493305960194
 20
-38.33176946275421
 30
0.0
 10
69.87799045207595
 20
-38.88039796620264
 30
0.0
 10
69.87799045207595
 20
-38.88039796620264
 30
0.0
 10
69.87799045207595
 20
-38.88039796620264
 30
0.0
 10
70.19104784454996
 20
-39.42902646965076
 30
0.0
 10
70.19104784454996
 20
-39.42902646965076
 30
0.0
 10
70.19104784454996
 20
-39.42902646965076
 30
0.0
 10
70.50410523702396
 20
-39.97765497309888
 30
0.0
 10
70.50410523702396
 20
-39.97765497309888
 30
0.0
 10
70.50410523702396
 20
-39.97765497309888
 30
0.0
 10
70.81716262949799
 20
-40.52628347654699
 30
0.0
 10
70.81716262949799
 20
-40.52628347654699
 30
0.0
 10
70.81716262949799
 20
-40.52628347654699
 30
0.0
 10
71.130220021972
 20
-41.07491197999511
 30
0.0
 10
71.130220021972
 20
-41.07491197999511
 30
0.0
 10
71.130220021972
 20
-41.07491197999511
 30
0.0
 10
71.443277414446
 20
-41.62354048344323
 30
0.0
 10
71.443277414446
 20
-41.62354048344323
 30
0.0
 10
71.443277414446
 20
-41.62354048344323
 30
0.0
 10
71.75633480691937
 20
-42.17216898689134
 30
0.0
 10
71.75633480691937
 20
-42.17216898689134
 30
0.0
 10
71.75633480691937
 20
-42.17216898689134
 30
0.0
 10
72.06939219939338
 20
-42.72079749033946
 30
0.0
 10
72.06939219939338
 20
-42.72079749033946
 30
0.0
 10
72.06939219939338
 20
-42.72079749033946
 30
0.0
 10
72.38244959186738
 20
-43.26942599378758
 30
0.0
 10
72.38244959186738
 20
-43.26942599378758
 30
0.0
 10
72.38244959186738
 20
-43.26942599378758
 30
0.0
 10
72.69550698434075
 20
-43.8180544972357
 30
0.0
 10
72.69550698434075
 20
-43.8180544972357
 30
0.0
 10
72.69550698434075
 20
-43.8180544972357
 30
0.0
 10
73.00856437681476
 20
-44.36668300068381
 30
0.0
 10
73.00856437681476
 20
-44.36668300068381
 30
0.0
 10
73.00856437681476
 20
-44.36668300068381
 30
0.0
 10
73.32162176928878
 20
-44.91531150413225
 30
0.0
 10
73.32162176928878
 20
-44.91531150413225
 30
0.0
 10
73.32162176928878
 20
-44.91531150413225
 30
0.0
 10
73.63467916176279
 20
-45.46394000758069
 30
0.0
 10
73.63467916176279
 20
-45.46394000758069
 30
0.0
 10
73.63467916176279
 20
-45.46394000758069
 30
0.0
 10
73.9477365542368
 20
-46.0125685110288
 30
0.0
 10
73.9477365542368
 20
-46.0125685110288
 30
0.0
 10
73.9477365542368
 20
-46.0125685110288
 30
0.0
 10
74.2607939467108
 20
-46.56119701447692
 30
0.0
 10
74.2607939467108
 20
-46.56119701447692
 30
0.0
 10
74.2607939467108
 20
-46.56119701447692
 30
0.0
 10
74.57385133918481
 20
-47.10982551792504
 30
0.0
 10
74.57385133918481
 20
-47.10982551792504
 30
0.0
 10
74.59157469420838
 20
-47.14088497838289
 30
0.0
 10
74.60874419438765
 20
-47.17217968412231
 30
0.0
 10
74.62535983546564
 20
-47.20369492805715
 30
0.0
 10
74.64197547654365
 20
-47.23521017199197
 30
0.0
 10
74.65803725852034
 20
-47.26694595412157
 30
0.0
 10
74.6735451771387
 20
-47.29888756735976
 30
0.0
 10
74.68905309575771
 20
-47.33082918059795
 30
0.0
 10
74.70400715101839
 20
-47.3629766249441
 30
0.0
 10
74.71840733866435
 20
-47.39531519331171
 30
0.0
 10
74.73280752631032
 20
-47.42765376167932
 30
0.0
 10
74.74665384634156
 20
-47.4601834540684
 30
0.0
 10
74.75994629450106
 20
-47.4928895633915
 30
0.0
 10
74.77323874266055
 20
-47.52559567271459
 30
0.0
 10
74.78597731894894
 20
-47.55847819897235
 30
0.0
 10
74.79816201910918
 20
-47.59152243507795
 30
0.0
 10
74.8103467192688
 20
-47.62456667118323
 30
0.0
 10
74.82197754330026
 20
-47.65777261713637
 30
0.0
 10
74.83305448694719
 20
-47.69112556584989
 30
0.0
 10
74.84413143059413
 20
-47.72447851456342
 30
0.0
 10
74.85465449385526
 20
-47.75797846603768
 30
0.0
 10
74.86462367247546
 20
-47.79161071318583
 30
0.0
 10
74.87459285109503
 20
-47.82524296033399
 30
0.0
 10
74.88400814507304
 20
-47.85900750315606
 30
0.0
 10
74.89286955015244
 20
-47.89288963456492
 30
0.0
 10
74.90173095523186
 20
-47.92677176597377
 30
0.0
 10
74.91003847141332
 20
-47.96077148596972
 30
0.0
 10
74.91779209443916
 20
-47.99487408746565
 30
0.0
 10
74.925545717465
 20
-48.02897668896158
 30
0.0
 10
74.93274544733522
 20
-48.06318217195747
 30
0.0
 10
74.93939127979343
 20
-48.09747582936654
 30
0.0
 10
74.94603711225227
 20
-48.1317694867756
 30
0.0
 10
74.95212904729846
 20
-48.16615131859814
 30
0.0
 10
74.95766708067625
 20
-48.20060661774671
 30
0.0
 10
74.9632051140534
 20
-48.2350619168953
 30
0.0
 10
74.96818924576213
 20
-48.26959068337055
 30
0.0
 10
74.97261947154544
 20
-48.30417821008471
 30
0.0
 10
74.97704969732875
 20
-48.33876573679886
 30
0.0
 10
74.98092601718662
 20
-48.37341202375288
 30
0.0
 10
74.98424842686204
 20
-48.40810236385933
 30
0.0
 10
74.98757083653744
 20
-48.44279270396576
 30
0.0
 10
74.99033933603039
 20
-48.47752709722462
 30
0.0
 10
74.99255392108448
 20
-48.5122908365494
 30
0.0
 10
74.99476850613856
 20
-48.54705457587418
 30
0.0
 10
74.9964291767538
 20
-48.58184766126426
 30
0.0
 10
74.99753592867314
 20
-48.61665538563344
 30
0.0
 10
74.99864268059248
 20
-48.65146311000263
 30
0.0
 10
74.99919551381595
 20
-48.68628547335029
 30
0.0
 10
74.99919442408648
 20
-48.72110776859027
 30
0.0
 10
74.99919333435703
 20
-48.75593006383024
 30
0.0
 10
74.99863832167594
 20
-48.79075229096188
 30
0.0
 10
74.9975293817849
 20
-48.8255597428987
 30
0.0
 10
74.99642044189385
 20
-48.86036719483521
 30
0.0
 10
74.99475757479286
 20
-48.89515987157721
 30
0.0
 10
74.9925407762268
 20
-48.92992306603726
 30
0.0
 10
74.99032397766076
 20
-48.96468626049732
 30
0.0
 10
74.98755324762773
 20
-48.99941997267542
 30
0.0
 10
74.98422858187261
 20
-49.03410949548508
 30
0.0
 10
74.98090391611686
 20
-49.06879901829443
 30
0.0
 10
74.97702531463901
 20
-49.10344435173533
 30
0.0
 10
74.9725927731814
 20
-49.13803078872068
 30
0.0
 10
74.9681602317238
 20
-49.17261722570602
 30
0.0
 10
74.96317375028643
 20
-49.20714476623579
 30
0.0
 10
74.95763332461291
 20
-49.24159870322286
 30
0.0
 10
74.9520928989394
 20
-49.27605264021026
 30
0.0
 10
74.94599852902974
 20
-49.31043297365496
 30
0.0
 10
74.93935021062624
 20
-49.34472499647048
 30
0.0
 10
74.93270189222339
 20
-49.37901701928567
 30
0.0
 10
74.92549962532736
 20
-49.413220731472
 30
0.0
 10
74.91774340568112
 20
-49.44732142594169
 30
0.0
 10
74.90998718603552
 20
-49.48142212041171
 30
0.0
 10
74.90167701363906
 20
-49.51541979716541
 30
0.0
 10
74.89281288423665
 20
-49.54929974911599
 30
0.0
 10
74.88394875483422
 20
-49.58317970106656
 30
0.0
 10
74.87453066842521
 20
-49.61694192821402
 30
0.0
 10
74.86455862075255
 20
-49.65057172347154
 30
0.0
 10
74.85458657308054
 20
-49.68420151872905
 30
0.0
 10
74.8440605641449
 20
-49.71769888209664
 30
0.0
 10
74.83298058968857
 20
-49.75104910648749
 30
0.0
 10
74.8219006152329
 20
-49.78439933087802
 30
0.0
 10
74.81026667525721
 20
-49.81760241629213
 30
0.0
 10
74.79807876550447
 20
-49.85064365564204
 30
0.0
 10
74.78589085575172
 20
-49.88368489499227
 30
0.0
 10
74.7731489762219
 20
-49.91656428827896
 30
0.0
 10
74.75985312265865
 20
-49.94926712841463
 30
0.0
 10
74.74655726909477
 20
-49.98196996855064
 30
0.0
 10
74.73270744149808
 20
-50.01449625553596
 30
0.0
 10
74.7183036356109
 20
-50.0468312822838
 30
0.0
 10
74.70389982972372
 20
-50.07916630903163
 30
0.0
 10
74.68894204554609
 20
-50.11131007554198
 30
0.0
 10
74.67343027882092
 20
-50.14324787472803
 30
0.0
 10
74.6579185120964
 20
-50.17518567391407
 30
0.0
 10
74.64185276282439
 20
-50.20691750577551
 30
0.0
 10
74.62523302674846
 20
-50.23842866322614
 30
0.0
 10
74.60861329067255
 20
-50.26993982067647
 30
0.0
 10
74.59143956779337
 20
-50.30123030371568
 30
0.0
 10
74.57371185385261
 20
-50.33228540525667
 30
0.0
 10
74.57371185385261
 20
-50.33228540525667
 30
0.0
 10
74.21500788641328
 20
-50.96080849164362
 30
0.0
 10
74.21500788641328
 20
-50.96080849164362
 30
0.0
 10
74.21500788641328
 20
-50.96080849164362
 30
0.0
 10
73.85630391897458
 20
-51.58933157803024
 30
0.0
 10
73.85630391897458
 20
-51.58933157803024
 30
0.0
 10
73.85630391897458
 20
-51.58933157803024
 30
0.0
 10
73.49759995153586
 20
-52.21785466441751
 30
0.0
 10
73.49759995153586
 20
-52.21785466441751
 30
0.0
 10
73.49759995153586
 20
-52.21785466441751
 30
0.0
 10
73.13889598409652
 20
-52.84637775080414
 30
0.0
 10
73.13889598409652
 20
-52.84637775080414
 30
0.0
 10
73.13889598409652
 20
-52.84637775080414
 30
0.0
 10
72.78019201665782
 20
-53.47490083719076
 30
0.0
 10
72.78019201665782
 20
-53.47490083719076
 30
0.0
 10
72.78019201665782
 20
-53.47490083719076
 30
0.0
 10
72.4214880492191
 20
-54.10342392357739
 30
0.0
 10
72.4214880492191
 20
-54.10342392357739
 30
0.0
 10
72.4214880492191
 20
-54.10342392357739
 30
0.0
 10
72.06278408177977
 20
-54.73194700996402
 30
0.0
 10
72.06278408177977
 20
-54.73194700996402
 30
0.0
 10
72.06278408177977
 20
-54.73194700996402
 30
0.0
 10
71.70408011434107
 20
-55.36047009635129
 30
0.0
 10
71.70408011434107
 20
-55.36047009635129
 30
0.0
 10
71.70408011434107
 20
-55.36047009635129
 30
0.0
 10
71.34537614690235
 20
-55.98899318273855
 30
0.0
 10
71.34537614690235
 20
-55.98899318273855
 30
0.0
 10
71.34537614690235
 20
-55.98899318273855
 30
0.0
 10
70.98667217946301
 20
-56.61751626912518
 30
0.0
 10
70.98667217946301
 20
-56.61751626912518
 30
0.0
 10
70.98667217946301
 20
-56.61751626912518
 30
0.0
 10
70.62796821202431
 20
-57.2460393555118
 30
0.0
 10
70.62796821202431
 20
-57.2460393555118
 30
0.0
 10
70.62796821202431
 20
-57.2460393555118
 30
0.0
 10
70.2692642445856
 20
-57.87456244189843
 30
0.0
 10
70.2692642445856
 20
-57.87456244189843
 30
0.0
 10
70.2692642445856
 20
-57.87456244189843
 30
0.0
 10
69.91056027714626
 20
-58.50308552828506
 30
0.0
 10
69.91056027714626
 20
-58.50308552828506
 30
0.0
 10
69.91056027714626
 20
-58.50308552828506
 30
0.0
 10
69.55185630970755
 20
-59.13160861467232
 30
0.0
 10
69.55185630970755
 20
-59.13160861467232
 30
0.0
 10
69.55185630970755
 20
-59.13160861467232
 30
0.0
 10
69.19315234226885
 20
-59.76013170105959
 30
0.0
 10
69.19315234226885
 20
-59.76013170105959
 30
0.0
 10
69.19315234226885
 20
-59.76013170105959
 30
0.0
 10
68.8344483748295
 20
-60.38865478744622
 30
0.0
 10
68.8344483748295
 20
-60.38865478744622
 30
0.0
 10
68.8344483748295
 20
-60.38865478744622
 30
0.0
 10
68.47574440739015
 20
-61.01717787383285
 30
0.0
 10
68.47574440739015
 20
-61.01717787383285
 30
0.0
 10
68.47574440739015
 20
-61.01717787383285
 30
0.0
 10
68.11704043995145
 20
-61.64570096021947
 30
0.0
 10
68.11704043995145
 20
-61.64570096021947
 30
0.0
 10
68.11704043995145
 20
-61.64570096021947
 30
0.0
 10
67.75833647251275
 20
-62.2742240466061
 30
0.0
 10
67.75833647251275
 20
-62.2742240466061
 30
0.0
 10
67.75833647251275
 20
-62.2742240466061
 30
0.0
 10
67.3996325050734
 20
-62.90274713299337
 30
0.0
 10
67.3996325050734
 20
-62.90274713299337
 30
0.0
 10
67.3996325050734
 20
-62.90274713299337
 30
0.0
 10
67.04092853763406
 20
-63.53127021938064
 30
0.0
 10
67.04092853763406
 20
-63.53127021938064
 30
0.0
 10
67.04092853763406
 20
-63.53127021938064
 30
0.0
 10
66.68222457019534
 20
-64.15979330576727
 30
0.0
 10
66.68222457019534
 20
-64.15979330576727
 30
0.0
 10
66.68222457019534
 20
-64.15979330576727
 30
0.0
 10
66.32352060275664
 20
-64.78831639215389
 30
0.0
 10
66.32352060275664
 20
-64.78831639215389
 30
0.0
 10
66.32352060275664
 20
-64.78831639215389
 30
0.0
 10
65.9648166353173
 20
-65.41683947854051
 30
0.0
 10
65.9648166353173
 20
-65.41683947854051
 30
0.0
 10
65.9648166353173
 20
-65.41683947854051
 30
0.0
 10
65.60611266787795
 20
-66.04536256492715
 30
0.0
 10
65.60611266787795
 20
-66.04536256492715
 30
0.0
 10
65.60611266787795
 20
-66.04536256492715
 30
0.0
 10
65.24740870043925
 20
-66.67388565131377
 30
0.0
 10
65.24740870043925
 20
-66.67388565131377
 30
0.0
 10
65.24740870043925
 20
-66.67388565131377
 30
0.0
 10
64.88870473300055
 20
-67.30240873770039
 30
0.0
 10
64.88870473300055
 20
-67.30240873770039
 30
0.0
 10
64.88870473300055
 20
-67.30240873770039
 30
0.0
 10
64.5300007655612
 20
-67.93093182408766
 30
0.0
 10
64.5300007655612
 20
-67.93093182408766
 30
0.0
 10
64.5300007655612
 20
-67.93093182408766
 30
0.0
 10
64.17129679812186
 20
-68.55945491047493
 30
0.0
 10
64.17129679812186
 20
-68.55945491047493
 30
0.0
 10
64.17129679812186
 20
-68.55945491047493
 30
0.0
 10
63.81259283068315
 20
-69.18797799686156
 30
0.0
 10
63.81259283068315
 20
-69.18797799686156
 30
0.0
 10
63.81259283068315
 20
-69.18797799686156
 30
0.0
 10
63.45388886324444
 20
-69.81650108324818
 30
0.0
 10
63.45388886324444
 20
-69.81650108324818
 30
0.0
 10
63.45388886324444
 20
-69.81650108324818
 30
0.0
 10
63.0951848958051
 20
-70.4450241696348
 30
0.0
 10
63.0951848958051
 20
-70.4450241696348
 30
0.0
 10
63.07715205770066
 20
-70.47662195629695
 30
0.0
 10
63.05862625336829
 20
-70.50784582964147
 30
0.0
 10
63.0396203680047
 20
-70.53868830203712
 30
0.0
 10
63.02061448264046
 20
-70.56953077443276
 30
0.0
 10
63.00112851624436
 20
-70.59999184588082
 30
0.0
 10
62.98117535401248
 20
-70.63006402874814
 30
0.0
 10
62.96122219178059
 20
-70.66013621161547
 30
0.0
 10
62.94080183371292
 20
-70.68981950590398
 30
0.0
 10
62.91992716500488
 20
-70.71910642398116
 30
0.0
 10
62.89905249629685
 20
-70.7483933420577
 30
0.0
 10
62.8777235169491
 20
-70.77728388392418
 30
0.0
 10
62.85595311215769
 20
-70.80577056194812
 30
0.0
 10
62.8341827073663
 20
-70.83425723997206
 30
0.0
 10
62.81197087712997
 20
-70.86234005415407
 30
0.0
 10
62.78933050664607
 20
-70.89001151686293
 30
0.0
 10
62.76669013616217
 20
-70.91768297957115
 30
0.0
 10
62.7436212254307
 20
-70.94494309080687
 30
0.0
 10
62.72013665964644
 20
-70.97178436293756
 30
0.0
 10
62.69665209386218
 20
-70.99862563506825
 30
0.0
 10
62.67275187302578
 20
-71.02504806809456
 30
0.0
 10
62.64844888233331
 20
-71.05104417438525
 30
0.0
 10
62.62414589164084
 20
-71.0770402806753
 30
0.0
 10
62.5994401310923
 20
-71.10261006023039
 30
0.0
 10
62.57434448588312
 20
-71.12774602541799
 30
0.0
 10
62.54924884067394
 20
-71.15288199060558
 30
0.0
 10
62.52376331080476
 20
-71.17758414142698
 30
0.0
 10
62.49790078147166
 20
-71.20184499024965
 30
0.0
 10
62.47203825213791
 20
-71.22610583907233
 30
0.0
 10
62.44579872334024
 20
-71.24992538589693
 30
0.0
 10
62.41919508027407
 20
-71.27329614309222
 30
0.0
 10
62.3925914372079
 20
-71.29666690028688
 30
0.0
 10
62.3656236798726
 20
-71.31958886785286
 30
0.0
 10
62.33830469346551
 20
-71.34205455815831
 30
0.0
 10
62.31098570705842
 20
-71.36452024846375
 30
0.0
 10
62.28331549157956
 20
-71.38652966150866
 30
0.0
 10
62.25530693222306
 20
-71.4080753096618
 30
0.0
 10
62.22729837286655
 20
-71.42962095781493
 30
0.0
 10
62.19895146963434
 20
-71.45070284107629
 30
0.0
 10
62.17027910772121
 20
-71.47131347181467
 30
0.0
 10
62.14160674580808
 20
-71.49192410255239
 30
0.0
 10
62.11260892521467
 20
-71.51206348076775
 30
0.0
 10
62.08329853113641
 20
-71.53172411882888
 30
0.0
 10
62.05398813705879
 20
-71.55138475689
 30
0.0
 10
62.02436516949568
 20
-71.5705666547969
 30
0.0
 10
61.9944425136438
 20
-71.58926232491834
 30
0.0
 10
61.96451985779255
 20
-71.60795799503977
 30
0.0
 10
61.93429751365253
 20
-71.62616743737637
 30
0.0
 10
61.90378836641917
 20
-71.64388316429564
 30
0.0
 10
61.8732792191858
 20
-71.66159889121491
 30
0.0
 10
61.84248326886038
 20
-71.67882090271813
 30
0.0
 10
61.81141340063768
 20
-71.69554171117342
 30
0.0
 10
61.78034353241562
 20
-71.7122625196287
 30
0.0
 10
61.74899974629629
 20
-71.72848212503607
 30
0.0
 10
61.71739492747576
 20
-71.74419303976426
 30
0.0
 10
61.68579010865523
 20
-71.75990395449246
 30
0.0
 10
61.65392425713478
 20
-71.7751061785415
 30
0.0
 10
61.62181025810855
 20
-71.78979222428079
 30
0.0
 10
61.58969625908233
 20
-71.80447827002008
 30
0.0
 10
61.55733411255162
 20
-71.81864813744835
 30
0.0
 10
61.52473670371186
 20
-71.83229433893626
 30
0.0
 10
61.4921392948721
 20
-71.8459405404242
 30
0.0
 10
61.45930662372327
 20
-71.85906307596984
 30
0.0
 10
61.42625157546082
 20
-71.8716544579433
 30
0.0
 10
61.39319652719966
 20
-71.88424583991738
 30
0.0
 10
61.35991910182487
 20
-71.89630606831797
 30
0.0
 10
61.32643218453253
 20
-71.90782765551512
 30
0.0
 10
61.29294526724018
 20
-71.91934924271227
 30
0.0
 10
61.25924885803157
 20
-71.93033218870534
 30
0.0
 10
61.22535584210147
 20
-71.94076900586371
 30
0.0
 10
61.19146282617073
 20
-71.95120582302147
 30
0.0
 10
61.15737320351979
 20
-71.96109651134454
 30
0.0
 10
61.1230998593428
 20
-71.9704335832017
 30
0.0
 10
61.08882651516581
 20
-71.97977065505887
 30
0.0
 10
61.0543694494647
 20
-71.98855411044948
 30
0.0
 10
61.0197415474336
 20
-71.99677646174297
 30
0.0
 10
60.98511364540251
 20
-72.00499881303644
 30
0.0
 10
60.95031490704208
 20
-72.01266006023215
 30
0.0
 10
60.91535821754838
 20
-72.01975271569947
 30
0.0
 10
60.88040152805469
 20
-72.02684537116616
 30
0.0
 10
60.84528688742773
 20
-72.03336943490513
 30
0.0
 10
60.81002718086357
 20
-72.03931741928385
 30
0.0
 10
60.77476747429878
 20
-72.04526540366257
 30
0.0
 10
60.73936270179743
 20
-72.05063730868105
 30
0.0
 10
60.70382574855368
 20
-72.05542564670868
 30
0.0
 10
60.66828879531057
 20
-72.06021398473634
 30
0.0
 10
60.63261966132569
 20
-72.06441875577315
 30
0.0
 10
60.59683123179577
 20
-72.0680324721879
 30
0.0
 10
60.56104280226585
 20
-72.071646188602
 30
0.0
 10
60.52513507719024
 20
-72.07466885039403
 30
0.0
 10
60.48912094176501
 20
-72.07709296993279
 30
0.0
 10
60.45310680633978
 20
-72.07951708947154
 30
0.0
 10
60.41698626056493
 20
-72.081342666757
 30
0.0
 10
60.38077218963654
 20
-72.08256221415728
 30
0.0
 10
60.34455811870814
 20
-72.0837817615582
 30
0.0
 10
60.3082505226262
 20
-72.08439527907396
 30
0.0
 10
60.27186228658615
 20
-72.08439527907396
 30
0.0
  0
ENDSEC
  0
SECTION
  2
OBJECTS
  0
DICTIONARY
  5
C
330
0
100
AcDbDictionary
  3
ACAD_GROUP
350
D
  3
ACAD_LAYOUT
350
1A
  3
ACAD_MATERIAL
350
3B
  3
ACAD_MLEADERSTYLE
350
44
  3
ACAD_MLINESTYLE
350
17
  3
ACAD_PLOTSETTINGS
350
19
  3
ACAD_VISUALSTYLE
350
2A
  3
ACDBVARIABLEDICTIONARY
350
42
1001
ACAD
1000
TREAT_AS_HARD
1070
     0
  0
DICTIONARY
  5
D
102
{ACAD_REACTORS
330
C
102
}
330
C
100
AcDbDictionary
1001
ACAD
1000
TREAT_AS_HARD
1070
     0
  0
DICTIONARY
  5
1A
102
{ACAD_REACTORS
330
C
102
}
330
C
100
AcDbDictionary
1001
ACAD
1000
TREAT_AS_HARD
1070
     0
  0
DICTIONARY
  5
3B
102
{ACAD_REACTORS
330
C
102
}
330
C
100
AcDbDictionary
  3
BYBLOCK
350
3D
  3
BYLAYER
350
3C
  3
GLOBAL
350
3E
1001
ACAD
1000
TREAT_AS_HARD
1070
     0
  0
DICTIONARY
  5
44
102
{ACAD_REACTORS
330
C
102
}
330
C
100
AcDbDictionary
1001
ACAD
1000
TREAT_AS_HARD
1070
     0
  0
DICTIONARY
  5
17
102
{ACAD_REACTORS
330
C
102
}
330
C
100
AcDbDictionary
  3
STANDARD
350
18
1001
ACAD
1000
TREAT_AS_HARD
1070
     0
  0
DICTIONARY
  5
19
102
{ACAD_REACTORS
330
C
102
}
330
C
100
AcDbDictionary
1001
ACAD
1000
TREAT_AS_HARD
1070
     0
  0
DICTIONARY
  5
2A
102
{ACAD_REACTORS
330
C
102
}
330
C
100
AcDbDictionary
  3
2DWIREFRAME
350
2F
  3
3DWIREFRAME
350
30
  3
3D_HIDDEN
350
31
  3
BASIC
350
32
  3
BRIGHTEN
350
36
  3
COLORCHANGE
350
3A
  3
CONCEPTUAL
350
34
  3
DIM
350
35
  3
FACEPATTERN
350
39
  3
FLAT
350
2B
  3
FLATWITHEDGES
350
2C
  3
GOURAUD
350
2D
  3
GOURAUDWITHEDGES
350
2E
  3
LINEPATTERN
350
38
  3
REALISTIC
350
33
  3
THICKEN
350
37
1001
ACAD
1000
TREAT_AS_HARD
1070
     0
  0
DICTIONARY
  5
42
102
{ACAD_REACTORS
330
C
102
}
330
C
100
AcDbDictionary
  3
DIMASSOC
350
45
  3
HIDETEXT
350
46
1001
ACAD
1000
TREAT_AS_HARD
1070
     0
  0
MATERIAL
  5
3D
102
{ACAD_REACTORS
330
3B
102
}
102
{ACAD_XDICTIONARY
360
49
102
}
330
3B
100
AcDbMaterial
  1
ByBlock
  0
MATERIAL
  5
3C
102
{ACAD_REACTORS
330
3B
102
}
102
{ACAD_XDICTIONARY
360
47
102
}
330
3B
100
AcDbMaterial
  1
ByLayer
  0
MATERIAL
  5
3E
102
{ACAD_REACTORS
330
3B
102
}
102
{ACAD_XDICTIONARY
360
4B
102
}
330
3B
100
AcDbMaterial
  1
Global
  0
MLINESTYLE
  5
18
102
{ACAD_REACTORS
330
17
102
}
330
17
100
AcDbMlineStyle
  2
Standard
 70
     0
  3

 62
   256
 51
90.0
 52
90.0
 71
     2
 49
0.5
 62
   256
  6
BYLAYER
 49
-0.5
 62
   256
  6
BYLAYER
  0
ACAD_PROXY_OBJECT
  5
2F
102
{ACAD_REACTORS
330
2A
102
}
330
2A
100
AcDbZombieObject
 90
      499
 91
      501
 93
      436
310
42CC9915DA5C99599C985B595049028333333333333E3BF0000000000000FB0107901411070040501600405405064090741402480A0340
1001
ACAD
1000
AcDbSavedByObjectVersion
1070
     0
  0
ACAD_PROXY_OBJECT
  5
30
102
{ACAD_REACTORS
330
2A
102
}
330
2A
100
AcDbZombieObject
 90
      499
 91
      501
 93
      436
310
42CCD915DA5C99599C985B595059028333333333333E3BF0000000000000FB0107901411070040501600405405064090741402480A0340
1001
ACAD
1000
AcDbSavedByObjectVersion
1070
     0
  0
ACAD_PROXY_OBJECT
  5
31
102
{ACAD_REACTORS
330
2A
102
}
330
2A
100
AcDbZombieObject
 90
      499
 91
      501
 93
      500
310
424CD108121A5919195B90640502408333333333333E3BF0000000000000FB01079024090700405020000000000001110200405405064090740C02480A0340
1001
ACAD
1000
AcDbSavedByObjectVersion
1070
     0
  0
ACAD_PROXY_OBJECT
  5
32
102
{ACAD_REACTORS
330
2A
102
}
330
2A
100
AcDbZombieObject
 90
      499
 91
      501
 93
      388
310
4150985CDA58D07406404333333333333E3BF0000000000000FB0107A41107004050150841D405064090741402480A0350
1001
ACAD
1000
AcDbSavedByObjectVersion
1070
     0
  0
ACAD_PROXY_OBJECT
  5
36
102
{ACAD_REACTORS
330
2A
102
}
330
2A
100
AcDbZombieObject
 90
      499
 91
      501
 93
      428
310
42109C9A59DA1D195B90C409028333333333333E3BF0000000000000FB010790141107004050150841D405064090741402480A029950
1001
ACAD
1000
AcDbSavedByObjectVersion
1070
     0
  0
ACAD_PROXY_OBJECT
  5
3A
102
{ACAD_REACTORS
330
2A
102
}
330
2A
100
AcDbZombieObject
 90
      499
 91
      501
 93
      452
310
42D0DBDB1BDC90DA185B99D95104090240C333333333333E3BF0000000000000FB0108901411070040501508421405064090741402480A0350
1001
ACAD
1000
AcDbSavedByObjectVersion
1070
     0
  0
ACAD_PROXY_OBJECT
  5
34
102
{ACAD_REACTORS
330
2A
102
}
330
2A
100
AcDbZombieObject
 90
      499
 91
      501
 93
      500
310
4290DBDB98D95C1D1D585B10940D028333333333333E3BF0000000000000FB0107902409070040501000000000000111010841D405064090740C02480A0340
1001
ACAD
1000
AcDbSavedByObjectVersion
1070
     0
  0
ACAD_PROXY_OBJECT
  5
35
102
{ACAD_REACTORS
330
2A
102
}
330
2A
100
AcDbZombieObject
 90
      499
 91
      501
 93
      412
310
40D11A5B50B409028333333333333E3BF0000000000000FB010790141107004050150841D405064090741402480A02677FFFFFD0
1001
ACAD
1000
AcDbSavedByObjectVersion
1070
     0
  0
ACAD_PROXY_OBJECT
  5
39
102
{ACAD_REACTORS
330
2A
102
}
330
2A
100
AcDbZombieObject
 90
      499
 91
      501
 93
      444
310
42D19858D95C185D1D195C9B90F409028333333333333E3BF0000000000000FB010790141107004050150841D405064090741402480A0350
1001
ACAD
1000
AcDbSavedByObjectVersion
1070
     0
  0
ACAD_PROXY_OBJECT
  5
2B
102
{ACAD_REACTORS
330
2A
102
}
330
2A
100
AcDbZombieObject
 90
      499
 91
      501
 93
      388
310
41119B185D240901404333333333333E3BF0000000000000F9010740A41107004050150841D405064090741402480A1B50
1001
ACAD
1000
AcDbSavedByObjectVersion
1070
     0
  0
ACAD_PROXY_OBJECT
  5
2C
102
{ACAD_REACTORS
330
2A
102
}
330
2A
100
AcDbZombieObject
 90
      499
 91
      501
 93
      476
310
43519B185D15DA5D1A115919D95CD0140901404333333333333E3BF0000000000000F9010740901411070040501600405405064090741402480A1B50
1001
ACAD
1000
AcDbSavedByObjectVersion
1070
     0
  0
ACAD_PROXY_OBJECT
  5
2D
102
{ACAD_REACTORS
330
2A
102
}
330
2A
100
AcDbZombieObject
 90
      499
 91
      501
 93
      412
310
41D1DBDD5C985D5910240902404333333333333E3BF0000000000000F9010740A411070040501641D405064090741402480A1B50
1001
ACAD
1000
AcDbSavedByObjectVersion
1070
     0
  0
ACAD_PROXY_OBJECT
  5
2E
102
{ACAD_REACTORS
330
2A
102
}
330
2A
100
AcDbZombieObject
 90
      499
 91
      501
 93
      500
310
4411DBDD5C985D5915DA5D1A115919D95CD0340902404333333333333E3BF0000000000000F9010740901411070040501600405405064090741402480A1B50
1001
ACAD
1000
AcDbSavedByObjectVersion
1070
     0
  0
ACAD_PROXY_OBJECT
  5
38
102
{ACAD_REACTORS
330
2A
102
}
330
2A
100
AcDbZombieObject
 90
      499
 91
      501
 93
      444
310
42D31A5B995C185D1D195C9B90E409028333333333333E3BF0000000000000FB010790141107004050750841D405064090741402483A0350
1001
ACAD
1000
AcDbSavedByObjectVersion
1070
     0
  0
ACAD_PROXY_OBJECT
  5
33
102
{ACAD_REACTORS
330
2A
102
}
330
2A
100
AcDbZombieObject
 90
      499
 91
      501
 93
      420
310
425499585B1A5CDD1A58D08409028333333333333E3BF0000000000000FB01079019070040501508421405064090741402480A1B40
1001
ACAD
1000
AcDbSavedByObjectVersion
1070
     0
  0
ACAD_PROXY_OBJECT
  5
37
102
{ACAD_REACTORS
330
2A
102
}
330
2A
100
AcDbZombieObject
 90
      499
 91
      501
 93
      412
310
41D51A1A58DAD95B90D409028333333333333E3BF0000000000000FB010790141107004050150C41D405064090741402480A0350
1001
ACAD
1000
AcDbSavedByObjectVersion
1070
     0
  0
DICTIONARYVAR
  5
45
102
{ACAD_REACTORS
330
42
102
}
330
42
100
DictionaryVariables
280
     0
  1
2
  0
DICTIONARYVAR
  5
46
102
{ACAD_REACTORS
330
42
102
}
330
42
100
DictionaryVariables
280
     0
  1
1
  0
DICTIONARY
  5
49
330
3D
100
AcDbDictionary
  3
ACAD_XREC_ROUNDTRIP
360
4A
1001
ACAD
1000
TREAT_AS_HARD
1070
     1
  0
DICTIONARY
  5
47
330
3C
100
AcDbDictionary
  3
ACAD_XREC_ROUNDTRIP
360
48
1001
ACAD
1000
TREAT_AS_HARD
1070
     1
  0
DICTIONARY
  5
4B
330
3E
100
AcDbDictionary
  3
ACAD_XREC_ROUNDTRIP
360
4C
1001
ACAD
1000
TREAT_AS_HARD
1070
     1
  0
XRECORD
  5
4A
102
{ACAD_REACTORS
330
49
102
}
330
49
100
AcDbXrecord
102
MATERIAL
148
0.0
149
0.0
149
0.0
 93
        0
 94
      127
282
     0
 72
     1
 77
     1
171
     1
175
     1
179
     1
273
     0
  0
XRECORD
  5
48
102
{ACAD_REACTORS
330
47
102
}
330
47
100
AcDbXrecord
102
MATERIAL
148
0.0
149
0.0
149
0.0
 93
        0
 94
      127
282
     0
 72
     1
 77
     1
171
     1
175
     1
179
     1
273
     0
  0
XRECORD
  5
4C
102
{ACAD_REACTORS
330
4B
102
}
330
4B
100
AcDbXrecord
102
MATERIAL
148
0.0
149
0.0
149
0.0
 93
        0
 94
      127
282
     0
 72
     1
 77
     1
171
     1
175
     1
179
     1
273
     0
  0
ENDSEC
  0
EOF
